G04 #@! TF.GenerationSoftware,KiCad,Pcbnew,(5.1.8-0-10_14)*
G04 #@! TF.CreationDate,2021-01-18T01:09:24+08:00*
G04 #@! TF.ProjectId,stm32f401_devboard,73746d33-3266-4343-9031-5f646576626f,rev?*
G04 #@! TF.SameCoordinates,Original*
G04 #@! TF.FileFunction,Paste,Bot*
G04 #@! TF.FilePolarity,Positive*
%FSLAX46Y46*%
G04 Gerber Fmt 4.6, Leading zero omitted, Abs format (unit mm)*
G04 Created by KiCad (PCBNEW (5.1.8-0-10_14)) date 2021-01-18 01:09:24*
%MOMM*%
%LPD*%
G01*
G04 APERTURE LIST*
%ADD10R,2.000000X1.500000*%
%ADD11R,2.000000X3.800000*%
G04 APERTURE END LIST*
D10*
X114270000Y-58410000D03*
X114270000Y-63010000D03*
X114270000Y-60710000D03*
D11*
X107970000Y-60710000D03*
G36*
G01*
X132040000Y-55055000D02*
X132040000Y-54685000D01*
G75*
G02*
X132175000Y-54550000I135000J0D01*
G01*
X132445000Y-54550000D01*
G75*
G02*
X132580000Y-54685000I0J-135000D01*
G01*
X132580000Y-55055000D01*
G75*
G02*
X132445000Y-55190000I-135000J0D01*
G01*
X132175000Y-55190000D01*
G75*
G02*
X132040000Y-55055000I0J135000D01*
G01*
G37*
G36*
G01*
X131020000Y-55055000D02*
X131020000Y-54685000D01*
G75*
G02*
X131155000Y-54550000I135000J0D01*
G01*
X131425000Y-54550000D01*
G75*
G02*
X131560000Y-54685000I0J-135000D01*
G01*
X131560000Y-55055000D01*
G75*
G02*
X131425000Y-55190000I-135000J0D01*
G01*
X131155000Y-55190000D01*
G75*
G02*
X131020000Y-55055000I0J135000D01*
G01*
G37*
G36*
G01*
X110030000Y-55025000D02*
X110030000Y-55395000D01*
G75*
G02*
X109895000Y-55530000I-135000J0D01*
G01*
X109625000Y-55530000D01*
G75*
G02*
X109490000Y-55395000I0J135000D01*
G01*
X109490000Y-55025000D01*
G75*
G02*
X109625000Y-54890000I135000J0D01*
G01*
X109895000Y-54890000D01*
G75*
G02*
X110030000Y-55025000I0J-135000D01*
G01*
G37*
G36*
G01*
X111050000Y-55025000D02*
X111050000Y-55395000D01*
G75*
G02*
X110915000Y-55530000I-135000J0D01*
G01*
X110645000Y-55530000D01*
G75*
G02*
X110510000Y-55395000I0J135000D01*
G01*
X110510000Y-55025000D01*
G75*
G02*
X110645000Y-54890000I135000J0D01*
G01*
X110915000Y-54890000D01*
G75*
G02*
X111050000Y-55025000I0J-135000D01*
G01*
G37*
G36*
G01*
X133997500Y-55750000D02*
X133522500Y-55750000D01*
G75*
G02*
X133285000Y-55512500I0J237500D01*
G01*
X133285000Y-54937500D01*
G75*
G02*
X133522500Y-54700000I237500J0D01*
G01*
X133997500Y-54700000D01*
G75*
G02*
X134235000Y-54937500I0J-237500D01*
G01*
X134235000Y-55512500D01*
G75*
G02*
X133997500Y-55750000I-237500J0D01*
G01*
G37*
G36*
G01*
X133997500Y-57500000D02*
X133522500Y-57500000D01*
G75*
G02*
X133285000Y-57262500I0J237500D01*
G01*
X133285000Y-56687500D01*
G75*
G02*
X133522500Y-56450000I237500J0D01*
G01*
X133997500Y-56450000D01*
G75*
G02*
X134235000Y-56687500I0J-237500D01*
G01*
X134235000Y-57262500D01*
G75*
G02*
X133997500Y-57500000I-237500J0D01*
G01*
G37*
G36*
G01*
X120180000Y-57650001D02*
X120180000Y-56749999D01*
G75*
G02*
X120429999Y-56500000I249999J0D01*
G01*
X121080001Y-56500000D01*
G75*
G02*
X121330000Y-56749999I0J-249999D01*
G01*
X121330000Y-57650001D01*
G75*
G02*
X121080001Y-57900000I-249999J0D01*
G01*
X120429999Y-57900000D01*
G75*
G02*
X120180000Y-57650001I0J249999D01*
G01*
G37*
G36*
G01*
X118130000Y-57650001D02*
X118130000Y-56749999D01*
G75*
G02*
X118379999Y-56500000I249999J0D01*
G01*
X119030001Y-56500000D01*
G75*
G02*
X119280000Y-56749999I0J-249999D01*
G01*
X119280000Y-57650001D01*
G75*
G02*
X119030001Y-57900000I-249999J0D01*
G01*
X118379999Y-57900000D01*
G75*
G02*
X118130000Y-57650001I0J249999D01*
G01*
G37*
M02*
