G04 #@! TF.GenerationSoftware,KiCad,Pcbnew,(5.1.8-0-10_14)*
G04 #@! TF.CreationDate,2021-01-18T01:09:24+08:00*
G04 #@! TF.ProjectId,stm32f401_devboard,73746d33-3266-4343-9031-5f646576626f,rev?*
G04 #@! TF.SameCoordinates,Original*
G04 #@! TF.FileFunction,Paste,Top*
G04 #@! TF.FilePolarity,Positive*
%FSLAX46Y46*%
G04 Gerber Fmt 4.6, Leading zero omitted, Abs format (unit mm)*
G04 Created by KiCad (PCBNEW (5.1.8-0-10_14)) date 2021-01-18 01:09:24*
%MOMM*%
%LPD*%
G01*
G04 APERTURE LIST*
%ADD10R,0.899998X1.699997*%
%ADD11R,1.699997X0.899998*%
%ADD12R,1.400048X1.499997*%
%ADD13R,1.499997X2.500000*%
%ADD14R,1.799996X0.399999*%
%ADD15R,1.000000X1.800000*%
%ADD16R,2.100000X1.800000*%
G04 APERTURE END LIST*
G36*
G01*
X142960000Y-63150001D02*
X142960000Y-61849999D01*
G75*
G02*
X143209999Y-61600000I249999J0D01*
G01*
X144035001Y-61600000D01*
G75*
G02*
X144285000Y-61849999I0J-249999D01*
G01*
X144285000Y-63150001D01*
G75*
G02*
X144035001Y-63400000I-249999J0D01*
G01*
X143209999Y-63400000D01*
G75*
G02*
X142960000Y-63150001I0J249999D01*
G01*
G37*
G36*
G01*
X139835000Y-63150001D02*
X139835000Y-61849999D01*
G75*
G02*
X140084999Y-61600000I249999J0D01*
G01*
X140910001Y-61600000D01*
G75*
G02*
X141160000Y-61849999I0J-249999D01*
G01*
X141160000Y-63150001D01*
G75*
G02*
X140910001Y-63400000I-249999J0D01*
G01*
X140084999Y-63400000D01*
G75*
G02*
X139835000Y-63150001I0J249999D01*
G01*
G37*
G36*
G01*
X145130000Y-65496250D02*
X145130000Y-64583750D01*
G75*
G02*
X145373750Y-64340000I243750J0D01*
G01*
X145861250Y-64340000D01*
G75*
G02*
X146105000Y-64583750I0J-243750D01*
G01*
X146105000Y-65496250D01*
G75*
G02*
X145861250Y-65740000I-243750J0D01*
G01*
X145373750Y-65740000D01*
G75*
G02*
X145130000Y-65496250I0J243750D01*
G01*
G37*
G36*
G01*
X143255000Y-65496250D02*
X143255000Y-64583750D01*
G75*
G02*
X143498750Y-64340000I243750J0D01*
G01*
X143986250Y-64340000D01*
G75*
G02*
X144230000Y-64583750I0J-243750D01*
G01*
X144230000Y-65496250D01*
G75*
G02*
X143986250Y-65740000I-243750J0D01*
G01*
X143498750Y-65740000D01*
G75*
G02*
X143255000Y-65496250I0J243750D01*
G01*
G37*
G36*
G01*
X106880000Y-56373750D02*
X106880000Y-57286250D01*
G75*
G02*
X106636250Y-57530000I-243750J0D01*
G01*
X106148750Y-57530000D01*
G75*
G02*
X105905000Y-57286250I0J243750D01*
G01*
X105905000Y-56373750D01*
G75*
G02*
X106148750Y-56130000I243750J0D01*
G01*
X106636250Y-56130000D01*
G75*
G02*
X106880000Y-56373750I0J-243750D01*
G01*
G37*
G36*
G01*
X108755000Y-56373750D02*
X108755000Y-57286250D01*
G75*
G02*
X108511250Y-57530000I-243750J0D01*
G01*
X108023750Y-57530000D01*
G75*
G02*
X107780000Y-57286250I0J243750D01*
G01*
X107780000Y-56373750D01*
G75*
G02*
X108023750Y-56130000I243750J0D01*
G01*
X108511250Y-56130000D01*
G75*
G02*
X108755000Y-56373750I0J-243750D01*
G01*
G37*
G36*
G01*
X107757500Y-65936250D02*
X107757500Y-65023750D01*
G75*
G02*
X108001250Y-64780000I243750J0D01*
G01*
X108488750Y-64780000D01*
G75*
G02*
X108732500Y-65023750I0J-243750D01*
G01*
X108732500Y-65936250D01*
G75*
G02*
X108488750Y-66180000I-243750J0D01*
G01*
X108001250Y-66180000D01*
G75*
G02*
X107757500Y-65936250I0J243750D01*
G01*
G37*
G36*
G01*
X105882500Y-65936250D02*
X105882500Y-65023750D01*
G75*
G02*
X106126250Y-64780000I243750J0D01*
G01*
X106613750Y-64780000D01*
G75*
G02*
X106857500Y-65023750I0J-243750D01*
G01*
X106857500Y-65936250D01*
G75*
G02*
X106613750Y-66180000I-243750J0D01*
G01*
X106126250Y-66180000D01*
G75*
G02*
X105882500Y-65936250I0J243750D01*
G01*
G37*
D10*
X116249970Y-62450000D03*
X111650030Y-62450000D03*
D11*
X145160000Y-56290030D03*
X145160000Y-60889970D03*
G36*
G01*
X144985000Y-54980000D02*
X145355000Y-54980000D01*
G75*
G02*
X145490000Y-55115000I0J-135000D01*
G01*
X145490000Y-55385000D01*
G75*
G02*
X145355000Y-55520000I-135000J0D01*
G01*
X144985000Y-55520000D01*
G75*
G02*
X144850000Y-55385000I0J135000D01*
G01*
X144850000Y-55115000D01*
G75*
G02*
X144985000Y-54980000I135000J0D01*
G01*
G37*
G36*
G01*
X144985000Y-53960000D02*
X145355000Y-53960000D01*
G75*
G02*
X145490000Y-54095000I0J-135000D01*
G01*
X145490000Y-54365000D01*
G75*
G02*
X145355000Y-54500000I-135000J0D01*
G01*
X144985000Y-54500000D01*
G75*
G02*
X144850000Y-54365000I0J135000D01*
G01*
X144850000Y-54095000D01*
G75*
G02*
X144985000Y-53960000I135000J0D01*
G01*
G37*
G36*
G01*
X141460000Y-64685000D02*
X141460000Y-65055000D01*
G75*
G02*
X141325000Y-65190000I-135000J0D01*
G01*
X141055000Y-65190000D01*
G75*
G02*
X140920000Y-65055000I0J135000D01*
G01*
X140920000Y-64685000D01*
G75*
G02*
X141055000Y-64550000I135000J0D01*
G01*
X141325000Y-64550000D01*
G75*
G02*
X141460000Y-64685000I0J-135000D01*
G01*
G37*
G36*
G01*
X142480000Y-64685000D02*
X142480000Y-65055000D01*
G75*
G02*
X142345000Y-65190000I-135000J0D01*
G01*
X142075000Y-65190000D01*
G75*
G02*
X141940000Y-65055000I0J135000D01*
G01*
X141940000Y-64685000D01*
G75*
G02*
X142075000Y-64550000I135000J0D01*
G01*
X142345000Y-64550000D01*
G75*
G02*
X142480000Y-64685000I0J-135000D01*
G01*
G37*
G36*
G01*
X109725000Y-55285000D02*
X109725000Y-54915000D01*
G75*
G02*
X109860000Y-54780000I135000J0D01*
G01*
X110130000Y-54780000D01*
G75*
G02*
X110265000Y-54915000I0J-135000D01*
G01*
X110265000Y-55285000D01*
G75*
G02*
X110130000Y-55420000I-135000J0D01*
G01*
X109860000Y-55420000D01*
G75*
G02*
X109725000Y-55285000I0J135000D01*
G01*
G37*
G36*
G01*
X108705000Y-55285000D02*
X108705000Y-54915000D01*
G75*
G02*
X108840000Y-54780000I135000J0D01*
G01*
X109110000Y-54780000D01*
G75*
G02*
X109245000Y-54915000I0J-135000D01*
G01*
X109245000Y-55285000D01*
G75*
G02*
X109110000Y-55420000I-135000J0D01*
G01*
X108840000Y-55420000D01*
G75*
G02*
X108705000Y-55285000I0J135000D01*
G01*
G37*
G36*
G01*
X104130000Y-65365000D02*
X104130000Y-65735000D01*
G75*
G02*
X103995000Y-65870000I-135000J0D01*
G01*
X103725000Y-65870000D01*
G75*
G02*
X103590000Y-65735000I0J135000D01*
G01*
X103590000Y-65365000D01*
G75*
G02*
X103725000Y-65230000I135000J0D01*
G01*
X103995000Y-65230000D01*
G75*
G02*
X104130000Y-65365000I0J-135000D01*
G01*
G37*
G36*
G01*
X105150000Y-65365000D02*
X105150000Y-65735000D01*
G75*
G02*
X105015000Y-65870000I-135000J0D01*
G01*
X104745000Y-65870000D01*
G75*
G02*
X104610000Y-65735000I0J135000D01*
G01*
X104610000Y-65365000D01*
G75*
G02*
X104745000Y-65230000I135000J0D01*
G01*
X105015000Y-65230000D01*
G75*
G02*
X105150000Y-65365000I0J-135000D01*
G01*
G37*
G36*
G01*
X112790000Y-54365000D02*
X112790000Y-54735000D01*
G75*
G02*
X112655000Y-54870000I-135000J0D01*
G01*
X112385000Y-54870000D01*
G75*
G02*
X112250000Y-54735000I0J135000D01*
G01*
X112250000Y-54365000D01*
G75*
G02*
X112385000Y-54230000I135000J0D01*
G01*
X112655000Y-54230000D01*
G75*
G02*
X112790000Y-54365000I0J-135000D01*
G01*
G37*
G36*
G01*
X113810000Y-54365000D02*
X113810000Y-54735000D01*
G75*
G02*
X113675000Y-54870000I-135000J0D01*
G01*
X113405000Y-54870000D01*
G75*
G02*
X113270000Y-54735000I0J135000D01*
G01*
X113270000Y-54365000D01*
G75*
G02*
X113405000Y-54230000I135000J0D01*
G01*
X113675000Y-54230000D01*
G75*
G02*
X113810000Y-54365000I0J-135000D01*
G01*
G37*
G36*
G01*
X135020000Y-60950000D02*
X135020000Y-61290000D01*
G75*
G02*
X134880000Y-61430000I-140000J0D01*
G01*
X134600000Y-61430000D01*
G75*
G02*
X134460000Y-61290000I0J140000D01*
G01*
X134460000Y-60950000D01*
G75*
G02*
X134600000Y-60810000I140000J0D01*
G01*
X134880000Y-60810000D01*
G75*
G02*
X135020000Y-60950000I0J-140000D01*
G01*
G37*
G36*
G01*
X135980000Y-60950000D02*
X135980000Y-61290000D01*
G75*
G02*
X135840000Y-61430000I-140000J0D01*
G01*
X135560000Y-61430000D01*
G75*
G02*
X135420000Y-61290000I0J140000D01*
G01*
X135420000Y-60950000D01*
G75*
G02*
X135560000Y-60810000I140000J0D01*
G01*
X135840000Y-60810000D01*
G75*
G02*
X135980000Y-60950000I0J-140000D01*
G01*
G37*
G36*
G01*
X137350000Y-61290000D02*
X137350000Y-60950000D01*
G75*
G02*
X137490000Y-60810000I140000J0D01*
G01*
X137770000Y-60810000D01*
G75*
G02*
X137910000Y-60950000I0J-140000D01*
G01*
X137910000Y-61290000D01*
G75*
G02*
X137770000Y-61430000I-140000J0D01*
G01*
X137490000Y-61430000D01*
G75*
G02*
X137350000Y-61290000I0J140000D01*
G01*
G37*
G36*
G01*
X136390000Y-61290000D02*
X136390000Y-60950000D01*
G75*
G02*
X136530000Y-60810000I140000J0D01*
G01*
X136810000Y-60810000D01*
G75*
G02*
X136950000Y-60950000I0J-140000D01*
G01*
X136950000Y-61290000D01*
G75*
G02*
X136810000Y-61430000I-140000J0D01*
G01*
X136530000Y-61430000D01*
G75*
G02*
X136390000Y-61290000I0J140000D01*
G01*
G37*
G36*
G01*
X142180000Y-56590000D02*
X141840000Y-56590000D01*
G75*
G02*
X141700000Y-56450000I0J140000D01*
G01*
X141700000Y-56170000D01*
G75*
G02*
X141840000Y-56030000I140000J0D01*
G01*
X142180000Y-56030000D01*
G75*
G02*
X142320000Y-56170000I0J-140000D01*
G01*
X142320000Y-56450000D01*
G75*
G02*
X142180000Y-56590000I-140000J0D01*
G01*
G37*
G36*
G01*
X142180000Y-57550000D02*
X141840000Y-57550000D01*
G75*
G02*
X141700000Y-57410000I0J140000D01*
G01*
X141700000Y-57130000D01*
G75*
G02*
X141840000Y-56990000I140000J0D01*
G01*
X142180000Y-56990000D01*
G75*
G02*
X142320000Y-57130000I0J-140000D01*
G01*
X142320000Y-57410000D01*
G75*
G02*
X142180000Y-57550000I-140000J0D01*
G01*
G37*
G36*
G01*
X138330000Y-59550000D02*
X138330000Y-59890000D01*
G75*
G02*
X138190000Y-60030000I-140000J0D01*
G01*
X137910000Y-60030000D01*
G75*
G02*
X137770000Y-59890000I0J140000D01*
G01*
X137770000Y-59550000D01*
G75*
G02*
X137910000Y-59410000I140000J0D01*
G01*
X138190000Y-59410000D01*
G75*
G02*
X138330000Y-59550000I0J-140000D01*
G01*
G37*
G36*
G01*
X139290000Y-59550000D02*
X139290000Y-59890000D01*
G75*
G02*
X139150000Y-60030000I-140000J0D01*
G01*
X138870000Y-60030000D01*
G75*
G02*
X138730000Y-59890000I0J140000D01*
G01*
X138730000Y-59550000D01*
G75*
G02*
X138870000Y-59410000I140000J0D01*
G01*
X139150000Y-59410000D01*
G75*
G02*
X139290000Y-59550000I0J-140000D01*
G01*
G37*
D10*
X112450030Y-57200000D03*
X117049970Y-57200000D03*
D12*
X103930516Y-57150070D03*
X103930516Y-63649930D03*
D13*
X101189602Y-56325078D03*
X101189602Y-64474922D03*
D14*
X104510652Y-59103584D03*
X104510652Y-59753824D03*
X104510652Y-60404064D03*
X104510652Y-61054304D03*
X104510652Y-61704544D03*
D15*
X134960000Y-62840000D03*
X137460000Y-62840000D03*
D16*
X137060000Y-55620000D03*
X139960000Y-55620000D03*
X139960000Y-57920000D03*
X137060000Y-57920000D03*
G36*
G01*
X124506929Y-59877746D02*
X124952406Y-60323223D01*
G75*
G02*
X124952406Y-60676777I-176777J-176777D01*
G01*
X124506929Y-61122254D01*
G75*
G02*
X124153375Y-61122254I-176777J176777D01*
G01*
X123707898Y-60676777D01*
G75*
G02*
X123707898Y-60323223I176777J176777D01*
G01*
X124153375Y-59877746D01*
G75*
G02*
X124506929Y-59877746I176777J-176777D01*
G01*
G37*
G36*
G01*
X125496878Y-60867695D02*
X125942355Y-61313172D01*
G75*
G02*
X125942355Y-61666726I-176777J-176777D01*
G01*
X125496878Y-62112203D01*
G75*
G02*
X125143324Y-62112203I-176777J176777D01*
G01*
X124697847Y-61666726D01*
G75*
G02*
X124697847Y-61313172I176777J176777D01*
G01*
X125143324Y-60867695D01*
G75*
G02*
X125496878Y-60867695I176777J-176777D01*
G01*
G37*
G36*
G01*
X126486828Y-61857645D02*
X126932305Y-62303122D01*
G75*
G02*
X126932305Y-62656676I-176777J-176777D01*
G01*
X126486828Y-63102153D01*
G75*
G02*
X126133274Y-63102153I-176777J176777D01*
G01*
X125687797Y-62656676D01*
G75*
G02*
X125687797Y-62303122I176777J176777D01*
G01*
X126133274Y-61857645D01*
G75*
G02*
X126486828Y-61857645I176777J-176777D01*
G01*
G37*
G36*
G01*
X127476777Y-62847594D02*
X127922254Y-63293071D01*
G75*
G02*
X127922254Y-63646625I-176777J-176777D01*
G01*
X127476777Y-64092102D01*
G75*
G02*
X127123223Y-64092102I-176777J176777D01*
G01*
X126677746Y-63646625D01*
G75*
G02*
X126677746Y-63293071I176777J176777D01*
G01*
X127123223Y-62847594D01*
G75*
G02*
X127476777Y-62847594I176777J-176777D01*
G01*
G37*
G36*
G01*
X125496878Y-58887797D02*
X125942355Y-59333274D01*
G75*
G02*
X125942355Y-59686828I-176777J-176777D01*
G01*
X125496878Y-60132305D01*
G75*
G02*
X125143324Y-60132305I-176777J176777D01*
G01*
X124697847Y-59686828D01*
G75*
G02*
X124697847Y-59333274I176777J176777D01*
G01*
X125143324Y-58887797D01*
G75*
G02*
X125496878Y-58887797I176777J-176777D01*
G01*
G37*
G36*
G01*
X126486828Y-59877746D02*
X126932305Y-60323223D01*
G75*
G02*
X126932305Y-60676777I-176777J-176777D01*
G01*
X126486828Y-61122254D01*
G75*
G02*
X126133274Y-61122254I-176777J176777D01*
G01*
X125687797Y-60676777D01*
G75*
G02*
X125687797Y-60323223I176777J176777D01*
G01*
X126133274Y-59877746D01*
G75*
G02*
X126486828Y-59877746I176777J-176777D01*
G01*
G37*
G36*
G01*
X127476777Y-60867695D02*
X127922254Y-61313172D01*
G75*
G02*
X127922254Y-61666726I-176777J-176777D01*
G01*
X127476777Y-62112203D01*
G75*
G02*
X127123223Y-62112203I-176777J176777D01*
G01*
X126677746Y-61666726D01*
G75*
G02*
X126677746Y-61313172I176777J176777D01*
G01*
X127123223Y-60867695D01*
G75*
G02*
X127476777Y-60867695I176777J-176777D01*
G01*
G37*
G36*
G01*
X128466726Y-61857645D02*
X128912203Y-62303122D01*
G75*
G02*
X128912203Y-62656676I-176777J-176777D01*
G01*
X128466726Y-63102153D01*
G75*
G02*
X128113172Y-63102153I-176777J176777D01*
G01*
X127667695Y-62656676D01*
G75*
G02*
X127667695Y-62303122I176777J176777D01*
G01*
X128113172Y-61857645D01*
G75*
G02*
X128466726Y-61857645I176777J-176777D01*
G01*
G37*
G36*
G01*
X126486828Y-57897847D02*
X126932305Y-58343324D01*
G75*
G02*
X126932305Y-58696878I-176777J-176777D01*
G01*
X126486828Y-59142355D01*
G75*
G02*
X126133274Y-59142355I-176777J176777D01*
G01*
X125687797Y-58696878D01*
G75*
G02*
X125687797Y-58343324I176777J176777D01*
G01*
X126133274Y-57897847D01*
G75*
G02*
X126486828Y-57897847I176777J-176777D01*
G01*
G37*
G36*
G01*
X127476777Y-58887797D02*
X127922254Y-59333274D01*
G75*
G02*
X127922254Y-59686828I-176777J-176777D01*
G01*
X127476777Y-60132305D01*
G75*
G02*
X127123223Y-60132305I-176777J176777D01*
G01*
X126677746Y-59686828D01*
G75*
G02*
X126677746Y-59333274I176777J176777D01*
G01*
X127123223Y-58887797D01*
G75*
G02*
X127476777Y-58887797I176777J-176777D01*
G01*
G37*
G36*
G01*
X128466726Y-59877746D02*
X128912203Y-60323223D01*
G75*
G02*
X128912203Y-60676777I-176777J-176777D01*
G01*
X128466726Y-61122254D01*
G75*
G02*
X128113172Y-61122254I-176777J176777D01*
G01*
X127667695Y-60676777D01*
G75*
G02*
X127667695Y-60323223I176777J176777D01*
G01*
X128113172Y-59877746D01*
G75*
G02*
X128466726Y-59877746I176777J-176777D01*
G01*
G37*
G36*
G01*
X129456676Y-60867695D02*
X129902153Y-61313172D01*
G75*
G02*
X129902153Y-61666726I-176777J-176777D01*
G01*
X129456676Y-62112203D01*
G75*
G02*
X129103122Y-62112203I-176777J176777D01*
G01*
X128657645Y-61666726D01*
G75*
G02*
X128657645Y-61313172I176777J176777D01*
G01*
X129103122Y-60867695D01*
G75*
G02*
X129456676Y-60867695I176777J-176777D01*
G01*
G37*
G36*
G01*
X127476777Y-56907898D02*
X127922254Y-57353375D01*
G75*
G02*
X127922254Y-57706929I-176777J-176777D01*
G01*
X127476777Y-58152406D01*
G75*
G02*
X127123223Y-58152406I-176777J176777D01*
G01*
X126677746Y-57706929D01*
G75*
G02*
X126677746Y-57353375I176777J176777D01*
G01*
X127123223Y-56907898D01*
G75*
G02*
X127476777Y-56907898I176777J-176777D01*
G01*
G37*
G36*
G01*
X128466726Y-57897847D02*
X128912203Y-58343324D01*
G75*
G02*
X128912203Y-58696878I-176777J-176777D01*
G01*
X128466726Y-59142355D01*
G75*
G02*
X128113172Y-59142355I-176777J176777D01*
G01*
X127667695Y-58696878D01*
G75*
G02*
X127667695Y-58343324I176777J176777D01*
G01*
X128113172Y-57897847D01*
G75*
G02*
X128466726Y-57897847I176777J-176777D01*
G01*
G37*
G36*
G01*
X129456676Y-58887797D02*
X129902153Y-59333274D01*
G75*
G02*
X129902153Y-59686828I-176777J-176777D01*
G01*
X129456676Y-60132305D01*
G75*
G02*
X129103122Y-60132305I-176777J176777D01*
G01*
X128657645Y-59686828D01*
G75*
G02*
X128657645Y-59333274I176777J176777D01*
G01*
X129103122Y-58887797D01*
G75*
G02*
X129456676Y-58887797I176777J-176777D01*
G01*
G37*
G36*
G01*
X130446625Y-59877746D02*
X130892102Y-60323223D01*
G75*
G02*
X130892102Y-60676777I-176777J-176777D01*
G01*
X130446625Y-61122254D01*
G75*
G02*
X130093071Y-61122254I-176777J176777D01*
G01*
X129647594Y-60676777D01*
G75*
G02*
X129647594Y-60323223I176777J176777D01*
G01*
X130093071Y-59877746D01*
G75*
G02*
X130446625Y-59877746I176777J-176777D01*
G01*
G37*
G36*
G01*
X131498446Y-60632583D02*
X132028776Y-61162913D01*
G75*
G02*
X132028776Y-61251301I-44194J-44194D01*
G01*
X131940388Y-61339689D01*
G75*
G02*
X131852000Y-61339689I-44194J44194D01*
G01*
X131321670Y-60809359D01*
G75*
G02*
X131321670Y-60720971I44194J44194D01*
G01*
X131410058Y-60632583D01*
G75*
G02*
X131498446Y-60632583I44194J-44194D01*
G01*
G37*
G36*
G01*
X131144893Y-60986136D02*
X131675223Y-61516466D01*
G75*
G02*
X131675223Y-61604854I-44194J-44194D01*
G01*
X131586835Y-61693242D01*
G75*
G02*
X131498447Y-61693242I-44194J44194D01*
G01*
X130968117Y-61162912D01*
G75*
G02*
X130968117Y-61074524I44194J44194D01*
G01*
X131056505Y-60986136D01*
G75*
G02*
X131144893Y-60986136I44194J-44194D01*
G01*
G37*
G36*
G01*
X130791339Y-61339690D02*
X131321669Y-61870020D01*
G75*
G02*
X131321669Y-61958408I-44194J-44194D01*
G01*
X131233281Y-62046796D01*
G75*
G02*
X131144893Y-62046796I-44194J44194D01*
G01*
X130614563Y-61516466D01*
G75*
G02*
X130614563Y-61428078I44194J44194D01*
G01*
X130702951Y-61339690D01*
G75*
G02*
X130791339Y-61339690I44194J-44194D01*
G01*
G37*
G36*
G01*
X130437786Y-61693243D02*
X130968116Y-62223573D01*
G75*
G02*
X130968116Y-62311961I-44194J-44194D01*
G01*
X130879728Y-62400349D01*
G75*
G02*
X130791340Y-62400349I-44194J44194D01*
G01*
X130261010Y-61870019D01*
G75*
G02*
X130261010Y-61781631I44194J44194D01*
G01*
X130349398Y-61693243D01*
G75*
G02*
X130437786Y-61693243I44194J-44194D01*
G01*
G37*
G36*
G01*
X130084233Y-62046796D02*
X130614563Y-62577126D01*
G75*
G02*
X130614563Y-62665514I-44194J-44194D01*
G01*
X130526175Y-62753902D01*
G75*
G02*
X130437787Y-62753902I-44194J44194D01*
G01*
X129907457Y-62223572D01*
G75*
G02*
X129907457Y-62135184I44194J44194D01*
G01*
X129995845Y-62046796D01*
G75*
G02*
X130084233Y-62046796I44194J-44194D01*
G01*
G37*
G36*
G01*
X129730679Y-62400350D02*
X130261009Y-62930680D01*
G75*
G02*
X130261009Y-63019068I-44194J-44194D01*
G01*
X130172621Y-63107456D01*
G75*
G02*
X130084233Y-63107456I-44194J44194D01*
G01*
X129553903Y-62577126D01*
G75*
G02*
X129553903Y-62488738I44194J44194D01*
G01*
X129642291Y-62400350D01*
G75*
G02*
X129730679Y-62400350I44194J-44194D01*
G01*
G37*
G36*
G01*
X129377126Y-62753903D02*
X129907456Y-63284233D01*
G75*
G02*
X129907456Y-63372621I-44194J-44194D01*
G01*
X129819068Y-63461009D01*
G75*
G02*
X129730680Y-63461009I-44194J44194D01*
G01*
X129200350Y-62930679D01*
G75*
G02*
X129200350Y-62842291I44194J44194D01*
G01*
X129288738Y-62753903D01*
G75*
G02*
X129377126Y-62753903I44194J-44194D01*
G01*
G37*
G36*
G01*
X129023572Y-63107457D02*
X129553902Y-63637787D01*
G75*
G02*
X129553902Y-63726175I-44194J-44194D01*
G01*
X129465514Y-63814563D01*
G75*
G02*
X129377126Y-63814563I-44194J44194D01*
G01*
X128846796Y-63284233D01*
G75*
G02*
X128846796Y-63195845I44194J44194D01*
G01*
X128935184Y-63107457D01*
G75*
G02*
X129023572Y-63107457I44194J-44194D01*
G01*
G37*
G36*
G01*
X128670019Y-63461010D02*
X129200349Y-63991340D01*
G75*
G02*
X129200349Y-64079728I-44194J-44194D01*
G01*
X129111961Y-64168116D01*
G75*
G02*
X129023573Y-64168116I-44194J44194D01*
G01*
X128493243Y-63637786D01*
G75*
G02*
X128493243Y-63549398I44194J44194D01*
G01*
X128581631Y-63461010D01*
G75*
G02*
X128670019Y-63461010I44194J-44194D01*
G01*
G37*
G36*
G01*
X128316466Y-63814563D02*
X128846796Y-64344893D01*
G75*
G02*
X128846796Y-64433281I-44194J-44194D01*
G01*
X128758408Y-64521669D01*
G75*
G02*
X128670020Y-64521669I-44194J44194D01*
G01*
X128139690Y-63991339D01*
G75*
G02*
X128139690Y-63902951I44194J44194D01*
G01*
X128228078Y-63814563D01*
G75*
G02*
X128316466Y-63814563I44194J-44194D01*
G01*
G37*
G36*
G01*
X127962912Y-64168117D02*
X128493242Y-64698447D01*
G75*
G02*
X128493242Y-64786835I-44194J-44194D01*
G01*
X128404854Y-64875223D01*
G75*
G02*
X128316466Y-64875223I-44194J44194D01*
G01*
X127786136Y-64344893D01*
G75*
G02*
X127786136Y-64256505I44194J44194D01*
G01*
X127874524Y-64168117D01*
G75*
G02*
X127962912Y-64168117I44194J-44194D01*
G01*
G37*
G36*
G01*
X127609359Y-64521670D02*
X128139689Y-65052000D01*
G75*
G02*
X128139689Y-65140388I-44194J-44194D01*
G01*
X128051301Y-65228776D01*
G75*
G02*
X127962913Y-65228776I-44194J44194D01*
G01*
X127432583Y-64698446D01*
G75*
G02*
X127432583Y-64610058I44194J44194D01*
G01*
X127520971Y-64521670D01*
G75*
G02*
X127609359Y-64521670I44194J-44194D01*
G01*
G37*
G36*
G01*
X127079029Y-64521670D02*
X127167417Y-64610058D01*
G75*
G02*
X127167417Y-64698446I-44194J-44194D01*
G01*
X126637087Y-65228776D01*
G75*
G02*
X126548699Y-65228776I-44194J44194D01*
G01*
X126460311Y-65140388D01*
G75*
G02*
X126460311Y-65052000I44194J44194D01*
G01*
X126990641Y-64521670D01*
G75*
G02*
X127079029Y-64521670I44194J-44194D01*
G01*
G37*
G36*
G01*
X126725476Y-64168117D02*
X126813864Y-64256505D01*
G75*
G02*
X126813864Y-64344893I-44194J-44194D01*
G01*
X126283534Y-64875223D01*
G75*
G02*
X126195146Y-64875223I-44194J44194D01*
G01*
X126106758Y-64786835D01*
G75*
G02*
X126106758Y-64698447I44194J44194D01*
G01*
X126637088Y-64168117D01*
G75*
G02*
X126725476Y-64168117I44194J-44194D01*
G01*
G37*
G36*
G01*
X126371922Y-63814563D02*
X126460310Y-63902951D01*
G75*
G02*
X126460310Y-63991339I-44194J-44194D01*
G01*
X125929980Y-64521669D01*
G75*
G02*
X125841592Y-64521669I-44194J44194D01*
G01*
X125753204Y-64433281D01*
G75*
G02*
X125753204Y-64344893I44194J44194D01*
G01*
X126283534Y-63814563D01*
G75*
G02*
X126371922Y-63814563I44194J-44194D01*
G01*
G37*
G36*
G01*
X126018369Y-63461010D02*
X126106757Y-63549398D01*
G75*
G02*
X126106757Y-63637786I-44194J-44194D01*
G01*
X125576427Y-64168116D01*
G75*
G02*
X125488039Y-64168116I-44194J44194D01*
G01*
X125399651Y-64079728D01*
G75*
G02*
X125399651Y-63991340I44194J44194D01*
G01*
X125929981Y-63461010D01*
G75*
G02*
X126018369Y-63461010I44194J-44194D01*
G01*
G37*
G36*
G01*
X125664816Y-63107457D02*
X125753204Y-63195845D01*
G75*
G02*
X125753204Y-63284233I-44194J-44194D01*
G01*
X125222874Y-63814563D01*
G75*
G02*
X125134486Y-63814563I-44194J44194D01*
G01*
X125046098Y-63726175D01*
G75*
G02*
X125046098Y-63637787I44194J44194D01*
G01*
X125576428Y-63107457D01*
G75*
G02*
X125664816Y-63107457I44194J-44194D01*
G01*
G37*
G36*
G01*
X125311262Y-62753903D02*
X125399650Y-62842291D01*
G75*
G02*
X125399650Y-62930679I-44194J-44194D01*
G01*
X124869320Y-63461009D01*
G75*
G02*
X124780932Y-63461009I-44194J44194D01*
G01*
X124692544Y-63372621D01*
G75*
G02*
X124692544Y-63284233I44194J44194D01*
G01*
X125222874Y-62753903D01*
G75*
G02*
X125311262Y-62753903I44194J-44194D01*
G01*
G37*
G36*
G01*
X124957709Y-62400350D02*
X125046097Y-62488738D01*
G75*
G02*
X125046097Y-62577126I-44194J-44194D01*
G01*
X124515767Y-63107456D01*
G75*
G02*
X124427379Y-63107456I-44194J44194D01*
G01*
X124338991Y-63019068D01*
G75*
G02*
X124338991Y-62930680I44194J44194D01*
G01*
X124869321Y-62400350D01*
G75*
G02*
X124957709Y-62400350I44194J-44194D01*
G01*
G37*
G36*
G01*
X124604155Y-62046796D02*
X124692543Y-62135184D01*
G75*
G02*
X124692543Y-62223572I-44194J-44194D01*
G01*
X124162213Y-62753902D01*
G75*
G02*
X124073825Y-62753902I-44194J44194D01*
G01*
X123985437Y-62665514D01*
G75*
G02*
X123985437Y-62577126I44194J44194D01*
G01*
X124515767Y-62046796D01*
G75*
G02*
X124604155Y-62046796I44194J-44194D01*
G01*
G37*
G36*
G01*
X124250602Y-61693243D02*
X124338990Y-61781631D01*
G75*
G02*
X124338990Y-61870019I-44194J-44194D01*
G01*
X123808660Y-62400349D01*
G75*
G02*
X123720272Y-62400349I-44194J44194D01*
G01*
X123631884Y-62311961D01*
G75*
G02*
X123631884Y-62223573I44194J44194D01*
G01*
X124162214Y-61693243D01*
G75*
G02*
X124250602Y-61693243I44194J-44194D01*
G01*
G37*
G36*
G01*
X123897049Y-61339690D02*
X123985437Y-61428078D01*
G75*
G02*
X123985437Y-61516466I-44194J-44194D01*
G01*
X123455107Y-62046796D01*
G75*
G02*
X123366719Y-62046796I-44194J44194D01*
G01*
X123278331Y-61958408D01*
G75*
G02*
X123278331Y-61870020I44194J44194D01*
G01*
X123808661Y-61339690D01*
G75*
G02*
X123897049Y-61339690I44194J-44194D01*
G01*
G37*
G36*
G01*
X123543495Y-60986136D02*
X123631883Y-61074524D01*
G75*
G02*
X123631883Y-61162912I-44194J-44194D01*
G01*
X123101553Y-61693242D01*
G75*
G02*
X123013165Y-61693242I-44194J44194D01*
G01*
X122924777Y-61604854D01*
G75*
G02*
X122924777Y-61516466I44194J44194D01*
G01*
X123455107Y-60986136D01*
G75*
G02*
X123543495Y-60986136I44194J-44194D01*
G01*
G37*
G36*
G01*
X123189942Y-60632583D02*
X123278330Y-60720971D01*
G75*
G02*
X123278330Y-60809359I-44194J-44194D01*
G01*
X122748000Y-61339689D01*
G75*
G02*
X122659612Y-61339689I-44194J44194D01*
G01*
X122571224Y-61251301D01*
G75*
G02*
X122571224Y-61162913I44194J44194D01*
G01*
X123101554Y-60632583D01*
G75*
G02*
X123189942Y-60632583I44194J-44194D01*
G01*
G37*
G36*
G01*
X122748000Y-59660311D02*
X123278330Y-60190641D01*
G75*
G02*
X123278330Y-60279029I-44194J-44194D01*
G01*
X123189942Y-60367417D01*
G75*
G02*
X123101554Y-60367417I-44194J44194D01*
G01*
X122571224Y-59837087D01*
G75*
G02*
X122571224Y-59748699I44194J44194D01*
G01*
X122659612Y-59660311D01*
G75*
G02*
X122748000Y-59660311I44194J-44194D01*
G01*
G37*
G36*
G01*
X123101553Y-59306758D02*
X123631883Y-59837088D01*
G75*
G02*
X123631883Y-59925476I-44194J-44194D01*
G01*
X123543495Y-60013864D01*
G75*
G02*
X123455107Y-60013864I-44194J44194D01*
G01*
X122924777Y-59483534D01*
G75*
G02*
X122924777Y-59395146I44194J44194D01*
G01*
X123013165Y-59306758D01*
G75*
G02*
X123101553Y-59306758I44194J-44194D01*
G01*
G37*
G36*
G01*
X123455107Y-58953204D02*
X123985437Y-59483534D01*
G75*
G02*
X123985437Y-59571922I-44194J-44194D01*
G01*
X123897049Y-59660310D01*
G75*
G02*
X123808661Y-59660310I-44194J44194D01*
G01*
X123278331Y-59129980D01*
G75*
G02*
X123278331Y-59041592I44194J44194D01*
G01*
X123366719Y-58953204D01*
G75*
G02*
X123455107Y-58953204I44194J-44194D01*
G01*
G37*
G36*
G01*
X123808660Y-58599651D02*
X124338990Y-59129981D01*
G75*
G02*
X124338990Y-59218369I-44194J-44194D01*
G01*
X124250602Y-59306757D01*
G75*
G02*
X124162214Y-59306757I-44194J44194D01*
G01*
X123631884Y-58776427D01*
G75*
G02*
X123631884Y-58688039I44194J44194D01*
G01*
X123720272Y-58599651D01*
G75*
G02*
X123808660Y-58599651I44194J-44194D01*
G01*
G37*
G36*
G01*
X124162213Y-58246098D02*
X124692543Y-58776428D01*
G75*
G02*
X124692543Y-58864816I-44194J-44194D01*
G01*
X124604155Y-58953204D01*
G75*
G02*
X124515767Y-58953204I-44194J44194D01*
G01*
X123985437Y-58422874D01*
G75*
G02*
X123985437Y-58334486I44194J44194D01*
G01*
X124073825Y-58246098D01*
G75*
G02*
X124162213Y-58246098I44194J-44194D01*
G01*
G37*
G36*
G01*
X124515767Y-57892544D02*
X125046097Y-58422874D01*
G75*
G02*
X125046097Y-58511262I-44194J-44194D01*
G01*
X124957709Y-58599650D01*
G75*
G02*
X124869321Y-58599650I-44194J44194D01*
G01*
X124338991Y-58069320D01*
G75*
G02*
X124338991Y-57980932I44194J44194D01*
G01*
X124427379Y-57892544D01*
G75*
G02*
X124515767Y-57892544I44194J-44194D01*
G01*
G37*
G36*
G01*
X124869320Y-57538991D02*
X125399650Y-58069321D01*
G75*
G02*
X125399650Y-58157709I-44194J-44194D01*
G01*
X125311262Y-58246097D01*
G75*
G02*
X125222874Y-58246097I-44194J44194D01*
G01*
X124692544Y-57715767D01*
G75*
G02*
X124692544Y-57627379I44194J44194D01*
G01*
X124780932Y-57538991D01*
G75*
G02*
X124869320Y-57538991I44194J-44194D01*
G01*
G37*
G36*
G01*
X125222874Y-57185437D02*
X125753204Y-57715767D01*
G75*
G02*
X125753204Y-57804155I-44194J-44194D01*
G01*
X125664816Y-57892543D01*
G75*
G02*
X125576428Y-57892543I-44194J44194D01*
G01*
X125046098Y-57362213D01*
G75*
G02*
X125046098Y-57273825I44194J44194D01*
G01*
X125134486Y-57185437D01*
G75*
G02*
X125222874Y-57185437I44194J-44194D01*
G01*
G37*
G36*
G01*
X125576427Y-56831884D02*
X126106757Y-57362214D01*
G75*
G02*
X126106757Y-57450602I-44194J-44194D01*
G01*
X126018369Y-57538990D01*
G75*
G02*
X125929981Y-57538990I-44194J44194D01*
G01*
X125399651Y-57008660D01*
G75*
G02*
X125399651Y-56920272I44194J44194D01*
G01*
X125488039Y-56831884D01*
G75*
G02*
X125576427Y-56831884I44194J-44194D01*
G01*
G37*
G36*
G01*
X125929980Y-56478331D02*
X126460310Y-57008661D01*
G75*
G02*
X126460310Y-57097049I-44194J-44194D01*
G01*
X126371922Y-57185437D01*
G75*
G02*
X126283534Y-57185437I-44194J44194D01*
G01*
X125753204Y-56655107D01*
G75*
G02*
X125753204Y-56566719I44194J44194D01*
G01*
X125841592Y-56478331D01*
G75*
G02*
X125929980Y-56478331I44194J-44194D01*
G01*
G37*
G36*
G01*
X126283534Y-56124777D02*
X126813864Y-56655107D01*
G75*
G02*
X126813864Y-56743495I-44194J-44194D01*
G01*
X126725476Y-56831883D01*
G75*
G02*
X126637088Y-56831883I-44194J44194D01*
G01*
X126106758Y-56301553D01*
G75*
G02*
X126106758Y-56213165I44194J44194D01*
G01*
X126195146Y-56124777D01*
G75*
G02*
X126283534Y-56124777I44194J-44194D01*
G01*
G37*
G36*
G01*
X126637087Y-55771224D02*
X127167417Y-56301554D01*
G75*
G02*
X127167417Y-56389942I-44194J-44194D01*
G01*
X127079029Y-56478330D01*
G75*
G02*
X126990641Y-56478330I-44194J44194D01*
G01*
X126460311Y-55948000D01*
G75*
G02*
X126460311Y-55859612I44194J44194D01*
G01*
X126548699Y-55771224D01*
G75*
G02*
X126637087Y-55771224I44194J-44194D01*
G01*
G37*
G36*
G01*
X128051301Y-55771224D02*
X128139689Y-55859612D01*
G75*
G02*
X128139689Y-55948000I-44194J-44194D01*
G01*
X127609359Y-56478330D01*
G75*
G02*
X127520971Y-56478330I-44194J44194D01*
G01*
X127432583Y-56389942D01*
G75*
G02*
X127432583Y-56301554I44194J44194D01*
G01*
X127962913Y-55771224D01*
G75*
G02*
X128051301Y-55771224I44194J-44194D01*
G01*
G37*
G36*
G01*
X128404854Y-56124777D02*
X128493242Y-56213165D01*
G75*
G02*
X128493242Y-56301553I-44194J-44194D01*
G01*
X127962912Y-56831883D01*
G75*
G02*
X127874524Y-56831883I-44194J44194D01*
G01*
X127786136Y-56743495D01*
G75*
G02*
X127786136Y-56655107I44194J44194D01*
G01*
X128316466Y-56124777D01*
G75*
G02*
X128404854Y-56124777I44194J-44194D01*
G01*
G37*
G36*
G01*
X128758408Y-56478331D02*
X128846796Y-56566719D01*
G75*
G02*
X128846796Y-56655107I-44194J-44194D01*
G01*
X128316466Y-57185437D01*
G75*
G02*
X128228078Y-57185437I-44194J44194D01*
G01*
X128139690Y-57097049D01*
G75*
G02*
X128139690Y-57008661I44194J44194D01*
G01*
X128670020Y-56478331D01*
G75*
G02*
X128758408Y-56478331I44194J-44194D01*
G01*
G37*
G36*
G01*
X129111961Y-56831884D02*
X129200349Y-56920272D01*
G75*
G02*
X129200349Y-57008660I-44194J-44194D01*
G01*
X128670019Y-57538990D01*
G75*
G02*
X128581631Y-57538990I-44194J44194D01*
G01*
X128493243Y-57450602D01*
G75*
G02*
X128493243Y-57362214I44194J44194D01*
G01*
X129023573Y-56831884D01*
G75*
G02*
X129111961Y-56831884I44194J-44194D01*
G01*
G37*
G36*
G01*
X129465514Y-57185437D02*
X129553902Y-57273825D01*
G75*
G02*
X129553902Y-57362213I-44194J-44194D01*
G01*
X129023572Y-57892543D01*
G75*
G02*
X128935184Y-57892543I-44194J44194D01*
G01*
X128846796Y-57804155D01*
G75*
G02*
X128846796Y-57715767I44194J44194D01*
G01*
X129377126Y-57185437D01*
G75*
G02*
X129465514Y-57185437I44194J-44194D01*
G01*
G37*
G36*
G01*
X129819068Y-57538991D02*
X129907456Y-57627379D01*
G75*
G02*
X129907456Y-57715767I-44194J-44194D01*
G01*
X129377126Y-58246097D01*
G75*
G02*
X129288738Y-58246097I-44194J44194D01*
G01*
X129200350Y-58157709D01*
G75*
G02*
X129200350Y-58069321I44194J44194D01*
G01*
X129730680Y-57538991D01*
G75*
G02*
X129819068Y-57538991I44194J-44194D01*
G01*
G37*
G36*
G01*
X130172621Y-57892544D02*
X130261009Y-57980932D01*
G75*
G02*
X130261009Y-58069320I-44194J-44194D01*
G01*
X129730679Y-58599650D01*
G75*
G02*
X129642291Y-58599650I-44194J44194D01*
G01*
X129553903Y-58511262D01*
G75*
G02*
X129553903Y-58422874I44194J44194D01*
G01*
X130084233Y-57892544D01*
G75*
G02*
X130172621Y-57892544I44194J-44194D01*
G01*
G37*
G36*
G01*
X130526175Y-58246098D02*
X130614563Y-58334486D01*
G75*
G02*
X130614563Y-58422874I-44194J-44194D01*
G01*
X130084233Y-58953204D01*
G75*
G02*
X129995845Y-58953204I-44194J44194D01*
G01*
X129907457Y-58864816D01*
G75*
G02*
X129907457Y-58776428I44194J44194D01*
G01*
X130437787Y-58246098D01*
G75*
G02*
X130526175Y-58246098I44194J-44194D01*
G01*
G37*
G36*
G01*
X130879728Y-58599651D02*
X130968116Y-58688039D01*
G75*
G02*
X130968116Y-58776427I-44194J-44194D01*
G01*
X130437786Y-59306757D01*
G75*
G02*
X130349398Y-59306757I-44194J44194D01*
G01*
X130261010Y-59218369D01*
G75*
G02*
X130261010Y-59129981I44194J44194D01*
G01*
X130791340Y-58599651D01*
G75*
G02*
X130879728Y-58599651I44194J-44194D01*
G01*
G37*
G36*
G01*
X131233281Y-58953204D02*
X131321669Y-59041592D01*
G75*
G02*
X131321669Y-59129980I-44194J-44194D01*
G01*
X130791339Y-59660310D01*
G75*
G02*
X130702951Y-59660310I-44194J44194D01*
G01*
X130614563Y-59571922D01*
G75*
G02*
X130614563Y-59483534I44194J44194D01*
G01*
X131144893Y-58953204D01*
G75*
G02*
X131233281Y-58953204I44194J-44194D01*
G01*
G37*
G36*
G01*
X131586835Y-59306758D02*
X131675223Y-59395146D01*
G75*
G02*
X131675223Y-59483534I-44194J-44194D01*
G01*
X131144893Y-60013864D01*
G75*
G02*
X131056505Y-60013864I-44194J44194D01*
G01*
X130968117Y-59925476D01*
G75*
G02*
X130968117Y-59837088I44194J44194D01*
G01*
X131498447Y-59306758D01*
G75*
G02*
X131586835Y-59306758I44194J-44194D01*
G01*
G37*
G36*
G01*
X131940388Y-59660311D02*
X132028776Y-59748699D01*
G75*
G02*
X132028776Y-59837087I-44194J-44194D01*
G01*
X131498446Y-60367417D01*
G75*
G02*
X131410058Y-60367417I-44194J44194D01*
G01*
X131321670Y-60279029D01*
G75*
G02*
X131321670Y-60190641I44194J44194D01*
G01*
X131852000Y-59660311D01*
G75*
G02*
X131940388Y-59660311I44194J-44194D01*
G01*
G37*
G36*
G01*
X108280000Y-63427500D02*
X108280000Y-62952500D01*
G75*
G02*
X108517500Y-62715000I237500J0D01*
G01*
X109092500Y-62715000D01*
G75*
G02*
X109330000Y-62952500I0J-237500D01*
G01*
X109330000Y-63427500D01*
G75*
G02*
X109092500Y-63665000I-237500J0D01*
G01*
X108517500Y-63665000D01*
G75*
G02*
X108280000Y-63427500I0J237500D01*
G01*
G37*
G36*
G01*
X106530000Y-63427500D02*
X106530000Y-62952500D01*
G75*
G02*
X106767500Y-62715000I237500J0D01*
G01*
X107342500Y-62715000D01*
G75*
G02*
X107580000Y-62952500I0J-237500D01*
G01*
X107580000Y-63427500D01*
G75*
G02*
X107342500Y-63665000I-237500J0D01*
G01*
X106767500Y-63665000D01*
G75*
G02*
X106530000Y-63427500I0J237500D01*
G01*
G37*
G36*
G01*
X108280000Y-61857500D02*
X108280000Y-61382500D01*
G75*
G02*
X108517500Y-61145000I237500J0D01*
G01*
X109092500Y-61145000D01*
G75*
G02*
X109330000Y-61382500I0J-237500D01*
G01*
X109330000Y-61857500D01*
G75*
G02*
X109092500Y-62095000I-237500J0D01*
G01*
X108517500Y-62095000D01*
G75*
G02*
X108280000Y-61857500I0J237500D01*
G01*
G37*
G36*
G01*
X106530000Y-61857500D02*
X106530000Y-61382500D01*
G75*
G02*
X106767500Y-61145000I237500J0D01*
G01*
X107342500Y-61145000D01*
G75*
G02*
X107580000Y-61382500I0J-237500D01*
G01*
X107580000Y-61857500D01*
G75*
G02*
X107342500Y-62095000I-237500J0D01*
G01*
X106767500Y-62095000D01*
G75*
G02*
X106530000Y-61857500I0J237500D01*
G01*
G37*
G36*
G01*
X104900000Y-55107500D02*
X104900000Y-54632500D01*
G75*
G02*
X105137500Y-54395000I237500J0D01*
G01*
X105712500Y-54395000D01*
G75*
G02*
X105950000Y-54632500I0J-237500D01*
G01*
X105950000Y-55107500D01*
G75*
G02*
X105712500Y-55345000I-237500J0D01*
G01*
X105137500Y-55345000D01*
G75*
G02*
X104900000Y-55107500I0J237500D01*
G01*
G37*
G36*
G01*
X103150000Y-55107500D02*
X103150000Y-54632500D01*
G75*
G02*
X103387500Y-54395000I237500J0D01*
G01*
X103962500Y-54395000D01*
G75*
G02*
X104200000Y-54632500I0J-237500D01*
G01*
X104200000Y-55107500D01*
G75*
G02*
X103962500Y-55345000I-237500J0D01*
G01*
X103387500Y-55345000D01*
G75*
G02*
X103150000Y-55107500I0J237500D01*
G01*
G37*
M02*
