M48
; DRILL file {KiCad (5.1.8-0-10_14)} date Monday, January 18, 2021 at 01:09:37 AM
; FORMAT={-:-/ absolute / inch / decimal}
; #@! TF.CreationDate,2021-01-18T01:09:37+08:00
; #@! TF.GenerationSoftware,Kicad,Pcbnew,(5.1.8-0-10_14)
; #@! TF.FileFunction,Plated,1,2,PTH
FMAT,2
INCH
T1C0.0118
T2C0.0157
T3C0.0197
T4C0.0394
%
G90
G05
T1
X4.2146Y-2.2965
X4.3988Y-2.1287
X4.4018Y-2.1833
X4.6199Y-2.5112
X4.9484Y-2.3819
X5.0118Y-2.3819
X5.0118Y-2.4433
X5.0122Y-2.3276
X5.0728Y-2.3819
X5.1142Y-2.2169
X5.1512Y-2.2
X5.2213Y-2.4012
X5.237Y-2.3539
X5.2488Y-2.3091
X5.2724Y-2.4098
X5.3543Y-2.4331
X5.598Y-2.2827
X5.6843Y-2.1323
X5.715Y-2.3972
X5.765Y-2.4953
X5.7681Y-2.1031
X5.9421Y-2.5854
T2
X4.1583Y-2.298
X4.2197Y-2.189
X4.3409Y-2.4283
X4.6176Y-2.3893
X4.6287Y-2.3516
X4.637Y-2.2437
X4.7311Y-2.3646
X4.7854Y-2.2878
X4.8567Y-2.6008
X4.8972Y-2.5823
X4.9366Y-2.5772
X4.9425Y-2.6169
X4.9917Y-2.6126
X5.2204Y-2.5362
X5.273Y-2.3678
X5.3004Y-2.548
X5.5362Y-2.5248
T3
X5.8805Y-2.2819
X5.8805Y-2.3319
X5.8805Y-2.3819
X5.8805Y-2.4319
X5.8805Y-2.4819
X5.9305Y-2.2819
X5.9305Y-2.3319
X5.9305Y-2.3819
X5.9305Y-2.4319
X5.9305Y-2.4819
T4
X4.0354Y-2.7165
X4.1354Y-2.7165
X4.2354Y-2.7165
X4.3354Y-2.7165
X4.4354Y-2.7165
X4.5354Y-2.7165
X4.6354Y-2.7165
X4.7354Y-2.7165
X4.8354Y-2.7165
X4.9354Y-2.7165
X5.0354Y-2.7165
X5.1354Y-2.7165
X5.2354Y-2.7165
X5.3354Y-2.7165
X5.4354Y-2.7165
X5.5354Y-2.7165
X5.6354Y-2.7165
X5.7354Y-2.7165
X5.8354Y-2.7165
X5.9354Y-2.7165
X4.0354Y-2.0472
X4.1354Y-2.0472
X4.2354Y-2.0472
X4.3354Y-2.0472
X4.4354Y-2.0472
X4.5354Y-2.0472
X4.6354Y-2.0472
X4.7354Y-2.0472
X4.8354Y-2.0472
X4.9354Y-2.0472
X5.0354Y-2.0472
X5.1354Y-2.0472
X5.2354Y-2.0472
X5.3354Y-2.0472
X5.4354Y-2.0472
X5.5354Y-2.0472
X5.6354Y-2.0472
X5.7354Y-2.0472
X5.8354Y-2.0472
X5.9354Y-2.0472
T0
M30
