G04 #@! TF.GenerationSoftware,KiCad,Pcbnew,(5.1.8-0-10_14)*
G04 #@! TF.CreationDate,2021-01-18T01:09:24+08:00*
G04 #@! TF.ProjectId,stm32f401_devboard,73746d33-3266-4343-9031-5f646576626f,rev?*
G04 #@! TF.SameCoordinates,Original*
G04 #@! TF.FileFunction,Soldermask,Top*
G04 #@! TF.FilePolarity,Negative*
%FSLAX46Y46*%
G04 Gerber Fmt 4.6, Leading zero omitted, Abs format (unit mm)*
G04 Created by KiCad (PCBNEW (5.1.8-0-10_14)) date 2021-01-18 01:09:24*
%MOMM*%
%LPD*%
G01*
G04 APERTURE LIST*
%ADD10O,1.802000X1.802000*%
%ADD11C,0.802024*%
%ADD12O,1.102000X1.102000*%
%ADD13C,0.100000*%
G04 APERTURE END LIST*
G36*
G01*
X142909000Y-63181756D02*
X142909000Y-61818244D01*
G75*
G02*
X143178244Y-61549000I269244J0D01*
G01*
X144066756Y-61549000D01*
G75*
G02*
X144336000Y-61818244I0J-269244D01*
G01*
X144336000Y-63181756D01*
G75*
G02*
X144066756Y-63451000I-269244J0D01*
G01*
X143178244Y-63451000D01*
G75*
G02*
X142909000Y-63181756I0J269244D01*
G01*
G37*
G36*
G01*
X139784000Y-63181756D02*
X139784000Y-61818244D01*
G75*
G02*
X140053244Y-61549000I269244J0D01*
G01*
X140941756Y-61549000D01*
G75*
G02*
X141211000Y-61818244I0J-269244D01*
G01*
X141211000Y-63181756D01*
G75*
G02*
X140941756Y-63451000I-269244J0D01*
G01*
X140053244Y-63451000D01*
G75*
G02*
X139784000Y-63181756I0J269244D01*
G01*
G37*
G36*
G01*
X145079000Y-65521750D02*
X145079000Y-64558250D01*
G75*
G02*
X145348250Y-64289000I269250J0D01*
G01*
X145886750Y-64289000D01*
G75*
G02*
X146156000Y-64558250I0J-269250D01*
G01*
X146156000Y-65521750D01*
G75*
G02*
X145886750Y-65791000I-269250J0D01*
G01*
X145348250Y-65791000D01*
G75*
G02*
X145079000Y-65521750I0J269250D01*
G01*
G37*
G36*
G01*
X143204000Y-65521750D02*
X143204000Y-64558250D01*
G75*
G02*
X143473250Y-64289000I269250J0D01*
G01*
X144011750Y-64289000D01*
G75*
G02*
X144281000Y-64558250I0J-269250D01*
G01*
X144281000Y-65521750D01*
G75*
G02*
X144011750Y-65791000I-269250J0D01*
G01*
X143473250Y-65791000D01*
G75*
G02*
X143204000Y-65521750I0J269250D01*
G01*
G37*
G36*
G01*
X106931000Y-56348250D02*
X106931000Y-57311750D01*
G75*
G02*
X106661750Y-57581000I-269250J0D01*
G01*
X106123250Y-57581000D01*
G75*
G02*
X105854000Y-57311750I0J269250D01*
G01*
X105854000Y-56348250D01*
G75*
G02*
X106123250Y-56079000I269250J0D01*
G01*
X106661750Y-56079000D01*
G75*
G02*
X106931000Y-56348250I0J-269250D01*
G01*
G37*
G36*
G01*
X108806000Y-56348250D02*
X108806000Y-57311750D01*
G75*
G02*
X108536750Y-57581000I-269250J0D01*
G01*
X107998250Y-57581000D01*
G75*
G02*
X107729000Y-57311750I0J269250D01*
G01*
X107729000Y-56348250D01*
G75*
G02*
X107998250Y-56079000I269250J0D01*
G01*
X108536750Y-56079000D01*
G75*
G02*
X108806000Y-56348250I0J-269250D01*
G01*
G37*
G36*
G01*
X107706500Y-65961750D02*
X107706500Y-64998250D01*
G75*
G02*
X107975750Y-64729000I269250J0D01*
G01*
X108514250Y-64729000D01*
G75*
G02*
X108783500Y-64998250I0J-269250D01*
G01*
X108783500Y-65961750D01*
G75*
G02*
X108514250Y-66231000I-269250J0D01*
G01*
X107975750Y-66231000D01*
G75*
G02*
X107706500Y-65961750I0J269250D01*
G01*
G37*
G36*
G01*
X105831500Y-65961750D02*
X105831500Y-64998250D01*
G75*
G02*
X106100750Y-64729000I269250J0D01*
G01*
X106639250Y-64729000D01*
G75*
G02*
X106908500Y-64998250I0J-269250D01*
G01*
X106908500Y-65961750D01*
G75*
G02*
X106639250Y-66231000I-269250J0D01*
G01*
X106100750Y-66231000D01*
G75*
G02*
X105831500Y-65961750I0J269250D01*
G01*
G37*
G36*
G01*
X116750969Y-61600002D02*
X116750969Y-63299998D01*
G75*
G02*
X116699969Y-63350998I-51000J0D01*
G01*
X115799971Y-63350998D01*
G75*
G02*
X115748971Y-63299998I0J51000D01*
G01*
X115748971Y-61600002D01*
G75*
G02*
X115799971Y-61549002I51000J0D01*
G01*
X116699969Y-61549002D01*
G75*
G02*
X116750969Y-61600002I0J-51000D01*
G01*
G37*
G36*
G01*
X112151029Y-61600002D02*
X112151029Y-63299998D01*
G75*
G02*
X112100029Y-63350998I-51000J0D01*
G01*
X111200031Y-63350998D01*
G75*
G02*
X111149031Y-63299998I0J51000D01*
G01*
X111149031Y-61600002D01*
G75*
G02*
X111200031Y-61549002I51000J0D01*
G01*
X112100029Y-61549002D01*
G75*
G02*
X112151029Y-61600002I0J-51000D01*
G01*
G37*
G36*
G01*
X144310002Y-55789031D02*
X146009998Y-55789031D01*
G75*
G02*
X146060998Y-55840031I0J-51000D01*
G01*
X146060998Y-56740029D01*
G75*
G02*
X146009998Y-56791029I-51000J0D01*
G01*
X144310002Y-56791029D01*
G75*
G02*
X144259002Y-56740029I0J51000D01*
G01*
X144259002Y-55840031D01*
G75*
G02*
X144310002Y-55789031I51000J0D01*
G01*
G37*
G36*
G01*
X144310002Y-60388971D02*
X146009998Y-60388971D01*
G75*
G02*
X146060998Y-60439971I0J-51000D01*
G01*
X146060998Y-61339969D01*
G75*
G02*
X146009998Y-61390969I-51000J0D01*
G01*
X144310002Y-61390969D01*
G75*
G02*
X144259002Y-61339969I0J51000D01*
G01*
X144259002Y-60439971D01*
G75*
G02*
X144310002Y-60388971I51000J0D01*
G01*
G37*
G36*
G01*
X144959500Y-54929000D02*
X145380500Y-54929000D01*
G75*
G02*
X145541000Y-55089500I0J-160500D01*
G01*
X145541000Y-55410500D01*
G75*
G02*
X145380500Y-55571000I-160500J0D01*
G01*
X144959500Y-55571000D01*
G75*
G02*
X144799000Y-55410500I0J160500D01*
G01*
X144799000Y-55089500D01*
G75*
G02*
X144959500Y-54929000I160500J0D01*
G01*
G37*
G36*
G01*
X144959500Y-53909000D02*
X145380500Y-53909000D01*
G75*
G02*
X145541000Y-54069500I0J-160500D01*
G01*
X145541000Y-54390500D01*
G75*
G02*
X145380500Y-54551000I-160500J0D01*
G01*
X144959500Y-54551000D01*
G75*
G02*
X144799000Y-54390500I0J160500D01*
G01*
X144799000Y-54069500D01*
G75*
G02*
X144959500Y-53909000I160500J0D01*
G01*
G37*
G36*
G01*
X141511000Y-64659500D02*
X141511000Y-65080500D01*
G75*
G02*
X141350500Y-65241000I-160500J0D01*
G01*
X141029500Y-65241000D01*
G75*
G02*
X140869000Y-65080500I0J160500D01*
G01*
X140869000Y-64659500D01*
G75*
G02*
X141029500Y-64499000I160500J0D01*
G01*
X141350500Y-64499000D01*
G75*
G02*
X141511000Y-64659500I0J-160500D01*
G01*
G37*
G36*
G01*
X142531000Y-64659500D02*
X142531000Y-65080500D01*
G75*
G02*
X142370500Y-65241000I-160500J0D01*
G01*
X142049500Y-65241000D01*
G75*
G02*
X141889000Y-65080500I0J160500D01*
G01*
X141889000Y-64659500D01*
G75*
G02*
X142049500Y-64499000I160500J0D01*
G01*
X142370500Y-64499000D01*
G75*
G02*
X142531000Y-64659500I0J-160500D01*
G01*
G37*
G36*
G01*
X109674000Y-55310500D02*
X109674000Y-54889500D01*
G75*
G02*
X109834500Y-54729000I160500J0D01*
G01*
X110155500Y-54729000D01*
G75*
G02*
X110316000Y-54889500I0J-160500D01*
G01*
X110316000Y-55310500D01*
G75*
G02*
X110155500Y-55471000I-160500J0D01*
G01*
X109834500Y-55471000D01*
G75*
G02*
X109674000Y-55310500I0J160500D01*
G01*
G37*
G36*
G01*
X108654000Y-55310500D02*
X108654000Y-54889500D01*
G75*
G02*
X108814500Y-54729000I160500J0D01*
G01*
X109135500Y-54729000D01*
G75*
G02*
X109296000Y-54889500I0J-160500D01*
G01*
X109296000Y-55310500D01*
G75*
G02*
X109135500Y-55471000I-160500J0D01*
G01*
X108814500Y-55471000D01*
G75*
G02*
X108654000Y-55310500I0J160500D01*
G01*
G37*
G36*
G01*
X104181000Y-65339500D02*
X104181000Y-65760500D01*
G75*
G02*
X104020500Y-65921000I-160500J0D01*
G01*
X103699500Y-65921000D01*
G75*
G02*
X103539000Y-65760500I0J160500D01*
G01*
X103539000Y-65339500D01*
G75*
G02*
X103699500Y-65179000I160500J0D01*
G01*
X104020500Y-65179000D01*
G75*
G02*
X104181000Y-65339500I0J-160500D01*
G01*
G37*
G36*
G01*
X105201000Y-65339500D02*
X105201000Y-65760500D01*
G75*
G02*
X105040500Y-65921000I-160500J0D01*
G01*
X104719500Y-65921000D01*
G75*
G02*
X104559000Y-65760500I0J160500D01*
G01*
X104559000Y-65339500D01*
G75*
G02*
X104719500Y-65179000I160500J0D01*
G01*
X105040500Y-65179000D01*
G75*
G02*
X105201000Y-65339500I0J-160500D01*
G01*
G37*
G36*
G01*
X112841000Y-54339500D02*
X112841000Y-54760500D01*
G75*
G02*
X112680500Y-54921000I-160500J0D01*
G01*
X112359500Y-54921000D01*
G75*
G02*
X112199000Y-54760500I0J160500D01*
G01*
X112199000Y-54339500D01*
G75*
G02*
X112359500Y-54179000I160500J0D01*
G01*
X112680500Y-54179000D01*
G75*
G02*
X112841000Y-54339500I0J-160500D01*
G01*
G37*
G36*
G01*
X113861000Y-54339500D02*
X113861000Y-54760500D01*
G75*
G02*
X113700500Y-54921000I-160500J0D01*
G01*
X113379500Y-54921000D01*
G75*
G02*
X113219000Y-54760500I0J160500D01*
G01*
X113219000Y-54339500D01*
G75*
G02*
X113379500Y-54179000I160500J0D01*
G01*
X113700500Y-54179000D01*
G75*
G02*
X113861000Y-54339500I0J-160500D01*
G01*
G37*
G36*
G01*
X135071000Y-60924500D02*
X135071000Y-61315500D01*
G75*
G02*
X134905500Y-61481000I-165500J0D01*
G01*
X134574500Y-61481000D01*
G75*
G02*
X134409000Y-61315500I0J165500D01*
G01*
X134409000Y-60924500D01*
G75*
G02*
X134574500Y-60759000I165500J0D01*
G01*
X134905500Y-60759000D01*
G75*
G02*
X135071000Y-60924500I0J-165500D01*
G01*
G37*
G36*
G01*
X136031000Y-60924500D02*
X136031000Y-61315500D01*
G75*
G02*
X135865500Y-61481000I-165500J0D01*
G01*
X135534500Y-61481000D01*
G75*
G02*
X135369000Y-61315500I0J165500D01*
G01*
X135369000Y-60924500D01*
G75*
G02*
X135534500Y-60759000I165500J0D01*
G01*
X135865500Y-60759000D01*
G75*
G02*
X136031000Y-60924500I0J-165500D01*
G01*
G37*
G36*
G01*
X137299000Y-61315500D02*
X137299000Y-60924500D01*
G75*
G02*
X137464500Y-60759000I165500J0D01*
G01*
X137795500Y-60759000D01*
G75*
G02*
X137961000Y-60924500I0J-165500D01*
G01*
X137961000Y-61315500D01*
G75*
G02*
X137795500Y-61481000I-165500J0D01*
G01*
X137464500Y-61481000D01*
G75*
G02*
X137299000Y-61315500I0J165500D01*
G01*
G37*
G36*
G01*
X136339000Y-61315500D02*
X136339000Y-60924500D01*
G75*
G02*
X136504500Y-60759000I165500J0D01*
G01*
X136835500Y-60759000D01*
G75*
G02*
X137001000Y-60924500I0J-165500D01*
G01*
X137001000Y-61315500D01*
G75*
G02*
X136835500Y-61481000I-165500J0D01*
G01*
X136504500Y-61481000D01*
G75*
G02*
X136339000Y-61315500I0J165500D01*
G01*
G37*
G36*
G01*
X142205500Y-56641000D02*
X141814500Y-56641000D01*
G75*
G02*
X141649000Y-56475500I0J165500D01*
G01*
X141649000Y-56144500D01*
G75*
G02*
X141814500Y-55979000I165500J0D01*
G01*
X142205500Y-55979000D01*
G75*
G02*
X142371000Y-56144500I0J-165500D01*
G01*
X142371000Y-56475500D01*
G75*
G02*
X142205500Y-56641000I-165500J0D01*
G01*
G37*
G36*
G01*
X142205500Y-57601000D02*
X141814500Y-57601000D01*
G75*
G02*
X141649000Y-57435500I0J165500D01*
G01*
X141649000Y-57104500D01*
G75*
G02*
X141814500Y-56939000I165500J0D01*
G01*
X142205500Y-56939000D01*
G75*
G02*
X142371000Y-57104500I0J-165500D01*
G01*
X142371000Y-57435500D01*
G75*
G02*
X142205500Y-57601000I-165500J0D01*
G01*
G37*
G36*
G01*
X138381000Y-59524500D02*
X138381000Y-59915500D01*
G75*
G02*
X138215500Y-60081000I-165500J0D01*
G01*
X137884500Y-60081000D01*
G75*
G02*
X137719000Y-59915500I0J165500D01*
G01*
X137719000Y-59524500D01*
G75*
G02*
X137884500Y-59359000I165500J0D01*
G01*
X138215500Y-59359000D01*
G75*
G02*
X138381000Y-59524500I0J-165500D01*
G01*
G37*
G36*
G01*
X139341000Y-59524500D02*
X139341000Y-59915500D01*
G75*
G02*
X139175500Y-60081000I-165500J0D01*
G01*
X138844500Y-60081000D01*
G75*
G02*
X138679000Y-59915500I0J165500D01*
G01*
X138679000Y-59524500D01*
G75*
G02*
X138844500Y-59359000I165500J0D01*
G01*
X139175500Y-59359000D01*
G75*
G02*
X139341000Y-59524500I0J-165500D01*
G01*
G37*
D10*
X150760000Y-69000000D03*
X148220000Y-69000000D03*
X145680000Y-69000000D03*
X143140000Y-69000000D03*
X140600000Y-69000000D03*
X138060000Y-69000000D03*
X135520000Y-69000000D03*
X132980000Y-69000000D03*
X130440000Y-69000000D03*
X127900000Y-69000000D03*
X125360000Y-69000000D03*
X122820000Y-69000000D03*
X120280000Y-69000000D03*
X117740000Y-69000000D03*
X115200000Y-69000000D03*
X112660000Y-69000000D03*
X110120000Y-69000000D03*
X107580000Y-69000000D03*
X105040000Y-69000000D03*
G36*
G01*
X103350000Y-69901000D02*
X101650000Y-69901000D01*
G75*
G02*
X101599000Y-69850000I0J51000D01*
G01*
X101599000Y-68150000D01*
G75*
G02*
X101650000Y-68099000I51000J0D01*
G01*
X103350000Y-68099000D01*
G75*
G02*
X103401000Y-68150000I0J-51000D01*
G01*
X103401000Y-69850000D01*
G75*
G02*
X103350000Y-69901000I-51000J0D01*
G01*
G37*
X150760000Y-52000000D03*
X148220000Y-52000000D03*
X145680000Y-52000000D03*
X143140000Y-52000000D03*
X140600000Y-52000000D03*
X138060000Y-52000000D03*
X135520000Y-52000000D03*
X132980000Y-52000000D03*
X130440000Y-52000000D03*
X127900000Y-52000000D03*
X125360000Y-52000000D03*
X122820000Y-52000000D03*
X120280000Y-52000000D03*
X117740000Y-52000000D03*
X115200000Y-52000000D03*
X112660000Y-52000000D03*
X110120000Y-52000000D03*
X107580000Y-52000000D03*
X105040000Y-52000000D03*
G36*
G01*
X103350000Y-52901000D02*
X101650000Y-52901000D01*
G75*
G02*
X101599000Y-52850000I0J51000D01*
G01*
X101599000Y-51150000D01*
G75*
G02*
X101650000Y-51099000I51000J0D01*
G01*
X103350000Y-51099000D01*
G75*
G02*
X103401000Y-51150000I0J-51000D01*
G01*
X103401000Y-52850000D01*
G75*
G02*
X103350000Y-52901000I-51000J0D01*
G01*
G37*
G36*
G01*
X111949031Y-58049998D02*
X111949031Y-56350002D01*
G75*
G02*
X112000031Y-56299002I51000J0D01*
G01*
X112900029Y-56299002D01*
G75*
G02*
X112951029Y-56350002I0J-51000D01*
G01*
X112951029Y-58049998D01*
G75*
G02*
X112900029Y-58100998I-51000J0D01*
G01*
X112000031Y-58100998D01*
G75*
G02*
X111949031Y-58049998I0J51000D01*
G01*
G37*
G36*
G01*
X116548971Y-58049998D02*
X116548971Y-56350002D01*
G75*
G02*
X116599971Y-56299002I51000J0D01*
G01*
X117499969Y-56299002D01*
G75*
G02*
X117550969Y-56350002I0J-51000D01*
G01*
X117550969Y-58049998D01*
G75*
G02*
X117499969Y-58100998I-51000J0D01*
G01*
X116599971Y-58100998D01*
G75*
G02*
X116548971Y-58049998I0J51000D01*
G01*
G37*
G36*
G01*
X104630540Y-57951068D02*
X103230492Y-57951068D01*
G75*
G02*
X103179492Y-57900068I0J51000D01*
G01*
X103179492Y-56400072D01*
G75*
G02*
X103230492Y-56349072I51000J0D01*
G01*
X104630540Y-56349072D01*
G75*
G02*
X104681540Y-56400072I0J-51000D01*
G01*
X104681540Y-57900068D01*
G75*
G02*
X104630540Y-57951068I-51000J0D01*
G01*
G37*
G36*
G01*
X104630540Y-64450928D02*
X103230492Y-64450928D01*
G75*
G02*
X103179492Y-64399928I0J51000D01*
G01*
X103179492Y-62899932D01*
G75*
G02*
X103230492Y-62848932I51000J0D01*
G01*
X104630540Y-62848932D01*
G75*
G02*
X104681540Y-62899932I0J-51000D01*
G01*
X104681540Y-64399928D01*
G75*
G02*
X104630540Y-64450928I-51000J0D01*
G01*
G37*
G36*
G01*
X100439604Y-55024078D02*
X101939600Y-55024078D01*
G75*
G02*
X101990600Y-55075078I0J-51000D01*
G01*
X101990600Y-57575078D01*
G75*
G02*
X101939600Y-57626078I-51000J0D01*
G01*
X100439604Y-57626078D01*
G75*
G02*
X100388604Y-57575078I0J51000D01*
G01*
X100388604Y-55075078D01*
G75*
G02*
X100439604Y-55024078I51000J0D01*
G01*
G37*
G36*
G01*
X100388604Y-65724922D02*
X100388604Y-63224922D01*
G75*
G02*
X100439604Y-63173922I51000J0D01*
G01*
X101939600Y-63173922D01*
G75*
G02*
X101990600Y-63224922I0J-51000D01*
G01*
X101990600Y-65724922D01*
G75*
G02*
X101939600Y-65775922I-51000J0D01*
G01*
X100439604Y-65775922D01*
G75*
G02*
X100388604Y-65724922I0J51000D01*
G01*
G37*
G36*
G01*
X105461650Y-58903585D02*
X105461650Y-59303583D01*
G75*
G02*
X105410650Y-59354583I-51000J0D01*
G01*
X103610654Y-59354583D01*
G75*
G02*
X103559654Y-59303583I0J51000D01*
G01*
X103559654Y-58903585D01*
G75*
G02*
X103610654Y-58852585I51000J0D01*
G01*
X105410650Y-58852585D01*
G75*
G02*
X105461650Y-58903585I0J-51000D01*
G01*
G37*
G36*
G01*
X105461650Y-59553825D02*
X105461650Y-59953823D01*
G75*
G02*
X105410650Y-60004823I-51000J0D01*
G01*
X103610654Y-60004823D01*
G75*
G02*
X103559654Y-59953823I0J51000D01*
G01*
X103559654Y-59553825D01*
G75*
G02*
X103610654Y-59502825I51000J0D01*
G01*
X105410650Y-59502825D01*
G75*
G02*
X105461650Y-59553825I0J-51000D01*
G01*
G37*
G36*
G01*
X105461650Y-60204065D02*
X105461650Y-60604063D01*
G75*
G02*
X105410650Y-60655063I-51000J0D01*
G01*
X103610654Y-60655063D01*
G75*
G02*
X103559654Y-60604063I0J51000D01*
G01*
X103559654Y-60204065D01*
G75*
G02*
X103610654Y-60153065I51000J0D01*
G01*
X105410650Y-60153065D01*
G75*
G02*
X105461650Y-60204065I0J-51000D01*
G01*
G37*
G36*
G01*
X105461650Y-60854305D02*
X105461650Y-61254303D01*
G75*
G02*
X105410650Y-61305303I-51000J0D01*
G01*
X103610654Y-61305303D01*
G75*
G02*
X103559654Y-61254303I0J51000D01*
G01*
X103559654Y-60854305D01*
G75*
G02*
X103610654Y-60803305I51000J0D01*
G01*
X105410650Y-60803305D01*
G75*
G02*
X105461650Y-60854305I0J-51000D01*
G01*
G37*
G36*
G01*
X105461650Y-61504545D02*
X105461650Y-61904543D01*
G75*
G02*
X105410650Y-61955543I-51000J0D01*
G01*
X103610654Y-61955543D01*
G75*
G02*
X103559654Y-61904543I0J51000D01*
G01*
X103559654Y-61504545D01*
G75*
G02*
X103610654Y-61453545I51000J0D01*
G01*
X105410650Y-61453545D01*
G75*
G02*
X105461650Y-61504545I0J-51000D01*
G01*
G37*
D11*
X103849236Y-58406100D03*
X103849236Y-62404060D03*
G36*
G01*
X134409000Y-63740000D02*
X134409000Y-61940000D01*
G75*
G02*
X134460000Y-61889000I51000J0D01*
G01*
X135460000Y-61889000D01*
G75*
G02*
X135511000Y-61940000I0J-51000D01*
G01*
X135511000Y-63740000D01*
G75*
G02*
X135460000Y-63791000I-51000J0D01*
G01*
X134460000Y-63791000D01*
G75*
G02*
X134409000Y-63740000I0J51000D01*
G01*
G37*
G36*
G01*
X136909000Y-63740000D02*
X136909000Y-61940000D01*
G75*
G02*
X136960000Y-61889000I51000J0D01*
G01*
X137960000Y-61889000D01*
G75*
G02*
X138011000Y-61940000I0J-51000D01*
G01*
X138011000Y-63740000D01*
G75*
G02*
X137960000Y-63791000I-51000J0D01*
G01*
X136960000Y-63791000D01*
G75*
G02*
X136909000Y-63740000I0J51000D01*
G01*
G37*
G36*
G01*
X135959000Y-56520000D02*
X135959000Y-54720000D01*
G75*
G02*
X136010000Y-54669000I51000J0D01*
G01*
X138110000Y-54669000D01*
G75*
G02*
X138161000Y-54720000I0J-51000D01*
G01*
X138161000Y-56520000D01*
G75*
G02*
X138110000Y-56571000I-51000J0D01*
G01*
X136010000Y-56571000D01*
G75*
G02*
X135959000Y-56520000I0J51000D01*
G01*
G37*
G36*
G01*
X138859000Y-56520000D02*
X138859000Y-54720000D01*
G75*
G02*
X138910000Y-54669000I51000J0D01*
G01*
X141010000Y-54669000D01*
G75*
G02*
X141061000Y-54720000I0J-51000D01*
G01*
X141061000Y-56520000D01*
G75*
G02*
X141010000Y-56571000I-51000J0D01*
G01*
X138910000Y-56571000D01*
G75*
G02*
X138859000Y-56520000I0J51000D01*
G01*
G37*
G36*
G01*
X138859000Y-58820000D02*
X138859000Y-57020000D01*
G75*
G02*
X138910000Y-56969000I51000J0D01*
G01*
X141010000Y-56969000D01*
G75*
G02*
X141061000Y-57020000I0J-51000D01*
G01*
X141061000Y-58820000D01*
G75*
G02*
X141010000Y-58871000I-51000J0D01*
G01*
X138910000Y-58871000D01*
G75*
G02*
X138859000Y-58820000I0J51000D01*
G01*
G37*
G36*
G01*
X135959000Y-58820000D02*
X135959000Y-57020000D01*
G75*
G02*
X136010000Y-56969000I51000J0D01*
G01*
X138110000Y-56969000D01*
G75*
G02*
X138161000Y-57020000I0J-51000D01*
G01*
X138161000Y-58820000D01*
G75*
G02*
X138110000Y-58871000I-51000J0D01*
G01*
X136010000Y-58871000D01*
G75*
G02*
X135959000Y-58820000I0J51000D01*
G01*
G37*
D12*
X149365000Y-63040000D03*
X150635000Y-63040000D03*
X149365000Y-61770000D03*
X150635000Y-61770000D03*
X149365000Y-60500000D03*
X150635000Y-60500000D03*
X149365000Y-59230000D03*
X150635000Y-59230000D03*
X150635000Y-57960000D03*
G36*
G01*
X148814000Y-58460000D02*
X148814000Y-57460000D01*
G75*
G02*
X148865000Y-57409000I51000J0D01*
G01*
X149865000Y-57409000D01*
G75*
G02*
X149916000Y-57460000I0J-51000D01*
G01*
X149916000Y-58460000D01*
G75*
G02*
X149865000Y-58511000I-51000J0D01*
G01*
X148865000Y-58511000D01*
G75*
G02*
X148814000Y-58460000I0J51000D01*
G01*
G37*
G36*
G01*
X127336062Y-56504140D02*
X131295860Y-60463938D01*
G75*
G02*
X131295860Y-60536062I-36062J-36062D01*
G01*
X127336062Y-64495860D01*
G75*
G02*
X127263938Y-64495860I-36062J36062D01*
G01*
X123304140Y-60536062D01*
G75*
G02*
X123304140Y-60463938I36062J36062D01*
G01*
X127263938Y-56504140D01*
G75*
G02*
X127336062Y-56504140I36062J-36062D01*
G01*
G37*
G36*
G01*
X131516477Y-60578489D02*
X132082870Y-61144882D01*
G75*
G02*
X132082870Y-61269332I-62225J-62225D01*
G01*
X131958419Y-61393783D01*
G75*
G02*
X131833969Y-61393783I-62225J62225D01*
G01*
X131267576Y-60827390D01*
G75*
G02*
X131267576Y-60702940I62225J62225D01*
G01*
X131392027Y-60578489D01*
G75*
G02*
X131516477Y-60578489I62225J-62225D01*
G01*
G37*
G36*
G01*
X131162924Y-60932042D02*
X131729317Y-61498435D01*
G75*
G02*
X131729317Y-61622885I-62225J-62225D01*
G01*
X131604866Y-61747336D01*
G75*
G02*
X131480416Y-61747336I-62225J62225D01*
G01*
X130914023Y-61180943D01*
G75*
G02*
X130914023Y-61056493I62225J62225D01*
G01*
X131038474Y-60932042D01*
G75*
G02*
X131162924Y-60932042I62225J-62225D01*
G01*
G37*
G36*
G01*
X130809370Y-61285596D02*
X131375763Y-61851989D01*
G75*
G02*
X131375763Y-61976439I-62225J-62225D01*
G01*
X131251312Y-62100890D01*
G75*
G02*
X131126862Y-62100890I-62225J62225D01*
G01*
X130560469Y-61534497D01*
G75*
G02*
X130560469Y-61410047I62225J62225D01*
G01*
X130684920Y-61285596D01*
G75*
G02*
X130809370Y-61285596I62225J-62225D01*
G01*
G37*
G36*
G01*
X130455817Y-61639149D02*
X131022210Y-62205542D01*
G75*
G02*
X131022210Y-62329992I-62225J-62225D01*
G01*
X130897759Y-62454443D01*
G75*
G02*
X130773309Y-62454443I-62225J62225D01*
G01*
X130206916Y-61888050D01*
G75*
G02*
X130206916Y-61763600I62225J62225D01*
G01*
X130331367Y-61639149D01*
G75*
G02*
X130455817Y-61639149I62225J-62225D01*
G01*
G37*
G36*
G01*
X130102264Y-61992702D02*
X130668657Y-62559095D01*
G75*
G02*
X130668657Y-62683545I-62225J-62225D01*
G01*
X130544206Y-62807996D01*
G75*
G02*
X130419756Y-62807996I-62225J62225D01*
G01*
X129853363Y-62241603D01*
G75*
G02*
X129853363Y-62117153I62225J62225D01*
G01*
X129977814Y-61992702D01*
G75*
G02*
X130102264Y-61992702I62225J-62225D01*
G01*
G37*
G36*
G01*
X129748710Y-62346256D02*
X130315103Y-62912649D01*
G75*
G02*
X130315103Y-63037099I-62225J-62225D01*
G01*
X130190652Y-63161550D01*
G75*
G02*
X130066202Y-63161550I-62225J62225D01*
G01*
X129499809Y-62595157D01*
G75*
G02*
X129499809Y-62470707I62225J62225D01*
G01*
X129624260Y-62346256D01*
G75*
G02*
X129748710Y-62346256I62225J-62225D01*
G01*
G37*
G36*
G01*
X129395157Y-62699809D02*
X129961550Y-63266202D01*
G75*
G02*
X129961550Y-63390652I-62225J-62225D01*
G01*
X129837099Y-63515103D01*
G75*
G02*
X129712649Y-63515103I-62225J62225D01*
G01*
X129146256Y-62948710D01*
G75*
G02*
X129146256Y-62824260I62225J62225D01*
G01*
X129270707Y-62699809D01*
G75*
G02*
X129395157Y-62699809I62225J-62225D01*
G01*
G37*
G36*
G01*
X129041603Y-63053363D02*
X129607996Y-63619756D01*
G75*
G02*
X129607996Y-63744206I-62225J-62225D01*
G01*
X129483545Y-63868657D01*
G75*
G02*
X129359095Y-63868657I-62225J62225D01*
G01*
X128792702Y-63302264D01*
G75*
G02*
X128792702Y-63177814I62225J62225D01*
G01*
X128917153Y-63053363D01*
G75*
G02*
X129041603Y-63053363I62225J-62225D01*
G01*
G37*
G36*
G01*
X128688050Y-63406916D02*
X129254443Y-63973309D01*
G75*
G02*
X129254443Y-64097759I-62225J-62225D01*
G01*
X129129992Y-64222210D01*
G75*
G02*
X129005542Y-64222210I-62225J62225D01*
G01*
X128439149Y-63655817D01*
G75*
G02*
X128439149Y-63531367I62225J62225D01*
G01*
X128563600Y-63406916D01*
G75*
G02*
X128688050Y-63406916I62225J-62225D01*
G01*
G37*
G36*
G01*
X128334497Y-63760469D02*
X128900890Y-64326862D01*
G75*
G02*
X128900890Y-64451312I-62225J-62225D01*
G01*
X128776439Y-64575763D01*
G75*
G02*
X128651989Y-64575763I-62225J62225D01*
G01*
X128085596Y-64009370D01*
G75*
G02*
X128085596Y-63884920I62225J62225D01*
G01*
X128210047Y-63760469D01*
G75*
G02*
X128334497Y-63760469I62225J-62225D01*
G01*
G37*
G36*
G01*
X127980943Y-64114023D02*
X128547336Y-64680416D01*
G75*
G02*
X128547336Y-64804866I-62225J-62225D01*
G01*
X128422885Y-64929317D01*
G75*
G02*
X128298435Y-64929317I-62225J62225D01*
G01*
X127732042Y-64362924D01*
G75*
G02*
X127732042Y-64238474I62225J62225D01*
G01*
X127856493Y-64114023D01*
G75*
G02*
X127980943Y-64114023I62225J-62225D01*
G01*
G37*
G36*
G01*
X127627390Y-64467576D02*
X128193783Y-65033969D01*
G75*
G02*
X128193783Y-65158419I-62225J-62225D01*
G01*
X128069332Y-65282870D01*
G75*
G02*
X127944882Y-65282870I-62225J62225D01*
G01*
X127378489Y-64716477D01*
G75*
G02*
X127378489Y-64592027I62225J62225D01*
G01*
X127502940Y-64467576D01*
G75*
G02*
X127627390Y-64467576I62225J-62225D01*
G01*
G37*
G36*
G01*
X127097060Y-64467576D02*
X127221511Y-64592027D01*
G75*
G02*
X127221511Y-64716477I-62225J-62225D01*
G01*
X126655118Y-65282870D01*
G75*
G02*
X126530668Y-65282870I-62225J62225D01*
G01*
X126406217Y-65158419D01*
G75*
G02*
X126406217Y-65033969I62225J62225D01*
G01*
X126972610Y-64467576D01*
G75*
G02*
X127097060Y-64467576I62225J-62225D01*
G01*
G37*
G36*
G01*
X126743507Y-64114023D02*
X126867958Y-64238474D01*
G75*
G02*
X126867958Y-64362924I-62225J-62225D01*
G01*
X126301565Y-64929317D01*
G75*
G02*
X126177115Y-64929317I-62225J62225D01*
G01*
X126052664Y-64804866D01*
G75*
G02*
X126052664Y-64680416I62225J62225D01*
G01*
X126619057Y-64114023D01*
G75*
G02*
X126743507Y-64114023I62225J-62225D01*
G01*
G37*
G36*
G01*
X126389953Y-63760469D02*
X126514404Y-63884920D01*
G75*
G02*
X126514404Y-64009370I-62225J-62225D01*
G01*
X125948011Y-64575763D01*
G75*
G02*
X125823561Y-64575763I-62225J62225D01*
G01*
X125699110Y-64451312D01*
G75*
G02*
X125699110Y-64326862I62225J62225D01*
G01*
X126265503Y-63760469D01*
G75*
G02*
X126389953Y-63760469I62225J-62225D01*
G01*
G37*
G36*
G01*
X126036400Y-63406916D02*
X126160851Y-63531367D01*
G75*
G02*
X126160851Y-63655817I-62225J-62225D01*
G01*
X125594458Y-64222210D01*
G75*
G02*
X125470008Y-64222210I-62225J62225D01*
G01*
X125345557Y-64097759D01*
G75*
G02*
X125345557Y-63973309I62225J62225D01*
G01*
X125911950Y-63406916D01*
G75*
G02*
X126036400Y-63406916I62225J-62225D01*
G01*
G37*
G36*
G01*
X125682847Y-63053363D02*
X125807298Y-63177814D01*
G75*
G02*
X125807298Y-63302264I-62225J-62225D01*
G01*
X125240905Y-63868657D01*
G75*
G02*
X125116455Y-63868657I-62225J62225D01*
G01*
X124992004Y-63744206D01*
G75*
G02*
X124992004Y-63619756I62225J62225D01*
G01*
X125558397Y-63053363D01*
G75*
G02*
X125682847Y-63053363I62225J-62225D01*
G01*
G37*
G36*
G01*
X125329293Y-62699809D02*
X125453744Y-62824260D01*
G75*
G02*
X125453744Y-62948710I-62225J-62225D01*
G01*
X124887351Y-63515103D01*
G75*
G02*
X124762901Y-63515103I-62225J62225D01*
G01*
X124638450Y-63390652D01*
G75*
G02*
X124638450Y-63266202I62225J62225D01*
G01*
X125204843Y-62699809D01*
G75*
G02*
X125329293Y-62699809I62225J-62225D01*
G01*
G37*
G36*
G01*
X124975740Y-62346256D02*
X125100191Y-62470707D01*
G75*
G02*
X125100191Y-62595157I-62225J-62225D01*
G01*
X124533798Y-63161550D01*
G75*
G02*
X124409348Y-63161550I-62225J62225D01*
G01*
X124284897Y-63037099D01*
G75*
G02*
X124284897Y-62912649I62225J62225D01*
G01*
X124851290Y-62346256D01*
G75*
G02*
X124975740Y-62346256I62225J-62225D01*
G01*
G37*
G36*
G01*
X124622186Y-61992702D02*
X124746637Y-62117153D01*
G75*
G02*
X124746637Y-62241603I-62225J-62225D01*
G01*
X124180244Y-62807996D01*
G75*
G02*
X124055794Y-62807996I-62225J62225D01*
G01*
X123931343Y-62683545D01*
G75*
G02*
X123931343Y-62559095I62225J62225D01*
G01*
X124497736Y-61992702D01*
G75*
G02*
X124622186Y-61992702I62225J-62225D01*
G01*
G37*
G36*
G01*
X124268633Y-61639149D02*
X124393084Y-61763600D01*
G75*
G02*
X124393084Y-61888050I-62225J-62225D01*
G01*
X123826691Y-62454443D01*
G75*
G02*
X123702241Y-62454443I-62225J62225D01*
G01*
X123577790Y-62329992D01*
G75*
G02*
X123577790Y-62205542I62225J62225D01*
G01*
X124144183Y-61639149D01*
G75*
G02*
X124268633Y-61639149I62225J-62225D01*
G01*
G37*
G36*
G01*
X123915080Y-61285596D02*
X124039531Y-61410047D01*
G75*
G02*
X124039531Y-61534497I-62225J-62225D01*
G01*
X123473138Y-62100890D01*
G75*
G02*
X123348688Y-62100890I-62225J62225D01*
G01*
X123224237Y-61976439D01*
G75*
G02*
X123224237Y-61851989I62225J62225D01*
G01*
X123790630Y-61285596D01*
G75*
G02*
X123915080Y-61285596I62225J-62225D01*
G01*
G37*
G36*
G01*
X123561526Y-60932042D02*
X123685977Y-61056493D01*
G75*
G02*
X123685977Y-61180943I-62225J-62225D01*
G01*
X123119584Y-61747336D01*
G75*
G02*
X122995134Y-61747336I-62225J62225D01*
G01*
X122870683Y-61622885D01*
G75*
G02*
X122870683Y-61498435I62225J62225D01*
G01*
X123437076Y-60932042D01*
G75*
G02*
X123561526Y-60932042I62225J-62225D01*
G01*
G37*
G36*
G01*
X123207973Y-60578489D02*
X123332424Y-60702940D01*
G75*
G02*
X123332424Y-60827390I-62225J-62225D01*
G01*
X122766031Y-61393783D01*
G75*
G02*
X122641581Y-61393783I-62225J62225D01*
G01*
X122517130Y-61269332D01*
G75*
G02*
X122517130Y-61144882I62225J62225D01*
G01*
X123083523Y-60578489D01*
G75*
G02*
X123207973Y-60578489I62225J-62225D01*
G01*
G37*
G36*
G01*
X122766031Y-59606217D02*
X123332424Y-60172610D01*
G75*
G02*
X123332424Y-60297060I-62225J-62225D01*
G01*
X123207973Y-60421511D01*
G75*
G02*
X123083523Y-60421511I-62225J62225D01*
G01*
X122517130Y-59855118D01*
G75*
G02*
X122517130Y-59730668I62225J62225D01*
G01*
X122641581Y-59606217D01*
G75*
G02*
X122766031Y-59606217I62225J-62225D01*
G01*
G37*
G36*
G01*
X123119584Y-59252664D02*
X123685977Y-59819057D01*
G75*
G02*
X123685977Y-59943507I-62225J-62225D01*
G01*
X123561526Y-60067958D01*
G75*
G02*
X123437076Y-60067958I-62225J62225D01*
G01*
X122870683Y-59501565D01*
G75*
G02*
X122870683Y-59377115I62225J62225D01*
G01*
X122995134Y-59252664D01*
G75*
G02*
X123119584Y-59252664I62225J-62225D01*
G01*
G37*
G36*
G01*
X123473138Y-58899110D02*
X124039531Y-59465503D01*
G75*
G02*
X124039531Y-59589953I-62225J-62225D01*
G01*
X123915080Y-59714404D01*
G75*
G02*
X123790630Y-59714404I-62225J62225D01*
G01*
X123224237Y-59148011D01*
G75*
G02*
X123224237Y-59023561I62225J62225D01*
G01*
X123348688Y-58899110D01*
G75*
G02*
X123473138Y-58899110I62225J-62225D01*
G01*
G37*
G36*
G01*
X123826691Y-58545557D02*
X124393084Y-59111950D01*
G75*
G02*
X124393084Y-59236400I-62225J-62225D01*
G01*
X124268633Y-59360851D01*
G75*
G02*
X124144183Y-59360851I-62225J62225D01*
G01*
X123577790Y-58794458D01*
G75*
G02*
X123577790Y-58670008I62225J62225D01*
G01*
X123702241Y-58545557D01*
G75*
G02*
X123826691Y-58545557I62225J-62225D01*
G01*
G37*
G36*
G01*
X124180244Y-58192004D02*
X124746637Y-58758397D01*
G75*
G02*
X124746637Y-58882847I-62225J-62225D01*
G01*
X124622186Y-59007298D01*
G75*
G02*
X124497736Y-59007298I-62225J62225D01*
G01*
X123931343Y-58440905D01*
G75*
G02*
X123931343Y-58316455I62225J62225D01*
G01*
X124055794Y-58192004D01*
G75*
G02*
X124180244Y-58192004I62225J-62225D01*
G01*
G37*
G36*
G01*
X124533798Y-57838450D02*
X125100191Y-58404843D01*
G75*
G02*
X125100191Y-58529293I-62225J-62225D01*
G01*
X124975740Y-58653744D01*
G75*
G02*
X124851290Y-58653744I-62225J62225D01*
G01*
X124284897Y-58087351D01*
G75*
G02*
X124284897Y-57962901I62225J62225D01*
G01*
X124409348Y-57838450D01*
G75*
G02*
X124533798Y-57838450I62225J-62225D01*
G01*
G37*
G36*
G01*
X124887351Y-57484897D02*
X125453744Y-58051290D01*
G75*
G02*
X125453744Y-58175740I-62225J-62225D01*
G01*
X125329293Y-58300191D01*
G75*
G02*
X125204843Y-58300191I-62225J62225D01*
G01*
X124638450Y-57733798D01*
G75*
G02*
X124638450Y-57609348I62225J62225D01*
G01*
X124762901Y-57484897D01*
G75*
G02*
X124887351Y-57484897I62225J-62225D01*
G01*
G37*
G36*
G01*
X125240905Y-57131343D02*
X125807298Y-57697736D01*
G75*
G02*
X125807298Y-57822186I-62225J-62225D01*
G01*
X125682847Y-57946637D01*
G75*
G02*
X125558397Y-57946637I-62225J62225D01*
G01*
X124992004Y-57380244D01*
G75*
G02*
X124992004Y-57255794I62225J62225D01*
G01*
X125116455Y-57131343D01*
G75*
G02*
X125240905Y-57131343I62225J-62225D01*
G01*
G37*
G36*
G01*
X125594458Y-56777790D02*
X126160851Y-57344183D01*
G75*
G02*
X126160851Y-57468633I-62225J-62225D01*
G01*
X126036400Y-57593084D01*
G75*
G02*
X125911950Y-57593084I-62225J62225D01*
G01*
X125345557Y-57026691D01*
G75*
G02*
X125345557Y-56902241I62225J62225D01*
G01*
X125470008Y-56777790D01*
G75*
G02*
X125594458Y-56777790I62225J-62225D01*
G01*
G37*
G36*
G01*
X125948011Y-56424237D02*
X126514404Y-56990630D01*
G75*
G02*
X126514404Y-57115080I-62225J-62225D01*
G01*
X126389953Y-57239531D01*
G75*
G02*
X126265503Y-57239531I-62225J62225D01*
G01*
X125699110Y-56673138D01*
G75*
G02*
X125699110Y-56548688I62225J62225D01*
G01*
X125823561Y-56424237D01*
G75*
G02*
X125948011Y-56424237I62225J-62225D01*
G01*
G37*
G36*
G01*
X126301565Y-56070683D02*
X126867958Y-56637076D01*
G75*
G02*
X126867958Y-56761526I-62225J-62225D01*
G01*
X126743507Y-56885977D01*
G75*
G02*
X126619057Y-56885977I-62225J62225D01*
G01*
X126052664Y-56319584D01*
G75*
G02*
X126052664Y-56195134I62225J62225D01*
G01*
X126177115Y-56070683D01*
G75*
G02*
X126301565Y-56070683I62225J-62225D01*
G01*
G37*
G36*
G01*
X126655118Y-55717130D02*
X127221511Y-56283523D01*
G75*
G02*
X127221511Y-56407973I-62225J-62225D01*
G01*
X127097060Y-56532424D01*
G75*
G02*
X126972610Y-56532424I-62225J62225D01*
G01*
X126406217Y-55966031D01*
G75*
G02*
X126406217Y-55841581I62225J62225D01*
G01*
X126530668Y-55717130D01*
G75*
G02*
X126655118Y-55717130I62225J-62225D01*
G01*
G37*
G36*
G01*
X128069332Y-55717130D02*
X128193783Y-55841581D01*
G75*
G02*
X128193783Y-55966031I-62225J-62225D01*
G01*
X127627390Y-56532424D01*
G75*
G02*
X127502940Y-56532424I-62225J62225D01*
G01*
X127378489Y-56407973D01*
G75*
G02*
X127378489Y-56283523I62225J62225D01*
G01*
X127944882Y-55717130D01*
G75*
G02*
X128069332Y-55717130I62225J-62225D01*
G01*
G37*
G36*
G01*
X128422885Y-56070683D02*
X128547336Y-56195134D01*
G75*
G02*
X128547336Y-56319584I-62225J-62225D01*
G01*
X127980943Y-56885977D01*
G75*
G02*
X127856493Y-56885977I-62225J62225D01*
G01*
X127732042Y-56761526D01*
G75*
G02*
X127732042Y-56637076I62225J62225D01*
G01*
X128298435Y-56070683D01*
G75*
G02*
X128422885Y-56070683I62225J-62225D01*
G01*
G37*
G36*
G01*
X128776439Y-56424237D02*
X128900890Y-56548688D01*
G75*
G02*
X128900890Y-56673138I-62225J-62225D01*
G01*
X128334497Y-57239531D01*
G75*
G02*
X128210047Y-57239531I-62225J62225D01*
G01*
X128085596Y-57115080D01*
G75*
G02*
X128085596Y-56990630I62225J62225D01*
G01*
X128651989Y-56424237D01*
G75*
G02*
X128776439Y-56424237I62225J-62225D01*
G01*
G37*
G36*
G01*
X129129992Y-56777790D02*
X129254443Y-56902241D01*
G75*
G02*
X129254443Y-57026691I-62225J-62225D01*
G01*
X128688050Y-57593084D01*
G75*
G02*
X128563600Y-57593084I-62225J62225D01*
G01*
X128439149Y-57468633D01*
G75*
G02*
X128439149Y-57344183I62225J62225D01*
G01*
X129005542Y-56777790D01*
G75*
G02*
X129129992Y-56777790I62225J-62225D01*
G01*
G37*
G36*
G01*
X129483545Y-57131343D02*
X129607996Y-57255794D01*
G75*
G02*
X129607996Y-57380244I-62225J-62225D01*
G01*
X129041603Y-57946637D01*
G75*
G02*
X128917153Y-57946637I-62225J62225D01*
G01*
X128792702Y-57822186D01*
G75*
G02*
X128792702Y-57697736I62225J62225D01*
G01*
X129359095Y-57131343D01*
G75*
G02*
X129483545Y-57131343I62225J-62225D01*
G01*
G37*
G36*
G01*
X129837099Y-57484897D02*
X129961550Y-57609348D01*
G75*
G02*
X129961550Y-57733798I-62225J-62225D01*
G01*
X129395157Y-58300191D01*
G75*
G02*
X129270707Y-58300191I-62225J62225D01*
G01*
X129146256Y-58175740D01*
G75*
G02*
X129146256Y-58051290I62225J62225D01*
G01*
X129712649Y-57484897D01*
G75*
G02*
X129837099Y-57484897I62225J-62225D01*
G01*
G37*
G36*
G01*
X130190652Y-57838450D02*
X130315103Y-57962901D01*
G75*
G02*
X130315103Y-58087351I-62225J-62225D01*
G01*
X129748710Y-58653744D01*
G75*
G02*
X129624260Y-58653744I-62225J62225D01*
G01*
X129499809Y-58529293D01*
G75*
G02*
X129499809Y-58404843I62225J62225D01*
G01*
X130066202Y-57838450D01*
G75*
G02*
X130190652Y-57838450I62225J-62225D01*
G01*
G37*
G36*
G01*
X130544206Y-58192004D02*
X130668657Y-58316455D01*
G75*
G02*
X130668657Y-58440905I-62225J-62225D01*
G01*
X130102264Y-59007298D01*
G75*
G02*
X129977814Y-59007298I-62225J62225D01*
G01*
X129853363Y-58882847D01*
G75*
G02*
X129853363Y-58758397I62225J62225D01*
G01*
X130419756Y-58192004D01*
G75*
G02*
X130544206Y-58192004I62225J-62225D01*
G01*
G37*
G36*
G01*
X130897759Y-58545557D02*
X131022210Y-58670008D01*
G75*
G02*
X131022210Y-58794458I-62225J-62225D01*
G01*
X130455817Y-59360851D01*
G75*
G02*
X130331367Y-59360851I-62225J62225D01*
G01*
X130206916Y-59236400D01*
G75*
G02*
X130206916Y-59111950I62225J62225D01*
G01*
X130773309Y-58545557D01*
G75*
G02*
X130897759Y-58545557I62225J-62225D01*
G01*
G37*
G36*
G01*
X131251312Y-58899110D02*
X131375763Y-59023561D01*
G75*
G02*
X131375763Y-59148011I-62225J-62225D01*
G01*
X130809370Y-59714404D01*
G75*
G02*
X130684920Y-59714404I-62225J62225D01*
G01*
X130560469Y-59589953D01*
G75*
G02*
X130560469Y-59465503I62225J62225D01*
G01*
X131126862Y-58899110D01*
G75*
G02*
X131251312Y-58899110I62225J-62225D01*
G01*
G37*
G36*
G01*
X131604866Y-59252664D02*
X131729317Y-59377115D01*
G75*
G02*
X131729317Y-59501565I-62225J-62225D01*
G01*
X131162924Y-60067958D01*
G75*
G02*
X131038474Y-60067958I-62225J62225D01*
G01*
X130914023Y-59943507D01*
G75*
G02*
X130914023Y-59819057I62225J62225D01*
G01*
X131480416Y-59252664D01*
G75*
G02*
X131604866Y-59252664I62225J-62225D01*
G01*
G37*
G36*
G01*
X131958419Y-59606217D02*
X132082870Y-59730668D01*
G75*
G02*
X132082870Y-59855118I-62225J-62225D01*
G01*
X131516477Y-60421511D01*
G75*
G02*
X131392027Y-60421511I-62225J62225D01*
G01*
X131267576Y-60297060D01*
G75*
G02*
X131267576Y-60172610I62225J62225D01*
G01*
X131833969Y-59606217D01*
G75*
G02*
X131958419Y-59606217I62225J-62225D01*
G01*
G37*
G36*
G01*
X108229000Y-63453000D02*
X108229000Y-62927000D01*
G75*
G02*
X108492000Y-62664000I263000J0D01*
G01*
X109118000Y-62664000D01*
G75*
G02*
X109381000Y-62927000I0J-263000D01*
G01*
X109381000Y-63453000D01*
G75*
G02*
X109118000Y-63716000I-263000J0D01*
G01*
X108492000Y-63716000D01*
G75*
G02*
X108229000Y-63453000I0J263000D01*
G01*
G37*
G36*
G01*
X106479000Y-63453000D02*
X106479000Y-62927000D01*
G75*
G02*
X106742000Y-62664000I263000J0D01*
G01*
X107368000Y-62664000D01*
G75*
G02*
X107631000Y-62927000I0J-263000D01*
G01*
X107631000Y-63453000D01*
G75*
G02*
X107368000Y-63716000I-263000J0D01*
G01*
X106742000Y-63716000D01*
G75*
G02*
X106479000Y-63453000I0J263000D01*
G01*
G37*
G36*
G01*
X108229000Y-61883000D02*
X108229000Y-61357000D01*
G75*
G02*
X108492000Y-61094000I263000J0D01*
G01*
X109118000Y-61094000D01*
G75*
G02*
X109381000Y-61357000I0J-263000D01*
G01*
X109381000Y-61883000D01*
G75*
G02*
X109118000Y-62146000I-263000J0D01*
G01*
X108492000Y-62146000D01*
G75*
G02*
X108229000Y-61883000I0J263000D01*
G01*
G37*
G36*
G01*
X106479000Y-61883000D02*
X106479000Y-61357000D01*
G75*
G02*
X106742000Y-61094000I263000J0D01*
G01*
X107368000Y-61094000D01*
G75*
G02*
X107631000Y-61357000I0J-263000D01*
G01*
X107631000Y-61883000D01*
G75*
G02*
X107368000Y-62146000I-263000J0D01*
G01*
X106742000Y-62146000D01*
G75*
G02*
X106479000Y-61883000I0J263000D01*
G01*
G37*
G36*
G01*
X104849000Y-55133000D02*
X104849000Y-54607000D01*
G75*
G02*
X105112000Y-54344000I263000J0D01*
G01*
X105738000Y-54344000D01*
G75*
G02*
X106001000Y-54607000I0J-263000D01*
G01*
X106001000Y-55133000D01*
G75*
G02*
X105738000Y-55396000I-263000J0D01*
G01*
X105112000Y-55396000D01*
G75*
G02*
X104849000Y-55133000I0J263000D01*
G01*
G37*
G36*
G01*
X103099000Y-55133000D02*
X103099000Y-54607000D01*
G75*
G02*
X103362000Y-54344000I263000J0D01*
G01*
X103988000Y-54344000D01*
G75*
G02*
X104251000Y-54607000I0J-263000D01*
G01*
X104251000Y-55133000D01*
G75*
G02*
X103988000Y-55396000I-263000J0D01*
G01*
X103362000Y-55396000D01*
G75*
G02*
X103099000Y-55133000I0J263000D01*
G01*
G37*
D13*
G36*
X128195197Y-55840167D02*
G01*
X128235052Y-55880022D01*
X128235184Y-55880167D01*
X128242192Y-55888706D01*
X128242410Y-55889032D01*
X128244709Y-55893334D01*
X128244859Y-55893696D01*
X128246277Y-55898370D01*
X128246353Y-55898755D01*
X128247151Y-55906852D01*
X128251876Y-55930605D01*
X128261103Y-55952878D01*
X128274499Y-55972925D01*
X128291546Y-55989972D01*
X128311594Y-56003366D01*
X128333868Y-56012592D01*
X128357614Y-56017315D01*
X128365711Y-56018113D01*
X128366096Y-56018189D01*
X128370770Y-56019607D01*
X128371132Y-56019757D01*
X128375434Y-56022056D01*
X128375760Y-56022274D01*
X128384299Y-56029282D01*
X128384444Y-56029414D01*
X128424299Y-56069269D01*
X128424817Y-56071201D01*
X128423403Y-56072615D01*
X128421616Y-56072229D01*
X128408434Y-56061410D01*
X128393567Y-56053464D01*
X128377433Y-56048569D01*
X128360660Y-56046917D01*
X128343887Y-56048569D01*
X128327753Y-56053464D01*
X128312886Y-56061410D01*
X128299777Y-56072169D01*
X127733528Y-56638418D01*
X127722769Y-56651527D01*
X127714823Y-56666394D01*
X127709928Y-56682528D01*
X127708276Y-56699301D01*
X127709928Y-56716074D01*
X127714823Y-56732208D01*
X127722769Y-56747075D01*
X127733528Y-56760184D01*
X127857835Y-56884491D01*
X127870944Y-56895250D01*
X127885811Y-56903196D01*
X127901945Y-56908091D01*
X127918718Y-56909743D01*
X127935491Y-56908091D01*
X127951625Y-56903196D01*
X127966492Y-56895250D01*
X127979601Y-56884491D01*
X128545850Y-56318242D01*
X128556609Y-56305133D01*
X128564555Y-56290266D01*
X128569450Y-56274132D01*
X128571102Y-56257359D01*
X128569450Y-56240586D01*
X128564555Y-56224452D01*
X128556609Y-56209585D01*
X128545790Y-56196403D01*
X128545464Y-56194430D01*
X128547010Y-56193161D01*
X128548750Y-56193720D01*
X128588605Y-56233575D01*
X128588737Y-56233720D01*
X128595745Y-56242259D01*
X128595963Y-56242585D01*
X128598262Y-56246887D01*
X128598412Y-56247249D01*
X128599830Y-56251923D01*
X128599906Y-56252308D01*
X128600704Y-56260406D01*
X128605429Y-56284158D01*
X128614656Y-56306432D01*
X128628051Y-56326479D01*
X128645099Y-56343525D01*
X128665146Y-56356920D01*
X128687420Y-56366145D01*
X128711167Y-56370869D01*
X128719265Y-56371667D01*
X128719650Y-56371743D01*
X128724324Y-56373161D01*
X128724686Y-56373311D01*
X128728988Y-56375610D01*
X128729314Y-56375828D01*
X128737853Y-56382836D01*
X128737998Y-56382968D01*
X128777853Y-56422823D01*
X128778371Y-56424755D01*
X128776957Y-56426169D01*
X128775170Y-56425783D01*
X128761988Y-56414964D01*
X128747121Y-56407018D01*
X128730987Y-56402123D01*
X128714214Y-56400471D01*
X128697441Y-56402123D01*
X128681307Y-56407018D01*
X128666440Y-56414964D01*
X128653331Y-56425723D01*
X128087082Y-56991972D01*
X128076323Y-57005081D01*
X128068377Y-57019948D01*
X128063482Y-57036082D01*
X128061830Y-57052855D01*
X128063482Y-57069628D01*
X128068377Y-57085762D01*
X128076323Y-57100629D01*
X128087082Y-57113738D01*
X128211389Y-57238045D01*
X128224498Y-57248804D01*
X128239365Y-57256750D01*
X128255499Y-57261645D01*
X128272272Y-57263297D01*
X128289045Y-57261645D01*
X128305179Y-57256750D01*
X128320046Y-57248804D01*
X128333155Y-57238045D01*
X128899404Y-56671796D01*
X128910163Y-56658687D01*
X128918109Y-56643820D01*
X128923004Y-56627686D01*
X128924656Y-56610913D01*
X128923004Y-56594140D01*
X128918109Y-56578006D01*
X128910163Y-56563139D01*
X128899344Y-56549957D01*
X128899018Y-56547984D01*
X128900564Y-56546715D01*
X128902304Y-56547274D01*
X128942159Y-56587129D01*
X128942291Y-56587274D01*
X128949299Y-56595813D01*
X128949517Y-56596139D01*
X128951816Y-56600441D01*
X128951966Y-56600803D01*
X128953384Y-56605477D01*
X128953460Y-56605862D01*
X128954258Y-56613959D01*
X128958983Y-56637712D01*
X128968210Y-56659985D01*
X128981606Y-56680032D01*
X128998653Y-56697079D01*
X129018701Y-56710473D01*
X129040975Y-56719699D01*
X129064721Y-56724422D01*
X129072818Y-56725220D01*
X129073203Y-56725296D01*
X129077877Y-56726714D01*
X129078239Y-56726864D01*
X129082541Y-56729163D01*
X129082867Y-56729381D01*
X129091406Y-56736389D01*
X129091551Y-56736521D01*
X129131406Y-56776376D01*
X129131924Y-56778308D01*
X129130510Y-56779722D01*
X129128723Y-56779336D01*
X129115541Y-56768517D01*
X129100674Y-56760571D01*
X129084540Y-56755676D01*
X129067767Y-56754024D01*
X129050994Y-56755676D01*
X129034860Y-56760571D01*
X129019993Y-56768517D01*
X129006884Y-56779276D01*
X128440635Y-57345525D01*
X128429876Y-57358634D01*
X128421930Y-57373501D01*
X128417035Y-57389635D01*
X128415383Y-57406408D01*
X128417035Y-57423181D01*
X128421930Y-57439315D01*
X128429876Y-57454182D01*
X128440635Y-57467291D01*
X128564942Y-57591598D01*
X128578051Y-57602357D01*
X128592918Y-57610303D01*
X128609052Y-57615198D01*
X128625825Y-57616850D01*
X128642598Y-57615198D01*
X128658732Y-57610303D01*
X128673599Y-57602357D01*
X128686708Y-57591598D01*
X129252957Y-57025349D01*
X129263716Y-57012240D01*
X129271662Y-56997373D01*
X129276557Y-56981239D01*
X129278209Y-56964466D01*
X129276557Y-56947693D01*
X129271662Y-56931559D01*
X129263716Y-56916692D01*
X129252897Y-56903510D01*
X129252571Y-56901537D01*
X129254117Y-56900268D01*
X129255857Y-56900827D01*
X129295712Y-56940682D01*
X129295844Y-56940827D01*
X129302852Y-56949366D01*
X129303070Y-56949692D01*
X129305369Y-56953994D01*
X129305519Y-56954356D01*
X129306937Y-56959030D01*
X129307013Y-56959415D01*
X129307811Y-56967512D01*
X129312536Y-56991265D01*
X129321763Y-57013538D01*
X129335159Y-57033585D01*
X129352206Y-57050632D01*
X129372254Y-57064026D01*
X129394528Y-57073252D01*
X129418274Y-57077975D01*
X129426371Y-57078773D01*
X129426756Y-57078849D01*
X129431430Y-57080267D01*
X129431792Y-57080417D01*
X129436094Y-57082716D01*
X129436420Y-57082934D01*
X129444959Y-57089942D01*
X129445104Y-57090074D01*
X129484959Y-57129929D01*
X129485477Y-57131861D01*
X129484063Y-57133275D01*
X129482276Y-57132889D01*
X129469094Y-57122070D01*
X129454227Y-57114124D01*
X129438093Y-57109229D01*
X129421320Y-57107577D01*
X129404547Y-57109229D01*
X129388413Y-57114124D01*
X129373546Y-57122070D01*
X129360437Y-57132829D01*
X128794188Y-57699078D01*
X128783429Y-57712187D01*
X128775483Y-57727054D01*
X128770588Y-57743188D01*
X128768936Y-57759961D01*
X128770588Y-57776734D01*
X128775483Y-57792868D01*
X128783429Y-57807735D01*
X128794188Y-57820844D01*
X128918495Y-57945151D01*
X128931604Y-57955910D01*
X128946471Y-57963856D01*
X128962605Y-57968751D01*
X128979378Y-57970403D01*
X128996151Y-57968751D01*
X129012285Y-57963856D01*
X129027152Y-57955910D01*
X129040261Y-57945151D01*
X129606510Y-57378902D01*
X129617269Y-57365793D01*
X129625215Y-57350926D01*
X129630110Y-57334792D01*
X129631762Y-57318019D01*
X129630110Y-57301246D01*
X129625215Y-57285112D01*
X129617269Y-57270245D01*
X129606450Y-57257063D01*
X129606124Y-57255090D01*
X129607670Y-57253821D01*
X129609410Y-57254380D01*
X129649265Y-57294235D01*
X129649397Y-57294380D01*
X129656405Y-57302919D01*
X129656623Y-57303245D01*
X129658922Y-57307547D01*
X129659072Y-57307909D01*
X129660490Y-57312583D01*
X129660566Y-57312968D01*
X129661364Y-57321066D01*
X129666089Y-57344818D01*
X129675316Y-57367092D01*
X129688711Y-57387139D01*
X129705759Y-57404185D01*
X129725806Y-57417580D01*
X129748080Y-57426805D01*
X129771827Y-57431529D01*
X129779925Y-57432327D01*
X129780310Y-57432403D01*
X129784984Y-57433821D01*
X129785346Y-57433971D01*
X129789648Y-57436270D01*
X129789974Y-57436488D01*
X129798513Y-57443496D01*
X129798658Y-57443628D01*
X129838513Y-57483483D01*
X129839031Y-57485415D01*
X129837617Y-57486829D01*
X129835830Y-57486443D01*
X129822648Y-57475624D01*
X129807781Y-57467678D01*
X129791647Y-57462783D01*
X129774874Y-57461131D01*
X129758101Y-57462783D01*
X129741967Y-57467678D01*
X129727100Y-57475624D01*
X129713991Y-57486383D01*
X129147742Y-58052632D01*
X129136983Y-58065741D01*
X129129037Y-58080608D01*
X129124142Y-58096742D01*
X129122490Y-58113515D01*
X129124142Y-58130288D01*
X129129037Y-58146422D01*
X129136983Y-58161289D01*
X129147742Y-58174398D01*
X129272049Y-58298705D01*
X129285158Y-58309464D01*
X129300025Y-58317410D01*
X129316159Y-58322305D01*
X129332932Y-58323957D01*
X129349705Y-58322305D01*
X129365839Y-58317410D01*
X129380706Y-58309464D01*
X129393815Y-58298705D01*
X129960064Y-57732456D01*
X129970823Y-57719347D01*
X129978769Y-57704480D01*
X129983664Y-57688346D01*
X129985316Y-57671573D01*
X129983664Y-57654800D01*
X129978769Y-57638666D01*
X129970823Y-57623799D01*
X129960004Y-57610617D01*
X129959678Y-57608644D01*
X129961224Y-57607375D01*
X129962964Y-57607934D01*
X130002819Y-57647789D01*
X130002951Y-57647934D01*
X130009959Y-57656473D01*
X130010177Y-57656799D01*
X130012476Y-57661101D01*
X130012626Y-57661463D01*
X130014044Y-57666137D01*
X130014120Y-57666522D01*
X130014918Y-57674619D01*
X130019643Y-57698372D01*
X130028870Y-57720645D01*
X130042266Y-57740692D01*
X130059313Y-57757739D01*
X130079361Y-57771133D01*
X130101635Y-57780359D01*
X130125381Y-57785082D01*
X130133478Y-57785880D01*
X130133863Y-57785956D01*
X130138537Y-57787374D01*
X130138899Y-57787524D01*
X130143201Y-57789823D01*
X130143527Y-57790041D01*
X130152066Y-57797049D01*
X130152211Y-57797181D01*
X130192066Y-57837036D01*
X130192584Y-57838968D01*
X130191170Y-57840382D01*
X130189383Y-57839996D01*
X130176201Y-57829177D01*
X130161334Y-57821231D01*
X130145200Y-57816336D01*
X130128427Y-57814684D01*
X130111654Y-57816336D01*
X130095520Y-57821231D01*
X130080653Y-57829177D01*
X130067544Y-57839936D01*
X129501295Y-58406185D01*
X129490536Y-58419294D01*
X129482590Y-58434161D01*
X129477695Y-58450295D01*
X129476043Y-58467068D01*
X129477695Y-58483841D01*
X129482590Y-58499975D01*
X129490536Y-58514842D01*
X129501295Y-58527951D01*
X129625602Y-58652258D01*
X129638711Y-58663017D01*
X129653578Y-58670963D01*
X129669712Y-58675858D01*
X129686485Y-58677510D01*
X129703258Y-58675858D01*
X129719392Y-58670963D01*
X129734259Y-58663017D01*
X129747368Y-58652258D01*
X130313617Y-58086009D01*
X130324376Y-58072900D01*
X130332322Y-58058033D01*
X130337217Y-58041899D01*
X130338869Y-58025126D01*
X130337217Y-58008353D01*
X130332322Y-57992219D01*
X130324376Y-57977352D01*
X130313557Y-57964170D01*
X130313231Y-57962197D01*
X130314777Y-57960928D01*
X130316517Y-57961487D01*
X130356372Y-58001342D01*
X130356504Y-58001487D01*
X130363512Y-58010026D01*
X130363730Y-58010352D01*
X130366029Y-58014654D01*
X130366179Y-58015016D01*
X130367597Y-58019690D01*
X130367673Y-58020075D01*
X130368471Y-58028173D01*
X130373196Y-58051925D01*
X130382423Y-58074199D01*
X130395818Y-58094246D01*
X130412866Y-58111292D01*
X130432913Y-58124687D01*
X130455187Y-58133912D01*
X130478934Y-58138636D01*
X130487032Y-58139434D01*
X130487417Y-58139510D01*
X130492091Y-58140928D01*
X130492453Y-58141078D01*
X130496755Y-58143377D01*
X130497081Y-58143595D01*
X130505620Y-58150603D01*
X130505765Y-58150735D01*
X130545620Y-58190590D01*
X130546138Y-58192522D01*
X130544724Y-58193936D01*
X130542937Y-58193550D01*
X130529755Y-58182731D01*
X130514888Y-58174785D01*
X130498754Y-58169890D01*
X130481981Y-58168238D01*
X130465208Y-58169890D01*
X130449074Y-58174785D01*
X130434207Y-58182731D01*
X130421098Y-58193490D01*
X129854849Y-58759739D01*
X129844090Y-58772848D01*
X129836144Y-58787715D01*
X129831249Y-58803849D01*
X129829597Y-58820622D01*
X129831249Y-58837395D01*
X129836144Y-58853529D01*
X129844090Y-58868396D01*
X129854849Y-58881505D01*
X129979156Y-59005812D01*
X129992265Y-59016571D01*
X130007132Y-59024517D01*
X130023266Y-59029412D01*
X130040039Y-59031064D01*
X130056812Y-59029412D01*
X130072946Y-59024517D01*
X130087813Y-59016571D01*
X130100922Y-59005812D01*
X130667171Y-58439563D01*
X130677930Y-58426454D01*
X130685876Y-58411587D01*
X130690771Y-58395453D01*
X130692423Y-58378680D01*
X130690771Y-58361907D01*
X130685876Y-58345773D01*
X130677930Y-58330906D01*
X130667111Y-58317724D01*
X130666785Y-58315751D01*
X130668331Y-58314482D01*
X130670071Y-58315041D01*
X130709926Y-58354896D01*
X130710058Y-58355041D01*
X130717066Y-58363580D01*
X130717284Y-58363906D01*
X130719583Y-58368208D01*
X130719733Y-58368570D01*
X130721151Y-58373244D01*
X130721227Y-58373629D01*
X130722025Y-58381726D01*
X130726750Y-58405479D01*
X130735977Y-58427752D01*
X130749373Y-58447799D01*
X130766420Y-58464846D01*
X130786468Y-58478240D01*
X130808742Y-58487466D01*
X130832488Y-58492189D01*
X130840585Y-58492987D01*
X130840970Y-58493063D01*
X130845644Y-58494481D01*
X130846006Y-58494631D01*
X130850308Y-58496930D01*
X130850634Y-58497148D01*
X130859173Y-58504156D01*
X130859318Y-58504288D01*
X130899173Y-58544143D01*
X130899691Y-58546075D01*
X130898277Y-58547489D01*
X130896490Y-58547103D01*
X130883308Y-58536284D01*
X130868441Y-58528338D01*
X130852307Y-58523443D01*
X130835534Y-58521791D01*
X130818761Y-58523443D01*
X130802627Y-58528338D01*
X130787760Y-58536284D01*
X130774651Y-58547043D01*
X130208402Y-59113292D01*
X130197643Y-59126401D01*
X130189697Y-59141268D01*
X130184802Y-59157402D01*
X130183150Y-59174175D01*
X130184802Y-59190948D01*
X130189697Y-59207082D01*
X130197643Y-59221949D01*
X130208402Y-59235058D01*
X130332709Y-59359365D01*
X130345818Y-59370124D01*
X130360685Y-59378070D01*
X130376819Y-59382965D01*
X130393592Y-59384617D01*
X130410365Y-59382965D01*
X130426499Y-59378070D01*
X130441366Y-59370124D01*
X130454475Y-59359365D01*
X131020724Y-58793116D01*
X131031483Y-58780007D01*
X131039429Y-58765140D01*
X131044324Y-58749006D01*
X131045976Y-58732233D01*
X131044324Y-58715460D01*
X131039429Y-58699326D01*
X131031483Y-58684459D01*
X131020664Y-58671277D01*
X131020338Y-58669304D01*
X131021884Y-58668035D01*
X131023624Y-58668594D01*
X131063479Y-58708449D01*
X131063611Y-58708594D01*
X131070619Y-58717133D01*
X131070837Y-58717459D01*
X131073136Y-58721761D01*
X131073286Y-58722123D01*
X131074704Y-58726797D01*
X131074780Y-58727182D01*
X131075578Y-58735279D01*
X131080303Y-58759032D01*
X131089530Y-58781305D01*
X131102926Y-58801352D01*
X131119973Y-58818399D01*
X131140021Y-58831793D01*
X131162295Y-58841019D01*
X131186041Y-58845742D01*
X131194138Y-58846540D01*
X131194523Y-58846616D01*
X131199197Y-58848034D01*
X131199559Y-58848184D01*
X131203861Y-58850483D01*
X131204187Y-58850701D01*
X131212726Y-58857709D01*
X131212871Y-58857841D01*
X131252726Y-58897696D01*
X131253244Y-58899628D01*
X131251830Y-58901042D01*
X131250043Y-58900656D01*
X131236861Y-58889837D01*
X131221994Y-58881891D01*
X131205860Y-58876996D01*
X131189087Y-58875344D01*
X131172314Y-58876996D01*
X131156180Y-58881891D01*
X131141313Y-58889837D01*
X131128204Y-58900596D01*
X130561955Y-59466845D01*
X130551196Y-59479954D01*
X130543250Y-59494821D01*
X130538355Y-59510955D01*
X130536703Y-59527728D01*
X130538355Y-59544501D01*
X130543250Y-59560635D01*
X130551196Y-59575502D01*
X130561955Y-59588611D01*
X130686262Y-59712918D01*
X130699371Y-59723677D01*
X130714238Y-59731623D01*
X130730372Y-59736518D01*
X130747145Y-59738170D01*
X130763918Y-59736518D01*
X130780052Y-59731623D01*
X130794919Y-59723677D01*
X130808028Y-59712918D01*
X131374277Y-59146669D01*
X131385036Y-59133560D01*
X131392982Y-59118693D01*
X131397877Y-59102559D01*
X131399529Y-59085786D01*
X131397877Y-59069013D01*
X131392982Y-59052879D01*
X131385036Y-59038012D01*
X131374217Y-59024830D01*
X131373891Y-59022857D01*
X131375437Y-59021588D01*
X131377177Y-59022147D01*
X131417032Y-59062002D01*
X131417164Y-59062147D01*
X131424172Y-59070686D01*
X131424390Y-59071012D01*
X131426689Y-59075314D01*
X131426839Y-59075676D01*
X131428257Y-59080350D01*
X131428333Y-59080735D01*
X131429131Y-59088833D01*
X131433856Y-59112585D01*
X131443083Y-59134859D01*
X131456478Y-59154906D01*
X131473526Y-59171952D01*
X131493573Y-59185347D01*
X131515847Y-59194572D01*
X131539594Y-59199296D01*
X131547692Y-59200094D01*
X131548077Y-59200170D01*
X131552751Y-59201588D01*
X131553113Y-59201738D01*
X131557415Y-59204037D01*
X131557741Y-59204255D01*
X131566280Y-59211263D01*
X131566425Y-59211395D01*
X131606280Y-59251250D01*
X131606798Y-59253182D01*
X131605384Y-59254596D01*
X131603597Y-59254210D01*
X131590415Y-59243391D01*
X131575548Y-59235445D01*
X131559414Y-59230550D01*
X131542641Y-59228898D01*
X131525868Y-59230550D01*
X131509734Y-59235445D01*
X131494867Y-59243391D01*
X131481758Y-59254150D01*
X130915509Y-59820399D01*
X130904750Y-59833508D01*
X130896804Y-59848375D01*
X130891909Y-59864509D01*
X130890257Y-59881282D01*
X130891909Y-59898055D01*
X130896804Y-59914189D01*
X130904750Y-59929056D01*
X130915509Y-59942165D01*
X131039816Y-60066472D01*
X131052925Y-60077231D01*
X131067792Y-60085177D01*
X131083926Y-60090072D01*
X131100699Y-60091724D01*
X131117472Y-60090072D01*
X131133606Y-60085177D01*
X131148473Y-60077231D01*
X131161582Y-60066472D01*
X131727831Y-59500223D01*
X131738590Y-59487114D01*
X131746536Y-59472247D01*
X131751431Y-59456113D01*
X131753083Y-59439340D01*
X131751431Y-59422567D01*
X131746536Y-59406433D01*
X131738590Y-59391566D01*
X131727771Y-59378384D01*
X131727445Y-59376411D01*
X131728991Y-59375142D01*
X131730731Y-59375701D01*
X131770586Y-59415556D01*
X131770718Y-59415701D01*
X131777726Y-59424240D01*
X131777944Y-59424566D01*
X131780243Y-59428868D01*
X131780393Y-59429230D01*
X131781811Y-59433904D01*
X131781887Y-59434289D01*
X131782685Y-59442386D01*
X131787410Y-59466139D01*
X131796637Y-59488412D01*
X131810033Y-59508459D01*
X131827080Y-59525506D01*
X131847128Y-59538900D01*
X131869402Y-59548126D01*
X131893148Y-59552849D01*
X131901245Y-59553647D01*
X131901630Y-59553723D01*
X131906304Y-59555141D01*
X131906666Y-59555291D01*
X131910968Y-59557590D01*
X131911294Y-59557808D01*
X131919833Y-59564816D01*
X131919978Y-59564948D01*
X131959833Y-59604803D01*
X131960351Y-59606735D01*
X131958937Y-59608149D01*
X131957150Y-59607763D01*
X131943968Y-59596944D01*
X131929101Y-59588998D01*
X131912967Y-59584103D01*
X131896194Y-59582451D01*
X131879421Y-59584103D01*
X131863287Y-59588998D01*
X131848420Y-59596944D01*
X131835311Y-59607703D01*
X131269062Y-60173952D01*
X131258303Y-60187061D01*
X131250357Y-60201928D01*
X131245462Y-60218062D01*
X131243810Y-60234835D01*
X131245462Y-60251608D01*
X131250357Y-60267742D01*
X131258303Y-60282609D01*
X131269062Y-60295718D01*
X131393369Y-60420025D01*
X131406478Y-60430784D01*
X131421345Y-60438730D01*
X131437479Y-60443625D01*
X131454252Y-60445277D01*
X131471025Y-60443625D01*
X131487159Y-60438730D01*
X131502026Y-60430784D01*
X131515135Y-60420025D01*
X131524962Y-60410198D01*
X131526894Y-60409680D01*
X131528308Y-60411094D01*
X131527922Y-60412881D01*
X131512502Y-60431670D01*
X131501137Y-60452934D01*
X131494137Y-60476009D01*
X131491774Y-60500000D01*
X131494137Y-60523991D01*
X131501137Y-60547066D01*
X131512502Y-60568330D01*
X131527922Y-60587119D01*
X131528248Y-60589093D01*
X131526702Y-60590361D01*
X131524962Y-60589802D01*
X131515135Y-60579975D01*
X131502026Y-60569216D01*
X131487159Y-60561270D01*
X131471025Y-60556375D01*
X131454252Y-60554723D01*
X131437479Y-60556375D01*
X131421345Y-60561270D01*
X131406478Y-60569216D01*
X131393369Y-60579975D01*
X131269062Y-60704282D01*
X131258303Y-60717391D01*
X131250357Y-60732258D01*
X131245462Y-60748392D01*
X131243810Y-60765165D01*
X131245462Y-60781938D01*
X131250357Y-60798072D01*
X131258303Y-60812939D01*
X131269062Y-60826048D01*
X131835311Y-61392297D01*
X131848420Y-61403056D01*
X131863287Y-61411002D01*
X131879421Y-61415897D01*
X131896194Y-61417549D01*
X131912967Y-61415897D01*
X131929101Y-61411002D01*
X131943968Y-61403056D01*
X131957150Y-61392237D01*
X131959123Y-61391911D01*
X131960392Y-61393457D01*
X131959833Y-61395197D01*
X131919978Y-61435052D01*
X131919833Y-61435184D01*
X131911294Y-61442192D01*
X131910968Y-61442410D01*
X131906666Y-61444709D01*
X131906304Y-61444859D01*
X131901630Y-61446277D01*
X131901245Y-61446353D01*
X131893148Y-61447151D01*
X131869395Y-61451876D01*
X131847122Y-61461103D01*
X131827075Y-61474499D01*
X131810028Y-61491546D01*
X131796634Y-61511594D01*
X131787408Y-61533868D01*
X131782685Y-61557614D01*
X131781887Y-61565711D01*
X131781811Y-61566096D01*
X131780393Y-61570770D01*
X131780243Y-61571132D01*
X131777944Y-61575434D01*
X131777726Y-61575760D01*
X131770718Y-61584299D01*
X131770586Y-61584444D01*
X131730731Y-61624299D01*
X131728799Y-61624817D01*
X131727385Y-61623403D01*
X131727771Y-61621616D01*
X131738590Y-61608434D01*
X131746536Y-61593567D01*
X131751431Y-61577433D01*
X131753083Y-61560660D01*
X131751431Y-61543887D01*
X131746536Y-61527753D01*
X131738590Y-61512886D01*
X131727831Y-61499777D01*
X131161582Y-60933528D01*
X131148473Y-60922769D01*
X131133606Y-60914823D01*
X131117472Y-60909928D01*
X131100699Y-60908276D01*
X131083926Y-60909928D01*
X131067792Y-60914823D01*
X131052925Y-60922769D01*
X131039816Y-60933528D01*
X130915509Y-61057835D01*
X130904750Y-61070944D01*
X130896804Y-61085811D01*
X130891909Y-61101945D01*
X130890257Y-61118718D01*
X130891909Y-61135491D01*
X130896804Y-61151625D01*
X130904750Y-61166492D01*
X130915509Y-61179601D01*
X131481758Y-61745850D01*
X131494867Y-61756609D01*
X131509734Y-61764555D01*
X131525868Y-61769450D01*
X131542641Y-61771102D01*
X131559414Y-61769450D01*
X131575548Y-61764555D01*
X131590415Y-61756609D01*
X131603597Y-61745790D01*
X131605570Y-61745464D01*
X131606839Y-61747010D01*
X131606280Y-61748750D01*
X131566425Y-61788605D01*
X131566280Y-61788737D01*
X131557741Y-61795745D01*
X131557415Y-61795963D01*
X131553113Y-61798262D01*
X131552751Y-61798412D01*
X131548077Y-61799830D01*
X131547692Y-61799906D01*
X131539594Y-61800704D01*
X131515842Y-61805429D01*
X131493568Y-61814656D01*
X131473521Y-61828051D01*
X131456475Y-61845099D01*
X131443080Y-61865146D01*
X131433855Y-61887420D01*
X131429131Y-61911167D01*
X131428333Y-61919265D01*
X131428257Y-61919650D01*
X131426839Y-61924324D01*
X131426689Y-61924686D01*
X131424390Y-61928988D01*
X131424172Y-61929314D01*
X131417164Y-61937853D01*
X131417032Y-61937998D01*
X131377177Y-61977853D01*
X131375245Y-61978371D01*
X131373831Y-61976957D01*
X131374217Y-61975170D01*
X131385036Y-61961988D01*
X131392982Y-61947121D01*
X131397877Y-61930987D01*
X131399529Y-61914214D01*
X131397877Y-61897441D01*
X131392982Y-61881307D01*
X131385036Y-61866440D01*
X131374277Y-61853331D01*
X130808028Y-61287082D01*
X130794919Y-61276323D01*
X130780052Y-61268377D01*
X130763918Y-61263482D01*
X130747145Y-61261830D01*
X130730372Y-61263482D01*
X130714238Y-61268377D01*
X130699371Y-61276323D01*
X130686262Y-61287082D01*
X130561955Y-61411389D01*
X130551196Y-61424498D01*
X130543250Y-61439365D01*
X130538355Y-61455499D01*
X130536703Y-61472272D01*
X130538355Y-61489045D01*
X130543250Y-61505179D01*
X130551196Y-61520046D01*
X130561955Y-61533155D01*
X131128204Y-62099404D01*
X131141313Y-62110163D01*
X131156180Y-62118109D01*
X131172314Y-62123004D01*
X131189087Y-62124656D01*
X131205860Y-62123004D01*
X131221994Y-62118109D01*
X131236861Y-62110163D01*
X131250043Y-62099344D01*
X131252016Y-62099018D01*
X131253285Y-62100564D01*
X131252726Y-62102304D01*
X131212871Y-62142159D01*
X131212726Y-62142291D01*
X131204187Y-62149299D01*
X131203861Y-62149517D01*
X131199559Y-62151816D01*
X131199197Y-62151966D01*
X131194523Y-62153384D01*
X131194138Y-62153460D01*
X131186041Y-62154258D01*
X131162288Y-62158983D01*
X131140015Y-62168210D01*
X131119968Y-62181606D01*
X131102921Y-62198653D01*
X131089527Y-62218701D01*
X131080301Y-62240975D01*
X131075578Y-62264721D01*
X131074780Y-62272818D01*
X131074704Y-62273203D01*
X131073286Y-62277877D01*
X131073136Y-62278239D01*
X131070837Y-62282541D01*
X131070619Y-62282867D01*
X131063611Y-62291406D01*
X131063479Y-62291551D01*
X131023624Y-62331406D01*
X131021692Y-62331924D01*
X131020278Y-62330510D01*
X131020664Y-62328723D01*
X131031483Y-62315541D01*
X131039429Y-62300674D01*
X131044324Y-62284540D01*
X131045976Y-62267767D01*
X131044324Y-62250994D01*
X131039429Y-62234860D01*
X131031483Y-62219993D01*
X131020724Y-62206884D01*
X130454475Y-61640635D01*
X130441366Y-61629876D01*
X130426499Y-61621930D01*
X130410365Y-61617035D01*
X130393592Y-61615383D01*
X130376819Y-61617035D01*
X130360685Y-61621930D01*
X130345818Y-61629876D01*
X130332709Y-61640635D01*
X130208402Y-61764942D01*
X130197643Y-61778051D01*
X130189697Y-61792918D01*
X130184802Y-61809052D01*
X130183150Y-61825825D01*
X130184802Y-61842598D01*
X130189697Y-61858732D01*
X130197643Y-61873599D01*
X130208402Y-61886708D01*
X130774651Y-62452957D01*
X130787760Y-62463716D01*
X130802627Y-62471662D01*
X130818761Y-62476557D01*
X130835534Y-62478209D01*
X130852307Y-62476557D01*
X130868441Y-62471662D01*
X130883308Y-62463716D01*
X130896490Y-62452897D01*
X130898463Y-62452571D01*
X130899732Y-62454117D01*
X130899173Y-62455857D01*
X130859318Y-62495712D01*
X130859173Y-62495844D01*
X130850634Y-62502852D01*
X130850308Y-62503070D01*
X130846006Y-62505369D01*
X130845644Y-62505519D01*
X130840970Y-62506937D01*
X130840585Y-62507013D01*
X130832488Y-62507811D01*
X130808735Y-62512536D01*
X130786462Y-62521763D01*
X130766415Y-62535159D01*
X130749368Y-62552206D01*
X130735974Y-62572254D01*
X130726748Y-62594528D01*
X130722025Y-62618274D01*
X130721227Y-62626371D01*
X130721151Y-62626756D01*
X130719733Y-62631430D01*
X130719583Y-62631792D01*
X130717284Y-62636094D01*
X130717066Y-62636420D01*
X130710058Y-62644959D01*
X130709926Y-62645104D01*
X130670071Y-62684959D01*
X130668139Y-62685477D01*
X130666725Y-62684063D01*
X130667111Y-62682276D01*
X130677930Y-62669094D01*
X130685876Y-62654227D01*
X130690771Y-62638093D01*
X130692423Y-62621320D01*
X130690771Y-62604547D01*
X130685876Y-62588413D01*
X130677930Y-62573546D01*
X130667171Y-62560437D01*
X130100922Y-61994188D01*
X130087813Y-61983429D01*
X130072946Y-61975483D01*
X130056812Y-61970588D01*
X130040039Y-61968936D01*
X130023266Y-61970588D01*
X130007132Y-61975483D01*
X129992265Y-61983429D01*
X129979156Y-61994188D01*
X129854849Y-62118495D01*
X129844090Y-62131604D01*
X129836144Y-62146471D01*
X129831249Y-62162605D01*
X129829597Y-62179378D01*
X129831249Y-62196151D01*
X129836144Y-62212285D01*
X129844090Y-62227152D01*
X129854849Y-62240261D01*
X130421098Y-62806510D01*
X130434207Y-62817269D01*
X130449074Y-62825215D01*
X130465208Y-62830110D01*
X130481981Y-62831762D01*
X130498754Y-62830110D01*
X130514888Y-62825215D01*
X130529755Y-62817269D01*
X130542937Y-62806450D01*
X130544910Y-62806124D01*
X130546179Y-62807670D01*
X130545620Y-62809410D01*
X130505765Y-62849265D01*
X130505620Y-62849397D01*
X130497081Y-62856405D01*
X130496755Y-62856623D01*
X130492453Y-62858922D01*
X130492091Y-62859072D01*
X130487417Y-62860490D01*
X130487032Y-62860566D01*
X130478934Y-62861364D01*
X130455182Y-62866089D01*
X130432908Y-62875316D01*
X130412861Y-62888711D01*
X130395815Y-62905759D01*
X130382420Y-62925806D01*
X130373195Y-62948080D01*
X130368471Y-62971827D01*
X130367673Y-62979925D01*
X130367597Y-62980310D01*
X130366179Y-62984984D01*
X130366029Y-62985346D01*
X130363730Y-62989648D01*
X130363512Y-62989974D01*
X130356504Y-62998513D01*
X130356372Y-62998658D01*
X130316517Y-63038513D01*
X130314585Y-63039031D01*
X130313171Y-63037617D01*
X130313557Y-63035830D01*
X130324376Y-63022648D01*
X130332322Y-63007781D01*
X130337217Y-62991647D01*
X130338869Y-62974874D01*
X130337217Y-62958101D01*
X130332322Y-62941967D01*
X130324376Y-62927100D01*
X130313617Y-62913991D01*
X129747368Y-62347742D01*
X129734259Y-62336983D01*
X129719392Y-62329037D01*
X129703258Y-62324142D01*
X129686485Y-62322490D01*
X129669712Y-62324142D01*
X129653578Y-62329037D01*
X129638711Y-62336983D01*
X129625602Y-62347742D01*
X129501295Y-62472049D01*
X129490536Y-62485158D01*
X129482590Y-62500025D01*
X129477695Y-62516159D01*
X129476043Y-62532932D01*
X129477695Y-62549705D01*
X129482590Y-62565839D01*
X129490536Y-62580706D01*
X129501295Y-62593815D01*
X130067544Y-63160064D01*
X130080653Y-63170823D01*
X130095520Y-63178769D01*
X130111654Y-63183664D01*
X130128427Y-63185316D01*
X130145200Y-63183664D01*
X130161334Y-63178769D01*
X130176201Y-63170823D01*
X130189383Y-63160004D01*
X130191356Y-63159678D01*
X130192625Y-63161224D01*
X130192066Y-63162964D01*
X130152211Y-63202819D01*
X130152066Y-63202951D01*
X130143527Y-63209959D01*
X130143201Y-63210177D01*
X130138899Y-63212476D01*
X130138537Y-63212626D01*
X130133863Y-63214044D01*
X130133478Y-63214120D01*
X130125381Y-63214918D01*
X130101628Y-63219643D01*
X130079355Y-63228870D01*
X130059308Y-63242266D01*
X130042261Y-63259313D01*
X130028867Y-63279361D01*
X130019641Y-63301635D01*
X130014918Y-63325381D01*
X130014120Y-63333478D01*
X130014044Y-63333863D01*
X130012626Y-63338537D01*
X130012476Y-63338899D01*
X130010177Y-63343201D01*
X130009959Y-63343527D01*
X130002951Y-63352066D01*
X130002819Y-63352211D01*
X129962964Y-63392066D01*
X129961032Y-63392584D01*
X129959618Y-63391170D01*
X129960004Y-63389383D01*
X129970823Y-63376201D01*
X129978769Y-63361334D01*
X129983664Y-63345200D01*
X129985316Y-63328427D01*
X129983664Y-63311654D01*
X129978769Y-63295520D01*
X129970823Y-63280653D01*
X129960064Y-63267544D01*
X129393815Y-62701295D01*
X129380706Y-62690536D01*
X129365839Y-62682590D01*
X129349705Y-62677695D01*
X129332932Y-62676043D01*
X129316159Y-62677695D01*
X129300025Y-62682590D01*
X129285158Y-62690536D01*
X129272049Y-62701295D01*
X129147742Y-62825602D01*
X129136983Y-62838711D01*
X129129037Y-62853578D01*
X129124142Y-62869712D01*
X129122490Y-62886485D01*
X129124142Y-62903258D01*
X129129037Y-62919392D01*
X129136983Y-62934259D01*
X129147742Y-62947368D01*
X129713991Y-63513617D01*
X129727100Y-63524376D01*
X129741967Y-63532322D01*
X129758101Y-63537217D01*
X129774874Y-63538869D01*
X129791647Y-63537217D01*
X129807781Y-63532322D01*
X129822648Y-63524376D01*
X129835830Y-63513557D01*
X129837803Y-63513231D01*
X129839072Y-63514777D01*
X129838513Y-63516517D01*
X129798658Y-63556372D01*
X129798513Y-63556504D01*
X129789974Y-63563512D01*
X129789648Y-63563730D01*
X129785346Y-63566029D01*
X129784984Y-63566179D01*
X129780310Y-63567597D01*
X129779925Y-63567673D01*
X129771827Y-63568471D01*
X129748075Y-63573196D01*
X129725801Y-63582423D01*
X129705754Y-63595818D01*
X129688708Y-63612866D01*
X129675313Y-63632913D01*
X129666088Y-63655187D01*
X129661364Y-63678934D01*
X129660566Y-63687032D01*
X129660490Y-63687417D01*
X129659072Y-63692091D01*
X129658922Y-63692453D01*
X129656623Y-63696755D01*
X129656405Y-63697081D01*
X129649397Y-63705620D01*
X129649265Y-63705765D01*
X129609410Y-63745620D01*
X129607478Y-63746138D01*
X129606064Y-63744724D01*
X129606450Y-63742937D01*
X129617269Y-63729755D01*
X129625215Y-63714888D01*
X129630110Y-63698754D01*
X129631762Y-63681981D01*
X129630110Y-63665208D01*
X129625215Y-63649074D01*
X129617269Y-63634207D01*
X129606510Y-63621098D01*
X129040261Y-63054849D01*
X129027152Y-63044090D01*
X129012285Y-63036144D01*
X128996151Y-63031249D01*
X128979378Y-63029597D01*
X128962605Y-63031249D01*
X128946471Y-63036144D01*
X128931604Y-63044090D01*
X128918495Y-63054849D01*
X128794188Y-63179156D01*
X128783429Y-63192265D01*
X128775483Y-63207132D01*
X128770588Y-63223266D01*
X128768936Y-63240039D01*
X128770588Y-63256812D01*
X128775483Y-63272946D01*
X128783429Y-63287813D01*
X128794188Y-63300922D01*
X129360437Y-63867171D01*
X129373546Y-63877930D01*
X129388413Y-63885876D01*
X129404547Y-63890771D01*
X129421320Y-63892423D01*
X129438093Y-63890771D01*
X129454227Y-63885876D01*
X129469094Y-63877930D01*
X129482276Y-63867111D01*
X129484249Y-63866785D01*
X129485518Y-63868331D01*
X129484959Y-63870071D01*
X129445104Y-63909926D01*
X129444959Y-63910058D01*
X129436420Y-63917066D01*
X129436094Y-63917284D01*
X129431792Y-63919583D01*
X129431430Y-63919733D01*
X129426756Y-63921151D01*
X129426371Y-63921227D01*
X129418274Y-63922025D01*
X129394521Y-63926750D01*
X129372248Y-63935977D01*
X129352201Y-63949373D01*
X129335154Y-63966420D01*
X129321760Y-63986468D01*
X129312534Y-64008742D01*
X129307811Y-64032488D01*
X129307013Y-64040585D01*
X129306937Y-64040970D01*
X129305519Y-64045644D01*
X129305369Y-64046006D01*
X129303070Y-64050308D01*
X129302852Y-64050634D01*
X129295844Y-64059173D01*
X129295712Y-64059318D01*
X129255857Y-64099173D01*
X129253925Y-64099691D01*
X129252511Y-64098277D01*
X129252897Y-64096490D01*
X129263716Y-64083308D01*
X129271662Y-64068441D01*
X129276557Y-64052307D01*
X129278209Y-64035534D01*
X129276557Y-64018761D01*
X129271662Y-64002627D01*
X129263716Y-63987760D01*
X129252957Y-63974651D01*
X128686708Y-63408402D01*
X128673599Y-63397643D01*
X128658732Y-63389697D01*
X128642598Y-63384802D01*
X128625825Y-63383150D01*
X128609052Y-63384802D01*
X128592918Y-63389697D01*
X128578051Y-63397643D01*
X128564942Y-63408402D01*
X128440635Y-63532709D01*
X128429876Y-63545818D01*
X128421930Y-63560685D01*
X128417035Y-63576819D01*
X128415383Y-63593592D01*
X128417035Y-63610365D01*
X128421930Y-63626499D01*
X128429876Y-63641366D01*
X128440635Y-63654475D01*
X129006884Y-64220724D01*
X129019993Y-64231483D01*
X129034860Y-64239429D01*
X129050994Y-64244324D01*
X129067767Y-64245976D01*
X129084540Y-64244324D01*
X129100674Y-64239429D01*
X129115541Y-64231483D01*
X129128723Y-64220664D01*
X129130696Y-64220338D01*
X129131965Y-64221884D01*
X129131406Y-64223624D01*
X129091551Y-64263479D01*
X129091406Y-64263611D01*
X129082867Y-64270619D01*
X129082541Y-64270837D01*
X129078239Y-64273136D01*
X129077877Y-64273286D01*
X129073203Y-64274704D01*
X129072818Y-64274780D01*
X129064721Y-64275578D01*
X129040968Y-64280303D01*
X129018695Y-64289530D01*
X128998648Y-64302926D01*
X128981601Y-64319973D01*
X128968207Y-64340021D01*
X128958981Y-64362295D01*
X128954258Y-64386041D01*
X128953460Y-64394138D01*
X128953384Y-64394523D01*
X128951966Y-64399197D01*
X128951816Y-64399559D01*
X128949517Y-64403861D01*
X128949299Y-64404187D01*
X128942291Y-64412726D01*
X128942159Y-64412871D01*
X128902304Y-64452726D01*
X128900372Y-64453244D01*
X128898958Y-64451830D01*
X128899344Y-64450043D01*
X128910163Y-64436861D01*
X128918109Y-64421994D01*
X128923004Y-64405860D01*
X128924656Y-64389087D01*
X128923004Y-64372314D01*
X128918109Y-64356180D01*
X128910163Y-64341313D01*
X128899404Y-64328204D01*
X128333155Y-63761955D01*
X128320046Y-63751196D01*
X128305179Y-63743250D01*
X128289045Y-63738355D01*
X128272272Y-63736703D01*
X128255499Y-63738355D01*
X128239365Y-63743250D01*
X128224498Y-63751196D01*
X128211389Y-63761955D01*
X128087082Y-63886262D01*
X128076323Y-63899371D01*
X128068377Y-63914238D01*
X128063482Y-63930372D01*
X128061830Y-63947145D01*
X128063482Y-63963918D01*
X128068377Y-63980052D01*
X128076323Y-63994919D01*
X128087082Y-64008028D01*
X128653331Y-64574277D01*
X128666440Y-64585036D01*
X128681307Y-64592982D01*
X128697441Y-64597877D01*
X128714214Y-64599529D01*
X128730987Y-64597877D01*
X128747121Y-64592982D01*
X128761988Y-64585036D01*
X128775170Y-64574217D01*
X128777143Y-64573891D01*
X128778412Y-64575437D01*
X128777853Y-64577177D01*
X128737998Y-64617032D01*
X128737853Y-64617164D01*
X128729314Y-64624172D01*
X128728988Y-64624390D01*
X128724686Y-64626689D01*
X128724324Y-64626839D01*
X128719650Y-64628257D01*
X128719265Y-64628333D01*
X128711167Y-64629131D01*
X128687415Y-64633856D01*
X128665141Y-64643083D01*
X128645094Y-64656478D01*
X128628048Y-64673526D01*
X128614653Y-64693573D01*
X128605428Y-64715847D01*
X128600704Y-64739594D01*
X128599906Y-64747692D01*
X128599830Y-64748077D01*
X128598412Y-64752751D01*
X128598262Y-64753113D01*
X128595963Y-64757415D01*
X128595745Y-64757741D01*
X128588737Y-64766280D01*
X128588605Y-64766425D01*
X128548750Y-64806280D01*
X128546818Y-64806798D01*
X128545404Y-64805384D01*
X128545790Y-64803597D01*
X128556609Y-64790415D01*
X128564555Y-64775548D01*
X128569450Y-64759414D01*
X128571102Y-64742641D01*
X128569450Y-64725868D01*
X128564555Y-64709734D01*
X128556609Y-64694867D01*
X128545850Y-64681758D01*
X127979601Y-64115509D01*
X127966492Y-64104750D01*
X127951625Y-64096804D01*
X127935491Y-64091909D01*
X127918718Y-64090257D01*
X127901945Y-64091909D01*
X127885811Y-64096804D01*
X127870944Y-64104750D01*
X127857835Y-64115509D01*
X127733528Y-64239816D01*
X127722769Y-64252925D01*
X127714823Y-64267792D01*
X127709928Y-64283926D01*
X127708276Y-64300699D01*
X127709928Y-64317472D01*
X127714823Y-64333606D01*
X127722769Y-64348473D01*
X127733528Y-64361582D01*
X128299777Y-64927831D01*
X128312886Y-64938590D01*
X128327753Y-64946536D01*
X128343887Y-64951431D01*
X128360660Y-64953083D01*
X128377433Y-64951431D01*
X128393567Y-64946536D01*
X128408434Y-64938590D01*
X128421616Y-64927771D01*
X128423589Y-64927445D01*
X128424858Y-64928991D01*
X128424299Y-64930731D01*
X128384444Y-64970586D01*
X128384299Y-64970718D01*
X128375760Y-64977726D01*
X128375434Y-64977944D01*
X128371132Y-64980243D01*
X128370770Y-64980393D01*
X128366096Y-64981811D01*
X128365711Y-64981887D01*
X128357614Y-64982685D01*
X128333861Y-64987410D01*
X128311588Y-64996637D01*
X128291541Y-65010033D01*
X128274494Y-65027080D01*
X128261100Y-65047128D01*
X128251874Y-65069402D01*
X128247151Y-65093148D01*
X128246353Y-65101245D01*
X128246277Y-65101630D01*
X128244859Y-65106304D01*
X128244709Y-65106666D01*
X128242410Y-65110968D01*
X128242192Y-65111294D01*
X128235184Y-65119833D01*
X128235052Y-65119978D01*
X128195197Y-65159833D01*
X128193265Y-65160351D01*
X128191851Y-65158937D01*
X128192237Y-65157150D01*
X128203056Y-65143968D01*
X128211002Y-65129101D01*
X128215897Y-65112967D01*
X128217549Y-65096194D01*
X128215897Y-65079421D01*
X128211002Y-65063287D01*
X128203056Y-65048420D01*
X128192297Y-65035311D01*
X127626048Y-64469062D01*
X127612939Y-64458303D01*
X127598072Y-64450357D01*
X127581938Y-64445462D01*
X127565165Y-64443810D01*
X127548392Y-64445462D01*
X127532258Y-64450357D01*
X127517391Y-64458303D01*
X127504282Y-64469062D01*
X127379975Y-64593369D01*
X127369216Y-64606478D01*
X127361270Y-64621345D01*
X127356375Y-64637479D01*
X127354723Y-64654252D01*
X127356375Y-64671025D01*
X127361270Y-64687159D01*
X127369216Y-64702026D01*
X127379975Y-64715135D01*
X127389802Y-64724962D01*
X127390320Y-64726894D01*
X127388906Y-64728308D01*
X127387119Y-64727922D01*
X127368330Y-64712502D01*
X127347066Y-64701137D01*
X127323991Y-64694137D01*
X127300000Y-64691774D01*
X127276009Y-64694137D01*
X127252934Y-64701137D01*
X127231670Y-64712502D01*
X127212881Y-64727922D01*
X127210907Y-64728248D01*
X127209639Y-64726702D01*
X127210198Y-64724962D01*
X127220025Y-64715135D01*
X127230784Y-64702026D01*
X127238730Y-64687159D01*
X127243625Y-64671025D01*
X127245277Y-64654252D01*
X127243625Y-64637479D01*
X127238730Y-64621345D01*
X127230784Y-64606478D01*
X127220025Y-64593369D01*
X127095718Y-64469062D01*
X127082609Y-64458303D01*
X127067742Y-64450357D01*
X127051608Y-64445462D01*
X127034835Y-64443810D01*
X127018062Y-64445462D01*
X127001928Y-64450357D01*
X126987061Y-64458303D01*
X126973952Y-64469062D01*
X126407703Y-65035311D01*
X126396944Y-65048420D01*
X126388998Y-65063287D01*
X126384103Y-65079421D01*
X126382451Y-65096194D01*
X126384103Y-65112967D01*
X126388998Y-65129101D01*
X126396944Y-65143968D01*
X126407763Y-65157150D01*
X126408089Y-65159123D01*
X126406543Y-65160392D01*
X126404803Y-65159833D01*
X126364948Y-65119978D01*
X126364816Y-65119833D01*
X126357808Y-65111294D01*
X126357590Y-65110968D01*
X126355291Y-65106666D01*
X126355141Y-65106304D01*
X126353723Y-65101630D01*
X126353647Y-65101245D01*
X126352849Y-65093148D01*
X126348124Y-65069395D01*
X126338897Y-65047122D01*
X126325501Y-65027075D01*
X126308454Y-65010028D01*
X126288406Y-64996634D01*
X126266132Y-64987408D01*
X126242386Y-64982685D01*
X126234289Y-64981887D01*
X126233904Y-64981811D01*
X126229230Y-64980393D01*
X126228868Y-64980243D01*
X126224566Y-64977944D01*
X126224240Y-64977726D01*
X126215701Y-64970718D01*
X126215556Y-64970586D01*
X126175701Y-64930731D01*
X126175183Y-64928799D01*
X126176597Y-64927385D01*
X126178384Y-64927771D01*
X126191566Y-64938590D01*
X126206433Y-64946536D01*
X126222567Y-64951431D01*
X126239340Y-64953083D01*
X126256113Y-64951431D01*
X126272247Y-64946536D01*
X126287114Y-64938590D01*
X126300223Y-64927831D01*
X126866472Y-64361582D01*
X126877231Y-64348473D01*
X126885177Y-64333606D01*
X126890072Y-64317472D01*
X126891724Y-64300699D01*
X126890072Y-64283926D01*
X126885177Y-64267792D01*
X126877231Y-64252925D01*
X126866472Y-64239816D01*
X126742165Y-64115509D01*
X126729056Y-64104750D01*
X126714189Y-64096804D01*
X126698055Y-64091909D01*
X126681282Y-64090257D01*
X126664509Y-64091909D01*
X126648375Y-64096804D01*
X126633508Y-64104750D01*
X126620399Y-64115509D01*
X126054150Y-64681758D01*
X126043391Y-64694867D01*
X126035445Y-64709734D01*
X126030550Y-64725868D01*
X126028898Y-64742641D01*
X126030550Y-64759414D01*
X126035445Y-64775548D01*
X126043391Y-64790415D01*
X126054210Y-64803597D01*
X126054536Y-64805570D01*
X126052990Y-64806839D01*
X126051250Y-64806280D01*
X126011395Y-64766425D01*
X126011263Y-64766280D01*
X126004255Y-64757741D01*
X126004037Y-64757415D01*
X126001738Y-64753113D01*
X126001588Y-64752751D01*
X126000170Y-64748077D01*
X126000094Y-64747692D01*
X125999296Y-64739594D01*
X125994571Y-64715842D01*
X125985344Y-64693568D01*
X125971949Y-64673521D01*
X125954901Y-64656475D01*
X125934854Y-64643080D01*
X125912580Y-64633855D01*
X125888833Y-64629131D01*
X125880735Y-64628333D01*
X125880350Y-64628257D01*
X125875676Y-64626839D01*
X125875314Y-64626689D01*
X125871012Y-64624390D01*
X125870686Y-64624172D01*
X125862147Y-64617164D01*
X125862002Y-64617032D01*
X125822147Y-64577177D01*
X125821629Y-64575245D01*
X125823043Y-64573831D01*
X125824830Y-64574217D01*
X125838012Y-64585036D01*
X125852879Y-64592982D01*
X125869013Y-64597877D01*
X125885786Y-64599529D01*
X125902559Y-64597877D01*
X125918693Y-64592982D01*
X125933560Y-64585036D01*
X125946669Y-64574277D01*
X126512918Y-64008028D01*
X126523677Y-63994919D01*
X126531623Y-63980052D01*
X126536518Y-63963918D01*
X126538170Y-63947145D01*
X126536518Y-63930372D01*
X126531623Y-63914238D01*
X126523677Y-63899371D01*
X126512918Y-63886262D01*
X126388611Y-63761955D01*
X126375502Y-63751196D01*
X126360635Y-63743250D01*
X126344501Y-63738355D01*
X126327728Y-63736703D01*
X126310955Y-63738355D01*
X126294821Y-63743250D01*
X126279954Y-63751196D01*
X126266845Y-63761955D01*
X125700596Y-64328204D01*
X125689837Y-64341313D01*
X125681891Y-64356180D01*
X125676996Y-64372314D01*
X125675344Y-64389087D01*
X125676996Y-64405860D01*
X125681891Y-64421994D01*
X125689837Y-64436861D01*
X125700656Y-64450043D01*
X125700982Y-64452016D01*
X125699436Y-64453285D01*
X125697696Y-64452726D01*
X125657841Y-64412871D01*
X125657709Y-64412726D01*
X125650701Y-64404187D01*
X125650483Y-64403861D01*
X125648184Y-64399559D01*
X125648034Y-64399197D01*
X125646616Y-64394523D01*
X125646540Y-64394138D01*
X125645742Y-64386041D01*
X125641017Y-64362288D01*
X125631790Y-64340015D01*
X125618394Y-64319968D01*
X125601347Y-64302921D01*
X125581299Y-64289527D01*
X125559025Y-64280301D01*
X125535279Y-64275578D01*
X125527182Y-64274780D01*
X125526797Y-64274704D01*
X125522123Y-64273286D01*
X125521761Y-64273136D01*
X125517459Y-64270837D01*
X125517133Y-64270619D01*
X125508594Y-64263611D01*
X125508449Y-64263479D01*
X125468594Y-64223624D01*
X125468076Y-64221692D01*
X125469490Y-64220278D01*
X125471277Y-64220664D01*
X125484459Y-64231483D01*
X125499326Y-64239429D01*
X125515460Y-64244324D01*
X125532233Y-64245976D01*
X125549006Y-64244324D01*
X125565140Y-64239429D01*
X125580007Y-64231483D01*
X125593116Y-64220724D01*
X126159365Y-63654475D01*
X126170124Y-63641366D01*
X126178070Y-63626499D01*
X126182965Y-63610365D01*
X126184617Y-63593592D01*
X126182965Y-63576819D01*
X126178070Y-63560685D01*
X126170124Y-63545818D01*
X126159365Y-63532709D01*
X126035058Y-63408402D01*
X126021949Y-63397643D01*
X126007082Y-63389697D01*
X125990948Y-63384802D01*
X125974175Y-63383150D01*
X125957402Y-63384802D01*
X125941268Y-63389697D01*
X125926401Y-63397643D01*
X125913292Y-63408402D01*
X125347043Y-63974651D01*
X125336284Y-63987760D01*
X125328338Y-64002627D01*
X125323443Y-64018761D01*
X125321791Y-64035534D01*
X125323443Y-64052307D01*
X125328338Y-64068441D01*
X125336284Y-64083308D01*
X125347103Y-64096490D01*
X125347429Y-64098463D01*
X125345883Y-64099732D01*
X125344143Y-64099173D01*
X125304288Y-64059318D01*
X125304156Y-64059173D01*
X125297148Y-64050634D01*
X125296930Y-64050308D01*
X125294631Y-64046006D01*
X125294481Y-64045644D01*
X125293063Y-64040970D01*
X125292987Y-64040585D01*
X125292189Y-64032488D01*
X125287464Y-64008735D01*
X125278237Y-63986462D01*
X125264841Y-63966415D01*
X125247794Y-63949368D01*
X125227746Y-63935974D01*
X125205472Y-63926748D01*
X125181726Y-63922025D01*
X125173629Y-63921227D01*
X125173244Y-63921151D01*
X125168570Y-63919733D01*
X125168208Y-63919583D01*
X125163906Y-63917284D01*
X125163580Y-63917066D01*
X125155041Y-63910058D01*
X125154896Y-63909926D01*
X125115041Y-63870071D01*
X125114523Y-63868139D01*
X125115937Y-63866725D01*
X125117724Y-63867111D01*
X125130906Y-63877930D01*
X125145773Y-63885876D01*
X125161907Y-63890771D01*
X125178680Y-63892423D01*
X125195453Y-63890771D01*
X125211587Y-63885876D01*
X125226454Y-63877930D01*
X125239563Y-63867171D01*
X125805812Y-63300922D01*
X125816571Y-63287813D01*
X125824517Y-63272946D01*
X125829412Y-63256812D01*
X125831064Y-63240039D01*
X125829412Y-63223266D01*
X125824517Y-63207132D01*
X125816571Y-63192265D01*
X125805812Y-63179156D01*
X125681505Y-63054849D01*
X125668396Y-63044090D01*
X125653529Y-63036144D01*
X125637395Y-63031249D01*
X125620622Y-63029597D01*
X125603849Y-63031249D01*
X125587715Y-63036144D01*
X125572848Y-63044090D01*
X125559739Y-63054849D01*
X124993490Y-63621098D01*
X124982731Y-63634207D01*
X124974785Y-63649074D01*
X124969890Y-63665208D01*
X124968238Y-63681981D01*
X124969890Y-63698754D01*
X124974785Y-63714888D01*
X124982731Y-63729755D01*
X124993550Y-63742937D01*
X124993876Y-63744910D01*
X124992330Y-63746179D01*
X124990590Y-63745620D01*
X124950735Y-63705765D01*
X124950603Y-63705620D01*
X124943595Y-63697081D01*
X124943377Y-63696755D01*
X124941078Y-63692453D01*
X124940928Y-63692091D01*
X124939510Y-63687417D01*
X124939434Y-63687032D01*
X124938636Y-63678934D01*
X124933911Y-63655182D01*
X124924684Y-63632908D01*
X124911289Y-63612861D01*
X124894241Y-63595815D01*
X124874194Y-63582420D01*
X124851920Y-63573195D01*
X124828173Y-63568471D01*
X124820075Y-63567673D01*
X124819690Y-63567597D01*
X124815016Y-63566179D01*
X124814654Y-63566029D01*
X124810352Y-63563730D01*
X124810026Y-63563512D01*
X124801487Y-63556504D01*
X124801342Y-63556372D01*
X124761487Y-63516517D01*
X124760969Y-63514585D01*
X124762383Y-63513171D01*
X124764170Y-63513557D01*
X124777352Y-63524376D01*
X124792219Y-63532322D01*
X124808353Y-63537217D01*
X124825126Y-63538869D01*
X124841899Y-63537217D01*
X124858033Y-63532322D01*
X124872900Y-63524376D01*
X124886009Y-63513617D01*
X125452258Y-62947368D01*
X125463017Y-62934259D01*
X125470963Y-62919392D01*
X125475858Y-62903258D01*
X125477510Y-62886485D01*
X125475858Y-62869712D01*
X125470963Y-62853578D01*
X125463017Y-62838711D01*
X125452258Y-62825602D01*
X125327951Y-62701295D01*
X125314842Y-62690536D01*
X125299975Y-62682590D01*
X125283841Y-62677695D01*
X125267068Y-62676043D01*
X125250295Y-62677695D01*
X125234161Y-62682590D01*
X125219294Y-62690536D01*
X125206185Y-62701295D01*
X124639936Y-63267544D01*
X124629177Y-63280653D01*
X124621231Y-63295520D01*
X124616336Y-63311654D01*
X124614684Y-63328427D01*
X124616336Y-63345200D01*
X124621231Y-63361334D01*
X124629177Y-63376201D01*
X124639996Y-63389383D01*
X124640322Y-63391356D01*
X124638776Y-63392625D01*
X124637036Y-63392066D01*
X124597181Y-63352211D01*
X124597049Y-63352066D01*
X124590041Y-63343527D01*
X124589823Y-63343201D01*
X124587524Y-63338899D01*
X124587374Y-63338537D01*
X124585956Y-63333863D01*
X124585880Y-63333478D01*
X124585082Y-63325381D01*
X124580357Y-63301628D01*
X124571130Y-63279355D01*
X124557734Y-63259308D01*
X124540687Y-63242261D01*
X124520639Y-63228867D01*
X124498365Y-63219641D01*
X124474619Y-63214918D01*
X124466522Y-63214120D01*
X124466137Y-63214044D01*
X124461463Y-63212626D01*
X124461101Y-63212476D01*
X124456799Y-63210177D01*
X124456473Y-63209959D01*
X124447934Y-63202951D01*
X124447789Y-63202819D01*
X124407934Y-63162964D01*
X124407416Y-63161032D01*
X124408830Y-63159618D01*
X124410617Y-63160004D01*
X124423799Y-63170823D01*
X124438666Y-63178769D01*
X124454800Y-63183664D01*
X124471573Y-63185316D01*
X124488346Y-63183664D01*
X124504480Y-63178769D01*
X124519347Y-63170823D01*
X124532456Y-63160064D01*
X125098705Y-62593815D01*
X125109464Y-62580706D01*
X125117410Y-62565839D01*
X125122305Y-62549705D01*
X125123957Y-62532932D01*
X125122305Y-62516159D01*
X125117410Y-62500025D01*
X125109464Y-62485158D01*
X125098705Y-62472049D01*
X124974398Y-62347742D01*
X124961289Y-62336983D01*
X124946422Y-62329037D01*
X124930288Y-62324142D01*
X124913515Y-62322490D01*
X124896742Y-62324142D01*
X124880608Y-62329037D01*
X124865741Y-62336983D01*
X124852632Y-62347742D01*
X124286383Y-62913991D01*
X124275624Y-62927100D01*
X124267678Y-62941967D01*
X124262783Y-62958101D01*
X124261131Y-62974874D01*
X124262783Y-62991647D01*
X124267678Y-63007781D01*
X124275624Y-63022648D01*
X124286443Y-63035830D01*
X124286769Y-63037803D01*
X124285223Y-63039072D01*
X124283483Y-63038513D01*
X124243628Y-62998658D01*
X124243496Y-62998513D01*
X124236488Y-62989974D01*
X124236270Y-62989648D01*
X124233971Y-62985346D01*
X124233821Y-62984984D01*
X124232403Y-62980310D01*
X124232327Y-62979925D01*
X124231529Y-62971827D01*
X124226804Y-62948075D01*
X124217577Y-62925801D01*
X124204182Y-62905754D01*
X124187134Y-62888708D01*
X124167087Y-62875313D01*
X124144813Y-62866088D01*
X124121066Y-62861364D01*
X124112968Y-62860566D01*
X124112583Y-62860490D01*
X124107909Y-62859072D01*
X124107547Y-62858922D01*
X124103245Y-62856623D01*
X124102919Y-62856405D01*
X124094380Y-62849397D01*
X124094235Y-62849265D01*
X124054380Y-62809410D01*
X124053862Y-62807478D01*
X124055276Y-62806064D01*
X124057063Y-62806450D01*
X124070245Y-62817269D01*
X124085112Y-62825215D01*
X124101246Y-62830110D01*
X124118019Y-62831762D01*
X124134792Y-62830110D01*
X124150926Y-62825215D01*
X124165793Y-62817269D01*
X124178902Y-62806510D01*
X124745151Y-62240261D01*
X124755910Y-62227152D01*
X124763856Y-62212285D01*
X124768751Y-62196151D01*
X124770403Y-62179378D01*
X124768751Y-62162605D01*
X124763856Y-62146471D01*
X124755910Y-62131604D01*
X124745151Y-62118495D01*
X124620844Y-61994188D01*
X124607735Y-61983429D01*
X124592868Y-61975483D01*
X124576734Y-61970588D01*
X124559961Y-61968936D01*
X124543188Y-61970588D01*
X124527054Y-61975483D01*
X124512187Y-61983429D01*
X124499078Y-61994188D01*
X123932829Y-62560437D01*
X123922070Y-62573546D01*
X123914124Y-62588413D01*
X123909229Y-62604547D01*
X123907577Y-62621320D01*
X123909229Y-62638093D01*
X123914124Y-62654227D01*
X123922070Y-62669094D01*
X123932889Y-62682276D01*
X123933215Y-62684249D01*
X123931669Y-62685518D01*
X123929929Y-62684959D01*
X123890074Y-62645104D01*
X123889942Y-62644959D01*
X123882934Y-62636420D01*
X123882716Y-62636094D01*
X123880417Y-62631792D01*
X123880267Y-62631430D01*
X123878849Y-62626756D01*
X123878773Y-62626371D01*
X123877975Y-62618274D01*
X123873250Y-62594521D01*
X123864023Y-62572248D01*
X123850627Y-62552201D01*
X123833580Y-62535154D01*
X123813532Y-62521760D01*
X123791258Y-62512534D01*
X123767512Y-62507811D01*
X123759415Y-62507013D01*
X123759030Y-62506937D01*
X123754356Y-62505519D01*
X123753994Y-62505369D01*
X123749692Y-62503070D01*
X123749366Y-62502852D01*
X123740827Y-62495844D01*
X123740682Y-62495712D01*
X123700827Y-62455857D01*
X123700309Y-62453925D01*
X123701723Y-62452511D01*
X123703510Y-62452897D01*
X123716692Y-62463716D01*
X123731559Y-62471662D01*
X123747693Y-62476557D01*
X123764466Y-62478209D01*
X123781239Y-62476557D01*
X123797373Y-62471662D01*
X123812240Y-62463716D01*
X123825349Y-62452957D01*
X124391598Y-61886708D01*
X124402357Y-61873599D01*
X124410303Y-61858732D01*
X124415198Y-61842598D01*
X124416850Y-61825825D01*
X124415198Y-61809052D01*
X124410303Y-61792918D01*
X124402357Y-61778051D01*
X124391598Y-61764942D01*
X124267291Y-61640635D01*
X124254182Y-61629876D01*
X124239315Y-61621930D01*
X124223181Y-61617035D01*
X124206408Y-61615383D01*
X124189635Y-61617035D01*
X124173501Y-61621930D01*
X124158634Y-61629876D01*
X124145525Y-61640635D01*
X123579276Y-62206884D01*
X123568517Y-62219993D01*
X123560571Y-62234860D01*
X123555676Y-62250994D01*
X123554024Y-62267767D01*
X123555676Y-62284540D01*
X123560571Y-62300674D01*
X123568517Y-62315541D01*
X123579336Y-62328723D01*
X123579662Y-62330696D01*
X123578116Y-62331965D01*
X123576376Y-62331406D01*
X123536521Y-62291551D01*
X123536389Y-62291406D01*
X123529381Y-62282867D01*
X123529163Y-62282541D01*
X123526864Y-62278239D01*
X123526714Y-62277877D01*
X123525296Y-62273203D01*
X123525220Y-62272818D01*
X123524422Y-62264721D01*
X123519697Y-62240968D01*
X123510470Y-62218695D01*
X123497074Y-62198648D01*
X123480027Y-62181601D01*
X123459979Y-62168207D01*
X123437705Y-62158981D01*
X123413959Y-62154258D01*
X123405862Y-62153460D01*
X123405477Y-62153384D01*
X123400803Y-62151966D01*
X123400441Y-62151816D01*
X123396139Y-62149517D01*
X123395813Y-62149299D01*
X123387274Y-62142291D01*
X123387129Y-62142159D01*
X123347274Y-62102304D01*
X123346756Y-62100372D01*
X123348170Y-62098958D01*
X123349957Y-62099344D01*
X123363139Y-62110163D01*
X123378006Y-62118109D01*
X123394140Y-62123004D01*
X123410913Y-62124656D01*
X123427686Y-62123004D01*
X123443820Y-62118109D01*
X123458687Y-62110163D01*
X123471796Y-62099404D01*
X124038045Y-61533155D01*
X124048804Y-61520046D01*
X124056750Y-61505179D01*
X124061645Y-61489045D01*
X124063297Y-61472272D01*
X124061645Y-61455499D01*
X124056750Y-61439365D01*
X124048804Y-61424498D01*
X124038045Y-61411389D01*
X123913738Y-61287082D01*
X123900629Y-61276323D01*
X123885762Y-61268377D01*
X123869628Y-61263482D01*
X123852855Y-61261830D01*
X123836082Y-61263482D01*
X123819948Y-61268377D01*
X123805081Y-61276323D01*
X123791972Y-61287082D01*
X123225723Y-61853331D01*
X123214964Y-61866440D01*
X123207018Y-61881307D01*
X123202123Y-61897441D01*
X123200471Y-61914214D01*
X123202123Y-61930987D01*
X123207018Y-61947121D01*
X123214964Y-61961988D01*
X123225783Y-61975170D01*
X123226109Y-61977143D01*
X123224563Y-61978412D01*
X123222823Y-61977853D01*
X123182968Y-61937998D01*
X123182836Y-61937853D01*
X123175828Y-61929314D01*
X123175610Y-61928988D01*
X123173311Y-61924686D01*
X123173161Y-61924324D01*
X123171743Y-61919650D01*
X123171667Y-61919265D01*
X123170869Y-61911167D01*
X123166144Y-61887415D01*
X123156917Y-61865141D01*
X123143522Y-61845094D01*
X123126474Y-61828048D01*
X123106427Y-61814653D01*
X123084153Y-61805428D01*
X123060406Y-61800704D01*
X123052308Y-61799906D01*
X123051923Y-61799830D01*
X123047249Y-61798412D01*
X123046887Y-61798262D01*
X123042585Y-61795963D01*
X123042259Y-61795745D01*
X123033720Y-61788737D01*
X123033575Y-61788605D01*
X122993720Y-61748750D01*
X122993202Y-61746818D01*
X122994616Y-61745404D01*
X122996403Y-61745790D01*
X123009585Y-61756609D01*
X123024452Y-61764555D01*
X123040586Y-61769450D01*
X123057359Y-61771102D01*
X123074132Y-61769450D01*
X123090266Y-61764555D01*
X123105133Y-61756609D01*
X123118242Y-61745850D01*
X123684491Y-61179601D01*
X123695250Y-61166492D01*
X123703196Y-61151625D01*
X123708091Y-61135491D01*
X123709743Y-61118718D01*
X123708091Y-61101945D01*
X123703196Y-61085811D01*
X123695250Y-61070944D01*
X123684491Y-61057835D01*
X123560184Y-60933528D01*
X123547075Y-60922769D01*
X123532208Y-60914823D01*
X123516074Y-60909928D01*
X123499301Y-60908276D01*
X123482528Y-60909928D01*
X123466394Y-60914823D01*
X123451527Y-60922769D01*
X123438418Y-60933528D01*
X122872169Y-61499777D01*
X122861410Y-61512886D01*
X122853464Y-61527753D01*
X122848569Y-61543887D01*
X122846917Y-61560660D01*
X122848569Y-61577433D01*
X122853464Y-61593567D01*
X122861410Y-61608434D01*
X122872229Y-61621616D01*
X122872555Y-61623589D01*
X122871009Y-61624858D01*
X122869269Y-61624299D01*
X122829414Y-61584444D01*
X122829282Y-61584299D01*
X122822274Y-61575760D01*
X122822056Y-61575434D01*
X122819757Y-61571132D01*
X122819607Y-61570770D01*
X122818189Y-61566096D01*
X122818113Y-61565711D01*
X122817315Y-61557614D01*
X122812590Y-61533861D01*
X122803363Y-61511588D01*
X122789967Y-61491541D01*
X122772920Y-61474494D01*
X122752872Y-61461100D01*
X122730598Y-61451874D01*
X122706852Y-61447151D01*
X122698755Y-61446353D01*
X122698370Y-61446277D01*
X122693696Y-61444859D01*
X122693334Y-61444709D01*
X122689032Y-61442410D01*
X122688706Y-61442192D01*
X122680167Y-61435184D01*
X122680022Y-61435052D01*
X122640167Y-61395197D01*
X122639649Y-61393265D01*
X122641063Y-61391851D01*
X122642850Y-61392237D01*
X122656032Y-61403056D01*
X122670899Y-61411002D01*
X122687033Y-61415897D01*
X122703806Y-61417549D01*
X122720579Y-61415897D01*
X122736713Y-61411002D01*
X122751580Y-61403056D01*
X122764689Y-61392297D01*
X123330938Y-60826048D01*
X123341697Y-60812939D01*
X123349643Y-60798072D01*
X123354538Y-60781938D01*
X123356190Y-60765165D01*
X123354538Y-60748392D01*
X123349643Y-60732258D01*
X123341697Y-60717391D01*
X123330938Y-60704282D01*
X123206631Y-60579975D01*
X123193522Y-60569216D01*
X123178655Y-60561270D01*
X123162521Y-60556375D01*
X123145748Y-60554723D01*
X123128975Y-60556375D01*
X123112841Y-60561270D01*
X123097974Y-60569216D01*
X123084865Y-60579975D01*
X123075038Y-60589802D01*
X123073106Y-60590320D01*
X123071692Y-60588906D01*
X123072078Y-60587119D01*
X123087498Y-60568330D01*
X123098863Y-60547066D01*
X123105863Y-60523991D01*
X123108226Y-60500000D01*
X123270905Y-60500000D01*
X127300000Y-64529095D01*
X131329095Y-60500000D01*
X127300000Y-56470905D01*
X123270905Y-60500000D01*
X123108226Y-60500000D01*
X123105863Y-60476009D01*
X123098863Y-60452934D01*
X123087498Y-60431670D01*
X123072078Y-60412881D01*
X123071752Y-60410907D01*
X123073298Y-60409639D01*
X123075038Y-60410198D01*
X123084865Y-60420025D01*
X123097974Y-60430784D01*
X123112841Y-60438730D01*
X123128975Y-60443625D01*
X123145748Y-60445277D01*
X123162521Y-60443625D01*
X123178655Y-60438730D01*
X123193522Y-60430784D01*
X123206631Y-60420025D01*
X123330938Y-60295718D01*
X123341697Y-60282609D01*
X123349643Y-60267742D01*
X123354538Y-60251608D01*
X123356190Y-60234835D01*
X123354538Y-60218062D01*
X123349643Y-60201928D01*
X123341697Y-60187061D01*
X123330938Y-60173952D01*
X122764689Y-59607703D01*
X122751580Y-59596944D01*
X122736713Y-59588998D01*
X122720579Y-59584103D01*
X122703806Y-59582451D01*
X122687033Y-59584103D01*
X122670899Y-59588998D01*
X122656032Y-59596944D01*
X122642850Y-59607763D01*
X122640877Y-59608089D01*
X122639608Y-59606543D01*
X122640167Y-59604803D01*
X122680022Y-59564948D01*
X122680167Y-59564816D01*
X122688706Y-59557808D01*
X122689032Y-59557590D01*
X122693334Y-59555291D01*
X122693696Y-59555141D01*
X122698370Y-59553723D01*
X122698755Y-59553647D01*
X122706852Y-59552849D01*
X122730605Y-59548124D01*
X122752878Y-59538897D01*
X122772925Y-59525501D01*
X122789972Y-59508454D01*
X122803366Y-59488406D01*
X122812592Y-59466132D01*
X122817315Y-59442386D01*
X122818113Y-59434289D01*
X122818189Y-59433904D01*
X122819607Y-59429230D01*
X122819757Y-59428868D01*
X122822056Y-59424566D01*
X122822274Y-59424240D01*
X122829282Y-59415701D01*
X122829414Y-59415556D01*
X122869269Y-59375701D01*
X122871201Y-59375183D01*
X122872615Y-59376597D01*
X122872229Y-59378384D01*
X122861410Y-59391566D01*
X122853464Y-59406433D01*
X122848569Y-59422567D01*
X122846917Y-59439340D01*
X122848569Y-59456113D01*
X122853464Y-59472247D01*
X122861410Y-59487114D01*
X122872169Y-59500223D01*
X123438418Y-60066472D01*
X123451527Y-60077231D01*
X123466394Y-60085177D01*
X123482528Y-60090072D01*
X123499301Y-60091724D01*
X123516074Y-60090072D01*
X123532208Y-60085177D01*
X123547075Y-60077231D01*
X123560184Y-60066472D01*
X123684491Y-59942165D01*
X123695250Y-59929056D01*
X123703196Y-59914189D01*
X123708091Y-59898055D01*
X123709743Y-59881282D01*
X123708091Y-59864509D01*
X123703196Y-59848375D01*
X123695250Y-59833508D01*
X123684491Y-59820399D01*
X123118242Y-59254150D01*
X123105133Y-59243391D01*
X123090266Y-59235445D01*
X123074132Y-59230550D01*
X123057359Y-59228898D01*
X123040586Y-59230550D01*
X123024452Y-59235445D01*
X123009585Y-59243391D01*
X122996403Y-59254210D01*
X122994430Y-59254536D01*
X122993161Y-59252990D01*
X122993720Y-59251250D01*
X123033575Y-59211395D01*
X123033720Y-59211263D01*
X123042259Y-59204255D01*
X123042585Y-59204037D01*
X123046887Y-59201738D01*
X123047249Y-59201588D01*
X123051923Y-59200170D01*
X123052308Y-59200094D01*
X123060406Y-59199296D01*
X123084158Y-59194571D01*
X123106432Y-59185344D01*
X123126479Y-59171949D01*
X123143525Y-59154901D01*
X123156920Y-59134854D01*
X123166145Y-59112580D01*
X123170869Y-59088833D01*
X123171667Y-59080735D01*
X123171743Y-59080350D01*
X123173161Y-59075676D01*
X123173311Y-59075314D01*
X123175610Y-59071012D01*
X123175828Y-59070686D01*
X123182836Y-59062147D01*
X123182968Y-59062002D01*
X123222823Y-59022147D01*
X123224755Y-59021629D01*
X123226169Y-59023043D01*
X123225783Y-59024830D01*
X123214964Y-59038012D01*
X123207018Y-59052879D01*
X123202123Y-59069013D01*
X123200471Y-59085786D01*
X123202123Y-59102559D01*
X123207018Y-59118693D01*
X123214964Y-59133560D01*
X123225723Y-59146669D01*
X123791972Y-59712918D01*
X123805081Y-59723677D01*
X123819948Y-59731623D01*
X123836082Y-59736518D01*
X123852855Y-59738170D01*
X123869628Y-59736518D01*
X123885762Y-59731623D01*
X123900629Y-59723677D01*
X123913738Y-59712918D01*
X124038045Y-59588611D01*
X124048804Y-59575502D01*
X124056750Y-59560635D01*
X124061645Y-59544501D01*
X124063297Y-59527728D01*
X124061645Y-59510955D01*
X124056750Y-59494821D01*
X124048804Y-59479954D01*
X124038045Y-59466845D01*
X123471796Y-58900596D01*
X123458687Y-58889837D01*
X123443820Y-58881891D01*
X123427686Y-58876996D01*
X123410913Y-58875344D01*
X123394140Y-58876996D01*
X123378006Y-58881891D01*
X123363139Y-58889837D01*
X123349957Y-58900656D01*
X123347984Y-58900982D01*
X123346715Y-58899436D01*
X123347274Y-58897696D01*
X123387129Y-58857841D01*
X123387274Y-58857709D01*
X123395813Y-58850701D01*
X123396139Y-58850483D01*
X123400441Y-58848184D01*
X123400803Y-58848034D01*
X123405477Y-58846616D01*
X123405862Y-58846540D01*
X123413959Y-58845742D01*
X123437712Y-58841017D01*
X123459985Y-58831790D01*
X123480032Y-58818394D01*
X123497079Y-58801347D01*
X123510473Y-58781299D01*
X123519699Y-58759025D01*
X123524422Y-58735279D01*
X123525220Y-58727182D01*
X123525296Y-58726797D01*
X123526714Y-58722123D01*
X123526864Y-58721761D01*
X123529163Y-58717459D01*
X123529381Y-58717133D01*
X123536389Y-58708594D01*
X123536521Y-58708449D01*
X123576376Y-58668594D01*
X123578308Y-58668076D01*
X123579722Y-58669490D01*
X123579336Y-58671277D01*
X123568517Y-58684459D01*
X123560571Y-58699326D01*
X123555676Y-58715460D01*
X123554024Y-58732233D01*
X123555676Y-58749006D01*
X123560571Y-58765140D01*
X123568517Y-58780007D01*
X123579276Y-58793116D01*
X124145525Y-59359365D01*
X124158634Y-59370124D01*
X124173501Y-59378070D01*
X124189635Y-59382965D01*
X124206408Y-59384617D01*
X124223181Y-59382965D01*
X124239315Y-59378070D01*
X124254182Y-59370124D01*
X124267291Y-59359365D01*
X124391598Y-59235058D01*
X124402357Y-59221949D01*
X124410303Y-59207082D01*
X124415198Y-59190948D01*
X124416850Y-59174175D01*
X124415198Y-59157402D01*
X124410303Y-59141268D01*
X124402357Y-59126401D01*
X124391598Y-59113292D01*
X123825349Y-58547043D01*
X123812240Y-58536284D01*
X123797373Y-58528338D01*
X123781239Y-58523443D01*
X123764466Y-58521791D01*
X123747693Y-58523443D01*
X123731559Y-58528338D01*
X123716692Y-58536284D01*
X123703510Y-58547103D01*
X123701537Y-58547429D01*
X123700268Y-58545883D01*
X123700827Y-58544143D01*
X123740682Y-58504288D01*
X123740827Y-58504156D01*
X123749366Y-58497148D01*
X123749692Y-58496930D01*
X123753994Y-58494631D01*
X123754356Y-58494481D01*
X123759030Y-58493063D01*
X123759415Y-58492987D01*
X123767512Y-58492189D01*
X123791265Y-58487464D01*
X123813538Y-58478237D01*
X123833585Y-58464841D01*
X123850632Y-58447794D01*
X123864026Y-58427746D01*
X123873252Y-58405472D01*
X123877975Y-58381726D01*
X123878773Y-58373629D01*
X123878849Y-58373244D01*
X123880267Y-58368570D01*
X123880417Y-58368208D01*
X123882716Y-58363906D01*
X123882934Y-58363580D01*
X123889942Y-58355041D01*
X123890074Y-58354896D01*
X123929929Y-58315041D01*
X123931861Y-58314523D01*
X123933275Y-58315937D01*
X123932889Y-58317724D01*
X123922070Y-58330906D01*
X123914124Y-58345773D01*
X123909229Y-58361907D01*
X123907577Y-58378680D01*
X123909229Y-58395453D01*
X123914124Y-58411587D01*
X123922070Y-58426454D01*
X123932829Y-58439563D01*
X124499078Y-59005812D01*
X124512187Y-59016571D01*
X124527054Y-59024517D01*
X124543188Y-59029412D01*
X124559961Y-59031064D01*
X124576734Y-59029412D01*
X124592868Y-59024517D01*
X124607735Y-59016571D01*
X124620844Y-59005812D01*
X124745151Y-58881505D01*
X124755910Y-58868396D01*
X124763856Y-58853529D01*
X124768751Y-58837395D01*
X124770403Y-58820622D01*
X124768751Y-58803849D01*
X124763856Y-58787715D01*
X124755910Y-58772848D01*
X124745151Y-58759739D01*
X124178902Y-58193490D01*
X124165793Y-58182731D01*
X124150926Y-58174785D01*
X124134792Y-58169890D01*
X124118019Y-58168238D01*
X124101246Y-58169890D01*
X124085112Y-58174785D01*
X124070245Y-58182731D01*
X124057063Y-58193550D01*
X124055090Y-58193876D01*
X124053821Y-58192330D01*
X124054380Y-58190590D01*
X124094235Y-58150735D01*
X124094380Y-58150603D01*
X124102919Y-58143595D01*
X124103245Y-58143377D01*
X124107547Y-58141078D01*
X124107909Y-58140928D01*
X124112583Y-58139510D01*
X124112968Y-58139434D01*
X124121066Y-58138636D01*
X124144818Y-58133911D01*
X124167092Y-58124684D01*
X124187139Y-58111289D01*
X124204185Y-58094241D01*
X124217580Y-58074194D01*
X124226805Y-58051920D01*
X124231529Y-58028173D01*
X124232327Y-58020075D01*
X124232403Y-58019690D01*
X124233821Y-58015016D01*
X124233971Y-58014654D01*
X124236270Y-58010352D01*
X124236488Y-58010026D01*
X124243496Y-58001487D01*
X124243628Y-58001342D01*
X124283483Y-57961487D01*
X124285415Y-57960969D01*
X124286829Y-57962383D01*
X124286443Y-57964170D01*
X124275624Y-57977352D01*
X124267678Y-57992219D01*
X124262783Y-58008353D01*
X124261131Y-58025126D01*
X124262783Y-58041899D01*
X124267678Y-58058033D01*
X124275624Y-58072900D01*
X124286383Y-58086009D01*
X124852632Y-58652258D01*
X124865741Y-58663017D01*
X124880608Y-58670963D01*
X124896742Y-58675858D01*
X124913515Y-58677510D01*
X124930288Y-58675858D01*
X124946422Y-58670963D01*
X124961289Y-58663017D01*
X124974398Y-58652258D01*
X125098705Y-58527951D01*
X125109464Y-58514842D01*
X125117410Y-58499975D01*
X125122305Y-58483841D01*
X125123957Y-58467068D01*
X125122305Y-58450295D01*
X125117410Y-58434161D01*
X125109464Y-58419294D01*
X125098705Y-58406185D01*
X124532456Y-57839936D01*
X124519347Y-57829177D01*
X124504480Y-57821231D01*
X124488346Y-57816336D01*
X124471573Y-57814684D01*
X124454800Y-57816336D01*
X124438666Y-57821231D01*
X124423799Y-57829177D01*
X124410617Y-57839996D01*
X124408644Y-57840322D01*
X124407375Y-57838776D01*
X124407934Y-57837036D01*
X124447789Y-57797181D01*
X124447934Y-57797049D01*
X124456473Y-57790041D01*
X124456799Y-57789823D01*
X124461101Y-57787524D01*
X124461463Y-57787374D01*
X124466137Y-57785956D01*
X124466522Y-57785880D01*
X124474619Y-57785082D01*
X124498372Y-57780357D01*
X124520645Y-57771130D01*
X124540692Y-57757734D01*
X124557739Y-57740687D01*
X124571133Y-57720639D01*
X124580359Y-57698365D01*
X124585082Y-57674619D01*
X124585880Y-57666522D01*
X124585956Y-57666137D01*
X124587374Y-57661463D01*
X124587524Y-57661101D01*
X124589823Y-57656799D01*
X124590041Y-57656473D01*
X124597049Y-57647934D01*
X124597181Y-57647789D01*
X124637036Y-57607934D01*
X124638968Y-57607416D01*
X124640382Y-57608830D01*
X124639996Y-57610617D01*
X124629177Y-57623799D01*
X124621231Y-57638666D01*
X124616336Y-57654800D01*
X124614684Y-57671573D01*
X124616336Y-57688346D01*
X124621231Y-57704480D01*
X124629177Y-57719347D01*
X124639936Y-57732456D01*
X125206185Y-58298705D01*
X125219294Y-58309464D01*
X125234161Y-58317410D01*
X125250295Y-58322305D01*
X125267068Y-58323957D01*
X125283841Y-58322305D01*
X125299975Y-58317410D01*
X125314842Y-58309464D01*
X125327951Y-58298705D01*
X125452258Y-58174398D01*
X125463017Y-58161289D01*
X125470963Y-58146422D01*
X125475858Y-58130288D01*
X125477510Y-58113515D01*
X125475858Y-58096742D01*
X125470963Y-58080608D01*
X125463017Y-58065741D01*
X125452258Y-58052632D01*
X124886009Y-57486383D01*
X124872900Y-57475624D01*
X124858033Y-57467678D01*
X124841899Y-57462783D01*
X124825126Y-57461131D01*
X124808353Y-57462783D01*
X124792219Y-57467678D01*
X124777352Y-57475624D01*
X124764170Y-57486443D01*
X124762197Y-57486769D01*
X124760928Y-57485223D01*
X124761487Y-57483483D01*
X124801342Y-57443628D01*
X124801487Y-57443496D01*
X124810026Y-57436488D01*
X124810352Y-57436270D01*
X124814654Y-57433971D01*
X124815016Y-57433821D01*
X124819690Y-57432403D01*
X124820075Y-57432327D01*
X124828173Y-57431529D01*
X124851925Y-57426804D01*
X124874199Y-57417577D01*
X124894246Y-57404182D01*
X124911292Y-57387134D01*
X124924687Y-57367087D01*
X124933912Y-57344813D01*
X124938636Y-57321066D01*
X124939434Y-57312968D01*
X124939510Y-57312583D01*
X124940928Y-57307909D01*
X124941078Y-57307547D01*
X124943377Y-57303245D01*
X124943595Y-57302919D01*
X124950603Y-57294380D01*
X124950735Y-57294235D01*
X124990590Y-57254380D01*
X124992522Y-57253862D01*
X124993936Y-57255276D01*
X124993550Y-57257063D01*
X124982731Y-57270245D01*
X124974785Y-57285112D01*
X124969890Y-57301246D01*
X124968238Y-57318019D01*
X124969890Y-57334792D01*
X124974785Y-57350926D01*
X124982731Y-57365793D01*
X124993490Y-57378902D01*
X125559739Y-57945151D01*
X125572848Y-57955910D01*
X125587715Y-57963856D01*
X125603849Y-57968751D01*
X125620622Y-57970403D01*
X125637395Y-57968751D01*
X125653529Y-57963856D01*
X125668396Y-57955910D01*
X125681505Y-57945151D01*
X125805812Y-57820844D01*
X125816571Y-57807735D01*
X125824517Y-57792868D01*
X125829412Y-57776734D01*
X125831064Y-57759961D01*
X125829412Y-57743188D01*
X125824517Y-57727054D01*
X125816571Y-57712187D01*
X125805812Y-57699078D01*
X125239563Y-57132829D01*
X125226454Y-57122070D01*
X125211587Y-57114124D01*
X125195453Y-57109229D01*
X125178680Y-57107577D01*
X125161907Y-57109229D01*
X125145773Y-57114124D01*
X125130906Y-57122070D01*
X125117724Y-57132889D01*
X125115751Y-57133215D01*
X125114482Y-57131669D01*
X125115041Y-57129929D01*
X125154896Y-57090074D01*
X125155041Y-57089942D01*
X125163580Y-57082934D01*
X125163906Y-57082716D01*
X125168208Y-57080417D01*
X125168570Y-57080267D01*
X125173244Y-57078849D01*
X125173629Y-57078773D01*
X125181726Y-57077975D01*
X125205479Y-57073250D01*
X125227752Y-57064023D01*
X125247799Y-57050627D01*
X125264846Y-57033580D01*
X125278240Y-57013532D01*
X125287466Y-56991258D01*
X125292189Y-56967512D01*
X125292987Y-56959415D01*
X125293063Y-56959030D01*
X125294481Y-56954356D01*
X125294631Y-56953994D01*
X125296930Y-56949692D01*
X125297148Y-56949366D01*
X125304156Y-56940827D01*
X125304288Y-56940682D01*
X125344143Y-56900827D01*
X125346075Y-56900309D01*
X125347489Y-56901723D01*
X125347103Y-56903510D01*
X125336284Y-56916692D01*
X125328338Y-56931559D01*
X125323443Y-56947693D01*
X125321791Y-56964466D01*
X125323443Y-56981239D01*
X125328338Y-56997373D01*
X125336284Y-57012240D01*
X125347043Y-57025349D01*
X125913292Y-57591598D01*
X125926401Y-57602357D01*
X125941268Y-57610303D01*
X125957402Y-57615198D01*
X125974175Y-57616850D01*
X125990948Y-57615198D01*
X126007082Y-57610303D01*
X126021949Y-57602357D01*
X126035058Y-57591598D01*
X126159365Y-57467291D01*
X126170124Y-57454182D01*
X126178070Y-57439315D01*
X126182965Y-57423181D01*
X126184617Y-57406408D01*
X126182965Y-57389635D01*
X126178070Y-57373501D01*
X126170124Y-57358634D01*
X126159365Y-57345525D01*
X125593116Y-56779276D01*
X125580007Y-56768517D01*
X125565140Y-56760571D01*
X125549006Y-56755676D01*
X125532233Y-56754024D01*
X125515460Y-56755676D01*
X125499326Y-56760571D01*
X125484459Y-56768517D01*
X125471277Y-56779336D01*
X125469304Y-56779662D01*
X125468035Y-56778116D01*
X125468594Y-56776376D01*
X125508449Y-56736521D01*
X125508594Y-56736389D01*
X125517133Y-56729381D01*
X125517459Y-56729163D01*
X125521761Y-56726864D01*
X125522123Y-56726714D01*
X125526797Y-56725296D01*
X125527182Y-56725220D01*
X125535279Y-56724422D01*
X125559032Y-56719697D01*
X125581305Y-56710470D01*
X125601352Y-56697074D01*
X125618399Y-56680027D01*
X125631793Y-56659979D01*
X125641019Y-56637705D01*
X125645742Y-56613959D01*
X125646540Y-56605862D01*
X125646616Y-56605477D01*
X125648034Y-56600803D01*
X125648184Y-56600441D01*
X125650483Y-56596139D01*
X125650701Y-56595813D01*
X125657709Y-56587274D01*
X125657841Y-56587129D01*
X125697696Y-56547274D01*
X125699628Y-56546756D01*
X125701042Y-56548170D01*
X125700656Y-56549957D01*
X125689837Y-56563139D01*
X125681891Y-56578006D01*
X125676996Y-56594140D01*
X125675344Y-56610913D01*
X125676996Y-56627686D01*
X125681891Y-56643820D01*
X125689837Y-56658687D01*
X125700596Y-56671796D01*
X126266845Y-57238045D01*
X126279954Y-57248804D01*
X126294821Y-57256750D01*
X126310955Y-57261645D01*
X126327728Y-57263297D01*
X126344501Y-57261645D01*
X126360635Y-57256750D01*
X126375502Y-57248804D01*
X126388611Y-57238045D01*
X126512918Y-57113738D01*
X126523677Y-57100629D01*
X126531623Y-57085762D01*
X126536518Y-57069628D01*
X126538170Y-57052855D01*
X126536518Y-57036082D01*
X126531623Y-57019948D01*
X126523677Y-57005081D01*
X126512918Y-56991972D01*
X125946669Y-56425723D01*
X125933560Y-56414964D01*
X125918693Y-56407018D01*
X125902559Y-56402123D01*
X125885786Y-56400471D01*
X125869013Y-56402123D01*
X125852879Y-56407018D01*
X125838012Y-56414964D01*
X125824830Y-56425783D01*
X125822857Y-56426109D01*
X125821588Y-56424563D01*
X125822147Y-56422823D01*
X125862002Y-56382968D01*
X125862147Y-56382836D01*
X125870686Y-56375828D01*
X125871012Y-56375610D01*
X125875314Y-56373311D01*
X125875676Y-56373161D01*
X125880350Y-56371743D01*
X125880735Y-56371667D01*
X125888833Y-56370869D01*
X125912585Y-56366144D01*
X125934859Y-56356917D01*
X125954906Y-56343522D01*
X125971952Y-56326474D01*
X125985347Y-56306427D01*
X125994572Y-56284153D01*
X125999296Y-56260406D01*
X126000094Y-56252308D01*
X126000170Y-56251923D01*
X126001588Y-56247249D01*
X126001738Y-56246887D01*
X126004037Y-56242585D01*
X126004255Y-56242259D01*
X126011263Y-56233720D01*
X126011395Y-56233575D01*
X126051250Y-56193720D01*
X126053182Y-56193202D01*
X126054596Y-56194616D01*
X126054210Y-56196403D01*
X126043391Y-56209585D01*
X126035445Y-56224452D01*
X126030550Y-56240586D01*
X126028898Y-56257359D01*
X126030550Y-56274132D01*
X126035445Y-56290266D01*
X126043391Y-56305133D01*
X126054150Y-56318242D01*
X126620399Y-56884491D01*
X126633508Y-56895250D01*
X126648375Y-56903196D01*
X126664509Y-56908091D01*
X126681282Y-56909743D01*
X126698055Y-56908091D01*
X126714189Y-56903196D01*
X126729056Y-56895250D01*
X126742165Y-56884491D01*
X126866472Y-56760184D01*
X126877231Y-56747075D01*
X126885177Y-56732208D01*
X126890072Y-56716074D01*
X126891724Y-56699301D01*
X126890072Y-56682528D01*
X126885177Y-56666394D01*
X126877231Y-56651527D01*
X126866472Y-56638418D01*
X126300223Y-56072169D01*
X126287114Y-56061410D01*
X126272247Y-56053464D01*
X126256113Y-56048569D01*
X126239340Y-56046917D01*
X126222567Y-56048569D01*
X126206433Y-56053464D01*
X126191566Y-56061410D01*
X126178384Y-56072229D01*
X126176411Y-56072555D01*
X126175142Y-56071009D01*
X126175701Y-56069269D01*
X126215556Y-56029414D01*
X126215701Y-56029282D01*
X126224240Y-56022274D01*
X126224566Y-56022056D01*
X126228868Y-56019757D01*
X126229230Y-56019607D01*
X126233904Y-56018189D01*
X126234289Y-56018113D01*
X126242386Y-56017315D01*
X126266139Y-56012590D01*
X126288412Y-56003363D01*
X126308459Y-55989967D01*
X126325506Y-55972920D01*
X126338900Y-55952872D01*
X126348126Y-55930598D01*
X126352849Y-55906852D01*
X126353647Y-55898755D01*
X126353723Y-55898370D01*
X126355141Y-55893696D01*
X126355291Y-55893334D01*
X126357590Y-55889032D01*
X126357808Y-55888706D01*
X126364816Y-55880167D01*
X126364948Y-55880022D01*
X126404803Y-55840167D01*
X126406735Y-55839649D01*
X126408149Y-55841063D01*
X126407763Y-55842850D01*
X126396944Y-55856032D01*
X126388998Y-55870899D01*
X126384103Y-55887033D01*
X126382451Y-55903806D01*
X126384103Y-55920579D01*
X126388998Y-55936713D01*
X126396944Y-55951580D01*
X126407703Y-55964689D01*
X126973952Y-56530938D01*
X126987061Y-56541697D01*
X127001928Y-56549643D01*
X127018062Y-56554538D01*
X127034835Y-56556190D01*
X127051608Y-56554538D01*
X127067742Y-56549643D01*
X127082609Y-56541697D01*
X127095718Y-56530938D01*
X127220025Y-56406631D01*
X127230784Y-56393522D01*
X127238730Y-56378655D01*
X127243625Y-56362521D01*
X127245277Y-56345748D01*
X127243625Y-56328975D01*
X127238730Y-56312841D01*
X127230784Y-56297974D01*
X127220025Y-56284865D01*
X127210198Y-56275038D01*
X127209680Y-56273106D01*
X127211094Y-56271692D01*
X127212881Y-56272078D01*
X127231670Y-56287498D01*
X127252934Y-56298863D01*
X127276009Y-56305863D01*
X127300000Y-56308226D01*
X127323991Y-56305863D01*
X127347066Y-56298863D01*
X127368330Y-56287498D01*
X127387119Y-56272078D01*
X127389093Y-56271752D01*
X127390361Y-56273298D01*
X127389802Y-56275038D01*
X127379975Y-56284865D01*
X127369216Y-56297974D01*
X127361270Y-56312841D01*
X127356375Y-56328975D01*
X127354723Y-56345748D01*
X127356375Y-56362521D01*
X127361270Y-56378655D01*
X127369216Y-56393522D01*
X127379975Y-56406631D01*
X127504282Y-56530938D01*
X127517391Y-56541697D01*
X127532258Y-56549643D01*
X127548392Y-56554538D01*
X127565165Y-56556190D01*
X127581938Y-56554538D01*
X127598072Y-56549643D01*
X127612939Y-56541697D01*
X127626048Y-56530938D01*
X128192297Y-55964689D01*
X128203056Y-55951580D01*
X128211002Y-55936713D01*
X128215897Y-55920579D01*
X128217549Y-55903806D01*
X128215897Y-55887033D01*
X128211002Y-55870899D01*
X128203056Y-55856032D01*
X128192237Y-55842850D01*
X128191911Y-55840877D01*
X128193457Y-55839608D01*
X128195197Y-55840167D01*
G37*
G36*
X150114287Y-62867256D02*
G01*
X150114437Y-62869077D01*
X150109650Y-62880635D01*
X150088653Y-62986192D01*
X150088653Y-63093808D01*
X150109650Y-63199365D01*
X150114437Y-63210923D01*
X150114176Y-63212906D01*
X150112328Y-63213671D01*
X150110825Y-63212631D01*
X150102262Y-63196609D01*
X150086967Y-63177972D01*
X150068330Y-63162677D01*
X150047066Y-63151312D01*
X150023991Y-63144312D01*
X150000000Y-63141949D01*
X149976009Y-63144312D01*
X149952934Y-63151312D01*
X149931670Y-63162677D01*
X149913033Y-63177972D01*
X149897738Y-63196609D01*
X149889175Y-63212631D01*
X149887476Y-63213687D01*
X149885713Y-63212744D01*
X149885563Y-63210923D01*
X149890350Y-63199365D01*
X149911347Y-63093808D01*
X149911347Y-62986192D01*
X149890350Y-62880635D01*
X149885563Y-62869077D01*
X149885824Y-62867094D01*
X149887672Y-62866329D01*
X149889175Y-62867369D01*
X149897738Y-62883391D01*
X149913033Y-62902028D01*
X149931670Y-62917323D01*
X149952934Y-62928688D01*
X149976009Y-62935688D01*
X150000000Y-62938051D01*
X150023991Y-62935688D01*
X150047066Y-62928688D01*
X150068330Y-62917323D01*
X150086967Y-62902028D01*
X150102262Y-62883391D01*
X150110825Y-62867369D01*
X150112524Y-62866313D01*
X150114287Y-62867256D01*
G37*
G36*
X103541076Y-62657457D02*
G01*
X103596111Y-62712492D01*
X103661147Y-62755948D01*
X103733410Y-62785881D01*
X103810129Y-62801141D01*
X103888343Y-62801141D01*
X103965062Y-62785881D01*
X104037325Y-62755948D01*
X104102361Y-62712492D01*
X104157397Y-62657456D01*
X104159329Y-62656938D01*
X104160743Y-62658352D01*
X104160575Y-62659813D01*
X104151459Y-62676868D01*
X104144459Y-62699943D01*
X104142096Y-62723933D01*
X104144459Y-62747925D01*
X104151459Y-62771000D01*
X104162825Y-62792263D01*
X104178120Y-62810900D01*
X104196757Y-62826195D01*
X104218021Y-62837560D01*
X104241096Y-62844560D01*
X104265282Y-62846942D01*
X104266908Y-62848107D01*
X104266712Y-62850097D01*
X104265086Y-62850932D01*
X103433386Y-62850932D01*
X103431654Y-62849932D01*
X103431654Y-62847932D01*
X103433190Y-62846942D01*
X103457377Y-62844560D01*
X103480452Y-62837560D01*
X103501716Y-62826195D01*
X103520353Y-62810900D01*
X103535648Y-62792263D01*
X103547013Y-62770999D01*
X103554013Y-62747924D01*
X103556376Y-62723933D01*
X103554013Y-62699942D01*
X103547013Y-62676867D01*
X103537898Y-62659814D01*
X103537964Y-62657815D01*
X103539727Y-62656872D01*
X103541076Y-62657457D01*
G37*
G36*
X150807906Y-62290824D02*
G01*
X150808671Y-62292672D01*
X150807631Y-62294175D01*
X150791609Y-62302738D01*
X150772972Y-62318033D01*
X150757677Y-62336670D01*
X150746312Y-62357934D01*
X150739312Y-62381009D01*
X150736949Y-62405000D01*
X150739312Y-62428991D01*
X150746312Y-62452066D01*
X150757677Y-62473330D01*
X150772972Y-62491967D01*
X150791609Y-62507262D01*
X150807631Y-62515825D01*
X150808687Y-62517524D01*
X150807744Y-62519287D01*
X150805923Y-62519437D01*
X150794365Y-62514650D01*
X150688808Y-62493653D01*
X150581192Y-62493653D01*
X150475635Y-62514650D01*
X150464077Y-62519437D01*
X150462094Y-62519176D01*
X150461329Y-62517328D01*
X150462369Y-62515825D01*
X150478391Y-62507262D01*
X150497028Y-62491967D01*
X150512323Y-62473330D01*
X150523688Y-62452066D01*
X150530688Y-62428991D01*
X150533051Y-62405000D01*
X150530688Y-62381009D01*
X150523688Y-62357934D01*
X150512323Y-62336670D01*
X150497028Y-62318033D01*
X150478391Y-62302738D01*
X150462369Y-62294175D01*
X150461313Y-62292476D01*
X150462256Y-62290713D01*
X150464077Y-62290563D01*
X150475635Y-62295350D01*
X150581192Y-62316347D01*
X150688808Y-62316347D01*
X150794365Y-62295350D01*
X150805923Y-62290563D01*
X150807906Y-62290824D01*
G37*
G36*
X149537906Y-62290824D02*
G01*
X149538671Y-62292672D01*
X149537631Y-62294175D01*
X149521609Y-62302738D01*
X149502972Y-62318033D01*
X149487677Y-62336670D01*
X149476312Y-62357934D01*
X149469312Y-62381009D01*
X149466949Y-62405000D01*
X149469312Y-62428991D01*
X149476312Y-62452066D01*
X149487677Y-62473330D01*
X149502972Y-62491967D01*
X149521609Y-62507262D01*
X149537631Y-62515825D01*
X149538687Y-62517524D01*
X149537744Y-62519287D01*
X149535923Y-62519437D01*
X149524365Y-62514650D01*
X149418808Y-62493653D01*
X149311192Y-62493653D01*
X149205635Y-62514650D01*
X149194077Y-62519437D01*
X149192094Y-62519176D01*
X149191329Y-62517328D01*
X149192369Y-62515825D01*
X149208391Y-62507262D01*
X149227028Y-62491967D01*
X149242323Y-62473330D01*
X149253688Y-62452066D01*
X149260688Y-62428991D01*
X149263051Y-62405000D01*
X149260688Y-62381009D01*
X149253688Y-62357934D01*
X149242323Y-62336670D01*
X149227028Y-62318033D01*
X149208391Y-62302738D01*
X149192369Y-62294175D01*
X149191313Y-62292476D01*
X149192256Y-62290713D01*
X149194077Y-62290563D01*
X149205635Y-62295350D01*
X149311192Y-62316347D01*
X149418808Y-62316347D01*
X149524365Y-62295350D01*
X149535923Y-62290563D01*
X149537906Y-62290824D01*
G37*
G36*
X104264382Y-61954543D02*
G01*
X104264382Y-61956543D01*
X104262846Y-61957533D01*
X104238659Y-61959915D01*
X104215584Y-61966915D01*
X104194320Y-61978280D01*
X104175683Y-61993575D01*
X104160388Y-62012212D01*
X104149023Y-62033476D01*
X104142023Y-62056551D01*
X104139660Y-62080542D01*
X104142023Y-62104533D01*
X104149023Y-62127608D01*
X104159527Y-62147259D01*
X104159461Y-62149258D01*
X104157698Y-62150201D01*
X104156349Y-62149616D01*
X104102361Y-62095628D01*
X104037325Y-62052172D01*
X103965062Y-62022239D01*
X103888343Y-62006979D01*
X103810129Y-62006979D01*
X103733410Y-62022239D01*
X103661147Y-62052172D01*
X103596111Y-62095628D01*
X103542123Y-62149616D01*
X103540191Y-62150134D01*
X103538777Y-62148720D01*
X103538945Y-62147259D01*
X103549449Y-62127608D01*
X103556449Y-62104533D01*
X103558812Y-62080542D01*
X103557664Y-62068890D01*
X103557654Y-62068694D01*
X103557654Y-61955543D01*
X103558654Y-61953811D01*
X103559654Y-61953543D01*
X104262650Y-61953543D01*
X104264382Y-61954543D01*
G37*
G36*
X150114287Y-61597256D02*
G01*
X150114437Y-61599077D01*
X150109650Y-61610635D01*
X150088653Y-61716192D01*
X150088653Y-61823808D01*
X150109650Y-61929365D01*
X150114437Y-61940923D01*
X150114176Y-61942906D01*
X150112328Y-61943671D01*
X150110825Y-61942631D01*
X150102262Y-61926609D01*
X150086967Y-61907972D01*
X150068330Y-61892677D01*
X150047066Y-61881312D01*
X150023991Y-61874312D01*
X150000000Y-61871949D01*
X149976009Y-61874312D01*
X149952934Y-61881312D01*
X149931670Y-61892677D01*
X149913033Y-61907972D01*
X149897738Y-61926609D01*
X149889175Y-61942631D01*
X149887476Y-61943687D01*
X149885713Y-61942744D01*
X149885563Y-61940923D01*
X149890350Y-61929365D01*
X149911347Y-61823808D01*
X149911347Y-61716192D01*
X149890350Y-61610635D01*
X149885563Y-61599077D01*
X149885824Y-61597094D01*
X149887672Y-61596329D01*
X149889175Y-61597369D01*
X149897738Y-61613391D01*
X149913033Y-61632028D01*
X149931670Y-61647323D01*
X149952934Y-61658688D01*
X149976009Y-61665688D01*
X150000000Y-61668051D01*
X150023991Y-61665688D01*
X150047066Y-61658688D01*
X150068330Y-61647323D01*
X150086967Y-61632028D01*
X150102262Y-61613391D01*
X150110825Y-61597369D01*
X150112524Y-61596313D01*
X150114287Y-61597256D01*
G37*
G36*
X144369193Y-61389969D02*
G01*
X144369193Y-61391969D01*
X144367657Y-61392959D01*
X144343470Y-61395341D01*
X144320395Y-61402341D01*
X144299131Y-61413706D01*
X144280494Y-61429001D01*
X144265199Y-61447638D01*
X144253834Y-61468902D01*
X144246834Y-61491977D01*
X144244471Y-61515968D01*
X144246834Y-61539959D01*
X144253834Y-61563034D01*
X144265199Y-61584298D01*
X144273541Y-61594463D01*
X144273488Y-61595002D01*
X144304783Y-61633135D01*
X144305001Y-61633461D01*
X144322635Y-61666453D01*
X144322785Y-61666815D01*
X144333643Y-61702607D01*
X144333719Y-61702992D01*
X144337990Y-61746358D01*
X144338000Y-61746554D01*
X144338000Y-61818244D01*
X144337000Y-61819976D01*
X144335000Y-61819976D01*
X144334010Y-61818440D01*
X144328857Y-61766112D01*
X144313648Y-61715978D01*
X144288953Y-61669776D01*
X144255719Y-61629281D01*
X144215224Y-61596047D01*
X144169022Y-61571352D01*
X144118888Y-61556143D01*
X144066560Y-61550990D01*
X144064934Y-61549825D01*
X144065130Y-61547835D01*
X144066756Y-61547000D01*
X144133909Y-61547000D01*
X144157994Y-61544628D01*
X144181069Y-61537628D01*
X144202333Y-61526263D01*
X144220970Y-61510968D01*
X144236265Y-61492331D01*
X144247630Y-61471067D01*
X144254630Y-61447992D01*
X144257002Y-61423907D01*
X144257002Y-61390969D01*
X144258002Y-61389237D01*
X144259002Y-61388969D01*
X144367461Y-61388969D01*
X144369193Y-61389969D01*
G37*
G36*
X105463382Y-61304303D02*
G01*
X105463650Y-61305303D01*
X105463650Y-61453545D01*
X105462650Y-61455277D01*
X105461650Y-61455545D01*
X103559654Y-61455545D01*
X103557922Y-61454545D01*
X103557654Y-61453545D01*
X103557654Y-61305303D01*
X103558654Y-61303571D01*
X103559654Y-61303303D01*
X105461650Y-61303303D01*
X105463382Y-61304303D01*
G37*
G36*
X150807906Y-61020824D02*
G01*
X150808671Y-61022672D01*
X150807631Y-61024175D01*
X150791609Y-61032738D01*
X150772972Y-61048033D01*
X150757677Y-61066670D01*
X150746312Y-61087934D01*
X150739312Y-61111009D01*
X150736949Y-61135000D01*
X150739312Y-61158991D01*
X150746312Y-61182066D01*
X150757677Y-61203330D01*
X150772972Y-61221967D01*
X150791609Y-61237262D01*
X150807631Y-61245825D01*
X150808687Y-61247524D01*
X150807744Y-61249287D01*
X150805923Y-61249437D01*
X150794365Y-61244650D01*
X150688808Y-61223653D01*
X150581192Y-61223653D01*
X150475635Y-61244650D01*
X150464077Y-61249437D01*
X150462094Y-61249176D01*
X150461329Y-61247328D01*
X150462369Y-61245825D01*
X150478391Y-61237262D01*
X150497028Y-61221967D01*
X150512323Y-61203330D01*
X150523688Y-61182066D01*
X150530688Y-61158991D01*
X150533051Y-61135000D01*
X150530688Y-61111009D01*
X150523688Y-61087934D01*
X150512323Y-61066670D01*
X150497028Y-61048033D01*
X150478391Y-61032738D01*
X150462369Y-61024175D01*
X150461313Y-61022476D01*
X150462256Y-61020713D01*
X150464077Y-61020563D01*
X150475635Y-61025350D01*
X150581192Y-61046347D01*
X150688808Y-61046347D01*
X150794365Y-61025350D01*
X150805923Y-61020563D01*
X150807906Y-61020824D01*
G37*
G36*
X149537906Y-61020824D02*
G01*
X149538671Y-61022672D01*
X149537631Y-61024175D01*
X149521609Y-61032738D01*
X149502972Y-61048033D01*
X149487677Y-61066670D01*
X149476312Y-61087934D01*
X149469312Y-61111009D01*
X149466949Y-61135000D01*
X149469312Y-61158991D01*
X149476312Y-61182066D01*
X149487677Y-61203330D01*
X149502972Y-61221967D01*
X149521609Y-61237262D01*
X149537631Y-61245825D01*
X149538687Y-61247524D01*
X149537744Y-61249287D01*
X149535923Y-61249437D01*
X149524365Y-61244650D01*
X149418808Y-61223653D01*
X149311192Y-61223653D01*
X149205635Y-61244650D01*
X149194077Y-61249437D01*
X149192094Y-61249176D01*
X149191329Y-61247328D01*
X149192369Y-61245825D01*
X149208391Y-61237262D01*
X149227028Y-61221967D01*
X149242323Y-61203330D01*
X149253688Y-61182066D01*
X149260688Y-61158991D01*
X149263051Y-61135000D01*
X149260688Y-61111009D01*
X149253688Y-61087934D01*
X149242323Y-61066670D01*
X149227028Y-61048033D01*
X149208391Y-61032738D01*
X149192369Y-61024175D01*
X149191313Y-61022476D01*
X149192256Y-61020713D01*
X149194077Y-61020563D01*
X149205635Y-61025350D01*
X149311192Y-61046347D01*
X149418808Y-61046347D01*
X149524365Y-61025350D01*
X149535923Y-61020563D01*
X149537906Y-61020824D01*
G37*
G36*
X105463382Y-60654063D02*
G01*
X105463650Y-60655063D01*
X105463650Y-60803305D01*
X105462650Y-60805037D01*
X105461650Y-60805305D01*
X103559654Y-60805305D01*
X103557922Y-60804305D01*
X103557654Y-60803305D01*
X103557654Y-60655063D01*
X103558654Y-60653331D01*
X103559654Y-60653063D01*
X105461650Y-60653063D01*
X105463382Y-60654063D01*
G37*
G36*
X150114287Y-60327256D02*
G01*
X150114437Y-60329077D01*
X150109650Y-60340635D01*
X150088653Y-60446192D01*
X150088653Y-60553808D01*
X150109650Y-60659365D01*
X150114437Y-60670923D01*
X150114176Y-60672906D01*
X150112328Y-60673671D01*
X150110825Y-60672631D01*
X150102262Y-60656609D01*
X150086967Y-60637972D01*
X150068330Y-60622677D01*
X150047066Y-60611312D01*
X150023991Y-60604312D01*
X150000000Y-60601949D01*
X149976009Y-60604312D01*
X149952934Y-60611312D01*
X149931670Y-60622677D01*
X149913033Y-60637972D01*
X149897738Y-60656609D01*
X149889175Y-60672631D01*
X149887476Y-60673687D01*
X149885713Y-60672744D01*
X149885563Y-60670923D01*
X149890350Y-60659365D01*
X149911347Y-60553808D01*
X149911347Y-60446192D01*
X149890350Y-60340635D01*
X149885563Y-60329077D01*
X149885824Y-60327094D01*
X149887672Y-60326329D01*
X149889175Y-60327369D01*
X149897738Y-60343391D01*
X149913033Y-60362028D01*
X149931670Y-60377323D01*
X149952934Y-60388688D01*
X149976009Y-60395688D01*
X150000000Y-60398051D01*
X150023991Y-60395688D01*
X150047066Y-60388688D01*
X150068330Y-60377323D01*
X150086967Y-60362028D01*
X150102262Y-60343391D01*
X150110825Y-60327369D01*
X150112524Y-60326313D01*
X150114287Y-60327256D01*
G37*
G36*
X105463382Y-60003823D02*
G01*
X105463650Y-60004823D01*
X105463650Y-60153065D01*
X105462650Y-60154797D01*
X105461650Y-60155065D01*
X103559654Y-60155065D01*
X103557922Y-60154065D01*
X103557654Y-60153065D01*
X103557654Y-60004823D01*
X103558654Y-60003091D01*
X103559654Y-60002823D01*
X105461650Y-60002823D01*
X105463382Y-60003823D01*
G37*
G36*
X149537906Y-59750824D02*
G01*
X149538671Y-59752672D01*
X149537631Y-59754175D01*
X149521609Y-59762738D01*
X149502972Y-59778033D01*
X149487677Y-59796670D01*
X149476312Y-59817934D01*
X149469312Y-59841009D01*
X149466949Y-59865000D01*
X149469312Y-59888991D01*
X149476312Y-59912066D01*
X149487677Y-59933330D01*
X149502972Y-59951967D01*
X149521609Y-59967262D01*
X149537631Y-59975825D01*
X149538687Y-59977524D01*
X149537744Y-59979287D01*
X149535923Y-59979437D01*
X149524365Y-59974650D01*
X149418808Y-59953653D01*
X149311192Y-59953653D01*
X149205635Y-59974650D01*
X149194077Y-59979437D01*
X149192094Y-59979176D01*
X149191329Y-59977328D01*
X149192369Y-59975825D01*
X149208391Y-59967262D01*
X149227028Y-59951967D01*
X149242323Y-59933330D01*
X149253688Y-59912066D01*
X149260688Y-59888991D01*
X149263051Y-59865000D01*
X149260688Y-59841009D01*
X149253688Y-59817934D01*
X149242323Y-59796670D01*
X149227028Y-59778033D01*
X149208391Y-59762738D01*
X149192369Y-59754175D01*
X149191313Y-59752476D01*
X149192256Y-59750713D01*
X149194077Y-59750563D01*
X149205635Y-59755350D01*
X149311192Y-59776347D01*
X149418808Y-59776347D01*
X149524365Y-59755350D01*
X149535923Y-59750563D01*
X149537906Y-59750824D01*
G37*
G36*
X150807906Y-59750824D02*
G01*
X150808671Y-59752672D01*
X150807631Y-59754175D01*
X150791609Y-59762738D01*
X150772972Y-59778033D01*
X150757677Y-59796670D01*
X150746312Y-59817934D01*
X150739312Y-59841009D01*
X150736949Y-59865000D01*
X150739312Y-59888991D01*
X150746312Y-59912066D01*
X150757677Y-59933330D01*
X150772972Y-59951967D01*
X150791609Y-59967262D01*
X150807631Y-59975825D01*
X150808687Y-59977524D01*
X150807744Y-59979287D01*
X150805923Y-59979437D01*
X150794365Y-59974650D01*
X150688808Y-59953653D01*
X150581192Y-59953653D01*
X150475635Y-59974650D01*
X150464077Y-59979437D01*
X150462094Y-59979176D01*
X150461329Y-59977328D01*
X150462369Y-59975825D01*
X150478391Y-59967262D01*
X150497028Y-59951967D01*
X150512323Y-59933330D01*
X150523688Y-59912066D01*
X150530688Y-59888991D01*
X150533051Y-59865000D01*
X150530688Y-59841009D01*
X150523688Y-59817934D01*
X150512323Y-59796670D01*
X150497028Y-59778033D01*
X150478391Y-59762738D01*
X150462369Y-59754175D01*
X150461313Y-59752476D01*
X150462256Y-59750713D01*
X150464077Y-59750563D01*
X150475635Y-59755350D01*
X150581192Y-59776347D01*
X150688808Y-59776347D01*
X150794365Y-59755350D01*
X150805923Y-59750563D01*
X150807906Y-59750824D01*
G37*
G36*
X105463382Y-59353583D02*
G01*
X105463650Y-59354583D01*
X105463650Y-59502825D01*
X105462650Y-59504557D01*
X105461650Y-59504825D01*
X103559654Y-59504825D01*
X103557922Y-59503825D01*
X103557654Y-59502825D01*
X103557654Y-59354583D01*
X103558654Y-59352851D01*
X103559654Y-59352583D01*
X105461650Y-59352583D01*
X105463382Y-59353583D01*
G37*
G36*
X150114287Y-59057256D02*
G01*
X150114437Y-59059077D01*
X150109650Y-59070635D01*
X150088653Y-59176192D01*
X150088653Y-59283808D01*
X150109650Y-59389365D01*
X150114437Y-59400923D01*
X150114176Y-59402906D01*
X150112328Y-59403671D01*
X150110825Y-59402631D01*
X150102262Y-59386609D01*
X150086967Y-59367972D01*
X150068330Y-59352677D01*
X150047066Y-59341312D01*
X150023991Y-59334312D01*
X150000000Y-59331949D01*
X149976009Y-59334312D01*
X149952934Y-59341312D01*
X149931670Y-59352677D01*
X149913033Y-59367972D01*
X149897738Y-59386609D01*
X149889175Y-59402631D01*
X149887476Y-59403687D01*
X149885713Y-59402744D01*
X149885563Y-59400923D01*
X149890350Y-59389365D01*
X149911347Y-59283808D01*
X149911347Y-59176192D01*
X149890350Y-59070635D01*
X149885563Y-59059077D01*
X149885824Y-59057094D01*
X149887672Y-59056329D01*
X149889175Y-59057369D01*
X149897738Y-59073391D01*
X149913033Y-59092028D01*
X149931670Y-59107323D01*
X149952934Y-59118688D01*
X149976009Y-59125688D01*
X150000000Y-59128051D01*
X150023991Y-59125688D01*
X150047066Y-59118688D01*
X150068330Y-59107323D01*
X150086967Y-59092028D01*
X150102262Y-59073391D01*
X150110825Y-59057369D01*
X150112524Y-59056313D01*
X150114287Y-59057256D01*
G37*
G36*
X104160279Y-58660856D02*
G01*
X104160111Y-58662317D01*
X104150381Y-58680520D01*
X104143381Y-58703595D01*
X104141018Y-58727587D01*
X104143381Y-58751578D01*
X104150381Y-58774653D01*
X104161746Y-58795916D01*
X104177042Y-58814553D01*
X104195679Y-58829848D01*
X104216942Y-58841213D01*
X104240017Y-58848213D01*
X104264204Y-58850595D01*
X104265830Y-58851760D01*
X104265634Y-58853750D01*
X104264008Y-58854585D01*
X103559654Y-58854585D01*
X103557922Y-58853585D01*
X103557654Y-58852585D01*
X103557654Y-58727965D01*
X103555282Y-58703880D01*
X103548282Y-58680805D01*
X103538445Y-58662401D01*
X103538511Y-58660402D01*
X103540274Y-58659459D01*
X103541623Y-58660044D01*
X103596111Y-58714532D01*
X103661147Y-58757988D01*
X103733410Y-58787921D01*
X103810129Y-58803181D01*
X103888343Y-58803181D01*
X103965062Y-58787921D01*
X104037325Y-58757988D01*
X104102361Y-58714532D01*
X104156933Y-58659960D01*
X104158865Y-58659442D01*
X104160279Y-58660856D01*
G37*
G36*
X149688654Y-58510000D02*
G01*
X149688654Y-58512000D01*
X149687118Y-58512990D01*
X149662931Y-58515372D01*
X149639856Y-58522372D01*
X149618592Y-58533737D01*
X149599955Y-58549032D01*
X149584660Y-58567669D01*
X149573295Y-58588933D01*
X149566295Y-58612008D01*
X149563932Y-58635998D01*
X149566295Y-58659990D01*
X149573295Y-58683065D01*
X149584660Y-58704329D01*
X149599955Y-58722966D01*
X149618670Y-58738324D01*
X149622998Y-58741216D01*
X149623883Y-58743010D01*
X149622772Y-58744673D01*
X149621122Y-58744727D01*
X149524365Y-58704650D01*
X149418808Y-58683653D01*
X149311192Y-58683653D01*
X149205635Y-58704650D01*
X149108878Y-58744727D01*
X149106895Y-58744466D01*
X149106130Y-58742618D01*
X149107002Y-58741216D01*
X149111330Y-58738324D01*
X149130045Y-58722965D01*
X149145340Y-58704328D01*
X149156705Y-58683065D01*
X149163705Y-58659990D01*
X149166068Y-58635998D01*
X149163705Y-58612007D01*
X149156705Y-58588932D01*
X149145340Y-58567669D01*
X149130044Y-58549032D01*
X149111407Y-58533737D01*
X149090144Y-58522372D01*
X149067069Y-58515372D01*
X149042882Y-58512990D01*
X149041256Y-58511825D01*
X149041452Y-58509835D01*
X149043078Y-58509000D01*
X149686922Y-58509000D01*
X149688654Y-58510000D01*
G37*
G36*
X150807906Y-58480824D02*
G01*
X150808671Y-58482672D01*
X150807631Y-58484175D01*
X150791609Y-58492738D01*
X150772972Y-58508033D01*
X150757677Y-58526670D01*
X150746312Y-58547934D01*
X150739312Y-58571009D01*
X150736949Y-58595000D01*
X150739312Y-58618991D01*
X150746312Y-58642066D01*
X150757677Y-58663330D01*
X150772972Y-58681967D01*
X150791609Y-58697262D01*
X150807631Y-58705825D01*
X150808687Y-58707524D01*
X150807744Y-58709287D01*
X150805923Y-58709437D01*
X150794365Y-58704650D01*
X150688808Y-58683653D01*
X150581192Y-58683653D01*
X150475635Y-58704650D01*
X150464077Y-58709437D01*
X150462094Y-58709176D01*
X150461329Y-58707328D01*
X150462369Y-58705825D01*
X150478391Y-58697262D01*
X150497028Y-58681967D01*
X150512323Y-58663330D01*
X150523688Y-58642066D01*
X150530688Y-58618991D01*
X150533051Y-58595000D01*
X150530688Y-58571009D01*
X150523688Y-58547934D01*
X150512323Y-58526670D01*
X150497028Y-58508033D01*
X150478391Y-58492738D01*
X150462369Y-58484175D01*
X150461313Y-58482476D01*
X150462256Y-58480713D01*
X150464077Y-58480563D01*
X150475635Y-58485350D01*
X150581192Y-58506347D01*
X150688808Y-58506347D01*
X150794365Y-58485350D01*
X150805923Y-58480563D01*
X150807906Y-58480824D01*
G37*
G36*
X149917990Y-57637882D02*
G01*
X149920372Y-57662069D01*
X149927372Y-57685144D01*
X149938737Y-57706408D01*
X149954032Y-57725045D01*
X149972669Y-57740340D01*
X149993933Y-57751705D01*
X150017008Y-57758705D01*
X150040999Y-57761068D01*
X150064990Y-57758705D01*
X150088065Y-57751705D01*
X150109329Y-57740340D01*
X150127966Y-57725045D01*
X150143324Y-57706330D01*
X150146216Y-57702002D01*
X150148010Y-57701117D01*
X150149673Y-57702228D01*
X150149727Y-57703878D01*
X150109650Y-57800635D01*
X150088653Y-57906192D01*
X150088653Y-58013808D01*
X150109650Y-58119365D01*
X150149727Y-58216122D01*
X150149466Y-58218105D01*
X150147618Y-58218870D01*
X150146216Y-58217998D01*
X150143324Y-58213670D01*
X150127965Y-58194955D01*
X150109328Y-58179660D01*
X150088065Y-58168295D01*
X150064990Y-58161295D01*
X150040998Y-58158932D01*
X150017007Y-58161295D01*
X149993932Y-58168295D01*
X149972669Y-58179660D01*
X149954032Y-58194956D01*
X149938737Y-58213593D01*
X149927372Y-58234856D01*
X149920372Y-58257931D01*
X149917990Y-58282118D01*
X149916825Y-58283744D01*
X149914835Y-58283548D01*
X149914000Y-58281922D01*
X149914000Y-57638078D01*
X149915000Y-57636346D01*
X149917000Y-57636346D01*
X149917990Y-57637882D01*
G37*
G36*
X104260029Y-57950068D02*
G01*
X104260029Y-57952068D01*
X104258493Y-57953058D01*
X104234306Y-57955440D01*
X104211231Y-57962440D01*
X104189967Y-57973805D01*
X104171330Y-57989100D01*
X104156035Y-58007737D01*
X104144670Y-58029001D01*
X104137670Y-58052076D01*
X104135307Y-58076067D01*
X104137670Y-58100058D01*
X104144670Y-58123133D01*
X104156083Y-58144485D01*
X104158707Y-58148412D01*
X104158838Y-58150408D01*
X104157175Y-58151519D01*
X104155630Y-58150937D01*
X104102361Y-58097668D01*
X104037325Y-58054212D01*
X103965062Y-58024279D01*
X103888343Y-58009019D01*
X103810129Y-58009019D01*
X103733410Y-58024279D01*
X103661147Y-58054212D01*
X103596111Y-58097668D01*
X103542842Y-58150937D01*
X103540910Y-58151455D01*
X103539496Y-58150041D01*
X103539765Y-58148412D01*
X103542389Y-58144485D01*
X103553802Y-58123133D01*
X103560802Y-58100058D01*
X103563165Y-58076067D01*
X103560802Y-58052075D01*
X103553802Y-58029001D01*
X103542437Y-58007737D01*
X103527141Y-57989100D01*
X103508504Y-57973805D01*
X103487241Y-57962440D01*
X103464166Y-57955440D01*
X103439979Y-57953058D01*
X103438353Y-57951893D01*
X103438549Y-57949903D01*
X103440175Y-57949068D01*
X104258297Y-57949068D01*
X104260029Y-57950068D01*
G37*
G36*
X145542165Y-55408874D02*
G01*
X145543000Y-55410500D01*
X145543000Y-55466860D01*
X145542990Y-55467056D01*
X145540514Y-55492193D01*
X145540438Y-55492578D01*
X145534894Y-55510855D01*
X145534744Y-55511217D01*
X145525746Y-55528051D01*
X145525528Y-55528377D01*
X145513414Y-55543137D01*
X145513137Y-55543414D01*
X145498063Y-55555786D01*
X145497905Y-55555903D01*
X145478363Y-55568960D01*
X145461316Y-55586007D01*
X145447921Y-55606055D01*
X145438695Y-55628328D01*
X145433990Y-55651979D01*
X145433990Y-55676085D01*
X145438694Y-55699735D01*
X145447921Y-55722009D01*
X145461315Y-55742056D01*
X145478362Y-55759103D01*
X145498410Y-55772498D01*
X145520683Y-55781724D01*
X145544380Y-55786438D01*
X145556485Y-55787033D01*
X145558166Y-55788117D01*
X145558068Y-55790115D01*
X145556387Y-55791031D01*
X144783613Y-55791031D01*
X144781881Y-55790031D01*
X144781881Y-55788031D01*
X144783417Y-55787041D01*
X144807604Y-55784659D01*
X144830679Y-55777659D01*
X144851943Y-55766294D01*
X144870580Y-55750999D01*
X144885875Y-55732362D01*
X144897240Y-55711098D01*
X144904240Y-55688023D01*
X144906603Y-55664032D01*
X144904240Y-55640041D01*
X144897240Y-55616966D01*
X144885875Y-55595702D01*
X144870580Y-55577065D01*
X144851901Y-55561736D01*
X144841970Y-55555784D01*
X144841729Y-55555615D01*
X144826863Y-55543414D01*
X144826586Y-55543137D01*
X144814472Y-55528377D01*
X144814254Y-55528051D01*
X144805256Y-55511217D01*
X144805106Y-55510855D01*
X144799562Y-55492578D01*
X144799486Y-55492193D01*
X144797010Y-55467056D01*
X144797000Y-55466860D01*
X144797000Y-55410500D01*
X144798000Y-55408768D01*
X144800000Y-55408768D01*
X144800990Y-55410304D01*
X144804054Y-55441417D01*
X144813074Y-55471152D01*
X144827720Y-55498553D01*
X144847430Y-55522570D01*
X144871447Y-55542280D01*
X144898848Y-55556926D01*
X144928583Y-55565946D01*
X144959594Y-55569000D01*
X145380406Y-55569000D01*
X145411417Y-55565946D01*
X145441152Y-55556926D01*
X145468553Y-55542280D01*
X145492570Y-55522570D01*
X145512280Y-55498553D01*
X145526926Y-55471152D01*
X145535946Y-55441417D01*
X145539010Y-55410304D01*
X145540175Y-55408678D01*
X145542165Y-55408874D01*
G37*
M02*
