G04 #@! TF.GenerationSoftware,KiCad,Pcbnew,(5.1.8-0-10_14)*
G04 #@! TF.CreationDate,2021-01-18T01:09:24+08:00*
G04 #@! TF.ProjectId,stm32f401_devboard,73746d33-3266-4343-9031-5f646576626f,rev?*
G04 #@! TF.SameCoordinates,Original*
G04 #@! TF.FileFunction,Copper,L1,Top*
G04 #@! TF.FilePolarity,Positive*
%FSLAX46Y46*%
G04 Gerber Fmt 4.6, Leading zero omitted, Abs format (unit mm)*
G04 Created by KiCad (PCBNEW (5.1.8-0-10_14)) date 2021-01-18 01:09:24*
%MOMM*%
%LPD*%
G01*
G04 APERTURE LIST*
G04 #@! TA.AperFunction,SMDPad,CuDef*
%ADD10R,0.899998X1.699997*%
G04 #@! TD*
G04 #@! TA.AperFunction,SMDPad,CuDef*
%ADD11R,1.699997X0.899998*%
G04 #@! TD*
G04 #@! TA.AperFunction,ComponentPad*
%ADD12O,1.700000X1.700000*%
G04 #@! TD*
G04 #@! TA.AperFunction,ComponentPad*
%ADD13R,1.700000X1.700000*%
G04 #@! TD*
G04 #@! TA.AperFunction,SMDPad,CuDef*
%ADD14R,1.400048X1.499997*%
G04 #@! TD*
G04 #@! TA.AperFunction,SMDPad,CuDef*
%ADD15R,1.499997X2.500000*%
G04 #@! TD*
G04 #@! TA.AperFunction,SMDPad,CuDef*
%ADD16R,1.799996X0.399999*%
G04 #@! TD*
G04 #@! TA.AperFunction,SMDPad,CuDef*
%ADD17R,1.000000X1.800000*%
G04 #@! TD*
G04 #@! TA.AperFunction,SMDPad,CuDef*
%ADD18R,2.100000X1.800000*%
G04 #@! TD*
G04 #@! TA.AperFunction,ComponentPad*
%ADD19O,1.000000X1.000000*%
G04 #@! TD*
G04 #@! TA.AperFunction,ComponentPad*
%ADD20R,1.000000X1.000000*%
G04 #@! TD*
G04 #@! TA.AperFunction,SMDPad,CuDef*
%ADD21C,0.100000*%
G04 #@! TD*
G04 #@! TA.AperFunction,ViaPad*
%ADD22C,0.800000*%
G04 #@! TD*
G04 #@! TA.AperFunction,ViaPad*
%ADD23C,0.600000*%
G04 #@! TD*
G04 #@! TA.AperFunction,Conductor*
%ADD24C,0.250000*%
G04 #@! TD*
G04 #@! TA.AperFunction,Conductor*
%ADD25C,0.500000*%
G04 #@! TD*
G04 #@! TA.AperFunction,Conductor*
%ADD26C,0.254000*%
G04 #@! TD*
G04 #@! TA.AperFunction,Conductor*
%ADD27C,0.100000*%
G04 #@! TD*
G04 APERTURE END LIST*
G04 #@! TA.AperFunction,SMDPad,CuDef*
G36*
G01*
X142960000Y-63150001D02*
X142960000Y-61849999D01*
G75*
G02*
X143209999Y-61600000I249999J0D01*
G01*
X144035001Y-61600000D01*
G75*
G02*
X144285000Y-61849999I0J-249999D01*
G01*
X144285000Y-63150001D01*
G75*
G02*
X144035001Y-63400000I-249999J0D01*
G01*
X143209999Y-63400000D01*
G75*
G02*
X142960000Y-63150001I0J249999D01*
G01*
G37*
G04 #@! TD.AperFunction*
G04 #@! TA.AperFunction,SMDPad,CuDef*
G36*
G01*
X139835000Y-63150001D02*
X139835000Y-61849999D01*
G75*
G02*
X140084999Y-61600000I249999J0D01*
G01*
X140910001Y-61600000D01*
G75*
G02*
X141160000Y-61849999I0J-249999D01*
G01*
X141160000Y-63150001D01*
G75*
G02*
X140910001Y-63400000I-249999J0D01*
G01*
X140084999Y-63400000D01*
G75*
G02*
X139835000Y-63150001I0J249999D01*
G01*
G37*
G04 #@! TD.AperFunction*
G04 #@! TA.AperFunction,SMDPad,CuDef*
G36*
G01*
X145130000Y-65496250D02*
X145130000Y-64583750D01*
G75*
G02*
X145373750Y-64340000I243750J0D01*
G01*
X145861250Y-64340000D01*
G75*
G02*
X146105000Y-64583750I0J-243750D01*
G01*
X146105000Y-65496250D01*
G75*
G02*
X145861250Y-65740000I-243750J0D01*
G01*
X145373750Y-65740000D01*
G75*
G02*
X145130000Y-65496250I0J243750D01*
G01*
G37*
G04 #@! TD.AperFunction*
G04 #@! TA.AperFunction,SMDPad,CuDef*
G36*
G01*
X143255000Y-65496250D02*
X143255000Y-64583750D01*
G75*
G02*
X143498750Y-64340000I243750J0D01*
G01*
X143986250Y-64340000D01*
G75*
G02*
X144230000Y-64583750I0J-243750D01*
G01*
X144230000Y-65496250D01*
G75*
G02*
X143986250Y-65740000I-243750J0D01*
G01*
X143498750Y-65740000D01*
G75*
G02*
X143255000Y-65496250I0J243750D01*
G01*
G37*
G04 #@! TD.AperFunction*
G04 #@! TA.AperFunction,SMDPad,CuDef*
G36*
G01*
X106880000Y-56373750D02*
X106880000Y-57286250D01*
G75*
G02*
X106636250Y-57530000I-243750J0D01*
G01*
X106148750Y-57530000D01*
G75*
G02*
X105905000Y-57286250I0J243750D01*
G01*
X105905000Y-56373750D01*
G75*
G02*
X106148750Y-56130000I243750J0D01*
G01*
X106636250Y-56130000D01*
G75*
G02*
X106880000Y-56373750I0J-243750D01*
G01*
G37*
G04 #@! TD.AperFunction*
G04 #@! TA.AperFunction,SMDPad,CuDef*
G36*
G01*
X108755000Y-56373750D02*
X108755000Y-57286250D01*
G75*
G02*
X108511250Y-57530000I-243750J0D01*
G01*
X108023750Y-57530000D01*
G75*
G02*
X107780000Y-57286250I0J243750D01*
G01*
X107780000Y-56373750D01*
G75*
G02*
X108023750Y-56130000I243750J0D01*
G01*
X108511250Y-56130000D01*
G75*
G02*
X108755000Y-56373750I0J-243750D01*
G01*
G37*
G04 #@! TD.AperFunction*
G04 #@! TA.AperFunction,SMDPad,CuDef*
G36*
G01*
X107757500Y-65936250D02*
X107757500Y-65023750D01*
G75*
G02*
X108001250Y-64780000I243750J0D01*
G01*
X108488750Y-64780000D01*
G75*
G02*
X108732500Y-65023750I0J-243750D01*
G01*
X108732500Y-65936250D01*
G75*
G02*
X108488750Y-66180000I-243750J0D01*
G01*
X108001250Y-66180000D01*
G75*
G02*
X107757500Y-65936250I0J243750D01*
G01*
G37*
G04 #@! TD.AperFunction*
G04 #@! TA.AperFunction,SMDPad,CuDef*
G36*
G01*
X105882500Y-65936250D02*
X105882500Y-65023750D01*
G75*
G02*
X106126250Y-64780000I243750J0D01*
G01*
X106613750Y-64780000D01*
G75*
G02*
X106857500Y-65023750I0J-243750D01*
G01*
X106857500Y-65936250D01*
G75*
G02*
X106613750Y-66180000I-243750J0D01*
G01*
X106126250Y-66180000D01*
G75*
G02*
X105882500Y-65936250I0J243750D01*
G01*
G37*
G04 #@! TD.AperFunction*
D10*
X116249970Y-62450000D03*
X111650030Y-62450000D03*
D11*
X145160000Y-56290030D03*
X145160000Y-60889970D03*
G04 #@! TA.AperFunction,SMDPad,CuDef*
G36*
G01*
X144985000Y-54980000D02*
X145355000Y-54980000D01*
G75*
G02*
X145490000Y-55115000I0J-135000D01*
G01*
X145490000Y-55385000D01*
G75*
G02*
X145355000Y-55520000I-135000J0D01*
G01*
X144985000Y-55520000D01*
G75*
G02*
X144850000Y-55385000I0J135000D01*
G01*
X144850000Y-55115000D01*
G75*
G02*
X144985000Y-54980000I135000J0D01*
G01*
G37*
G04 #@! TD.AperFunction*
G04 #@! TA.AperFunction,SMDPad,CuDef*
G36*
G01*
X144985000Y-53960000D02*
X145355000Y-53960000D01*
G75*
G02*
X145490000Y-54095000I0J-135000D01*
G01*
X145490000Y-54365000D01*
G75*
G02*
X145355000Y-54500000I-135000J0D01*
G01*
X144985000Y-54500000D01*
G75*
G02*
X144850000Y-54365000I0J135000D01*
G01*
X144850000Y-54095000D01*
G75*
G02*
X144985000Y-53960000I135000J0D01*
G01*
G37*
G04 #@! TD.AperFunction*
G04 #@! TA.AperFunction,SMDPad,CuDef*
G36*
G01*
X141460000Y-64685000D02*
X141460000Y-65055000D01*
G75*
G02*
X141325000Y-65190000I-135000J0D01*
G01*
X141055000Y-65190000D01*
G75*
G02*
X140920000Y-65055000I0J135000D01*
G01*
X140920000Y-64685000D01*
G75*
G02*
X141055000Y-64550000I135000J0D01*
G01*
X141325000Y-64550000D01*
G75*
G02*
X141460000Y-64685000I0J-135000D01*
G01*
G37*
G04 #@! TD.AperFunction*
G04 #@! TA.AperFunction,SMDPad,CuDef*
G36*
G01*
X142480000Y-64685000D02*
X142480000Y-65055000D01*
G75*
G02*
X142345000Y-65190000I-135000J0D01*
G01*
X142075000Y-65190000D01*
G75*
G02*
X141940000Y-65055000I0J135000D01*
G01*
X141940000Y-64685000D01*
G75*
G02*
X142075000Y-64550000I135000J0D01*
G01*
X142345000Y-64550000D01*
G75*
G02*
X142480000Y-64685000I0J-135000D01*
G01*
G37*
G04 #@! TD.AperFunction*
G04 #@! TA.AperFunction,SMDPad,CuDef*
G36*
G01*
X109725000Y-55285000D02*
X109725000Y-54915000D01*
G75*
G02*
X109860000Y-54780000I135000J0D01*
G01*
X110130000Y-54780000D01*
G75*
G02*
X110265000Y-54915000I0J-135000D01*
G01*
X110265000Y-55285000D01*
G75*
G02*
X110130000Y-55420000I-135000J0D01*
G01*
X109860000Y-55420000D01*
G75*
G02*
X109725000Y-55285000I0J135000D01*
G01*
G37*
G04 #@! TD.AperFunction*
G04 #@! TA.AperFunction,SMDPad,CuDef*
G36*
G01*
X108705000Y-55285000D02*
X108705000Y-54915000D01*
G75*
G02*
X108840000Y-54780000I135000J0D01*
G01*
X109110000Y-54780000D01*
G75*
G02*
X109245000Y-54915000I0J-135000D01*
G01*
X109245000Y-55285000D01*
G75*
G02*
X109110000Y-55420000I-135000J0D01*
G01*
X108840000Y-55420000D01*
G75*
G02*
X108705000Y-55285000I0J135000D01*
G01*
G37*
G04 #@! TD.AperFunction*
G04 #@! TA.AperFunction,SMDPad,CuDef*
G36*
G01*
X104130000Y-65365000D02*
X104130000Y-65735000D01*
G75*
G02*
X103995000Y-65870000I-135000J0D01*
G01*
X103725000Y-65870000D01*
G75*
G02*
X103590000Y-65735000I0J135000D01*
G01*
X103590000Y-65365000D01*
G75*
G02*
X103725000Y-65230000I135000J0D01*
G01*
X103995000Y-65230000D01*
G75*
G02*
X104130000Y-65365000I0J-135000D01*
G01*
G37*
G04 #@! TD.AperFunction*
G04 #@! TA.AperFunction,SMDPad,CuDef*
G36*
G01*
X105150000Y-65365000D02*
X105150000Y-65735000D01*
G75*
G02*
X105015000Y-65870000I-135000J0D01*
G01*
X104745000Y-65870000D01*
G75*
G02*
X104610000Y-65735000I0J135000D01*
G01*
X104610000Y-65365000D01*
G75*
G02*
X104745000Y-65230000I135000J0D01*
G01*
X105015000Y-65230000D01*
G75*
G02*
X105150000Y-65365000I0J-135000D01*
G01*
G37*
G04 #@! TD.AperFunction*
G04 #@! TA.AperFunction,SMDPad,CuDef*
G36*
G01*
X112790000Y-54365000D02*
X112790000Y-54735000D01*
G75*
G02*
X112655000Y-54870000I-135000J0D01*
G01*
X112385000Y-54870000D01*
G75*
G02*
X112250000Y-54735000I0J135000D01*
G01*
X112250000Y-54365000D01*
G75*
G02*
X112385000Y-54230000I135000J0D01*
G01*
X112655000Y-54230000D01*
G75*
G02*
X112790000Y-54365000I0J-135000D01*
G01*
G37*
G04 #@! TD.AperFunction*
G04 #@! TA.AperFunction,SMDPad,CuDef*
G36*
G01*
X113810000Y-54365000D02*
X113810000Y-54735000D01*
G75*
G02*
X113675000Y-54870000I-135000J0D01*
G01*
X113405000Y-54870000D01*
G75*
G02*
X113270000Y-54735000I0J135000D01*
G01*
X113270000Y-54365000D01*
G75*
G02*
X113405000Y-54230000I135000J0D01*
G01*
X113675000Y-54230000D01*
G75*
G02*
X113810000Y-54365000I0J-135000D01*
G01*
G37*
G04 #@! TD.AperFunction*
G04 #@! TA.AperFunction,SMDPad,CuDef*
G36*
G01*
X135020000Y-60950000D02*
X135020000Y-61290000D01*
G75*
G02*
X134880000Y-61430000I-140000J0D01*
G01*
X134600000Y-61430000D01*
G75*
G02*
X134460000Y-61290000I0J140000D01*
G01*
X134460000Y-60950000D01*
G75*
G02*
X134600000Y-60810000I140000J0D01*
G01*
X134880000Y-60810000D01*
G75*
G02*
X135020000Y-60950000I0J-140000D01*
G01*
G37*
G04 #@! TD.AperFunction*
G04 #@! TA.AperFunction,SMDPad,CuDef*
G36*
G01*
X135980000Y-60950000D02*
X135980000Y-61290000D01*
G75*
G02*
X135840000Y-61430000I-140000J0D01*
G01*
X135560000Y-61430000D01*
G75*
G02*
X135420000Y-61290000I0J140000D01*
G01*
X135420000Y-60950000D01*
G75*
G02*
X135560000Y-60810000I140000J0D01*
G01*
X135840000Y-60810000D01*
G75*
G02*
X135980000Y-60950000I0J-140000D01*
G01*
G37*
G04 #@! TD.AperFunction*
G04 #@! TA.AperFunction,SMDPad,CuDef*
G36*
G01*
X137350000Y-61290000D02*
X137350000Y-60950000D01*
G75*
G02*
X137490000Y-60810000I140000J0D01*
G01*
X137770000Y-60810000D01*
G75*
G02*
X137910000Y-60950000I0J-140000D01*
G01*
X137910000Y-61290000D01*
G75*
G02*
X137770000Y-61430000I-140000J0D01*
G01*
X137490000Y-61430000D01*
G75*
G02*
X137350000Y-61290000I0J140000D01*
G01*
G37*
G04 #@! TD.AperFunction*
G04 #@! TA.AperFunction,SMDPad,CuDef*
G36*
G01*
X136390000Y-61290000D02*
X136390000Y-60950000D01*
G75*
G02*
X136530000Y-60810000I140000J0D01*
G01*
X136810000Y-60810000D01*
G75*
G02*
X136950000Y-60950000I0J-140000D01*
G01*
X136950000Y-61290000D01*
G75*
G02*
X136810000Y-61430000I-140000J0D01*
G01*
X136530000Y-61430000D01*
G75*
G02*
X136390000Y-61290000I0J140000D01*
G01*
G37*
G04 #@! TD.AperFunction*
G04 #@! TA.AperFunction,SMDPad,CuDef*
G36*
G01*
X142180000Y-56590000D02*
X141840000Y-56590000D01*
G75*
G02*
X141700000Y-56450000I0J140000D01*
G01*
X141700000Y-56170000D01*
G75*
G02*
X141840000Y-56030000I140000J0D01*
G01*
X142180000Y-56030000D01*
G75*
G02*
X142320000Y-56170000I0J-140000D01*
G01*
X142320000Y-56450000D01*
G75*
G02*
X142180000Y-56590000I-140000J0D01*
G01*
G37*
G04 #@! TD.AperFunction*
G04 #@! TA.AperFunction,SMDPad,CuDef*
G36*
G01*
X142180000Y-57550000D02*
X141840000Y-57550000D01*
G75*
G02*
X141700000Y-57410000I0J140000D01*
G01*
X141700000Y-57130000D01*
G75*
G02*
X141840000Y-56990000I140000J0D01*
G01*
X142180000Y-56990000D01*
G75*
G02*
X142320000Y-57130000I0J-140000D01*
G01*
X142320000Y-57410000D01*
G75*
G02*
X142180000Y-57550000I-140000J0D01*
G01*
G37*
G04 #@! TD.AperFunction*
G04 #@! TA.AperFunction,SMDPad,CuDef*
G36*
G01*
X138330000Y-59550000D02*
X138330000Y-59890000D01*
G75*
G02*
X138190000Y-60030000I-140000J0D01*
G01*
X137910000Y-60030000D01*
G75*
G02*
X137770000Y-59890000I0J140000D01*
G01*
X137770000Y-59550000D01*
G75*
G02*
X137910000Y-59410000I140000J0D01*
G01*
X138190000Y-59410000D01*
G75*
G02*
X138330000Y-59550000I0J-140000D01*
G01*
G37*
G04 #@! TD.AperFunction*
G04 #@! TA.AperFunction,SMDPad,CuDef*
G36*
G01*
X139290000Y-59550000D02*
X139290000Y-59890000D01*
G75*
G02*
X139150000Y-60030000I-140000J0D01*
G01*
X138870000Y-60030000D01*
G75*
G02*
X138730000Y-59890000I0J140000D01*
G01*
X138730000Y-59550000D01*
G75*
G02*
X138870000Y-59410000I140000J0D01*
G01*
X139150000Y-59410000D01*
G75*
G02*
X139290000Y-59550000I0J-140000D01*
G01*
G37*
G04 #@! TD.AperFunction*
D12*
X150760000Y-69000000D03*
X148220000Y-69000000D03*
X145680000Y-69000000D03*
X143140000Y-69000000D03*
X140600000Y-69000000D03*
X138060000Y-69000000D03*
X135520000Y-69000000D03*
X132980000Y-69000000D03*
X130440000Y-69000000D03*
X127900000Y-69000000D03*
X125360000Y-69000000D03*
X122820000Y-69000000D03*
X120280000Y-69000000D03*
X117740000Y-69000000D03*
X115200000Y-69000000D03*
X112660000Y-69000000D03*
X110120000Y-69000000D03*
X107580000Y-69000000D03*
X105040000Y-69000000D03*
D13*
X102500000Y-69000000D03*
D12*
X150760000Y-52000000D03*
X148220000Y-52000000D03*
X145680000Y-52000000D03*
X143140000Y-52000000D03*
X140600000Y-52000000D03*
X138060000Y-52000000D03*
X135520000Y-52000000D03*
X132980000Y-52000000D03*
X130440000Y-52000000D03*
X127900000Y-52000000D03*
X125360000Y-52000000D03*
X122820000Y-52000000D03*
X120280000Y-52000000D03*
X117740000Y-52000000D03*
X115200000Y-52000000D03*
X112660000Y-52000000D03*
X110120000Y-52000000D03*
X107580000Y-52000000D03*
X105040000Y-52000000D03*
D13*
X102500000Y-52000000D03*
D10*
X112450030Y-57200000D03*
X117049970Y-57200000D03*
D14*
X103930516Y-57150070D03*
X103930516Y-63649930D03*
D15*
X101189602Y-56325078D03*
X101189602Y-64474922D03*
D16*
X104510652Y-59103584D03*
X104510652Y-59753824D03*
X104510652Y-60404064D03*
X104510652Y-61054304D03*
X104510652Y-61704544D03*
D17*
X134960000Y-62840000D03*
X137460000Y-62840000D03*
D18*
X137060000Y-55620000D03*
X139960000Y-55620000D03*
X139960000Y-57920000D03*
X137060000Y-57920000D03*
D19*
X149365000Y-63040000D03*
X150635000Y-63040000D03*
X149365000Y-61770000D03*
X150635000Y-61770000D03*
X149365000Y-60500000D03*
X150635000Y-60500000D03*
X149365000Y-59230000D03*
X150635000Y-59230000D03*
X150635000Y-57960000D03*
D20*
X149365000Y-57960000D03*
G04 #@! TA.AperFunction,SMDPad,CuDef*
D21*
G36*
X127300000Y-56540202D02*
G01*
X131259798Y-60500000D01*
X127300000Y-64459798D01*
X123340202Y-60500000D01*
X127300000Y-56540202D01*
G37*
G04 #@! TD.AperFunction*
G04 #@! TA.AperFunction,SMDPad,CuDef*
G36*
G01*
X131498446Y-60632583D02*
X132028776Y-61162913D01*
G75*
G02*
X132028776Y-61251301I-44194J-44194D01*
G01*
X131940388Y-61339689D01*
G75*
G02*
X131852000Y-61339689I-44194J44194D01*
G01*
X131321670Y-60809359D01*
G75*
G02*
X131321670Y-60720971I44194J44194D01*
G01*
X131410058Y-60632583D01*
G75*
G02*
X131498446Y-60632583I44194J-44194D01*
G01*
G37*
G04 #@! TD.AperFunction*
G04 #@! TA.AperFunction,SMDPad,CuDef*
G36*
G01*
X131144893Y-60986136D02*
X131675223Y-61516466D01*
G75*
G02*
X131675223Y-61604854I-44194J-44194D01*
G01*
X131586835Y-61693242D01*
G75*
G02*
X131498447Y-61693242I-44194J44194D01*
G01*
X130968117Y-61162912D01*
G75*
G02*
X130968117Y-61074524I44194J44194D01*
G01*
X131056505Y-60986136D01*
G75*
G02*
X131144893Y-60986136I44194J-44194D01*
G01*
G37*
G04 #@! TD.AperFunction*
G04 #@! TA.AperFunction,SMDPad,CuDef*
G36*
G01*
X130791339Y-61339690D02*
X131321669Y-61870020D01*
G75*
G02*
X131321669Y-61958408I-44194J-44194D01*
G01*
X131233281Y-62046796D01*
G75*
G02*
X131144893Y-62046796I-44194J44194D01*
G01*
X130614563Y-61516466D01*
G75*
G02*
X130614563Y-61428078I44194J44194D01*
G01*
X130702951Y-61339690D01*
G75*
G02*
X130791339Y-61339690I44194J-44194D01*
G01*
G37*
G04 #@! TD.AperFunction*
G04 #@! TA.AperFunction,SMDPad,CuDef*
G36*
G01*
X130437786Y-61693243D02*
X130968116Y-62223573D01*
G75*
G02*
X130968116Y-62311961I-44194J-44194D01*
G01*
X130879728Y-62400349D01*
G75*
G02*
X130791340Y-62400349I-44194J44194D01*
G01*
X130261010Y-61870019D01*
G75*
G02*
X130261010Y-61781631I44194J44194D01*
G01*
X130349398Y-61693243D01*
G75*
G02*
X130437786Y-61693243I44194J-44194D01*
G01*
G37*
G04 #@! TD.AperFunction*
G04 #@! TA.AperFunction,SMDPad,CuDef*
G36*
G01*
X130084233Y-62046796D02*
X130614563Y-62577126D01*
G75*
G02*
X130614563Y-62665514I-44194J-44194D01*
G01*
X130526175Y-62753902D01*
G75*
G02*
X130437787Y-62753902I-44194J44194D01*
G01*
X129907457Y-62223572D01*
G75*
G02*
X129907457Y-62135184I44194J44194D01*
G01*
X129995845Y-62046796D01*
G75*
G02*
X130084233Y-62046796I44194J-44194D01*
G01*
G37*
G04 #@! TD.AperFunction*
G04 #@! TA.AperFunction,SMDPad,CuDef*
G36*
G01*
X129730679Y-62400350D02*
X130261009Y-62930680D01*
G75*
G02*
X130261009Y-63019068I-44194J-44194D01*
G01*
X130172621Y-63107456D01*
G75*
G02*
X130084233Y-63107456I-44194J44194D01*
G01*
X129553903Y-62577126D01*
G75*
G02*
X129553903Y-62488738I44194J44194D01*
G01*
X129642291Y-62400350D01*
G75*
G02*
X129730679Y-62400350I44194J-44194D01*
G01*
G37*
G04 #@! TD.AperFunction*
G04 #@! TA.AperFunction,SMDPad,CuDef*
G36*
G01*
X129377126Y-62753903D02*
X129907456Y-63284233D01*
G75*
G02*
X129907456Y-63372621I-44194J-44194D01*
G01*
X129819068Y-63461009D01*
G75*
G02*
X129730680Y-63461009I-44194J44194D01*
G01*
X129200350Y-62930679D01*
G75*
G02*
X129200350Y-62842291I44194J44194D01*
G01*
X129288738Y-62753903D01*
G75*
G02*
X129377126Y-62753903I44194J-44194D01*
G01*
G37*
G04 #@! TD.AperFunction*
G04 #@! TA.AperFunction,SMDPad,CuDef*
G36*
G01*
X129023572Y-63107457D02*
X129553902Y-63637787D01*
G75*
G02*
X129553902Y-63726175I-44194J-44194D01*
G01*
X129465514Y-63814563D01*
G75*
G02*
X129377126Y-63814563I-44194J44194D01*
G01*
X128846796Y-63284233D01*
G75*
G02*
X128846796Y-63195845I44194J44194D01*
G01*
X128935184Y-63107457D01*
G75*
G02*
X129023572Y-63107457I44194J-44194D01*
G01*
G37*
G04 #@! TD.AperFunction*
G04 #@! TA.AperFunction,SMDPad,CuDef*
G36*
G01*
X128670019Y-63461010D02*
X129200349Y-63991340D01*
G75*
G02*
X129200349Y-64079728I-44194J-44194D01*
G01*
X129111961Y-64168116D01*
G75*
G02*
X129023573Y-64168116I-44194J44194D01*
G01*
X128493243Y-63637786D01*
G75*
G02*
X128493243Y-63549398I44194J44194D01*
G01*
X128581631Y-63461010D01*
G75*
G02*
X128670019Y-63461010I44194J-44194D01*
G01*
G37*
G04 #@! TD.AperFunction*
G04 #@! TA.AperFunction,SMDPad,CuDef*
G36*
G01*
X128316466Y-63814563D02*
X128846796Y-64344893D01*
G75*
G02*
X128846796Y-64433281I-44194J-44194D01*
G01*
X128758408Y-64521669D01*
G75*
G02*
X128670020Y-64521669I-44194J44194D01*
G01*
X128139690Y-63991339D01*
G75*
G02*
X128139690Y-63902951I44194J44194D01*
G01*
X128228078Y-63814563D01*
G75*
G02*
X128316466Y-63814563I44194J-44194D01*
G01*
G37*
G04 #@! TD.AperFunction*
G04 #@! TA.AperFunction,SMDPad,CuDef*
G36*
G01*
X127962912Y-64168117D02*
X128493242Y-64698447D01*
G75*
G02*
X128493242Y-64786835I-44194J-44194D01*
G01*
X128404854Y-64875223D01*
G75*
G02*
X128316466Y-64875223I-44194J44194D01*
G01*
X127786136Y-64344893D01*
G75*
G02*
X127786136Y-64256505I44194J44194D01*
G01*
X127874524Y-64168117D01*
G75*
G02*
X127962912Y-64168117I44194J-44194D01*
G01*
G37*
G04 #@! TD.AperFunction*
G04 #@! TA.AperFunction,SMDPad,CuDef*
G36*
G01*
X127609359Y-64521670D02*
X128139689Y-65052000D01*
G75*
G02*
X128139689Y-65140388I-44194J-44194D01*
G01*
X128051301Y-65228776D01*
G75*
G02*
X127962913Y-65228776I-44194J44194D01*
G01*
X127432583Y-64698446D01*
G75*
G02*
X127432583Y-64610058I44194J44194D01*
G01*
X127520971Y-64521670D01*
G75*
G02*
X127609359Y-64521670I44194J-44194D01*
G01*
G37*
G04 #@! TD.AperFunction*
G04 #@! TA.AperFunction,SMDPad,CuDef*
G36*
G01*
X127079029Y-64521670D02*
X127167417Y-64610058D01*
G75*
G02*
X127167417Y-64698446I-44194J-44194D01*
G01*
X126637087Y-65228776D01*
G75*
G02*
X126548699Y-65228776I-44194J44194D01*
G01*
X126460311Y-65140388D01*
G75*
G02*
X126460311Y-65052000I44194J44194D01*
G01*
X126990641Y-64521670D01*
G75*
G02*
X127079029Y-64521670I44194J-44194D01*
G01*
G37*
G04 #@! TD.AperFunction*
G04 #@! TA.AperFunction,SMDPad,CuDef*
G36*
G01*
X126725476Y-64168117D02*
X126813864Y-64256505D01*
G75*
G02*
X126813864Y-64344893I-44194J-44194D01*
G01*
X126283534Y-64875223D01*
G75*
G02*
X126195146Y-64875223I-44194J44194D01*
G01*
X126106758Y-64786835D01*
G75*
G02*
X126106758Y-64698447I44194J44194D01*
G01*
X126637088Y-64168117D01*
G75*
G02*
X126725476Y-64168117I44194J-44194D01*
G01*
G37*
G04 #@! TD.AperFunction*
G04 #@! TA.AperFunction,SMDPad,CuDef*
G36*
G01*
X126371922Y-63814563D02*
X126460310Y-63902951D01*
G75*
G02*
X126460310Y-63991339I-44194J-44194D01*
G01*
X125929980Y-64521669D01*
G75*
G02*
X125841592Y-64521669I-44194J44194D01*
G01*
X125753204Y-64433281D01*
G75*
G02*
X125753204Y-64344893I44194J44194D01*
G01*
X126283534Y-63814563D01*
G75*
G02*
X126371922Y-63814563I44194J-44194D01*
G01*
G37*
G04 #@! TD.AperFunction*
G04 #@! TA.AperFunction,SMDPad,CuDef*
G36*
G01*
X126018369Y-63461010D02*
X126106757Y-63549398D01*
G75*
G02*
X126106757Y-63637786I-44194J-44194D01*
G01*
X125576427Y-64168116D01*
G75*
G02*
X125488039Y-64168116I-44194J44194D01*
G01*
X125399651Y-64079728D01*
G75*
G02*
X125399651Y-63991340I44194J44194D01*
G01*
X125929981Y-63461010D01*
G75*
G02*
X126018369Y-63461010I44194J-44194D01*
G01*
G37*
G04 #@! TD.AperFunction*
G04 #@! TA.AperFunction,SMDPad,CuDef*
G36*
G01*
X125664816Y-63107457D02*
X125753204Y-63195845D01*
G75*
G02*
X125753204Y-63284233I-44194J-44194D01*
G01*
X125222874Y-63814563D01*
G75*
G02*
X125134486Y-63814563I-44194J44194D01*
G01*
X125046098Y-63726175D01*
G75*
G02*
X125046098Y-63637787I44194J44194D01*
G01*
X125576428Y-63107457D01*
G75*
G02*
X125664816Y-63107457I44194J-44194D01*
G01*
G37*
G04 #@! TD.AperFunction*
G04 #@! TA.AperFunction,SMDPad,CuDef*
G36*
G01*
X125311262Y-62753903D02*
X125399650Y-62842291D01*
G75*
G02*
X125399650Y-62930679I-44194J-44194D01*
G01*
X124869320Y-63461009D01*
G75*
G02*
X124780932Y-63461009I-44194J44194D01*
G01*
X124692544Y-63372621D01*
G75*
G02*
X124692544Y-63284233I44194J44194D01*
G01*
X125222874Y-62753903D01*
G75*
G02*
X125311262Y-62753903I44194J-44194D01*
G01*
G37*
G04 #@! TD.AperFunction*
G04 #@! TA.AperFunction,SMDPad,CuDef*
G36*
G01*
X124957709Y-62400350D02*
X125046097Y-62488738D01*
G75*
G02*
X125046097Y-62577126I-44194J-44194D01*
G01*
X124515767Y-63107456D01*
G75*
G02*
X124427379Y-63107456I-44194J44194D01*
G01*
X124338991Y-63019068D01*
G75*
G02*
X124338991Y-62930680I44194J44194D01*
G01*
X124869321Y-62400350D01*
G75*
G02*
X124957709Y-62400350I44194J-44194D01*
G01*
G37*
G04 #@! TD.AperFunction*
G04 #@! TA.AperFunction,SMDPad,CuDef*
G36*
G01*
X124604155Y-62046796D02*
X124692543Y-62135184D01*
G75*
G02*
X124692543Y-62223572I-44194J-44194D01*
G01*
X124162213Y-62753902D01*
G75*
G02*
X124073825Y-62753902I-44194J44194D01*
G01*
X123985437Y-62665514D01*
G75*
G02*
X123985437Y-62577126I44194J44194D01*
G01*
X124515767Y-62046796D01*
G75*
G02*
X124604155Y-62046796I44194J-44194D01*
G01*
G37*
G04 #@! TD.AperFunction*
G04 #@! TA.AperFunction,SMDPad,CuDef*
G36*
G01*
X124250602Y-61693243D02*
X124338990Y-61781631D01*
G75*
G02*
X124338990Y-61870019I-44194J-44194D01*
G01*
X123808660Y-62400349D01*
G75*
G02*
X123720272Y-62400349I-44194J44194D01*
G01*
X123631884Y-62311961D01*
G75*
G02*
X123631884Y-62223573I44194J44194D01*
G01*
X124162214Y-61693243D01*
G75*
G02*
X124250602Y-61693243I44194J-44194D01*
G01*
G37*
G04 #@! TD.AperFunction*
G04 #@! TA.AperFunction,SMDPad,CuDef*
G36*
G01*
X123897049Y-61339690D02*
X123985437Y-61428078D01*
G75*
G02*
X123985437Y-61516466I-44194J-44194D01*
G01*
X123455107Y-62046796D01*
G75*
G02*
X123366719Y-62046796I-44194J44194D01*
G01*
X123278331Y-61958408D01*
G75*
G02*
X123278331Y-61870020I44194J44194D01*
G01*
X123808661Y-61339690D01*
G75*
G02*
X123897049Y-61339690I44194J-44194D01*
G01*
G37*
G04 #@! TD.AperFunction*
G04 #@! TA.AperFunction,SMDPad,CuDef*
G36*
G01*
X123543495Y-60986136D02*
X123631883Y-61074524D01*
G75*
G02*
X123631883Y-61162912I-44194J-44194D01*
G01*
X123101553Y-61693242D01*
G75*
G02*
X123013165Y-61693242I-44194J44194D01*
G01*
X122924777Y-61604854D01*
G75*
G02*
X122924777Y-61516466I44194J44194D01*
G01*
X123455107Y-60986136D01*
G75*
G02*
X123543495Y-60986136I44194J-44194D01*
G01*
G37*
G04 #@! TD.AperFunction*
G04 #@! TA.AperFunction,SMDPad,CuDef*
G36*
G01*
X123189942Y-60632583D02*
X123278330Y-60720971D01*
G75*
G02*
X123278330Y-60809359I-44194J-44194D01*
G01*
X122748000Y-61339689D01*
G75*
G02*
X122659612Y-61339689I-44194J44194D01*
G01*
X122571224Y-61251301D01*
G75*
G02*
X122571224Y-61162913I44194J44194D01*
G01*
X123101554Y-60632583D01*
G75*
G02*
X123189942Y-60632583I44194J-44194D01*
G01*
G37*
G04 #@! TD.AperFunction*
G04 #@! TA.AperFunction,SMDPad,CuDef*
G36*
G01*
X122748000Y-59660311D02*
X123278330Y-60190641D01*
G75*
G02*
X123278330Y-60279029I-44194J-44194D01*
G01*
X123189942Y-60367417D01*
G75*
G02*
X123101554Y-60367417I-44194J44194D01*
G01*
X122571224Y-59837087D01*
G75*
G02*
X122571224Y-59748699I44194J44194D01*
G01*
X122659612Y-59660311D01*
G75*
G02*
X122748000Y-59660311I44194J-44194D01*
G01*
G37*
G04 #@! TD.AperFunction*
G04 #@! TA.AperFunction,SMDPad,CuDef*
G36*
G01*
X123101553Y-59306758D02*
X123631883Y-59837088D01*
G75*
G02*
X123631883Y-59925476I-44194J-44194D01*
G01*
X123543495Y-60013864D01*
G75*
G02*
X123455107Y-60013864I-44194J44194D01*
G01*
X122924777Y-59483534D01*
G75*
G02*
X122924777Y-59395146I44194J44194D01*
G01*
X123013165Y-59306758D01*
G75*
G02*
X123101553Y-59306758I44194J-44194D01*
G01*
G37*
G04 #@! TD.AperFunction*
G04 #@! TA.AperFunction,SMDPad,CuDef*
G36*
G01*
X123455107Y-58953204D02*
X123985437Y-59483534D01*
G75*
G02*
X123985437Y-59571922I-44194J-44194D01*
G01*
X123897049Y-59660310D01*
G75*
G02*
X123808661Y-59660310I-44194J44194D01*
G01*
X123278331Y-59129980D01*
G75*
G02*
X123278331Y-59041592I44194J44194D01*
G01*
X123366719Y-58953204D01*
G75*
G02*
X123455107Y-58953204I44194J-44194D01*
G01*
G37*
G04 #@! TD.AperFunction*
G04 #@! TA.AperFunction,SMDPad,CuDef*
G36*
G01*
X123808660Y-58599651D02*
X124338990Y-59129981D01*
G75*
G02*
X124338990Y-59218369I-44194J-44194D01*
G01*
X124250602Y-59306757D01*
G75*
G02*
X124162214Y-59306757I-44194J44194D01*
G01*
X123631884Y-58776427D01*
G75*
G02*
X123631884Y-58688039I44194J44194D01*
G01*
X123720272Y-58599651D01*
G75*
G02*
X123808660Y-58599651I44194J-44194D01*
G01*
G37*
G04 #@! TD.AperFunction*
G04 #@! TA.AperFunction,SMDPad,CuDef*
G36*
G01*
X124162213Y-58246098D02*
X124692543Y-58776428D01*
G75*
G02*
X124692543Y-58864816I-44194J-44194D01*
G01*
X124604155Y-58953204D01*
G75*
G02*
X124515767Y-58953204I-44194J44194D01*
G01*
X123985437Y-58422874D01*
G75*
G02*
X123985437Y-58334486I44194J44194D01*
G01*
X124073825Y-58246098D01*
G75*
G02*
X124162213Y-58246098I44194J-44194D01*
G01*
G37*
G04 #@! TD.AperFunction*
G04 #@! TA.AperFunction,SMDPad,CuDef*
G36*
G01*
X124515767Y-57892544D02*
X125046097Y-58422874D01*
G75*
G02*
X125046097Y-58511262I-44194J-44194D01*
G01*
X124957709Y-58599650D01*
G75*
G02*
X124869321Y-58599650I-44194J44194D01*
G01*
X124338991Y-58069320D01*
G75*
G02*
X124338991Y-57980932I44194J44194D01*
G01*
X124427379Y-57892544D01*
G75*
G02*
X124515767Y-57892544I44194J-44194D01*
G01*
G37*
G04 #@! TD.AperFunction*
G04 #@! TA.AperFunction,SMDPad,CuDef*
G36*
G01*
X124869320Y-57538991D02*
X125399650Y-58069321D01*
G75*
G02*
X125399650Y-58157709I-44194J-44194D01*
G01*
X125311262Y-58246097D01*
G75*
G02*
X125222874Y-58246097I-44194J44194D01*
G01*
X124692544Y-57715767D01*
G75*
G02*
X124692544Y-57627379I44194J44194D01*
G01*
X124780932Y-57538991D01*
G75*
G02*
X124869320Y-57538991I44194J-44194D01*
G01*
G37*
G04 #@! TD.AperFunction*
G04 #@! TA.AperFunction,SMDPad,CuDef*
G36*
G01*
X125222874Y-57185437D02*
X125753204Y-57715767D01*
G75*
G02*
X125753204Y-57804155I-44194J-44194D01*
G01*
X125664816Y-57892543D01*
G75*
G02*
X125576428Y-57892543I-44194J44194D01*
G01*
X125046098Y-57362213D01*
G75*
G02*
X125046098Y-57273825I44194J44194D01*
G01*
X125134486Y-57185437D01*
G75*
G02*
X125222874Y-57185437I44194J-44194D01*
G01*
G37*
G04 #@! TD.AperFunction*
G04 #@! TA.AperFunction,SMDPad,CuDef*
G36*
G01*
X125576427Y-56831884D02*
X126106757Y-57362214D01*
G75*
G02*
X126106757Y-57450602I-44194J-44194D01*
G01*
X126018369Y-57538990D01*
G75*
G02*
X125929981Y-57538990I-44194J44194D01*
G01*
X125399651Y-57008660D01*
G75*
G02*
X125399651Y-56920272I44194J44194D01*
G01*
X125488039Y-56831884D01*
G75*
G02*
X125576427Y-56831884I44194J-44194D01*
G01*
G37*
G04 #@! TD.AperFunction*
G04 #@! TA.AperFunction,SMDPad,CuDef*
G36*
G01*
X125929980Y-56478331D02*
X126460310Y-57008661D01*
G75*
G02*
X126460310Y-57097049I-44194J-44194D01*
G01*
X126371922Y-57185437D01*
G75*
G02*
X126283534Y-57185437I-44194J44194D01*
G01*
X125753204Y-56655107D01*
G75*
G02*
X125753204Y-56566719I44194J44194D01*
G01*
X125841592Y-56478331D01*
G75*
G02*
X125929980Y-56478331I44194J-44194D01*
G01*
G37*
G04 #@! TD.AperFunction*
G04 #@! TA.AperFunction,SMDPad,CuDef*
G36*
G01*
X126283534Y-56124777D02*
X126813864Y-56655107D01*
G75*
G02*
X126813864Y-56743495I-44194J-44194D01*
G01*
X126725476Y-56831883D01*
G75*
G02*
X126637088Y-56831883I-44194J44194D01*
G01*
X126106758Y-56301553D01*
G75*
G02*
X126106758Y-56213165I44194J44194D01*
G01*
X126195146Y-56124777D01*
G75*
G02*
X126283534Y-56124777I44194J-44194D01*
G01*
G37*
G04 #@! TD.AperFunction*
G04 #@! TA.AperFunction,SMDPad,CuDef*
G36*
G01*
X126637087Y-55771224D02*
X127167417Y-56301554D01*
G75*
G02*
X127167417Y-56389942I-44194J-44194D01*
G01*
X127079029Y-56478330D01*
G75*
G02*
X126990641Y-56478330I-44194J44194D01*
G01*
X126460311Y-55948000D01*
G75*
G02*
X126460311Y-55859612I44194J44194D01*
G01*
X126548699Y-55771224D01*
G75*
G02*
X126637087Y-55771224I44194J-44194D01*
G01*
G37*
G04 #@! TD.AperFunction*
G04 #@! TA.AperFunction,SMDPad,CuDef*
G36*
G01*
X128051301Y-55771224D02*
X128139689Y-55859612D01*
G75*
G02*
X128139689Y-55948000I-44194J-44194D01*
G01*
X127609359Y-56478330D01*
G75*
G02*
X127520971Y-56478330I-44194J44194D01*
G01*
X127432583Y-56389942D01*
G75*
G02*
X127432583Y-56301554I44194J44194D01*
G01*
X127962913Y-55771224D01*
G75*
G02*
X128051301Y-55771224I44194J-44194D01*
G01*
G37*
G04 #@! TD.AperFunction*
G04 #@! TA.AperFunction,SMDPad,CuDef*
G36*
G01*
X128404854Y-56124777D02*
X128493242Y-56213165D01*
G75*
G02*
X128493242Y-56301553I-44194J-44194D01*
G01*
X127962912Y-56831883D01*
G75*
G02*
X127874524Y-56831883I-44194J44194D01*
G01*
X127786136Y-56743495D01*
G75*
G02*
X127786136Y-56655107I44194J44194D01*
G01*
X128316466Y-56124777D01*
G75*
G02*
X128404854Y-56124777I44194J-44194D01*
G01*
G37*
G04 #@! TD.AperFunction*
G04 #@! TA.AperFunction,SMDPad,CuDef*
G36*
G01*
X128758408Y-56478331D02*
X128846796Y-56566719D01*
G75*
G02*
X128846796Y-56655107I-44194J-44194D01*
G01*
X128316466Y-57185437D01*
G75*
G02*
X128228078Y-57185437I-44194J44194D01*
G01*
X128139690Y-57097049D01*
G75*
G02*
X128139690Y-57008661I44194J44194D01*
G01*
X128670020Y-56478331D01*
G75*
G02*
X128758408Y-56478331I44194J-44194D01*
G01*
G37*
G04 #@! TD.AperFunction*
G04 #@! TA.AperFunction,SMDPad,CuDef*
G36*
G01*
X129111961Y-56831884D02*
X129200349Y-56920272D01*
G75*
G02*
X129200349Y-57008660I-44194J-44194D01*
G01*
X128670019Y-57538990D01*
G75*
G02*
X128581631Y-57538990I-44194J44194D01*
G01*
X128493243Y-57450602D01*
G75*
G02*
X128493243Y-57362214I44194J44194D01*
G01*
X129023573Y-56831884D01*
G75*
G02*
X129111961Y-56831884I44194J-44194D01*
G01*
G37*
G04 #@! TD.AperFunction*
G04 #@! TA.AperFunction,SMDPad,CuDef*
G36*
G01*
X129465514Y-57185437D02*
X129553902Y-57273825D01*
G75*
G02*
X129553902Y-57362213I-44194J-44194D01*
G01*
X129023572Y-57892543D01*
G75*
G02*
X128935184Y-57892543I-44194J44194D01*
G01*
X128846796Y-57804155D01*
G75*
G02*
X128846796Y-57715767I44194J44194D01*
G01*
X129377126Y-57185437D01*
G75*
G02*
X129465514Y-57185437I44194J-44194D01*
G01*
G37*
G04 #@! TD.AperFunction*
G04 #@! TA.AperFunction,SMDPad,CuDef*
G36*
G01*
X129819068Y-57538991D02*
X129907456Y-57627379D01*
G75*
G02*
X129907456Y-57715767I-44194J-44194D01*
G01*
X129377126Y-58246097D01*
G75*
G02*
X129288738Y-58246097I-44194J44194D01*
G01*
X129200350Y-58157709D01*
G75*
G02*
X129200350Y-58069321I44194J44194D01*
G01*
X129730680Y-57538991D01*
G75*
G02*
X129819068Y-57538991I44194J-44194D01*
G01*
G37*
G04 #@! TD.AperFunction*
G04 #@! TA.AperFunction,SMDPad,CuDef*
G36*
G01*
X130172621Y-57892544D02*
X130261009Y-57980932D01*
G75*
G02*
X130261009Y-58069320I-44194J-44194D01*
G01*
X129730679Y-58599650D01*
G75*
G02*
X129642291Y-58599650I-44194J44194D01*
G01*
X129553903Y-58511262D01*
G75*
G02*
X129553903Y-58422874I44194J44194D01*
G01*
X130084233Y-57892544D01*
G75*
G02*
X130172621Y-57892544I44194J-44194D01*
G01*
G37*
G04 #@! TD.AperFunction*
G04 #@! TA.AperFunction,SMDPad,CuDef*
G36*
G01*
X130526175Y-58246098D02*
X130614563Y-58334486D01*
G75*
G02*
X130614563Y-58422874I-44194J-44194D01*
G01*
X130084233Y-58953204D01*
G75*
G02*
X129995845Y-58953204I-44194J44194D01*
G01*
X129907457Y-58864816D01*
G75*
G02*
X129907457Y-58776428I44194J44194D01*
G01*
X130437787Y-58246098D01*
G75*
G02*
X130526175Y-58246098I44194J-44194D01*
G01*
G37*
G04 #@! TD.AperFunction*
G04 #@! TA.AperFunction,SMDPad,CuDef*
G36*
G01*
X130879728Y-58599651D02*
X130968116Y-58688039D01*
G75*
G02*
X130968116Y-58776427I-44194J-44194D01*
G01*
X130437786Y-59306757D01*
G75*
G02*
X130349398Y-59306757I-44194J44194D01*
G01*
X130261010Y-59218369D01*
G75*
G02*
X130261010Y-59129981I44194J44194D01*
G01*
X130791340Y-58599651D01*
G75*
G02*
X130879728Y-58599651I44194J-44194D01*
G01*
G37*
G04 #@! TD.AperFunction*
G04 #@! TA.AperFunction,SMDPad,CuDef*
G36*
G01*
X131233281Y-58953204D02*
X131321669Y-59041592D01*
G75*
G02*
X131321669Y-59129980I-44194J-44194D01*
G01*
X130791339Y-59660310D01*
G75*
G02*
X130702951Y-59660310I-44194J44194D01*
G01*
X130614563Y-59571922D01*
G75*
G02*
X130614563Y-59483534I44194J44194D01*
G01*
X131144893Y-58953204D01*
G75*
G02*
X131233281Y-58953204I44194J-44194D01*
G01*
G37*
G04 #@! TD.AperFunction*
G04 #@! TA.AperFunction,SMDPad,CuDef*
G36*
G01*
X131586835Y-59306758D02*
X131675223Y-59395146D01*
G75*
G02*
X131675223Y-59483534I-44194J-44194D01*
G01*
X131144893Y-60013864D01*
G75*
G02*
X131056505Y-60013864I-44194J44194D01*
G01*
X130968117Y-59925476D01*
G75*
G02*
X130968117Y-59837088I44194J44194D01*
G01*
X131498447Y-59306758D01*
G75*
G02*
X131586835Y-59306758I44194J-44194D01*
G01*
G37*
G04 #@! TD.AperFunction*
G04 #@! TA.AperFunction,SMDPad,CuDef*
G36*
G01*
X131940388Y-59660311D02*
X132028776Y-59748699D01*
G75*
G02*
X132028776Y-59837087I-44194J-44194D01*
G01*
X131498446Y-60367417D01*
G75*
G02*
X131410058Y-60367417I-44194J44194D01*
G01*
X131321670Y-60279029D01*
G75*
G02*
X131321670Y-60190641I44194J44194D01*
G01*
X131852000Y-59660311D01*
G75*
G02*
X131940388Y-59660311I44194J-44194D01*
G01*
G37*
G04 #@! TD.AperFunction*
G04 #@! TA.AperFunction,SMDPad,CuDef*
G36*
G01*
X108280000Y-63427500D02*
X108280000Y-62952500D01*
G75*
G02*
X108517500Y-62715000I237500J0D01*
G01*
X109092500Y-62715000D01*
G75*
G02*
X109330000Y-62952500I0J-237500D01*
G01*
X109330000Y-63427500D01*
G75*
G02*
X109092500Y-63665000I-237500J0D01*
G01*
X108517500Y-63665000D01*
G75*
G02*
X108280000Y-63427500I0J237500D01*
G01*
G37*
G04 #@! TD.AperFunction*
G04 #@! TA.AperFunction,SMDPad,CuDef*
G36*
G01*
X106530000Y-63427500D02*
X106530000Y-62952500D01*
G75*
G02*
X106767500Y-62715000I237500J0D01*
G01*
X107342500Y-62715000D01*
G75*
G02*
X107580000Y-62952500I0J-237500D01*
G01*
X107580000Y-63427500D01*
G75*
G02*
X107342500Y-63665000I-237500J0D01*
G01*
X106767500Y-63665000D01*
G75*
G02*
X106530000Y-63427500I0J237500D01*
G01*
G37*
G04 #@! TD.AperFunction*
G04 #@! TA.AperFunction,SMDPad,CuDef*
G36*
G01*
X108280000Y-61857500D02*
X108280000Y-61382500D01*
G75*
G02*
X108517500Y-61145000I237500J0D01*
G01*
X109092500Y-61145000D01*
G75*
G02*
X109330000Y-61382500I0J-237500D01*
G01*
X109330000Y-61857500D01*
G75*
G02*
X109092500Y-62095000I-237500J0D01*
G01*
X108517500Y-62095000D01*
G75*
G02*
X108280000Y-61857500I0J237500D01*
G01*
G37*
G04 #@! TD.AperFunction*
G04 #@! TA.AperFunction,SMDPad,CuDef*
G36*
G01*
X106530000Y-61857500D02*
X106530000Y-61382500D01*
G75*
G02*
X106767500Y-61145000I237500J0D01*
G01*
X107342500Y-61145000D01*
G75*
G02*
X107580000Y-61382500I0J-237500D01*
G01*
X107580000Y-61857500D01*
G75*
G02*
X107342500Y-62095000I-237500J0D01*
G01*
X106767500Y-62095000D01*
G75*
G02*
X106530000Y-61857500I0J237500D01*
G01*
G37*
G04 #@! TD.AperFunction*
G04 #@! TA.AperFunction,SMDPad,CuDef*
G36*
G01*
X104900000Y-55107500D02*
X104900000Y-54632500D01*
G75*
G02*
X105137500Y-54395000I237500J0D01*
G01*
X105712500Y-54395000D01*
G75*
G02*
X105950000Y-54632500I0J-237500D01*
G01*
X105950000Y-55107500D01*
G75*
G02*
X105712500Y-55345000I-237500J0D01*
G01*
X105137500Y-55345000D01*
G75*
G02*
X104900000Y-55107500I0J237500D01*
G01*
G37*
G04 #@! TD.AperFunction*
G04 #@! TA.AperFunction,SMDPad,CuDef*
G36*
G01*
X103150000Y-55107500D02*
X103150000Y-54632500D01*
G75*
G02*
X103387500Y-54395000I237500J0D01*
G01*
X103962500Y-54395000D01*
G75*
G02*
X104200000Y-54632500I0J-237500D01*
G01*
X104200000Y-55107500D01*
G75*
G02*
X103962500Y-55345000I-237500J0D01*
G01*
X103387500Y-55345000D01*
G75*
G02*
X103150000Y-55107500I0J237500D01*
G01*
G37*
G04 #@! TD.AperFunction*
D22*
X117780000Y-56990000D03*
D23*
X133920000Y-61210000D03*
X136000000Y-61800000D03*
X142190000Y-57980000D03*
X145160000Y-60889970D03*
X146429795Y-63380000D03*
X150930000Y-65670000D03*
X127300000Y-60500000D03*
X125690000Y-60500000D03*
X128850000Y-60500000D03*
X127300000Y-62060000D03*
X127310000Y-59120000D03*
D22*
X121550000Y-58110000D03*
X126790000Y-66360000D03*
X125390000Y-65460000D03*
D23*
X132620000Y-60990000D03*
D22*
X125540000Y-66470000D03*
X134630000Y-64720000D03*
X107180000Y-55600000D03*
X110260000Y-61680000D03*
D23*
X107050000Y-58330000D03*
X117345000Y-63785000D03*
X111730000Y-54070000D03*
X146510000Y-53420000D03*
X130840000Y-55880000D03*
X111805014Y-55454986D03*
D22*
X132599429Y-64420571D03*
X120170000Y-60060000D03*
X117570000Y-59730000D03*
X124390000Y-65590000D03*
X117285911Y-60688800D03*
X123360000Y-66060000D03*
D23*
X144380000Y-54160000D03*
X133320000Y-58650000D03*
D22*
X133933096Y-60142210D03*
X140620000Y-64130000D03*
D23*
X133020000Y-59790000D03*
D22*
X105620000Y-58370000D03*
D23*
X129899506Y-56309505D03*
D24*
X130261010Y-58599651D02*
X133815650Y-55045011D01*
X133815650Y-55045011D02*
X135035011Y-55045011D01*
X135035011Y-55045011D02*
X135430000Y-55440000D01*
X135760000Y-57920000D02*
X137060000Y-57920000D01*
X135430000Y-57590000D02*
X135760000Y-57920000D01*
X135430000Y-55440000D02*
X135430000Y-57590000D01*
X138045000Y-58905000D02*
X137060000Y-57920000D01*
X138045000Y-59720000D02*
X138045000Y-58905000D01*
X126460311Y-64521670D02*
X127300000Y-63681981D01*
X123278330Y-59660311D02*
X124118019Y-60500000D01*
X131321670Y-61339689D02*
X130481981Y-60500000D01*
X127300000Y-59439339D02*
X127300000Y-60500000D01*
X129200349Y-57538990D02*
X127300000Y-59439339D01*
X135705000Y-61120000D02*
X136665000Y-61120000D01*
X139015000Y-58865000D02*
X139960000Y-57920000D01*
X139015000Y-59720000D02*
X139015000Y-58865000D01*
X140605000Y-57275000D02*
X139960000Y-57920000D01*
X142010000Y-57275000D02*
X140605000Y-57275000D01*
X139960000Y-57920000D02*
X139790000Y-57920000D01*
X137210000Y-55620000D02*
X137060000Y-55620000D01*
X139630000Y-57850000D02*
X137330000Y-55550000D01*
X139960000Y-57920000D02*
X139510000Y-57920000D01*
X103860000Y-63720446D02*
X103930516Y-63649930D01*
X103860000Y-65550000D02*
X103860000Y-63720446D01*
X103105524Y-64474922D02*
X103930516Y-63649930D01*
X101189602Y-64474922D02*
X103105524Y-64474922D01*
X116190000Y-57200000D02*
X117049970Y-57200000D01*
X113540000Y-54550000D02*
X116190000Y-57200000D01*
X123278330Y-59660311D02*
X122688019Y-59070000D01*
X118919970Y-59070000D02*
X117049970Y-57200000D01*
X122688019Y-59070000D02*
X118919970Y-59070000D01*
X117570000Y-57200000D02*
X117780000Y-56990000D01*
X117049970Y-57200000D02*
X117570000Y-57200000D01*
D25*
X105040000Y-53505000D02*
X103675000Y-54870000D01*
X105040000Y-52000000D02*
X105040000Y-53505000D01*
X103930516Y-55125516D02*
X103675000Y-54870000D01*
X103930516Y-57150070D02*
X103930516Y-55125516D01*
X102014594Y-57150070D02*
X101189602Y-56325078D01*
X103930516Y-57150070D02*
X102014594Y-57150070D01*
X106267001Y-50772999D02*
X105040000Y-52000000D01*
X141827001Y-52502963D02*
X141827001Y-51411039D01*
X142697010Y-56892990D02*
X142697010Y-53372972D01*
X141827001Y-51411039D02*
X141188961Y-50772999D01*
X142320000Y-57270000D02*
X142697010Y-56892990D01*
X141188961Y-50772999D02*
X106267001Y-50772999D01*
X142697010Y-53372972D02*
X141827001Y-52502963D01*
X142010000Y-57270000D02*
X142320000Y-57270000D01*
D24*
X133519995Y-61610005D02*
X133920000Y-61210000D01*
X131591986Y-61610005D02*
X133519995Y-61610005D01*
X131321670Y-61339689D02*
X131591986Y-61610005D01*
X136000000Y-61790000D02*
X136670000Y-61120000D01*
X136000000Y-61800000D02*
X136000000Y-61790000D01*
X142010000Y-57800000D02*
X142190000Y-57980000D01*
X142010000Y-57270000D02*
X142010000Y-57800000D01*
X146769795Y-63040000D02*
X146429795Y-63380000D01*
X149365000Y-63040000D02*
X146769795Y-63040000D01*
X151387001Y-61252001D02*
X151387001Y-64372999D01*
X150635000Y-60500000D02*
X151387001Y-61252001D01*
X151387001Y-64372999D02*
X150590000Y-65170000D01*
X150590000Y-65170000D02*
X149940000Y-65170000D01*
X149365000Y-64595000D02*
X149365000Y-63040000D01*
X149940000Y-65170000D02*
X149365000Y-64595000D01*
X150930000Y-64830000D02*
X151387001Y-64372999D01*
X150930000Y-65670000D02*
X150930000Y-64830000D01*
X107055000Y-61620000D02*
X107055000Y-63190000D01*
X104390446Y-63190000D02*
X103930516Y-63649930D01*
X107055000Y-63190000D02*
X104390446Y-63190000D01*
X104510652Y-63069794D02*
X103930516Y-63649930D01*
X104510652Y-61704544D02*
X104510652Y-63069794D01*
D25*
X143622500Y-62427470D02*
X145160000Y-60889970D01*
X143622500Y-62500000D02*
X143622500Y-62427470D01*
D24*
X127300000Y-60500000D02*
X125690000Y-60500000D01*
X124118019Y-60500000D02*
X125690000Y-60500000D01*
X127300000Y-60500000D02*
X128850000Y-60500000D01*
X130481981Y-60500000D02*
X128850000Y-60500000D01*
X127300000Y-60500000D02*
X127300000Y-62060000D01*
X127300000Y-63681981D02*
X127300000Y-62060000D01*
X127300000Y-59130000D02*
X127310000Y-59120000D01*
X127300000Y-60500000D02*
X127300000Y-59130000D01*
X134907819Y-54595001D02*
X135427799Y-54075021D01*
X133558552Y-54595001D02*
X134907819Y-54595001D01*
X129907456Y-58246097D02*
X133558552Y-54595001D01*
X139960000Y-54470000D02*
X139960000Y-55620000D01*
X139565021Y-54075021D02*
X139960000Y-54470000D01*
X135427799Y-54075021D02*
X139565021Y-54075021D01*
X140645000Y-56305000D02*
X139960000Y-55620000D01*
X142010000Y-56305000D02*
X140645000Y-56305000D01*
X122435127Y-58110000D02*
X121550000Y-58110000D01*
X123631884Y-59306757D02*
X122435127Y-58110000D01*
X124692544Y-62753903D02*
X120466457Y-66979990D01*
X117220010Y-66979990D02*
X115200000Y-69000000D01*
X120466457Y-66979990D02*
X117220010Y-66979990D01*
X127786136Y-65363864D02*
X126790000Y-66360000D01*
X127786136Y-64875223D02*
X127786136Y-65363864D01*
X125046097Y-63107456D02*
X120723553Y-67430000D01*
X119310000Y-67430000D02*
X117740000Y-69000000D01*
X120723553Y-67430000D02*
X119310000Y-67430000D01*
X126081884Y-64168116D02*
X126106757Y-64168116D01*
X126106757Y-64168116D02*
X126091884Y-64168116D01*
X125390000Y-64870000D02*
X125390000Y-65460000D01*
X126091884Y-64168116D02*
X125390000Y-64870000D01*
X132616136Y-60986136D02*
X132620000Y-60990000D01*
X131675223Y-60986136D02*
X132616136Y-60986136D01*
X149584999Y-67824999D02*
X150760000Y-69000000D01*
X139446410Y-64670000D02*
X142601409Y-67824999D01*
X134804998Y-64670000D02*
X139446410Y-64670000D01*
X145617500Y-65040000D02*
X145617500Y-67492498D01*
X145617500Y-67492498D02*
X145284999Y-67824999D01*
X145284999Y-67824999D02*
X149584999Y-67824999D01*
X142601409Y-67824999D02*
X145284999Y-67824999D01*
X126813864Y-65196136D02*
X125540000Y-66470000D01*
X126813864Y-64875223D02*
X126813864Y-65196136D01*
X111275000Y-62450000D02*
X108245000Y-65480000D01*
X111650030Y-62450000D02*
X111275000Y-62450000D01*
X134804998Y-64714998D02*
X134804998Y-64670000D01*
X134635002Y-64714998D02*
X134630000Y-64720000D01*
X134804998Y-64714998D02*
X134635002Y-64714998D01*
X106392500Y-56387500D02*
X107180000Y-55600000D01*
X106392500Y-56830000D02*
X106392500Y-56387500D01*
X111030000Y-62450000D02*
X110260000Y-61680000D01*
X111650030Y-62450000D02*
X111030000Y-62450000D01*
D25*
X106392500Y-57672500D02*
X107050000Y-58330000D01*
X106392500Y-56830000D02*
X106392500Y-57672500D01*
X145617500Y-62977500D02*
X145617500Y-65040000D01*
X149365000Y-59230000D02*
X145617500Y-62977500D01*
X142622947Y-67772999D02*
X139569948Y-64720000D01*
X139569948Y-64720000D02*
X134630000Y-64720000D01*
X150760000Y-69000000D02*
X149532999Y-67772999D01*
X145617500Y-65040000D02*
X145617500Y-67653498D01*
X145737001Y-67772999D02*
X142622947Y-67772999D01*
X145617500Y-67653498D02*
X145737001Y-67772999D01*
X149532999Y-67772999D02*
X145737001Y-67772999D01*
D24*
X119153641Y-63785000D02*
X117345000Y-63785000D01*
X122924777Y-60013864D02*
X119153641Y-63785000D01*
D25*
X108304038Y-52000000D02*
X107580000Y-52000000D01*
X110374038Y-54070000D02*
X108304038Y-52000000D01*
X111730000Y-54070000D02*
X110374038Y-54070000D01*
D24*
X108805000Y-61620000D02*
X108805000Y-63190000D01*
X110200000Y-61620000D02*
X110260000Y-61680000D01*
X108805000Y-61620000D02*
X110200000Y-61620000D01*
D25*
X139569948Y-63427552D02*
X139569948Y-64720000D01*
X140497500Y-62500000D02*
X139569948Y-63427552D01*
D24*
X128749999Y-68150001D02*
X127900000Y-69000000D01*
X129150009Y-64824882D02*
X129150009Y-67749991D01*
X129150009Y-67749991D02*
X128749999Y-68150001D01*
X128493243Y-64168116D02*
X129150009Y-64824882D01*
X151324001Y-70175001D02*
X129075001Y-70175001D01*
X151935001Y-69564001D02*
X151324001Y-70175001D01*
X151935001Y-60530001D02*
X151935001Y-69564001D01*
X129075001Y-70175001D02*
X127900000Y-69000000D01*
X150635000Y-59230000D02*
X151935001Y-60530001D01*
X110265000Y-55100000D02*
X109970000Y-55100000D01*
X111450028Y-55100000D02*
X110265000Y-55100000D01*
X112450030Y-57200000D02*
X112450030Y-56100002D01*
X129553903Y-57892544D02*
X129567456Y-57892544D01*
X134791390Y-54075020D02*
X135241399Y-53625011D01*
X133384979Y-54075021D02*
X134791390Y-54075020D01*
X137234989Y-53625011D02*
X137590000Y-53270000D01*
X135241399Y-53625011D02*
X137234989Y-53625011D01*
X139330000Y-53270000D02*
X140600000Y-52000000D01*
X137590000Y-53270000D02*
X139330000Y-53270000D01*
X146510000Y-53420000D02*
X148050000Y-53420000D01*
X150635000Y-56005000D02*
X150635000Y-57960000D01*
X148050000Y-53420000D02*
X150635000Y-56005000D01*
X130905000Y-55945000D02*
X130840000Y-55880000D01*
X129567456Y-57892544D02*
X130905000Y-56555000D01*
X130905000Y-56555000D02*
X133384979Y-54075021D01*
X111805014Y-55454986D02*
X111450028Y-55100000D01*
X112450030Y-56100002D02*
X111805014Y-55454986D01*
X105840010Y-54454990D02*
X105425000Y-54870000D01*
X109349990Y-54454990D02*
X105840010Y-54454990D01*
X109995000Y-55100000D02*
X109349990Y-54454990D01*
X130905000Y-56555000D02*
X130905000Y-55945000D01*
X133133830Y-63245560D02*
X132520433Y-63245560D01*
X132520433Y-63245560D02*
X130968116Y-61693243D01*
X133774439Y-63886169D02*
X133133830Y-63245560D01*
X143140000Y-69000000D02*
X141964999Y-67824999D01*
X134289990Y-65459990D02*
X133774440Y-64944440D01*
X133774440Y-64944440D02*
X133774439Y-63886169D01*
X137696401Y-65459991D02*
X134289990Y-65459990D01*
X141964999Y-67824999D02*
X140061409Y-67824999D01*
X140061409Y-67824999D02*
X137696401Y-65459991D01*
X134078860Y-65910000D02*
X137510000Y-65910000D01*
X133324430Y-65155570D02*
X134078860Y-65910000D01*
X132265570Y-63695570D02*
X132947430Y-63695570D01*
X130616796Y-62046796D02*
X132265570Y-63695570D01*
X133324430Y-64072570D02*
X133324430Y-65155570D01*
X132947430Y-63695570D02*
X133324430Y-64072570D01*
X137510000Y-65910000D02*
X140600000Y-69000000D01*
X130614563Y-62046796D02*
X130616796Y-62046796D01*
X115745000Y-58375000D02*
X114410000Y-57040000D01*
X117385000Y-58375000D02*
X115745000Y-58375000D01*
X118295001Y-59285001D02*
X117385000Y-58375000D01*
X118295001Y-61104968D02*
X118295001Y-59285001D01*
X116949969Y-62450000D02*
X118295001Y-61104968D01*
X116249970Y-62450000D02*
X116949969Y-62450000D01*
X114410000Y-56440000D02*
X112520000Y-54550000D01*
X114410000Y-57040000D02*
X114410000Y-56440000D01*
X132281232Y-64420571D02*
X132599429Y-64420571D01*
X130261010Y-62400349D02*
X132281232Y-64420571D01*
X119070000Y-60060000D02*
X118295001Y-59285001D01*
X120170000Y-60060000D02*
X119070000Y-60060000D01*
X129907456Y-62753903D02*
X134273553Y-67120000D01*
X136180000Y-67120000D02*
X138060000Y-69000000D01*
X134273553Y-67120000D02*
X136180000Y-67120000D01*
X134670001Y-68150001D02*
X135520000Y-69000000D01*
X134596448Y-68150001D02*
X134670001Y-68150001D01*
X129553903Y-63107456D02*
X134596448Y-68150001D01*
X132980000Y-67240661D02*
X132980000Y-69000000D01*
X129200349Y-63461010D02*
X132980000Y-67240661D01*
X130440000Y-65407767D02*
X130440000Y-69000000D01*
X128846796Y-63814563D02*
X130440000Y-65407767D01*
X128139689Y-64521670D02*
X128700000Y-65081981D01*
X128700000Y-65660000D02*
X125360000Y-69000000D01*
X128700000Y-65081981D02*
X128700000Y-65660000D01*
X104534476Y-59730000D02*
X104510652Y-59753824D01*
X117570000Y-59730000D02*
X104534476Y-59730000D01*
X124390000Y-65177767D02*
X124390000Y-65590000D01*
X125753204Y-63814563D02*
X124390000Y-65177767D01*
X124390000Y-67430000D02*
X122820000Y-69000000D01*
X124390000Y-65590000D02*
X124390000Y-67430000D01*
X117001175Y-60404064D02*
X117285911Y-60688800D01*
X104510652Y-60404064D02*
X117001175Y-60404064D01*
X123155331Y-65855331D02*
X123360000Y-66060000D01*
X123360000Y-65500661D02*
X123360000Y-66060000D01*
X125399651Y-63461010D02*
X123360000Y-65500661D01*
X120420000Y-69000000D02*
X120280000Y-69000000D01*
X123360000Y-66060000D02*
X120420000Y-69000000D01*
X124338990Y-62400349D02*
X120209359Y-66529980D01*
X113509999Y-68150001D02*
X112660000Y-69000000D01*
X113835001Y-67824999D02*
X113509999Y-68150001D01*
X115095001Y-67824999D02*
X113835001Y-67824999D01*
X116390020Y-66529980D02*
X115095001Y-67824999D01*
X120209359Y-66529980D02*
X116390020Y-66529980D01*
X123985437Y-62046796D02*
X119952263Y-66079970D01*
X116203619Y-66079971D02*
X114908601Y-67374989D01*
X119952263Y-66079970D02*
X116203619Y-66079971D01*
X110969999Y-68150001D02*
X110120000Y-69000000D01*
X111295001Y-67824999D02*
X110969999Y-68150001D01*
X113025001Y-67824999D02*
X111295001Y-67824999D01*
X113475011Y-67374989D02*
X113025001Y-67824999D01*
X114908601Y-67374989D02*
X113475011Y-67374989D01*
X123631884Y-61693243D02*
X123631884Y-61748116D01*
X119750038Y-65629962D02*
X116017218Y-65629962D01*
X123631884Y-61748116D02*
X119750038Y-65629962D01*
X113288610Y-66924980D02*
X112838601Y-67374989D01*
X114722201Y-66924979D02*
X113288610Y-66924980D01*
X116017218Y-65629962D02*
X114722201Y-66924979D01*
X108429999Y-68150001D02*
X107580000Y-69000000D01*
X108755001Y-67824999D02*
X108429999Y-68150001D01*
X109845001Y-67824999D02*
X108755001Y-67824999D01*
X110295011Y-67374989D02*
X109845001Y-67824999D01*
X112838601Y-67374989D02*
X110295011Y-67374989D01*
X123278330Y-61339689D02*
X119438067Y-65179952D01*
X115830817Y-65179953D02*
X114535799Y-66474971D01*
X119438067Y-65179952D02*
X115830817Y-65179953D01*
X113085029Y-66474971D02*
X112635021Y-66924979D01*
X114535799Y-66474971D02*
X113085029Y-66474971D01*
X110108610Y-66924980D02*
X109658601Y-67374989D01*
X112635021Y-66924979D02*
X110108610Y-66924980D01*
X106665011Y-67374989D02*
X105040000Y-69000000D01*
X109658601Y-67374989D02*
X106665011Y-67374989D01*
X119004193Y-64729944D02*
X115644416Y-64729944D01*
X122748001Y-60986136D02*
X119004193Y-64729944D01*
X122924777Y-60986136D02*
X122748001Y-60986136D01*
X112898629Y-66024961D02*
X112448620Y-66474970D01*
X114349399Y-66024961D02*
X112898629Y-66024961D01*
X115644416Y-64729944D02*
X114349399Y-66024961D01*
X109922211Y-66474971D02*
X109472203Y-66924979D01*
X112448620Y-66474970D02*
X109922211Y-66474971D01*
X109472203Y-66924979D02*
X106478610Y-66924980D01*
X102500000Y-67900000D02*
X102500000Y-69000000D01*
X102575001Y-67824999D02*
X102500000Y-67900000D01*
X105578591Y-67824999D02*
X102575001Y-67824999D01*
X106478610Y-66924980D02*
X105578591Y-67824999D01*
X123985437Y-58953204D02*
X119782263Y-54750030D01*
X119782263Y-54750030D02*
X114773619Y-54750029D01*
X110969999Y-52849999D02*
X110120000Y-52000000D01*
X111295001Y-53175001D02*
X110969999Y-52849999D01*
X113198591Y-53175001D02*
X111295001Y-53175001D01*
X114773619Y-54750029D02*
X113198591Y-53175001D01*
X124338990Y-58599651D02*
X120039359Y-54300020D01*
X114960020Y-54300020D02*
X112660000Y-52000000D01*
X120039359Y-54300020D02*
X114960020Y-54300020D01*
X116049999Y-52849999D02*
X115200000Y-52000000D01*
X117050010Y-53850010D02*
X116049999Y-52849999D01*
X120296457Y-53850010D02*
X117050010Y-53850010D01*
X124692544Y-58246097D02*
X120296457Y-53850010D01*
X125046097Y-57892544D02*
X120553553Y-53400000D01*
X119140000Y-53400000D02*
X117740000Y-52000000D01*
X120553553Y-53400000D02*
X119140000Y-53400000D01*
X121129999Y-52849999D02*
X120280000Y-52000000D01*
X121129999Y-53269338D02*
X121129999Y-52849999D01*
X125399651Y-57538990D02*
X121129999Y-53269338D01*
X122820000Y-54252233D02*
X122820000Y-52000000D01*
X125753204Y-57185437D02*
X122820000Y-54252233D01*
X125360000Y-56085127D02*
X125360000Y-52000000D01*
X126106757Y-56831884D02*
X125360000Y-56085127D01*
X126460311Y-56478330D02*
X126428330Y-56478330D01*
X127050001Y-52849999D02*
X127900000Y-52000000D01*
X126116995Y-53783005D02*
X127050001Y-52849999D01*
X126116995Y-56135014D02*
X126116995Y-53783005D01*
X126460311Y-56478330D02*
X126116995Y-56135014D01*
X126813864Y-55626136D02*
X130440000Y-52000000D01*
X126813864Y-56124777D02*
X126813864Y-55626136D01*
X131804999Y-53175001D02*
X132130001Y-52849999D01*
X130559136Y-53175001D02*
X131804999Y-53175001D01*
X132130001Y-52849999D02*
X132980000Y-52000000D01*
X127786136Y-55948001D02*
X130559136Y-53175001D01*
X127786136Y-56124777D02*
X127786136Y-55948001D01*
X128141670Y-56478330D02*
X130994989Y-53625011D01*
X128139689Y-56478330D02*
X128141670Y-56478330D01*
X134344999Y-53175001D02*
X134670001Y-52849999D01*
X132954999Y-53175001D02*
X134344999Y-53175001D01*
X132504989Y-53625011D02*
X132954999Y-53175001D01*
X134670001Y-52849999D02*
X135520000Y-52000000D01*
X130994989Y-53625011D02*
X132504989Y-53625011D01*
X132691390Y-54075020D02*
X133141399Y-53625011D01*
X131250106Y-54075021D02*
X132691390Y-54075020D01*
X128493243Y-56831884D02*
X131250106Y-54075021D01*
X137210001Y-52849999D02*
X138060000Y-52000000D01*
X136884999Y-53175001D02*
X137210001Y-52849999D01*
X135054999Y-53175001D02*
X136884999Y-53175001D01*
X134604989Y-53625011D02*
X135054999Y-53175001D01*
X133141399Y-53625011D02*
X134604989Y-53625011D01*
X144475000Y-54255000D02*
X144380000Y-54160000D01*
X145170000Y-54255000D02*
X144475000Y-54255000D01*
X130614563Y-58953204D02*
X130614563Y-58945437D01*
X130614563Y-58953204D02*
X132937767Y-56630000D01*
X133163232Y-56630000D02*
X135933232Y-59400000D01*
X132937767Y-56630000D02*
X133163232Y-56630000D01*
X137635000Y-60800000D02*
X137635000Y-61120000D01*
X136235000Y-59400000D02*
X137635000Y-60800000D01*
X135933232Y-59400000D02*
X136235000Y-59400000D01*
X137635000Y-62665000D02*
X137460000Y-62840000D01*
X137635000Y-61120000D02*
X137635000Y-62665000D01*
X137635000Y-61120000D02*
X138870000Y-61120000D01*
X138870000Y-61120000D02*
X140550000Y-59440000D01*
X140550000Y-59440000D02*
X141740000Y-59440000D01*
X141740000Y-59440000D02*
X143140000Y-58040000D01*
X143140000Y-58020000D02*
X143450989Y-57709011D01*
X143140000Y-58040000D02*
X143140000Y-58020000D01*
X143450989Y-52310989D02*
X143140000Y-52000000D01*
X143450989Y-57709011D02*
X143450989Y-52310989D01*
X130968116Y-59306757D02*
X132674873Y-57600000D01*
X132674873Y-57600000D02*
X133200000Y-57600000D01*
X134735000Y-59135000D02*
X134735000Y-61120000D01*
X133200000Y-57600000D02*
X134735000Y-59135000D01*
X134735000Y-62615000D02*
X134960000Y-62840000D01*
X134735000Y-61120000D02*
X134735000Y-62615000D01*
X134960000Y-63990000D02*
X135110000Y-64140000D01*
X134960000Y-62840000D02*
X134960000Y-63990000D01*
X138145002Y-64140000D02*
X138770000Y-63515002D01*
X135110000Y-64140000D02*
X138145002Y-64140000D01*
X138770000Y-61856410D02*
X140736400Y-59890010D01*
X140736400Y-59890010D02*
X141926401Y-59890009D01*
X138770000Y-63515002D02*
X138770000Y-61856410D01*
X141926401Y-59890009D02*
X143590010Y-58226400D01*
X143590010Y-58226400D02*
X143590010Y-58219990D01*
X143827999Y-53852001D02*
X145680000Y-52000000D01*
X143827999Y-57982001D02*
X143827999Y-53852001D01*
X143590010Y-58219990D02*
X143827999Y-57982001D01*
X131321670Y-59589613D02*
X132261283Y-58650000D01*
X132261283Y-58650000D02*
X133320000Y-58650000D01*
X131321670Y-59660311D02*
X131321670Y-59589613D01*
X133933096Y-59263096D02*
X133933096Y-60142210D01*
X133320000Y-58650000D02*
X133933096Y-59263096D01*
X140620000Y-64300000D02*
X141190000Y-64870000D01*
X140620000Y-64130000D02*
X140620000Y-64300000D01*
X131851999Y-60013864D02*
X131890000Y-59975863D01*
X131675223Y-60013864D02*
X131851999Y-60013864D01*
X131890000Y-59975863D02*
X132724137Y-59975863D01*
X132724137Y-59975863D02*
X132834137Y-59975863D01*
X132834137Y-59975863D02*
X133020000Y-59790000D01*
X133020000Y-59790000D02*
X133020000Y-59790000D01*
D25*
X104886416Y-59103584D02*
X105620000Y-58370000D01*
X104510652Y-59103584D02*
X104886416Y-59103584D01*
D24*
X104950000Y-65480000D02*
X104880000Y-65550000D01*
X106370000Y-65480000D02*
X104950000Y-65480000D01*
X128846796Y-57185437D02*
X128884563Y-57185437D01*
X129722728Y-56309505D02*
X129899506Y-56309505D01*
X128846796Y-57185437D02*
X129722728Y-56309505D01*
X145170000Y-56280030D02*
X145160000Y-56290030D01*
X145170000Y-55225000D02*
X145170000Y-56280030D01*
X108267500Y-55807500D02*
X108975000Y-55100000D01*
X108267500Y-56830000D02*
X108267500Y-55807500D01*
X143572500Y-64870000D02*
X143742500Y-65040000D01*
X142210000Y-64870000D02*
X143572500Y-64870000D01*
D26*
X101198815Y-50698815D02*
X101119463Y-50795506D01*
X101060498Y-50905820D01*
X101024188Y-51025518D01*
X101011928Y-51150000D01*
X101011928Y-52850000D01*
X101024188Y-52974482D01*
X101060498Y-53094180D01*
X101119463Y-53204494D01*
X101198815Y-53301185D01*
X101295506Y-53380537D01*
X101405820Y-53439502D01*
X101525518Y-53475812D01*
X101650000Y-53488072D01*
X103350000Y-53488072D01*
X103474482Y-53475812D01*
X103594180Y-53439502D01*
X103704494Y-53380537D01*
X103801185Y-53301185D01*
X103880537Y-53204494D01*
X103939502Y-53094180D01*
X103963966Y-53013534D01*
X104039731Y-53097588D01*
X104273080Y-53271641D01*
X104535901Y-53396825D01*
X104683110Y-53441476D01*
X104913000Y-53320155D01*
X104913000Y-52127000D01*
X104893000Y-52127000D01*
X104893000Y-51873000D01*
X104913000Y-51873000D01*
X104913000Y-51853000D01*
X105167000Y-51853000D01*
X105167000Y-51873000D01*
X105187000Y-51873000D01*
X105187000Y-52127000D01*
X105167000Y-52127000D01*
X105167000Y-53320155D01*
X105396890Y-53441476D01*
X105544099Y-53396825D01*
X105806920Y-53271641D01*
X106040269Y-53097588D01*
X106235178Y-52881355D01*
X106304805Y-52764466D01*
X106426525Y-52946632D01*
X106633368Y-53153475D01*
X106876589Y-53315990D01*
X107146842Y-53427932D01*
X107433740Y-53485000D01*
X107726260Y-53485000D01*
X108013158Y-53427932D01*
X108283411Y-53315990D01*
X108334388Y-53281928D01*
X108747449Y-53694990D01*
X105877335Y-53694990D01*
X105840010Y-53691314D01*
X105802685Y-53694990D01*
X105802677Y-53694990D01*
X105691024Y-53705987D01*
X105547763Y-53749444D01*
X105533762Y-53756928D01*
X105137500Y-53756928D01*
X104966684Y-53773752D01*
X104802433Y-53823577D01*
X104651058Y-53904488D01*
X104627161Y-53924099D01*
X104554494Y-53864463D01*
X104444180Y-53805498D01*
X104324482Y-53769188D01*
X104200000Y-53756928D01*
X103960750Y-53760000D01*
X103802000Y-53918750D01*
X103802000Y-54743000D01*
X103822000Y-54743000D01*
X103822000Y-54997000D01*
X103802000Y-54997000D01*
X103802000Y-55017000D01*
X103548000Y-55017000D01*
X103548000Y-54997000D01*
X103528000Y-54997000D01*
X103528000Y-54743000D01*
X103548000Y-54743000D01*
X103548000Y-53918750D01*
X103389250Y-53760000D01*
X103150000Y-53756928D01*
X103025518Y-53769188D01*
X102905820Y-53805498D01*
X102795506Y-53864463D01*
X102698815Y-53943815D01*
X102619463Y-54040506D01*
X102560498Y-54150820D01*
X102524188Y-54270518D01*
X102511928Y-54395000D01*
X102515000Y-54584250D01*
X102673748Y-54742998D01*
X102515000Y-54742998D01*
X102515000Y-54804515D01*
X102470137Y-54720584D01*
X102390785Y-54623893D01*
X102294094Y-54544541D01*
X102183780Y-54485576D01*
X102064082Y-54449266D01*
X101939600Y-54437006D01*
X101475352Y-54440078D01*
X101316602Y-54598828D01*
X101316602Y-56198078D01*
X102415850Y-56198078D01*
X102574600Y-56039328D01*
X102575942Y-55618073D01*
X102619463Y-55699494D01*
X102698815Y-55796185D01*
X102795506Y-55875537D01*
X102839821Y-55899224D01*
X102779307Y-55948887D01*
X102699955Y-56045578D01*
X102640990Y-56155892D01*
X102604680Y-56275590D01*
X102592420Y-56400072D01*
X102595492Y-56864320D01*
X102754242Y-57023070D01*
X103803516Y-57023070D01*
X103803516Y-57003070D01*
X104057516Y-57003070D01*
X104057516Y-57023070D01*
X105106790Y-57023070D01*
X105265540Y-56864320D01*
X105266928Y-56654562D01*
X105266928Y-57286250D01*
X105277311Y-57391670D01*
X105237769Y-57408049D01*
X105106790Y-57277070D01*
X104057516Y-57277070D01*
X104057516Y-57297070D01*
X103803516Y-57297070D01*
X103803516Y-57277070D01*
X102754242Y-57277070D01*
X102595492Y-57435820D01*
X102592420Y-57900068D01*
X102604680Y-58024550D01*
X102640990Y-58144248D01*
X102699955Y-58254562D01*
X102779307Y-58351253D01*
X102864224Y-58420942D01*
X102864224Y-58503115D01*
X102902078Y-58693417D01*
X102975761Y-58871305D01*
X102972582Y-58903585D01*
X102972582Y-59303583D01*
X102984842Y-59428065D01*
X102985036Y-59428704D01*
X102984842Y-59429343D01*
X102972582Y-59553825D01*
X102972582Y-59953823D01*
X102984842Y-60078305D01*
X102985036Y-60078944D01*
X102984842Y-60079583D01*
X102972582Y-60204065D01*
X102972582Y-60604063D01*
X102984842Y-60728545D01*
X102985036Y-60729184D01*
X102984842Y-60729823D01*
X102972582Y-60854305D01*
X102972582Y-61254303D01*
X102984842Y-61378785D01*
X102985534Y-61381065D01*
X102975654Y-61472795D01*
X103043900Y-61541041D01*
X103080117Y-61608797D01*
X103157360Y-61702918D01*
X103084127Y-61776151D01*
X102980085Y-61931862D01*
X102975654Y-61936293D01*
X102975895Y-61938532D01*
X102902078Y-62116743D01*
X102864224Y-62307045D01*
X102864224Y-62379058D01*
X102779307Y-62448747D01*
X102699955Y-62545438D01*
X102640990Y-62655752D01*
X102604680Y-62775450D01*
X102592420Y-62899932D01*
X102595492Y-63364180D01*
X102754242Y-63522930D01*
X103803516Y-63522930D01*
X103803516Y-63502930D01*
X104057516Y-63502930D01*
X104057516Y-63522930D01*
X105106790Y-63522930D01*
X105265540Y-63364180D01*
X105268612Y-62899932D01*
X105256352Y-62775450D01*
X105220042Y-62655752D01*
X105161077Y-62545438D01*
X105157716Y-62541343D01*
X105402331Y-62542561D01*
X105526962Y-62531924D01*
X105647123Y-62497178D01*
X105758197Y-62439657D01*
X105855914Y-62361572D01*
X105923105Y-62281843D01*
X105940498Y-62339180D01*
X105975680Y-62405000D01*
X105940498Y-62470820D01*
X105904188Y-62590518D01*
X105891928Y-62715000D01*
X105895000Y-62904250D01*
X106053750Y-63063000D01*
X106928000Y-63063000D01*
X106928000Y-61747000D01*
X106908000Y-61747000D01*
X106908000Y-61493000D01*
X106928000Y-61493000D01*
X106928000Y-61473000D01*
X107182000Y-61473000D01*
X107182000Y-61493000D01*
X107202000Y-61493000D01*
X107202000Y-61747000D01*
X107182000Y-61747000D01*
X107182000Y-63063000D01*
X107202000Y-63063000D01*
X107202000Y-63317000D01*
X107182000Y-63317000D01*
X107182000Y-63337000D01*
X106928000Y-63337000D01*
X106928000Y-63317000D01*
X106053750Y-63317000D01*
X105895000Y-63475750D01*
X105891928Y-63665000D01*
X105904188Y-63789482D01*
X105940498Y-63909180D01*
X105999463Y-64019494D01*
X106078815Y-64116185D01*
X106111905Y-64143341D01*
X105954215Y-64158872D01*
X105788791Y-64209053D01*
X105636336Y-64290542D01*
X105502708Y-64400208D01*
X105393042Y-64533836D01*
X105326160Y-64658963D01*
X105310842Y-64650775D01*
X105225841Y-64624990D01*
X105256352Y-64524410D01*
X105268612Y-64399928D01*
X105265540Y-63935680D01*
X105106790Y-63776930D01*
X104057516Y-63776930D01*
X104057516Y-64683234D01*
X103987000Y-64753750D01*
X103987000Y-65213462D01*
X103986782Y-65214181D01*
X103971928Y-65365000D01*
X103971928Y-65735000D01*
X103986782Y-65885819D01*
X103987000Y-65886538D01*
X103987000Y-66346250D01*
X104145750Y-66505000D01*
X104262202Y-66494226D01*
X104381442Y-66456441D01*
X104421451Y-66434416D01*
X104449158Y-66449225D01*
X104594181Y-66493218D01*
X104745000Y-66508072D01*
X105015000Y-66508072D01*
X105165819Y-66493218D01*
X105310842Y-66449225D01*
X105384363Y-66409927D01*
X105393042Y-66426164D01*
X105502708Y-66559792D01*
X105636336Y-66669458D01*
X105651321Y-66677468D01*
X105263790Y-67064999D01*
X102612323Y-67064999D01*
X102575000Y-67061323D01*
X102537678Y-67064999D01*
X102537668Y-67064999D01*
X102426015Y-67075996D01*
X102282754Y-67119453D01*
X102150725Y-67190025D01*
X102035000Y-67284998D01*
X102011203Y-67313995D01*
X101989000Y-67336198D01*
X101959999Y-67359999D01*
X101917121Y-67412247D01*
X101865026Y-67475724D01*
X101845674Y-67511928D01*
X101650000Y-67511928D01*
X101525518Y-67524188D01*
X101405820Y-67560498D01*
X101295506Y-67619463D01*
X101198815Y-67698815D01*
X101119463Y-67795506D01*
X101060498Y-67905820D01*
X101024188Y-68025518D01*
X101011928Y-68150000D01*
X101011928Y-69850000D01*
X101024188Y-69974482D01*
X101060498Y-70094180D01*
X101119463Y-70204494D01*
X101198815Y-70301185D01*
X101215649Y-70315000D01*
X100685000Y-70315000D01*
X100685000Y-66361370D01*
X100903852Y-66359922D01*
X101062602Y-66201172D01*
X101062602Y-64601922D01*
X101316602Y-64601922D01*
X101316602Y-66201172D01*
X101475352Y-66359922D01*
X101939600Y-66362994D01*
X102064082Y-66350734D01*
X102183780Y-66314424D01*
X102294094Y-66255459D01*
X102390785Y-66176107D01*
X102470137Y-66079416D01*
X102529102Y-65969102D01*
X102561554Y-65862119D01*
X102951977Y-65862119D01*
X102962699Y-65986742D01*
X102997527Y-66106879D01*
X103055124Y-66217914D01*
X103133276Y-66315578D01*
X103228980Y-66396118D01*
X103338558Y-66456441D01*
X103457798Y-66494226D01*
X103574250Y-66505000D01*
X103733000Y-66346250D01*
X103733000Y-65677000D01*
X103113750Y-65677000D01*
X102955000Y-65835750D01*
X102951977Y-65862119D01*
X102561554Y-65862119D01*
X102565412Y-65849404D01*
X102577672Y-65724922D01*
X102574600Y-64760672D01*
X102415850Y-64601922D01*
X101316602Y-64601922D01*
X101062602Y-64601922D01*
X101042602Y-64601922D01*
X101042602Y-64399928D01*
X102592420Y-64399928D01*
X102604680Y-64524410D01*
X102640990Y-64644108D01*
X102699955Y-64754422D01*
X102779307Y-64851113D01*
X102875998Y-64930465D01*
X102986312Y-64989430D01*
X102997657Y-64992871D01*
X102997527Y-64993121D01*
X102962699Y-65113258D01*
X102951977Y-65237881D01*
X102955000Y-65264250D01*
X103113750Y-65423000D01*
X103733000Y-65423000D01*
X103733000Y-64946694D01*
X103803516Y-64876178D01*
X103803516Y-63776930D01*
X102754242Y-63776930D01*
X102595492Y-63935680D01*
X102592420Y-64399928D01*
X101042602Y-64399928D01*
X101042602Y-64347922D01*
X101062602Y-64347922D01*
X101062602Y-62748672D01*
X101316602Y-62748672D01*
X101316602Y-64347922D01*
X102415850Y-64347922D01*
X102574600Y-64189172D01*
X102577672Y-63224922D01*
X102565412Y-63100440D01*
X102529102Y-62980742D01*
X102470137Y-62870428D01*
X102390785Y-62773737D01*
X102294094Y-62694385D01*
X102183780Y-62635420D01*
X102064082Y-62599110D01*
X101939600Y-62586850D01*
X101475352Y-62589922D01*
X101316602Y-62748672D01*
X101062602Y-62748672D01*
X100903852Y-62589922D01*
X100685000Y-62588474D01*
X100685000Y-58211526D01*
X100903852Y-58210078D01*
X101062602Y-58051328D01*
X101062602Y-56452078D01*
X101316602Y-56452078D01*
X101316602Y-58051328D01*
X101475352Y-58210078D01*
X101939600Y-58213150D01*
X102064082Y-58200890D01*
X102183780Y-58164580D01*
X102294094Y-58105615D01*
X102390785Y-58026263D01*
X102470137Y-57929572D01*
X102529102Y-57819258D01*
X102565412Y-57699560D01*
X102577672Y-57575078D01*
X102574600Y-56610828D01*
X102415850Y-56452078D01*
X101316602Y-56452078D01*
X101062602Y-56452078D01*
X101042602Y-56452078D01*
X101042602Y-56198078D01*
X101062602Y-56198078D01*
X101062602Y-54598828D01*
X100903852Y-54440078D01*
X100685000Y-54438630D01*
X100685000Y-50685000D01*
X101215649Y-50685000D01*
X101198815Y-50698815D01*
G04 #@! TA.AperFunction,Conductor*
D27*
G36*
X101198815Y-50698815D02*
G01*
X101119463Y-50795506D01*
X101060498Y-50905820D01*
X101024188Y-51025518D01*
X101011928Y-51150000D01*
X101011928Y-52850000D01*
X101024188Y-52974482D01*
X101060498Y-53094180D01*
X101119463Y-53204494D01*
X101198815Y-53301185D01*
X101295506Y-53380537D01*
X101405820Y-53439502D01*
X101525518Y-53475812D01*
X101650000Y-53488072D01*
X103350000Y-53488072D01*
X103474482Y-53475812D01*
X103594180Y-53439502D01*
X103704494Y-53380537D01*
X103801185Y-53301185D01*
X103880537Y-53204494D01*
X103939502Y-53094180D01*
X103963966Y-53013534D01*
X104039731Y-53097588D01*
X104273080Y-53271641D01*
X104535901Y-53396825D01*
X104683110Y-53441476D01*
X104913000Y-53320155D01*
X104913000Y-52127000D01*
X104893000Y-52127000D01*
X104893000Y-51873000D01*
X104913000Y-51873000D01*
X104913000Y-51853000D01*
X105167000Y-51853000D01*
X105167000Y-51873000D01*
X105187000Y-51873000D01*
X105187000Y-52127000D01*
X105167000Y-52127000D01*
X105167000Y-53320155D01*
X105396890Y-53441476D01*
X105544099Y-53396825D01*
X105806920Y-53271641D01*
X106040269Y-53097588D01*
X106235178Y-52881355D01*
X106304805Y-52764466D01*
X106426525Y-52946632D01*
X106633368Y-53153475D01*
X106876589Y-53315990D01*
X107146842Y-53427932D01*
X107433740Y-53485000D01*
X107726260Y-53485000D01*
X108013158Y-53427932D01*
X108283411Y-53315990D01*
X108334388Y-53281928D01*
X108747449Y-53694990D01*
X105877335Y-53694990D01*
X105840010Y-53691314D01*
X105802685Y-53694990D01*
X105802677Y-53694990D01*
X105691024Y-53705987D01*
X105547763Y-53749444D01*
X105533762Y-53756928D01*
X105137500Y-53756928D01*
X104966684Y-53773752D01*
X104802433Y-53823577D01*
X104651058Y-53904488D01*
X104627161Y-53924099D01*
X104554494Y-53864463D01*
X104444180Y-53805498D01*
X104324482Y-53769188D01*
X104200000Y-53756928D01*
X103960750Y-53760000D01*
X103802000Y-53918750D01*
X103802000Y-54743000D01*
X103822000Y-54743000D01*
X103822000Y-54997000D01*
X103802000Y-54997000D01*
X103802000Y-55017000D01*
X103548000Y-55017000D01*
X103548000Y-54997000D01*
X103528000Y-54997000D01*
X103528000Y-54743000D01*
X103548000Y-54743000D01*
X103548000Y-53918750D01*
X103389250Y-53760000D01*
X103150000Y-53756928D01*
X103025518Y-53769188D01*
X102905820Y-53805498D01*
X102795506Y-53864463D01*
X102698815Y-53943815D01*
X102619463Y-54040506D01*
X102560498Y-54150820D01*
X102524188Y-54270518D01*
X102511928Y-54395000D01*
X102515000Y-54584250D01*
X102673748Y-54742998D01*
X102515000Y-54742998D01*
X102515000Y-54804515D01*
X102470137Y-54720584D01*
X102390785Y-54623893D01*
X102294094Y-54544541D01*
X102183780Y-54485576D01*
X102064082Y-54449266D01*
X101939600Y-54437006D01*
X101475352Y-54440078D01*
X101316602Y-54598828D01*
X101316602Y-56198078D01*
X102415850Y-56198078D01*
X102574600Y-56039328D01*
X102575942Y-55618073D01*
X102619463Y-55699494D01*
X102698815Y-55796185D01*
X102795506Y-55875537D01*
X102839821Y-55899224D01*
X102779307Y-55948887D01*
X102699955Y-56045578D01*
X102640990Y-56155892D01*
X102604680Y-56275590D01*
X102592420Y-56400072D01*
X102595492Y-56864320D01*
X102754242Y-57023070D01*
X103803516Y-57023070D01*
X103803516Y-57003070D01*
X104057516Y-57003070D01*
X104057516Y-57023070D01*
X105106790Y-57023070D01*
X105265540Y-56864320D01*
X105266928Y-56654562D01*
X105266928Y-57286250D01*
X105277311Y-57391670D01*
X105237769Y-57408049D01*
X105106790Y-57277070D01*
X104057516Y-57277070D01*
X104057516Y-57297070D01*
X103803516Y-57297070D01*
X103803516Y-57277070D01*
X102754242Y-57277070D01*
X102595492Y-57435820D01*
X102592420Y-57900068D01*
X102604680Y-58024550D01*
X102640990Y-58144248D01*
X102699955Y-58254562D01*
X102779307Y-58351253D01*
X102864224Y-58420942D01*
X102864224Y-58503115D01*
X102902078Y-58693417D01*
X102975761Y-58871305D01*
X102972582Y-58903585D01*
X102972582Y-59303583D01*
X102984842Y-59428065D01*
X102985036Y-59428704D01*
X102984842Y-59429343D01*
X102972582Y-59553825D01*
X102972582Y-59953823D01*
X102984842Y-60078305D01*
X102985036Y-60078944D01*
X102984842Y-60079583D01*
X102972582Y-60204065D01*
X102972582Y-60604063D01*
X102984842Y-60728545D01*
X102985036Y-60729184D01*
X102984842Y-60729823D01*
X102972582Y-60854305D01*
X102972582Y-61254303D01*
X102984842Y-61378785D01*
X102985534Y-61381065D01*
X102975654Y-61472795D01*
X103043900Y-61541041D01*
X103080117Y-61608797D01*
X103157360Y-61702918D01*
X103084127Y-61776151D01*
X102980085Y-61931862D01*
X102975654Y-61936293D01*
X102975895Y-61938532D01*
X102902078Y-62116743D01*
X102864224Y-62307045D01*
X102864224Y-62379058D01*
X102779307Y-62448747D01*
X102699955Y-62545438D01*
X102640990Y-62655752D01*
X102604680Y-62775450D01*
X102592420Y-62899932D01*
X102595492Y-63364180D01*
X102754242Y-63522930D01*
X103803516Y-63522930D01*
X103803516Y-63502930D01*
X104057516Y-63502930D01*
X104057516Y-63522930D01*
X105106790Y-63522930D01*
X105265540Y-63364180D01*
X105268612Y-62899932D01*
X105256352Y-62775450D01*
X105220042Y-62655752D01*
X105161077Y-62545438D01*
X105157716Y-62541343D01*
X105402331Y-62542561D01*
X105526962Y-62531924D01*
X105647123Y-62497178D01*
X105758197Y-62439657D01*
X105855914Y-62361572D01*
X105923105Y-62281843D01*
X105940498Y-62339180D01*
X105975680Y-62405000D01*
X105940498Y-62470820D01*
X105904188Y-62590518D01*
X105891928Y-62715000D01*
X105895000Y-62904250D01*
X106053750Y-63063000D01*
X106928000Y-63063000D01*
X106928000Y-61747000D01*
X106908000Y-61747000D01*
X106908000Y-61493000D01*
X106928000Y-61493000D01*
X106928000Y-61473000D01*
X107182000Y-61473000D01*
X107182000Y-61493000D01*
X107202000Y-61493000D01*
X107202000Y-61747000D01*
X107182000Y-61747000D01*
X107182000Y-63063000D01*
X107202000Y-63063000D01*
X107202000Y-63317000D01*
X107182000Y-63317000D01*
X107182000Y-63337000D01*
X106928000Y-63337000D01*
X106928000Y-63317000D01*
X106053750Y-63317000D01*
X105895000Y-63475750D01*
X105891928Y-63665000D01*
X105904188Y-63789482D01*
X105940498Y-63909180D01*
X105999463Y-64019494D01*
X106078815Y-64116185D01*
X106111905Y-64143341D01*
X105954215Y-64158872D01*
X105788791Y-64209053D01*
X105636336Y-64290542D01*
X105502708Y-64400208D01*
X105393042Y-64533836D01*
X105326160Y-64658963D01*
X105310842Y-64650775D01*
X105225841Y-64624990D01*
X105256352Y-64524410D01*
X105268612Y-64399928D01*
X105265540Y-63935680D01*
X105106790Y-63776930D01*
X104057516Y-63776930D01*
X104057516Y-64683234D01*
X103987000Y-64753750D01*
X103987000Y-65213462D01*
X103986782Y-65214181D01*
X103971928Y-65365000D01*
X103971928Y-65735000D01*
X103986782Y-65885819D01*
X103987000Y-65886538D01*
X103987000Y-66346250D01*
X104145750Y-66505000D01*
X104262202Y-66494226D01*
X104381442Y-66456441D01*
X104421451Y-66434416D01*
X104449158Y-66449225D01*
X104594181Y-66493218D01*
X104745000Y-66508072D01*
X105015000Y-66508072D01*
X105165819Y-66493218D01*
X105310842Y-66449225D01*
X105384363Y-66409927D01*
X105393042Y-66426164D01*
X105502708Y-66559792D01*
X105636336Y-66669458D01*
X105651321Y-66677468D01*
X105263790Y-67064999D01*
X102612323Y-67064999D01*
X102575000Y-67061323D01*
X102537678Y-67064999D01*
X102537668Y-67064999D01*
X102426015Y-67075996D01*
X102282754Y-67119453D01*
X102150725Y-67190025D01*
X102035000Y-67284998D01*
X102011203Y-67313995D01*
X101989000Y-67336198D01*
X101959999Y-67359999D01*
X101917121Y-67412247D01*
X101865026Y-67475724D01*
X101845674Y-67511928D01*
X101650000Y-67511928D01*
X101525518Y-67524188D01*
X101405820Y-67560498D01*
X101295506Y-67619463D01*
X101198815Y-67698815D01*
X101119463Y-67795506D01*
X101060498Y-67905820D01*
X101024188Y-68025518D01*
X101011928Y-68150000D01*
X101011928Y-69850000D01*
X101024188Y-69974482D01*
X101060498Y-70094180D01*
X101119463Y-70204494D01*
X101198815Y-70301185D01*
X101215649Y-70315000D01*
X100685000Y-70315000D01*
X100685000Y-66361370D01*
X100903852Y-66359922D01*
X101062602Y-66201172D01*
X101062602Y-64601922D01*
X101316602Y-64601922D01*
X101316602Y-66201172D01*
X101475352Y-66359922D01*
X101939600Y-66362994D01*
X102064082Y-66350734D01*
X102183780Y-66314424D01*
X102294094Y-66255459D01*
X102390785Y-66176107D01*
X102470137Y-66079416D01*
X102529102Y-65969102D01*
X102561554Y-65862119D01*
X102951977Y-65862119D01*
X102962699Y-65986742D01*
X102997527Y-66106879D01*
X103055124Y-66217914D01*
X103133276Y-66315578D01*
X103228980Y-66396118D01*
X103338558Y-66456441D01*
X103457798Y-66494226D01*
X103574250Y-66505000D01*
X103733000Y-66346250D01*
X103733000Y-65677000D01*
X103113750Y-65677000D01*
X102955000Y-65835750D01*
X102951977Y-65862119D01*
X102561554Y-65862119D01*
X102565412Y-65849404D01*
X102577672Y-65724922D01*
X102574600Y-64760672D01*
X102415850Y-64601922D01*
X101316602Y-64601922D01*
X101062602Y-64601922D01*
X101042602Y-64601922D01*
X101042602Y-64399928D01*
X102592420Y-64399928D01*
X102604680Y-64524410D01*
X102640990Y-64644108D01*
X102699955Y-64754422D01*
X102779307Y-64851113D01*
X102875998Y-64930465D01*
X102986312Y-64989430D01*
X102997657Y-64992871D01*
X102997527Y-64993121D01*
X102962699Y-65113258D01*
X102951977Y-65237881D01*
X102955000Y-65264250D01*
X103113750Y-65423000D01*
X103733000Y-65423000D01*
X103733000Y-64946694D01*
X103803516Y-64876178D01*
X103803516Y-63776930D01*
X102754242Y-63776930D01*
X102595492Y-63935680D01*
X102592420Y-64399928D01*
X101042602Y-64399928D01*
X101042602Y-64347922D01*
X101062602Y-64347922D01*
X101062602Y-62748672D01*
X101316602Y-62748672D01*
X101316602Y-64347922D01*
X102415850Y-64347922D01*
X102574600Y-64189172D01*
X102577672Y-63224922D01*
X102565412Y-63100440D01*
X102529102Y-62980742D01*
X102470137Y-62870428D01*
X102390785Y-62773737D01*
X102294094Y-62694385D01*
X102183780Y-62635420D01*
X102064082Y-62599110D01*
X101939600Y-62586850D01*
X101475352Y-62589922D01*
X101316602Y-62748672D01*
X101062602Y-62748672D01*
X100903852Y-62589922D01*
X100685000Y-62588474D01*
X100685000Y-58211526D01*
X100903852Y-58210078D01*
X101062602Y-58051328D01*
X101062602Y-56452078D01*
X101316602Y-56452078D01*
X101316602Y-58051328D01*
X101475352Y-58210078D01*
X101939600Y-58213150D01*
X102064082Y-58200890D01*
X102183780Y-58164580D01*
X102294094Y-58105615D01*
X102390785Y-58026263D01*
X102470137Y-57929572D01*
X102529102Y-57819258D01*
X102565412Y-57699560D01*
X102577672Y-57575078D01*
X102574600Y-56610828D01*
X102415850Y-56452078D01*
X101316602Y-56452078D01*
X101062602Y-56452078D01*
X101042602Y-56452078D01*
X101042602Y-56198078D01*
X101062602Y-56198078D01*
X101062602Y-54598828D01*
X100903852Y-54440078D01*
X100685000Y-54438630D01*
X100685000Y-50685000D01*
X101215649Y-50685000D01*
X101198815Y-50698815D01*
G37*
G04 #@! TD.AperFunction*
D26*
X148347000Y-68873000D02*
X148367000Y-68873000D01*
X148367000Y-69127000D01*
X148347000Y-69127000D01*
X148347000Y-69147000D01*
X148093000Y-69147000D01*
X148093000Y-69127000D01*
X148073000Y-69127000D01*
X148073000Y-68873000D01*
X148093000Y-68873000D01*
X148093000Y-68853000D01*
X148347000Y-68853000D01*
X148347000Y-68873000D01*
G04 #@! TA.AperFunction,Conductor*
D27*
G36*
X148347000Y-68873000D02*
G01*
X148367000Y-68873000D01*
X148367000Y-69127000D01*
X148347000Y-69127000D01*
X148347000Y-69147000D01*
X148093000Y-69147000D01*
X148093000Y-69127000D01*
X148073000Y-69127000D01*
X148073000Y-68873000D01*
X148093000Y-68873000D01*
X148093000Y-68853000D01*
X148347000Y-68853000D01*
X148347000Y-68873000D01*
G37*
G04 #@! TD.AperFunction*
D26*
X148230000Y-61658212D02*
X148230000Y-61881788D01*
X148273617Y-62101067D01*
X148359176Y-62307624D01*
X148427353Y-62409658D01*
X148377877Y-62479794D01*
X148287554Y-62683136D01*
X148270881Y-62738126D01*
X148397046Y-62913000D01*
X149238000Y-62913000D01*
X149238000Y-62901974D01*
X149253212Y-62905000D01*
X149476788Y-62905000D01*
X149492000Y-62901974D01*
X149492000Y-62913000D01*
X149503026Y-62913000D01*
X149500000Y-62928212D01*
X149500000Y-63151788D01*
X149503026Y-63167000D01*
X149492000Y-63167000D01*
X149492000Y-64009129D01*
X149666876Y-64134126D01*
X149874529Y-64054210D01*
X149995488Y-63977744D01*
X150097376Y-64045824D01*
X150303933Y-64131383D01*
X150523212Y-64175000D01*
X150746788Y-64175000D01*
X150966067Y-64131383D01*
X151172624Y-64045824D01*
X151175001Y-64044235D01*
X151175002Y-67568456D01*
X150906260Y-67515000D01*
X150613740Y-67515000D01*
X150541039Y-67529461D01*
X150189531Y-67177953D01*
X150161816Y-67144182D01*
X150027058Y-67033588D01*
X149873312Y-66951410D01*
X149706489Y-66900804D01*
X149576476Y-66887999D01*
X149576468Y-66887999D01*
X149532999Y-66883718D01*
X149489530Y-66887999D01*
X146502500Y-66887999D01*
X146502500Y-66098215D01*
X146594458Y-65986164D01*
X146675947Y-65833709D01*
X146726128Y-65668285D01*
X146743072Y-65496250D01*
X146743072Y-64583750D01*
X146726128Y-64411715D01*
X146675947Y-64246291D01*
X146594458Y-64093836D01*
X146502500Y-63981785D01*
X146502500Y-63344078D01*
X146504704Y-63341874D01*
X148270881Y-63341874D01*
X148287554Y-63396864D01*
X148377877Y-63600206D01*
X148506135Y-63782020D01*
X148667399Y-63935318D01*
X148855471Y-64054210D01*
X149063124Y-64134126D01*
X149238000Y-64009129D01*
X149238000Y-63167000D01*
X148397046Y-63167000D01*
X148270881Y-63341874D01*
X146504704Y-63341874D01*
X148240338Y-61606241D01*
X148230000Y-61658212D01*
G04 #@! TA.AperFunction,Conductor*
D27*
G36*
X148230000Y-61658212D02*
G01*
X148230000Y-61881788D01*
X148273617Y-62101067D01*
X148359176Y-62307624D01*
X148427353Y-62409658D01*
X148377877Y-62479794D01*
X148287554Y-62683136D01*
X148270881Y-62738126D01*
X148397046Y-62913000D01*
X149238000Y-62913000D01*
X149238000Y-62901974D01*
X149253212Y-62905000D01*
X149476788Y-62905000D01*
X149492000Y-62901974D01*
X149492000Y-62913000D01*
X149503026Y-62913000D01*
X149500000Y-62928212D01*
X149500000Y-63151788D01*
X149503026Y-63167000D01*
X149492000Y-63167000D01*
X149492000Y-64009129D01*
X149666876Y-64134126D01*
X149874529Y-64054210D01*
X149995488Y-63977744D01*
X150097376Y-64045824D01*
X150303933Y-64131383D01*
X150523212Y-64175000D01*
X150746788Y-64175000D01*
X150966067Y-64131383D01*
X151172624Y-64045824D01*
X151175001Y-64044235D01*
X151175002Y-67568456D01*
X150906260Y-67515000D01*
X150613740Y-67515000D01*
X150541039Y-67529461D01*
X150189531Y-67177953D01*
X150161816Y-67144182D01*
X150027058Y-67033588D01*
X149873312Y-66951410D01*
X149706489Y-66900804D01*
X149576476Y-66887999D01*
X149576468Y-66887999D01*
X149532999Y-66883718D01*
X149489530Y-66887999D01*
X146502500Y-66887999D01*
X146502500Y-66098215D01*
X146594458Y-65986164D01*
X146675947Y-65833709D01*
X146726128Y-65668285D01*
X146743072Y-65496250D01*
X146743072Y-64583750D01*
X146726128Y-64411715D01*
X146675947Y-64246291D01*
X146594458Y-64093836D01*
X146502500Y-63981785D01*
X146502500Y-63344078D01*
X146504704Y-63341874D01*
X148270881Y-63341874D01*
X148287554Y-63396864D01*
X148377877Y-63600206D01*
X148506135Y-63782020D01*
X148667399Y-63935318D01*
X148855471Y-64054210D01*
X149063124Y-64134126D01*
X149238000Y-64009129D01*
X149238000Y-63167000D01*
X148397046Y-63167000D01*
X148270881Y-63341874D01*
X146504704Y-63341874D01*
X148240338Y-61606241D01*
X148230000Y-61658212D01*
G37*
G04 #@! TD.AperFunction*
D26*
X149875000Y-56319802D02*
X149875000Y-56822913D01*
X149865000Y-56821928D01*
X148865000Y-56821928D01*
X148740518Y-56834188D01*
X148620820Y-56870498D01*
X148510506Y-56929463D01*
X148413815Y-57008815D01*
X148334463Y-57105506D01*
X148275498Y-57215820D01*
X148239188Y-57335518D01*
X148226928Y-57460000D01*
X148226928Y-58460000D01*
X148239188Y-58584482D01*
X148275498Y-58704180D01*
X148319888Y-58787226D01*
X148273617Y-58898933D01*
X148231190Y-59112232D01*
X146580454Y-60762968D01*
X146486250Y-60762968D01*
X146644998Y-60604220D01*
X146648070Y-60439971D01*
X146635810Y-60315489D01*
X146599500Y-60195791D01*
X146540535Y-60085477D01*
X146461183Y-59988786D01*
X146364492Y-59909434D01*
X146254178Y-59850469D01*
X146134480Y-59814159D01*
X146009998Y-59801899D01*
X145445750Y-59804971D01*
X145287000Y-59963721D01*
X145287000Y-60762970D01*
X145307000Y-60762970D01*
X145307000Y-61016970D01*
X145287000Y-61016970D01*
X145287000Y-61816219D01*
X145407101Y-61936320D01*
X145022456Y-62320966D01*
X144988683Y-62348683D01*
X144920000Y-62432373D01*
X144920000Y-62372998D01*
X144761252Y-62372998D01*
X144920000Y-62214250D01*
X144921433Y-61927786D01*
X145033000Y-61816219D01*
X145033000Y-61016970D01*
X144541288Y-61016970D01*
X144529180Y-61010498D01*
X144409482Y-60974188D01*
X144285000Y-60961928D01*
X143908250Y-60965000D01*
X143856280Y-61016970D01*
X143833752Y-61016970D01*
X143675002Y-61175720D01*
X143671930Y-61339969D01*
X143684190Y-61464451D01*
X143720500Y-61584149D01*
X143749500Y-61638403D01*
X143749500Y-62373000D01*
X143769500Y-62373000D01*
X143769500Y-62627000D01*
X143749500Y-62627000D01*
X143749500Y-62647000D01*
X143495500Y-62647000D01*
X143495500Y-62627000D01*
X142483750Y-62627000D01*
X142325000Y-62785750D01*
X142321928Y-63400000D01*
X142334188Y-63524482D01*
X142370498Y-63644180D01*
X142429463Y-63754494D01*
X142508815Y-63851185D01*
X142605506Y-63930537D01*
X142715820Y-63989502D01*
X142824189Y-64022375D01*
X142794461Y-64058599D01*
X142774496Y-64042214D01*
X142640842Y-63970775D01*
X142495819Y-63926782D01*
X142345000Y-63911928D01*
X142075000Y-63911928D01*
X141924181Y-63926782D01*
X141779158Y-63970775D01*
X141700000Y-64013086D01*
X141646313Y-63984390D01*
X141615226Y-63828102D01*
X141575507Y-63732213D01*
X141648405Y-63643387D01*
X141730472Y-63489851D01*
X141781008Y-63323255D01*
X141798072Y-63150001D01*
X141798072Y-61849999D01*
X141781008Y-61676745D01*
X141757728Y-61600000D01*
X142321928Y-61600000D01*
X142325000Y-62214250D01*
X142483750Y-62373000D01*
X143495500Y-62373000D01*
X143495500Y-61123750D01*
X143336750Y-60965000D01*
X142960000Y-60961928D01*
X142835518Y-60974188D01*
X142715820Y-61010498D01*
X142605506Y-61069463D01*
X142508815Y-61148815D01*
X142429463Y-61245506D01*
X142370498Y-61355820D01*
X142334188Y-61475518D01*
X142321928Y-61600000D01*
X141757728Y-61600000D01*
X141730472Y-61510149D01*
X141648405Y-61356613D01*
X141537962Y-61222038D01*
X141403387Y-61111595D01*
X141249851Y-61029528D01*
X141083255Y-60978992D01*
X140910001Y-60961928D01*
X140739284Y-60961928D01*
X141051202Y-60650009D01*
X141889070Y-60650008D01*
X141926401Y-60653685D01*
X141975613Y-60648838D01*
X142075387Y-60639011D01*
X142127052Y-60623339D01*
X142218647Y-60595555D01*
X142350677Y-60524983D01*
X142437403Y-60453808D01*
X142437404Y-60453807D01*
X142454263Y-60439971D01*
X143671930Y-60439971D01*
X143675002Y-60604220D01*
X143833752Y-60762970D01*
X145033000Y-60762970D01*
X145033000Y-59963721D01*
X144874250Y-59804971D01*
X144310002Y-59801899D01*
X144185520Y-59814159D01*
X144065822Y-59850469D01*
X143955508Y-59909434D01*
X143858817Y-59988786D01*
X143779465Y-60085477D01*
X143720500Y-60195791D01*
X143684190Y-60315489D01*
X143671930Y-60439971D01*
X142454263Y-60439971D01*
X142466402Y-60430009D01*
X142490200Y-60401011D01*
X144101019Y-58790194D01*
X144130011Y-58766401D01*
X144153805Y-58737408D01*
X144153809Y-58737404D01*
X144183152Y-58701649D01*
X144338997Y-58545804D01*
X144368000Y-58522002D01*
X144462973Y-58406277D01*
X144533545Y-58274248D01*
X144577002Y-58130987D01*
X144587999Y-58019334D01*
X144587999Y-58019325D01*
X144591675Y-57982002D01*
X144587999Y-57944679D01*
X144587999Y-57378101D01*
X146009998Y-57378101D01*
X146134480Y-57365841D01*
X146254178Y-57329531D01*
X146364492Y-57270566D01*
X146461183Y-57191214D01*
X146540535Y-57094523D01*
X146599500Y-56984209D01*
X146635810Y-56864511D01*
X146648070Y-56740029D01*
X146648070Y-55840031D01*
X146635810Y-55715549D01*
X146599500Y-55595851D01*
X146540535Y-55485537D01*
X146461183Y-55388846D01*
X146364492Y-55309494D01*
X146254178Y-55250529D01*
X146134480Y-55214219D01*
X146128072Y-55213588D01*
X146128072Y-55115000D01*
X146113218Y-54964181D01*
X146069225Y-54819158D01*
X146026914Y-54740000D01*
X146069225Y-54660842D01*
X146113218Y-54515819D01*
X146128072Y-54365000D01*
X146128072Y-54273837D01*
X146237271Y-54319068D01*
X146417911Y-54355000D01*
X146602089Y-54355000D01*
X146782729Y-54319068D01*
X146952889Y-54248586D01*
X147055535Y-54180000D01*
X147735199Y-54180000D01*
X149875000Y-56319802D01*
G04 #@! TA.AperFunction,Conductor*
D27*
G36*
X149875000Y-56319802D02*
G01*
X149875000Y-56822913D01*
X149865000Y-56821928D01*
X148865000Y-56821928D01*
X148740518Y-56834188D01*
X148620820Y-56870498D01*
X148510506Y-56929463D01*
X148413815Y-57008815D01*
X148334463Y-57105506D01*
X148275498Y-57215820D01*
X148239188Y-57335518D01*
X148226928Y-57460000D01*
X148226928Y-58460000D01*
X148239188Y-58584482D01*
X148275498Y-58704180D01*
X148319888Y-58787226D01*
X148273617Y-58898933D01*
X148231190Y-59112232D01*
X146580454Y-60762968D01*
X146486250Y-60762968D01*
X146644998Y-60604220D01*
X146648070Y-60439971D01*
X146635810Y-60315489D01*
X146599500Y-60195791D01*
X146540535Y-60085477D01*
X146461183Y-59988786D01*
X146364492Y-59909434D01*
X146254178Y-59850469D01*
X146134480Y-59814159D01*
X146009998Y-59801899D01*
X145445750Y-59804971D01*
X145287000Y-59963721D01*
X145287000Y-60762970D01*
X145307000Y-60762970D01*
X145307000Y-61016970D01*
X145287000Y-61016970D01*
X145287000Y-61816219D01*
X145407101Y-61936320D01*
X145022456Y-62320966D01*
X144988683Y-62348683D01*
X144920000Y-62432373D01*
X144920000Y-62372998D01*
X144761252Y-62372998D01*
X144920000Y-62214250D01*
X144921433Y-61927786D01*
X145033000Y-61816219D01*
X145033000Y-61016970D01*
X144541288Y-61016970D01*
X144529180Y-61010498D01*
X144409482Y-60974188D01*
X144285000Y-60961928D01*
X143908250Y-60965000D01*
X143856280Y-61016970D01*
X143833752Y-61016970D01*
X143675002Y-61175720D01*
X143671930Y-61339969D01*
X143684190Y-61464451D01*
X143720500Y-61584149D01*
X143749500Y-61638403D01*
X143749500Y-62373000D01*
X143769500Y-62373000D01*
X143769500Y-62627000D01*
X143749500Y-62627000D01*
X143749500Y-62647000D01*
X143495500Y-62647000D01*
X143495500Y-62627000D01*
X142483750Y-62627000D01*
X142325000Y-62785750D01*
X142321928Y-63400000D01*
X142334188Y-63524482D01*
X142370498Y-63644180D01*
X142429463Y-63754494D01*
X142508815Y-63851185D01*
X142605506Y-63930537D01*
X142715820Y-63989502D01*
X142824189Y-64022375D01*
X142794461Y-64058599D01*
X142774496Y-64042214D01*
X142640842Y-63970775D01*
X142495819Y-63926782D01*
X142345000Y-63911928D01*
X142075000Y-63911928D01*
X141924181Y-63926782D01*
X141779158Y-63970775D01*
X141700000Y-64013086D01*
X141646313Y-63984390D01*
X141615226Y-63828102D01*
X141575507Y-63732213D01*
X141648405Y-63643387D01*
X141730472Y-63489851D01*
X141781008Y-63323255D01*
X141798072Y-63150001D01*
X141798072Y-61849999D01*
X141781008Y-61676745D01*
X141757728Y-61600000D01*
X142321928Y-61600000D01*
X142325000Y-62214250D01*
X142483750Y-62373000D01*
X143495500Y-62373000D01*
X143495500Y-61123750D01*
X143336750Y-60965000D01*
X142960000Y-60961928D01*
X142835518Y-60974188D01*
X142715820Y-61010498D01*
X142605506Y-61069463D01*
X142508815Y-61148815D01*
X142429463Y-61245506D01*
X142370498Y-61355820D01*
X142334188Y-61475518D01*
X142321928Y-61600000D01*
X141757728Y-61600000D01*
X141730472Y-61510149D01*
X141648405Y-61356613D01*
X141537962Y-61222038D01*
X141403387Y-61111595D01*
X141249851Y-61029528D01*
X141083255Y-60978992D01*
X140910001Y-60961928D01*
X140739284Y-60961928D01*
X141051202Y-60650009D01*
X141889070Y-60650008D01*
X141926401Y-60653685D01*
X141975613Y-60648838D01*
X142075387Y-60639011D01*
X142127052Y-60623339D01*
X142218647Y-60595555D01*
X142350677Y-60524983D01*
X142437403Y-60453808D01*
X142437404Y-60453807D01*
X142454263Y-60439971D01*
X143671930Y-60439971D01*
X143675002Y-60604220D01*
X143833752Y-60762970D01*
X145033000Y-60762970D01*
X145033000Y-59963721D01*
X144874250Y-59804971D01*
X144310002Y-59801899D01*
X144185520Y-59814159D01*
X144065822Y-59850469D01*
X143955508Y-59909434D01*
X143858817Y-59988786D01*
X143779465Y-60085477D01*
X143720500Y-60195791D01*
X143684190Y-60315489D01*
X143671930Y-60439971D01*
X142454263Y-60439971D01*
X142466402Y-60430009D01*
X142490200Y-60401011D01*
X144101019Y-58790194D01*
X144130011Y-58766401D01*
X144153805Y-58737408D01*
X144153809Y-58737404D01*
X144183152Y-58701649D01*
X144338997Y-58545804D01*
X144368000Y-58522002D01*
X144462973Y-58406277D01*
X144533545Y-58274248D01*
X144577002Y-58130987D01*
X144587999Y-58019334D01*
X144587999Y-58019325D01*
X144591675Y-57982002D01*
X144587999Y-57944679D01*
X144587999Y-57378101D01*
X146009998Y-57378101D01*
X146134480Y-57365841D01*
X146254178Y-57329531D01*
X146364492Y-57270566D01*
X146461183Y-57191214D01*
X146540535Y-57094523D01*
X146599500Y-56984209D01*
X146635810Y-56864511D01*
X146648070Y-56740029D01*
X146648070Y-55840031D01*
X146635810Y-55715549D01*
X146599500Y-55595851D01*
X146540535Y-55485537D01*
X146461183Y-55388846D01*
X146364492Y-55309494D01*
X146254178Y-55250529D01*
X146134480Y-55214219D01*
X146128072Y-55213588D01*
X146128072Y-55115000D01*
X146113218Y-54964181D01*
X146069225Y-54819158D01*
X146026914Y-54740000D01*
X146069225Y-54660842D01*
X146113218Y-54515819D01*
X146128072Y-54365000D01*
X146128072Y-54273837D01*
X146237271Y-54319068D01*
X146417911Y-54355000D01*
X146602089Y-54355000D01*
X146782729Y-54319068D01*
X146952889Y-54248586D01*
X147055535Y-54180000D01*
X147735199Y-54180000D01*
X149875000Y-56319802D01*
G37*
G04 #@! TD.AperFunction*
D26*
X114624633Y-55499031D02*
X114773619Y-55513705D01*
X114810952Y-55510028D01*
X119467462Y-55510030D01*
X121123725Y-57166293D01*
X121059744Y-57192795D01*
X120890226Y-57306063D01*
X120746063Y-57450226D01*
X120632795Y-57619744D01*
X120554774Y-57808102D01*
X120515000Y-58008061D01*
X120515000Y-58211939D01*
X120554774Y-58411898D01*
X120632795Y-58600256D01*
X120746063Y-58769774D01*
X120890226Y-58913937D01*
X121059744Y-59027205D01*
X121248102Y-59105226D01*
X121448061Y-59145000D01*
X121651939Y-59145000D01*
X121851898Y-59105226D01*
X122040256Y-59027205D01*
X122182492Y-58932166D01*
X122344404Y-59094079D01*
X122342256Y-59096790D01*
X122335025Y-59111078D01*
X122314589Y-59122001D01*
X122208427Y-59209126D01*
X122120039Y-59297514D01*
X122032914Y-59403676D01*
X121968174Y-59524796D01*
X121928307Y-59656218D01*
X121914846Y-59792893D01*
X121928307Y-59929568D01*
X121929695Y-59934144D01*
X118838840Y-63025000D01*
X117890535Y-63025000D01*
X117787889Y-62956414D01*
X117617729Y-62885932D01*
X117593632Y-62881139D01*
X118806010Y-61668762D01*
X118835002Y-61644969D01*
X118858796Y-61615976D01*
X118858800Y-61615972D01*
X118917654Y-61544257D01*
X118929975Y-61529244D01*
X119000547Y-61397215D01*
X119044004Y-61253954D01*
X119055001Y-61142301D01*
X119055001Y-61142292D01*
X119058677Y-61104969D01*
X119055001Y-61067646D01*
X119055001Y-60822199D01*
X119069999Y-60823676D01*
X119107322Y-60820000D01*
X119466289Y-60820000D01*
X119510226Y-60863937D01*
X119679744Y-60977205D01*
X119868102Y-61055226D01*
X120068061Y-61095000D01*
X120271939Y-61095000D01*
X120471898Y-61055226D01*
X120660256Y-60977205D01*
X120829774Y-60863937D01*
X120973937Y-60719774D01*
X121087205Y-60550256D01*
X121165226Y-60361898D01*
X121205000Y-60161939D01*
X121205000Y-59958061D01*
X121165226Y-59758102D01*
X121087205Y-59569744D01*
X120973937Y-59400226D01*
X120829774Y-59256063D01*
X120660256Y-59142795D01*
X120471898Y-59064774D01*
X120271939Y-59025000D01*
X120068061Y-59025000D01*
X119868102Y-59064774D01*
X119679744Y-59142795D01*
X119510226Y-59256063D01*
X119466289Y-59300000D01*
X119384802Y-59300000D01*
X118858804Y-58774003D01*
X118835002Y-58745000D01*
X118806004Y-58721202D01*
X118137750Y-58052949D01*
X118138041Y-58049998D01*
X118134969Y-57485750D01*
X117976219Y-57327000D01*
X117176970Y-57327000D01*
X117176970Y-57347000D01*
X116922970Y-57347000D01*
X116922970Y-57327000D01*
X116123721Y-57327000D01*
X115964971Y-57485750D01*
X115964785Y-57519983D01*
X115170000Y-56725199D01*
X115170000Y-56477325D01*
X115173676Y-56440000D01*
X115170000Y-56402675D01*
X115170000Y-56402667D01*
X115164813Y-56350002D01*
X115961899Y-56350002D01*
X115964971Y-56914250D01*
X116123721Y-57073000D01*
X116922970Y-57073000D01*
X116922970Y-55873752D01*
X117176970Y-55873752D01*
X117176970Y-57073000D01*
X117976219Y-57073000D01*
X118134969Y-56914250D01*
X118138041Y-56350002D01*
X118125781Y-56225520D01*
X118089471Y-56105822D01*
X118030506Y-55995508D01*
X117951154Y-55898817D01*
X117854463Y-55819465D01*
X117744149Y-55760500D01*
X117624451Y-55724190D01*
X117499969Y-55711930D01*
X117335720Y-55715002D01*
X117176970Y-55873752D01*
X116922970Y-55873752D01*
X116764220Y-55715002D01*
X116599971Y-55711930D01*
X116475489Y-55724190D01*
X116355791Y-55760500D01*
X116245477Y-55819465D01*
X116148786Y-55898817D01*
X116069434Y-55995508D01*
X116010469Y-56105822D01*
X115974159Y-56225520D01*
X115961899Y-56350002D01*
X115164813Y-56350002D01*
X115159003Y-56291014D01*
X115115546Y-56147753D01*
X115044974Y-56015724D01*
X114950001Y-55899999D01*
X114921003Y-55876201D01*
X114508652Y-55463850D01*
X114624633Y-55499031D01*
G04 #@! TA.AperFunction,Conductor*
D27*
G36*
X114624633Y-55499031D02*
G01*
X114773619Y-55513705D01*
X114810952Y-55510028D01*
X119467462Y-55510030D01*
X121123725Y-57166293D01*
X121059744Y-57192795D01*
X120890226Y-57306063D01*
X120746063Y-57450226D01*
X120632795Y-57619744D01*
X120554774Y-57808102D01*
X120515000Y-58008061D01*
X120515000Y-58211939D01*
X120554774Y-58411898D01*
X120632795Y-58600256D01*
X120746063Y-58769774D01*
X120890226Y-58913937D01*
X121059744Y-59027205D01*
X121248102Y-59105226D01*
X121448061Y-59145000D01*
X121651939Y-59145000D01*
X121851898Y-59105226D01*
X122040256Y-59027205D01*
X122182492Y-58932166D01*
X122344404Y-59094079D01*
X122342256Y-59096790D01*
X122335025Y-59111078D01*
X122314589Y-59122001D01*
X122208427Y-59209126D01*
X122120039Y-59297514D01*
X122032914Y-59403676D01*
X121968174Y-59524796D01*
X121928307Y-59656218D01*
X121914846Y-59792893D01*
X121928307Y-59929568D01*
X121929695Y-59934144D01*
X118838840Y-63025000D01*
X117890535Y-63025000D01*
X117787889Y-62956414D01*
X117617729Y-62885932D01*
X117593632Y-62881139D01*
X118806010Y-61668762D01*
X118835002Y-61644969D01*
X118858796Y-61615976D01*
X118858800Y-61615972D01*
X118917654Y-61544257D01*
X118929975Y-61529244D01*
X119000547Y-61397215D01*
X119044004Y-61253954D01*
X119055001Y-61142301D01*
X119055001Y-61142292D01*
X119058677Y-61104969D01*
X119055001Y-61067646D01*
X119055001Y-60822199D01*
X119069999Y-60823676D01*
X119107322Y-60820000D01*
X119466289Y-60820000D01*
X119510226Y-60863937D01*
X119679744Y-60977205D01*
X119868102Y-61055226D01*
X120068061Y-61095000D01*
X120271939Y-61095000D01*
X120471898Y-61055226D01*
X120660256Y-60977205D01*
X120829774Y-60863937D01*
X120973937Y-60719774D01*
X121087205Y-60550256D01*
X121165226Y-60361898D01*
X121205000Y-60161939D01*
X121205000Y-59958061D01*
X121165226Y-59758102D01*
X121087205Y-59569744D01*
X120973937Y-59400226D01*
X120829774Y-59256063D01*
X120660256Y-59142795D01*
X120471898Y-59064774D01*
X120271939Y-59025000D01*
X120068061Y-59025000D01*
X119868102Y-59064774D01*
X119679744Y-59142795D01*
X119510226Y-59256063D01*
X119466289Y-59300000D01*
X119384802Y-59300000D01*
X118858804Y-58774003D01*
X118835002Y-58745000D01*
X118806004Y-58721202D01*
X118137750Y-58052949D01*
X118138041Y-58049998D01*
X118134969Y-57485750D01*
X117976219Y-57327000D01*
X117176970Y-57327000D01*
X117176970Y-57347000D01*
X116922970Y-57347000D01*
X116922970Y-57327000D01*
X116123721Y-57327000D01*
X115964971Y-57485750D01*
X115964785Y-57519983D01*
X115170000Y-56725199D01*
X115170000Y-56477325D01*
X115173676Y-56440000D01*
X115170000Y-56402675D01*
X115170000Y-56402667D01*
X115164813Y-56350002D01*
X115961899Y-56350002D01*
X115964971Y-56914250D01*
X116123721Y-57073000D01*
X116922970Y-57073000D01*
X116922970Y-55873752D01*
X117176970Y-55873752D01*
X117176970Y-57073000D01*
X117976219Y-57073000D01*
X118134969Y-56914250D01*
X118138041Y-56350002D01*
X118125781Y-56225520D01*
X118089471Y-56105822D01*
X118030506Y-55995508D01*
X117951154Y-55898817D01*
X117854463Y-55819465D01*
X117744149Y-55760500D01*
X117624451Y-55724190D01*
X117499969Y-55711930D01*
X117335720Y-55715002D01*
X117176970Y-55873752D01*
X116922970Y-55873752D01*
X116764220Y-55715002D01*
X116599971Y-55711930D01*
X116475489Y-55724190D01*
X116355791Y-55760500D01*
X116245477Y-55819465D01*
X116148786Y-55898817D01*
X116069434Y-55995508D01*
X116010469Y-56105822D01*
X115974159Y-56225520D01*
X115961899Y-56350002D01*
X115164813Y-56350002D01*
X115159003Y-56291014D01*
X115115546Y-56147753D01*
X115044974Y-56015724D01*
X114950001Y-55899999D01*
X114921003Y-55876201D01*
X114508652Y-55463850D01*
X114624633Y-55499031D01*
G37*
G04 #@! TD.AperFunction*
D26*
X133631198Y-61137436D02*
X133821928Y-61175374D01*
X133821928Y-61290000D01*
X133836878Y-61441794D01*
X133881155Y-61587755D01*
X133904708Y-61631819D01*
X133870498Y-61695820D01*
X133834188Y-61815518D01*
X133821928Y-61940000D01*
X133821928Y-62858857D01*
X133697633Y-62734562D01*
X133673831Y-62705559D01*
X133558106Y-62610586D01*
X133426077Y-62540014D01*
X133282816Y-62496557D01*
X133171163Y-62485560D01*
X133171152Y-62485560D01*
X133133830Y-62481884D01*
X133096508Y-62485560D01*
X132835235Y-62485560D01*
X132255596Y-61905921D01*
X132257744Y-61903210D01*
X132264975Y-61888922D01*
X132285411Y-61877999D01*
X132297197Y-61868327D01*
X132347271Y-61889068D01*
X132527911Y-61925000D01*
X132712089Y-61925000D01*
X132892729Y-61889068D01*
X133062889Y-61818586D01*
X133216028Y-61716262D01*
X133346262Y-61586028D01*
X133448586Y-61432889D01*
X133519068Y-61262729D01*
X133550629Y-61104063D01*
X133631198Y-61137436D01*
G04 #@! TA.AperFunction,Conductor*
D27*
G36*
X133631198Y-61137436D02*
G01*
X133821928Y-61175374D01*
X133821928Y-61290000D01*
X133836878Y-61441794D01*
X133881155Y-61587755D01*
X133904708Y-61631819D01*
X133870498Y-61695820D01*
X133834188Y-61815518D01*
X133821928Y-61940000D01*
X133821928Y-62858857D01*
X133697633Y-62734562D01*
X133673831Y-62705559D01*
X133558106Y-62610586D01*
X133426077Y-62540014D01*
X133282816Y-62496557D01*
X133171163Y-62485560D01*
X133171152Y-62485560D01*
X133133830Y-62481884D01*
X133096508Y-62485560D01*
X132835235Y-62485560D01*
X132255596Y-61905921D01*
X132257744Y-61903210D01*
X132264975Y-61888922D01*
X132285411Y-61877999D01*
X132297197Y-61868327D01*
X132347271Y-61889068D01*
X132527911Y-61925000D01*
X132712089Y-61925000D01*
X132892729Y-61889068D01*
X133062889Y-61818586D01*
X133216028Y-61716262D01*
X133346262Y-61586028D01*
X133448586Y-61432889D01*
X133519068Y-61262729D01*
X133550629Y-61104063D01*
X133631198Y-61137436D01*
G37*
G04 #@! TD.AperFunction*
D26*
X135508956Y-60034974D02*
X135640985Y-60105546D01*
X135784246Y-60149003D01*
X135922854Y-60162655D01*
X135960474Y-60200276D01*
X135827000Y-60333750D01*
X135827000Y-60516288D01*
X135799386Y-60568524D01*
X135763625Y-60688387D01*
X135751935Y-60812923D01*
X135755000Y-60834250D01*
X135827000Y-60906250D01*
X135827000Y-60993000D01*
X136543000Y-60993000D01*
X136543000Y-60973000D01*
X136711928Y-60973000D01*
X136711928Y-61267000D01*
X136543000Y-61267000D01*
X136543000Y-61247000D01*
X135827000Y-61247000D01*
X135827000Y-61267000D01*
X135658072Y-61267000D01*
X135658072Y-60950000D01*
X135643122Y-60798206D01*
X135598845Y-60652245D01*
X135573000Y-60603892D01*
X135573000Y-60333750D01*
X135495000Y-60255750D01*
X135495000Y-60023521D01*
X135508956Y-60034974D01*
G04 #@! TA.AperFunction,Conductor*
D27*
G36*
X135508956Y-60034974D02*
G01*
X135640985Y-60105546D01*
X135784246Y-60149003D01*
X135922854Y-60162655D01*
X135960474Y-60200276D01*
X135827000Y-60333750D01*
X135827000Y-60516288D01*
X135799386Y-60568524D01*
X135763625Y-60688387D01*
X135751935Y-60812923D01*
X135755000Y-60834250D01*
X135827000Y-60906250D01*
X135827000Y-60993000D01*
X136543000Y-60993000D01*
X136543000Y-60973000D01*
X136711928Y-60973000D01*
X136711928Y-61267000D01*
X136543000Y-61267000D01*
X136543000Y-61247000D01*
X135827000Y-61247000D01*
X135827000Y-61267000D01*
X135658072Y-61267000D01*
X135658072Y-60950000D01*
X135643122Y-60798206D01*
X135598845Y-60652245D01*
X135573000Y-60603892D01*
X135573000Y-60333750D01*
X135495000Y-60255750D01*
X135495000Y-60023521D01*
X135508956Y-60034974D01*
G37*
G04 #@! TD.AperFunction*
D26*
X127493748Y-60485858D02*
X127479605Y-60500000D01*
X127493748Y-60514143D01*
X127314143Y-60693748D01*
X127300000Y-60679605D01*
X127285858Y-60693748D01*
X127106253Y-60514143D01*
X127120395Y-60500000D01*
X127106253Y-60485858D01*
X127285858Y-60306253D01*
X127300000Y-60320395D01*
X127314143Y-60306253D01*
X127493748Y-60485858D01*
G04 #@! TA.AperFunction,Conductor*
D27*
G36*
X127493748Y-60485858D02*
G01*
X127479605Y-60500000D01*
X127493748Y-60514143D01*
X127314143Y-60693748D01*
X127300000Y-60679605D01*
X127285858Y-60693748D01*
X127106253Y-60514143D01*
X127120395Y-60500000D01*
X127106253Y-60485858D01*
X127285858Y-60306253D01*
X127300000Y-60320395D01*
X127314143Y-60306253D01*
X127493748Y-60485858D01*
G37*
G04 #@! TD.AperFunction*
D26*
X150523212Y-60365000D02*
X150695199Y-60365000D01*
X150782000Y-60451801D01*
X150782000Y-60627000D01*
X150762000Y-60627000D01*
X150762000Y-60638026D01*
X150746788Y-60635000D01*
X150523212Y-60635000D01*
X150508000Y-60638026D01*
X150508000Y-60627000D01*
X150496974Y-60627000D01*
X150500000Y-60611788D01*
X150500000Y-60388212D01*
X150496974Y-60373000D01*
X150508000Y-60373000D01*
X150508000Y-60361974D01*
X150523212Y-60365000D01*
G04 #@! TA.AperFunction,Conductor*
D27*
G36*
X150523212Y-60365000D02*
G01*
X150695199Y-60365000D01*
X150782000Y-60451801D01*
X150782000Y-60627000D01*
X150762000Y-60627000D01*
X150762000Y-60638026D01*
X150746788Y-60635000D01*
X150523212Y-60635000D01*
X150508000Y-60638026D01*
X150508000Y-60627000D01*
X150496974Y-60627000D01*
X150500000Y-60611788D01*
X150500000Y-60388212D01*
X150496974Y-60373000D01*
X150508000Y-60373000D01*
X150508000Y-60361974D01*
X150523212Y-60365000D01*
G37*
G04 #@! TD.AperFunction*
D26*
X139137000Y-59593000D02*
X139157000Y-59593000D01*
X139157000Y-59758198D01*
X139048199Y-59867000D01*
X138968072Y-59867000D01*
X138968072Y-59573000D01*
X139137000Y-59573000D01*
X139137000Y-59593000D01*
G04 #@! TA.AperFunction,Conductor*
D27*
G36*
X139137000Y-59593000D02*
G01*
X139157000Y-59593000D01*
X139157000Y-59758198D01*
X139048199Y-59867000D01*
X138968072Y-59867000D01*
X138968072Y-59573000D01*
X139137000Y-59573000D01*
X139137000Y-59593000D01*
G37*
G04 #@! TD.AperFunction*
D26*
X140087000Y-57793000D02*
X140107000Y-57793000D01*
X140107000Y-58047000D01*
X140087000Y-58047000D01*
X140087000Y-58067000D01*
X139833000Y-58067000D01*
X139833000Y-58047000D01*
X139813000Y-58047000D01*
X139813000Y-57793000D01*
X139833000Y-57793000D01*
X139833000Y-57773000D01*
X140087000Y-57773000D01*
X140087000Y-57793000D01*
G04 #@! TA.AperFunction,Conductor*
D27*
G36*
X140087000Y-57793000D02*
G01*
X140107000Y-57793000D01*
X140107000Y-58047000D01*
X140087000Y-58047000D01*
X140087000Y-58067000D01*
X139833000Y-58067000D01*
X139833000Y-58047000D01*
X139813000Y-58047000D01*
X139813000Y-57793000D01*
X139833000Y-57793000D01*
X139833000Y-57773000D01*
X140087000Y-57773000D01*
X140087000Y-57793000D01*
G37*
G04 #@! TD.AperFunction*
D26*
X142157000Y-57397000D02*
X142137000Y-57397000D01*
X142137000Y-57417000D01*
X141883000Y-57417000D01*
X141883000Y-57397000D01*
X141863000Y-57397000D01*
X141863000Y-57228072D01*
X142157000Y-57228072D01*
X142157000Y-57397000D01*
G04 #@! TA.AperFunction,Conductor*
D27*
G36*
X142157000Y-57397000D02*
G01*
X142137000Y-57397000D01*
X142137000Y-57417000D01*
X141883000Y-57417000D01*
X141883000Y-57397000D01*
X141863000Y-57397000D01*
X141863000Y-57228072D01*
X142157000Y-57228072D01*
X142157000Y-57397000D01*
G37*
G04 #@! TD.AperFunction*
D26*
X137187000Y-55493000D02*
X137207000Y-55493000D01*
X137207000Y-55747000D01*
X137187000Y-55747000D01*
X137187000Y-55767000D01*
X136933000Y-55767000D01*
X136933000Y-55747000D01*
X136913000Y-55747000D01*
X136913000Y-55493000D01*
X136933000Y-55493000D01*
X136933000Y-55473000D01*
X137187000Y-55473000D01*
X137187000Y-55493000D01*
G04 #@! TA.AperFunction,Conductor*
D27*
G36*
X137187000Y-55493000D02*
G01*
X137207000Y-55493000D01*
X137207000Y-55747000D01*
X137187000Y-55747000D01*
X137187000Y-55767000D01*
X136933000Y-55767000D01*
X136933000Y-55747000D01*
X136913000Y-55747000D01*
X136913000Y-55493000D01*
X136933000Y-55493000D01*
X136933000Y-55473000D01*
X137187000Y-55473000D01*
X137187000Y-55493000D01*
G37*
G04 #@! TD.AperFunction*
D26*
X141986525Y-52946632D02*
X142193368Y-53153475D01*
X142436589Y-53315990D01*
X142690990Y-53421366D01*
X142690989Y-55587657D01*
X142612274Y-55523057D01*
X142477755Y-55451155D01*
X142331794Y-55406878D01*
X142180000Y-55391928D01*
X141840000Y-55391928D01*
X141688206Y-55406878D01*
X141648072Y-55419053D01*
X141648072Y-54720000D01*
X141635812Y-54595518D01*
X141599502Y-54475820D01*
X141540537Y-54365506D01*
X141461185Y-54268815D01*
X141364494Y-54189463D01*
X141254180Y-54130498D01*
X141134482Y-54094188D01*
X141010000Y-54081928D01*
X140614326Y-54081928D01*
X140594974Y-54045724D01*
X140500001Y-53929999D01*
X140470998Y-53906197D01*
X140128825Y-53564024D01*
X140120690Y-53554111D01*
X140233592Y-53441209D01*
X140453740Y-53485000D01*
X140746260Y-53485000D01*
X141033158Y-53427932D01*
X141303411Y-53315990D01*
X141546632Y-53153475D01*
X141753475Y-52946632D01*
X141870000Y-52772240D01*
X141986525Y-52946632D01*
G04 #@! TA.AperFunction,Conductor*
D27*
G36*
X141986525Y-52946632D02*
G01*
X142193368Y-53153475D01*
X142436589Y-53315990D01*
X142690990Y-53421366D01*
X142690989Y-55587657D01*
X142612274Y-55523057D01*
X142477755Y-55451155D01*
X142331794Y-55406878D01*
X142180000Y-55391928D01*
X141840000Y-55391928D01*
X141688206Y-55406878D01*
X141648072Y-55419053D01*
X141648072Y-54720000D01*
X141635812Y-54595518D01*
X141599502Y-54475820D01*
X141540537Y-54365506D01*
X141461185Y-54268815D01*
X141364494Y-54189463D01*
X141254180Y-54130498D01*
X141134482Y-54094188D01*
X141010000Y-54081928D01*
X140614326Y-54081928D01*
X140594974Y-54045724D01*
X140500001Y-53929999D01*
X140470998Y-53906197D01*
X140128825Y-53564024D01*
X140120690Y-53554111D01*
X140233592Y-53441209D01*
X140453740Y-53485000D01*
X140746260Y-53485000D01*
X141033158Y-53427932D01*
X141303411Y-53315990D01*
X141546632Y-53153475D01*
X141753475Y-52946632D01*
X141870000Y-52772240D01*
X141986525Y-52946632D01*
G37*
G04 #@! TD.AperFunction*
D26*
X106633368Y-50846525D02*
X106426525Y-51053368D01*
X106304805Y-51235534D01*
X106235178Y-51118645D01*
X106040269Y-50902412D01*
X105806920Y-50728359D01*
X105715889Y-50685000D01*
X106875107Y-50685000D01*
X106633368Y-50846525D01*
G04 #@! TA.AperFunction,Conductor*
D27*
G36*
X106633368Y-50846525D02*
G01*
X106426525Y-51053368D01*
X106304805Y-51235534D01*
X106235178Y-51118645D01*
X106040269Y-50902412D01*
X105806920Y-50728359D01*
X105715889Y-50685000D01*
X106875107Y-50685000D01*
X106633368Y-50846525D01*
G37*
G04 #@! TD.AperFunction*
M02*
