G04 #@! TF.GenerationSoftware,KiCad,Pcbnew,(5.1.8-0-10_14)*
G04 #@! TF.CreationDate,2021-01-18T01:09:24+08:00*
G04 #@! TF.ProjectId,stm32f401_devboard,73746d33-3266-4343-9031-5f646576626f,rev?*
G04 #@! TF.SameCoordinates,Original*
G04 #@! TF.FileFunction,Legend,Bot*
G04 #@! TF.FilePolarity,Positive*
%FSLAX46Y46*%
G04 Gerber Fmt 4.6, Leading zero omitted, Abs format (unit mm)*
G04 Created by KiCad (PCBNEW (5.1.8-0-10_14)) date 2021-01-18 01:09:24*
%MOMM*%
%LPD*%
G01*
G04 APERTURE LIST*
%ADD10C,0.120000*%
%ADD11C,0.150000*%
G04 APERTURE END LIST*
D10*
X109210000Y-64120000D02*
X109210000Y-62860000D01*
X109210000Y-57300000D02*
X109210000Y-58560000D01*
X112970000Y-64120000D02*
X109210000Y-64120000D01*
X115220000Y-57300000D02*
X109210000Y-57300000D01*
X131646359Y-55250000D02*
X131953641Y-55250000D01*
X131646359Y-54490000D02*
X131953641Y-54490000D01*
X110423641Y-54830000D02*
X110116359Y-54830000D01*
X110423641Y-55590000D02*
X110116359Y-55590000D01*
X134270000Y-56271267D02*
X134270000Y-55928733D01*
X133250000Y-56271267D02*
X133250000Y-55928733D01*
X119468748Y-56490000D02*
X119991252Y-56490000D01*
X119468748Y-57910000D02*
X119991252Y-57910000D01*
D11*
X112511904Y-57802380D02*
X112511904Y-58611904D01*
X112464285Y-58707142D01*
X112416666Y-58754761D01*
X112321428Y-58802380D01*
X112130952Y-58802380D01*
X112035714Y-58754761D01*
X111988095Y-58707142D01*
X111940476Y-58611904D01*
X111940476Y-57802380D01*
X111511904Y-57897619D02*
X111464285Y-57850000D01*
X111369047Y-57802380D01*
X111130952Y-57802380D01*
X111035714Y-57850000D01*
X110988095Y-57897619D01*
X110940476Y-57992857D01*
X110940476Y-58088095D01*
X110988095Y-58230952D01*
X111559523Y-58802380D01*
X110940476Y-58802380D01*
X131666666Y-56552380D02*
X132000000Y-56076190D01*
X132238095Y-56552380D02*
X132238095Y-55552380D01*
X131857142Y-55552380D01*
X131761904Y-55600000D01*
X131714285Y-55647619D01*
X131666666Y-55742857D01*
X131666666Y-55885714D01*
X131714285Y-55980952D01*
X131761904Y-56028571D01*
X131857142Y-56076190D01*
X132238095Y-56076190D01*
X130809523Y-55552380D02*
X131000000Y-55552380D01*
X131095238Y-55600000D01*
X131142857Y-55647619D01*
X131238095Y-55790476D01*
X131285714Y-55980952D01*
X131285714Y-56361904D01*
X131238095Y-56457142D01*
X131190476Y-56504761D01*
X131095238Y-56552380D01*
X130904761Y-56552380D01*
X130809523Y-56504761D01*
X130761904Y-56457142D01*
X130714285Y-56361904D01*
X130714285Y-56123809D01*
X130761904Y-56028571D01*
X130809523Y-55980952D01*
X130904761Y-55933333D01*
X131095238Y-55933333D01*
X131190476Y-55980952D01*
X131238095Y-56028571D01*
X131285714Y-56123809D01*
X110876666Y-56912380D02*
X111210000Y-56436190D01*
X111448095Y-56912380D02*
X111448095Y-55912380D01*
X111067142Y-55912380D01*
X110971904Y-55960000D01*
X110924285Y-56007619D01*
X110876666Y-56102857D01*
X110876666Y-56245714D01*
X110924285Y-56340952D01*
X110971904Y-56388571D01*
X111067142Y-56436190D01*
X111448095Y-56436190D01*
X109924285Y-56912380D02*
X110495714Y-56912380D01*
X110210000Y-56912380D02*
X110210000Y-55912380D01*
X110305238Y-56055238D01*
X110400476Y-56150476D01*
X110495714Y-56198095D01*
X134506666Y-58902380D02*
X134982857Y-58902380D01*
X134982857Y-57902380D01*
X133649523Y-58902380D02*
X134220952Y-58902380D01*
X133935238Y-58902380D02*
X133935238Y-57902380D01*
X134030476Y-58045238D01*
X134125714Y-58140476D01*
X134220952Y-58188095D01*
X119896666Y-59207142D02*
X119944285Y-59254761D01*
X120087142Y-59302380D01*
X120182380Y-59302380D01*
X120325238Y-59254761D01*
X120420476Y-59159523D01*
X120468095Y-59064285D01*
X120515714Y-58873809D01*
X120515714Y-58730952D01*
X120468095Y-58540476D01*
X120420476Y-58445238D01*
X120325238Y-58350000D01*
X120182380Y-58302380D01*
X120087142Y-58302380D01*
X119944285Y-58350000D01*
X119896666Y-58397619D01*
X119563333Y-58302380D02*
X118944285Y-58302380D01*
X119277619Y-58683333D01*
X119134761Y-58683333D01*
X119039523Y-58730952D01*
X118991904Y-58778571D01*
X118944285Y-58873809D01*
X118944285Y-59111904D01*
X118991904Y-59207142D01*
X119039523Y-59254761D01*
X119134761Y-59302380D01*
X119420476Y-59302380D01*
X119515714Y-59254761D01*
X119563333Y-59207142D01*
M02*
