G04 #@! TF.GenerationSoftware,KiCad,Pcbnew,(5.1.8-0-10_14)*
G04 #@! TF.CreationDate,2021-01-18T01:09:24+08:00*
G04 #@! TF.ProjectId,stm32f401_devboard,73746d33-3266-4343-9031-5f646576626f,rev?*
G04 #@! TF.SameCoordinates,Original*
G04 #@! TF.FileFunction,Legend,Top*
G04 #@! TF.FilePolarity,Positive*
%FSLAX46Y46*%
G04 Gerber Fmt 4.6, Leading zero omitted, Abs format (unit mm)*
G04 Created by KiCad (PCBNEW (5.1.8-0-10_14)) date 2021-01-18 01:09:24*
%MOMM*%
%LPD*%
G01*
G04 APERTURE LIST*
%ADD10C,0.150000*%
%ADD11C,0.120000*%
%ADD12C,0.254000*%
%ADD13C,0.152400*%
G04 APERTURE END LIST*
D10*
X149667142Y-53432380D02*
X150000476Y-54432380D01*
X150333809Y-53432380D01*
X151000476Y-53908571D02*
X151143333Y-53956190D01*
X151190952Y-54003809D01*
X151238571Y-54099047D01*
X151238571Y-54241904D01*
X151190952Y-54337142D01*
X151143333Y-54384761D01*
X151048095Y-54432380D01*
X150667142Y-54432380D01*
X150667142Y-53432380D01*
X151000476Y-53432380D01*
X151095714Y-53480000D01*
X151143333Y-53527619D01*
X151190952Y-53622857D01*
X151190952Y-53718095D01*
X151143333Y-53813333D01*
X151095714Y-53860952D01*
X151000476Y-53908571D01*
X150667142Y-53908571D01*
X151619523Y-54146666D02*
X152095714Y-54146666D01*
X151524285Y-54432380D02*
X151857619Y-53432380D01*
X152190952Y-54432380D01*
X152381428Y-53432380D02*
X152952857Y-53432380D01*
X152667142Y-54432380D02*
X152667142Y-53432380D01*
X147657142Y-54317142D02*
X147609523Y-54364761D01*
X147466666Y-54412380D01*
X147371428Y-54412380D01*
X147228571Y-54364761D01*
X147133333Y-54269523D01*
X147085714Y-54174285D01*
X147038095Y-53983809D01*
X147038095Y-53840952D01*
X147085714Y-53650476D01*
X147133333Y-53555238D01*
X147228571Y-53460000D01*
X147371428Y-53412380D01*
X147466666Y-53412380D01*
X147609523Y-53460000D01*
X147657142Y-53507619D01*
X148609523Y-54412380D02*
X148038095Y-54412380D01*
X148323809Y-54412380D02*
X148323809Y-53412380D01*
X148228571Y-53555238D01*
X148133333Y-53650476D01*
X148038095Y-53698095D01*
X148942857Y-53412380D02*
X149561904Y-53412380D01*
X149228571Y-53793333D01*
X149371428Y-53793333D01*
X149466666Y-53840952D01*
X149514285Y-53888571D01*
X149561904Y-53983809D01*
X149561904Y-54221904D01*
X149514285Y-54317142D01*
X149466666Y-54364761D01*
X149371428Y-54412380D01*
X149085714Y-54412380D01*
X148990476Y-54364761D01*
X148942857Y-54317142D01*
X145287142Y-54337142D02*
X145239523Y-54384761D01*
X145096666Y-54432380D01*
X145001428Y-54432380D01*
X144858571Y-54384761D01*
X144763333Y-54289523D01*
X144715714Y-54194285D01*
X144668095Y-54003809D01*
X144668095Y-53860952D01*
X144715714Y-53670476D01*
X144763333Y-53575238D01*
X144858571Y-53480000D01*
X145001428Y-53432380D01*
X145096666Y-53432380D01*
X145239523Y-53480000D01*
X145287142Y-53527619D01*
X146239523Y-54432380D02*
X145668095Y-54432380D01*
X145953809Y-54432380D02*
X145953809Y-53432380D01*
X145858571Y-53575238D01*
X145763333Y-53670476D01*
X145668095Y-53718095D01*
X147096666Y-53765714D02*
X147096666Y-54432380D01*
X146858571Y-53384761D02*
X146620476Y-54099047D01*
X147239523Y-54099047D01*
X142707142Y-54397142D02*
X142659523Y-54444761D01*
X142516666Y-54492380D01*
X142421428Y-54492380D01*
X142278571Y-54444761D01*
X142183333Y-54349523D01*
X142135714Y-54254285D01*
X142088095Y-54063809D01*
X142088095Y-53920952D01*
X142135714Y-53730476D01*
X142183333Y-53635238D01*
X142278571Y-53540000D01*
X142421428Y-53492380D01*
X142516666Y-53492380D01*
X142659523Y-53540000D01*
X142707142Y-53587619D01*
X143659523Y-54492380D02*
X143088095Y-54492380D01*
X143373809Y-54492380D02*
X143373809Y-53492380D01*
X143278571Y-53635238D01*
X143183333Y-53730476D01*
X143088095Y-53778095D01*
X144564285Y-53492380D02*
X144088095Y-53492380D01*
X144040476Y-53968571D01*
X144088095Y-53920952D01*
X144183333Y-53873333D01*
X144421428Y-53873333D01*
X144516666Y-53920952D01*
X144564285Y-53968571D01*
X144611904Y-54063809D01*
X144611904Y-54301904D01*
X144564285Y-54397142D01*
X144516666Y-54444761D01*
X144421428Y-54492380D01*
X144183333Y-54492380D01*
X144088095Y-54444761D01*
X144040476Y-54397142D01*
X140232380Y-54412380D02*
X139899047Y-53936190D01*
X139660952Y-54412380D02*
X139660952Y-53412380D01*
X140041904Y-53412380D01*
X140137142Y-53460000D01*
X140184761Y-53507619D01*
X140232380Y-53602857D01*
X140232380Y-53745714D01*
X140184761Y-53840952D01*
X140137142Y-53888571D01*
X140041904Y-53936190D01*
X139660952Y-53936190D01*
X140613333Y-54364761D02*
X140756190Y-54412380D01*
X140994285Y-54412380D01*
X141089523Y-54364761D01*
X141137142Y-54317142D01*
X141184761Y-54221904D01*
X141184761Y-54126666D01*
X141137142Y-54031428D01*
X141089523Y-53983809D01*
X140994285Y-53936190D01*
X140803809Y-53888571D01*
X140708571Y-53840952D01*
X140660952Y-53793333D01*
X140613333Y-53698095D01*
X140613333Y-53602857D01*
X140660952Y-53507619D01*
X140708571Y-53460000D01*
X140803809Y-53412380D01*
X141041904Y-53412380D01*
X141184761Y-53460000D01*
X141470476Y-53412380D02*
X142041904Y-53412380D01*
X141756190Y-54412380D02*
X141756190Y-53412380D01*
X137255714Y-54086666D02*
X137731904Y-54086666D01*
X137160476Y-54372380D02*
X137493809Y-53372380D01*
X137827142Y-54372380D01*
X138350952Y-53372380D02*
X138446190Y-53372380D01*
X138541428Y-53420000D01*
X138589047Y-53467619D01*
X138636666Y-53562857D01*
X138684285Y-53753333D01*
X138684285Y-53991428D01*
X138636666Y-54181904D01*
X138589047Y-54277142D01*
X138541428Y-54324761D01*
X138446190Y-54372380D01*
X138350952Y-54372380D01*
X138255714Y-54324761D01*
X138208095Y-54277142D01*
X138160476Y-54181904D01*
X138112857Y-53991428D01*
X138112857Y-53753333D01*
X138160476Y-53562857D01*
X138208095Y-53467619D01*
X138255714Y-53420000D01*
X138350952Y-53372380D01*
X134715714Y-54226666D02*
X135191904Y-54226666D01*
X134620476Y-54512380D02*
X134953809Y-53512380D01*
X135287142Y-54512380D01*
X136144285Y-54512380D02*
X135572857Y-54512380D01*
X135858571Y-54512380D02*
X135858571Y-53512380D01*
X135763333Y-53655238D01*
X135668095Y-53750476D01*
X135572857Y-53798095D01*
X132245714Y-54516666D02*
X132721904Y-54516666D01*
X132150476Y-54802380D02*
X132483809Y-53802380D01*
X132817142Y-54802380D01*
X133102857Y-53897619D02*
X133150476Y-53850000D01*
X133245714Y-53802380D01*
X133483809Y-53802380D01*
X133579047Y-53850000D01*
X133626666Y-53897619D01*
X133674285Y-53992857D01*
X133674285Y-54088095D01*
X133626666Y-54230952D01*
X133055238Y-54802380D01*
X133674285Y-54802380D01*
X129785714Y-54486666D02*
X130261904Y-54486666D01*
X129690476Y-54772380D02*
X130023809Y-53772380D01*
X130357142Y-54772380D01*
X130595238Y-53772380D02*
X131214285Y-53772380D01*
X130880952Y-54153333D01*
X131023809Y-54153333D01*
X131119047Y-54200952D01*
X131166666Y-54248571D01*
X131214285Y-54343809D01*
X131214285Y-54581904D01*
X131166666Y-54677142D01*
X131119047Y-54724761D01*
X131023809Y-54772380D01*
X130738095Y-54772380D01*
X130642857Y-54724761D01*
X130595238Y-54677142D01*
X127195714Y-54256666D02*
X127671904Y-54256666D01*
X127100476Y-54542380D02*
X127433809Y-53542380D01*
X127767142Y-54542380D01*
X128529047Y-53875714D02*
X128529047Y-54542380D01*
X128290952Y-53494761D02*
X128052857Y-54209047D01*
X128671904Y-54209047D01*
X124645714Y-54676666D02*
X125121904Y-54676666D01*
X124550476Y-54962380D02*
X124883809Y-53962380D01*
X125217142Y-54962380D01*
X126026666Y-53962380D02*
X125550476Y-53962380D01*
X125502857Y-54438571D01*
X125550476Y-54390952D01*
X125645714Y-54343333D01*
X125883809Y-54343333D01*
X125979047Y-54390952D01*
X126026666Y-54438571D01*
X126074285Y-54533809D01*
X126074285Y-54771904D01*
X126026666Y-54867142D01*
X125979047Y-54914761D01*
X125883809Y-54962380D01*
X125645714Y-54962380D01*
X125550476Y-54914761D01*
X125502857Y-54867142D01*
X122065714Y-54626666D02*
X122541904Y-54626666D01*
X121970476Y-54912380D02*
X122303809Y-53912380D01*
X122637142Y-54912380D01*
X123399047Y-53912380D02*
X123208571Y-53912380D01*
X123113333Y-53960000D01*
X123065714Y-54007619D01*
X122970476Y-54150476D01*
X122922857Y-54340952D01*
X122922857Y-54721904D01*
X122970476Y-54817142D01*
X123018095Y-54864761D01*
X123113333Y-54912380D01*
X123303809Y-54912380D01*
X123399047Y-54864761D01*
X123446666Y-54817142D01*
X123494285Y-54721904D01*
X123494285Y-54483809D01*
X123446666Y-54388571D01*
X123399047Y-54340952D01*
X123303809Y-54293333D01*
X123113333Y-54293333D01*
X123018095Y-54340952D01*
X122970476Y-54388571D01*
X122922857Y-54483809D01*
X119625714Y-54676666D02*
X120101904Y-54676666D01*
X119530476Y-54962380D02*
X119863809Y-53962380D01*
X120197142Y-54962380D01*
X120435238Y-53962380D02*
X121101904Y-53962380D01*
X120673333Y-54962380D01*
X117435238Y-54388571D02*
X117578095Y-54436190D01*
X117625714Y-54483809D01*
X117673333Y-54579047D01*
X117673333Y-54721904D01*
X117625714Y-54817142D01*
X117578095Y-54864761D01*
X117482857Y-54912380D01*
X117101904Y-54912380D01*
X117101904Y-53912380D01*
X117435238Y-53912380D01*
X117530476Y-53960000D01*
X117578095Y-54007619D01*
X117625714Y-54102857D01*
X117625714Y-54198095D01*
X117578095Y-54293333D01*
X117530476Y-54340952D01*
X117435238Y-54388571D01*
X117101904Y-54388571D01*
X118292380Y-53912380D02*
X118387619Y-53912380D01*
X118482857Y-53960000D01*
X118530476Y-54007619D01*
X118578095Y-54102857D01*
X118625714Y-54293333D01*
X118625714Y-54531428D01*
X118578095Y-54721904D01*
X118530476Y-54817142D01*
X118482857Y-54864761D01*
X118387619Y-54912380D01*
X118292380Y-54912380D01*
X118197142Y-54864761D01*
X118149523Y-54817142D01*
X118101904Y-54721904D01*
X118054285Y-54531428D01*
X118054285Y-54293333D01*
X118101904Y-54102857D01*
X118149523Y-54007619D01*
X118197142Y-53960000D01*
X118292380Y-53912380D01*
X115075238Y-54368571D02*
X115218095Y-54416190D01*
X115265714Y-54463809D01*
X115313333Y-54559047D01*
X115313333Y-54701904D01*
X115265714Y-54797142D01*
X115218095Y-54844761D01*
X115122857Y-54892380D01*
X114741904Y-54892380D01*
X114741904Y-53892380D01*
X115075238Y-53892380D01*
X115170476Y-53940000D01*
X115218095Y-53987619D01*
X115265714Y-54082857D01*
X115265714Y-54178095D01*
X115218095Y-54273333D01*
X115170476Y-54320952D01*
X115075238Y-54368571D01*
X114741904Y-54368571D01*
X116265714Y-54892380D02*
X115694285Y-54892380D01*
X115980000Y-54892380D02*
X115980000Y-53892380D01*
X115884761Y-54035238D01*
X115789523Y-54130476D01*
X115694285Y-54178095D01*
X112475238Y-53558571D02*
X112618095Y-53606190D01*
X112665714Y-53653809D01*
X112713333Y-53749047D01*
X112713333Y-53891904D01*
X112665714Y-53987142D01*
X112618095Y-54034761D01*
X112522857Y-54082380D01*
X112141904Y-54082380D01*
X112141904Y-53082380D01*
X112475238Y-53082380D01*
X112570476Y-53130000D01*
X112618095Y-53177619D01*
X112665714Y-53272857D01*
X112665714Y-53368095D01*
X112618095Y-53463333D01*
X112570476Y-53510952D01*
X112475238Y-53558571D01*
X112141904Y-53558571D01*
X113094285Y-53177619D02*
X113141904Y-53130000D01*
X113237142Y-53082380D01*
X113475238Y-53082380D01*
X113570476Y-53130000D01*
X113618095Y-53177619D01*
X113665714Y-53272857D01*
X113665714Y-53368095D01*
X113618095Y-53510952D01*
X113046666Y-54082380D01*
X113665714Y-54082380D01*
X109439047Y-54068571D02*
X109581904Y-54116190D01*
X109629523Y-54163809D01*
X109677142Y-54259047D01*
X109677142Y-54401904D01*
X109629523Y-54497142D01*
X109581904Y-54544761D01*
X109486666Y-54592380D01*
X109105714Y-54592380D01*
X109105714Y-53592380D01*
X109439047Y-53592380D01*
X109534285Y-53640000D01*
X109581904Y-53687619D01*
X109629523Y-53782857D01*
X109629523Y-53878095D01*
X109581904Y-53973333D01*
X109534285Y-54020952D01*
X109439047Y-54068571D01*
X109105714Y-54068571D01*
X110629523Y-54592380D02*
X110058095Y-54592380D01*
X110343809Y-54592380D02*
X110343809Y-53592380D01*
X110248571Y-53735238D01*
X110153333Y-53830476D01*
X110058095Y-53878095D01*
X111248571Y-53592380D02*
X111343809Y-53592380D01*
X111439047Y-53640000D01*
X111486666Y-53687619D01*
X111534285Y-53782857D01*
X111581904Y-53973333D01*
X111581904Y-54211428D01*
X111534285Y-54401904D01*
X111486666Y-54497142D01*
X111439047Y-54544761D01*
X111343809Y-54592380D01*
X111248571Y-54592380D01*
X111153333Y-54544761D01*
X111105714Y-54497142D01*
X111058095Y-54401904D01*
X111010476Y-54211428D01*
X111010476Y-53973333D01*
X111058095Y-53782857D01*
X111105714Y-53687619D01*
X111153333Y-53640000D01*
X111248571Y-53592380D01*
X106411904Y-53952380D02*
X107030952Y-53952380D01*
X106697619Y-54333333D01*
X106840476Y-54333333D01*
X106935714Y-54380952D01*
X106983333Y-54428571D01*
X107030952Y-54523809D01*
X107030952Y-54761904D01*
X106983333Y-54857142D01*
X106935714Y-54904761D01*
X106840476Y-54952380D01*
X106554761Y-54952380D01*
X106459523Y-54904761D01*
X106411904Y-54857142D01*
X107316666Y-53952380D02*
X107650000Y-54952380D01*
X107983333Y-53952380D01*
X108221428Y-53952380D02*
X108840476Y-53952380D01*
X108507142Y-54333333D01*
X108650000Y-54333333D01*
X108745238Y-54380952D01*
X108792857Y-54428571D01*
X108840476Y-54523809D01*
X108840476Y-54761904D01*
X108792857Y-54857142D01*
X108745238Y-54904761D01*
X108650000Y-54952380D01*
X108364285Y-54952380D01*
X108269047Y-54904761D01*
X108221428Y-54857142D01*
X104198095Y-53160000D02*
X104102857Y-53112380D01*
X103960000Y-53112380D01*
X103817142Y-53160000D01*
X103721904Y-53255238D01*
X103674285Y-53350476D01*
X103626666Y-53540952D01*
X103626666Y-53683809D01*
X103674285Y-53874285D01*
X103721904Y-53969523D01*
X103817142Y-54064761D01*
X103960000Y-54112380D01*
X104055238Y-54112380D01*
X104198095Y-54064761D01*
X104245714Y-54017142D01*
X104245714Y-53683809D01*
X104055238Y-53683809D01*
X104674285Y-54112380D02*
X104674285Y-53112380D01*
X105245714Y-54112380D01*
X105245714Y-53112380D01*
X105721904Y-54112380D02*
X105721904Y-53112380D01*
X105960000Y-53112380D01*
X106102857Y-53160000D01*
X106198095Y-53255238D01*
X106245714Y-53350476D01*
X106293333Y-53540952D01*
X106293333Y-53683809D01*
X106245714Y-53874285D01*
X106198095Y-53969523D01*
X106102857Y-54064761D01*
X105960000Y-54112380D01*
X105721904Y-54112380D01*
X102379523Y-53762380D02*
X101903333Y-53762380D01*
X101855714Y-54238571D01*
X101903333Y-54190952D01*
X101998571Y-54143333D01*
X102236666Y-54143333D01*
X102331904Y-54190952D01*
X102379523Y-54238571D01*
X102427142Y-54333809D01*
X102427142Y-54571904D01*
X102379523Y-54667142D01*
X102331904Y-54714761D01*
X102236666Y-54762380D01*
X101998571Y-54762380D01*
X101903333Y-54714761D01*
X101855714Y-54667142D01*
X102712857Y-53762380D02*
X103046190Y-54762380D01*
X103379523Y-53762380D01*
X149681904Y-66282380D02*
X150300952Y-66282380D01*
X149967619Y-66663333D01*
X150110476Y-66663333D01*
X150205714Y-66710952D01*
X150253333Y-66758571D01*
X150300952Y-66853809D01*
X150300952Y-67091904D01*
X150253333Y-67187142D01*
X150205714Y-67234761D01*
X150110476Y-67282380D01*
X149824761Y-67282380D01*
X149729523Y-67234761D01*
X149681904Y-67187142D01*
X150586666Y-66282380D02*
X150920000Y-67282380D01*
X151253333Y-66282380D01*
X151491428Y-66282380D02*
X152110476Y-66282380D01*
X151777142Y-66663333D01*
X151920000Y-66663333D01*
X152015238Y-66710952D01*
X152062857Y-66758571D01*
X152110476Y-66853809D01*
X152110476Y-67091904D01*
X152062857Y-67187142D01*
X152015238Y-67234761D01*
X151920000Y-67282380D01*
X151634285Y-67282380D01*
X151539047Y-67234761D01*
X151491428Y-67187142D01*
X147208095Y-66160000D02*
X147112857Y-66112380D01*
X146970000Y-66112380D01*
X146827142Y-66160000D01*
X146731904Y-66255238D01*
X146684285Y-66350476D01*
X146636666Y-66540952D01*
X146636666Y-66683809D01*
X146684285Y-66874285D01*
X146731904Y-66969523D01*
X146827142Y-67064761D01*
X146970000Y-67112380D01*
X147065238Y-67112380D01*
X147208095Y-67064761D01*
X147255714Y-67017142D01*
X147255714Y-66683809D01*
X147065238Y-66683809D01*
X147684285Y-67112380D02*
X147684285Y-66112380D01*
X148255714Y-67112380D01*
X148255714Y-66112380D01*
X148731904Y-67112380D02*
X148731904Y-66112380D01*
X148970000Y-66112380D01*
X149112857Y-66160000D01*
X149208095Y-66255238D01*
X149255714Y-66350476D01*
X149303333Y-66540952D01*
X149303333Y-66683809D01*
X149255714Y-66874285D01*
X149208095Y-66969523D01*
X149112857Y-67064761D01*
X148970000Y-67112380D01*
X148731904Y-67112380D01*
X145349523Y-66112380D02*
X144873333Y-66112380D01*
X144825714Y-66588571D01*
X144873333Y-66540952D01*
X144968571Y-66493333D01*
X145206666Y-66493333D01*
X145301904Y-66540952D01*
X145349523Y-66588571D01*
X145397142Y-66683809D01*
X145397142Y-66921904D01*
X145349523Y-67017142D01*
X145301904Y-67064761D01*
X145206666Y-67112380D01*
X144968571Y-67112380D01*
X144873333Y-67064761D01*
X144825714Y-67017142D01*
X145682857Y-66112380D02*
X146016190Y-67112380D01*
X146349523Y-66112380D01*
X142405238Y-66528571D02*
X142548095Y-66576190D01*
X142595714Y-66623809D01*
X142643333Y-66719047D01*
X142643333Y-66861904D01*
X142595714Y-66957142D01*
X142548095Y-67004761D01*
X142452857Y-67052380D01*
X142071904Y-67052380D01*
X142071904Y-66052380D01*
X142405238Y-66052380D01*
X142500476Y-66100000D01*
X142548095Y-66147619D01*
X142595714Y-66242857D01*
X142595714Y-66338095D01*
X142548095Y-66433333D01*
X142500476Y-66480952D01*
X142405238Y-66528571D01*
X142071904Y-66528571D01*
X143119523Y-67052380D02*
X143310000Y-67052380D01*
X143405238Y-67004761D01*
X143452857Y-66957142D01*
X143548095Y-66814285D01*
X143595714Y-66623809D01*
X143595714Y-66242857D01*
X143548095Y-66147619D01*
X143500476Y-66100000D01*
X143405238Y-66052380D01*
X143214761Y-66052380D01*
X143119523Y-66100000D01*
X143071904Y-66147619D01*
X143024285Y-66242857D01*
X143024285Y-66480952D01*
X143071904Y-66576190D01*
X143119523Y-66623809D01*
X143214761Y-66671428D01*
X143405238Y-66671428D01*
X143500476Y-66623809D01*
X143548095Y-66576190D01*
X143595714Y-66480952D01*
X139915238Y-66498571D02*
X140058095Y-66546190D01*
X140105714Y-66593809D01*
X140153333Y-66689047D01*
X140153333Y-66831904D01*
X140105714Y-66927142D01*
X140058095Y-66974761D01*
X139962857Y-67022380D01*
X139581904Y-67022380D01*
X139581904Y-66022380D01*
X139915238Y-66022380D01*
X140010476Y-66070000D01*
X140058095Y-66117619D01*
X140105714Y-66212857D01*
X140105714Y-66308095D01*
X140058095Y-66403333D01*
X140010476Y-66450952D01*
X139915238Y-66498571D01*
X139581904Y-66498571D01*
X140724761Y-66450952D02*
X140629523Y-66403333D01*
X140581904Y-66355714D01*
X140534285Y-66260476D01*
X140534285Y-66212857D01*
X140581904Y-66117619D01*
X140629523Y-66070000D01*
X140724761Y-66022380D01*
X140915238Y-66022380D01*
X141010476Y-66070000D01*
X141058095Y-66117619D01*
X141105714Y-66212857D01*
X141105714Y-66260476D01*
X141058095Y-66355714D01*
X141010476Y-66403333D01*
X140915238Y-66450952D01*
X140724761Y-66450952D01*
X140629523Y-66498571D01*
X140581904Y-66546190D01*
X140534285Y-66641428D01*
X140534285Y-66831904D01*
X140581904Y-66927142D01*
X140629523Y-66974761D01*
X140724761Y-67022380D01*
X140915238Y-67022380D01*
X141010476Y-66974761D01*
X141058095Y-66927142D01*
X141105714Y-66831904D01*
X141105714Y-66641428D01*
X141058095Y-66546190D01*
X141010476Y-66498571D01*
X140915238Y-66450952D01*
X137375238Y-66498571D02*
X137518095Y-66546190D01*
X137565714Y-66593809D01*
X137613333Y-66689047D01*
X137613333Y-66831904D01*
X137565714Y-66927142D01*
X137518095Y-66974761D01*
X137422857Y-67022380D01*
X137041904Y-67022380D01*
X137041904Y-66022380D01*
X137375238Y-66022380D01*
X137470476Y-66070000D01*
X137518095Y-66117619D01*
X137565714Y-66212857D01*
X137565714Y-66308095D01*
X137518095Y-66403333D01*
X137470476Y-66450952D01*
X137375238Y-66498571D01*
X137041904Y-66498571D01*
X137946666Y-66022380D02*
X138613333Y-66022380D01*
X138184761Y-67022380D01*
X134885238Y-66388571D02*
X135028095Y-66436190D01*
X135075714Y-66483809D01*
X135123333Y-66579047D01*
X135123333Y-66721904D01*
X135075714Y-66817142D01*
X135028095Y-66864761D01*
X134932857Y-66912380D01*
X134551904Y-66912380D01*
X134551904Y-65912380D01*
X134885238Y-65912380D01*
X134980476Y-65960000D01*
X135028095Y-66007619D01*
X135075714Y-66102857D01*
X135075714Y-66198095D01*
X135028095Y-66293333D01*
X134980476Y-66340952D01*
X134885238Y-66388571D01*
X134551904Y-66388571D01*
X135980476Y-65912380D02*
X135790000Y-65912380D01*
X135694761Y-65960000D01*
X135647142Y-66007619D01*
X135551904Y-66150476D01*
X135504285Y-66340952D01*
X135504285Y-66721904D01*
X135551904Y-66817142D01*
X135599523Y-66864761D01*
X135694761Y-66912380D01*
X135885238Y-66912380D01*
X135980476Y-66864761D01*
X136028095Y-66817142D01*
X136075714Y-66721904D01*
X136075714Y-66483809D01*
X136028095Y-66388571D01*
X135980476Y-66340952D01*
X135885238Y-66293333D01*
X135694761Y-66293333D01*
X135599523Y-66340952D01*
X135551904Y-66388571D01*
X135504285Y-66483809D01*
X132395238Y-66418571D02*
X132538095Y-66466190D01*
X132585714Y-66513809D01*
X132633333Y-66609047D01*
X132633333Y-66751904D01*
X132585714Y-66847142D01*
X132538095Y-66894761D01*
X132442857Y-66942380D01*
X132061904Y-66942380D01*
X132061904Y-65942380D01*
X132395238Y-65942380D01*
X132490476Y-65990000D01*
X132538095Y-66037619D01*
X132585714Y-66132857D01*
X132585714Y-66228095D01*
X132538095Y-66323333D01*
X132490476Y-66370952D01*
X132395238Y-66418571D01*
X132061904Y-66418571D01*
X133538095Y-65942380D02*
X133061904Y-65942380D01*
X133014285Y-66418571D01*
X133061904Y-66370952D01*
X133157142Y-66323333D01*
X133395238Y-66323333D01*
X133490476Y-66370952D01*
X133538095Y-66418571D01*
X133585714Y-66513809D01*
X133585714Y-66751904D01*
X133538095Y-66847142D01*
X133490476Y-66894761D01*
X133395238Y-66942380D01*
X133157142Y-66942380D01*
X133061904Y-66894761D01*
X133014285Y-66847142D01*
X130025238Y-66478571D02*
X130168095Y-66526190D01*
X130215714Y-66573809D01*
X130263333Y-66669047D01*
X130263333Y-66811904D01*
X130215714Y-66907142D01*
X130168095Y-66954761D01*
X130072857Y-67002380D01*
X129691904Y-67002380D01*
X129691904Y-66002380D01*
X130025238Y-66002380D01*
X130120476Y-66050000D01*
X130168095Y-66097619D01*
X130215714Y-66192857D01*
X130215714Y-66288095D01*
X130168095Y-66383333D01*
X130120476Y-66430952D01*
X130025238Y-66478571D01*
X129691904Y-66478571D01*
X131120476Y-66335714D02*
X131120476Y-67002380D01*
X130882380Y-65954761D02*
X130644285Y-66669047D01*
X131263333Y-66669047D01*
X127615238Y-66478571D02*
X127758095Y-66526190D01*
X127805714Y-66573809D01*
X127853333Y-66669047D01*
X127853333Y-66811904D01*
X127805714Y-66907142D01*
X127758095Y-66954761D01*
X127662857Y-67002380D01*
X127281904Y-67002380D01*
X127281904Y-66002380D01*
X127615238Y-66002380D01*
X127710476Y-66050000D01*
X127758095Y-66097619D01*
X127805714Y-66192857D01*
X127805714Y-66288095D01*
X127758095Y-66383333D01*
X127710476Y-66430952D01*
X127615238Y-66478571D01*
X127281904Y-66478571D01*
X128186666Y-66002380D02*
X128805714Y-66002380D01*
X128472380Y-66383333D01*
X128615238Y-66383333D01*
X128710476Y-66430952D01*
X128758095Y-66478571D01*
X128805714Y-66573809D01*
X128805714Y-66811904D01*
X128758095Y-66907142D01*
X128710476Y-66954761D01*
X128615238Y-67002380D01*
X128329523Y-67002380D01*
X128234285Y-66954761D01*
X128186666Y-66907142D01*
X124369523Y-66736666D02*
X124845714Y-66736666D01*
X124274285Y-67022380D02*
X124607619Y-66022380D01*
X124940952Y-67022380D01*
X125798095Y-67022380D02*
X125226666Y-67022380D01*
X125512380Y-67022380D02*
X125512380Y-66022380D01*
X125417142Y-66165238D01*
X125321904Y-66260476D01*
X125226666Y-66308095D01*
X126702857Y-66022380D02*
X126226666Y-66022380D01*
X126179047Y-66498571D01*
X126226666Y-66450952D01*
X126321904Y-66403333D01*
X126560000Y-66403333D01*
X126655238Y-66450952D01*
X126702857Y-66498571D01*
X126750476Y-66593809D01*
X126750476Y-66831904D01*
X126702857Y-66927142D01*
X126655238Y-66974761D01*
X126560000Y-67022380D01*
X126321904Y-67022380D01*
X126226666Y-66974761D01*
X126179047Y-66927142D01*
X121739523Y-66796666D02*
X122215714Y-66796666D01*
X121644285Y-67082380D02*
X121977619Y-66082380D01*
X122310952Y-67082380D01*
X123168095Y-67082380D02*
X122596666Y-67082380D01*
X122882380Y-67082380D02*
X122882380Y-66082380D01*
X122787142Y-66225238D01*
X122691904Y-66320476D01*
X122596666Y-66368095D01*
X123549047Y-66177619D02*
X123596666Y-66130000D01*
X123691904Y-66082380D01*
X123930000Y-66082380D01*
X124025238Y-66130000D01*
X124072857Y-66177619D01*
X124120476Y-66272857D01*
X124120476Y-66368095D01*
X124072857Y-66510952D01*
X123501428Y-67082380D01*
X124120476Y-67082380D01*
X119169523Y-66766666D02*
X119645714Y-66766666D01*
X119074285Y-67052380D02*
X119407619Y-66052380D01*
X119740952Y-67052380D01*
X120598095Y-67052380D02*
X120026666Y-67052380D01*
X120312380Y-67052380D02*
X120312380Y-66052380D01*
X120217142Y-66195238D01*
X120121904Y-66290476D01*
X120026666Y-66338095D01*
X121550476Y-67052380D02*
X120979047Y-67052380D01*
X121264761Y-67052380D02*
X121264761Y-66052380D01*
X121169523Y-66195238D01*
X121074285Y-66290476D01*
X120979047Y-66338095D01*
X116359523Y-66746666D02*
X116835714Y-66746666D01*
X116264285Y-67032380D02*
X116597619Y-66032380D01*
X116930952Y-67032380D01*
X117788095Y-67032380D02*
X117216666Y-67032380D01*
X117502380Y-67032380D02*
X117502380Y-66032380D01*
X117407142Y-66175238D01*
X117311904Y-66270476D01*
X117216666Y-66318095D01*
X118407142Y-66032380D02*
X118502380Y-66032380D01*
X118597619Y-66080000D01*
X118645238Y-66127619D01*
X118692857Y-66222857D01*
X118740476Y-66413333D01*
X118740476Y-66651428D01*
X118692857Y-66841904D01*
X118645238Y-66937142D01*
X118597619Y-66984761D01*
X118502380Y-67032380D01*
X118407142Y-67032380D01*
X118311904Y-66984761D01*
X118264285Y-66937142D01*
X118216666Y-66841904D01*
X118169047Y-66651428D01*
X118169047Y-66413333D01*
X118216666Y-66222857D01*
X118264285Y-66127619D01*
X118311904Y-66080000D01*
X118407142Y-66032380D01*
X114325714Y-66746666D02*
X114801904Y-66746666D01*
X114230476Y-67032380D02*
X114563809Y-66032380D01*
X114897142Y-67032380D01*
X115278095Y-67032380D02*
X115468571Y-67032380D01*
X115563809Y-66984761D01*
X115611428Y-66937142D01*
X115706666Y-66794285D01*
X115754285Y-66603809D01*
X115754285Y-66222857D01*
X115706666Y-66127619D01*
X115659047Y-66080000D01*
X115563809Y-66032380D01*
X115373333Y-66032380D01*
X115278095Y-66080000D01*
X115230476Y-66127619D01*
X115182857Y-66222857D01*
X115182857Y-66460952D01*
X115230476Y-66556190D01*
X115278095Y-66603809D01*
X115373333Y-66651428D01*
X115563809Y-66651428D01*
X115659047Y-66603809D01*
X115706666Y-66556190D01*
X115754285Y-66460952D01*
X111905714Y-66746666D02*
X112381904Y-66746666D01*
X111810476Y-67032380D02*
X112143809Y-66032380D01*
X112477142Y-67032380D01*
X112953333Y-66460952D02*
X112858095Y-66413333D01*
X112810476Y-66365714D01*
X112762857Y-66270476D01*
X112762857Y-66222857D01*
X112810476Y-66127619D01*
X112858095Y-66080000D01*
X112953333Y-66032380D01*
X113143809Y-66032380D01*
X113239047Y-66080000D01*
X113286666Y-66127619D01*
X113334285Y-66222857D01*
X113334285Y-66270476D01*
X113286666Y-66365714D01*
X113239047Y-66413333D01*
X113143809Y-66460952D01*
X112953333Y-66460952D01*
X112858095Y-66508571D01*
X112810476Y-66556190D01*
X112762857Y-66651428D01*
X112762857Y-66841904D01*
X112810476Y-66937142D01*
X112858095Y-66984761D01*
X112953333Y-67032380D01*
X113143809Y-67032380D01*
X113239047Y-66984761D01*
X113286666Y-66937142D01*
X113334285Y-66841904D01*
X113334285Y-66651428D01*
X113286666Y-66556190D01*
X113239047Y-66508571D01*
X113143809Y-66460952D01*
X109349047Y-66568571D02*
X109491904Y-66616190D01*
X109539523Y-66663809D01*
X109587142Y-66759047D01*
X109587142Y-66901904D01*
X109539523Y-66997142D01*
X109491904Y-67044761D01*
X109396666Y-67092380D01*
X109015714Y-67092380D01*
X109015714Y-66092380D01*
X109349047Y-66092380D01*
X109444285Y-66140000D01*
X109491904Y-66187619D01*
X109539523Y-66282857D01*
X109539523Y-66378095D01*
X109491904Y-66473333D01*
X109444285Y-66520952D01*
X109349047Y-66568571D01*
X109015714Y-66568571D01*
X110539523Y-67092380D02*
X109968095Y-67092380D01*
X110253809Y-67092380D02*
X110253809Y-66092380D01*
X110158571Y-66235238D01*
X110063333Y-66330476D01*
X109968095Y-66378095D01*
X111444285Y-66092380D02*
X110968095Y-66092380D01*
X110920476Y-66568571D01*
X110968095Y-66520952D01*
X111063333Y-66473333D01*
X111301428Y-66473333D01*
X111396666Y-66520952D01*
X111444285Y-66568571D01*
X111491904Y-66663809D01*
X111491904Y-66901904D01*
X111444285Y-66997142D01*
X111396666Y-67044761D01*
X111301428Y-67092380D01*
X111063333Y-67092380D01*
X110968095Y-67044761D01*
X110920476Y-66997142D01*
X106759047Y-66528571D02*
X106901904Y-66576190D01*
X106949523Y-66623809D01*
X106997142Y-66719047D01*
X106997142Y-66861904D01*
X106949523Y-66957142D01*
X106901904Y-67004761D01*
X106806666Y-67052380D01*
X106425714Y-67052380D01*
X106425714Y-66052380D01*
X106759047Y-66052380D01*
X106854285Y-66100000D01*
X106901904Y-66147619D01*
X106949523Y-66242857D01*
X106949523Y-66338095D01*
X106901904Y-66433333D01*
X106854285Y-66480952D01*
X106759047Y-66528571D01*
X106425714Y-66528571D01*
X107949523Y-67052380D02*
X107378095Y-67052380D01*
X107663809Y-67052380D02*
X107663809Y-66052380D01*
X107568571Y-66195238D01*
X107473333Y-66290476D01*
X107378095Y-66338095D01*
X108806666Y-66385714D02*
X108806666Y-67052380D01*
X108568571Y-66004761D02*
X108330476Y-66719047D01*
X108949523Y-66719047D01*
X104069047Y-66548571D02*
X104211904Y-66596190D01*
X104259523Y-66643809D01*
X104307142Y-66739047D01*
X104307142Y-66881904D01*
X104259523Y-66977142D01*
X104211904Y-67024761D01*
X104116666Y-67072380D01*
X103735714Y-67072380D01*
X103735714Y-66072380D01*
X104069047Y-66072380D01*
X104164285Y-66120000D01*
X104211904Y-66167619D01*
X104259523Y-66262857D01*
X104259523Y-66358095D01*
X104211904Y-66453333D01*
X104164285Y-66500952D01*
X104069047Y-66548571D01*
X103735714Y-66548571D01*
X105259523Y-67072380D02*
X104688095Y-67072380D01*
X104973809Y-67072380D02*
X104973809Y-66072380D01*
X104878571Y-66215238D01*
X104783333Y-66310476D01*
X104688095Y-66358095D01*
X105592857Y-66072380D02*
X106211904Y-66072380D01*
X105878571Y-66453333D01*
X106021428Y-66453333D01*
X106116666Y-66500952D01*
X106164285Y-66548571D01*
X106211904Y-66643809D01*
X106211904Y-66881904D01*
X106164285Y-66977142D01*
X106116666Y-67024761D01*
X106021428Y-67072380D01*
X105735714Y-67072380D01*
X105640476Y-67024761D01*
X105592857Y-66977142D01*
X101389047Y-66568571D02*
X101531904Y-66616190D01*
X101579523Y-66663809D01*
X101627142Y-66759047D01*
X101627142Y-66901904D01*
X101579523Y-66997142D01*
X101531904Y-67044761D01*
X101436666Y-67092380D01*
X101055714Y-67092380D01*
X101055714Y-66092380D01*
X101389047Y-66092380D01*
X101484285Y-66140000D01*
X101531904Y-66187619D01*
X101579523Y-66282857D01*
X101579523Y-66378095D01*
X101531904Y-66473333D01*
X101484285Y-66520952D01*
X101389047Y-66568571D01*
X101055714Y-66568571D01*
X102579523Y-67092380D02*
X102008095Y-67092380D01*
X102293809Y-67092380D02*
X102293809Y-66092380D01*
X102198571Y-66235238D01*
X102103333Y-66330476D01*
X102008095Y-66378095D01*
X102960476Y-66187619D02*
X103008095Y-66140000D01*
X103103333Y-66092380D01*
X103341428Y-66092380D01*
X103436666Y-66140000D01*
X103484285Y-66187619D01*
X103531904Y-66282857D01*
X103531904Y-66378095D01*
X103484285Y-66520952D01*
X102912857Y-67092380D01*
X103531904Y-67092380D01*
D11*
X141348748Y-61590000D02*
X142771252Y-61590000D01*
X141348748Y-63410000D02*
X142771252Y-63410000D01*
X145680000Y-64080000D02*
X142995000Y-64080000D01*
X142995000Y-64080000D02*
X142995000Y-66000000D01*
X142995000Y-66000000D02*
X145680000Y-66000000D01*
X106330000Y-57790000D02*
X109015000Y-57790000D01*
X109015000Y-57790000D02*
X109015000Y-55870000D01*
X109015000Y-55870000D02*
X106330000Y-55870000D01*
X108307500Y-64520000D02*
X105622500Y-64520000D01*
X105622500Y-64520000D02*
X105622500Y-66440000D01*
X105622500Y-66440000D02*
X108307500Y-66440000D01*
D12*
X114805726Y-60990008D02*
X113105704Y-60990008D01*
X115899958Y-61000168D02*
X115899958Y-63900086D01*
X112000042Y-61000168D02*
X115899958Y-61000168D01*
X112000042Y-63900086D02*
X112000042Y-61000168D01*
X115899958Y-63900086D02*
X112000042Y-63900086D01*
X143700008Y-57734274D02*
X143700008Y-59434296D01*
X143710168Y-56640042D02*
X146610086Y-56640042D01*
X143710168Y-60539958D02*
X143710168Y-56640042D01*
X146610086Y-60539958D02*
X143710168Y-60539958D01*
X146610086Y-56640042D02*
X146610086Y-60539958D01*
D11*
X145550000Y-54586359D02*
X145550000Y-54893641D01*
X144790000Y-54586359D02*
X144790000Y-54893641D01*
X141853641Y-65250000D02*
X141546359Y-65250000D01*
X141853641Y-64490000D02*
X141546359Y-64490000D01*
X109331359Y-54720000D02*
X109638641Y-54720000D01*
X109331359Y-55480000D02*
X109638641Y-55480000D01*
X104523641Y-65930000D02*
X104216359Y-65930000D01*
X104523641Y-65170000D02*
X104216359Y-65170000D01*
X113183641Y-54930000D02*
X112876359Y-54930000D01*
X113183641Y-54170000D02*
X112876359Y-54170000D01*
X135327836Y-61480000D02*
X135112164Y-61480000D01*
X135327836Y-60760000D02*
X135112164Y-60760000D01*
X137042164Y-60760000D02*
X137257836Y-60760000D01*
X137042164Y-61480000D02*
X137257836Y-61480000D01*
X141650000Y-56897836D02*
X141650000Y-56682164D01*
X142370000Y-56897836D02*
X142370000Y-56682164D01*
X138637836Y-60080000D02*
X138422164Y-60080000D01*
X138637836Y-59360000D02*
X138422164Y-59360000D01*
X152090000Y-70330000D02*
X152090000Y-67670000D01*
X103770000Y-70330000D02*
X152090000Y-70330000D01*
X103770000Y-67670000D02*
X152090000Y-67670000D01*
X103770000Y-70330000D02*
X103770000Y-67670000D01*
X102500000Y-70330000D02*
X101170000Y-70330000D01*
X101170000Y-70330000D02*
X101170000Y-69000000D01*
X152090000Y-53330000D02*
X152090000Y-50670000D01*
X103770000Y-53330000D02*
X152090000Y-53330000D01*
X103770000Y-50670000D02*
X152090000Y-50670000D01*
X103770000Y-53330000D02*
X103770000Y-50670000D01*
X102500000Y-53330000D02*
X101170000Y-53330000D01*
X101170000Y-53330000D02*
X101170000Y-52000000D01*
D12*
X113894274Y-58659992D02*
X115594296Y-58659992D01*
X112800042Y-58649832D02*
X112800042Y-55749914D01*
X116699958Y-58649832D02*
X112800042Y-58649832D01*
X116699958Y-55749914D02*
X116699958Y-58649832D01*
X112800042Y-55749914D02*
X116699958Y-55749914D01*
X102170677Y-56714968D02*
X102999225Y-56714968D01*
X98999995Y-56714968D02*
X100208273Y-56714968D01*
X104430007Y-58672444D02*
X104430007Y-58131145D01*
X104449565Y-62668855D02*
X104449565Y-62135684D01*
X102170677Y-64115004D02*
X102999225Y-64115004D01*
X98999995Y-64115004D02*
X100208273Y-64115004D01*
X98999995Y-64115004D02*
X98999995Y-56714968D01*
D11*
X135535000Y-63715000D02*
X136885000Y-63715000D01*
X135535000Y-61965000D02*
X136885000Y-61965000D01*
X135810000Y-54520000D02*
X135810000Y-59020000D01*
X135810000Y-59020000D02*
X141210000Y-59020000D01*
X148420000Y-58050000D02*
X149190000Y-57220000D01*
X148420000Y-58060000D02*
X148380000Y-63725000D01*
X150907530Y-63725000D02*
X151550000Y-63725000D01*
X148380000Y-63725000D02*
X150930000Y-63720000D01*
X151550000Y-58585000D02*
X151550000Y-63725000D01*
X151550000Y-57990000D02*
X151550000Y-58585000D01*
X151550000Y-57190000D02*
X151550000Y-57950000D01*
X149220000Y-57190000D02*
X151550000Y-57190000D01*
X147500000Y-54175000D02*
X152500000Y-54175000D01*
X152500000Y-54175000D02*
X152500000Y-66825000D01*
X152500000Y-66825000D02*
X147500000Y-66825000D01*
X147500000Y-66825000D02*
X147500000Y-61500000D01*
X147500000Y-61500000D02*
X148000000Y-61500000D01*
X148000000Y-61500000D02*
X148000000Y-59500000D01*
X148000000Y-59500000D02*
X147500000Y-59500000D01*
X147500000Y-59500000D02*
X147500000Y-54175000D01*
X127635876Y-65269435D02*
X127300000Y-65605311D01*
X127300000Y-65605311D02*
X126964124Y-65269435D01*
X126964124Y-55730565D02*
X127300000Y-55394689D01*
X127300000Y-55394689D02*
X127635876Y-55730565D01*
X122530565Y-60164124D02*
X122194689Y-60500000D01*
X122194689Y-60500000D02*
X122530565Y-60835876D01*
X132069435Y-60835876D02*
X132405311Y-60500000D01*
X107758733Y-63700000D02*
X108101267Y-63700000D01*
X107758733Y-62680000D02*
X108101267Y-62680000D01*
X107758733Y-62130000D02*
X108101267Y-62130000D01*
X107758733Y-61110000D02*
X108101267Y-61110000D01*
X104378733Y-55380000D02*
X104721267Y-55380000D01*
X104378733Y-54360000D02*
X104721267Y-54360000D01*
D10*
X141843333Y-62787142D02*
X141795714Y-62834761D01*
X141652857Y-62882380D01*
X141557619Y-62882380D01*
X141414761Y-62834761D01*
X141319523Y-62739523D01*
X141271904Y-62644285D01*
X141224285Y-62453809D01*
X141224285Y-62310952D01*
X141271904Y-62120476D01*
X141319523Y-62025238D01*
X141414761Y-61930000D01*
X141557619Y-61882380D01*
X141652857Y-61882380D01*
X141795714Y-61930000D01*
X141843333Y-61977619D01*
X142319523Y-62882380D02*
X142510000Y-62882380D01*
X142605238Y-62834761D01*
X142652857Y-62787142D01*
X142748095Y-62644285D01*
X142795714Y-62453809D01*
X142795714Y-62072857D01*
X142748095Y-61977619D01*
X142700476Y-61930000D01*
X142605238Y-61882380D01*
X142414761Y-61882380D01*
X142319523Y-61930000D01*
X142271904Y-61977619D01*
X142224285Y-62072857D01*
X142224285Y-62310952D01*
X142271904Y-62406190D01*
X142319523Y-62453809D01*
X142414761Y-62501428D01*
X142605238Y-62501428D01*
X142700476Y-62453809D01*
X142748095Y-62406190D01*
X142795714Y-62310952D01*
X145881904Y-65552380D02*
X145881904Y-64552380D01*
X146120000Y-64552380D01*
X146262857Y-64600000D01*
X146358095Y-64695238D01*
X146405714Y-64790476D01*
X146453333Y-64980952D01*
X146453333Y-65123809D01*
X146405714Y-65314285D01*
X146358095Y-65409523D01*
X146262857Y-65504761D01*
X146120000Y-65552380D01*
X145881904Y-65552380D01*
X146786666Y-64552380D02*
X147405714Y-64552380D01*
X147072380Y-64933333D01*
X147215238Y-64933333D01*
X147310476Y-64980952D01*
X147358095Y-65028571D01*
X147405714Y-65123809D01*
X147405714Y-65361904D01*
X147358095Y-65457142D01*
X147310476Y-65504761D01*
X147215238Y-65552380D01*
X146929523Y-65552380D01*
X146834285Y-65504761D01*
X146786666Y-65457142D01*
X107471904Y-59092380D02*
X107471904Y-58092380D01*
X107710000Y-58092380D01*
X107852857Y-58140000D01*
X107948095Y-58235238D01*
X107995714Y-58330476D01*
X108043333Y-58520952D01*
X108043333Y-58663809D01*
X107995714Y-58854285D01*
X107948095Y-58949523D01*
X107852857Y-59044761D01*
X107710000Y-59092380D01*
X107471904Y-59092380D01*
X108424285Y-58187619D02*
X108471904Y-58140000D01*
X108567142Y-58092380D01*
X108805238Y-58092380D01*
X108900476Y-58140000D01*
X108948095Y-58187619D01*
X108995714Y-58282857D01*
X108995714Y-58378095D01*
X108948095Y-58520952D01*
X108376666Y-59092380D01*
X108995714Y-59092380D01*
X105271904Y-64342380D02*
X105271904Y-63342380D01*
X105510000Y-63342380D01*
X105652857Y-63390000D01*
X105748095Y-63485238D01*
X105795714Y-63580476D01*
X105843333Y-63770952D01*
X105843333Y-63913809D01*
X105795714Y-64104285D01*
X105748095Y-64199523D01*
X105652857Y-64294761D01*
X105510000Y-64342380D01*
X105271904Y-64342380D01*
X106795714Y-64342380D02*
X106224285Y-64342380D01*
X106510000Y-64342380D02*
X106510000Y-63342380D01*
X106414761Y-63485238D01*
X106319523Y-63580476D01*
X106224285Y-63628095D01*
D13*
X111056797Y-64938357D02*
X111220082Y-64992785D01*
X111274511Y-65047214D01*
X111328940Y-65156071D01*
X111328940Y-65319357D01*
X111274511Y-65428214D01*
X111220082Y-65482642D01*
X111111225Y-65537071D01*
X110675797Y-65537071D01*
X110675797Y-64394071D01*
X111056797Y-64394071D01*
X111165654Y-64448500D01*
X111220082Y-64502928D01*
X111274511Y-64611785D01*
X111274511Y-64720642D01*
X111220082Y-64829500D01*
X111165654Y-64883928D01*
X111056797Y-64938357D01*
X110675797Y-64938357D01*
X112036511Y-64394071D02*
X112254225Y-64394071D01*
X112363082Y-64448500D01*
X112471940Y-64557357D01*
X112526368Y-64775071D01*
X112526368Y-65156071D01*
X112471940Y-65373785D01*
X112363082Y-65482642D01*
X112254225Y-65537071D01*
X112036511Y-65537071D01*
X111927654Y-65482642D01*
X111818797Y-65373785D01*
X111764368Y-65156071D01*
X111764368Y-64775071D01*
X111818797Y-64557357D01*
X111927654Y-64448500D01*
X112036511Y-64394071D01*
X113233940Y-64394071D02*
X113451654Y-64394071D01*
X113560511Y-64448500D01*
X113669368Y-64557357D01*
X113723797Y-64775071D01*
X113723797Y-65156071D01*
X113669368Y-65373785D01*
X113560511Y-65482642D01*
X113451654Y-65537071D01*
X113233940Y-65537071D01*
X113125082Y-65482642D01*
X113016225Y-65373785D01*
X112961797Y-65156071D01*
X112961797Y-64775071D01*
X113016225Y-64557357D01*
X113125082Y-64448500D01*
X113233940Y-64394071D01*
X114050368Y-64394071D02*
X114703511Y-64394071D01*
X114376940Y-65537071D02*
X114376940Y-64394071D01*
X115302225Y-64394071D02*
X115411082Y-64394071D01*
X115519940Y-64448500D01*
X115574368Y-64502928D01*
X115628797Y-64611785D01*
X115683225Y-64829500D01*
X115683225Y-65101642D01*
X115628797Y-65319357D01*
X115574368Y-65428214D01*
X115519940Y-65482642D01*
X115411082Y-65537071D01*
X115302225Y-65537071D01*
X115193368Y-65482642D01*
X115138940Y-65428214D01*
X115084511Y-65319357D01*
X115030082Y-65101642D01*
X115030082Y-64829500D01*
X115084511Y-64611785D01*
X115138940Y-64502928D01*
X115193368Y-64448500D01*
X115302225Y-64394071D01*
X140651797Y-60677071D02*
X140651797Y-59534071D01*
X141087225Y-59534071D01*
X141196082Y-59588500D01*
X141250511Y-59642928D01*
X141304940Y-59751785D01*
X141304940Y-59915071D01*
X141250511Y-60023928D01*
X141196082Y-60078357D01*
X141087225Y-60132785D01*
X140651797Y-60132785D01*
X141740368Y-60350500D02*
X142284654Y-60350500D01*
X141631511Y-60677071D02*
X142012511Y-59534071D01*
X142393511Y-60677071D01*
X142992225Y-59534071D02*
X143101082Y-59534071D01*
X143209940Y-59588500D01*
X143264368Y-59642928D01*
X143318797Y-59751785D01*
X143373225Y-59969500D01*
X143373225Y-60241642D01*
X143318797Y-60459357D01*
X143264368Y-60568214D01*
X143209940Y-60622642D01*
X143101082Y-60677071D01*
X142992225Y-60677071D01*
X142883368Y-60622642D01*
X142828940Y-60568214D01*
X142774511Y-60459357D01*
X142720082Y-60241642D01*
X142720082Y-59969500D01*
X142774511Y-59751785D01*
X142828940Y-59642928D01*
X142883368Y-59588500D01*
X142992225Y-59534071D01*
D10*
X146753333Y-56362380D02*
X146420000Y-55886190D01*
X146181904Y-56362380D02*
X146181904Y-55362380D01*
X146562857Y-55362380D01*
X146658095Y-55410000D01*
X146705714Y-55457619D01*
X146753333Y-55552857D01*
X146753333Y-55695714D01*
X146705714Y-55790952D01*
X146658095Y-55838571D01*
X146562857Y-55886190D01*
X146181904Y-55886190D01*
X147086666Y-55362380D02*
X147753333Y-55362380D01*
X147324761Y-56362380D01*
X139563333Y-65482380D02*
X139230000Y-65006190D01*
X138991904Y-65482380D02*
X138991904Y-64482380D01*
X139372857Y-64482380D01*
X139468095Y-64530000D01*
X139515714Y-64577619D01*
X139563333Y-64672857D01*
X139563333Y-64815714D01*
X139515714Y-64910952D01*
X139468095Y-64958571D01*
X139372857Y-65006190D01*
X138991904Y-65006190D01*
X140468095Y-64482380D02*
X139991904Y-64482380D01*
X139944285Y-64958571D01*
X139991904Y-64910952D01*
X140087142Y-64863333D01*
X140325238Y-64863333D01*
X140420476Y-64910952D01*
X140468095Y-64958571D01*
X140515714Y-65053809D01*
X140515714Y-65291904D01*
X140468095Y-65387142D01*
X140420476Y-65434761D01*
X140325238Y-65482380D01*
X140087142Y-65482380D01*
X139991904Y-65434761D01*
X139944285Y-65387142D01*
X109693333Y-56852380D02*
X109360000Y-56376190D01*
X109121904Y-56852380D02*
X109121904Y-55852380D01*
X109502857Y-55852380D01*
X109598095Y-55900000D01*
X109645714Y-55947619D01*
X109693333Y-56042857D01*
X109693333Y-56185714D01*
X109645714Y-56280952D01*
X109598095Y-56328571D01*
X109502857Y-56376190D01*
X109121904Y-56376190D01*
X110550476Y-56185714D02*
X110550476Y-56852380D01*
X110312380Y-55804761D02*
X110074285Y-56519047D01*
X110693333Y-56519047D01*
X102403333Y-66022380D02*
X102070000Y-65546190D01*
X101831904Y-66022380D02*
X101831904Y-65022380D01*
X102212857Y-65022380D01*
X102308095Y-65070000D01*
X102355714Y-65117619D01*
X102403333Y-65212857D01*
X102403333Y-65355714D01*
X102355714Y-65450952D01*
X102308095Y-65498571D01*
X102212857Y-65546190D01*
X101831904Y-65546190D01*
X102736666Y-65022380D02*
X103355714Y-65022380D01*
X103022380Y-65403333D01*
X103165238Y-65403333D01*
X103260476Y-65450952D01*
X103308095Y-65498571D01*
X103355714Y-65593809D01*
X103355714Y-65831904D01*
X103308095Y-65927142D01*
X103260476Y-65974761D01*
X103165238Y-66022380D01*
X102879523Y-66022380D01*
X102784285Y-65974761D01*
X102736666Y-65927142D01*
X113023333Y-56322380D02*
X112690000Y-55846190D01*
X112451904Y-56322380D02*
X112451904Y-55322380D01*
X112832857Y-55322380D01*
X112928095Y-55370000D01*
X112975714Y-55417619D01*
X113023333Y-55512857D01*
X113023333Y-55655714D01*
X112975714Y-55750952D01*
X112928095Y-55798571D01*
X112832857Y-55846190D01*
X112451904Y-55846190D01*
X113404285Y-55417619D02*
X113451904Y-55370000D01*
X113547142Y-55322380D01*
X113785238Y-55322380D01*
X113880476Y-55370000D01*
X113928095Y-55417619D01*
X113975714Y-55512857D01*
X113975714Y-55608095D01*
X113928095Y-55750952D01*
X113356666Y-56322380D01*
X113975714Y-56322380D01*
X134553333Y-60007142D02*
X134505714Y-60054761D01*
X134362857Y-60102380D01*
X134267619Y-60102380D01*
X134124761Y-60054761D01*
X134029523Y-59959523D01*
X133981904Y-59864285D01*
X133934285Y-59673809D01*
X133934285Y-59530952D01*
X133981904Y-59340476D01*
X134029523Y-59245238D01*
X134124761Y-59150000D01*
X134267619Y-59102380D01*
X134362857Y-59102380D01*
X134505714Y-59150000D01*
X134553333Y-59197619D01*
X135458095Y-59102380D02*
X134981904Y-59102380D01*
X134934285Y-59578571D01*
X134981904Y-59530952D01*
X135077142Y-59483333D01*
X135315238Y-59483333D01*
X135410476Y-59530952D01*
X135458095Y-59578571D01*
X135505714Y-59673809D01*
X135505714Y-59911904D01*
X135458095Y-60007142D01*
X135410476Y-60054761D01*
X135315238Y-60102380D01*
X135077142Y-60102380D01*
X134981904Y-60054761D01*
X134934285Y-60007142D01*
X136483333Y-60397142D02*
X136435714Y-60444761D01*
X136292857Y-60492380D01*
X136197619Y-60492380D01*
X136054761Y-60444761D01*
X135959523Y-60349523D01*
X135911904Y-60254285D01*
X135864285Y-60063809D01*
X135864285Y-59920952D01*
X135911904Y-59730476D01*
X135959523Y-59635238D01*
X136054761Y-59540000D01*
X136197619Y-59492380D01*
X136292857Y-59492380D01*
X136435714Y-59540000D01*
X136483333Y-59587619D01*
X137340476Y-59825714D02*
X137340476Y-60492380D01*
X137102380Y-59444761D02*
X136864285Y-60159047D01*
X137483333Y-60159047D01*
X141197142Y-56956666D02*
X141244761Y-57004285D01*
X141292380Y-57147142D01*
X141292380Y-57242380D01*
X141244761Y-57385238D01*
X141149523Y-57480476D01*
X141054285Y-57528095D01*
X140863809Y-57575714D01*
X140720952Y-57575714D01*
X140530476Y-57528095D01*
X140435238Y-57480476D01*
X140340000Y-57385238D01*
X140292380Y-57242380D01*
X140292380Y-57147142D01*
X140340000Y-57004285D01*
X140387619Y-56956666D01*
X140387619Y-56575714D02*
X140340000Y-56528095D01*
X140292380Y-56432857D01*
X140292380Y-56194761D01*
X140340000Y-56099523D01*
X140387619Y-56051904D01*
X140482857Y-56004285D01*
X140578095Y-56004285D01*
X140720952Y-56051904D01*
X141292380Y-56623333D01*
X141292380Y-56004285D01*
X139003333Y-61207142D02*
X138955714Y-61254761D01*
X138812857Y-61302380D01*
X138717619Y-61302380D01*
X138574761Y-61254761D01*
X138479523Y-61159523D01*
X138431904Y-61064285D01*
X138384285Y-60873809D01*
X138384285Y-60730952D01*
X138431904Y-60540476D01*
X138479523Y-60445238D01*
X138574761Y-60350000D01*
X138717619Y-60302380D01*
X138812857Y-60302380D01*
X138955714Y-60350000D01*
X139003333Y-60397619D01*
X139955714Y-61302380D02*
X139384285Y-61302380D01*
X139670000Y-61302380D02*
X139670000Y-60302380D01*
X139574761Y-60445238D01*
X139479523Y-60540476D01*
X139384285Y-60588095D01*
X100102380Y-70043333D02*
X100816666Y-70043333D01*
X100959523Y-70090952D01*
X101054761Y-70186190D01*
X101102380Y-70329047D01*
X101102380Y-70424285D01*
X100435714Y-69138571D02*
X101102380Y-69138571D01*
X100054761Y-69376666D02*
X100769047Y-69614761D01*
X100769047Y-68995714D01*
X100596666Y-53932380D02*
X100596666Y-54646666D01*
X100549047Y-54789523D01*
X100453809Y-54884761D01*
X100310952Y-54932380D01*
X100215714Y-54932380D01*
X100977619Y-53932380D02*
X101596666Y-53932380D01*
X101263333Y-54313333D01*
X101406190Y-54313333D01*
X101501428Y-54360952D01*
X101549047Y-54408571D01*
X101596666Y-54503809D01*
X101596666Y-54741904D01*
X101549047Y-54837142D01*
X101501428Y-54884761D01*
X101406190Y-54932380D01*
X101120476Y-54932380D01*
X101025238Y-54884761D01*
X100977619Y-54837142D01*
D13*
X110444345Y-59447071D02*
X110063345Y-58902785D01*
X109791202Y-59447071D02*
X109791202Y-58304071D01*
X110226631Y-58304071D01*
X110335488Y-58358500D01*
X110389917Y-58412928D01*
X110444345Y-58521785D01*
X110444345Y-58685071D01*
X110389917Y-58793928D01*
X110335488Y-58848357D01*
X110226631Y-58902785D01*
X109791202Y-58902785D01*
X110879774Y-59392642D02*
X111043060Y-59447071D01*
X111315202Y-59447071D01*
X111424060Y-59392642D01*
X111478488Y-59338214D01*
X111532917Y-59229357D01*
X111532917Y-59120500D01*
X111478488Y-59011642D01*
X111424060Y-58957214D01*
X111315202Y-58902785D01*
X111097488Y-58848357D01*
X110988631Y-58793928D01*
X110934202Y-58739500D01*
X110879774Y-58630642D01*
X110879774Y-58521785D01*
X110934202Y-58412928D01*
X110988631Y-58358500D01*
X111097488Y-58304071D01*
X111369631Y-58304071D01*
X111532917Y-58358500D01*
X111859488Y-58304071D02*
X112512631Y-58304071D01*
X112186060Y-59447071D02*
X112186060Y-58304071D01*
D10*
X112302380Y-60733333D02*
X113016666Y-60733333D01*
X113159523Y-60780952D01*
X113254761Y-60876190D01*
X113302380Y-61019047D01*
X113302380Y-61114285D01*
X113302380Y-59733333D02*
X113302380Y-60304761D01*
X113302380Y-60019047D02*
X112302380Y-60019047D01*
X112445238Y-60114285D01*
X112540476Y-60209523D01*
X112588095Y-60304761D01*
X132763809Y-63126190D02*
X132763809Y-63602380D01*
X132430476Y-62602380D02*
X132763809Y-63126190D01*
X133097142Y-62602380D01*
X133382857Y-62697619D02*
X133430476Y-62650000D01*
X133525714Y-62602380D01*
X133763809Y-62602380D01*
X133859047Y-62650000D01*
X133906666Y-62697619D01*
X133954285Y-62792857D01*
X133954285Y-62888095D01*
X133906666Y-63030952D01*
X133335238Y-63602380D01*
X133954285Y-63602380D01*
X141863809Y-58796190D02*
X141863809Y-59272380D01*
X141530476Y-58272380D02*
X141863809Y-58796190D01*
X142197142Y-58272380D01*
X143054285Y-59272380D02*
X142482857Y-59272380D01*
X142768571Y-59272380D02*
X142768571Y-58272380D01*
X142673333Y-58415238D01*
X142578095Y-58510476D01*
X142482857Y-58558095D01*
X148635714Y-55617142D02*
X148588095Y-55664761D01*
X148445238Y-55712380D01*
X148350000Y-55712380D01*
X148207142Y-55664761D01*
X148111904Y-55569523D01*
X148064285Y-55474285D01*
X148016666Y-55283809D01*
X148016666Y-55140952D01*
X148064285Y-54950476D01*
X148111904Y-54855238D01*
X148207142Y-54760000D01*
X148350000Y-54712380D01*
X148445238Y-54712380D01*
X148588095Y-54760000D01*
X148635714Y-54807619D01*
X149254761Y-54712380D02*
X149445238Y-54712380D01*
X149540476Y-54760000D01*
X149635714Y-54855238D01*
X149683333Y-55045714D01*
X149683333Y-55379047D01*
X149635714Y-55569523D01*
X149540476Y-55664761D01*
X149445238Y-55712380D01*
X149254761Y-55712380D01*
X149159523Y-55664761D01*
X149064285Y-55569523D01*
X149016666Y-55379047D01*
X149016666Y-55045714D01*
X149064285Y-54855238D01*
X149159523Y-54760000D01*
X149254761Y-54712380D01*
X150111904Y-55712380D02*
X150111904Y-54712380D01*
X150683333Y-55712380D01*
X150683333Y-54712380D01*
X151683333Y-55712380D02*
X151111904Y-55712380D01*
X151397619Y-55712380D02*
X151397619Y-54712380D01*
X151302380Y-54855238D01*
X151207142Y-54950476D01*
X151111904Y-54998095D01*
X129782281Y-64059777D02*
X130354701Y-64632197D01*
X130455716Y-64665869D01*
X130523060Y-64665869D01*
X130624075Y-64632197D01*
X130758762Y-64497510D01*
X130792434Y-64396495D01*
X130792434Y-64329151D01*
X130758762Y-64228136D01*
X130186342Y-63655716D01*
X131600556Y-63655716D02*
X131196495Y-64059777D01*
X131398525Y-63857747D02*
X130691419Y-63150640D01*
X130725090Y-63318999D01*
X130725090Y-63453686D01*
X130691419Y-63554701D01*
X105253333Y-63037142D02*
X105205714Y-63084761D01*
X105062857Y-63132380D01*
X104967619Y-63132380D01*
X104824761Y-63084761D01*
X104729523Y-62989523D01*
X104681904Y-62894285D01*
X104634285Y-62703809D01*
X104634285Y-62560952D01*
X104681904Y-62370476D01*
X104729523Y-62275238D01*
X104824761Y-62180000D01*
X104967619Y-62132380D01*
X105062857Y-62132380D01*
X105205714Y-62180000D01*
X105253333Y-62227619D01*
X105824761Y-62560952D02*
X105729523Y-62513333D01*
X105681904Y-62465714D01*
X105634285Y-62370476D01*
X105634285Y-62322857D01*
X105681904Y-62227619D01*
X105729523Y-62180000D01*
X105824761Y-62132380D01*
X106015238Y-62132380D01*
X106110476Y-62180000D01*
X106158095Y-62227619D01*
X106205714Y-62322857D01*
X106205714Y-62370476D01*
X106158095Y-62465714D01*
X106110476Y-62513333D01*
X106015238Y-62560952D01*
X105824761Y-62560952D01*
X105729523Y-62608571D01*
X105681904Y-62656190D01*
X105634285Y-62751428D01*
X105634285Y-62941904D01*
X105681904Y-63037142D01*
X105729523Y-63084761D01*
X105824761Y-63132380D01*
X106015238Y-63132380D01*
X106110476Y-63084761D01*
X106158095Y-63037142D01*
X106205714Y-62941904D01*
X106205714Y-62751428D01*
X106158095Y-62656190D01*
X106110476Y-62608571D01*
X106015238Y-62560952D01*
X106643333Y-60647142D02*
X106595714Y-60694761D01*
X106452857Y-60742380D01*
X106357619Y-60742380D01*
X106214761Y-60694761D01*
X106119523Y-60599523D01*
X106071904Y-60504285D01*
X106024285Y-60313809D01*
X106024285Y-60170952D01*
X106071904Y-59980476D01*
X106119523Y-59885238D01*
X106214761Y-59790000D01*
X106357619Y-59742380D01*
X106452857Y-59742380D01*
X106595714Y-59790000D01*
X106643333Y-59837619D01*
X106976666Y-59742380D02*
X107643333Y-59742380D01*
X107214761Y-60742380D01*
X102693333Y-56537142D02*
X102645714Y-56584761D01*
X102502857Y-56632380D01*
X102407619Y-56632380D01*
X102264761Y-56584761D01*
X102169523Y-56489523D01*
X102121904Y-56394285D01*
X102074285Y-56203809D01*
X102074285Y-56060952D01*
X102121904Y-55870476D01*
X102169523Y-55775238D01*
X102264761Y-55680000D01*
X102407619Y-55632380D01*
X102502857Y-55632380D01*
X102645714Y-55680000D01*
X102693333Y-55727619D01*
X103550476Y-55632380D02*
X103360000Y-55632380D01*
X103264761Y-55680000D01*
X103217142Y-55727619D01*
X103121904Y-55870476D01*
X103074285Y-56060952D01*
X103074285Y-56441904D01*
X103121904Y-56537142D01*
X103169523Y-56584761D01*
X103264761Y-56632380D01*
X103455238Y-56632380D01*
X103550476Y-56584761D01*
X103598095Y-56537142D01*
X103645714Y-56441904D01*
X103645714Y-56203809D01*
X103598095Y-56108571D01*
X103550476Y-56060952D01*
X103455238Y-56013333D01*
X103264761Y-56013333D01*
X103169523Y-56060952D01*
X103121904Y-56108571D01*
X103074285Y-56203809D01*
M02*
