M48
; DRILL file {KiCad (5.1.10-1-10_14)} date Friday, September 03, 2021 at 12:17:16 AM
; FORMAT={-:-/ absolute / inch / decimal}
; #@! TF.CreationDate,2021-09-03T00:17:16+08:00
; #@! TF.GenerationSoftware,Kicad,Pcbnew,(5.1.10-1-10_14)
; #@! TF.FileFunction,Plated,1,4,PTH
FMAT,2
INCH
T1C0.0118
T2C0.0197
T3C0.0236
T4C0.0394
%
G90
G05
T1
X4.1547Y-3.2043
X4.3087Y-3.5311
X4.3424Y-3.9763
X4.3583Y-3.7795
X4.4079Y-3.7086
X4.505Y-3.815
X4.5307Y-3.8024
X4.5673Y-3.776
X4.6043Y-3.5965
X4.648Y-3.611
X4.6638Y-2.8047
X4.676Y-3.5921
X4.7063Y-3.8122
X4.7084Y-3.5849
X4.7354Y-3.5756
X4.7701Y-3.528
X4.8503Y-3.9644
X4.8614Y-4.1354
X4.8622Y-3.6417
X4.8622Y-3.7008
X4.8622Y-3.7598
X4.87Y-3.4723
X4.87Y-3.9881
X4.8897Y-3.4494
X4.8897Y-4.0134
X4.9094Y-3.4246
X4.9094Y-4.0398
X4.9213Y-3.6417
X4.9213Y-3.7008
X4.9213Y-3.7598
X4.9291Y-3.4016
X4.9291Y-4.0646
X4.9401Y-3.0894
X4.9803Y-3.6417
X4.9803Y-3.7008
X4.9803Y-3.7598
X5.0685Y-3.8642
X5.1413Y-3.6579
X5.1531Y-4.1252
X5.2157Y-3.3815
X5.3614Y-3.6323
X5.3835Y-4.7008
X5.4969Y-4.1142
X5.5945Y-4.0299
X5.6602Y-3.1941
X5.7803Y-3.4567
X5.7811Y-4.2787
T2
X5.7644Y-3.8752
X5.7644Y-3.9252
X5.7644Y-3.9752
X5.7644Y-4.0252
X5.7644Y-4.0752
X5.8144Y-3.8752
X5.8144Y-3.9252
X5.8144Y-3.9752
X5.8144Y-4.0252
X5.8144Y-4.0752
T4
X4.4118Y-2.8402
X4.4118Y-2.9402
X4.4118Y-4.5402
X4.4118Y-4.6402
X4.5118Y-2.8402
X4.5118Y-2.9402
X4.5118Y-4.5402
X4.5118Y-4.6402
X4.6118Y-2.8402
X4.6118Y-2.9402
X4.6118Y-4.5402
X4.6118Y-4.6402
X4.7118Y-2.8402
X4.7118Y-2.9402
X4.7118Y-4.5402
X4.7118Y-4.6402
X4.8118Y-2.8402
X4.8118Y-2.9402
X4.8118Y-4.5402
X4.8118Y-4.6402
X4.9118Y-2.8402
X4.9118Y-2.9402
X4.9118Y-4.5402
X4.9118Y-4.6402
X5.0118Y-2.8402
X5.0118Y-2.9402
X5.0118Y-4.5402
X5.0118Y-4.6402
X5.1118Y-2.8402
X5.1118Y-2.9402
X5.1118Y-4.5402
X5.1118Y-4.6402
X5.2118Y-2.8402
X5.2118Y-2.9402
X5.2118Y-4.5402
X5.2118Y-4.6402
X5.3118Y-2.8402
X5.3118Y-2.9402
X5.3118Y-4.5402
X5.3118Y-4.6402
X5.4118Y-2.8402
X5.4118Y-2.9402
X5.4118Y-4.5402
X5.4118Y-4.6402
X5.5118Y-2.8402
X5.5118Y-2.9402
X5.5118Y-4.5402
X5.5118Y-4.6402
T3
G00X4.0713Y-3.5898
M15
G01X4.0476Y-3.5898
M16
G05
G00X4.0713Y-3.9299
M15
G01X4.0476Y-3.9299
M16
G05
G00X4.2457Y-3.5898
M15
G01X4.2024Y-3.5898
M16
G05
G00X4.2457Y-3.9299
M15
G01X4.2024Y-3.9299
M16
G05
T0
M30
