G04 #@! TF.GenerationSoftware,KiCad,Pcbnew,(5.1.10-1-10_14)*
G04 #@! TF.CreationDate,2021-09-03T00:17:14+08:00*
G04 #@! TF.ProjectId,stm32f401_devboard,73746d33-3266-4343-9031-5f646576626f,rev?*
G04 #@! TF.SameCoordinates,Original*
G04 #@! TF.FileFunction,Copper,L1,Top*
G04 #@! TF.FilePolarity,Positive*
%FSLAX46Y46*%
G04 Gerber Fmt 4.6, Leading zero omitted, Abs format (unit mm)*
G04 Created by KiCad (PCBNEW (5.1.10-1-10_14)) date 2021-09-03 00:17:14*
%MOMM*%
%LPD*%
G01*
G04 APERTURE LIST*
G04 #@! TA.AperFunction,NonConductor*
%ADD10C,0.300000*%
G04 #@! TD*
G04 #@! TA.AperFunction,ComponentPad*
%ADD11O,1.700000X1.700000*%
G04 #@! TD*
G04 #@! TA.AperFunction,ComponentPad*
%ADD12R,1.700000X1.700000*%
G04 #@! TD*
G04 #@! TA.AperFunction,SMDPad,CuDef*
%ADD13R,1.200000X1.400000*%
G04 #@! TD*
G04 #@! TA.AperFunction,SMDPad,CuDef*
%ADD14R,1.450000X0.600000*%
G04 #@! TD*
G04 #@! TA.AperFunction,SMDPad,CuDef*
%ADD15R,1.450000X0.300000*%
G04 #@! TD*
G04 #@! TA.AperFunction,ComponentPad*
%ADD16O,2.100000X1.000000*%
G04 #@! TD*
G04 #@! TA.AperFunction,ComponentPad*
%ADD17O,1.600000X1.000000*%
G04 #@! TD*
G04 #@! TA.AperFunction,SMDPad,CuDef*
%ADD18R,2.000000X1.500000*%
G04 #@! TD*
G04 #@! TA.AperFunction,SMDPad,CuDef*
%ADD19R,2.000000X3.800000*%
G04 #@! TD*
G04 #@! TA.AperFunction,SMDPad,CuDef*
%ADD20R,1.699997X0.899998*%
G04 #@! TD*
G04 #@! TA.AperFunction,SMDPad,CuDef*
%ADD21R,0.899998X1.699997*%
G04 #@! TD*
G04 #@! TA.AperFunction,SMDPad,CuDef*
%ADD22R,1.800000X1.000000*%
G04 #@! TD*
G04 #@! TA.AperFunction,ComponentPad*
%ADD23O,1.000000X1.000000*%
G04 #@! TD*
G04 #@! TA.AperFunction,ComponentPad*
%ADD24R,1.000000X1.000000*%
G04 #@! TD*
G04 #@! TA.AperFunction,SMDPad,CuDef*
%ADD25R,5.600000X5.600000*%
G04 #@! TD*
G04 #@! TA.AperFunction,ViaPad*
%ADD26C,0.600000*%
G04 #@! TD*
G04 #@! TA.AperFunction,Conductor*
%ADD27C,0.250000*%
G04 #@! TD*
G04 #@! TA.AperFunction,Conductor*
%ADD28C,0.600000*%
G04 #@! TD*
G04 #@! TA.AperFunction,Conductor*
%ADD29C,1.000000*%
G04 #@! TD*
G04 #@! TA.AperFunction,Conductor*
%ADD30C,1.500000*%
G04 #@! TD*
G04 APERTURE END LIST*
D10*
X147421428Y-80218571D02*
X147421428Y-79361428D01*
X147421428Y-79790000D02*
X148921428Y-79790000D01*
X148707142Y-79647142D01*
X148564285Y-79504285D01*
X148492857Y-79361428D01*
G04 #@! TA.AperFunction,SMDPad,CuDef*
G36*
G01*
X106575000Y-102130000D02*
X106945000Y-102130000D01*
G75*
G02*
X107080000Y-102265000I0J-135000D01*
G01*
X107080000Y-102535000D01*
G75*
G02*
X106945000Y-102670000I-135000J0D01*
G01*
X106575000Y-102670000D01*
G75*
G02*
X106440000Y-102535000I0J135000D01*
G01*
X106440000Y-102265000D01*
G75*
G02*
X106575000Y-102130000I135000J0D01*
G01*
G37*
G04 #@! TD.AperFunction*
G04 #@! TA.AperFunction,SMDPad,CuDef*
G36*
G01*
X106575000Y-101110000D02*
X106945000Y-101110000D01*
G75*
G02*
X107080000Y-101245000I0J-135000D01*
G01*
X107080000Y-101515000D01*
G75*
G02*
X106945000Y-101650000I-135000J0D01*
G01*
X106575000Y-101650000D01*
G75*
G02*
X106440000Y-101515000I0J135000D01*
G01*
X106440000Y-101245000D01*
G75*
G02*
X106575000Y-101110000I135000J0D01*
G01*
G37*
G04 #@! TD.AperFunction*
G04 #@! TA.AperFunction,SMDPad,CuDef*
G36*
G01*
X107600000Y-102090000D02*
X107940000Y-102090000D01*
G75*
G02*
X108080000Y-102230000I0J-140000D01*
G01*
X108080000Y-102510000D01*
G75*
G02*
X107940000Y-102650000I-140000J0D01*
G01*
X107600000Y-102650000D01*
G75*
G02*
X107460000Y-102510000I0J140000D01*
G01*
X107460000Y-102230000D01*
G75*
G02*
X107600000Y-102090000I140000J0D01*
G01*
G37*
G04 #@! TD.AperFunction*
G04 #@! TA.AperFunction,SMDPad,CuDef*
G36*
G01*
X107600000Y-101130000D02*
X107940000Y-101130000D01*
G75*
G02*
X108080000Y-101270000I0J-140000D01*
G01*
X108080000Y-101550000D01*
G75*
G02*
X107940000Y-101690000I-140000J0D01*
G01*
X107600000Y-101690000D01*
G75*
G02*
X107460000Y-101550000I0J140000D01*
G01*
X107460000Y-101270000D01*
G75*
G02*
X107600000Y-101130000I140000J0D01*
G01*
G37*
G04 #@! TD.AperFunction*
G04 #@! TA.AperFunction,SMDPad,CuDef*
G36*
G01*
X141510000Y-105332500D02*
X141510000Y-105807500D01*
G75*
G02*
X141272500Y-106045000I-237500J0D01*
G01*
X140697500Y-106045000D01*
G75*
G02*
X140460000Y-105807500I0J237500D01*
G01*
X140460000Y-105332500D01*
G75*
G02*
X140697500Y-105095000I237500J0D01*
G01*
X141272500Y-105095000D01*
G75*
G02*
X141510000Y-105332500I0J-237500D01*
G01*
G37*
G04 #@! TD.AperFunction*
G04 #@! TA.AperFunction,SMDPad,CuDef*
G36*
G01*
X143260000Y-105332500D02*
X143260000Y-105807500D01*
G75*
G02*
X143022500Y-106045000I-237500J0D01*
G01*
X142447500Y-106045000D01*
G75*
G02*
X142210000Y-105807500I0J237500D01*
G01*
X142210000Y-105332500D01*
G75*
G02*
X142447500Y-105095000I237500J0D01*
G01*
X143022500Y-105095000D01*
G75*
G02*
X143260000Y-105332500I0J-237500D01*
G01*
G37*
G04 #@! TD.AperFunction*
G04 #@! TA.AperFunction,SMDPad,CuDef*
G36*
G01*
X144240000Y-78302500D02*
X144240000Y-78777500D01*
G75*
G02*
X144002500Y-79015000I-237500J0D01*
G01*
X143427500Y-79015000D01*
G75*
G02*
X143190000Y-78777500I0J237500D01*
G01*
X143190000Y-78302500D01*
G75*
G02*
X143427500Y-78065000I237500J0D01*
G01*
X144002500Y-78065000D01*
G75*
G02*
X144240000Y-78302500I0J-237500D01*
G01*
G37*
G04 #@! TD.AperFunction*
G04 #@! TA.AperFunction,SMDPad,CuDef*
G36*
G01*
X145990000Y-78302500D02*
X145990000Y-78777500D01*
G75*
G02*
X145752500Y-79015000I-237500J0D01*
G01*
X145177500Y-79015000D01*
G75*
G02*
X144940000Y-78777500I0J237500D01*
G01*
X144940000Y-78302500D01*
G75*
G02*
X145177500Y-78065000I237500J0D01*
G01*
X145752500Y-78065000D01*
G75*
G02*
X145990000Y-78302500I0J-237500D01*
G01*
G37*
G04 #@! TD.AperFunction*
G04 #@! TA.AperFunction,SMDPad,CuDef*
G36*
G01*
X127885000Y-100630000D02*
X127575000Y-100630000D01*
G75*
G02*
X127420000Y-100475000I0J155000D01*
G01*
X127420000Y-100050000D01*
G75*
G02*
X127575000Y-99895000I155000J0D01*
G01*
X127885000Y-99895000D01*
G75*
G02*
X128040000Y-100050000I0J-155000D01*
G01*
X128040000Y-100475000D01*
G75*
G02*
X127885000Y-100630000I-155000J0D01*
G01*
G37*
G04 #@! TD.AperFunction*
G04 #@! TA.AperFunction,SMDPad,CuDef*
G36*
G01*
X127885000Y-101765000D02*
X127575000Y-101765000D01*
G75*
G02*
X127420000Y-101610000I0J155000D01*
G01*
X127420000Y-101185000D01*
G75*
G02*
X127575000Y-101030000I155000J0D01*
G01*
X127885000Y-101030000D01*
G75*
G02*
X128040000Y-101185000I0J-155000D01*
G01*
X128040000Y-101610000D01*
G75*
G02*
X127885000Y-101765000I-155000J0D01*
G01*
G37*
G04 #@! TD.AperFunction*
G04 #@! TA.AperFunction,SMDPad,CuDef*
G36*
G01*
X118300000Y-97015000D02*
X118300000Y-96705000D01*
G75*
G02*
X118455000Y-96550000I155000J0D01*
G01*
X118880000Y-96550000D01*
G75*
G02*
X119035000Y-96705000I0J-155000D01*
G01*
X119035000Y-97015000D01*
G75*
G02*
X118880000Y-97170000I-155000J0D01*
G01*
X118455000Y-97170000D01*
G75*
G02*
X118300000Y-97015000I0J155000D01*
G01*
G37*
G04 #@! TD.AperFunction*
G04 #@! TA.AperFunction,SMDPad,CuDef*
G36*
G01*
X117165000Y-97015000D02*
X117165000Y-96705000D01*
G75*
G02*
X117320000Y-96550000I155000J0D01*
G01*
X117745000Y-96550000D01*
G75*
G02*
X117900000Y-96705000I0J-155000D01*
G01*
X117900000Y-97015000D01*
G75*
G02*
X117745000Y-97170000I-155000J0D01*
G01*
X117320000Y-97170000D01*
G75*
G02*
X117165000Y-97015000I0J155000D01*
G01*
G37*
G04 #@! TD.AperFunction*
G04 #@! TA.AperFunction,SMDPad,CuDef*
G36*
G01*
X119438978Y-88921819D02*
X119658181Y-89141022D01*
G75*
G02*
X119658181Y-89360226I-109602J-109602D01*
G01*
X119357660Y-89660747D01*
G75*
G02*
X119138456Y-89660747I-109602J109602D01*
G01*
X118919253Y-89441544D01*
G75*
G02*
X118919253Y-89222340I109602J109602D01*
G01*
X119219774Y-88921819D01*
G75*
G02*
X119438978Y-88921819I109602J-109602D01*
G01*
G37*
G04 #@! TD.AperFunction*
G04 #@! TA.AperFunction,SMDPad,CuDef*
G36*
G01*
X120241544Y-88119253D02*
X120460747Y-88338456D01*
G75*
G02*
X120460747Y-88557660I-109602J-109602D01*
G01*
X120160226Y-88858181D01*
G75*
G02*
X119941022Y-88858181I-109602J109602D01*
G01*
X119721819Y-88638978D01*
G75*
G02*
X119721819Y-88419774I109602J109602D01*
G01*
X120022340Y-88119253D01*
G75*
G02*
X120241544Y-88119253I109602J-109602D01*
G01*
G37*
G04 #@! TD.AperFunction*
D11*
X112060000Y-117860000D03*
X112060000Y-115320000D03*
X114600000Y-117860000D03*
X114600000Y-115320000D03*
X117140000Y-117860000D03*
X117140000Y-115320000D03*
X119680000Y-117860000D03*
X119680000Y-115320000D03*
X122220000Y-117860000D03*
X122220000Y-115320000D03*
X124760000Y-117860000D03*
X124760000Y-115320000D03*
X127300000Y-117860000D03*
X127300000Y-115320000D03*
X129840000Y-117860000D03*
X129840000Y-115320000D03*
X132380000Y-117860000D03*
X132380000Y-115320000D03*
X134920000Y-117860000D03*
X134920000Y-115320000D03*
X137460000Y-117860000D03*
X137460000Y-115320000D03*
X140000000Y-117860000D03*
D12*
X140000000Y-115320000D03*
D11*
X112060000Y-74680000D03*
X112060000Y-72140000D03*
X114600000Y-74680000D03*
X114600000Y-72140000D03*
X117140000Y-74680000D03*
X117140000Y-72140000D03*
X119680000Y-74680000D03*
X119680000Y-72140000D03*
X122220000Y-74680000D03*
X122220000Y-72140000D03*
X124760000Y-74680000D03*
X124760000Y-72140000D03*
X127300000Y-74680000D03*
X127300000Y-72140000D03*
X129840000Y-74680000D03*
X129840000Y-72140000D03*
X132380000Y-74680000D03*
X132380000Y-72140000D03*
X134920000Y-74680000D03*
X134920000Y-72140000D03*
X137460000Y-74680000D03*
X137460000Y-72140000D03*
X140000000Y-74680000D03*
D12*
X140000000Y-72140000D03*
G04 #@! TA.AperFunction,SMDPad,CuDef*
G36*
G01*
X143290000Y-103435000D02*
X143290000Y-103125000D01*
G75*
G02*
X143445000Y-102970000I155000J0D01*
G01*
X143870000Y-102970000D01*
G75*
G02*
X144025000Y-103125000I0J-155000D01*
G01*
X144025000Y-103435000D01*
G75*
G02*
X143870000Y-103590000I-155000J0D01*
G01*
X143445000Y-103590000D01*
G75*
G02*
X143290000Y-103435000I0J155000D01*
G01*
G37*
G04 #@! TD.AperFunction*
G04 #@! TA.AperFunction,SMDPad,CuDef*
G36*
G01*
X142155000Y-103435000D02*
X142155000Y-103125000D01*
G75*
G02*
X142310000Y-102970000I155000J0D01*
G01*
X142735000Y-102970000D01*
G75*
G02*
X142890000Y-103125000I0J-155000D01*
G01*
X142890000Y-103435000D01*
G75*
G02*
X142735000Y-103590000I-155000J0D01*
G01*
X142310000Y-103590000D01*
G75*
G02*
X142155000Y-103435000I0J155000D01*
G01*
G37*
G04 #@! TD.AperFunction*
D13*
X133030000Y-95300000D03*
X133030000Y-93100000D03*
X134730000Y-93100000D03*
X134730000Y-95300000D03*
D14*
X108205000Y-98750000D03*
X108205000Y-97950000D03*
X108205000Y-93050000D03*
X108205000Y-92250000D03*
X108205000Y-92250000D03*
X108205000Y-93050000D03*
X108205000Y-97950000D03*
X108205000Y-98750000D03*
D15*
X108205000Y-93750000D03*
X108205000Y-94250000D03*
X108205000Y-94750000D03*
X108205000Y-95750000D03*
X108205000Y-96250000D03*
X108205000Y-96750000D03*
X108205000Y-97250000D03*
X108205000Y-95250000D03*
D16*
X107290000Y-99820000D03*
X107290000Y-91180000D03*
D17*
X103110000Y-91180000D03*
X103110000Y-99820000D03*
D18*
X102500000Y-83160000D03*
X102500000Y-87760000D03*
X102500000Y-85460000D03*
D19*
X108800000Y-85460000D03*
D20*
X106910000Y-106920030D03*
X106910000Y-111519970D03*
D21*
X144070030Y-89820000D03*
X148669970Y-89820000D03*
G04 #@! TA.AperFunction,SMDPad,CuDef*
G36*
G01*
X135925000Y-84020000D02*
X136295000Y-84020000D01*
G75*
G02*
X136430000Y-84155000I0J-135000D01*
G01*
X136430000Y-84425000D01*
G75*
G02*
X136295000Y-84560000I-135000J0D01*
G01*
X135925000Y-84560000D01*
G75*
G02*
X135790000Y-84425000I0J135000D01*
G01*
X135790000Y-84155000D01*
G75*
G02*
X135925000Y-84020000I135000J0D01*
G01*
G37*
G04 #@! TD.AperFunction*
G04 #@! TA.AperFunction,SMDPad,CuDef*
G36*
G01*
X135925000Y-83000000D02*
X136295000Y-83000000D01*
G75*
G02*
X136430000Y-83135000I0J-135000D01*
G01*
X136430000Y-83405000D01*
G75*
G02*
X136295000Y-83540000I-135000J0D01*
G01*
X135925000Y-83540000D01*
G75*
G02*
X135790000Y-83405000I0J135000D01*
G01*
X135790000Y-83135000D01*
G75*
G02*
X135925000Y-83000000I135000J0D01*
G01*
G37*
G04 #@! TD.AperFunction*
G04 #@! TA.AperFunction,SMDPad,CuDef*
G36*
G01*
X131695000Y-90180000D02*
X131325000Y-90180000D01*
G75*
G02*
X131190000Y-90045000I0J135000D01*
G01*
X131190000Y-89775000D01*
G75*
G02*
X131325000Y-89640000I135000J0D01*
G01*
X131695000Y-89640000D01*
G75*
G02*
X131830000Y-89775000I0J-135000D01*
G01*
X131830000Y-90045000D01*
G75*
G02*
X131695000Y-90180000I-135000J0D01*
G01*
G37*
G04 #@! TD.AperFunction*
G04 #@! TA.AperFunction,SMDPad,CuDef*
G36*
G01*
X131695000Y-91200000D02*
X131325000Y-91200000D01*
G75*
G02*
X131190000Y-91065000I0J135000D01*
G01*
X131190000Y-90795000D01*
G75*
G02*
X131325000Y-90660000I135000J0D01*
G01*
X131695000Y-90660000D01*
G75*
G02*
X131830000Y-90795000I0J-135000D01*
G01*
X131830000Y-91065000D01*
G75*
G02*
X131695000Y-91200000I-135000J0D01*
G01*
G37*
G04 #@! TD.AperFunction*
G04 #@! TA.AperFunction,SMDPad,CuDef*
G36*
G01*
X141740000Y-106985000D02*
X141740000Y-107355000D01*
G75*
G02*
X141605000Y-107490000I-135000J0D01*
G01*
X141335000Y-107490000D01*
G75*
G02*
X141200000Y-107355000I0J135000D01*
G01*
X141200000Y-106985000D01*
G75*
G02*
X141335000Y-106850000I135000J0D01*
G01*
X141605000Y-106850000D01*
G75*
G02*
X141740000Y-106985000I0J-135000D01*
G01*
G37*
G04 #@! TD.AperFunction*
G04 #@! TA.AperFunction,SMDPad,CuDef*
G36*
G01*
X142760000Y-106985000D02*
X142760000Y-107355000D01*
G75*
G02*
X142625000Y-107490000I-135000J0D01*
G01*
X142355000Y-107490000D01*
G75*
G02*
X142220000Y-107355000I0J135000D01*
G01*
X142220000Y-106985000D01*
G75*
G02*
X142355000Y-106850000I135000J0D01*
G01*
X142625000Y-106850000D01*
G75*
G02*
X142760000Y-106985000I0J-135000D01*
G01*
G37*
G04 #@! TD.AperFunction*
G04 #@! TA.AperFunction,SMDPad,CuDef*
G36*
G01*
X144620000Y-79995000D02*
X144620000Y-80365000D01*
G75*
G02*
X144485000Y-80500000I-135000J0D01*
G01*
X144215000Y-80500000D01*
G75*
G02*
X144080000Y-80365000I0J135000D01*
G01*
X144080000Y-79995000D01*
G75*
G02*
X144215000Y-79860000I135000J0D01*
G01*
X144485000Y-79860000D01*
G75*
G02*
X144620000Y-79995000I0J-135000D01*
G01*
G37*
G04 #@! TD.AperFunction*
G04 #@! TA.AperFunction,SMDPad,CuDef*
G36*
G01*
X145640000Y-79995000D02*
X145640000Y-80365000D01*
G75*
G02*
X145505000Y-80500000I-135000J0D01*
G01*
X145235000Y-80500000D01*
G75*
G02*
X145100000Y-80365000I0J135000D01*
G01*
X145100000Y-79995000D01*
G75*
G02*
X145235000Y-79860000I135000J0D01*
G01*
X145505000Y-79860000D01*
G75*
G02*
X145640000Y-79995000I0J-135000D01*
G01*
G37*
G04 #@! TD.AperFunction*
G04 #@! TA.AperFunction,SMDPad,CuDef*
G36*
G01*
X124850000Y-105235000D02*
X124850000Y-104865000D01*
G75*
G02*
X124985000Y-104730000I135000J0D01*
G01*
X125255000Y-104730000D01*
G75*
G02*
X125390000Y-104865000I0J-135000D01*
G01*
X125390000Y-105235000D01*
G75*
G02*
X125255000Y-105370000I-135000J0D01*
G01*
X124985000Y-105370000D01*
G75*
G02*
X124850000Y-105235000I0J135000D01*
G01*
G37*
G04 #@! TD.AperFunction*
G04 #@! TA.AperFunction,SMDPad,CuDef*
G36*
G01*
X123830000Y-105235000D02*
X123830000Y-104865000D01*
G75*
G02*
X123965000Y-104730000I135000J0D01*
G01*
X124235000Y-104730000D01*
G75*
G02*
X124370000Y-104865000I0J-135000D01*
G01*
X124370000Y-105235000D01*
G75*
G02*
X124235000Y-105370000I-135000J0D01*
G01*
X123965000Y-105370000D01*
G75*
G02*
X123830000Y-105235000I0J135000D01*
G01*
G37*
G04 #@! TD.AperFunction*
G04 #@! TA.AperFunction,SMDPad,CuDef*
G36*
G01*
X132535000Y-105550000D02*
X132165000Y-105550000D01*
G75*
G02*
X132030000Y-105415000I0J135000D01*
G01*
X132030000Y-105145000D01*
G75*
G02*
X132165000Y-105010000I135000J0D01*
G01*
X132535000Y-105010000D01*
G75*
G02*
X132670000Y-105145000I0J-135000D01*
G01*
X132670000Y-105415000D01*
G75*
G02*
X132535000Y-105550000I-135000J0D01*
G01*
G37*
G04 #@! TD.AperFunction*
G04 #@! TA.AperFunction,SMDPad,CuDef*
G36*
G01*
X132535000Y-106570000D02*
X132165000Y-106570000D01*
G75*
G02*
X132030000Y-106435000I0J135000D01*
G01*
X132030000Y-106165000D01*
G75*
G02*
X132165000Y-106030000I135000J0D01*
G01*
X132535000Y-106030000D01*
G75*
G02*
X132670000Y-106165000I0J-135000D01*
G01*
X132670000Y-106435000D01*
G75*
G02*
X132535000Y-106570000I-135000J0D01*
G01*
G37*
G04 #@! TD.AperFunction*
G04 #@! TA.AperFunction,SMDPad,CuDef*
G36*
G01*
X134960000Y-99820000D02*
X134960000Y-100160000D01*
G75*
G02*
X134820000Y-100300000I-140000J0D01*
G01*
X134540000Y-100300000D01*
G75*
G02*
X134400000Y-100160000I0J140000D01*
G01*
X134400000Y-99820000D01*
G75*
G02*
X134540000Y-99680000I140000J0D01*
G01*
X134820000Y-99680000D01*
G75*
G02*
X134960000Y-99820000I0J-140000D01*
G01*
G37*
G04 #@! TD.AperFunction*
G04 #@! TA.AperFunction,SMDPad,CuDef*
G36*
G01*
X135920000Y-99820000D02*
X135920000Y-100160000D01*
G75*
G02*
X135780000Y-100300000I-140000J0D01*
G01*
X135500000Y-100300000D01*
G75*
G02*
X135360000Y-100160000I0J140000D01*
G01*
X135360000Y-99820000D01*
G75*
G02*
X135500000Y-99680000I140000J0D01*
G01*
X135780000Y-99680000D01*
G75*
G02*
X135920000Y-99820000I0J-140000D01*
G01*
G37*
G04 #@! TD.AperFunction*
G04 #@! TA.AperFunction,SMDPad,CuDef*
G36*
G01*
X135070000Y-97220000D02*
X135070000Y-97560000D01*
G75*
G02*
X134930000Y-97700000I-140000J0D01*
G01*
X134650000Y-97700000D01*
G75*
G02*
X134510000Y-97560000I0J140000D01*
G01*
X134510000Y-97220000D01*
G75*
G02*
X134650000Y-97080000I140000J0D01*
G01*
X134930000Y-97080000D01*
G75*
G02*
X135070000Y-97220000I0J-140000D01*
G01*
G37*
G04 #@! TD.AperFunction*
G04 #@! TA.AperFunction,SMDPad,CuDef*
G36*
G01*
X136030000Y-97220000D02*
X136030000Y-97560000D01*
G75*
G02*
X135890000Y-97700000I-140000J0D01*
G01*
X135610000Y-97700000D01*
G75*
G02*
X135470000Y-97560000I0J140000D01*
G01*
X135470000Y-97220000D01*
G75*
G02*
X135610000Y-97080000I140000J0D01*
G01*
X135890000Y-97080000D01*
G75*
G02*
X136030000Y-97220000I0J-140000D01*
G01*
G37*
G04 #@! TD.AperFunction*
G04 #@! TA.AperFunction,SMDPad,CuDef*
G36*
G01*
X133840000Y-91080000D02*
X133840000Y-91420000D01*
G75*
G02*
X133700000Y-91560000I-140000J0D01*
G01*
X133420000Y-91560000D01*
G75*
G02*
X133280000Y-91420000I0J140000D01*
G01*
X133280000Y-91080000D01*
G75*
G02*
X133420000Y-90940000I140000J0D01*
G01*
X133700000Y-90940000D01*
G75*
G02*
X133840000Y-91080000I0J-140000D01*
G01*
G37*
G04 #@! TD.AperFunction*
G04 #@! TA.AperFunction,SMDPad,CuDef*
G36*
G01*
X134800000Y-91080000D02*
X134800000Y-91420000D01*
G75*
G02*
X134660000Y-91560000I-140000J0D01*
G01*
X134380000Y-91560000D01*
G75*
G02*
X134240000Y-91420000I0J140000D01*
G01*
X134240000Y-91080000D01*
G75*
G02*
X134380000Y-90940000I140000J0D01*
G01*
X134660000Y-90940000D01*
G75*
G02*
X134800000Y-91080000I0J-140000D01*
G01*
G37*
G04 #@! TD.AperFunction*
G04 #@! TA.AperFunction,SMDPad,CuDef*
G36*
G01*
X136200000Y-94990000D02*
X136540000Y-94990000D01*
G75*
G02*
X136680000Y-95130000I0J-140000D01*
G01*
X136680000Y-95410000D01*
G75*
G02*
X136540000Y-95550000I-140000J0D01*
G01*
X136200000Y-95550000D01*
G75*
G02*
X136060000Y-95410000I0J140000D01*
G01*
X136060000Y-95130000D01*
G75*
G02*
X136200000Y-94990000I140000J0D01*
G01*
G37*
G04 #@! TD.AperFunction*
G04 #@! TA.AperFunction,SMDPad,CuDef*
G36*
G01*
X136200000Y-94030000D02*
X136540000Y-94030000D01*
G75*
G02*
X136680000Y-94170000I0J-140000D01*
G01*
X136680000Y-94450000D01*
G75*
G02*
X136540000Y-94590000I-140000J0D01*
G01*
X136200000Y-94590000D01*
G75*
G02*
X136060000Y-94450000I0J140000D01*
G01*
X136060000Y-94170000D01*
G75*
G02*
X136200000Y-94030000I140000J0D01*
G01*
G37*
G04 #@! TD.AperFunction*
G04 #@! TA.AperFunction,SMDPad,CuDef*
G36*
G01*
X131272500Y-88120000D02*
X131747500Y-88120000D01*
G75*
G02*
X131985000Y-88357500I0J-237500D01*
G01*
X131985000Y-88932500D01*
G75*
G02*
X131747500Y-89170000I-237500J0D01*
G01*
X131272500Y-89170000D01*
G75*
G02*
X131035000Y-88932500I0J237500D01*
G01*
X131035000Y-88357500D01*
G75*
G02*
X131272500Y-88120000I237500J0D01*
G01*
G37*
G04 #@! TD.AperFunction*
G04 #@! TA.AperFunction,SMDPad,CuDef*
G36*
G01*
X131272500Y-86370000D02*
X131747500Y-86370000D01*
G75*
G02*
X131985000Y-86607500I0J-237500D01*
G01*
X131985000Y-87182500D01*
G75*
G02*
X131747500Y-87420000I-237500J0D01*
G01*
X131272500Y-87420000D01*
G75*
G02*
X131035000Y-87182500I0J237500D01*
G01*
X131035000Y-86607500D01*
G75*
G02*
X131272500Y-86370000I237500J0D01*
G01*
G37*
G04 #@! TD.AperFunction*
X144310030Y-110590000D03*
X148909970Y-110590000D03*
D22*
X133000000Y-99950000D03*
X133000000Y-97450000D03*
D23*
X147685000Y-98430000D03*
X146415000Y-98430000D03*
X147685000Y-99700000D03*
X146415000Y-99700000D03*
X147685000Y-100970000D03*
X146415000Y-100970000D03*
X147685000Y-102240000D03*
X146415000Y-102240000D03*
X146415000Y-103510000D03*
D24*
X147685000Y-103510000D03*
D25*
X125000000Y-94000000D03*
G04 #@! TA.AperFunction,SMDPad,CuDef*
G36*
G01*
X127875000Y-97062500D02*
X127875000Y-97812500D01*
G75*
G02*
X127812500Y-97875000I-62500J0D01*
G01*
X127687500Y-97875000D01*
G75*
G02*
X127625000Y-97812500I0J62500D01*
G01*
X127625000Y-97062500D01*
G75*
G02*
X127687500Y-97000000I62500J0D01*
G01*
X127812500Y-97000000D01*
G75*
G02*
X127875000Y-97062500I0J-62500D01*
G01*
G37*
G04 #@! TD.AperFunction*
G04 #@! TA.AperFunction,SMDPad,CuDef*
G36*
G01*
X127375000Y-97062500D02*
X127375000Y-97812500D01*
G75*
G02*
X127312500Y-97875000I-62500J0D01*
G01*
X127187500Y-97875000D01*
G75*
G02*
X127125000Y-97812500I0J62500D01*
G01*
X127125000Y-97062500D01*
G75*
G02*
X127187500Y-97000000I62500J0D01*
G01*
X127312500Y-97000000D01*
G75*
G02*
X127375000Y-97062500I0J-62500D01*
G01*
G37*
G04 #@! TD.AperFunction*
G04 #@! TA.AperFunction,SMDPad,CuDef*
G36*
G01*
X126875000Y-97062500D02*
X126875000Y-97812500D01*
G75*
G02*
X126812500Y-97875000I-62500J0D01*
G01*
X126687500Y-97875000D01*
G75*
G02*
X126625000Y-97812500I0J62500D01*
G01*
X126625000Y-97062500D01*
G75*
G02*
X126687500Y-97000000I62500J0D01*
G01*
X126812500Y-97000000D01*
G75*
G02*
X126875000Y-97062500I0J-62500D01*
G01*
G37*
G04 #@! TD.AperFunction*
G04 #@! TA.AperFunction,SMDPad,CuDef*
G36*
G01*
X126375000Y-97062500D02*
X126375000Y-97812500D01*
G75*
G02*
X126312500Y-97875000I-62500J0D01*
G01*
X126187500Y-97875000D01*
G75*
G02*
X126125000Y-97812500I0J62500D01*
G01*
X126125000Y-97062500D01*
G75*
G02*
X126187500Y-97000000I62500J0D01*
G01*
X126312500Y-97000000D01*
G75*
G02*
X126375000Y-97062500I0J-62500D01*
G01*
G37*
G04 #@! TD.AperFunction*
G04 #@! TA.AperFunction,SMDPad,CuDef*
G36*
G01*
X125875000Y-97062500D02*
X125875000Y-97812500D01*
G75*
G02*
X125812500Y-97875000I-62500J0D01*
G01*
X125687500Y-97875000D01*
G75*
G02*
X125625000Y-97812500I0J62500D01*
G01*
X125625000Y-97062500D01*
G75*
G02*
X125687500Y-97000000I62500J0D01*
G01*
X125812500Y-97000000D01*
G75*
G02*
X125875000Y-97062500I0J-62500D01*
G01*
G37*
G04 #@! TD.AperFunction*
G04 #@! TA.AperFunction,SMDPad,CuDef*
G36*
G01*
X125375000Y-97062500D02*
X125375000Y-97812500D01*
G75*
G02*
X125312500Y-97875000I-62500J0D01*
G01*
X125187500Y-97875000D01*
G75*
G02*
X125125000Y-97812500I0J62500D01*
G01*
X125125000Y-97062500D01*
G75*
G02*
X125187500Y-97000000I62500J0D01*
G01*
X125312500Y-97000000D01*
G75*
G02*
X125375000Y-97062500I0J-62500D01*
G01*
G37*
G04 #@! TD.AperFunction*
G04 #@! TA.AperFunction,SMDPad,CuDef*
G36*
G01*
X124875000Y-97062500D02*
X124875000Y-97812500D01*
G75*
G02*
X124812500Y-97875000I-62500J0D01*
G01*
X124687500Y-97875000D01*
G75*
G02*
X124625000Y-97812500I0J62500D01*
G01*
X124625000Y-97062500D01*
G75*
G02*
X124687500Y-97000000I62500J0D01*
G01*
X124812500Y-97000000D01*
G75*
G02*
X124875000Y-97062500I0J-62500D01*
G01*
G37*
G04 #@! TD.AperFunction*
G04 #@! TA.AperFunction,SMDPad,CuDef*
G36*
G01*
X124375000Y-97062500D02*
X124375000Y-97812500D01*
G75*
G02*
X124312500Y-97875000I-62500J0D01*
G01*
X124187500Y-97875000D01*
G75*
G02*
X124125000Y-97812500I0J62500D01*
G01*
X124125000Y-97062500D01*
G75*
G02*
X124187500Y-97000000I62500J0D01*
G01*
X124312500Y-97000000D01*
G75*
G02*
X124375000Y-97062500I0J-62500D01*
G01*
G37*
G04 #@! TD.AperFunction*
G04 #@! TA.AperFunction,SMDPad,CuDef*
G36*
G01*
X123875000Y-97062500D02*
X123875000Y-97812500D01*
G75*
G02*
X123812500Y-97875000I-62500J0D01*
G01*
X123687500Y-97875000D01*
G75*
G02*
X123625000Y-97812500I0J62500D01*
G01*
X123625000Y-97062500D01*
G75*
G02*
X123687500Y-97000000I62500J0D01*
G01*
X123812500Y-97000000D01*
G75*
G02*
X123875000Y-97062500I0J-62500D01*
G01*
G37*
G04 #@! TD.AperFunction*
G04 #@! TA.AperFunction,SMDPad,CuDef*
G36*
G01*
X123375000Y-97062500D02*
X123375000Y-97812500D01*
G75*
G02*
X123312500Y-97875000I-62500J0D01*
G01*
X123187500Y-97875000D01*
G75*
G02*
X123125000Y-97812500I0J62500D01*
G01*
X123125000Y-97062500D01*
G75*
G02*
X123187500Y-97000000I62500J0D01*
G01*
X123312500Y-97000000D01*
G75*
G02*
X123375000Y-97062500I0J-62500D01*
G01*
G37*
G04 #@! TD.AperFunction*
G04 #@! TA.AperFunction,SMDPad,CuDef*
G36*
G01*
X122875000Y-97062500D02*
X122875000Y-97812500D01*
G75*
G02*
X122812500Y-97875000I-62500J0D01*
G01*
X122687500Y-97875000D01*
G75*
G02*
X122625000Y-97812500I0J62500D01*
G01*
X122625000Y-97062500D01*
G75*
G02*
X122687500Y-97000000I62500J0D01*
G01*
X122812500Y-97000000D01*
G75*
G02*
X122875000Y-97062500I0J-62500D01*
G01*
G37*
G04 #@! TD.AperFunction*
G04 #@! TA.AperFunction,SMDPad,CuDef*
G36*
G01*
X122375000Y-97062500D02*
X122375000Y-97812500D01*
G75*
G02*
X122312500Y-97875000I-62500J0D01*
G01*
X122187500Y-97875000D01*
G75*
G02*
X122125000Y-97812500I0J62500D01*
G01*
X122125000Y-97062500D01*
G75*
G02*
X122187500Y-97000000I62500J0D01*
G01*
X122312500Y-97000000D01*
G75*
G02*
X122375000Y-97062500I0J-62500D01*
G01*
G37*
G04 #@! TD.AperFunction*
G04 #@! TA.AperFunction,SMDPad,CuDef*
G36*
G01*
X122000000Y-96687500D02*
X122000000Y-96812500D01*
G75*
G02*
X121937500Y-96875000I-62500J0D01*
G01*
X121187500Y-96875000D01*
G75*
G02*
X121125000Y-96812500I0J62500D01*
G01*
X121125000Y-96687500D01*
G75*
G02*
X121187500Y-96625000I62500J0D01*
G01*
X121937500Y-96625000D01*
G75*
G02*
X122000000Y-96687500I0J-62500D01*
G01*
G37*
G04 #@! TD.AperFunction*
G04 #@! TA.AperFunction,SMDPad,CuDef*
G36*
G01*
X122000000Y-96187500D02*
X122000000Y-96312500D01*
G75*
G02*
X121937500Y-96375000I-62500J0D01*
G01*
X121187500Y-96375000D01*
G75*
G02*
X121125000Y-96312500I0J62500D01*
G01*
X121125000Y-96187500D01*
G75*
G02*
X121187500Y-96125000I62500J0D01*
G01*
X121937500Y-96125000D01*
G75*
G02*
X122000000Y-96187500I0J-62500D01*
G01*
G37*
G04 #@! TD.AperFunction*
G04 #@! TA.AperFunction,SMDPad,CuDef*
G36*
G01*
X122000000Y-95687500D02*
X122000000Y-95812500D01*
G75*
G02*
X121937500Y-95875000I-62500J0D01*
G01*
X121187500Y-95875000D01*
G75*
G02*
X121125000Y-95812500I0J62500D01*
G01*
X121125000Y-95687500D01*
G75*
G02*
X121187500Y-95625000I62500J0D01*
G01*
X121937500Y-95625000D01*
G75*
G02*
X122000000Y-95687500I0J-62500D01*
G01*
G37*
G04 #@! TD.AperFunction*
G04 #@! TA.AperFunction,SMDPad,CuDef*
G36*
G01*
X122000000Y-95187500D02*
X122000000Y-95312500D01*
G75*
G02*
X121937500Y-95375000I-62500J0D01*
G01*
X121187500Y-95375000D01*
G75*
G02*
X121125000Y-95312500I0J62500D01*
G01*
X121125000Y-95187500D01*
G75*
G02*
X121187500Y-95125000I62500J0D01*
G01*
X121937500Y-95125000D01*
G75*
G02*
X122000000Y-95187500I0J-62500D01*
G01*
G37*
G04 #@! TD.AperFunction*
G04 #@! TA.AperFunction,SMDPad,CuDef*
G36*
G01*
X122000000Y-94687500D02*
X122000000Y-94812500D01*
G75*
G02*
X121937500Y-94875000I-62500J0D01*
G01*
X121187500Y-94875000D01*
G75*
G02*
X121125000Y-94812500I0J62500D01*
G01*
X121125000Y-94687500D01*
G75*
G02*
X121187500Y-94625000I62500J0D01*
G01*
X121937500Y-94625000D01*
G75*
G02*
X122000000Y-94687500I0J-62500D01*
G01*
G37*
G04 #@! TD.AperFunction*
G04 #@! TA.AperFunction,SMDPad,CuDef*
G36*
G01*
X122000000Y-94187500D02*
X122000000Y-94312500D01*
G75*
G02*
X121937500Y-94375000I-62500J0D01*
G01*
X121187500Y-94375000D01*
G75*
G02*
X121125000Y-94312500I0J62500D01*
G01*
X121125000Y-94187500D01*
G75*
G02*
X121187500Y-94125000I62500J0D01*
G01*
X121937500Y-94125000D01*
G75*
G02*
X122000000Y-94187500I0J-62500D01*
G01*
G37*
G04 #@! TD.AperFunction*
G04 #@! TA.AperFunction,SMDPad,CuDef*
G36*
G01*
X122000000Y-93687500D02*
X122000000Y-93812500D01*
G75*
G02*
X121937500Y-93875000I-62500J0D01*
G01*
X121187500Y-93875000D01*
G75*
G02*
X121125000Y-93812500I0J62500D01*
G01*
X121125000Y-93687500D01*
G75*
G02*
X121187500Y-93625000I62500J0D01*
G01*
X121937500Y-93625000D01*
G75*
G02*
X122000000Y-93687500I0J-62500D01*
G01*
G37*
G04 #@! TD.AperFunction*
G04 #@! TA.AperFunction,SMDPad,CuDef*
G36*
G01*
X122000000Y-93187500D02*
X122000000Y-93312500D01*
G75*
G02*
X121937500Y-93375000I-62500J0D01*
G01*
X121187500Y-93375000D01*
G75*
G02*
X121125000Y-93312500I0J62500D01*
G01*
X121125000Y-93187500D01*
G75*
G02*
X121187500Y-93125000I62500J0D01*
G01*
X121937500Y-93125000D01*
G75*
G02*
X122000000Y-93187500I0J-62500D01*
G01*
G37*
G04 #@! TD.AperFunction*
G04 #@! TA.AperFunction,SMDPad,CuDef*
G36*
G01*
X122000000Y-92687500D02*
X122000000Y-92812500D01*
G75*
G02*
X121937500Y-92875000I-62500J0D01*
G01*
X121187500Y-92875000D01*
G75*
G02*
X121125000Y-92812500I0J62500D01*
G01*
X121125000Y-92687500D01*
G75*
G02*
X121187500Y-92625000I62500J0D01*
G01*
X121937500Y-92625000D01*
G75*
G02*
X122000000Y-92687500I0J-62500D01*
G01*
G37*
G04 #@! TD.AperFunction*
G04 #@! TA.AperFunction,SMDPad,CuDef*
G36*
G01*
X122000000Y-92187500D02*
X122000000Y-92312500D01*
G75*
G02*
X121937500Y-92375000I-62500J0D01*
G01*
X121187500Y-92375000D01*
G75*
G02*
X121125000Y-92312500I0J62500D01*
G01*
X121125000Y-92187500D01*
G75*
G02*
X121187500Y-92125000I62500J0D01*
G01*
X121937500Y-92125000D01*
G75*
G02*
X122000000Y-92187500I0J-62500D01*
G01*
G37*
G04 #@! TD.AperFunction*
G04 #@! TA.AperFunction,SMDPad,CuDef*
G36*
G01*
X122000000Y-91687500D02*
X122000000Y-91812500D01*
G75*
G02*
X121937500Y-91875000I-62500J0D01*
G01*
X121187500Y-91875000D01*
G75*
G02*
X121125000Y-91812500I0J62500D01*
G01*
X121125000Y-91687500D01*
G75*
G02*
X121187500Y-91625000I62500J0D01*
G01*
X121937500Y-91625000D01*
G75*
G02*
X122000000Y-91687500I0J-62500D01*
G01*
G37*
G04 #@! TD.AperFunction*
G04 #@! TA.AperFunction,SMDPad,CuDef*
G36*
G01*
X122000000Y-91187500D02*
X122000000Y-91312500D01*
G75*
G02*
X121937500Y-91375000I-62500J0D01*
G01*
X121187500Y-91375000D01*
G75*
G02*
X121125000Y-91312500I0J62500D01*
G01*
X121125000Y-91187500D01*
G75*
G02*
X121187500Y-91125000I62500J0D01*
G01*
X121937500Y-91125000D01*
G75*
G02*
X122000000Y-91187500I0J-62500D01*
G01*
G37*
G04 #@! TD.AperFunction*
G04 #@! TA.AperFunction,SMDPad,CuDef*
G36*
G01*
X122375000Y-90187500D02*
X122375000Y-90937500D01*
G75*
G02*
X122312500Y-91000000I-62500J0D01*
G01*
X122187500Y-91000000D01*
G75*
G02*
X122125000Y-90937500I0J62500D01*
G01*
X122125000Y-90187500D01*
G75*
G02*
X122187500Y-90125000I62500J0D01*
G01*
X122312500Y-90125000D01*
G75*
G02*
X122375000Y-90187500I0J-62500D01*
G01*
G37*
G04 #@! TD.AperFunction*
G04 #@! TA.AperFunction,SMDPad,CuDef*
G36*
G01*
X122875000Y-90187500D02*
X122875000Y-90937500D01*
G75*
G02*
X122812500Y-91000000I-62500J0D01*
G01*
X122687500Y-91000000D01*
G75*
G02*
X122625000Y-90937500I0J62500D01*
G01*
X122625000Y-90187500D01*
G75*
G02*
X122687500Y-90125000I62500J0D01*
G01*
X122812500Y-90125000D01*
G75*
G02*
X122875000Y-90187500I0J-62500D01*
G01*
G37*
G04 #@! TD.AperFunction*
G04 #@! TA.AperFunction,SMDPad,CuDef*
G36*
G01*
X123375000Y-90187500D02*
X123375000Y-90937500D01*
G75*
G02*
X123312500Y-91000000I-62500J0D01*
G01*
X123187500Y-91000000D01*
G75*
G02*
X123125000Y-90937500I0J62500D01*
G01*
X123125000Y-90187500D01*
G75*
G02*
X123187500Y-90125000I62500J0D01*
G01*
X123312500Y-90125000D01*
G75*
G02*
X123375000Y-90187500I0J-62500D01*
G01*
G37*
G04 #@! TD.AperFunction*
G04 #@! TA.AperFunction,SMDPad,CuDef*
G36*
G01*
X123875000Y-90187500D02*
X123875000Y-90937500D01*
G75*
G02*
X123812500Y-91000000I-62500J0D01*
G01*
X123687500Y-91000000D01*
G75*
G02*
X123625000Y-90937500I0J62500D01*
G01*
X123625000Y-90187500D01*
G75*
G02*
X123687500Y-90125000I62500J0D01*
G01*
X123812500Y-90125000D01*
G75*
G02*
X123875000Y-90187500I0J-62500D01*
G01*
G37*
G04 #@! TD.AperFunction*
G04 #@! TA.AperFunction,SMDPad,CuDef*
G36*
G01*
X124375000Y-90187500D02*
X124375000Y-90937500D01*
G75*
G02*
X124312500Y-91000000I-62500J0D01*
G01*
X124187500Y-91000000D01*
G75*
G02*
X124125000Y-90937500I0J62500D01*
G01*
X124125000Y-90187500D01*
G75*
G02*
X124187500Y-90125000I62500J0D01*
G01*
X124312500Y-90125000D01*
G75*
G02*
X124375000Y-90187500I0J-62500D01*
G01*
G37*
G04 #@! TD.AperFunction*
G04 #@! TA.AperFunction,SMDPad,CuDef*
G36*
G01*
X124875000Y-90187500D02*
X124875000Y-90937500D01*
G75*
G02*
X124812500Y-91000000I-62500J0D01*
G01*
X124687500Y-91000000D01*
G75*
G02*
X124625000Y-90937500I0J62500D01*
G01*
X124625000Y-90187500D01*
G75*
G02*
X124687500Y-90125000I62500J0D01*
G01*
X124812500Y-90125000D01*
G75*
G02*
X124875000Y-90187500I0J-62500D01*
G01*
G37*
G04 #@! TD.AperFunction*
G04 #@! TA.AperFunction,SMDPad,CuDef*
G36*
G01*
X125375000Y-90187500D02*
X125375000Y-90937500D01*
G75*
G02*
X125312500Y-91000000I-62500J0D01*
G01*
X125187500Y-91000000D01*
G75*
G02*
X125125000Y-90937500I0J62500D01*
G01*
X125125000Y-90187500D01*
G75*
G02*
X125187500Y-90125000I62500J0D01*
G01*
X125312500Y-90125000D01*
G75*
G02*
X125375000Y-90187500I0J-62500D01*
G01*
G37*
G04 #@! TD.AperFunction*
G04 #@! TA.AperFunction,SMDPad,CuDef*
G36*
G01*
X125875000Y-90187500D02*
X125875000Y-90937500D01*
G75*
G02*
X125812500Y-91000000I-62500J0D01*
G01*
X125687500Y-91000000D01*
G75*
G02*
X125625000Y-90937500I0J62500D01*
G01*
X125625000Y-90187500D01*
G75*
G02*
X125687500Y-90125000I62500J0D01*
G01*
X125812500Y-90125000D01*
G75*
G02*
X125875000Y-90187500I0J-62500D01*
G01*
G37*
G04 #@! TD.AperFunction*
G04 #@! TA.AperFunction,SMDPad,CuDef*
G36*
G01*
X126375000Y-90187500D02*
X126375000Y-90937500D01*
G75*
G02*
X126312500Y-91000000I-62500J0D01*
G01*
X126187500Y-91000000D01*
G75*
G02*
X126125000Y-90937500I0J62500D01*
G01*
X126125000Y-90187500D01*
G75*
G02*
X126187500Y-90125000I62500J0D01*
G01*
X126312500Y-90125000D01*
G75*
G02*
X126375000Y-90187500I0J-62500D01*
G01*
G37*
G04 #@! TD.AperFunction*
G04 #@! TA.AperFunction,SMDPad,CuDef*
G36*
G01*
X126875000Y-90187500D02*
X126875000Y-90937500D01*
G75*
G02*
X126812500Y-91000000I-62500J0D01*
G01*
X126687500Y-91000000D01*
G75*
G02*
X126625000Y-90937500I0J62500D01*
G01*
X126625000Y-90187500D01*
G75*
G02*
X126687500Y-90125000I62500J0D01*
G01*
X126812500Y-90125000D01*
G75*
G02*
X126875000Y-90187500I0J-62500D01*
G01*
G37*
G04 #@! TD.AperFunction*
G04 #@! TA.AperFunction,SMDPad,CuDef*
G36*
G01*
X127375000Y-90187500D02*
X127375000Y-90937500D01*
G75*
G02*
X127312500Y-91000000I-62500J0D01*
G01*
X127187500Y-91000000D01*
G75*
G02*
X127125000Y-90937500I0J62500D01*
G01*
X127125000Y-90187500D01*
G75*
G02*
X127187500Y-90125000I62500J0D01*
G01*
X127312500Y-90125000D01*
G75*
G02*
X127375000Y-90187500I0J-62500D01*
G01*
G37*
G04 #@! TD.AperFunction*
G04 #@! TA.AperFunction,SMDPad,CuDef*
G36*
G01*
X127875000Y-90187500D02*
X127875000Y-90937500D01*
G75*
G02*
X127812500Y-91000000I-62500J0D01*
G01*
X127687500Y-91000000D01*
G75*
G02*
X127625000Y-90937500I0J62500D01*
G01*
X127625000Y-90187500D01*
G75*
G02*
X127687500Y-90125000I62500J0D01*
G01*
X127812500Y-90125000D01*
G75*
G02*
X127875000Y-90187500I0J-62500D01*
G01*
G37*
G04 #@! TD.AperFunction*
G04 #@! TA.AperFunction,SMDPad,CuDef*
G36*
G01*
X128875000Y-91187500D02*
X128875000Y-91312500D01*
G75*
G02*
X128812500Y-91375000I-62500J0D01*
G01*
X128062500Y-91375000D01*
G75*
G02*
X128000000Y-91312500I0J62500D01*
G01*
X128000000Y-91187500D01*
G75*
G02*
X128062500Y-91125000I62500J0D01*
G01*
X128812500Y-91125000D01*
G75*
G02*
X128875000Y-91187500I0J-62500D01*
G01*
G37*
G04 #@! TD.AperFunction*
G04 #@! TA.AperFunction,SMDPad,CuDef*
G36*
G01*
X128875000Y-91687500D02*
X128875000Y-91812500D01*
G75*
G02*
X128812500Y-91875000I-62500J0D01*
G01*
X128062500Y-91875000D01*
G75*
G02*
X128000000Y-91812500I0J62500D01*
G01*
X128000000Y-91687500D01*
G75*
G02*
X128062500Y-91625000I62500J0D01*
G01*
X128812500Y-91625000D01*
G75*
G02*
X128875000Y-91687500I0J-62500D01*
G01*
G37*
G04 #@! TD.AperFunction*
G04 #@! TA.AperFunction,SMDPad,CuDef*
G36*
G01*
X128875000Y-92187500D02*
X128875000Y-92312500D01*
G75*
G02*
X128812500Y-92375000I-62500J0D01*
G01*
X128062500Y-92375000D01*
G75*
G02*
X128000000Y-92312500I0J62500D01*
G01*
X128000000Y-92187500D01*
G75*
G02*
X128062500Y-92125000I62500J0D01*
G01*
X128812500Y-92125000D01*
G75*
G02*
X128875000Y-92187500I0J-62500D01*
G01*
G37*
G04 #@! TD.AperFunction*
G04 #@! TA.AperFunction,SMDPad,CuDef*
G36*
G01*
X128875000Y-92687500D02*
X128875000Y-92812500D01*
G75*
G02*
X128812500Y-92875000I-62500J0D01*
G01*
X128062500Y-92875000D01*
G75*
G02*
X128000000Y-92812500I0J62500D01*
G01*
X128000000Y-92687500D01*
G75*
G02*
X128062500Y-92625000I62500J0D01*
G01*
X128812500Y-92625000D01*
G75*
G02*
X128875000Y-92687500I0J-62500D01*
G01*
G37*
G04 #@! TD.AperFunction*
G04 #@! TA.AperFunction,SMDPad,CuDef*
G36*
G01*
X128875000Y-93187500D02*
X128875000Y-93312500D01*
G75*
G02*
X128812500Y-93375000I-62500J0D01*
G01*
X128062500Y-93375000D01*
G75*
G02*
X128000000Y-93312500I0J62500D01*
G01*
X128000000Y-93187500D01*
G75*
G02*
X128062500Y-93125000I62500J0D01*
G01*
X128812500Y-93125000D01*
G75*
G02*
X128875000Y-93187500I0J-62500D01*
G01*
G37*
G04 #@! TD.AperFunction*
G04 #@! TA.AperFunction,SMDPad,CuDef*
G36*
G01*
X128875000Y-93687500D02*
X128875000Y-93812500D01*
G75*
G02*
X128812500Y-93875000I-62500J0D01*
G01*
X128062500Y-93875000D01*
G75*
G02*
X128000000Y-93812500I0J62500D01*
G01*
X128000000Y-93687500D01*
G75*
G02*
X128062500Y-93625000I62500J0D01*
G01*
X128812500Y-93625000D01*
G75*
G02*
X128875000Y-93687500I0J-62500D01*
G01*
G37*
G04 #@! TD.AperFunction*
G04 #@! TA.AperFunction,SMDPad,CuDef*
G36*
G01*
X128875000Y-94187500D02*
X128875000Y-94312500D01*
G75*
G02*
X128812500Y-94375000I-62500J0D01*
G01*
X128062500Y-94375000D01*
G75*
G02*
X128000000Y-94312500I0J62500D01*
G01*
X128000000Y-94187500D01*
G75*
G02*
X128062500Y-94125000I62500J0D01*
G01*
X128812500Y-94125000D01*
G75*
G02*
X128875000Y-94187500I0J-62500D01*
G01*
G37*
G04 #@! TD.AperFunction*
G04 #@! TA.AperFunction,SMDPad,CuDef*
G36*
G01*
X128875000Y-94687500D02*
X128875000Y-94812500D01*
G75*
G02*
X128812500Y-94875000I-62500J0D01*
G01*
X128062500Y-94875000D01*
G75*
G02*
X128000000Y-94812500I0J62500D01*
G01*
X128000000Y-94687500D01*
G75*
G02*
X128062500Y-94625000I62500J0D01*
G01*
X128812500Y-94625000D01*
G75*
G02*
X128875000Y-94687500I0J-62500D01*
G01*
G37*
G04 #@! TD.AperFunction*
G04 #@! TA.AperFunction,SMDPad,CuDef*
G36*
G01*
X128875000Y-95187500D02*
X128875000Y-95312500D01*
G75*
G02*
X128812500Y-95375000I-62500J0D01*
G01*
X128062500Y-95375000D01*
G75*
G02*
X128000000Y-95312500I0J62500D01*
G01*
X128000000Y-95187500D01*
G75*
G02*
X128062500Y-95125000I62500J0D01*
G01*
X128812500Y-95125000D01*
G75*
G02*
X128875000Y-95187500I0J-62500D01*
G01*
G37*
G04 #@! TD.AperFunction*
G04 #@! TA.AperFunction,SMDPad,CuDef*
G36*
G01*
X128875000Y-95687500D02*
X128875000Y-95812500D01*
G75*
G02*
X128812500Y-95875000I-62500J0D01*
G01*
X128062500Y-95875000D01*
G75*
G02*
X128000000Y-95812500I0J62500D01*
G01*
X128000000Y-95687500D01*
G75*
G02*
X128062500Y-95625000I62500J0D01*
G01*
X128812500Y-95625000D01*
G75*
G02*
X128875000Y-95687500I0J-62500D01*
G01*
G37*
G04 #@! TD.AperFunction*
G04 #@! TA.AperFunction,SMDPad,CuDef*
G36*
G01*
X128875000Y-96187500D02*
X128875000Y-96312500D01*
G75*
G02*
X128812500Y-96375000I-62500J0D01*
G01*
X128062500Y-96375000D01*
G75*
G02*
X128000000Y-96312500I0J62500D01*
G01*
X128000000Y-96187500D01*
G75*
G02*
X128062500Y-96125000I62500J0D01*
G01*
X128812500Y-96125000D01*
G75*
G02*
X128875000Y-96187500I0J-62500D01*
G01*
G37*
G04 #@! TD.AperFunction*
G04 #@! TA.AperFunction,SMDPad,CuDef*
G36*
G01*
X128875000Y-96687500D02*
X128875000Y-96812500D01*
G75*
G02*
X128812500Y-96875000I-62500J0D01*
G01*
X128062500Y-96875000D01*
G75*
G02*
X128000000Y-96812500I0J62500D01*
G01*
X128000000Y-96687500D01*
G75*
G02*
X128062500Y-96625000I62500J0D01*
G01*
X128812500Y-96625000D01*
G75*
G02*
X128875000Y-96687500I0J-62500D01*
G01*
G37*
G04 #@! TD.AperFunction*
G04 #@! TA.AperFunction,SMDPad,CuDef*
G36*
G01*
X122856396Y-87010001D02*
X122219999Y-86373604D01*
G75*
G02*
X122219999Y-86020052I176776J176776D01*
G01*
X122679620Y-85560431D01*
G75*
G02*
X123033172Y-85560431I176776J-176776D01*
G01*
X123669569Y-86196828D01*
G75*
G02*
X123669569Y-86550380I-176776J-176776D01*
G01*
X123209948Y-87010001D01*
G75*
G02*
X122856396Y-87010001I-176776J176776D01*
G01*
G37*
G04 #@! TD.AperFunction*
G04 #@! TA.AperFunction,SMDPad,CuDef*
G36*
G01*
X121406828Y-88459569D02*
X120770431Y-87823172D01*
G75*
G02*
X120770431Y-87469620I176776J176776D01*
G01*
X121230052Y-87009999D01*
G75*
G02*
X121583604Y-87009999I176776J-176776D01*
G01*
X122220001Y-87646396D01*
G75*
G02*
X122220001Y-87999948I-176776J-176776D01*
G01*
X121760380Y-88459569D01*
G75*
G02*
X121406828Y-88459569I-176776J176776D01*
G01*
G37*
G04 #@! TD.AperFunction*
D26*
X123480000Y-105040000D03*
X125000000Y-94000000D03*
X126500000Y-94000000D03*
X123500000Y-94000000D03*
X123500000Y-92500000D03*
X125000000Y-92500000D03*
X126500000Y-92500000D03*
X125000000Y-95500000D03*
X123500000Y-95500000D03*
X126500000Y-95500000D03*
X109440000Y-89690000D03*
X110297823Y-100997823D03*
X136180000Y-92260000D03*
X146840000Y-108680000D03*
X142100000Y-102360000D03*
X130890000Y-104780000D03*
X105530000Y-81390000D03*
X143770000Y-81130000D03*
X146820000Y-87800000D03*
X116950000Y-91350000D03*
X115080000Y-96580000D03*
X125478000Y-78470000D03*
X116010000Y-95910000D03*
X118460000Y-71240000D03*
X128740000Y-98150000D03*
X119540000Y-96830000D03*
X121160000Y-89610000D03*
X132480000Y-85890000D03*
X139620000Y-104500000D03*
X123198000Y-100695229D03*
X136740000Y-119400000D03*
X130590000Y-92910000D03*
X125198000Y-103240000D03*
X124698000Y-102609877D03*
X124198000Y-101940322D03*
X123698000Y-101296678D03*
X114427755Y-96901105D03*
X110700000Y-96000000D03*
X111960000Y-94198000D03*
X118060000Y-91720000D03*
X118770000Y-91240000D03*
X119592386Y-91056046D03*
X120280000Y-90820000D03*
X123698000Y-88195231D03*
X124198000Y-87615547D03*
X124698000Y-86983596D03*
X125198000Y-86400000D03*
D27*
X132228399Y-96252001D02*
X133777999Y-96252001D01*
X133777999Y-96252001D02*
X134730000Y-95300000D01*
X130726398Y-94750000D02*
X132228399Y-96252001D01*
X128437500Y-94750000D02*
X130726398Y-94750000D01*
X134760000Y-95270000D02*
X134730000Y-95300000D01*
X136370000Y-95270000D02*
X134760000Y-95270000D01*
X122750000Y-91750000D02*
X125000000Y-94000000D01*
X122750000Y-90562500D02*
X122750000Y-91750000D01*
X121562500Y-96250000D02*
X122750000Y-96250000D01*
X127250000Y-97437500D02*
X127250000Y-96250000D01*
X125750000Y-93250000D02*
X125000000Y-94000000D01*
X128437500Y-93250000D02*
X125750000Y-93250000D01*
X123490000Y-105050000D02*
X123480000Y-105040000D01*
X124100000Y-105050000D02*
X123490000Y-105050000D01*
X126480000Y-94000000D02*
X126500000Y-93980000D01*
X125000000Y-94000000D02*
X126480000Y-94000000D01*
X123630000Y-94000000D02*
X123620000Y-94010000D01*
X125000000Y-94000000D02*
X123630000Y-94000000D01*
X124760000Y-94000000D02*
X123580000Y-92820000D01*
X125000000Y-94000000D02*
X124760000Y-94000000D01*
X125000000Y-92850000D02*
X124970000Y-92820000D01*
X125000000Y-94000000D02*
X125000000Y-92850000D01*
X125250000Y-94000000D02*
X126380000Y-92870000D01*
X125000000Y-94000000D02*
X125250000Y-94000000D01*
X125000000Y-94000000D02*
X125000000Y-95310000D01*
X125000000Y-95410000D02*
X124960000Y-95450000D01*
X125000000Y-94000000D02*
X125000000Y-95410000D01*
X125000000Y-94000000D02*
X123645000Y-95355000D01*
X122750000Y-96250000D02*
X123645000Y-95355000D01*
X125000000Y-94000000D02*
X126365000Y-95365000D01*
X127250000Y-96250000D02*
X126365000Y-95365000D01*
X122750000Y-90562500D02*
X122750000Y-89680000D01*
X121495216Y-88425216D02*
X121495216Y-87734784D01*
X122750000Y-89680000D02*
X121495216Y-88425216D01*
X120741283Y-88488717D02*
X121495216Y-87734784D01*
X120091283Y-88488717D02*
X120741283Y-88488717D01*
X127250000Y-99782500D02*
X127730000Y-100262500D01*
X127250000Y-97437500D02*
X127250000Y-99782500D01*
X118142500Y-96250000D02*
X117532500Y-96860000D01*
X121562500Y-96250000D02*
X118142500Y-96250000D01*
X107740000Y-102400000D02*
X107770000Y-102370000D01*
X106760000Y-102400000D02*
X107740000Y-102400000D01*
D28*
X110640000Y-100655646D02*
X110297823Y-100997823D01*
D27*
X108925646Y-102370000D02*
X110297823Y-100997823D01*
X107770000Y-102370000D02*
X108925646Y-102370000D01*
D28*
X109990000Y-91604600D02*
X109344600Y-92250000D01*
X109344600Y-92250000D02*
X108205000Y-92250000D01*
X109990000Y-90240000D02*
X109990000Y-91604600D01*
X109440000Y-89690000D02*
X109990000Y-90240000D01*
X108205000Y-98750000D02*
X109700000Y-98750000D01*
X110640000Y-99690000D02*
X110640000Y-100655646D01*
X109700000Y-98750000D02*
X110640000Y-99690000D01*
D27*
X133030000Y-94800000D02*
X134730000Y-93100000D01*
X133030000Y-95300000D02*
X133030000Y-94800000D01*
X134730000Y-91460000D02*
X134520000Y-91250000D01*
X134730000Y-93100000D02*
X134730000Y-91460000D01*
X135160000Y-93100000D02*
X136370000Y-94310000D01*
X134730000Y-93100000D02*
X135160000Y-93100000D01*
X135640000Y-97500000D02*
X135750000Y-97390000D01*
X135640000Y-99990000D02*
X135640000Y-97500000D01*
X136932010Y-94872010D02*
X136370000Y-94310000D01*
X136932010Y-96207990D02*
X136932010Y-94872010D01*
X135750000Y-97390000D02*
X136932010Y-96207990D01*
X135340000Y-93100000D02*
X136180000Y-92260000D01*
X134730000Y-93100000D02*
X135340000Y-93100000D01*
D28*
X102500000Y-83160000D02*
X102080000Y-83160000D01*
D27*
X144832500Y-100970000D02*
X146415000Y-100970000D01*
X142522500Y-103280000D02*
X144832500Y-100970000D01*
X148750000Y-110590000D02*
X146840000Y-108680000D01*
X148909970Y-110590000D02*
X148750000Y-110590000D01*
X142522500Y-102782500D02*
X142100000Y-102360000D01*
X142522500Y-103280000D02*
X142522500Y-102782500D01*
X131390000Y-105280000D02*
X130890000Y-104780000D01*
X132350000Y-105280000D02*
X131390000Y-105280000D01*
D28*
X103760000Y-83160000D02*
X105530000Y-81390000D01*
X102500000Y-83160000D02*
X103760000Y-83160000D01*
D27*
X144350000Y-80550000D02*
X143770000Y-81130000D01*
X144350000Y-80180000D02*
X144350000Y-80550000D01*
X148669970Y-89649970D02*
X146820000Y-87800000D01*
X148669970Y-89820000D02*
X148669970Y-89649970D01*
X131880000Y-94250000D02*
X133030000Y-93100000D01*
X128437500Y-94250000D02*
X131880000Y-94250000D01*
X133030000Y-91780000D02*
X133560000Y-91250000D01*
X133030000Y-93100000D02*
X133030000Y-91780000D01*
X123250000Y-90562500D02*
X123250000Y-89040000D01*
X122944784Y-88734784D02*
X122944784Y-86285216D01*
X123250000Y-89040000D02*
X122944784Y-88734784D01*
X121562500Y-93750000D02*
X120280000Y-93750000D01*
X116950000Y-91960134D02*
X116950000Y-91350000D01*
X118739866Y-93750000D02*
X116950000Y-91960134D01*
X120280000Y-93750000D02*
X118739866Y-93750000D01*
X122250000Y-97437500D02*
X122250000Y-98202990D01*
X122250000Y-98202990D02*
X122080000Y-98372990D01*
X122080000Y-98372990D02*
X116432990Y-98372990D01*
X115080000Y-97020000D02*
X115080000Y-96580000D01*
X116432990Y-98372990D02*
X115080000Y-97020000D01*
X121562500Y-94250000D02*
X120550000Y-94250000D01*
X120550000Y-94250000D02*
X120270000Y-94250000D01*
X116397999Y-88252001D02*
X123500000Y-81150000D01*
X116397999Y-91941305D02*
X116397999Y-88252001D01*
X123500000Y-73420000D02*
X122220000Y-72140000D01*
X118706694Y-94250000D02*
X116397999Y-91941305D01*
X120550000Y-94250000D02*
X118706694Y-94250000D01*
X124790000Y-78470000D02*
X123500000Y-77180000D01*
X125478000Y-78470000D02*
X124790000Y-78470000D01*
X123500000Y-77180000D02*
X123500000Y-73420000D01*
X123500000Y-81150000D02*
X123500000Y-77180000D01*
X120270000Y-95750000D02*
X116170000Y-95750000D01*
X116170000Y-95750000D02*
X116010000Y-95910000D01*
X121562500Y-95750000D02*
X120270000Y-95750000D01*
X120270000Y-95750000D02*
X119880000Y-95750000D01*
X120782001Y-73577999D02*
X119680000Y-74680000D01*
X120208961Y-71037999D02*
X120782001Y-71611039D01*
X120782001Y-71611039D02*
X120782001Y-73577999D01*
X118662001Y-71037999D02*
X120208961Y-71037999D01*
X118460000Y-71240000D02*
X118662001Y-71037999D01*
X128027500Y-97437500D02*
X128740000Y-98150000D01*
X127750000Y-97437500D02*
X128027500Y-97437500D01*
X119620000Y-96750000D02*
X119540000Y-96830000D01*
X121562500Y-96750000D02*
X119620000Y-96750000D01*
X122112500Y-90562500D02*
X121160000Y-89610000D01*
X122250000Y-90562500D02*
X122112500Y-90562500D01*
X119607434Y-89610000D02*
X119288717Y-89291283D01*
X121160000Y-89610000D02*
X119607434Y-89610000D01*
X118697500Y-96830000D02*
X118667500Y-96860000D01*
X119540000Y-96830000D02*
X118697500Y-96830000D01*
D29*
X102500000Y-85460000D02*
X108800000Y-85460000D01*
D30*
X108800000Y-83260000D02*
X112060000Y-80000000D01*
X108800000Y-85460000D02*
X108800000Y-83260000D01*
X112060000Y-80000000D02*
X112060000Y-77460000D01*
D27*
X131510000Y-86860000D02*
X132480000Y-85890000D01*
X131510000Y-86895000D02*
X131510000Y-86860000D01*
X128740000Y-100905000D02*
X129035000Y-101200000D01*
X128740000Y-98150000D02*
X128740000Y-100905000D01*
X128837500Y-101397500D02*
X129035000Y-101200000D01*
X127730000Y-101397500D02*
X128837500Y-101397500D01*
X129140000Y-96750000D02*
X129922009Y-97532009D01*
X128437500Y-96750000D02*
X129140000Y-96750000D01*
D30*
X112060000Y-77460000D02*
X112060000Y-74680000D01*
D27*
X129922009Y-97532009D02*
X129922009Y-97947991D01*
X129720000Y-98150000D02*
X128740000Y-98150000D01*
X129922009Y-97947991D02*
X129720000Y-98150000D01*
X138897999Y-73242001D02*
X140000000Y-72140000D01*
X138897999Y-75208961D02*
X138897999Y-73242001D01*
X142229038Y-78540000D02*
X138897999Y-75208961D01*
X143715000Y-78540000D02*
X142229038Y-78540000D01*
X140690000Y-105570000D02*
X139620000Y-104500000D01*
X140985000Y-105570000D02*
X140690000Y-105570000D01*
X110710030Y-115320000D02*
X106910000Y-111519970D01*
X112060000Y-115320000D02*
X110710030Y-115320000D01*
X123250000Y-97437500D02*
X123250000Y-99710000D01*
X123250000Y-100643229D02*
X123198000Y-100695229D01*
X123250000Y-99710000D02*
X123250000Y-100643229D01*
X123198000Y-100695229D02*
X123198000Y-100979716D01*
X133920000Y-119400000D02*
X132380000Y-117860000D01*
X136740000Y-119400000D02*
X133920000Y-119400000D01*
X128437500Y-93750000D02*
X128875000Y-93750000D01*
X129750000Y-93750000D02*
X130590000Y-92910000D01*
X128875000Y-93750000D02*
X129750000Y-93750000D01*
X143887500Y-103510000D02*
X143657500Y-103280000D01*
X146415000Y-103510000D02*
X143887500Y-103510000D01*
X140559038Y-110590000D02*
X136150000Y-114999038D01*
X144310030Y-110590000D02*
X140559038Y-110590000D01*
X136150000Y-114999038D02*
X136150000Y-116200000D01*
X136150000Y-116200000D02*
X135750000Y-116600000D01*
X135750000Y-116600000D02*
X131560000Y-116600000D01*
X131560000Y-116600000D02*
X131540000Y-116620000D01*
X131080000Y-116620000D02*
X129840000Y-117860000D01*
X131540000Y-116620000D02*
X131080000Y-116620000D01*
X144310030Y-103932530D02*
X143657500Y-103280000D01*
X144310030Y-110590000D02*
X144310030Y-103932530D01*
X123322001Y-116757999D02*
X122220000Y-117860000D01*
X125288961Y-116757999D02*
X123322001Y-116757999D01*
X126040000Y-116006960D02*
X125288961Y-116757999D01*
X126750000Y-108960000D02*
X126040000Y-109670000D01*
X126040000Y-109670000D02*
X126040000Y-116006960D01*
X126750000Y-97437500D02*
X126750000Y-108960000D01*
X126250000Y-108510000D02*
X124760000Y-110000000D01*
X126250000Y-97437500D02*
X126250000Y-108510000D01*
X124760000Y-110000000D02*
X124760000Y-115320000D01*
X125750000Y-97437500D02*
X125750000Y-98890000D01*
X125750000Y-98890000D02*
X125750000Y-99050000D01*
X125750000Y-104420000D02*
X125120000Y-105050000D01*
X125750000Y-98890000D02*
X125750000Y-104420000D01*
X123249970Y-106920030D02*
X106910000Y-106920030D01*
X125120000Y-105050000D02*
X123249970Y-106920030D01*
X125250000Y-97437500D02*
X125250000Y-99610000D01*
X125250000Y-103188000D02*
X125198000Y-103240000D01*
X125250000Y-99610000D02*
X125250000Y-103188000D01*
X124750000Y-97437500D02*
X124750000Y-99690000D01*
X124750000Y-102557877D02*
X124698000Y-102609877D01*
X124750000Y-99690000D02*
X124750000Y-102557877D01*
X124250000Y-97437500D02*
X124250000Y-99670000D01*
X124250000Y-101888322D02*
X124198000Y-101940322D01*
X124250000Y-99670000D02*
X124250000Y-101888322D01*
X123750000Y-97437500D02*
X123750000Y-99670000D01*
X123750000Y-101244678D02*
X123698000Y-101296678D01*
X123750000Y-99670000D02*
X123750000Y-101244678D01*
X122750000Y-97437500D02*
X122750000Y-98430000D01*
X122750000Y-98430000D02*
X122430000Y-98750000D01*
X116276650Y-98750000D02*
X114427755Y-96901105D01*
X122430000Y-98750000D02*
X116276650Y-98750000D01*
X110450000Y-96250000D02*
X110700000Y-96000000D01*
X108205000Y-96250000D02*
X110450000Y-96250000D01*
X110700000Y-95420000D02*
X110870000Y-95250000D01*
X110700000Y-96000000D02*
X110700000Y-95420000D01*
X110870000Y-95250000D02*
X108205000Y-95250000D01*
X121562500Y-95250000D02*
X110870000Y-95250000D01*
X118420000Y-73400000D02*
X119680000Y-72140000D01*
X118420000Y-82040000D02*
X118420000Y-73400000D01*
X115320000Y-90900000D02*
X115320000Y-85140000D01*
X111960000Y-94198000D02*
X111970000Y-94208000D01*
X111970000Y-94250000D02*
X115320000Y-90900000D01*
X111970000Y-94208000D02*
X111970000Y-94250000D01*
X115320000Y-85140000D02*
X118420000Y-82040000D01*
X116020989Y-94589011D02*
X115860000Y-94750000D01*
X116020989Y-86199011D02*
X116020989Y-94589011D01*
X122220000Y-80000000D02*
X116020989Y-86199011D01*
X121562500Y-94750000D02*
X115860000Y-94750000D01*
X113280000Y-94750000D02*
X113180000Y-94750000D01*
X113350000Y-94750000D02*
X108205000Y-94750000D01*
X115860000Y-94750000D02*
X113350000Y-94750000D01*
X113350000Y-94750000D02*
X113180000Y-94750000D01*
X108205000Y-94750000D02*
X106670000Y-94750000D01*
X106670000Y-94750000D02*
X106670000Y-95750000D01*
X106670000Y-95750000D02*
X108205000Y-95750000D01*
X122220000Y-80000000D02*
X122220000Y-74680000D01*
X121562500Y-93250000D02*
X120540000Y-93250000D01*
X120540000Y-93250000D02*
X120210000Y-93250000D01*
X119618961Y-86772001D02*
X126030000Y-80360962D01*
X117502001Y-91978963D02*
X117502001Y-88827999D01*
X118773038Y-93250000D02*
X117502001Y-91978963D01*
X126030000Y-73410000D02*
X124760000Y-72140000D01*
X119557999Y-86772001D02*
X119618961Y-86772001D01*
X126030000Y-80360962D02*
X126030000Y-73410000D01*
X117502001Y-88827999D02*
X119557999Y-86772001D01*
X120540000Y-93250000D02*
X118773038Y-93250000D01*
X120510000Y-92750000D02*
X119090000Y-92750000D01*
X121562500Y-92750000D02*
X120510000Y-92750000D01*
X119090000Y-92750000D02*
X118060000Y-91720000D01*
X120510000Y-92750000D02*
X120140000Y-92750000D01*
X121562500Y-92250000D02*
X120120000Y-92250000D01*
X119780000Y-92250000D02*
X118770000Y-91240000D01*
X120120000Y-92250000D02*
X119780000Y-92250000D01*
X120286340Y-91750000D02*
X119592386Y-91056046D01*
X121562500Y-91750000D02*
X120286340Y-91750000D01*
X120710000Y-91250000D02*
X120280000Y-90820000D01*
X121562500Y-91250000D02*
X120710000Y-91250000D01*
X123750000Y-90562500D02*
X123750000Y-89050000D01*
X123750000Y-88247231D02*
X123698000Y-88195231D01*
X123750000Y-89050000D02*
X123750000Y-88247231D01*
X124250000Y-90562500D02*
X124250000Y-88650000D01*
X124250000Y-87667547D02*
X124198000Y-87615547D01*
X124250000Y-88650000D02*
X124250000Y-87667547D01*
X132380000Y-106330000D02*
X132350000Y-106300000D01*
X132380000Y-110000000D02*
X132380000Y-106330000D01*
X132380000Y-110000000D02*
X132380000Y-115320000D01*
X124750000Y-90562500D02*
X124750000Y-88810000D01*
X124750000Y-88810000D02*
X124750000Y-88081522D01*
X124750000Y-87035596D02*
X124698000Y-86983596D01*
X124750000Y-88081522D02*
X124750000Y-87035596D01*
X125250000Y-90562500D02*
X125250000Y-88620000D01*
X125250000Y-88620000D02*
X125250000Y-86910000D01*
X125250000Y-86452000D02*
X125198000Y-86400000D01*
X125250000Y-86910000D02*
X125250000Y-86452000D01*
X125750000Y-90562500D02*
X125750000Y-90490000D01*
X125750000Y-88860000D02*
X125750000Y-81550000D01*
X125750000Y-81550000D02*
X127300000Y-80000000D01*
X125750000Y-90562500D02*
X125750000Y-88860000D01*
X125750000Y-88860000D02*
X125750000Y-88640000D01*
X127300000Y-80000000D02*
X127300000Y-74680000D01*
X128560000Y-73400000D02*
X127300000Y-72140000D01*
X128560000Y-80360000D02*
X128560000Y-73400000D01*
X128402001Y-80517999D02*
X128560000Y-80360000D01*
X128402001Y-80528961D02*
X128402001Y-80517999D01*
X126250000Y-82680962D02*
X128402001Y-80528961D01*
X126250000Y-90562500D02*
X126250000Y-82680962D01*
X126750000Y-83090000D02*
X129840000Y-80000000D01*
X126750000Y-90562500D02*
X126750000Y-83090000D01*
X129840000Y-80000000D02*
X129840000Y-74680000D01*
X129970000Y-72140000D02*
X129840000Y-72140000D01*
X131120000Y-73290000D02*
X129970000Y-72140000D01*
X130942001Y-80528961D02*
X130942001Y-80527999D01*
X127250000Y-84220962D02*
X130942001Y-80528961D01*
X130942001Y-80527999D02*
X131120000Y-80350000D01*
X131120000Y-80350000D02*
X131120000Y-73290000D01*
X127250000Y-90562500D02*
X127250000Y-84220962D01*
X127750000Y-84630000D02*
X132380000Y-80000000D01*
X127750000Y-90562500D02*
X127750000Y-84630000D01*
X132380000Y-80000000D02*
X132380000Y-74680000D01*
X133650000Y-73410000D02*
X132380000Y-72140000D01*
X128437500Y-85573462D02*
X133650000Y-80360962D01*
X133650000Y-80360962D02*
X133650000Y-73410000D01*
X128437500Y-91250000D02*
X128437500Y-85573462D01*
X128875000Y-91750000D02*
X129300000Y-91325000D01*
X128437500Y-91750000D02*
X128875000Y-91750000D01*
X129300000Y-85620000D02*
X134920000Y-80000000D01*
X129300000Y-91325000D02*
X129300000Y-85620000D01*
X134920000Y-80000000D02*
X134920000Y-74680000D01*
X128908172Y-92250000D02*
X129930000Y-91228172D01*
X128437500Y-92250000D02*
X128908172Y-92250000D01*
X129930000Y-86620962D02*
X136190000Y-80360962D01*
X129930000Y-91228172D02*
X129930000Y-86620962D01*
X136190000Y-83190000D02*
X136110000Y-83270000D01*
X136190000Y-80360962D02*
X136190000Y-83190000D01*
X136190000Y-73410000D02*
X134920000Y-72140000D01*
X136190000Y-80360962D02*
X136190000Y-73410000D01*
X128437500Y-95250000D02*
X129430000Y-95250000D01*
X131630000Y-97450000D02*
X133000000Y-97450000D01*
X129430000Y-95250000D02*
X131630000Y-97450000D01*
X133060000Y-97390000D02*
X133000000Y-97450000D01*
X134790000Y-97390000D02*
X133060000Y-97390000D01*
X129206344Y-95750000D02*
X131510000Y-98053656D01*
X128437500Y-95750000D02*
X129206344Y-95750000D01*
X131510000Y-98053656D02*
X131510000Y-99280000D01*
X132180000Y-99950000D02*
X133000000Y-99950000D01*
X131510000Y-99280000D02*
X132180000Y-99950000D01*
X133040000Y-99990000D02*
X133000000Y-99950000D01*
X134680000Y-99990000D02*
X133040000Y-99990000D01*
X130780000Y-99583602D02*
X135796398Y-104600000D01*
X130780000Y-97856828D02*
X130780000Y-99583602D01*
X128437500Y-96250000D02*
X129173172Y-96250000D01*
X135796398Y-104600000D02*
X137520000Y-104600000D01*
X140090000Y-107170000D02*
X141470000Y-107170000D01*
X137520000Y-104600000D02*
X140090000Y-107170000D01*
X129173172Y-96250000D02*
X130780000Y-97856828D01*
D28*
X112500000Y-99660000D02*
X112500000Y-100950000D01*
X112500000Y-100950000D02*
X110130000Y-103320000D01*
X110130000Y-103320000D02*
X102370000Y-103320000D01*
X101882990Y-88377010D02*
X102500000Y-87760000D01*
X101882990Y-102832990D02*
X101882990Y-88377010D01*
X102370000Y-103320000D02*
X101882990Y-102832990D01*
X110430000Y-93050000D02*
X108205000Y-93050000D01*
X111600000Y-91880000D02*
X110430000Y-93050000D01*
X102500000Y-87760000D02*
X104240000Y-87760000D01*
X111600000Y-88720000D02*
X111600000Y-91880000D01*
X110850000Y-87970000D02*
X111600000Y-88720000D01*
X104240000Y-87760000D02*
X104450000Y-87970000D01*
X104450000Y-87970000D02*
X110850000Y-87970000D01*
X110790000Y-97950000D02*
X108205000Y-97950000D01*
X112500000Y-99660000D02*
X110790000Y-97950000D01*
X142250000Y-73830000D02*
X141620000Y-74460000D01*
X141332010Y-70452010D02*
X142250000Y-71370000D01*
X141620000Y-74460000D02*
X140220000Y-74460000D01*
X142250000Y-71370000D02*
X142250000Y-73830000D01*
X102281398Y-87760000D02*
X101072999Y-86551601D01*
X140220000Y-74460000D02*
X140000000Y-74680000D01*
X102500000Y-87760000D02*
X102281398Y-87760000D01*
X101072999Y-80827001D02*
X111447990Y-70452010D01*
X101072999Y-86551601D02*
X101072999Y-80827001D01*
X111447990Y-70452010D02*
X141332010Y-70452010D01*
D27*
X145465000Y-80085000D02*
X145370000Y-80180000D01*
X145465000Y-78540000D02*
X145465000Y-80085000D01*
X131510000Y-89910000D02*
X131510000Y-89250000D01*
X131510000Y-89250000D02*
X131510000Y-88645000D01*
X130761344Y-90930000D02*
X131510000Y-90930000D01*
X128941344Y-92750000D02*
X130761344Y-90930000D01*
X128437500Y-92750000D02*
X128941344Y-92750000D01*
X136110000Y-84290000D02*
X136110000Y-84369970D01*
X141640000Y-89820000D02*
X136110000Y-84290000D01*
X144070030Y-89820000D02*
X141640000Y-89820000D01*
X142735000Y-106925000D02*
X142490000Y-107170000D01*
X142735000Y-105570000D02*
X142735000Y-106925000D01*
X106790000Y-101410000D02*
X106760000Y-101380000D01*
X107770000Y-101410000D02*
X106790000Y-101410000D01*
X106760000Y-99850000D02*
X107290000Y-99320000D01*
D28*
X103110000Y-99820000D02*
X107290000Y-99820000D01*
X103110000Y-91180000D02*
X107290000Y-91180000D01*
X103110000Y-91180000D02*
X103110000Y-99820000D01*
D27*
X106760000Y-100350000D02*
X107290000Y-99820000D01*
X106760000Y-101380000D02*
X106760000Y-100350000D01*
M02*
