G04 #@! TF.GenerationSoftware,KiCad,Pcbnew,(5.1.10-1-10_14)*
G04 #@! TF.CreationDate,2021-09-03T00:17:14+08:00*
G04 #@! TF.ProjectId,stm32f401_devboard,73746d33-3266-4343-9031-5f646576626f,rev?*
G04 #@! TF.SameCoordinates,Original*
G04 #@! TF.FileFunction,Copper,L4,Bot*
G04 #@! TF.FilePolarity,Positive*
%FSLAX46Y46*%
G04 Gerber Fmt 4.6, Leading zero omitted, Abs format (unit mm)*
G04 Created by KiCad (PCBNEW (5.1.10-1-10_14)) date 2021-09-03 00:17:14*
%MOMM*%
%LPD*%
G01*
G04 APERTURE LIST*
G04 #@! TA.AperFunction,NonConductor*
%ADD10C,0.300000*%
G04 #@! TD*
G04 #@! TA.AperFunction,ComponentPad*
%ADD11O,1.700000X1.700000*%
G04 #@! TD*
G04 #@! TA.AperFunction,ComponentPad*
%ADD12R,1.700000X1.700000*%
G04 #@! TD*
G04 #@! TA.AperFunction,ComponentPad*
%ADD13O,2.100000X1.000000*%
G04 #@! TD*
G04 #@! TA.AperFunction,ComponentPad*
%ADD14O,1.600000X1.000000*%
G04 #@! TD*
G04 #@! TA.AperFunction,ComponentPad*
%ADD15O,1.000000X1.000000*%
G04 #@! TD*
G04 #@! TA.AperFunction,ComponentPad*
%ADD16R,1.000000X1.000000*%
G04 #@! TD*
G04 #@! TA.AperFunction,ViaPad*
%ADD17C,0.600000*%
G04 #@! TD*
G04 #@! TA.AperFunction,Conductor*
%ADD18C,0.250000*%
G04 #@! TD*
G04 APERTURE END LIST*
D10*
X148421428Y-85175714D02*
X147421428Y-85175714D01*
X148992857Y-84818571D02*
X147921428Y-84461428D01*
X147921428Y-85390000D01*
D11*
X112060000Y-117860000D03*
X112060000Y-115320000D03*
X114600000Y-117860000D03*
X114600000Y-115320000D03*
X117140000Y-117860000D03*
X117140000Y-115320000D03*
X119680000Y-117860000D03*
X119680000Y-115320000D03*
X122220000Y-117860000D03*
X122220000Y-115320000D03*
X124760000Y-117860000D03*
X124760000Y-115320000D03*
X127300000Y-117860000D03*
X127300000Y-115320000D03*
X129840000Y-117860000D03*
X129840000Y-115320000D03*
X132380000Y-117860000D03*
X132380000Y-115320000D03*
X134920000Y-117860000D03*
X134920000Y-115320000D03*
X137460000Y-117860000D03*
X137460000Y-115320000D03*
X140000000Y-117860000D03*
D12*
X140000000Y-115320000D03*
D11*
X112060000Y-74680000D03*
X112060000Y-72140000D03*
X114600000Y-74680000D03*
X114600000Y-72140000D03*
X117140000Y-74680000D03*
X117140000Y-72140000D03*
X119680000Y-74680000D03*
X119680000Y-72140000D03*
X122220000Y-74680000D03*
X122220000Y-72140000D03*
X124760000Y-74680000D03*
X124760000Y-72140000D03*
X127300000Y-74680000D03*
X127300000Y-72140000D03*
X129840000Y-74680000D03*
X129840000Y-72140000D03*
X132380000Y-74680000D03*
X132380000Y-72140000D03*
X134920000Y-74680000D03*
X134920000Y-72140000D03*
X137460000Y-74680000D03*
X137460000Y-72140000D03*
X140000000Y-74680000D03*
D12*
X140000000Y-72140000D03*
D13*
X107290000Y-99820000D03*
X107290000Y-91180000D03*
D14*
X103110000Y-91180000D03*
X103110000Y-99820000D03*
D15*
X147685000Y-98430000D03*
X146415000Y-98430000D03*
X147685000Y-99700000D03*
X146415000Y-99700000D03*
X147685000Y-100970000D03*
X146415000Y-100970000D03*
X147685000Y-102240000D03*
X146415000Y-102240000D03*
X146415000Y-103510000D03*
D16*
X147685000Y-103510000D03*
D17*
X123480000Y-105040000D03*
X125000000Y-94000000D03*
X126500000Y-94000000D03*
X123500000Y-94000000D03*
X123500000Y-92500000D03*
X125000000Y-92500000D03*
X126500000Y-92500000D03*
X125000000Y-95500000D03*
X123500000Y-95500000D03*
X126500000Y-95500000D03*
X109440000Y-89690000D03*
X110297823Y-100997823D03*
X136180000Y-92260000D03*
X146840000Y-108680000D03*
X142100000Y-102360000D03*
X130890000Y-104780000D03*
X105530000Y-81390000D03*
X143770000Y-81130000D03*
X146820000Y-87800000D03*
X116950000Y-91350000D03*
X115080000Y-96580000D03*
X125478000Y-78470000D03*
X116010000Y-95910000D03*
X118460000Y-71240000D03*
X128740000Y-98150000D03*
X119540000Y-96830000D03*
X121160000Y-89610000D03*
X132480000Y-85890000D03*
X139620000Y-104500000D03*
X123198000Y-100695229D03*
X136740000Y-119400000D03*
X130590000Y-92910000D03*
X125198000Y-103240000D03*
X124698000Y-102609877D03*
X124198000Y-101940322D03*
X123698000Y-101296678D03*
X114427755Y-96901105D03*
X110700000Y-96000000D03*
X111960000Y-94198000D03*
X118060000Y-91720000D03*
X118770000Y-91240000D03*
X119592386Y-91056046D03*
X120280000Y-90820000D03*
X123698000Y-88195231D03*
X124198000Y-87615547D03*
X124698000Y-86983596D03*
X125198000Y-86400000D03*
D18*
X116950000Y-87810000D02*
X124760000Y-80000000D01*
X116950000Y-91350000D02*
X116950000Y-87810000D01*
X124760000Y-80000000D02*
X124760000Y-74680000D01*
X124760000Y-76775000D02*
X124760000Y-74680000D01*
X146415000Y-98430000D02*
X124760000Y-76775000D01*
X118410000Y-73410000D02*
X117140000Y-72140000D01*
X118410000Y-81220000D02*
X118410000Y-73410000D01*
X115080000Y-84550000D02*
X118410000Y-81220000D01*
X115080000Y-96580000D02*
X115080000Y-84550000D01*
X148437001Y-98117001D02*
X126040000Y-75720000D01*
X148437001Y-98947999D02*
X148437001Y-98117001D01*
X147685000Y-99700000D02*
X148437001Y-98947999D01*
X126040000Y-75720000D02*
X126040000Y-73930000D01*
X126040000Y-73930000D02*
X125520000Y-73410000D01*
X125520000Y-73410000D02*
X118410000Y-73410000D01*
X125478000Y-79704962D02*
X125478000Y-78470000D01*
X145473038Y-99700000D02*
X125478000Y-79704962D01*
X146415000Y-99700000D02*
X145473038Y-99700000D01*
X116010000Y-95910000D02*
X116010000Y-85350000D01*
X116010000Y-85350000D02*
X119680000Y-81680000D01*
X119680000Y-80270000D02*
X119680000Y-74680000D01*
X119680000Y-81680000D02*
X119680000Y-80270000D01*
X119680000Y-80270000D02*
X119680000Y-80000000D01*
X148814010Y-99840990D02*
X148814010Y-96754010D01*
X147685000Y-100970000D02*
X148814010Y-99840990D01*
X148814010Y-96754010D02*
X128560000Y-76500000D01*
X128560000Y-76500000D02*
X128560000Y-71769038D01*
X128560000Y-71769038D02*
X128560000Y-71330000D01*
X128560000Y-71330000D02*
X127930000Y-70700000D01*
X127930000Y-70700000D02*
X119000000Y-70700000D01*
X119000000Y-70700000D02*
X118460000Y-71240000D01*
X131120000Y-106745522D02*
X131120000Y-116600000D01*
X131120000Y-116600000D02*
X132380000Y-117860000D01*
X125069707Y-100695229D02*
X131120000Y-106745522D01*
X123198000Y-100695229D02*
X125069707Y-100695229D01*
X146415000Y-102240000D02*
X142650000Y-106005000D01*
X142650000Y-106005000D02*
X142650000Y-117990000D01*
X141240000Y-119400000D02*
X136740000Y-119400000D01*
X142650000Y-117990000D02*
X141240000Y-119400000D01*
X130590000Y-92910000D02*
X130590000Y-101053656D01*
X130590000Y-101053656D02*
X133511030Y-103974686D01*
X133511030Y-103974686D02*
X133511030Y-107447858D01*
X133511030Y-107447858D02*
X135390000Y-109326828D01*
X135390000Y-109326828D02*
X135390000Y-113470000D01*
X135390000Y-113470000D02*
X136200000Y-114280000D01*
X136200000Y-114280000D02*
X136200000Y-118470000D01*
X136200000Y-118470000D02*
X135410000Y-119260000D01*
X131240000Y-119260000D02*
X129840000Y-117860000D01*
X135410000Y-119260000D02*
X131240000Y-119260000D01*
X125198000Y-103240000D02*
X125650000Y-103692000D01*
X125650000Y-103692000D02*
X125650000Y-103710000D01*
X125650000Y-103710000D02*
X126030000Y-104090000D01*
X126030000Y-116590000D02*
X124760000Y-117860000D01*
X126030000Y-111090000D02*
X126030000Y-116590000D01*
X126030000Y-104090000D02*
X126030000Y-111090000D01*
X126030000Y-111090000D02*
X126030000Y-111270000D01*
X125384839Y-102609877D02*
X127300000Y-104525038D01*
X127300000Y-104525038D02*
X127300000Y-110000000D01*
X124698000Y-102609877D02*
X125384839Y-102609877D01*
X127300000Y-110000000D02*
X127300000Y-115320000D01*
X128580000Y-116580000D02*
X127300000Y-117860000D01*
X125248456Y-101940322D02*
X128580000Y-105271866D01*
X128580000Y-105271866D02*
X128580000Y-116580000D01*
X124198000Y-101940322D02*
X125248456Y-101940322D01*
X129840000Y-105998694D02*
X129840000Y-110000000D01*
X125137984Y-101296678D02*
X129840000Y-105998694D01*
X123698000Y-101296678D02*
X125137984Y-101296678D01*
X129840000Y-110000000D02*
X129840000Y-115320000D01*
X114427755Y-96901105D02*
X114427755Y-83962245D01*
X117140000Y-81250000D02*
X117140000Y-80000000D01*
X114427755Y-83962245D02*
X117140000Y-81250000D01*
X117140000Y-80000000D02*
X117140000Y-74680000D01*
X111960000Y-94740000D02*
X110700000Y-96000000D01*
X111960000Y-94198000D02*
X111960000Y-94740000D01*
X118060000Y-91720000D02*
X118060000Y-94610000D01*
X118060000Y-94610000D02*
X118060000Y-94750000D01*
X115870000Y-109090000D02*
X115870000Y-116590000D01*
X116387010Y-97409818D02*
X116387010Y-108572990D01*
X116387010Y-108572990D02*
X115870000Y-109090000D01*
X118060000Y-95736828D02*
X116387010Y-97409818D01*
X115870000Y-116590000D02*
X117140000Y-117860000D01*
X118060000Y-94610000D02*
X118060000Y-95736828D01*
X117140000Y-110000000D02*
X117140000Y-97190000D01*
X118770000Y-95560000D02*
X118770000Y-91240000D01*
X117140000Y-97190000D02*
X118770000Y-95560000D01*
X117140000Y-110000000D02*
X117140000Y-115320000D01*
X119592386Y-95767614D02*
X118410000Y-96950000D01*
X118410000Y-116590000D02*
X119680000Y-117860000D01*
X118410000Y-96950000D02*
X118410000Y-116590000D01*
X119592386Y-91056046D02*
X119592386Y-95767614D01*
X120280000Y-114720000D02*
X119680000Y-115320000D01*
X120280000Y-90820000D02*
X120280000Y-114720000D01*
X121370001Y-114470001D02*
X122220000Y-115320000D01*
X121370001Y-90523230D02*
X121370001Y-114470001D01*
X123698000Y-88195231D02*
X121370001Y-90523230D01*
X124497999Y-87915546D02*
X124497999Y-89217999D01*
X124198000Y-87615547D02*
X124497999Y-87915546D01*
X129292001Y-94012001D02*
X129292001Y-101442001D01*
X124497999Y-89217999D02*
X129292001Y-94012001D01*
X132380000Y-104530000D02*
X132380000Y-110000000D01*
X129292001Y-101442001D02*
X132380000Y-104530000D01*
X132380000Y-110000000D02*
X132380000Y-115320000D01*
X132600000Y-104130000D02*
X132600000Y-104216828D01*
X133630000Y-109190000D02*
X133630000Y-111250000D01*
X132600000Y-104216828D02*
X132757010Y-104373838D01*
X132757010Y-104373838D02*
X132757010Y-108317010D01*
X129669011Y-101199011D02*
X132600000Y-104130000D01*
X129669011Y-93855839D02*
X129669011Y-101199011D01*
X124961586Y-87247182D02*
X124961586Y-89148414D01*
X132757010Y-108317010D02*
X133630000Y-109190000D01*
X124961586Y-89148414D02*
X129669011Y-93855839D01*
X124698000Y-86983596D02*
X124961586Y-87247182D01*
X133630000Y-116570000D02*
X134920000Y-117860000D01*
X133630000Y-111250000D02*
X133630000Y-116570000D01*
X125198000Y-86400000D02*
X125442470Y-86644470D01*
X125442470Y-86644470D02*
X125442470Y-89096126D01*
X125442470Y-89096126D02*
X130046021Y-93699677D01*
X130046021Y-93699677D02*
X130046021Y-101042849D01*
X130046021Y-101042849D02*
X133134020Y-104130848D01*
X133134020Y-104130848D02*
X133134020Y-107604020D01*
X134920000Y-109390000D02*
X134920000Y-110000000D01*
X133134020Y-107604020D02*
X134920000Y-109390000D01*
X134920000Y-110000000D02*
X134920000Y-115320000D01*
M02*
