M48
; DRILL file {KiCad (5.1.10-1-10_14)} date Tuesday, August 17, 2021 at 12:22:49 AM
; FORMAT={-:-/ absolute / inch / decimal}
; #@! TF.CreationDate,2021-08-17T00:22:49+08:00
; #@! TF.GenerationSoftware,Kicad,Pcbnew,(5.1.10-1-10_14)
; #@! TF.FileFunction,Plated,1,4,PTH
FMAT,2
INCH
T1C0.0118
T2C0.0197
T3C0.0236
T4C0.0394
%
G90
G05
T1
X4.3087Y-3.5311
X4.324Y-4.5252
X4.3424Y-3.9763
X4.4717Y-3.7185
X4.472Y-3.7756
X4.505Y-3.815
X4.5307Y-3.8024
X4.5453Y-4.0787
X4.5673Y-3.776
X4.6043Y-3.5965
X4.648Y-3.611
X4.676Y-3.5921
X4.7063Y-3.8122
X4.7084Y-3.5849
X4.7339Y-4.624
X4.7354Y-3.5756
X4.7701Y-3.528
X4.8503Y-3.9644
X4.8614Y-4.1354
X4.8622Y-3.6417
X4.8622Y-3.7008
X4.8622Y-3.7598
X4.87Y-3.4723
X4.87Y-3.9881
X4.8897Y-3.4494
X4.8897Y-4.0134
X4.9094Y-3.4246
X4.9094Y-4.0398
X4.9213Y-3.6417
X4.9213Y-3.7008
X4.9213Y-3.7598
X4.9291Y-3.4016
X4.9291Y-4.0646
X4.9803Y-3.6417
X4.9803Y-3.7008
X4.9803Y-3.7598
X5.0685Y-3.8642
X5.1161Y-3.9008
X5.1362Y-4.0925
X5.1736Y-3.4799
X5.2579Y-3.6669
X5.325Y-3.7668
X5.4358Y-3.6276
X5.4732Y-3.8976
T2
X4.0967Y-4.1913
X4.0967Y-4.2413
X4.0967Y-4.2913
X4.0967Y-4.3413
X4.0967Y-4.3913
X4.1467Y-4.1913
X4.1467Y-4.2413
X4.1467Y-4.2913
X4.1467Y-4.3413
X4.1467Y-4.3913
T4
X4.4118Y-3.0496
X4.4118Y-3.1496
X4.4118Y-4.3307
X4.4118Y-4.4307
X4.5118Y-3.0496
X4.5118Y-3.1496
X4.5118Y-4.3307
X4.5118Y-4.4307
X4.6118Y-3.0496
X4.6118Y-3.1496
X4.6118Y-4.3307
X4.6118Y-4.4307
X4.7118Y-3.0496
X4.7118Y-3.1496
X4.7118Y-4.3307
X4.7118Y-4.4307
X4.8118Y-3.0496
X4.8118Y-3.1496
X4.8118Y-4.3307
X4.8118Y-4.4307
X4.9118Y-3.0496
X4.9118Y-3.1496
X4.9118Y-4.3307
X4.9118Y-4.4307
X5.0118Y-3.0496
X5.0118Y-3.1496
X5.0118Y-4.3307
X5.0118Y-4.4307
X5.1118Y-3.0496
X5.1118Y-3.1496
X5.1118Y-4.3307
X5.1118Y-4.4307
X5.2118Y-3.0496
X5.2118Y-3.1496
X5.2118Y-4.3307
X5.2118Y-4.4307
X5.3118Y-3.0496
X5.3118Y-3.1496
X5.3118Y-4.3307
X5.3118Y-4.4307
X5.4118Y-3.0496
X5.4118Y-3.1496
X5.4118Y-4.3307
X5.4118Y-4.4307
X5.5118Y-3.0496
X5.5118Y-3.1496
X5.5118Y-4.3307
X5.5118Y-4.4307
T3
G00X4.0713Y-3.5701
M15
G01X4.0476Y-3.5701
M16
G05
G00X4.0713Y-3.9102
M15
G01X4.0476Y-3.9102
M16
G05
G00X4.2457Y-3.5701
M15
G01X4.2024Y-3.5701
M16
G05
G00X4.2457Y-3.9102
M15
G01X4.2024Y-3.9102
M16
G05
T0
M30
