G04 #@! TF.GenerationSoftware,KiCad,Pcbnew,(5.1.10-1-10_14)*
G04 #@! TF.CreationDate,2021-08-17T00:22:47+08:00*
G04 #@! TF.ProjectId,stm32f401_devboard,73746d33-3266-4343-9031-5f646576626f,rev?*
G04 #@! TF.SameCoordinates,Original*
G04 #@! TF.FileFunction,Copper,L4,Bot*
G04 #@! TF.FilePolarity,Positive*
%FSLAX46Y46*%
G04 Gerber Fmt 4.6, Leading zero omitted, Abs format (unit mm)*
G04 Created by KiCad (PCBNEW (5.1.10-1-10_14)) date 2021-08-17 00:22:47*
%MOMM*%
%LPD*%
G01*
G04 APERTURE LIST*
G04 #@! TA.AperFunction,NonConductor*
%ADD10C,0.300000*%
G04 #@! TD*
G04 #@! TA.AperFunction,ComponentPad*
%ADD11O,1.700000X1.700000*%
G04 #@! TD*
G04 #@! TA.AperFunction,ComponentPad*
%ADD12R,1.700000X1.700000*%
G04 #@! TD*
G04 #@! TA.AperFunction,ComponentPad*
%ADD13O,2.100000X1.000000*%
G04 #@! TD*
G04 #@! TA.AperFunction,ComponentPad*
%ADD14O,1.600000X1.000000*%
G04 #@! TD*
G04 #@! TA.AperFunction,ComponentPad*
%ADD15O,1.000000X1.000000*%
G04 #@! TD*
G04 #@! TA.AperFunction,ComponentPad*
%ADD16R,1.000000X1.000000*%
G04 #@! TD*
G04 #@! TA.AperFunction,ViaPad*
%ADD17C,0.600000*%
G04 #@! TD*
G04 #@! TA.AperFunction,Conductor*
%ADD18C,0.250000*%
G04 #@! TD*
G04 APERTURE END LIST*
D10*
X147321428Y-79385714D02*
X146321428Y-79385714D01*
X147892857Y-79028571D02*
X146821428Y-78671428D01*
X146821428Y-79600000D01*
D11*
X112060000Y-112540000D03*
X112060000Y-110000000D03*
X114600000Y-112540000D03*
X114600000Y-110000000D03*
X117140000Y-112540000D03*
X117140000Y-110000000D03*
X119680000Y-112540000D03*
X119680000Y-110000000D03*
X122220000Y-112540000D03*
X122220000Y-110000000D03*
X124760000Y-112540000D03*
X124760000Y-110000000D03*
X127300000Y-112540000D03*
X127300000Y-110000000D03*
X129840000Y-112540000D03*
X129840000Y-110000000D03*
X132380000Y-112540000D03*
X132380000Y-110000000D03*
X134920000Y-112540000D03*
X134920000Y-110000000D03*
X137460000Y-112540000D03*
X137460000Y-110000000D03*
X140000000Y-112540000D03*
D12*
X140000000Y-110000000D03*
D11*
X112060000Y-80000000D03*
X112060000Y-77460000D03*
X114600000Y-80000000D03*
X114600000Y-77460000D03*
X117140000Y-80000000D03*
X117140000Y-77460000D03*
X119680000Y-80000000D03*
X119680000Y-77460000D03*
X122220000Y-80000000D03*
X122220000Y-77460000D03*
X124760000Y-80000000D03*
X124760000Y-77460000D03*
X127300000Y-80000000D03*
X127300000Y-77460000D03*
X129840000Y-80000000D03*
X129840000Y-77460000D03*
X132380000Y-80000000D03*
X132380000Y-77460000D03*
X134920000Y-80000000D03*
X134920000Y-77460000D03*
X137460000Y-80000000D03*
X137460000Y-77460000D03*
X140000000Y-80000000D03*
D12*
X140000000Y-77460000D03*
D13*
X107290000Y-99320000D03*
X107290000Y-90680000D03*
D14*
X103110000Y-90680000D03*
X103110000Y-99320000D03*
D15*
X105325000Y-106460000D03*
X104055000Y-106460000D03*
X105325000Y-107730000D03*
X104055000Y-107730000D03*
X105325000Y-109000000D03*
X104055000Y-109000000D03*
X105325000Y-110270000D03*
X104055000Y-110270000D03*
X104055000Y-111540000D03*
D16*
X105325000Y-111540000D03*
D17*
X129950000Y-99080000D03*
X130460000Y-103950000D03*
X139020000Y-99000000D03*
X135254283Y-95675636D03*
X138070000Y-92140000D03*
X123480000Y-105040000D03*
X120240000Y-117450000D03*
X125000000Y-94000000D03*
X126500000Y-94000000D03*
X123500000Y-94000000D03*
X123500000Y-92500000D03*
X125000000Y-92500000D03*
X126500000Y-92500000D03*
X125000000Y-95500000D03*
X123500000Y-95500000D03*
X126500000Y-95500000D03*
X109440000Y-89690000D03*
X110297823Y-100997823D03*
X116950000Y-91350000D03*
X115080000Y-96580000D03*
X116010000Y-95910000D03*
X128740000Y-98150000D03*
X119540000Y-96830000D03*
X121160000Y-89610000D03*
X131410000Y-88390000D03*
X115450000Y-103600000D03*
X123198000Y-100695229D03*
X133550000Y-93140000D03*
X109830000Y-114940000D03*
X125198000Y-103240000D03*
X124698000Y-102609877D03*
X124198000Y-101940322D03*
X123698000Y-101296678D03*
X114427755Y-96901105D03*
X113590000Y-95900000D03*
X113580000Y-94450000D03*
X118060000Y-91720000D03*
X118770000Y-91240000D03*
X119592386Y-91056046D03*
X120280000Y-90820000D03*
X123698000Y-88195231D03*
X124198000Y-87615547D03*
X124698000Y-86983596D03*
X125198000Y-86400000D03*
D18*
X129950000Y-103440000D02*
X130460000Y-103950000D01*
X129950000Y-99080000D02*
X129950000Y-103440000D01*
X116950000Y-87810000D02*
X124760000Y-80000000D01*
X116950000Y-91350000D02*
X116950000Y-87810000D01*
X112960000Y-84590000D02*
X112960000Y-83860000D01*
X112960000Y-84590000D02*
X112960000Y-84430000D01*
X110957999Y-76931039D02*
X112349038Y-75540000D01*
X110957999Y-81857999D02*
X110957999Y-76931039D01*
X112960000Y-83860000D02*
X110957999Y-81857999D01*
X112349038Y-75540000D02*
X119750000Y-75540000D01*
X119750000Y-75540000D02*
X120970000Y-76760000D01*
X120970000Y-76760000D02*
X120970000Y-78400000D01*
X120970000Y-78400000D02*
X121290000Y-78720000D01*
X123480000Y-78720000D02*
X124760000Y-80000000D01*
X121290000Y-78720000D02*
X123480000Y-78720000D01*
X112970000Y-97220000D02*
X104055000Y-106135000D01*
X104055000Y-106135000D02*
X104055000Y-106460000D01*
X112970000Y-84045000D02*
X112970000Y-97220000D01*
X115080000Y-96580000D02*
X115080000Y-84550000D01*
X115080000Y-84550000D02*
X118410000Y-81220000D01*
X118410000Y-78730000D02*
X117140000Y-77460000D01*
X118410000Y-81220000D02*
X118410000Y-78730000D01*
X122220000Y-76030000D02*
X122220000Y-77460000D01*
X112285866Y-75070000D02*
X121260000Y-75070000D01*
X110580989Y-82014161D02*
X110580990Y-76774876D01*
X103302999Y-106077001D02*
X112582990Y-96797010D01*
X112582990Y-84016162D02*
X110580989Y-82014161D01*
X121260000Y-75070000D02*
X122220000Y-76030000D01*
X110580990Y-76774876D02*
X112285866Y-75070000D01*
X112582990Y-96797010D02*
X112582990Y-84016162D01*
X103302999Y-106977999D02*
X103302999Y-106077001D01*
X104055000Y-107730000D02*
X103302999Y-106977999D01*
X116010000Y-95910000D02*
X116010000Y-85350000D01*
X119680000Y-81680000D02*
X119680000Y-80000000D01*
X116010000Y-85350000D02*
X119680000Y-81680000D01*
X116010000Y-98315000D02*
X116010000Y-95910000D01*
X105325000Y-109000000D02*
X116010000Y-98315000D01*
X125069707Y-100695229D02*
X131120000Y-106745522D01*
X123198000Y-100695229D02*
X125069707Y-100695229D01*
X131120000Y-111280000D02*
X132380000Y-112540000D01*
X131120000Y-106745522D02*
X131120000Y-111280000D01*
X133550000Y-93140000D02*
X136210000Y-95800000D01*
X136210000Y-95800000D02*
X136210000Y-113750000D01*
X136210000Y-113750000D02*
X135020000Y-114940000D01*
X104055000Y-112247106D02*
X104055000Y-111540000D01*
X106747894Y-114940000D02*
X104055000Y-112247106D01*
X109830000Y-114940000D02*
X106747894Y-114940000D01*
X135020000Y-114940000D02*
X109830000Y-114940000D01*
X125198000Y-103240000D02*
X125650000Y-103692000D01*
X125650000Y-103692000D02*
X125650000Y-103710000D01*
X125650000Y-103710000D02*
X126030000Y-104090000D01*
X126030000Y-111270000D02*
X127300000Y-112540000D01*
X126030000Y-104090000D02*
X126030000Y-111270000D01*
X125384839Y-102609877D02*
X127300000Y-104525038D01*
X127300000Y-104525038D02*
X127300000Y-110000000D01*
X124698000Y-102609877D02*
X125384839Y-102609877D01*
X125248456Y-101940322D02*
X128580000Y-105271866D01*
X124198000Y-101940322D02*
X125248456Y-101940322D01*
X128580000Y-111280000D02*
X129840000Y-112540000D01*
X128580000Y-105271866D02*
X128580000Y-111280000D01*
X129840000Y-105998694D02*
X129840000Y-110000000D01*
X125137984Y-101296678D02*
X129840000Y-105998694D01*
X123698000Y-101296678D02*
X125137984Y-101296678D01*
X114427755Y-96901105D02*
X114427755Y-83962245D01*
X117140000Y-81250000D02*
X117140000Y-80000000D01*
X114427755Y-83962245D02*
X117140000Y-81250000D01*
X113590000Y-94460000D02*
X113580000Y-94450000D01*
X113590000Y-95900000D02*
X113590000Y-94460000D01*
X115870000Y-111270000D02*
X117140000Y-112540000D01*
X118060000Y-95736828D02*
X116387010Y-97409818D01*
X116387010Y-97409818D02*
X116387010Y-108572990D01*
X118060000Y-91720000D02*
X118060000Y-94610000D01*
X118060000Y-94610000D02*
X118060000Y-95736828D01*
X118060000Y-94610000D02*
X118060000Y-94750000D01*
X115870000Y-109090000D02*
X115870000Y-111270000D01*
X116387010Y-108572990D02*
X115870000Y-109090000D01*
X117140000Y-110000000D02*
X117140000Y-97190000D01*
X118770000Y-95560000D02*
X118770000Y-91240000D01*
X117140000Y-97190000D02*
X118770000Y-95560000D01*
X119680000Y-112540000D02*
X118410000Y-111270000D01*
X119592386Y-95767614D02*
X119592386Y-91056046D01*
X118410000Y-96950000D02*
X119592386Y-95767614D01*
X118410000Y-111270000D02*
X118410000Y-96950000D01*
X120280000Y-109400000D02*
X119680000Y-110000000D01*
X120280000Y-90820000D02*
X120280000Y-109400000D01*
X121370001Y-90523230D02*
X123698000Y-88195231D01*
X121370001Y-109150001D02*
X121370001Y-90523230D01*
X122220000Y-110000000D02*
X121370001Y-109150001D01*
X132380000Y-95797547D02*
X132380000Y-110000000D01*
X124198000Y-87615547D02*
X132380000Y-95797547D01*
X124698000Y-86983596D02*
X133670000Y-95955596D01*
X133670000Y-111290000D02*
X134920000Y-112540000D01*
X133670000Y-95955596D02*
X133670000Y-111290000D01*
X134920000Y-96122000D02*
X134920000Y-110000000D01*
X125198000Y-86400000D02*
X134920000Y-96122000D01*
M02*
