G04 #@! TF.GenerationSoftware,KiCad,Pcbnew,(5.1.10-1-10_14)*
G04 #@! TF.CreationDate,2021-08-17T00:22:47+08:00*
G04 #@! TF.ProjectId,stm32f401_devboard,73746d33-3266-4343-9031-5f646576626f,rev?*
G04 #@! TF.SameCoordinates,Original*
G04 #@! TF.FileFunction,Copper,L1,Top*
G04 #@! TF.FilePolarity,Positive*
%FSLAX46Y46*%
G04 Gerber Fmt 4.6, Leading zero omitted, Abs format (unit mm)*
G04 Created by KiCad (PCBNEW (5.1.10-1-10_14)) date 2021-08-17 00:22:47*
%MOMM*%
%LPD*%
G01*
G04 APERTURE LIST*
G04 #@! TA.AperFunction,NonConductor*
%ADD10C,0.300000*%
G04 #@! TD*
G04 #@! TA.AperFunction,ComponentPad*
%ADD11O,1.700000X1.700000*%
G04 #@! TD*
G04 #@! TA.AperFunction,ComponentPad*
%ADD12R,1.700000X1.700000*%
G04 #@! TD*
G04 #@! TA.AperFunction,SMDPad,CuDef*
%ADD13R,1.200000X1.400000*%
G04 #@! TD*
G04 #@! TA.AperFunction,SMDPad,CuDef*
%ADD14R,1.450000X0.600000*%
G04 #@! TD*
G04 #@! TA.AperFunction,SMDPad,CuDef*
%ADD15R,1.450000X0.300000*%
G04 #@! TD*
G04 #@! TA.AperFunction,ComponentPad*
%ADD16O,2.100000X1.000000*%
G04 #@! TD*
G04 #@! TA.AperFunction,ComponentPad*
%ADD17O,1.600000X1.000000*%
G04 #@! TD*
G04 #@! TA.AperFunction,SMDPad,CuDef*
%ADD18R,2.000000X1.500000*%
G04 #@! TD*
G04 #@! TA.AperFunction,SMDPad,CuDef*
%ADD19R,2.000000X3.800000*%
G04 #@! TD*
G04 #@! TA.AperFunction,SMDPad,CuDef*
%ADD20R,0.899998X1.699997*%
G04 #@! TD*
G04 #@! TA.AperFunction,SMDPad,CuDef*
%ADD21R,1.800000X1.000000*%
G04 #@! TD*
G04 #@! TA.AperFunction,ComponentPad*
%ADD22O,1.000000X1.000000*%
G04 #@! TD*
G04 #@! TA.AperFunction,ComponentPad*
%ADD23R,1.000000X1.000000*%
G04 #@! TD*
G04 #@! TA.AperFunction,SMDPad,CuDef*
%ADD24R,5.600000X5.600000*%
G04 #@! TD*
G04 #@! TA.AperFunction,ViaPad*
%ADD25C,0.600000*%
G04 #@! TD*
G04 #@! TA.AperFunction,Conductor*
%ADD26C,0.250000*%
G04 #@! TD*
G04 #@! TA.AperFunction,Conductor*
%ADD27C,0.600000*%
G04 #@! TD*
G04 #@! TA.AperFunction,Conductor*
%ADD28C,1.000000*%
G04 #@! TD*
G04 #@! TA.AperFunction,Conductor*
%ADD29C,1.500000*%
G04 #@! TD*
G04 #@! TA.AperFunction,Conductor*
%ADD30C,0.500000*%
G04 #@! TD*
G04 APERTURE END LIST*
D10*
X146321428Y-74428571D02*
X146321428Y-73571428D01*
X146321428Y-74000000D02*
X147821428Y-74000000D01*
X147607142Y-73857142D01*
X147464285Y-73714285D01*
X147392857Y-73571428D01*
G04 #@! TA.AperFunction,SMDPad,CuDef*
G36*
G01*
X106575000Y-102130000D02*
X106945000Y-102130000D01*
G75*
G02*
X107080000Y-102265000I0J-135000D01*
G01*
X107080000Y-102535000D01*
G75*
G02*
X106945000Y-102670000I-135000J0D01*
G01*
X106575000Y-102670000D01*
G75*
G02*
X106440000Y-102535000I0J135000D01*
G01*
X106440000Y-102265000D01*
G75*
G02*
X106575000Y-102130000I135000J0D01*
G01*
G37*
G04 #@! TD.AperFunction*
G04 #@! TA.AperFunction,SMDPad,CuDef*
G36*
G01*
X106575000Y-101110000D02*
X106945000Y-101110000D01*
G75*
G02*
X107080000Y-101245000I0J-135000D01*
G01*
X107080000Y-101515000D01*
G75*
G02*
X106945000Y-101650000I-135000J0D01*
G01*
X106575000Y-101650000D01*
G75*
G02*
X106440000Y-101515000I0J135000D01*
G01*
X106440000Y-101245000D01*
G75*
G02*
X106575000Y-101110000I135000J0D01*
G01*
G37*
G04 #@! TD.AperFunction*
G04 #@! TA.AperFunction,SMDPad,CuDef*
G36*
G01*
X107600000Y-102090000D02*
X107940000Y-102090000D01*
G75*
G02*
X108080000Y-102230000I0J-140000D01*
G01*
X108080000Y-102510000D01*
G75*
G02*
X107940000Y-102650000I-140000J0D01*
G01*
X107600000Y-102650000D01*
G75*
G02*
X107460000Y-102510000I0J140000D01*
G01*
X107460000Y-102230000D01*
G75*
G02*
X107600000Y-102090000I140000J0D01*
G01*
G37*
G04 #@! TD.AperFunction*
G04 #@! TA.AperFunction,SMDPad,CuDef*
G36*
G01*
X107600000Y-101130000D02*
X107940000Y-101130000D01*
G75*
G02*
X108080000Y-101270000I0J-140000D01*
G01*
X108080000Y-101550000D01*
G75*
G02*
X107940000Y-101690000I-140000J0D01*
G01*
X107600000Y-101690000D01*
G75*
G02*
X107460000Y-101550000I0J140000D01*
G01*
X107460000Y-101270000D01*
G75*
G02*
X107600000Y-101130000I140000J0D01*
G01*
G37*
G04 #@! TD.AperFunction*
G04 #@! TA.AperFunction,SMDPad,CuDef*
G36*
G01*
X130070000Y-101032500D02*
X130070000Y-101507500D01*
G75*
G02*
X129832500Y-101745000I-237500J0D01*
G01*
X129257500Y-101745000D01*
G75*
G02*
X129020000Y-101507500I0J237500D01*
G01*
X129020000Y-101032500D01*
G75*
G02*
X129257500Y-100795000I237500J0D01*
G01*
X129832500Y-100795000D01*
G75*
G02*
X130070000Y-101032500I0J-237500D01*
G01*
G37*
G04 #@! TD.AperFunction*
G04 #@! TA.AperFunction,SMDPad,CuDef*
G36*
G01*
X131820000Y-101032500D02*
X131820000Y-101507500D01*
G75*
G02*
X131582500Y-101745000I-237500J0D01*
G01*
X131007500Y-101745000D01*
G75*
G02*
X130770000Y-101507500I0J237500D01*
G01*
X130770000Y-101032500D01*
G75*
G02*
X131007500Y-100795000I237500J0D01*
G01*
X131582500Y-100795000D01*
G75*
G02*
X131820000Y-101032500I0J-237500D01*
G01*
G37*
G04 #@! TD.AperFunction*
G04 #@! TA.AperFunction,SMDPad,CuDef*
G36*
G01*
X107410000Y-77117500D02*
X107410000Y-76642500D01*
G75*
G02*
X107647500Y-76405000I237500J0D01*
G01*
X108222500Y-76405000D01*
G75*
G02*
X108460000Y-76642500I0J-237500D01*
G01*
X108460000Y-77117500D01*
G75*
G02*
X108222500Y-77355000I-237500J0D01*
G01*
X107647500Y-77355000D01*
G75*
G02*
X107410000Y-77117500I0J237500D01*
G01*
G37*
G04 #@! TD.AperFunction*
G04 #@! TA.AperFunction,SMDPad,CuDef*
G36*
G01*
X105660000Y-77117500D02*
X105660000Y-76642500D01*
G75*
G02*
X105897500Y-76405000I237500J0D01*
G01*
X106472500Y-76405000D01*
G75*
G02*
X106710000Y-76642500I0J-237500D01*
G01*
X106710000Y-77117500D01*
G75*
G02*
X106472500Y-77355000I-237500J0D01*
G01*
X105897500Y-77355000D01*
G75*
G02*
X105660000Y-77117500I0J237500D01*
G01*
G37*
G04 #@! TD.AperFunction*
G04 #@! TA.AperFunction,SMDPad,CuDef*
G36*
G01*
X127885000Y-100630000D02*
X127575000Y-100630000D01*
G75*
G02*
X127420000Y-100475000I0J155000D01*
G01*
X127420000Y-100050000D01*
G75*
G02*
X127575000Y-99895000I155000J0D01*
G01*
X127885000Y-99895000D01*
G75*
G02*
X128040000Y-100050000I0J-155000D01*
G01*
X128040000Y-100475000D01*
G75*
G02*
X127885000Y-100630000I-155000J0D01*
G01*
G37*
G04 #@! TD.AperFunction*
G04 #@! TA.AperFunction,SMDPad,CuDef*
G36*
G01*
X127885000Y-101765000D02*
X127575000Y-101765000D01*
G75*
G02*
X127420000Y-101610000I0J155000D01*
G01*
X127420000Y-101185000D01*
G75*
G02*
X127575000Y-101030000I155000J0D01*
G01*
X127885000Y-101030000D01*
G75*
G02*
X128040000Y-101185000I0J-155000D01*
G01*
X128040000Y-101610000D01*
G75*
G02*
X127885000Y-101765000I-155000J0D01*
G01*
G37*
G04 #@! TD.AperFunction*
G04 #@! TA.AperFunction,SMDPad,CuDef*
G36*
G01*
X118300000Y-97015000D02*
X118300000Y-96705000D01*
G75*
G02*
X118455000Y-96550000I155000J0D01*
G01*
X118880000Y-96550000D01*
G75*
G02*
X119035000Y-96705000I0J-155000D01*
G01*
X119035000Y-97015000D01*
G75*
G02*
X118880000Y-97170000I-155000J0D01*
G01*
X118455000Y-97170000D01*
G75*
G02*
X118300000Y-97015000I0J155000D01*
G01*
G37*
G04 #@! TD.AperFunction*
G04 #@! TA.AperFunction,SMDPad,CuDef*
G36*
G01*
X117165000Y-97015000D02*
X117165000Y-96705000D01*
G75*
G02*
X117320000Y-96550000I155000J0D01*
G01*
X117745000Y-96550000D01*
G75*
G02*
X117900000Y-96705000I0J-155000D01*
G01*
X117900000Y-97015000D01*
G75*
G02*
X117745000Y-97170000I-155000J0D01*
G01*
X117320000Y-97170000D01*
G75*
G02*
X117165000Y-97015000I0J155000D01*
G01*
G37*
G04 #@! TD.AperFunction*
G04 #@! TA.AperFunction,SMDPad,CuDef*
G36*
G01*
X119438978Y-88921819D02*
X119658181Y-89141022D01*
G75*
G02*
X119658181Y-89360226I-109602J-109602D01*
G01*
X119357660Y-89660747D01*
G75*
G02*
X119138456Y-89660747I-109602J109602D01*
G01*
X118919253Y-89441544D01*
G75*
G02*
X118919253Y-89222340I109602J109602D01*
G01*
X119219774Y-88921819D01*
G75*
G02*
X119438978Y-88921819I109602J-109602D01*
G01*
G37*
G04 #@! TD.AperFunction*
G04 #@! TA.AperFunction,SMDPad,CuDef*
G36*
G01*
X120241544Y-88119253D02*
X120460747Y-88338456D01*
G75*
G02*
X120460747Y-88557660I-109602J-109602D01*
G01*
X120160226Y-88858181D01*
G75*
G02*
X119941022Y-88858181I-109602J109602D01*
G01*
X119721819Y-88638978D01*
G75*
G02*
X119721819Y-88419774I109602J109602D01*
G01*
X120022340Y-88119253D01*
G75*
G02*
X120241544Y-88119253I109602J-109602D01*
G01*
G37*
G04 #@! TD.AperFunction*
D11*
X112060000Y-112540000D03*
X112060000Y-110000000D03*
X114600000Y-112540000D03*
X114600000Y-110000000D03*
X117140000Y-112540000D03*
X117140000Y-110000000D03*
X119680000Y-112540000D03*
X119680000Y-110000000D03*
X122220000Y-112540000D03*
X122220000Y-110000000D03*
X124760000Y-112540000D03*
X124760000Y-110000000D03*
X127300000Y-112540000D03*
X127300000Y-110000000D03*
X129840000Y-112540000D03*
X129840000Y-110000000D03*
X132380000Y-112540000D03*
X132380000Y-110000000D03*
X134920000Y-112540000D03*
X134920000Y-110000000D03*
X137460000Y-112540000D03*
X137460000Y-110000000D03*
X140000000Y-112540000D03*
D12*
X140000000Y-110000000D03*
D11*
X112060000Y-80000000D03*
X112060000Y-77460000D03*
X114600000Y-80000000D03*
X114600000Y-77460000D03*
X117140000Y-80000000D03*
X117140000Y-77460000D03*
X119680000Y-80000000D03*
X119680000Y-77460000D03*
X122220000Y-80000000D03*
X122220000Y-77460000D03*
X124760000Y-80000000D03*
X124760000Y-77460000D03*
X127300000Y-80000000D03*
X127300000Y-77460000D03*
X129840000Y-80000000D03*
X129840000Y-77460000D03*
X132380000Y-80000000D03*
X132380000Y-77460000D03*
X134920000Y-80000000D03*
X134920000Y-77460000D03*
X137460000Y-80000000D03*
X137460000Y-77460000D03*
X140000000Y-80000000D03*
D12*
X140000000Y-77460000D03*
G04 #@! TA.AperFunction,SMDPad,CuDef*
G36*
G01*
X112030000Y-117695000D02*
X112030000Y-117385000D01*
G75*
G02*
X112185000Y-117230000I155000J0D01*
G01*
X112610000Y-117230000D01*
G75*
G02*
X112765000Y-117385000I0J-155000D01*
G01*
X112765000Y-117695000D01*
G75*
G02*
X112610000Y-117850000I-155000J0D01*
G01*
X112185000Y-117850000D01*
G75*
G02*
X112030000Y-117695000I0J155000D01*
G01*
G37*
G04 #@! TD.AperFunction*
G04 #@! TA.AperFunction,SMDPad,CuDef*
G36*
G01*
X110895000Y-117695000D02*
X110895000Y-117385000D01*
G75*
G02*
X111050000Y-117230000I155000J0D01*
G01*
X111475000Y-117230000D01*
G75*
G02*
X111630000Y-117385000I0J-155000D01*
G01*
X111630000Y-117695000D01*
G75*
G02*
X111475000Y-117850000I-155000J0D01*
G01*
X111050000Y-117850000D01*
G75*
G02*
X110895000Y-117695000I0J155000D01*
G01*
G37*
G04 #@! TD.AperFunction*
D13*
X135530000Y-95280000D03*
X135530000Y-93080000D03*
X137230000Y-93080000D03*
X137230000Y-95280000D03*
D14*
X108205000Y-98250000D03*
X108205000Y-97450000D03*
X108205000Y-92550000D03*
X108205000Y-91750000D03*
X108205000Y-91750000D03*
X108205000Y-92550000D03*
X108205000Y-97450000D03*
X108205000Y-98250000D03*
D15*
X108205000Y-93250000D03*
X108205000Y-93750000D03*
X108205000Y-94250000D03*
X108205000Y-95250000D03*
X108205000Y-95750000D03*
X108205000Y-96250000D03*
X108205000Y-96750000D03*
X108205000Y-94750000D03*
D16*
X107290000Y-99320000D03*
X107290000Y-90680000D03*
D17*
X103110000Y-90680000D03*
X103110000Y-99320000D03*
D18*
X102500000Y-83160000D03*
X102500000Y-87760000D03*
X102500000Y-85460000D03*
D19*
X108800000Y-85460000D03*
D20*
X122519970Y-103760000D03*
X117920030Y-103760000D03*
X138930030Y-87190000D03*
X143529970Y-87190000D03*
G04 #@! TA.AperFunction,SMDPad,CuDef*
G36*
G01*
X135925000Y-84020000D02*
X136295000Y-84020000D01*
G75*
G02*
X136430000Y-84155000I0J-135000D01*
G01*
X136430000Y-84425000D01*
G75*
G02*
X136295000Y-84560000I-135000J0D01*
G01*
X135925000Y-84560000D01*
G75*
G02*
X135790000Y-84425000I0J135000D01*
G01*
X135790000Y-84155000D01*
G75*
G02*
X135925000Y-84020000I135000J0D01*
G01*
G37*
G04 #@! TD.AperFunction*
G04 #@! TA.AperFunction,SMDPad,CuDef*
G36*
G01*
X135925000Y-83000000D02*
X136295000Y-83000000D01*
G75*
G02*
X136430000Y-83135000I0J-135000D01*
G01*
X136430000Y-83405000D01*
G75*
G02*
X136295000Y-83540000I-135000J0D01*
G01*
X135925000Y-83540000D01*
G75*
G02*
X135790000Y-83405000I0J135000D01*
G01*
X135790000Y-83135000D01*
G75*
G02*
X135925000Y-83000000I135000J0D01*
G01*
G37*
G04 #@! TD.AperFunction*
G04 #@! TA.AperFunction,SMDPad,CuDef*
G36*
G01*
X131660000Y-92935000D02*
X131660000Y-92565000D01*
G75*
G02*
X131795000Y-92430000I135000J0D01*
G01*
X132065000Y-92430000D01*
G75*
G02*
X132200000Y-92565000I0J-135000D01*
G01*
X132200000Y-92935000D01*
G75*
G02*
X132065000Y-93070000I-135000J0D01*
G01*
X131795000Y-93070000D01*
G75*
G02*
X131660000Y-92935000I0J135000D01*
G01*
G37*
G04 #@! TD.AperFunction*
G04 #@! TA.AperFunction,SMDPad,CuDef*
G36*
G01*
X130640000Y-92935000D02*
X130640000Y-92565000D01*
G75*
G02*
X130775000Y-92430000I135000J0D01*
G01*
X131045000Y-92430000D01*
G75*
G02*
X131180000Y-92565000I0J-135000D01*
G01*
X131180000Y-92935000D01*
G75*
G02*
X131045000Y-93070000I-135000J0D01*
G01*
X130775000Y-93070000D01*
G75*
G02*
X130640000Y-92935000I0J135000D01*
G01*
G37*
G04 #@! TD.AperFunction*
G04 #@! TA.AperFunction,SMDPad,CuDef*
G36*
G01*
X131485000Y-98630000D02*
X131115000Y-98630000D01*
G75*
G02*
X130980000Y-98495000I0J135000D01*
G01*
X130980000Y-98225000D01*
G75*
G02*
X131115000Y-98090000I135000J0D01*
G01*
X131485000Y-98090000D01*
G75*
G02*
X131620000Y-98225000I0J-135000D01*
G01*
X131620000Y-98495000D01*
G75*
G02*
X131485000Y-98630000I-135000J0D01*
G01*
G37*
G04 #@! TD.AperFunction*
G04 #@! TA.AperFunction,SMDPad,CuDef*
G36*
G01*
X131485000Y-99650000D02*
X131115000Y-99650000D01*
G75*
G02*
X130980000Y-99515000I0J135000D01*
G01*
X130980000Y-99245000D01*
G75*
G02*
X131115000Y-99110000I135000J0D01*
G01*
X131485000Y-99110000D01*
G75*
G02*
X131620000Y-99245000I0J-135000D01*
G01*
X131620000Y-99515000D01*
G75*
G02*
X131485000Y-99650000I-135000J0D01*
G01*
G37*
G04 #@! TD.AperFunction*
G04 #@! TA.AperFunction,SMDPad,CuDef*
G36*
G01*
X103920000Y-76685000D02*
X103920000Y-77055000D01*
G75*
G02*
X103785000Y-77190000I-135000J0D01*
G01*
X103515000Y-77190000D01*
G75*
G02*
X103380000Y-77055000I0J135000D01*
G01*
X103380000Y-76685000D01*
G75*
G02*
X103515000Y-76550000I135000J0D01*
G01*
X103785000Y-76550000D01*
G75*
G02*
X103920000Y-76685000I0J-135000D01*
G01*
G37*
G04 #@! TD.AperFunction*
G04 #@! TA.AperFunction,SMDPad,CuDef*
G36*
G01*
X104940000Y-76685000D02*
X104940000Y-77055000D01*
G75*
G02*
X104805000Y-77190000I-135000J0D01*
G01*
X104535000Y-77190000D01*
G75*
G02*
X104400000Y-77055000I0J135000D01*
G01*
X104400000Y-76685000D01*
G75*
G02*
X104535000Y-76550000I135000J0D01*
G01*
X104805000Y-76550000D01*
G75*
G02*
X104940000Y-76685000I0J-135000D01*
G01*
G37*
G04 #@! TD.AperFunction*
G04 #@! TA.AperFunction,SMDPad,CuDef*
G36*
G01*
X124850000Y-105235000D02*
X124850000Y-104865000D01*
G75*
G02*
X124985000Y-104730000I135000J0D01*
G01*
X125255000Y-104730000D01*
G75*
G02*
X125390000Y-104865000I0J-135000D01*
G01*
X125390000Y-105235000D01*
G75*
G02*
X125255000Y-105370000I-135000J0D01*
G01*
X124985000Y-105370000D01*
G75*
G02*
X124850000Y-105235000I0J135000D01*
G01*
G37*
G04 #@! TD.AperFunction*
G04 #@! TA.AperFunction,SMDPad,CuDef*
G36*
G01*
X123830000Y-105235000D02*
X123830000Y-104865000D01*
G75*
G02*
X123965000Y-104730000I135000J0D01*
G01*
X124235000Y-104730000D01*
G75*
G02*
X124370000Y-104865000I0J-135000D01*
G01*
X124370000Y-105235000D01*
G75*
G02*
X124235000Y-105370000I-135000J0D01*
G01*
X123965000Y-105370000D01*
G75*
G02*
X123830000Y-105235000I0J135000D01*
G01*
G37*
G04 #@! TD.AperFunction*
G04 #@! TA.AperFunction,SMDPad,CuDef*
G36*
G01*
X132535000Y-105550000D02*
X132165000Y-105550000D01*
G75*
G02*
X132030000Y-105415000I0J135000D01*
G01*
X132030000Y-105145000D01*
G75*
G02*
X132165000Y-105010000I135000J0D01*
G01*
X132535000Y-105010000D01*
G75*
G02*
X132670000Y-105145000I0J-135000D01*
G01*
X132670000Y-105415000D01*
G75*
G02*
X132535000Y-105550000I-135000J0D01*
G01*
G37*
G04 #@! TD.AperFunction*
G04 #@! TA.AperFunction,SMDPad,CuDef*
G36*
G01*
X132535000Y-106570000D02*
X132165000Y-106570000D01*
G75*
G02*
X132030000Y-106435000I0J135000D01*
G01*
X132030000Y-106165000D01*
G75*
G02*
X132165000Y-106030000I135000J0D01*
G01*
X132535000Y-106030000D01*
G75*
G02*
X132670000Y-106165000I0J-135000D01*
G01*
X132670000Y-106435000D01*
G75*
G02*
X132535000Y-106570000I-135000J0D01*
G01*
G37*
G04 #@! TD.AperFunction*
G04 #@! TA.AperFunction,SMDPad,CuDef*
G36*
G01*
X138340000Y-100090000D02*
X138340000Y-100430000D01*
G75*
G02*
X138200000Y-100570000I-140000J0D01*
G01*
X137920000Y-100570000D01*
G75*
G02*
X137780000Y-100430000I0J140000D01*
G01*
X137780000Y-100090000D01*
G75*
G02*
X137920000Y-99950000I140000J0D01*
G01*
X138200000Y-99950000D01*
G75*
G02*
X138340000Y-100090000I0J-140000D01*
G01*
G37*
G04 #@! TD.AperFunction*
G04 #@! TA.AperFunction,SMDPad,CuDef*
G36*
G01*
X139300000Y-100090000D02*
X139300000Y-100430000D01*
G75*
G02*
X139160000Y-100570000I-140000J0D01*
G01*
X138880000Y-100570000D01*
G75*
G02*
X138740000Y-100430000I0J140000D01*
G01*
X138740000Y-100090000D01*
G75*
G02*
X138880000Y-99950000I140000J0D01*
G01*
X139160000Y-99950000D01*
G75*
G02*
X139300000Y-100090000I0J-140000D01*
G01*
G37*
G04 #@! TD.AperFunction*
G04 #@! TA.AperFunction,SMDPad,CuDef*
G36*
G01*
X138340000Y-97550000D02*
X138340000Y-97890000D01*
G75*
G02*
X138200000Y-98030000I-140000J0D01*
G01*
X137920000Y-98030000D01*
G75*
G02*
X137780000Y-97890000I0J140000D01*
G01*
X137780000Y-97550000D01*
G75*
G02*
X137920000Y-97410000I140000J0D01*
G01*
X138200000Y-97410000D01*
G75*
G02*
X138340000Y-97550000I0J-140000D01*
G01*
G37*
G04 #@! TD.AperFunction*
G04 #@! TA.AperFunction,SMDPad,CuDef*
G36*
G01*
X139300000Y-97550000D02*
X139300000Y-97890000D01*
G75*
G02*
X139160000Y-98030000I-140000J0D01*
G01*
X138880000Y-98030000D01*
G75*
G02*
X138740000Y-97890000I0J140000D01*
G01*
X138740000Y-97550000D01*
G75*
G02*
X138880000Y-97410000I140000J0D01*
G01*
X139160000Y-97410000D01*
G75*
G02*
X139300000Y-97550000I0J-140000D01*
G01*
G37*
G04 #@! TD.AperFunction*
G04 #@! TA.AperFunction,SMDPad,CuDef*
G36*
G01*
X136270000Y-90830000D02*
X136270000Y-91170000D01*
G75*
G02*
X136130000Y-91310000I-140000J0D01*
G01*
X135850000Y-91310000D01*
G75*
G02*
X135710000Y-91170000I0J140000D01*
G01*
X135710000Y-90830000D01*
G75*
G02*
X135850000Y-90690000I140000J0D01*
G01*
X136130000Y-90690000D01*
G75*
G02*
X136270000Y-90830000I0J-140000D01*
G01*
G37*
G04 #@! TD.AperFunction*
G04 #@! TA.AperFunction,SMDPad,CuDef*
G36*
G01*
X137230000Y-90830000D02*
X137230000Y-91170000D01*
G75*
G02*
X137090000Y-91310000I-140000J0D01*
G01*
X136810000Y-91310000D01*
G75*
G02*
X136670000Y-91170000I0J140000D01*
G01*
X136670000Y-90830000D01*
G75*
G02*
X136810000Y-90690000I140000J0D01*
G01*
X137090000Y-90690000D01*
G75*
G02*
X137230000Y-90830000I0J-140000D01*
G01*
G37*
G04 #@! TD.AperFunction*
G04 #@! TA.AperFunction,SMDPad,CuDef*
G36*
G01*
X139010000Y-94290000D02*
X139350000Y-94290000D01*
G75*
G02*
X139490000Y-94430000I0J-140000D01*
G01*
X139490000Y-94710000D01*
G75*
G02*
X139350000Y-94850000I-140000J0D01*
G01*
X139010000Y-94850000D01*
G75*
G02*
X138870000Y-94710000I0J140000D01*
G01*
X138870000Y-94430000D01*
G75*
G02*
X139010000Y-94290000I140000J0D01*
G01*
G37*
G04 #@! TD.AperFunction*
G04 #@! TA.AperFunction,SMDPad,CuDef*
G36*
G01*
X139010000Y-93330000D02*
X139350000Y-93330000D01*
G75*
G02*
X139490000Y-93470000I0J-140000D01*
G01*
X139490000Y-93750000D01*
G75*
G02*
X139350000Y-93890000I-140000J0D01*
G01*
X139010000Y-93890000D01*
G75*
G02*
X138870000Y-93750000I0J140000D01*
G01*
X138870000Y-93470000D01*
G75*
G02*
X139010000Y-93330000I140000J0D01*
G01*
G37*
G04 #@! TD.AperFunction*
G04 #@! TA.AperFunction,SMDPad,CuDef*
G36*
G01*
X131512500Y-90510000D02*
X131987500Y-90510000D01*
G75*
G02*
X132225000Y-90747500I0J-237500D01*
G01*
X132225000Y-91322500D01*
G75*
G02*
X131987500Y-91560000I-237500J0D01*
G01*
X131512500Y-91560000D01*
G75*
G02*
X131275000Y-91322500I0J237500D01*
G01*
X131275000Y-90747500D01*
G75*
G02*
X131512500Y-90510000I237500J0D01*
G01*
G37*
G04 #@! TD.AperFunction*
G04 #@! TA.AperFunction,SMDPad,CuDef*
G36*
G01*
X131512500Y-88760000D02*
X131987500Y-88760000D01*
G75*
G02*
X132225000Y-88997500I0J-237500D01*
G01*
X132225000Y-89572500D01*
G75*
G02*
X131987500Y-89810000I-237500J0D01*
G01*
X131512500Y-89810000D01*
G75*
G02*
X131275000Y-89572500I0J237500D01*
G01*
X131275000Y-88997500D01*
G75*
G02*
X131512500Y-88760000I237500J0D01*
G01*
G37*
G04 #@! TD.AperFunction*
X114300030Y-117540000D03*
X118899970Y-117540000D03*
D21*
X136270000Y-100180000D03*
X136270000Y-97680000D03*
D22*
X105325000Y-106460000D03*
X104055000Y-106460000D03*
X105325000Y-107730000D03*
X104055000Y-107730000D03*
X105325000Y-109000000D03*
X104055000Y-109000000D03*
X105325000Y-110270000D03*
X104055000Y-110270000D03*
X104055000Y-111540000D03*
D23*
X105325000Y-111540000D03*
D24*
X125000000Y-94000000D03*
G04 #@! TA.AperFunction,SMDPad,CuDef*
G36*
G01*
X127875000Y-97062500D02*
X127875000Y-97812500D01*
G75*
G02*
X127812500Y-97875000I-62500J0D01*
G01*
X127687500Y-97875000D01*
G75*
G02*
X127625000Y-97812500I0J62500D01*
G01*
X127625000Y-97062500D01*
G75*
G02*
X127687500Y-97000000I62500J0D01*
G01*
X127812500Y-97000000D01*
G75*
G02*
X127875000Y-97062500I0J-62500D01*
G01*
G37*
G04 #@! TD.AperFunction*
G04 #@! TA.AperFunction,SMDPad,CuDef*
G36*
G01*
X127375000Y-97062500D02*
X127375000Y-97812500D01*
G75*
G02*
X127312500Y-97875000I-62500J0D01*
G01*
X127187500Y-97875000D01*
G75*
G02*
X127125000Y-97812500I0J62500D01*
G01*
X127125000Y-97062500D01*
G75*
G02*
X127187500Y-97000000I62500J0D01*
G01*
X127312500Y-97000000D01*
G75*
G02*
X127375000Y-97062500I0J-62500D01*
G01*
G37*
G04 #@! TD.AperFunction*
G04 #@! TA.AperFunction,SMDPad,CuDef*
G36*
G01*
X126875000Y-97062500D02*
X126875000Y-97812500D01*
G75*
G02*
X126812500Y-97875000I-62500J0D01*
G01*
X126687500Y-97875000D01*
G75*
G02*
X126625000Y-97812500I0J62500D01*
G01*
X126625000Y-97062500D01*
G75*
G02*
X126687500Y-97000000I62500J0D01*
G01*
X126812500Y-97000000D01*
G75*
G02*
X126875000Y-97062500I0J-62500D01*
G01*
G37*
G04 #@! TD.AperFunction*
G04 #@! TA.AperFunction,SMDPad,CuDef*
G36*
G01*
X126375000Y-97062500D02*
X126375000Y-97812500D01*
G75*
G02*
X126312500Y-97875000I-62500J0D01*
G01*
X126187500Y-97875000D01*
G75*
G02*
X126125000Y-97812500I0J62500D01*
G01*
X126125000Y-97062500D01*
G75*
G02*
X126187500Y-97000000I62500J0D01*
G01*
X126312500Y-97000000D01*
G75*
G02*
X126375000Y-97062500I0J-62500D01*
G01*
G37*
G04 #@! TD.AperFunction*
G04 #@! TA.AperFunction,SMDPad,CuDef*
G36*
G01*
X125875000Y-97062500D02*
X125875000Y-97812500D01*
G75*
G02*
X125812500Y-97875000I-62500J0D01*
G01*
X125687500Y-97875000D01*
G75*
G02*
X125625000Y-97812500I0J62500D01*
G01*
X125625000Y-97062500D01*
G75*
G02*
X125687500Y-97000000I62500J0D01*
G01*
X125812500Y-97000000D01*
G75*
G02*
X125875000Y-97062500I0J-62500D01*
G01*
G37*
G04 #@! TD.AperFunction*
G04 #@! TA.AperFunction,SMDPad,CuDef*
G36*
G01*
X125375000Y-97062500D02*
X125375000Y-97812500D01*
G75*
G02*
X125312500Y-97875000I-62500J0D01*
G01*
X125187500Y-97875000D01*
G75*
G02*
X125125000Y-97812500I0J62500D01*
G01*
X125125000Y-97062500D01*
G75*
G02*
X125187500Y-97000000I62500J0D01*
G01*
X125312500Y-97000000D01*
G75*
G02*
X125375000Y-97062500I0J-62500D01*
G01*
G37*
G04 #@! TD.AperFunction*
G04 #@! TA.AperFunction,SMDPad,CuDef*
G36*
G01*
X124875000Y-97062500D02*
X124875000Y-97812500D01*
G75*
G02*
X124812500Y-97875000I-62500J0D01*
G01*
X124687500Y-97875000D01*
G75*
G02*
X124625000Y-97812500I0J62500D01*
G01*
X124625000Y-97062500D01*
G75*
G02*
X124687500Y-97000000I62500J0D01*
G01*
X124812500Y-97000000D01*
G75*
G02*
X124875000Y-97062500I0J-62500D01*
G01*
G37*
G04 #@! TD.AperFunction*
G04 #@! TA.AperFunction,SMDPad,CuDef*
G36*
G01*
X124375000Y-97062500D02*
X124375000Y-97812500D01*
G75*
G02*
X124312500Y-97875000I-62500J0D01*
G01*
X124187500Y-97875000D01*
G75*
G02*
X124125000Y-97812500I0J62500D01*
G01*
X124125000Y-97062500D01*
G75*
G02*
X124187500Y-97000000I62500J0D01*
G01*
X124312500Y-97000000D01*
G75*
G02*
X124375000Y-97062500I0J-62500D01*
G01*
G37*
G04 #@! TD.AperFunction*
G04 #@! TA.AperFunction,SMDPad,CuDef*
G36*
G01*
X123875000Y-97062500D02*
X123875000Y-97812500D01*
G75*
G02*
X123812500Y-97875000I-62500J0D01*
G01*
X123687500Y-97875000D01*
G75*
G02*
X123625000Y-97812500I0J62500D01*
G01*
X123625000Y-97062500D01*
G75*
G02*
X123687500Y-97000000I62500J0D01*
G01*
X123812500Y-97000000D01*
G75*
G02*
X123875000Y-97062500I0J-62500D01*
G01*
G37*
G04 #@! TD.AperFunction*
G04 #@! TA.AperFunction,SMDPad,CuDef*
G36*
G01*
X123375000Y-97062500D02*
X123375000Y-97812500D01*
G75*
G02*
X123312500Y-97875000I-62500J0D01*
G01*
X123187500Y-97875000D01*
G75*
G02*
X123125000Y-97812500I0J62500D01*
G01*
X123125000Y-97062500D01*
G75*
G02*
X123187500Y-97000000I62500J0D01*
G01*
X123312500Y-97000000D01*
G75*
G02*
X123375000Y-97062500I0J-62500D01*
G01*
G37*
G04 #@! TD.AperFunction*
G04 #@! TA.AperFunction,SMDPad,CuDef*
G36*
G01*
X122875000Y-97062500D02*
X122875000Y-97812500D01*
G75*
G02*
X122812500Y-97875000I-62500J0D01*
G01*
X122687500Y-97875000D01*
G75*
G02*
X122625000Y-97812500I0J62500D01*
G01*
X122625000Y-97062500D01*
G75*
G02*
X122687500Y-97000000I62500J0D01*
G01*
X122812500Y-97000000D01*
G75*
G02*
X122875000Y-97062500I0J-62500D01*
G01*
G37*
G04 #@! TD.AperFunction*
G04 #@! TA.AperFunction,SMDPad,CuDef*
G36*
G01*
X122375000Y-97062500D02*
X122375000Y-97812500D01*
G75*
G02*
X122312500Y-97875000I-62500J0D01*
G01*
X122187500Y-97875000D01*
G75*
G02*
X122125000Y-97812500I0J62500D01*
G01*
X122125000Y-97062500D01*
G75*
G02*
X122187500Y-97000000I62500J0D01*
G01*
X122312500Y-97000000D01*
G75*
G02*
X122375000Y-97062500I0J-62500D01*
G01*
G37*
G04 #@! TD.AperFunction*
G04 #@! TA.AperFunction,SMDPad,CuDef*
G36*
G01*
X122000000Y-96687500D02*
X122000000Y-96812500D01*
G75*
G02*
X121937500Y-96875000I-62500J0D01*
G01*
X121187500Y-96875000D01*
G75*
G02*
X121125000Y-96812500I0J62500D01*
G01*
X121125000Y-96687500D01*
G75*
G02*
X121187500Y-96625000I62500J0D01*
G01*
X121937500Y-96625000D01*
G75*
G02*
X122000000Y-96687500I0J-62500D01*
G01*
G37*
G04 #@! TD.AperFunction*
G04 #@! TA.AperFunction,SMDPad,CuDef*
G36*
G01*
X122000000Y-96187500D02*
X122000000Y-96312500D01*
G75*
G02*
X121937500Y-96375000I-62500J0D01*
G01*
X121187500Y-96375000D01*
G75*
G02*
X121125000Y-96312500I0J62500D01*
G01*
X121125000Y-96187500D01*
G75*
G02*
X121187500Y-96125000I62500J0D01*
G01*
X121937500Y-96125000D01*
G75*
G02*
X122000000Y-96187500I0J-62500D01*
G01*
G37*
G04 #@! TD.AperFunction*
G04 #@! TA.AperFunction,SMDPad,CuDef*
G36*
G01*
X122000000Y-95687500D02*
X122000000Y-95812500D01*
G75*
G02*
X121937500Y-95875000I-62500J0D01*
G01*
X121187500Y-95875000D01*
G75*
G02*
X121125000Y-95812500I0J62500D01*
G01*
X121125000Y-95687500D01*
G75*
G02*
X121187500Y-95625000I62500J0D01*
G01*
X121937500Y-95625000D01*
G75*
G02*
X122000000Y-95687500I0J-62500D01*
G01*
G37*
G04 #@! TD.AperFunction*
G04 #@! TA.AperFunction,SMDPad,CuDef*
G36*
G01*
X122000000Y-95187500D02*
X122000000Y-95312500D01*
G75*
G02*
X121937500Y-95375000I-62500J0D01*
G01*
X121187500Y-95375000D01*
G75*
G02*
X121125000Y-95312500I0J62500D01*
G01*
X121125000Y-95187500D01*
G75*
G02*
X121187500Y-95125000I62500J0D01*
G01*
X121937500Y-95125000D01*
G75*
G02*
X122000000Y-95187500I0J-62500D01*
G01*
G37*
G04 #@! TD.AperFunction*
G04 #@! TA.AperFunction,SMDPad,CuDef*
G36*
G01*
X122000000Y-94687500D02*
X122000000Y-94812500D01*
G75*
G02*
X121937500Y-94875000I-62500J0D01*
G01*
X121187500Y-94875000D01*
G75*
G02*
X121125000Y-94812500I0J62500D01*
G01*
X121125000Y-94687500D01*
G75*
G02*
X121187500Y-94625000I62500J0D01*
G01*
X121937500Y-94625000D01*
G75*
G02*
X122000000Y-94687500I0J-62500D01*
G01*
G37*
G04 #@! TD.AperFunction*
G04 #@! TA.AperFunction,SMDPad,CuDef*
G36*
G01*
X122000000Y-94187500D02*
X122000000Y-94312500D01*
G75*
G02*
X121937500Y-94375000I-62500J0D01*
G01*
X121187500Y-94375000D01*
G75*
G02*
X121125000Y-94312500I0J62500D01*
G01*
X121125000Y-94187500D01*
G75*
G02*
X121187500Y-94125000I62500J0D01*
G01*
X121937500Y-94125000D01*
G75*
G02*
X122000000Y-94187500I0J-62500D01*
G01*
G37*
G04 #@! TD.AperFunction*
G04 #@! TA.AperFunction,SMDPad,CuDef*
G36*
G01*
X122000000Y-93687500D02*
X122000000Y-93812500D01*
G75*
G02*
X121937500Y-93875000I-62500J0D01*
G01*
X121187500Y-93875000D01*
G75*
G02*
X121125000Y-93812500I0J62500D01*
G01*
X121125000Y-93687500D01*
G75*
G02*
X121187500Y-93625000I62500J0D01*
G01*
X121937500Y-93625000D01*
G75*
G02*
X122000000Y-93687500I0J-62500D01*
G01*
G37*
G04 #@! TD.AperFunction*
G04 #@! TA.AperFunction,SMDPad,CuDef*
G36*
G01*
X122000000Y-93187500D02*
X122000000Y-93312500D01*
G75*
G02*
X121937500Y-93375000I-62500J0D01*
G01*
X121187500Y-93375000D01*
G75*
G02*
X121125000Y-93312500I0J62500D01*
G01*
X121125000Y-93187500D01*
G75*
G02*
X121187500Y-93125000I62500J0D01*
G01*
X121937500Y-93125000D01*
G75*
G02*
X122000000Y-93187500I0J-62500D01*
G01*
G37*
G04 #@! TD.AperFunction*
G04 #@! TA.AperFunction,SMDPad,CuDef*
G36*
G01*
X122000000Y-92687500D02*
X122000000Y-92812500D01*
G75*
G02*
X121937500Y-92875000I-62500J0D01*
G01*
X121187500Y-92875000D01*
G75*
G02*
X121125000Y-92812500I0J62500D01*
G01*
X121125000Y-92687500D01*
G75*
G02*
X121187500Y-92625000I62500J0D01*
G01*
X121937500Y-92625000D01*
G75*
G02*
X122000000Y-92687500I0J-62500D01*
G01*
G37*
G04 #@! TD.AperFunction*
G04 #@! TA.AperFunction,SMDPad,CuDef*
G36*
G01*
X122000000Y-92187500D02*
X122000000Y-92312500D01*
G75*
G02*
X121937500Y-92375000I-62500J0D01*
G01*
X121187500Y-92375000D01*
G75*
G02*
X121125000Y-92312500I0J62500D01*
G01*
X121125000Y-92187500D01*
G75*
G02*
X121187500Y-92125000I62500J0D01*
G01*
X121937500Y-92125000D01*
G75*
G02*
X122000000Y-92187500I0J-62500D01*
G01*
G37*
G04 #@! TD.AperFunction*
G04 #@! TA.AperFunction,SMDPad,CuDef*
G36*
G01*
X122000000Y-91687500D02*
X122000000Y-91812500D01*
G75*
G02*
X121937500Y-91875000I-62500J0D01*
G01*
X121187500Y-91875000D01*
G75*
G02*
X121125000Y-91812500I0J62500D01*
G01*
X121125000Y-91687500D01*
G75*
G02*
X121187500Y-91625000I62500J0D01*
G01*
X121937500Y-91625000D01*
G75*
G02*
X122000000Y-91687500I0J-62500D01*
G01*
G37*
G04 #@! TD.AperFunction*
G04 #@! TA.AperFunction,SMDPad,CuDef*
G36*
G01*
X122000000Y-91187500D02*
X122000000Y-91312500D01*
G75*
G02*
X121937500Y-91375000I-62500J0D01*
G01*
X121187500Y-91375000D01*
G75*
G02*
X121125000Y-91312500I0J62500D01*
G01*
X121125000Y-91187500D01*
G75*
G02*
X121187500Y-91125000I62500J0D01*
G01*
X121937500Y-91125000D01*
G75*
G02*
X122000000Y-91187500I0J-62500D01*
G01*
G37*
G04 #@! TD.AperFunction*
G04 #@! TA.AperFunction,SMDPad,CuDef*
G36*
G01*
X122375000Y-90187500D02*
X122375000Y-90937500D01*
G75*
G02*
X122312500Y-91000000I-62500J0D01*
G01*
X122187500Y-91000000D01*
G75*
G02*
X122125000Y-90937500I0J62500D01*
G01*
X122125000Y-90187500D01*
G75*
G02*
X122187500Y-90125000I62500J0D01*
G01*
X122312500Y-90125000D01*
G75*
G02*
X122375000Y-90187500I0J-62500D01*
G01*
G37*
G04 #@! TD.AperFunction*
G04 #@! TA.AperFunction,SMDPad,CuDef*
G36*
G01*
X122875000Y-90187500D02*
X122875000Y-90937500D01*
G75*
G02*
X122812500Y-91000000I-62500J0D01*
G01*
X122687500Y-91000000D01*
G75*
G02*
X122625000Y-90937500I0J62500D01*
G01*
X122625000Y-90187500D01*
G75*
G02*
X122687500Y-90125000I62500J0D01*
G01*
X122812500Y-90125000D01*
G75*
G02*
X122875000Y-90187500I0J-62500D01*
G01*
G37*
G04 #@! TD.AperFunction*
G04 #@! TA.AperFunction,SMDPad,CuDef*
G36*
G01*
X123375000Y-90187500D02*
X123375000Y-90937500D01*
G75*
G02*
X123312500Y-91000000I-62500J0D01*
G01*
X123187500Y-91000000D01*
G75*
G02*
X123125000Y-90937500I0J62500D01*
G01*
X123125000Y-90187500D01*
G75*
G02*
X123187500Y-90125000I62500J0D01*
G01*
X123312500Y-90125000D01*
G75*
G02*
X123375000Y-90187500I0J-62500D01*
G01*
G37*
G04 #@! TD.AperFunction*
G04 #@! TA.AperFunction,SMDPad,CuDef*
G36*
G01*
X123875000Y-90187500D02*
X123875000Y-90937500D01*
G75*
G02*
X123812500Y-91000000I-62500J0D01*
G01*
X123687500Y-91000000D01*
G75*
G02*
X123625000Y-90937500I0J62500D01*
G01*
X123625000Y-90187500D01*
G75*
G02*
X123687500Y-90125000I62500J0D01*
G01*
X123812500Y-90125000D01*
G75*
G02*
X123875000Y-90187500I0J-62500D01*
G01*
G37*
G04 #@! TD.AperFunction*
G04 #@! TA.AperFunction,SMDPad,CuDef*
G36*
G01*
X124375000Y-90187500D02*
X124375000Y-90937500D01*
G75*
G02*
X124312500Y-91000000I-62500J0D01*
G01*
X124187500Y-91000000D01*
G75*
G02*
X124125000Y-90937500I0J62500D01*
G01*
X124125000Y-90187500D01*
G75*
G02*
X124187500Y-90125000I62500J0D01*
G01*
X124312500Y-90125000D01*
G75*
G02*
X124375000Y-90187500I0J-62500D01*
G01*
G37*
G04 #@! TD.AperFunction*
G04 #@! TA.AperFunction,SMDPad,CuDef*
G36*
G01*
X124875000Y-90187500D02*
X124875000Y-90937500D01*
G75*
G02*
X124812500Y-91000000I-62500J0D01*
G01*
X124687500Y-91000000D01*
G75*
G02*
X124625000Y-90937500I0J62500D01*
G01*
X124625000Y-90187500D01*
G75*
G02*
X124687500Y-90125000I62500J0D01*
G01*
X124812500Y-90125000D01*
G75*
G02*
X124875000Y-90187500I0J-62500D01*
G01*
G37*
G04 #@! TD.AperFunction*
G04 #@! TA.AperFunction,SMDPad,CuDef*
G36*
G01*
X125375000Y-90187500D02*
X125375000Y-90937500D01*
G75*
G02*
X125312500Y-91000000I-62500J0D01*
G01*
X125187500Y-91000000D01*
G75*
G02*
X125125000Y-90937500I0J62500D01*
G01*
X125125000Y-90187500D01*
G75*
G02*
X125187500Y-90125000I62500J0D01*
G01*
X125312500Y-90125000D01*
G75*
G02*
X125375000Y-90187500I0J-62500D01*
G01*
G37*
G04 #@! TD.AperFunction*
G04 #@! TA.AperFunction,SMDPad,CuDef*
G36*
G01*
X125875000Y-90187500D02*
X125875000Y-90937500D01*
G75*
G02*
X125812500Y-91000000I-62500J0D01*
G01*
X125687500Y-91000000D01*
G75*
G02*
X125625000Y-90937500I0J62500D01*
G01*
X125625000Y-90187500D01*
G75*
G02*
X125687500Y-90125000I62500J0D01*
G01*
X125812500Y-90125000D01*
G75*
G02*
X125875000Y-90187500I0J-62500D01*
G01*
G37*
G04 #@! TD.AperFunction*
G04 #@! TA.AperFunction,SMDPad,CuDef*
G36*
G01*
X126375000Y-90187500D02*
X126375000Y-90937500D01*
G75*
G02*
X126312500Y-91000000I-62500J0D01*
G01*
X126187500Y-91000000D01*
G75*
G02*
X126125000Y-90937500I0J62500D01*
G01*
X126125000Y-90187500D01*
G75*
G02*
X126187500Y-90125000I62500J0D01*
G01*
X126312500Y-90125000D01*
G75*
G02*
X126375000Y-90187500I0J-62500D01*
G01*
G37*
G04 #@! TD.AperFunction*
G04 #@! TA.AperFunction,SMDPad,CuDef*
G36*
G01*
X126875000Y-90187500D02*
X126875000Y-90937500D01*
G75*
G02*
X126812500Y-91000000I-62500J0D01*
G01*
X126687500Y-91000000D01*
G75*
G02*
X126625000Y-90937500I0J62500D01*
G01*
X126625000Y-90187500D01*
G75*
G02*
X126687500Y-90125000I62500J0D01*
G01*
X126812500Y-90125000D01*
G75*
G02*
X126875000Y-90187500I0J-62500D01*
G01*
G37*
G04 #@! TD.AperFunction*
G04 #@! TA.AperFunction,SMDPad,CuDef*
G36*
G01*
X127375000Y-90187500D02*
X127375000Y-90937500D01*
G75*
G02*
X127312500Y-91000000I-62500J0D01*
G01*
X127187500Y-91000000D01*
G75*
G02*
X127125000Y-90937500I0J62500D01*
G01*
X127125000Y-90187500D01*
G75*
G02*
X127187500Y-90125000I62500J0D01*
G01*
X127312500Y-90125000D01*
G75*
G02*
X127375000Y-90187500I0J-62500D01*
G01*
G37*
G04 #@! TD.AperFunction*
G04 #@! TA.AperFunction,SMDPad,CuDef*
G36*
G01*
X127875000Y-90187500D02*
X127875000Y-90937500D01*
G75*
G02*
X127812500Y-91000000I-62500J0D01*
G01*
X127687500Y-91000000D01*
G75*
G02*
X127625000Y-90937500I0J62500D01*
G01*
X127625000Y-90187500D01*
G75*
G02*
X127687500Y-90125000I62500J0D01*
G01*
X127812500Y-90125000D01*
G75*
G02*
X127875000Y-90187500I0J-62500D01*
G01*
G37*
G04 #@! TD.AperFunction*
G04 #@! TA.AperFunction,SMDPad,CuDef*
G36*
G01*
X128875000Y-91187500D02*
X128875000Y-91312500D01*
G75*
G02*
X128812500Y-91375000I-62500J0D01*
G01*
X128062500Y-91375000D01*
G75*
G02*
X128000000Y-91312500I0J62500D01*
G01*
X128000000Y-91187500D01*
G75*
G02*
X128062500Y-91125000I62500J0D01*
G01*
X128812500Y-91125000D01*
G75*
G02*
X128875000Y-91187500I0J-62500D01*
G01*
G37*
G04 #@! TD.AperFunction*
G04 #@! TA.AperFunction,SMDPad,CuDef*
G36*
G01*
X128875000Y-91687500D02*
X128875000Y-91812500D01*
G75*
G02*
X128812500Y-91875000I-62500J0D01*
G01*
X128062500Y-91875000D01*
G75*
G02*
X128000000Y-91812500I0J62500D01*
G01*
X128000000Y-91687500D01*
G75*
G02*
X128062500Y-91625000I62500J0D01*
G01*
X128812500Y-91625000D01*
G75*
G02*
X128875000Y-91687500I0J-62500D01*
G01*
G37*
G04 #@! TD.AperFunction*
G04 #@! TA.AperFunction,SMDPad,CuDef*
G36*
G01*
X128875000Y-92187500D02*
X128875000Y-92312500D01*
G75*
G02*
X128812500Y-92375000I-62500J0D01*
G01*
X128062500Y-92375000D01*
G75*
G02*
X128000000Y-92312500I0J62500D01*
G01*
X128000000Y-92187500D01*
G75*
G02*
X128062500Y-92125000I62500J0D01*
G01*
X128812500Y-92125000D01*
G75*
G02*
X128875000Y-92187500I0J-62500D01*
G01*
G37*
G04 #@! TD.AperFunction*
G04 #@! TA.AperFunction,SMDPad,CuDef*
G36*
G01*
X128875000Y-92687500D02*
X128875000Y-92812500D01*
G75*
G02*
X128812500Y-92875000I-62500J0D01*
G01*
X128062500Y-92875000D01*
G75*
G02*
X128000000Y-92812500I0J62500D01*
G01*
X128000000Y-92687500D01*
G75*
G02*
X128062500Y-92625000I62500J0D01*
G01*
X128812500Y-92625000D01*
G75*
G02*
X128875000Y-92687500I0J-62500D01*
G01*
G37*
G04 #@! TD.AperFunction*
G04 #@! TA.AperFunction,SMDPad,CuDef*
G36*
G01*
X128875000Y-93187500D02*
X128875000Y-93312500D01*
G75*
G02*
X128812500Y-93375000I-62500J0D01*
G01*
X128062500Y-93375000D01*
G75*
G02*
X128000000Y-93312500I0J62500D01*
G01*
X128000000Y-93187500D01*
G75*
G02*
X128062500Y-93125000I62500J0D01*
G01*
X128812500Y-93125000D01*
G75*
G02*
X128875000Y-93187500I0J-62500D01*
G01*
G37*
G04 #@! TD.AperFunction*
G04 #@! TA.AperFunction,SMDPad,CuDef*
G36*
G01*
X128875000Y-93687500D02*
X128875000Y-93812500D01*
G75*
G02*
X128812500Y-93875000I-62500J0D01*
G01*
X128062500Y-93875000D01*
G75*
G02*
X128000000Y-93812500I0J62500D01*
G01*
X128000000Y-93687500D01*
G75*
G02*
X128062500Y-93625000I62500J0D01*
G01*
X128812500Y-93625000D01*
G75*
G02*
X128875000Y-93687500I0J-62500D01*
G01*
G37*
G04 #@! TD.AperFunction*
G04 #@! TA.AperFunction,SMDPad,CuDef*
G36*
G01*
X128875000Y-94187500D02*
X128875000Y-94312500D01*
G75*
G02*
X128812500Y-94375000I-62500J0D01*
G01*
X128062500Y-94375000D01*
G75*
G02*
X128000000Y-94312500I0J62500D01*
G01*
X128000000Y-94187500D01*
G75*
G02*
X128062500Y-94125000I62500J0D01*
G01*
X128812500Y-94125000D01*
G75*
G02*
X128875000Y-94187500I0J-62500D01*
G01*
G37*
G04 #@! TD.AperFunction*
G04 #@! TA.AperFunction,SMDPad,CuDef*
G36*
G01*
X128875000Y-94687500D02*
X128875000Y-94812500D01*
G75*
G02*
X128812500Y-94875000I-62500J0D01*
G01*
X128062500Y-94875000D01*
G75*
G02*
X128000000Y-94812500I0J62500D01*
G01*
X128000000Y-94687500D01*
G75*
G02*
X128062500Y-94625000I62500J0D01*
G01*
X128812500Y-94625000D01*
G75*
G02*
X128875000Y-94687500I0J-62500D01*
G01*
G37*
G04 #@! TD.AperFunction*
G04 #@! TA.AperFunction,SMDPad,CuDef*
G36*
G01*
X128875000Y-95187500D02*
X128875000Y-95312500D01*
G75*
G02*
X128812500Y-95375000I-62500J0D01*
G01*
X128062500Y-95375000D01*
G75*
G02*
X128000000Y-95312500I0J62500D01*
G01*
X128000000Y-95187500D01*
G75*
G02*
X128062500Y-95125000I62500J0D01*
G01*
X128812500Y-95125000D01*
G75*
G02*
X128875000Y-95187500I0J-62500D01*
G01*
G37*
G04 #@! TD.AperFunction*
G04 #@! TA.AperFunction,SMDPad,CuDef*
G36*
G01*
X128875000Y-95687500D02*
X128875000Y-95812500D01*
G75*
G02*
X128812500Y-95875000I-62500J0D01*
G01*
X128062500Y-95875000D01*
G75*
G02*
X128000000Y-95812500I0J62500D01*
G01*
X128000000Y-95687500D01*
G75*
G02*
X128062500Y-95625000I62500J0D01*
G01*
X128812500Y-95625000D01*
G75*
G02*
X128875000Y-95687500I0J-62500D01*
G01*
G37*
G04 #@! TD.AperFunction*
G04 #@! TA.AperFunction,SMDPad,CuDef*
G36*
G01*
X128875000Y-96187500D02*
X128875000Y-96312500D01*
G75*
G02*
X128812500Y-96375000I-62500J0D01*
G01*
X128062500Y-96375000D01*
G75*
G02*
X128000000Y-96312500I0J62500D01*
G01*
X128000000Y-96187500D01*
G75*
G02*
X128062500Y-96125000I62500J0D01*
G01*
X128812500Y-96125000D01*
G75*
G02*
X128875000Y-96187500I0J-62500D01*
G01*
G37*
G04 #@! TD.AperFunction*
G04 #@! TA.AperFunction,SMDPad,CuDef*
G36*
G01*
X128875000Y-96687500D02*
X128875000Y-96812500D01*
G75*
G02*
X128812500Y-96875000I-62500J0D01*
G01*
X128062500Y-96875000D01*
G75*
G02*
X128000000Y-96812500I0J62500D01*
G01*
X128000000Y-96687500D01*
G75*
G02*
X128062500Y-96625000I62500J0D01*
G01*
X128812500Y-96625000D01*
G75*
G02*
X128875000Y-96687500I0J-62500D01*
G01*
G37*
G04 #@! TD.AperFunction*
G04 #@! TA.AperFunction,SMDPad,CuDef*
G36*
G01*
X122856396Y-87010001D02*
X122219999Y-86373604D01*
G75*
G02*
X122219999Y-86020052I176776J176776D01*
G01*
X122679620Y-85560431D01*
G75*
G02*
X123033172Y-85560431I176776J-176776D01*
G01*
X123669569Y-86196828D01*
G75*
G02*
X123669569Y-86550380I-176776J-176776D01*
G01*
X123209948Y-87010001D01*
G75*
G02*
X122856396Y-87010001I-176776J176776D01*
G01*
G37*
G04 #@! TD.AperFunction*
G04 #@! TA.AperFunction,SMDPad,CuDef*
G36*
G01*
X121406828Y-88459569D02*
X120770431Y-87823172D01*
G75*
G02*
X120770431Y-87469620I176776J176776D01*
G01*
X121230052Y-87009999D01*
G75*
G02*
X121583604Y-87009999I176776J-176776D01*
G01*
X122220001Y-87646396D01*
G75*
G02*
X122220001Y-87999948I-176776J-176776D01*
G01*
X121760380Y-88459569D01*
G75*
G02*
X121406828Y-88459569I-176776J176776D01*
G01*
G37*
G04 #@! TD.AperFunction*
D25*
X129950000Y-99080000D03*
X130460000Y-103950000D03*
X139020000Y-99000000D03*
X135254283Y-95675636D03*
X138070000Y-92140000D03*
X123480000Y-105040000D03*
X120240000Y-117450000D03*
X125000000Y-94000000D03*
X126500000Y-94000000D03*
X123500000Y-94000000D03*
X123500000Y-92500000D03*
X125000000Y-92500000D03*
X126500000Y-92500000D03*
X125000000Y-95500000D03*
X123500000Y-95500000D03*
X126500000Y-95500000D03*
X109440000Y-89690000D03*
X110297823Y-100997823D03*
X116950000Y-91350000D03*
X115080000Y-96580000D03*
X116010000Y-95910000D03*
X128740000Y-98150000D03*
X119540000Y-96830000D03*
X121160000Y-89610000D03*
X131410000Y-88390000D03*
X115450000Y-103600000D03*
X123198000Y-100695229D03*
X133550000Y-93140000D03*
X109830000Y-114940000D03*
X125198000Y-103240000D03*
X124698000Y-102609877D03*
X124198000Y-101940322D03*
X123698000Y-101296678D03*
X114427755Y-96901105D03*
X113590000Y-95900000D03*
X113580000Y-94450000D03*
X118060000Y-91720000D03*
X118770000Y-91240000D03*
X119592386Y-91056046D03*
X120280000Y-90820000D03*
X123698000Y-88195231D03*
X124198000Y-87615547D03*
X124698000Y-86983596D03*
X125198000Y-86400000D03*
D26*
X128437500Y-96750000D02*
X129140000Y-96750000D01*
X129140000Y-96750000D02*
X130010000Y-97620000D01*
X130010000Y-98990000D02*
X130010000Y-99020000D01*
X130010000Y-97620000D02*
X130010000Y-98990000D01*
X130010000Y-99020000D02*
X129950000Y-99080000D01*
X130010000Y-98990000D02*
X130010000Y-99180000D01*
X130460000Y-103950000D02*
X131120000Y-104610000D01*
X131120000Y-104610000D02*
X131120000Y-112970000D01*
X131120000Y-112970000D02*
X129510000Y-114580000D01*
X124260000Y-114580000D02*
X122220000Y-112540000D01*
X129510000Y-114580000D02*
X124260000Y-114580000D01*
X134728399Y-96232001D02*
X136277999Y-96232001D01*
X136277999Y-96232001D02*
X137230000Y-95280000D01*
X133246398Y-94750000D02*
X134728399Y-96232001D01*
X128437500Y-94750000D02*
X133246398Y-94750000D01*
X137940000Y-94570000D02*
X137230000Y-95280000D01*
X139180000Y-94570000D02*
X137940000Y-94570000D01*
X122750000Y-91750000D02*
X125000000Y-94000000D01*
X122750000Y-90562500D02*
X122750000Y-91750000D01*
X121562500Y-96250000D02*
X122750000Y-96250000D01*
X127250000Y-97437500D02*
X127250000Y-96250000D01*
X125750000Y-93250000D02*
X125000000Y-94000000D01*
X128437500Y-93250000D02*
X125750000Y-93250000D01*
X136950000Y-92800000D02*
X137230000Y-93080000D01*
X136950000Y-91000000D02*
X136950000Y-92800000D01*
X137760000Y-93610000D02*
X137230000Y-93080000D01*
X139180000Y-93610000D02*
X137760000Y-93610000D01*
X139020000Y-97720000D02*
X139020000Y-99000000D01*
X139020000Y-99000000D02*
X139020000Y-100260000D01*
X135530000Y-95399919D02*
X135254283Y-95675636D01*
X135530000Y-95280000D02*
X135530000Y-95399919D01*
X137230000Y-92980000D02*
X138070000Y-92140000D01*
X137230000Y-93080000D02*
X137230000Y-92980000D01*
X135530000Y-95280000D02*
X135530000Y-95180000D01*
X135530000Y-95180000D02*
X136670000Y-94040000D01*
X136670000Y-93640000D02*
X137230000Y-93080000D01*
X136670000Y-94040000D02*
X136670000Y-93640000D01*
X123490000Y-105050000D02*
X123480000Y-105040000D01*
X124100000Y-105050000D02*
X123490000Y-105050000D01*
X117797970Y-118642000D02*
X118899970Y-117540000D01*
X112364500Y-118642000D02*
X117797970Y-118642000D01*
X111262500Y-117540000D02*
X112364500Y-118642000D01*
X120150000Y-117540000D02*
X120240000Y-117450000D01*
X118899970Y-117540000D02*
X120150000Y-117540000D01*
X143020000Y-87190000D02*
X138070000Y-92140000D01*
X143529970Y-87190000D02*
X143020000Y-87190000D01*
X132740000Y-105280000D02*
X137460000Y-110000000D01*
X132350000Y-105280000D02*
X132740000Y-105280000D01*
X126480000Y-94000000D02*
X126500000Y-93980000D01*
X125000000Y-94000000D02*
X126480000Y-94000000D01*
X123630000Y-94000000D02*
X123620000Y-94010000D01*
X125000000Y-94000000D02*
X123630000Y-94000000D01*
X124760000Y-94000000D02*
X123580000Y-92820000D01*
X125000000Y-94000000D02*
X124760000Y-94000000D01*
X125000000Y-92850000D02*
X124970000Y-92820000D01*
X125000000Y-94000000D02*
X125000000Y-92850000D01*
X125250000Y-94000000D02*
X126380000Y-92870000D01*
X125000000Y-94000000D02*
X125250000Y-94000000D01*
X125000000Y-94000000D02*
X125000000Y-95310000D01*
X125000000Y-95410000D02*
X124960000Y-95450000D01*
X125000000Y-94000000D02*
X125000000Y-95410000D01*
X125000000Y-94000000D02*
X123645000Y-95355000D01*
X122750000Y-96250000D02*
X123645000Y-95355000D01*
X125000000Y-94000000D02*
X126365000Y-95365000D01*
X127250000Y-96250000D02*
X126365000Y-95365000D01*
X122750000Y-90562500D02*
X122750000Y-89680000D01*
X121495216Y-88425216D02*
X121495216Y-87734784D01*
X122750000Y-89680000D02*
X121495216Y-88425216D01*
X120741283Y-88488717D02*
X121495216Y-87734784D01*
X120091283Y-88488717D02*
X120741283Y-88488717D01*
X127250000Y-99782500D02*
X127730000Y-100262500D01*
X127250000Y-97437500D02*
X127250000Y-99782500D01*
X118142500Y-96250000D02*
X117532500Y-96860000D01*
X121562500Y-96250000D02*
X118142500Y-96250000D01*
X103650000Y-76870000D02*
X103470000Y-76870000D01*
X102500000Y-77840000D02*
X102500000Y-83160000D01*
X103470000Y-76870000D02*
X102500000Y-77840000D01*
D27*
X108205000Y-91750000D02*
X109160000Y-91750000D01*
X109160000Y-91750000D02*
X109990000Y-90920000D01*
X109990000Y-90240000D02*
X109440000Y-89690000D01*
X109990000Y-90920000D02*
X109990000Y-90240000D01*
X102500000Y-83160000D02*
X102080000Y-83160000D01*
X104447206Y-75977990D02*
X113117990Y-75977990D01*
X113117990Y-75977990D02*
X114600000Y-77460000D01*
X102080000Y-78345196D02*
X104447206Y-75977990D01*
X102080000Y-83160000D02*
X102080000Y-78345196D01*
D26*
X107740000Y-102400000D02*
X107770000Y-102370000D01*
X106760000Y-102400000D02*
X107740000Y-102400000D01*
D27*
X108205000Y-98250000D02*
X109580000Y-98250000D01*
X109580000Y-98250000D02*
X110640000Y-99310000D01*
X110640000Y-100655646D02*
X110297823Y-100997823D01*
X110640000Y-99310000D02*
X110640000Y-100655646D01*
D26*
X108925646Y-102370000D02*
X110297823Y-100997823D01*
X107770000Y-102370000D02*
X108925646Y-102370000D01*
X134360000Y-94250000D02*
X135530000Y-93080000D01*
X128437500Y-94250000D02*
X134360000Y-94250000D01*
X135990000Y-92620000D02*
X135530000Y-93080000D01*
X135990000Y-91000000D02*
X135990000Y-92620000D01*
X123250000Y-90562500D02*
X123250000Y-89040000D01*
X122944784Y-88734784D02*
X122944784Y-86285216D01*
X123250000Y-89040000D02*
X122944784Y-88734784D01*
X121562500Y-93750000D02*
X120280000Y-93750000D01*
X116950000Y-91960134D02*
X116950000Y-91350000D01*
X118739866Y-93750000D02*
X116950000Y-91960134D01*
X120280000Y-93750000D02*
X118739866Y-93750000D01*
X114231897Y-96280001D02*
X114780001Y-96280001D01*
X114780001Y-96280001D02*
X115080000Y-96580000D01*
X122250000Y-97437500D02*
X122250000Y-98202990D01*
X122250000Y-98202990D02*
X122080000Y-98372990D01*
X122080000Y-98372990D02*
X116432990Y-98372990D01*
X115080000Y-97020000D02*
X115080000Y-96580000D01*
X116432990Y-98372990D02*
X115080000Y-97020000D01*
X105325000Y-107730000D02*
X106550000Y-107730000D01*
X106550000Y-107730000D02*
X113620000Y-100660000D01*
X113620000Y-96891898D02*
X114231897Y-96280001D01*
X113620000Y-100660000D02*
X113620000Y-96891898D01*
X121562500Y-94250000D02*
X120550000Y-94250000D01*
X118706694Y-94250000D02*
X116397999Y-91941305D01*
X120550000Y-94250000D02*
X118706694Y-94250000D01*
X120550000Y-94250000D02*
X120270000Y-94250000D01*
X116397999Y-91941305D02*
X116397999Y-88252001D01*
X116397999Y-88252001D02*
X123500000Y-81150000D01*
X123500000Y-78740000D02*
X122220000Y-77460000D01*
X123500000Y-81150000D02*
X123500000Y-78740000D01*
X120270000Y-95750000D02*
X116170000Y-95750000D01*
X116170000Y-95750000D02*
X116010000Y-95910000D01*
X121562500Y-95750000D02*
X120270000Y-95750000D01*
X120270000Y-95750000D02*
X119880000Y-95750000D01*
X128027500Y-97437500D02*
X128740000Y-98150000D01*
X127750000Y-97437500D02*
X128027500Y-97437500D01*
X119620000Y-96750000D02*
X119540000Y-96830000D01*
X121562500Y-96750000D02*
X119620000Y-96750000D01*
X122112500Y-90562500D02*
X121160000Y-89610000D01*
X122250000Y-90562500D02*
X122112500Y-90562500D01*
X131750000Y-88730000D02*
X131410000Y-88390000D01*
X131750000Y-89285000D02*
X131750000Y-88730000D01*
X115610000Y-103760000D02*
X115450000Y-103600000D01*
X117920030Y-103760000D02*
X115610000Y-103760000D01*
X128740000Y-100465000D02*
X129545000Y-101270000D01*
X128740000Y-98150000D02*
X128740000Y-100465000D01*
X119607434Y-89610000D02*
X119288717Y-89291283D01*
X121160000Y-89610000D02*
X119607434Y-89610000D01*
X129417500Y-101397500D02*
X129545000Y-101270000D01*
X127730000Y-101397500D02*
X129417500Y-101397500D01*
X118697500Y-96830000D02*
X118667500Y-96860000D01*
X119540000Y-96830000D02*
X118697500Y-96830000D01*
D28*
X102500000Y-85460000D02*
X108800000Y-85460000D01*
D26*
X108515000Y-77460000D02*
X107935000Y-76880000D01*
X112060000Y-77460000D02*
X108515000Y-77460000D01*
D29*
X108800000Y-83260000D02*
X112060000Y-80000000D01*
X108800000Y-85460000D02*
X108800000Y-83260000D01*
X112060000Y-80000000D02*
X112060000Y-77460000D01*
D26*
X123250000Y-97437500D02*
X123250000Y-99710000D01*
X123250000Y-100643229D02*
X123198000Y-100695229D01*
X123250000Y-99710000D02*
X123250000Y-100643229D01*
X123198000Y-100979716D02*
X115937716Y-108240000D01*
X123198000Y-100695229D02*
X123198000Y-100979716D01*
X112189038Y-108240000D02*
X109300000Y-111129038D01*
X115937716Y-108240000D02*
X112189038Y-108240000D01*
X109300000Y-111129038D02*
X109300000Y-112500000D01*
X109300000Y-112500000D02*
X107950000Y-113850000D01*
X107950000Y-113850000D02*
X103180000Y-113850000D01*
X103180000Y-113850000D02*
X101710000Y-112380000D01*
X101710000Y-112380000D02*
X101710000Y-111570000D01*
X103010000Y-110270000D02*
X104055000Y-110270000D01*
X101710000Y-111570000D02*
X103010000Y-110270000D01*
X132940000Y-93750000D02*
X133550000Y-93140000D01*
X128437500Y-93750000D02*
X132940000Y-93750000D01*
X114300030Y-117540000D02*
X112397500Y-117540000D01*
X114300030Y-117540000D02*
X114300030Y-117030030D01*
X114300030Y-117030030D02*
X112210000Y-114940000D01*
X112210000Y-114940000D02*
X109830000Y-114940000D01*
X126750000Y-108960000D02*
X126040000Y-109670000D01*
X126750000Y-97437500D02*
X126750000Y-108960000D01*
X126040000Y-111260000D02*
X124760000Y-112540000D01*
X126040000Y-109670000D02*
X126040000Y-111260000D01*
X126250000Y-108510000D02*
X124760000Y-110000000D01*
X126250000Y-97437500D02*
X126250000Y-108510000D01*
X125750000Y-97437500D02*
X125750000Y-98890000D01*
X125750000Y-98890000D02*
X125750000Y-99050000D01*
X125750000Y-104420000D02*
X125120000Y-105050000D01*
X125750000Y-98890000D02*
X125750000Y-104420000D01*
X123830000Y-103760000D02*
X122519970Y-103760000D01*
X125120000Y-105050000D02*
X123830000Y-103760000D01*
X125250000Y-97437500D02*
X125250000Y-99610000D01*
X125250000Y-103188000D02*
X125198000Y-103240000D01*
X125250000Y-99610000D02*
X125250000Y-103188000D01*
X124750000Y-97437500D02*
X124750000Y-99690000D01*
X124750000Y-102557877D02*
X124698000Y-102609877D01*
X124750000Y-99690000D02*
X124750000Y-102557877D01*
X124250000Y-97437500D02*
X124250000Y-99670000D01*
X124250000Y-101888322D02*
X124198000Y-101940322D01*
X124250000Y-99670000D02*
X124250000Y-101888322D01*
X123750000Y-97437500D02*
X123750000Y-99670000D01*
X123750000Y-101244678D02*
X123698000Y-101296678D01*
X123750000Y-99670000D02*
X123750000Y-101244678D01*
X122750000Y-97437500D02*
X122750000Y-98430000D01*
X122750000Y-98430000D02*
X122430000Y-98750000D01*
X116276650Y-98750000D02*
X114427755Y-96901105D01*
X122430000Y-98750000D02*
X116276650Y-98750000D01*
X121562500Y-95250000D02*
X108205000Y-95250000D01*
X108205000Y-94250000D02*
X111970000Y-94250000D01*
X111970000Y-94250000D02*
X115320000Y-90900000D01*
X115320000Y-90900000D02*
X115320000Y-85140000D01*
X115320000Y-85140000D02*
X118420000Y-82040000D01*
X118420000Y-78720000D02*
X119680000Y-77460000D01*
X118420000Y-82040000D02*
X118420000Y-78720000D01*
X108205000Y-94250000D02*
X106000000Y-94250000D01*
X108205000Y-95250000D02*
X106000000Y-95250000D01*
X106000000Y-95250000D02*
X106000000Y-94250000D01*
X116020989Y-94589011D02*
X115860000Y-94750000D01*
X116020989Y-86199011D02*
X116020989Y-94589011D01*
X122220000Y-80000000D02*
X116020989Y-86199011D01*
X121562500Y-94750000D02*
X115860000Y-94750000D01*
X113440000Y-95750000D02*
X113590000Y-95900000D01*
X108205000Y-95750000D02*
X113440000Y-95750000D01*
X113280000Y-94750000D02*
X113180000Y-94750000D01*
X113580000Y-94450000D02*
X113280000Y-94750000D01*
X113180000Y-94750000D02*
X108205000Y-94750000D01*
X115860000Y-94750000D02*
X113180000Y-94750000D01*
X121562500Y-93250000D02*
X120540000Y-93250000D01*
X120540000Y-93250000D02*
X120210000Y-93250000D01*
X118773038Y-93250000D02*
X120540000Y-93250000D01*
X117502001Y-88827999D02*
X117502001Y-91978963D01*
X117502001Y-91978963D02*
X118773038Y-93250000D01*
X119557999Y-86772001D02*
X117502001Y-88827999D01*
X119618961Y-86772001D02*
X119557999Y-86772001D01*
X126030000Y-80360962D02*
X119618961Y-86772001D01*
X126030000Y-78730000D02*
X126030000Y-80360962D01*
X124760000Y-77460000D02*
X126030000Y-78730000D01*
X120510000Y-92750000D02*
X119090000Y-92750000D01*
X121562500Y-92750000D02*
X120510000Y-92750000D01*
X119090000Y-92750000D02*
X118060000Y-91720000D01*
X120510000Y-92750000D02*
X120140000Y-92750000D01*
X121562500Y-92250000D02*
X120120000Y-92250000D01*
X119780000Y-92250000D02*
X118770000Y-91240000D01*
X120120000Y-92250000D02*
X119780000Y-92250000D01*
X120286340Y-91750000D02*
X119592386Y-91056046D01*
X121562500Y-91750000D02*
X120286340Y-91750000D01*
X120710000Y-91250000D02*
X120280000Y-90820000D01*
X121562500Y-91250000D02*
X120710000Y-91250000D01*
X123750000Y-90562500D02*
X123750000Y-89050000D01*
X123750000Y-88247231D02*
X123698000Y-88195231D01*
X123750000Y-89050000D02*
X123750000Y-88247231D01*
X124250000Y-90562500D02*
X124250000Y-88650000D01*
X124250000Y-87667547D02*
X124198000Y-87615547D01*
X124250000Y-88650000D02*
X124250000Y-87667547D01*
X132380000Y-106330000D02*
X132350000Y-106300000D01*
X132380000Y-110000000D02*
X132380000Y-106330000D01*
X124750000Y-90562500D02*
X124750000Y-88810000D01*
X124750000Y-88810000D02*
X124750000Y-88081522D01*
X124750000Y-87035596D02*
X124698000Y-86983596D01*
X124750000Y-88081522D02*
X124750000Y-87035596D01*
X125250000Y-90562500D02*
X125250000Y-88620000D01*
X125250000Y-88620000D02*
X125250000Y-86910000D01*
X125250000Y-86452000D02*
X125198000Y-86400000D01*
X125250000Y-86910000D02*
X125250000Y-86452000D01*
X125750000Y-90562500D02*
X125750000Y-90490000D01*
X125750000Y-88860000D02*
X125750000Y-81550000D01*
X125750000Y-81550000D02*
X127300000Y-80000000D01*
X125750000Y-90562500D02*
X125750000Y-88860000D01*
X125750000Y-88860000D02*
X125750000Y-88640000D01*
X126250000Y-82680962D02*
X128402001Y-80528961D01*
X126250000Y-90562500D02*
X126250000Y-82680962D01*
X128402001Y-80528961D02*
X128402001Y-80517999D01*
X128402001Y-80517999D02*
X128560000Y-80360000D01*
X128560000Y-78720000D02*
X127300000Y-77460000D01*
X128560000Y-80360000D02*
X128560000Y-78720000D01*
X126750000Y-83090000D02*
X129840000Y-80000000D01*
X126750000Y-90562500D02*
X126750000Y-83090000D01*
X127250000Y-84220962D02*
X130942001Y-80528961D01*
X127250000Y-90562500D02*
X127250000Y-84220962D01*
X130942001Y-80528961D02*
X130942001Y-80527999D01*
X130942001Y-80527999D02*
X131120000Y-80350000D01*
X131120000Y-78740000D02*
X129840000Y-77460000D01*
X131120000Y-80350000D02*
X131120000Y-78740000D01*
X127750000Y-84630000D02*
X132380000Y-80000000D01*
X127750000Y-90562500D02*
X127750000Y-84630000D01*
X128437500Y-85573462D02*
X133650000Y-80360962D01*
X128437500Y-91250000D02*
X128437500Y-85573462D01*
X133650000Y-78730000D02*
X132380000Y-77460000D01*
X133650000Y-80360962D02*
X133650000Y-78730000D01*
X128875000Y-91750000D02*
X129300000Y-91325000D01*
X128437500Y-91750000D02*
X128875000Y-91750000D01*
X129300000Y-85620000D02*
X134920000Y-80000000D01*
X129300000Y-91325000D02*
X129300000Y-85620000D01*
X128908172Y-92250000D02*
X129930000Y-91228172D01*
X128437500Y-92250000D02*
X128908172Y-92250000D01*
X129930000Y-86620962D02*
X136190000Y-80360962D01*
X129930000Y-91228172D02*
X129930000Y-86620962D01*
X136190000Y-78730000D02*
X134920000Y-77460000D01*
X136190000Y-80360962D02*
X136190000Y-78730000D01*
X136190000Y-83190000D02*
X136110000Y-83270000D01*
X136190000Y-80360962D02*
X136190000Y-83190000D01*
X135643226Y-97680000D02*
X136270000Y-97680000D01*
X133213226Y-95250000D02*
X135643226Y-97680000D01*
X128437500Y-95250000D02*
X133213226Y-95250000D01*
X136310000Y-97720000D02*
X136270000Y-97680000D01*
X138060000Y-97720000D02*
X136310000Y-97720000D01*
X132486398Y-95750000D02*
X136270000Y-99533602D01*
X136270000Y-99533602D02*
X136270000Y-100180000D01*
X128437500Y-95750000D02*
X132486398Y-95750000D01*
X136350000Y-100260000D02*
X136270000Y-100180000D01*
X138060000Y-100260000D02*
X136350000Y-100260000D01*
X128437500Y-96250000D02*
X129810000Y-96250000D01*
X131300000Y-97740000D02*
X131300000Y-98360000D01*
X129810000Y-96250000D02*
X131300000Y-97740000D01*
D27*
X108205000Y-92550000D02*
X110930000Y-92550000D01*
X110930000Y-92550000D02*
X111600000Y-91880000D01*
X111600000Y-91880000D02*
X111600000Y-88720000D01*
X111600000Y-88720000D02*
X110850000Y-87970000D01*
X110850000Y-87970000D02*
X104450000Y-87970000D01*
X104240000Y-87760000D02*
X102500000Y-87760000D01*
X104450000Y-87970000D02*
X104240000Y-87760000D01*
X108205000Y-97450000D02*
X110290000Y-97450000D01*
X110290000Y-97450000D02*
X112500000Y-99660000D01*
X112500000Y-99660000D02*
X112500000Y-100950000D01*
X112500000Y-100950000D02*
X110130000Y-103320000D01*
X110130000Y-103320000D02*
X102370000Y-103320000D01*
X101882990Y-88377010D02*
X102500000Y-87760000D01*
X101882990Y-102832990D02*
X101882990Y-88377010D01*
X102370000Y-103320000D02*
X101882990Y-102832990D01*
D26*
X104680000Y-76880000D02*
X104670000Y-76870000D01*
X106185000Y-76880000D02*
X104680000Y-76880000D01*
X131930000Y-91215000D02*
X131750000Y-91035000D01*
X131930000Y-92750000D02*
X131930000Y-91215000D01*
X128437500Y-92750000D02*
X130910000Y-92750000D01*
X136110000Y-84369970D02*
X138930030Y-87190000D01*
X136110000Y-84290000D02*
X136110000Y-84369970D01*
X131300000Y-101265000D02*
X131295000Y-101270000D01*
X131300000Y-99380000D02*
X131300000Y-101265000D01*
X106790000Y-101410000D02*
X106760000Y-101380000D01*
X107770000Y-101410000D02*
X106790000Y-101410000D01*
X106760000Y-99850000D02*
X107290000Y-99320000D01*
X106760000Y-101380000D02*
X106760000Y-99850000D01*
D30*
X107290000Y-99320000D02*
X103110000Y-99320000D01*
X103110000Y-90680000D02*
X107290000Y-90680000D01*
X103110000Y-90680000D02*
X103110000Y-99320000D01*
M02*
