G04 #@! TF.GenerationSoftware,KiCad,Pcbnew,(5.1.10-1-10_14)*
G04 #@! TF.CreationDate,2021-08-26T00:22:11+08:00*
G04 #@! TF.ProjectId,stm32f401_devboard,73746d33-3266-4343-9031-5f646576626f,rev?*
G04 #@! TF.SameCoordinates,Original*
G04 #@! TF.FileFunction,Soldermask,Bot*
G04 #@! TF.FilePolarity,Negative*
%FSLAX46Y46*%
G04 Gerber Fmt 4.6, Leading zero omitted, Abs format (unit mm)*
G04 Created by KiCad (PCBNEW (5.1.10-1-10_14)) date 2021-08-26 00:22:11*
%MOMM*%
%LPD*%
G01*
G04 APERTURE LIST*
%ADD10O,1.802000X1.802000*%
%ADD11O,2.202000X1.102000*%
%ADD12C,0.752000*%
%ADD13O,1.702000X1.102000*%
%ADD14O,1.102000X1.102000*%
%ADD15C,0.100000*%
G04 APERTURE END LIST*
D10*
X112060000Y-112540000D03*
X112060000Y-110000000D03*
X114600000Y-112540000D03*
X114600000Y-110000000D03*
X117140000Y-112540000D03*
X117140000Y-110000000D03*
X119680000Y-112540000D03*
X119680000Y-110000000D03*
X122220000Y-112540000D03*
X122220000Y-110000000D03*
X124760000Y-112540000D03*
X124760000Y-110000000D03*
X127300000Y-112540000D03*
X127300000Y-110000000D03*
X129840000Y-112540000D03*
X129840000Y-110000000D03*
X132380000Y-112540000D03*
X132380000Y-110000000D03*
X134920000Y-112540000D03*
X134920000Y-110000000D03*
X137460000Y-112540000D03*
X137460000Y-110000000D03*
X140000000Y-112540000D03*
G36*
G01*
X139150000Y-109099000D02*
X140850000Y-109099000D01*
G75*
G02*
X140901000Y-109150000I0J-51000D01*
G01*
X140901000Y-110850000D01*
G75*
G02*
X140850000Y-110901000I-51000J0D01*
G01*
X139150000Y-110901000D01*
G75*
G02*
X139099000Y-110850000I0J51000D01*
G01*
X139099000Y-109150000D01*
G75*
G02*
X139150000Y-109099000I51000J0D01*
G01*
G37*
X112060000Y-80000000D03*
X112060000Y-77460000D03*
X114600000Y-80000000D03*
X114600000Y-77460000D03*
X117140000Y-80000000D03*
X117140000Y-77460000D03*
X119680000Y-80000000D03*
X119680000Y-77460000D03*
X122220000Y-80000000D03*
X122220000Y-77460000D03*
X124760000Y-80000000D03*
X124760000Y-77460000D03*
X127300000Y-80000000D03*
X127300000Y-77460000D03*
X129840000Y-80000000D03*
X129840000Y-77460000D03*
X132380000Y-80000000D03*
X132380000Y-77460000D03*
X134920000Y-80000000D03*
X134920000Y-77460000D03*
X137460000Y-80000000D03*
X137460000Y-77460000D03*
X140000000Y-80000000D03*
G36*
G01*
X139150000Y-76559000D02*
X140850000Y-76559000D01*
G75*
G02*
X140901000Y-76610000I0J-51000D01*
G01*
X140901000Y-78310000D01*
G75*
G02*
X140850000Y-78361000I-51000J0D01*
G01*
X139150000Y-78361000D01*
G75*
G02*
X139099000Y-78310000I0J51000D01*
G01*
X139099000Y-76610000D01*
G75*
G02*
X139150000Y-76559000I51000J0D01*
G01*
G37*
D11*
X107290000Y-99820000D03*
X107290000Y-91180000D03*
D12*
X106760000Y-92610000D03*
D13*
X103110000Y-91180000D03*
D12*
X106760000Y-98390000D03*
D13*
X103110000Y-99820000D03*
D14*
X103315000Y-113820000D03*
X104585000Y-113820000D03*
X103315000Y-112550000D03*
X104585000Y-112550000D03*
X103315000Y-111280000D03*
X104585000Y-111280000D03*
X103315000Y-110010000D03*
X104585000Y-110010000D03*
X104585000Y-108740000D03*
G36*
G01*
X102764000Y-109240000D02*
X102764000Y-108240000D01*
G75*
G02*
X102815000Y-108189000I51000J0D01*
G01*
X103815000Y-108189000D01*
G75*
G02*
X103866000Y-108240000I0J-51000D01*
G01*
X103866000Y-109240000D01*
G75*
G02*
X103815000Y-109291000I-51000J0D01*
G01*
X102815000Y-109291000D01*
G75*
G02*
X102764000Y-109240000I0J51000D01*
G01*
G37*
D15*
G36*
X104064287Y-113647256D02*
G01*
X104064437Y-113649077D01*
X104059650Y-113660635D01*
X104038653Y-113766192D01*
X104038653Y-113873808D01*
X104059650Y-113979365D01*
X104064437Y-113990923D01*
X104064176Y-113992906D01*
X104062328Y-113993671D01*
X104060825Y-113992631D01*
X104052262Y-113976609D01*
X104036967Y-113957972D01*
X104018330Y-113942677D01*
X103997066Y-113931312D01*
X103973991Y-113924312D01*
X103950000Y-113921949D01*
X103926009Y-113924312D01*
X103902934Y-113931312D01*
X103881670Y-113942677D01*
X103863033Y-113957972D01*
X103847738Y-113976609D01*
X103839175Y-113992631D01*
X103837476Y-113993687D01*
X103835713Y-113992744D01*
X103835563Y-113990923D01*
X103840350Y-113979365D01*
X103861347Y-113873808D01*
X103861347Y-113766192D01*
X103840350Y-113660635D01*
X103835563Y-113649077D01*
X103835824Y-113647094D01*
X103837672Y-113646329D01*
X103839175Y-113647369D01*
X103847738Y-113663391D01*
X103863033Y-113682028D01*
X103881670Y-113697323D01*
X103902934Y-113708688D01*
X103926009Y-113715688D01*
X103950000Y-113718051D01*
X103973991Y-113715688D01*
X103997066Y-113708688D01*
X104018330Y-113697323D01*
X104036967Y-113682028D01*
X104052262Y-113663391D01*
X104060825Y-113647369D01*
X104062524Y-113646313D01*
X104064287Y-113647256D01*
G37*
G36*
X104757906Y-113070824D02*
G01*
X104758671Y-113072672D01*
X104757631Y-113074175D01*
X104741609Y-113082738D01*
X104722972Y-113098033D01*
X104707677Y-113116670D01*
X104696312Y-113137934D01*
X104689312Y-113161009D01*
X104686949Y-113185000D01*
X104689312Y-113208991D01*
X104696312Y-113232066D01*
X104707677Y-113253330D01*
X104722972Y-113271967D01*
X104741609Y-113287262D01*
X104757631Y-113295825D01*
X104758687Y-113297524D01*
X104757744Y-113299287D01*
X104755923Y-113299437D01*
X104744365Y-113294650D01*
X104638808Y-113273653D01*
X104531192Y-113273653D01*
X104425635Y-113294650D01*
X104414077Y-113299437D01*
X104412094Y-113299176D01*
X104411329Y-113297328D01*
X104412369Y-113295825D01*
X104428391Y-113287262D01*
X104447028Y-113271967D01*
X104462323Y-113253330D01*
X104473688Y-113232066D01*
X104480688Y-113208991D01*
X104483051Y-113185000D01*
X104480688Y-113161009D01*
X104473688Y-113137934D01*
X104462323Y-113116670D01*
X104447028Y-113098033D01*
X104428391Y-113082738D01*
X104412369Y-113074175D01*
X104411313Y-113072476D01*
X104412256Y-113070713D01*
X104414077Y-113070563D01*
X104425635Y-113075350D01*
X104531192Y-113096347D01*
X104638808Y-113096347D01*
X104744365Y-113075350D01*
X104755923Y-113070563D01*
X104757906Y-113070824D01*
G37*
G36*
X103487906Y-113070824D02*
G01*
X103488671Y-113072672D01*
X103487631Y-113074175D01*
X103471609Y-113082738D01*
X103452972Y-113098033D01*
X103437677Y-113116670D01*
X103426312Y-113137934D01*
X103419312Y-113161009D01*
X103416949Y-113185000D01*
X103419312Y-113208991D01*
X103426312Y-113232066D01*
X103437677Y-113253330D01*
X103452972Y-113271967D01*
X103471609Y-113287262D01*
X103487631Y-113295825D01*
X103488687Y-113297524D01*
X103487744Y-113299287D01*
X103485923Y-113299437D01*
X103474365Y-113294650D01*
X103368808Y-113273653D01*
X103261192Y-113273653D01*
X103155635Y-113294650D01*
X103144077Y-113299437D01*
X103142094Y-113299176D01*
X103141329Y-113297328D01*
X103142369Y-113295825D01*
X103158391Y-113287262D01*
X103177028Y-113271967D01*
X103192323Y-113253330D01*
X103203688Y-113232066D01*
X103210688Y-113208991D01*
X103213051Y-113185000D01*
X103210688Y-113161009D01*
X103203688Y-113137934D01*
X103192323Y-113116670D01*
X103177028Y-113098033D01*
X103158391Y-113082738D01*
X103142369Y-113074175D01*
X103141313Y-113072476D01*
X103142256Y-113070713D01*
X103144077Y-113070563D01*
X103155635Y-113075350D01*
X103261192Y-113096347D01*
X103368808Y-113096347D01*
X103474365Y-113075350D01*
X103485923Y-113070563D01*
X103487906Y-113070824D01*
G37*
G36*
X104064287Y-112377256D02*
G01*
X104064437Y-112379077D01*
X104059650Y-112390635D01*
X104038653Y-112496192D01*
X104038653Y-112603808D01*
X104059650Y-112709365D01*
X104064437Y-112720923D01*
X104064176Y-112722906D01*
X104062328Y-112723671D01*
X104060825Y-112722631D01*
X104052262Y-112706609D01*
X104036967Y-112687972D01*
X104018330Y-112672677D01*
X103997066Y-112661312D01*
X103973991Y-112654312D01*
X103950000Y-112651949D01*
X103926009Y-112654312D01*
X103902934Y-112661312D01*
X103881670Y-112672677D01*
X103863033Y-112687972D01*
X103847738Y-112706609D01*
X103839175Y-112722631D01*
X103837476Y-112723687D01*
X103835713Y-112722744D01*
X103835563Y-112720923D01*
X103840350Y-112709365D01*
X103861347Y-112603808D01*
X103861347Y-112496192D01*
X103840350Y-112390635D01*
X103835563Y-112379077D01*
X103835824Y-112377094D01*
X103837672Y-112376329D01*
X103839175Y-112377369D01*
X103847738Y-112393391D01*
X103863033Y-112412028D01*
X103881670Y-112427323D01*
X103902934Y-112438688D01*
X103926009Y-112445688D01*
X103950000Y-112448051D01*
X103973991Y-112445688D01*
X103997066Y-112438688D01*
X104018330Y-112427323D01*
X104036967Y-112412028D01*
X104052262Y-112393391D01*
X104060825Y-112377369D01*
X104062524Y-112376313D01*
X104064287Y-112377256D01*
G37*
G36*
X104757906Y-111800824D02*
G01*
X104758671Y-111802672D01*
X104757631Y-111804175D01*
X104741609Y-111812738D01*
X104722972Y-111828033D01*
X104707677Y-111846670D01*
X104696312Y-111867934D01*
X104689312Y-111891009D01*
X104686949Y-111915000D01*
X104689312Y-111938991D01*
X104696312Y-111962066D01*
X104707677Y-111983330D01*
X104722972Y-112001967D01*
X104741609Y-112017262D01*
X104757631Y-112025825D01*
X104758687Y-112027524D01*
X104757744Y-112029287D01*
X104755923Y-112029437D01*
X104744365Y-112024650D01*
X104638808Y-112003653D01*
X104531192Y-112003653D01*
X104425635Y-112024650D01*
X104414077Y-112029437D01*
X104412094Y-112029176D01*
X104411329Y-112027328D01*
X104412369Y-112025825D01*
X104428391Y-112017262D01*
X104447028Y-112001967D01*
X104462323Y-111983330D01*
X104473688Y-111962066D01*
X104480688Y-111938991D01*
X104483051Y-111915000D01*
X104480688Y-111891009D01*
X104473688Y-111867934D01*
X104462323Y-111846670D01*
X104447028Y-111828033D01*
X104428391Y-111812738D01*
X104412369Y-111804175D01*
X104411313Y-111802476D01*
X104412256Y-111800713D01*
X104414077Y-111800563D01*
X104425635Y-111805350D01*
X104531192Y-111826347D01*
X104638808Y-111826347D01*
X104744365Y-111805350D01*
X104755923Y-111800563D01*
X104757906Y-111800824D01*
G37*
G36*
X103487906Y-111800824D02*
G01*
X103488671Y-111802672D01*
X103487631Y-111804175D01*
X103471609Y-111812738D01*
X103452972Y-111828033D01*
X103437677Y-111846670D01*
X103426312Y-111867934D01*
X103419312Y-111891009D01*
X103416949Y-111915000D01*
X103419312Y-111938991D01*
X103426312Y-111962066D01*
X103437677Y-111983330D01*
X103452972Y-112001967D01*
X103471609Y-112017262D01*
X103487631Y-112025825D01*
X103488687Y-112027524D01*
X103487744Y-112029287D01*
X103485923Y-112029437D01*
X103474365Y-112024650D01*
X103368808Y-112003653D01*
X103261192Y-112003653D01*
X103155635Y-112024650D01*
X103144077Y-112029437D01*
X103142094Y-112029176D01*
X103141329Y-112027328D01*
X103142369Y-112025825D01*
X103158391Y-112017262D01*
X103177028Y-112001967D01*
X103192323Y-111983330D01*
X103203688Y-111962066D01*
X103210688Y-111938991D01*
X103213051Y-111915000D01*
X103210688Y-111891009D01*
X103203688Y-111867934D01*
X103192323Y-111846670D01*
X103177028Y-111828033D01*
X103158391Y-111812738D01*
X103142369Y-111804175D01*
X103141313Y-111802476D01*
X103142256Y-111800713D01*
X103144077Y-111800563D01*
X103155635Y-111805350D01*
X103261192Y-111826347D01*
X103368808Y-111826347D01*
X103474365Y-111805350D01*
X103485923Y-111800563D01*
X103487906Y-111800824D01*
G37*
G36*
X104064287Y-111107256D02*
G01*
X104064437Y-111109077D01*
X104059650Y-111120635D01*
X104038653Y-111226192D01*
X104038653Y-111333808D01*
X104059650Y-111439365D01*
X104064437Y-111450923D01*
X104064176Y-111452906D01*
X104062328Y-111453671D01*
X104060825Y-111452631D01*
X104052262Y-111436609D01*
X104036967Y-111417972D01*
X104018330Y-111402677D01*
X103997066Y-111391312D01*
X103973991Y-111384312D01*
X103950000Y-111381949D01*
X103926009Y-111384312D01*
X103902934Y-111391312D01*
X103881670Y-111402677D01*
X103863033Y-111417972D01*
X103847738Y-111436609D01*
X103839175Y-111452631D01*
X103837476Y-111453687D01*
X103835713Y-111452744D01*
X103835563Y-111450923D01*
X103840350Y-111439365D01*
X103861347Y-111333808D01*
X103861347Y-111226192D01*
X103840350Y-111120635D01*
X103835563Y-111109077D01*
X103835824Y-111107094D01*
X103837672Y-111106329D01*
X103839175Y-111107369D01*
X103847738Y-111123391D01*
X103863033Y-111142028D01*
X103881670Y-111157323D01*
X103902934Y-111168688D01*
X103926009Y-111175688D01*
X103950000Y-111178051D01*
X103973991Y-111175688D01*
X103997066Y-111168688D01*
X104018330Y-111157323D01*
X104036967Y-111142028D01*
X104052262Y-111123391D01*
X104060825Y-111107369D01*
X104062524Y-111106313D01*
X104064287Y-111107256D01*
G37*
G36*
X104757906Y-110530824D02*
G01*
X104758671Y-110532672D01*
X104757631Y-110534175D01*
X104741609Y-110542738D01*
X104722972Y-110558033D01*
X104707677Y-110576670D01*
X104696312Y-110597934D01*
X104689312Y-110621009D01*
X104686949Y-110645000D01*
X104689312Y-110668991D01*
X104696312Y-110692066D01*
X104707677Y-110713330D01*
X104722972Y-110731967D01*
X104741609Y-110747262D01*
X104757631Y-110755825D01*
X104758687Y-110757524D01*
X104757744Y-110759287D01*
X104755923Y-110759437D01*
X104744365Y-110754650D01*
X104638808Y-110733653D01*
X104531192Y-110733653D01*
X104425635Y-110754650D01*
X104414077Y-110759437D01*
X104412094Y-110759176D01*
X104411329Y-110757328D01*
X104412369Y-110755825D01*
X104428391Y-110747262D01*
X104447028Y-110731967D01*
X104462323Y-110713330D01*
X104473688Y-110692066D01*
X104480688Y-110668991D01*
X104483051Y-110645000D01*
X104480688Y-110621009D01*
X104473688Y-110597934D01*
X104462323Y-110576670D01*
X104447028Y-110558033D01*
X104428391Y-110542738D01*
X104412369Y-110534175D01*
X104411313Y-110532476D01*
X104412256Y-110530713D01*
X104414077Y-110530563D01*
X104425635Y-110535350D01*
X104531192Y-110556347D01*
X104638808Y-110556347D01*
X104744365Y-110535350D01*
X104755923Y-110530563D01*
X104757906Y-110530824D01*
G37*
G36*
X103487906Y-110530824D02*
G01*
X103488671Y-110532672D01*
X103487631Y-110534175D01*
X103471609Y-110542738D01*
X103452972Y-110558033D01*
X103437677Y-110576670D01*
X103426312Y-110597934D01*
X103419312Y-110621009D01*
X103416949Y-110645000D01*
X103419312Y-110668991D01*
X103426312Y-110692066D01*
X103437677Y-110713330D01*
X103452972Y-110731967D01*
X103471609Y-110747262D01*
X103487631Y-110755825D01*
X103488687Y-110757524D01*
X103487744Y-110759287D01*
X103485923Y-110759437D01*
X103474365Y-110754650D01*
X103368808Y-110733653D01*
X103261192Y-110733653D01*
X103155635Y-110754650D01*
X103144077Y-110759437D01*
X103142094Y-110759176D01*
X103141329Y-110757328D01*
X103142369Y-110755825D01*
X103158391Y-110747262D01*
X103177028Y-110731967D01*
X103192323Y-110713330D01*
X103203688Y-110692066D01*
X103210688Y-110668991D01*
X103213051Y-110645000D01*
X103210688Y-110621009D01*
X103203688Y-110597934D01*
X103192323Y-110576670D01*
X103177028Y-110558033D01*
X103158391Y-110542738D01*
X103142369Y-110534175D01*
X103141313Y-110532476D01*
X103142256Y-110530713D01*
X103144077Y-110530563D01*
X103155635Y-110535350D01*
X103261192Y-110556347D01*
X103368808Y-110556347D01*
X103474365Y-110535350D01*
X103485923Y-110530563D01*
X103487906Y-110530824D01*
G37*
G36*
X104064287Y-109837256D02*
G01*
X104064437Y-109839077D01*
X104059650Y-109850635D01*
X104038653Y-109956192D01*
X104038653Y-110063808D01*
X104059650Y-110169365D01*
X104064437Y-110180923D01*
X104064176Y-110182906D01*
X104062328Y-110183671D01*
X104060825Y-110182631D01*
X104052262Y-110166609D01*
X104036967Y-110147972D01*
X104018330Y-110132677D01*
X103997066Y-110121312D01*
X103973991Y-110114312D01*
X103950000Y-110111949D01*
X103926009Y-110114312D01*
X103902934Y-110121312D01*
X103881670Y-110132677D01*
X103863033Y-110147972D01*
X103847738Y-110166609D01*
X103839175Y-110182631D01*
X103837476Y-110183687D01*
X103835713Y-110182744D01*
X103835563Y-110180923D01*
X103840350Y-110169365D01*
X103861347Y-110063808D01*
X103861347Y-109956192D01*
X103840350Y-109850635D01*
X103835563Y-109839077D01*
X103835824Y-109837094D01*
X103837672Y-109836329D01*
X103839175Y-109837369D01*
X103847738Y-109853391D01*
X103863033Y-109872028D01*
X103881670Y-109887323D01*
X103902934Y-109898688D01*
X103926009Y-109905688D01*
X103950000Y-109908051D01*
X103973991Y-109905688D01*
X103997066Y-109898688D01*
X104018330Y-109887323D01*
X104036967Y-109872028D01*
X104052262Y-109853391D01*
X104060825Y-109837369D01*
X104062524Y-109836313D01*
X104064287Y-109837256D01*
G37*
G36*
X103638654Y-109290000D02*
G01*
X103638654Y-109292000D01*
X103637118Y-109292990D01*
X103612931Y-109295372D01*
X103589856Y-109302372D01*
X103568592Y-109313737D01*
X103549955Y-109329032D01*
X103534660Y-109347669D01*
X103523295Y-109368933D01*
X103516295Y-109392008D01*
X103513932Y-109415998D01*
X103516295Y-109439990D01*
X103523295Y-109463065D01*
X103534660Y-109484329D01*
X103549955Y-109502966D01*
X103568670Y-109518324D01*
X103572998Y-109521216D01*
X103573883Y-109523010D01*
X103572772Y-109524673D01*
X103571122Y-109524727D01*
X103474365Y-109484650D01*
X103368808Y-109463653D01*
X103261192Y-109463653D01*
X103155635Y-109484650D01*
X103058878Y-109524727D01*
X103056895Y-109524466D01*
X103056130Y-109522618D01*
X103057002Y-109521216D01*
X103061330Y-109518324D01*
X103080045Y-109502965D01*
X103095340Y-109484328D01*
X103106705Y-109463065D01*
X103113705Y-109439990D01*
X103116068Y-109415998D01*
X103113705Y-109392007D01*
X103106705Y-109368932D01*
X103095340Y-109347669D01*
X103080044Y-109329032D01*
X103061407Y-109313737D01*
X103040144Y-109302372D01*
X103017069Y-109295372D01*
X102992882Y-109292990D01*
X102991256Y-109291825D01*
X102991452Y-109289835D01*
X102993078Y-109289000D01*
X103636922Y-109289000D01*
X103638654Y-109290000D01*
G37*
G36*
X104757906Y-109260824D02*
G01*
X104758671Y-109262672D01*
X104757631Y-109264175D01*
X104741609Y-109272738D01*
X104722972Y-109288033D01*
X104707677Y-109306670D01*
X104696312Y-109327934D01*
X104689312Y-109351009D01*
X104686949Y-109375000D01*
X104689312Y-109398991D01*
X104696312Y-109422066D01*
X104707677Y-109443330D01*
X104722972Y-109461967D01*
X104741609Y-109477262D01*
X104757631Y-109485825D01*
X104758687Y-109487524D01*
X104757744Y-109489287D01*
X104755923Y-109489437D01*
X104744365Y-109484650D01*
X104638808Y-109463653D01*
X104531192Y-109463653D01*
X104425635Y-109484650D01*
X104414077Y-109489437D01*
X104412094Y-109489176D01*
X104411329Y-109487328D01*
X104412369Y-109485825D01*
X104428391Y-109477262D01*
X104447028Y-109461967D01*
X104462323Y-109443330D01*
X104473688Y-109422066D01*
X104480688Y-109398991D01*
X104483051Y-109375000D01*
X104480688Y-109351009D01*
X104473688Y-109327934D01*
X104462323Y-109306670D01*
X104447028Y-109288033D01*
X104428391Y-109272738D01*
X104412369Y-109264175D01*
X104411313Y-109262476D01*
X104412256Y-109260713D01*
X104414077Y-109260563D01*
X104425635Y-109265350D01*
X104531192Y-109286347D01*
X104638808Y-109286347D01*
X104744365Y-109265350D01*
X104755923Y-109260563D01*
X104757906Y-109260824D01*
G37*
G36*
X103867990Y-108417882D02*
G01*
X103870372Y-108442069D01*
X103877372Y-108465144D01*
X103888737Y-108486408D01*
X103904032Y-108505045D01*
X103922669Y-108520340D01*
X103943933Y-108531705D01*
X103967008Y-108538705D01*
X103990999Y-108541068D01*
X104014990Y-108538705D01*
X104038065Y-108531705D01*
X104059329Y-108520340D01*
X104077966Y-108505045D01*
X104093324Y-108486330D01*
X104096216Y-108482002D01*
X104098010Y-108481117D01*
X104099673Y-108482228D01*
X104099727Y-108483878D01*
X104059650Y-108580635D01*
X104038653Y-108686192D01*
X104038653Y-108793808D01*
X104059650Y-108899365D01*
X104099727Y-108996122D01*
X104099466Y-108998105D01*
X104097618Y-108998870D01*
X104096216Y-108997998D01*
X104093324Y-108993670D01*
X104077965Y-108974955D01*
X104059328Y-108959660D01*
X104038065Y-108948295D01*
X104014990Y-108941295D01*
X103990998Y-108938932D01*
X103967007Y-108941295D01*
X103943932Y-108948295D01*
X103922669Y-108959660D01*
X103904032Y-108974956D01*
X103888737Y-108993593D01*
X103877372Y-109014856D01*
X103870372Y-109037931D01*
X103867990Y-109062118D01*
X103866825Y-109063744D01*
X103864835Y-109063548D01*
X103864000Y-109061922D01*
X103864000Y-108418078D01*
X103865000Y-108416346D01*
X103867000Y-108416346D01*
X103867990Y-108417882D01*
G37*
M02*
