G04 #@! TF.GenerationSoftware,KiCad,Pcbnew,(5.1.10-1-10_14)*
G04 #@! TF.CreationDate,2021-08-17T00:22:47+08:00*
G04 #@! TF.ProjectId,stm32f401_devboard,73746d33-3266-4343-9031-5f646576626f,rev?*
G04 #@! TF.SameCoordinates,Original*
G04 #@! TF.FileFunction,Soldermask,Bot*
G04 #@! TF.FilePolarity,Negative*
%FSLAX46Y46*%
G04 Gerber Fmt 4.6, Leading zero omitted, Abs format (unit mm)*
G04 Created by KiCad (PCBNEW (5.1.10-1-10_14)) date 2021-08-17 00:22:47*
%MOMM*%
%LPD*%
G01*
G04 APERTURE LIST*
%ADD10O,1.802000X1.802000*%
%ADD11O,2.202000X1.102000*%
%ADD12C,0.752000*%
%ADD13O,1.702000X1.102000*%
%ADD14O,1.102000X1.102000*%
%ADD15C,0.100000*%
G04 APERTURE END LIST*
D10*
X112060000Y-112540000D03*
X112060000Y-110000000D03*
X114600000Y-112540000D03*
X114600000Y-110000000D03*
X117140000Y-112540000D03*
X117140000Y-110000000D03*
X119680000Y-112540000D03*
X119680000Y-110000000D03*
X122220000Y-112540000D03*
X122220000Y-110000000D03*
X124760000Y-112540000D03*
X124760000Y-110000000D03*
X127300000Y-112540000D03*
X127300000Y-110000000D03*
X129840000Y-112540000D03*
X129840000Y-110000000D03*
X132380000Y-112540000D03*
X132380000Y-110000000D03*
X134920000Y-112540000D03*
X134920000Y-110000000D03*
X137460000Y-112540000D03*
X137460000Y-110000000D03*
X140000000Y-112540000D03*
G36*
G01*
X139150000Y-109099000D02*
X140850000Y-109099000D01*
G75*
G02*
X140901000Y-109150000I0J-51000D01*
G01*
X140901000Y-110850000D01*
G75*
G02*
X140850000Y-110901000I-51000J0D01*
G01*
X139150000Y-110901000D01*
G75*
G02*
X139099000Y-110850000I0J51000D01*
G01*
X139099000Y-109150000D01*
G75*
G02*
X139150000Y-109099000I51000J0D01*
G01*
G37*
X112060000Y-80000000D03*
X112060000Y-77460000D03*
X114600000Y-80000000D03*
X114600000Y-77460000D03*
X117140000Y-80000000D03*
X117140000Y-77460000D03*
X119680000Y-80000000D03*
X119680000Y-77460000D03*
X122220000Y-80000000D03*
X122220000Y-77460000D03*
X124760000Y-80000000D03*
X124760000Y-77460000D03*
X127300000Y-80000000D03*
X127300000Y-77460000D03*
X129840000Y-80000000D03*
X129840000Y-77460000D03*
X132380000Y-80000000D03*
X132380000Y-77460000D03*
X134920000Y-80000000D03*
X134920000Y-77460000D03*
X137460000Y-80000000D03*
X137460000Y-77460000D03*
X140000000Y-80000000D03*
G36*
G01*
X139150000Y-76559000D02*
X140850000Y-76559000D01*
G75*
G02*
X140901000Y-76610000I0J-51000D01*
G01*
X140901000Y-78310000D01*
G75*
G02*
X140850000Y-78361000I-51000J0D01*
G01*
X139150000Y-78361000D01*
G75*
G02*
X139099000Y-78310000I0J51000D01*
G01*
X139099000Y-76610000D01*
G75*
G02*
X139150000Y-76559000I51000J0D01*
G01*
G37*
D11*
X107290000Y-99320000D03*
X107290000Y-90680000D03*
D12*
X106760000Y-92110000D03*
D13*
X103110000Y-90680000D03*
D12*
X106760000Y-97890000D03*
D13*
X103110000Y-99320000D03*
D14*
X105325000Y-106460000D03*
X104055000Y-106460000D03*
X105325000Y-107730000D03*
X104055000Y-107730000D03*
X105325000Y-109000000D03*
X104055000Y-109000000D03*
X105325000Y-110270000D03*
X104055000Y-110270000D03*
X104055000Y-111540000D03*
G36*
G01*
X105876000Y-111040000D02*
X105876000Y-112040000D01*
G75*
G02*
X105825000Y-112091000I-51000J0D01*
G01*
X104825000Y-112091000D01*
G75*
G02*
X104774000Y-112040000I0J51000D01*
G01*
X104774000Y-111040000D01*
G75*
G02*
X104825000Y-110989000I51000J0D01*
G01*
X105825000Y-110989000D01*
G75*
G02*
X105876000Y-111040000I0J-51000D01*
G01*
G37*
D15*
G36*
X104775165Y-111216452D02*
G01*
X104776000Y-111218078D01*
X104776000Y-111861922D01*
X104775000Y-111863654D01*
X104773000Y-111863654D01*
X104772010Y-111862118D01*
X104769628Y-111837931D01*
X104762628Y-111814856D01*
X104751263Y-111793592D01*
X104735968Y-111774955D01*
X104717331Y-111759660D01*
X104696067Y-111748295D01*
X104672992Y-111741295D01*
X104649001Y-111738932D01*
X104625010Y-111741295D01*
X104601935Y-111748295D01*
X104580671Y-111759660D01*
X104562034Y-111774955D01*
X104546676Y-111793670D01*
X104543784Y-111797998D01*
X104541990Y-111798883D01*
X104540327Y-111797772D01*
X104540273Y-111796122D01*
X104580350Y-111699365D01*
X104601347Y-111593808D01*
X104601347Y-111486192D01*
X104580350Y-111380635D01*
X104540273Y-111283878D01*
X104540534Y-111281895D01*
X104542382Y-111281130D01*
X104543784Y-111282002D01*
X104546676Y-111286330D01*
X104562035Y-111305045D01*
X104580672Y-111320340D01*
X104601935Y-111331705D01*
X104625010Y-111338705D01*
X104649002Y-111341068D01*
X104672993Y-111338705D01*
X104696068Y-111331705D01*
X104717331Y-111320340D01*
X104735968Y-111305044D01*
X104751263Y-111286407D01*
X104762628Y-111265144D01*
X104769628Y-111242069D01*
X104772010Y-111217882D01*
X104773175Y-111216256D01*
X104775165Y-111216452D01*
G37*
G36*
X104227906Y-110790824D02*
G01*
X104228671Y-110792672D01*
X104227631Y-110794175D01*
X104211609Y-110802738D01*
X104192972Y-110818033D01*
X104177677Y-110836670D01*
X104166312Y-110857934D01*
X104159312Y-110881009D01*
X104156949Y-110905000D01*
X104159312Y-110928991D01*
X104166312Y-110952066D01*
X104177677Y-110973330D01*
X104192972Y-110991967D01*
X104211609Y-111007262D01*
X104227631Y-111015825D01*
X104228687Y-111017524D01*
X104227744Y-111019287D01*
X104225923Y-111019437D01*
X104214365Y-111014650D01*
X104108808Y-110993653D01*
X104001192Y-110993653D01*
X103895635Y-111014650D01*
X103884077Y-111019437D01*
X103882094Y-111019176D01*
X103881329Y-111017328D01*
X103882369Y-111015825D01*
X103898391Y-111007262D01*
X103917028Y-110991967D01*
X103932323Y-110973330D01*
X103943688Y-110952066D01*
X103950688Y-110928991D01*
X103953051Y-110905000D01*
X103950688Y-110881009D01*
X103943688Y-110857934D01*
X103932323Y-110836670D01*
X103917028Y-110818033D01*
X103898391Y-110802738D01*
X103882369Y-110794175D01*
X103881313Y-110792476D01*
X103882256Y-110790713D01*
X103884077Y-110790563D01*
X103895635Y-110795350D01*
X104001192Y-110816347D01*
X104108808Y-110816347D01*
X104214365Y-110795350D01*
X104225923Y-110790563D01*
X104227906Y-110790824D01*
G37*
G36*
X105583105Y-110755534D02*
G01*
X105583870Y-110757382D01*
X105582998Y-110758784D01*
X105578670Y-110761676D01*
X105559955Y-110777035D01*
X105544660Y-110795672D01*
X105533295Y-110816935D01*
X105526295Y-110840010D01*
X105523932Y-110864001D01*
X105526295Y-110887993D01*
X105533295Y-110911068D01*
X105544660Y-110932331D01*
X105559956Y-110950968D01*
X105578593Y-110966263D01*
X105599856Y-110977628D01*
X105622931Y-110984628D01*
X105647118Y-110987010D01*
X105648744Y-110988175D01*
X105648548Y-110990165D01*
X105646922Y-110991000D01*
X105003078Y-110991000D01*
X105001346Y-110990000D01*
X105001346Y-110988000D01*
X105002882Y-110987010D01*
X105027069Y-110984628D01*
X105050144Y-110977628D01*
X105071408Y-110966263D01*
X105090045Y-110950968D01*
X105105340Y-110932331D01*
X105116705Y-110911067D01*
X105123705Y-110887992D01*
X105126068Y-110864001D01*
X105123705Y-110840010D01*
X105116705Y-110816935D01*
X105105340Y-110795671D01*
X105090045Y-110777034D01*
X105071330Y-110761676D01*
X105067002Y-110758784D01*
X105066117Y-110756990D01*
X105067228Y-110755327D01*
X105068878Y-110755273D01*
X105165635Y-110795350D01*
X105271192Y-110816347D01*
X105378808Y-110816347D01*
X105484365Y-110795350D01*
X105581122Y-110755273D01*
X105583105Y-110755534D01*
G37*
G36*
X104804287Y-110097256D02*
G01*
X104804437Y-110099077D01*
X104799650Y-110110635D01*
X104778653Y-110216192D01*
X104778653Y-110323808D01*
X104799650Y-110429365D01*
X104804437Y-110440923D01*
X104804176Y-110442906D01*
X104802328Y-110443671D01*
X104800825Y-110442631D01*
X104792262Y-110426609D01*
X104776967Y-110407972D01*
X104758330Y-110392677D01*
X104737066Y-110381312D01*
X104713991Y-110374312D01*
X104690000Y-110371949D01*
X104666009Y-110374312D01*
X104642934Y-110381312D01*
X104621670Y-110392677D01*
X104603033Y-110407972D01*
X104587738Y-110426609D01*
X104579175Y-110442631D01*
X104577476Y-110443687D01*
X104575713Y-110442744D01*
X104575563Y-110440923D01*
X104580350Y-110429365D01*
X104601347Y-110323808D01*
X104601347Y-110216192D01*
X104580350Y-110110635D01*
X104575563Y-110099077D01*
X104575824Y-110097094D01*
X104577672Y-110096329D01*
X104579175Y-110097369D01*
X104587738Y-110113391D01*
X104603033Y-110132028D01*
X104621670Y-110147323D01*
X104642934Y-110158688D01*
X104666009Y-110165688D01*
X104690000Y-110168051D01*
X104713991Y-110165688D01*
X104737066Y-110158688D01*
X104758330Y-110147323D01*
X104776967Y-110132028D01*
X104792262Y-110113391D01*
X104800825Y-110097369D01*
X104802524Y-110096313D01*
X104804287Y-110097256D01*
G37*
G36*
X105497906Y-109520824D02*
G01*
X105498671Y-109522672D01*
X105497631Y-109524175D01*
X105481609Y-109532738D01*
X105462972Y-109548033D01*
X105447677Y-109566670D01*
X105436312Y-109587934D01*
X105429312Y-109611009D01*
X105426949Y-109635000D01*
X105429312Y-109658991D01*
X105436312Y-109682066D01*
X105447677Y-109703330D01*
X105462972Y-109721967D01*
X105481609Y-109737262D01*
X105497631Y-109745825D01*
X105498687Y-109747524D01*
X105497744Y-109749287D01*
X105495923Y-109749437D01*
X105484365Y-109744650D01*
X105378808Y-109723653D01*
X105271192Y-109723653D01*
X105165635Y-109744650D01*
X105154077Y-109749437D01*
X105152094Y-109749176D01*
X105151329Y-109747328D01*
X105152369Y-109745825D01*
X105168391Y-109737262D01*
X105187028Y-109721967D01*
X105202323Y-109703330D01*
X105213688Y-109682066D01*
X105220688Y-109658991D01*
X105223051Y-109635000D01*
X105220688Y-109611009D01*
X105213688Y-109587934D01*
X105202323Y-109566670D01*
X105187028Y-109548033D01*
X105168391Y-109532738D01*
X105152369Y-109524175D01*
X105151313Y-109522476D01*
X105152256Y-109520713D01*
X105154077Y-109520563D01*
X105165635Y-109525350D01*
X105271192Y-109546347D01*
X105378808Y-109546347D01*
X105484365Y-109525350D01*
X105495923Y-109520563D01*
X105497906Y-109520824D01*
G37*
G36*
X104227906Y-109520824D02*
G01*
X104228671Y-109522672D01*
X104227631Y-109524175D01*
X104211609Y-109532738D01*
X104192972Y-109548033D01*
X104177677Y-109566670D01*
X104166312Y-109587934D01*
X104159312Y-109611009D01*
X104156949Y-109635000D01*
X104159312Y-109658991D01*
X104166312Y-109682066D01*
X104177677Y-109703330D01*
X104192972Y-109721967D01*
X104211609Y-109737262D01*
X104227631Y-109745825D01*
X104228687Y-109747524D01*
X104227744Y-109749287D01*
X104225923Y-109749437D01*
X104214365Y-109744650D01*
X104108808Y-109723653D01*
X104001192Y-109723653D01*
X103895635Y-109744650D01*
X103884077Y-109749437D01*
X103882094Y-109749176D01*
X103881329Y-109747328D01*
X103882369Y-109745825D01*
X103898391Y-109737262D01*
X103917028Y-109721967D01*
X103932323Y-109703330D01*
X103943688Y-109682066D01*
X103950688Y-109658991D01*
X103953051Y-109635000D01*
X103950688Y-109611009D01*
X103943688Y-109587934D01*
X103932323Y-109566670D01*
X103917028Y-109548033D01*
X103898391Y-109532738D01*
X103882369Y-109524175D01*
X103881313Y-109522476D01*
X103882256Y-109520713D01*
X103884077Y-109520563D01*
X103895635Y-109525350D01*
X104001192Y-109546347D01*
X104108808Y-109546347D01*
X104214365Y-109525350D01*
X104225923Y-109520563D01*
X104227906Y-109520824D01*
G37*
G36*
X104804287Y-108827256D02*
G01*
X104804437Y-108829077D01*
X104799650Y-108840635D01*
X104778653Y-108946192D01*
X104778653Y-109053808D01*
X104799650Y-109159365D01*
X104804437Y-109170923D01*
X104804176Y-109172906D01*
X104802328Y-109173671D01*
X104800825Y-109172631D01*
X104792262Y-109156609D01*
X104776967Y-109137972D01*
X104758330Y-109122677D01*
X104737066Y-109111312D01*
X104713991Y-109104312D01*
X104690000Y-109101949D01*
X104666009Y-109104312D01*
X104642934Y-109111312D01*
X104621670Y-109122677D01*
X104603033Y-109137972D01*
X104587738Y-109156609D01*
X104579175Y-109172631D01*
X104577476Y-109173687D01*
X104575713Y-109172744D01*
X104575563Y-109170923D01*
X104580350Y-109159365D01*
X104601347Y-109053808D01*
X104601347Y-108946192D01*
X104580350Y-108840635D01*
X104575563Y-108829077D01*
X104575824Y-108827094D01*
X104577672Y-108826329D01*
X104579175Y-108827369D01*
X104587738Y-108843391D01*
X104603033Y-108862028D01*
X104621670Y-108877323D01*
X104642934Y-108888688D01*
X104666009Y-108895688D01*
X104690000Y-108898051D01*
X104713991Y-108895688D01*
X104737066Y-108888688D01*
X104758330Y-108877323D01*
X104776967Y-108862028D01*
X104792262Y-108843391D01*
X104800825Y-108827369D01*
X104802524Y-108826313D01*
X104804287Y-108827256D01*
G37*
G36*
X104227906Y-108250824D02*
G01*
X104228671Y-108252672D01*
X104227631Y-108254175D01*
X104211609Y-108262738D01*
X104192972Y-108278033D01*
X104177677Y-108296670D01*
X104166312Y-108317934D01*
X104159312Y-108341009D01*
X104156949Y-108365000D01*
X104159312Y-108388991D01*
X104166312Y-108412066D01*
X104177677Y-108433330D01*
X104192972Y-108451967D01*
X104211609Y-108467262D01*
X104227631Y-108475825D01*
X104228687Y-108477524D01*
X104227744Y-108479287D01*
X104225923Y-108479437D01*
X104214365Y-108474650D01*
X104108808Y-108453653D01*
X104001192Y-108453653D01*
X103895635Y-108474650D01*
X103884077Y-108479437D01*
X103882094Y-108479176D01*
X103881329Y-108477328D01*
X103882369Y-108475825D01*
X103898391Y-108467262D01*
X103917028Y-108451967D01*
X103932323Y-108433330D01*
X103943688Y-108412066D01*
X103950688Y-108388991D01*
X103953051Y-108365000D01*
X103950688Y-108341009D01*
X103943688Y-108317934D01*
X103932323Y-108296670D01*
X103917028Y-108278033D01*
X103898391Y-108262738D01*
X103882369Y-108254175D01*
X103881313Y-108252476D01*
X103882256Y-108250713D01*
X103884077Y-108250563D01*
X103895635Y-108255350D01*
X104001192Y-108276347D01*
X104108808Y-108276347D01*
X104214365Y-108255350D01*
X104225923Y-108250563D01*
X104227906Y-108250824D01*
G37*
G36*
X105497906Y-108250824D02*
G01*
X105498671Y-108252672D01*
X105497631Y-108254175D01*
X105481609Y-108262738D01*
X105462972Y-108278033D01*
X105447677Y-108296670D01*
X105436312Y-108317934D01*
X105429312Y-108341009D01*
X105426949Y-108365000D01*
X105429312Y-108388991D01*
X105436312Y-108412066D01*
X105447677Y-108433330D01*
X105462972Y-108451967D01*
X105481609Y-108467262D01*
X105497631Y-108475825D01*
X105498687Y-108477524D01*
X105497744Y-108479287D01*
X105495923Y-108479437D01*
X105484365Y-108474650D01*
X105378808Y-108453653D01*
X105271192Y-108453653D01*
X105165635Y-108474650D01*
X105154077Y-108479437D01*
X105152094Y-108479176D01*
X105151329Y-108477328D01*
X105152369Y-108475825D01*
X105168391Y-108467262D01*
X105187028Y-108451967D01*
X105202323Y-108433330D01*
X105213688Y-108412066D01*
X105220688Y-108388991D01*
X105223051Y-108365000D01*
X105220688Y-108341009D01*
X105213688Y-108317934D01*
X105202323Y-108296670D01*
X105187028Y-108278033D01*
X105168391Y-108262738D01*
X105152369Y-108254175D01*
X105151313Y-108252476D01*
X105152256Y-108250713D01*
X105154077Y-108250563D01*
X105165635Y-108255350D01*
X105271192Y-108276347D01*
X105378808Y-108276347D01*
X105484365Y-108255350D01*
X105495923Y-108250563D01*
X105497906Y-108250824D01*
G37*
G36*
X104804287Y-107557256D02*
G01*
X104804437Y-107559077D01*
X104799650Y-107570635D01*
X104778653Y-107676192D01*
X104778653Y-107783808D01*
X104799650Y-107889365D01*
X104804437Y-107900923D01*
X104804176Y-107902906D01*
X104802328Y-107903671D01*
X104800825Y-107902631D01*
X104792262Y-107886609D01*
X104776967Y-107867972D01*
X104758330Y-107852677D01*
X104737066Y-107841312D01*
X104713991Y-107834312D01*
X104690000Y-107831949D01*
X104666009Y-107834312D01*
X104642934Y-107841312D01*
X104621670Y-107852677D01*
X104603033Y-107867972D01*
X104587738Y-107886609D01*
X104579175Y-107902631D01*
X104577476Y-107903687D01*
X104575713Y-107902744D01*
X104575563Y-107900923D01*
X104580350Y-107889365D01*
X104601347Y-107783808D01*
X104601347Y-107676192D01*
X104580350Y-107570635D01*
X104575563Y-107559077D01*
X104575824Y-107557094D01*
X104577672Y-107556329D01*
X104579175Y-107557369D01*
X104587738Y-107573391D01*
X104603033Y-107592028D01*
X104621670Y-107607323D01*
X104642934Y-107618688D01*
X104666009Y-107625688D01*
X104690000Y-107628051D01*
X104713991Y-107625688D01*
X104737066Y-107618688D01*
X104758330Y-107607323D01*
X104776967Y-107592028D01*
X104792262Y-107573391D01*
X104800825Y-107557369D01*
X104802524Y-107556313D01*
X104804287Y-107557256D01*
G37*
G36*
X104227906Y-106980824D02*
G01*
X104228671Y-106982672D01*
X104227631Y-106984175D01*
X104211609Y-106992738D01*
X104192972Y-107008033D01*
X104177677Y-107026670D01*
X104166312Y-107047934D01*
X104159312Y-107071009D01*
X104156949Y-107095000D01*
X104159312Y-107118991D01*
X104166312Y-107142066D01*
X104177677Y-107163330D01*
X104192972Y-107181967D01*
X104211609Y-107197262D01*
X104227631Y-107205825D01*
X104228687Y-107207524D01*
X104227744Y-107209287D01*
X104225923Y-107209437D01*
X104214365Y-107204650D01*
X104108808Y-107183653D01*
X104001192Y-107183653D01*
X103895635Y-107204650D01*
X103884077Y-107209437D01*
X103882094Y-107209176D01*
X103881329Y-107207328D01*
X103882369Y-107205825D01*
X103898391Y-107197262D01*
X103917028Y-107181967D01*
X103932323Y-107163330D01*
X103943688Y-107142066D01*
X103950688Y-107118991D01*
X103953051Y-107095000D01*
X103950688Y-107071009D01*
X103943688Y-107047934D01*
X103932323Y-107026670D01*
X103917028Y-107008033D01*
X103898391Y-106992738D01*
X103882369Y-106984175D01*
X103881313Y-106982476D01*
X103882256Y-106980713D01*
X103884077Y-106980563D01*
X103895635Y-106985350D01*
X104001192Y-107006347D01*
X104108808Y-107006347D01*
X104214365Y-106985350D01*
X104225923Y-106980563D01*
X104227906Y-106980824D01*
G37*
G36*
X105497906Y-106980824D02*
G01*
X105498671Y-106982672D01*
X105497631Y-106984175D01*
X105481609Y-106992738D01*
X105462972Y-107008033D01*
X105447677Y-107026670D01*
X105436312Y-107047934D01*
X105429312Y-107071009D01*
X105426949Y-107095000D01*
X105429312Y-107118991D01*
X105436312Y-107142066D01*
X105447677Y-107163330D01*
X105462972Y-107181967D01*
X105481609Y-107197262D01*
X105497631Y-107205825D01*
X105498687Y-107207524D01*
X105497744Y-107209287D01*
X105495923Y-107209437D01*
X105484365Y-107204650D01*
X105378808Y-107183653D01*
X105271192Y-107183653D01*
X105165635Y-107204650D01*
X105154077Y-107209437D01*
X105152094Y-107209176D01*
X105151329Y-107207328D01*
X105152369Y-107205825D01*
X105168391Y-107197262D01*
X105187028Y-107181967D01*
X105202323Y-107163330D01*
X105213688Y-107142066D01*
X105220688Y-107118991D01*
X105223051Y-107095000D01*
X105220688Y-107071009D01*
X105213688Y-107047934D01*
X105202323Y-107026670D01*
X105187028Y-107008033D01*
X105168391Y-106992738D01*
X105152369Y-106984175D01*
X105151313Y-106982476D01*
X105152256Y-106980713D01*
X105154077Y-106980563D01*
X105165635Y-106985350D01*
X105271192Y-107006347D01*
X105378808Y-107006347D01*
X105484365Y-106985350D01*
X105495923Y-106980563D01*
X105497906Y-106980824D01*
G37*
G36*
X104804287Y-106287256D02*
G01*
X104804437Y-106289077D01*
X104799650Y-106300635D01*
X104778653Y-106406192D01*
X104778653Y-106513808D01*
X104799650Y-106619365D01*
X104804437Y-106630923D01*
X104804176Y-106632906D01*
X104802328Y-106633671D01*
X104800825Y-106632631D01*
X104792262Y-106616609D01*
X104776967Y-106597972D01*
X104758330Y-106582677D01*
X104737066Y-106571312D01*
X104713991Y-106564312D01*
X104690000Y-106561949D01*
X104666009Y-106564312D01*
X104642934Y-106571312D01*
X104621670Y-106582677D01*
X104603033Y-106597972D01*
X104587738Y-106616609D01*
X104579175Y-106632631D01*
X104577476Y-106633687D01*
X104575713Y-106632744D01*
X104575563Y-106630923D01*
X104580350Y-106619365D01*
X104601347Y-106513808D01*
X104601347Y-106406192D01*
X104580350Y-106300635D01*
X104575563Y-106289077D01*
X104575824Y-106287094D01*
X104577672Y-106286329D01*
X104579175Y-106287369D01*
X104587738Y-106303391D01*
X104603033Y-106322028D01*
X104621670Y-106337323D01*
X104642934Y-106348688D01*
X104666009Y-106355688D01*
X104690000Y-106358051D01*
X104713991Y-106355688D01*
X104737066Y-106348688D01*
X104758330Y-106337323D01*
X104776967Y-106322028D01*
X104792262Y-106303391D01*
X104800825Y-106287369D01*
X104802524Y-106286313D01*
X104804287Y-106287256D01*
G37*
M02*
