G04 #@! TF.GenerationSoftware,KiCad,Pcbnew,(5.1.10-1-10_14)*
G04 #@! TF.CreationDate,2021-08-17T00:22:47+08:00*
G04 #@! TF.ProjectId,stm32f401_devboard,73746d33-3266-4343-9031-5f646576626f,rev?*
G04 #@! TF.SameCoordinates,Original*
G04 #@! TF.FileFunction,Copper,L3,Inr*
G04 #@! TF.FilePolarity,Positive*
%FSLAX46Y46*%
G04 Gerber Fmt 4.6, Leading zero omitted, Abs format (unit mm)*
G04 Created by KiCad (PCBNEW (5.1.10-1-10_14)) date 2021-08-17 00:22:47*
%MOMM*%
%LPD*%
G01*
G04 APERTURE LIST*
G04 #@! TA.AperFunction,NonConductor*
%ADD10C,0.300000*%
G04 #@! TD*
G04 #@! TA.AperFunction,ComponentPad*
%ADD11O,1.700000X1.700000*%
G04 #@! TD*
G04 #@! TA.AperFunction,ComponentPad*
%ADD12R,1.700000X1.700000*%
G04 #@! TD*
G04 #@! TA.AperFunction,ComponentPad*
%ADD13O,2.100000X1.000000*%
G04 #@! TD*
G04 #@! TA.AperFunction,ComponentPad*
%ADD14O,1.600000X1.000000*%
G04 #@! TD*
G04 #@! TA.AperFunction,ComponentPad*
%ADD15O,1.000000X1.000000*%
G04 #@! TD*
G04 #@! TA.AperFunction,ComponentPad*
%ADD16R,1.000000X1.000000*%
G04 #@! TD*
G04 #@! TA.AperFunction,ViaPad*
%ADD17C,0.600000*%
G04 #@! TD*
G04 #@! TA.AperFunction,Conductor*
%ADD18C,1.500000*%
G04 #@! TD*
G04 #@! TA.AperFunction,Conductor*
%ADD19C,0.600000*%
G04 #@! TD*
G04 #@! TA.AperFunction,Conductor*
%ADD20C,0.254000*%
G04 #@! TD*
G04 #@! TA.AperFunction,Conductor*
%ADD21C,0.100000*%
G04 #@! TD*
G04 APERTURE END LIST*
D10*
X147821428Y-76900000D02*
X147821428Y-77828571D01*
X147250000Y-77328571D01*
X147250000Y-77542857D01*
X147178571Y-77685714D01*
X147107142Y-77757142D01*
X146964285Y-77828571D01*
X146607142Y-77828571D01*
X146464285Y-77757142D01*
X146392857Y-77685714D01*
X146321428Y-77542857D01*
X146321428Y-77114285D01*
X146392857Y-76971428D01*
X146464285Y-76900000D01*
D11*
X112060000Y-112540000D03*
X112060000Y-110000000D03*
X114600000Y-112540000D03*
X114600000Y-110000000D03*
X117140000Y-112540000D03*
X117140000Y-110000000D03*
X119680000Y-112540000D03*
X119680000Y-110000000D03*
X122220000Y-112540000D03*
X122220000Y-110000000D03*
X124760000Y-112540000D03*
X124760000Y-110000000D03*
X127300000Y-112540000D03*
X127300000Y-110000000D03*
X129840000Y-112540000D03*
X129840000Y-110000000D03*
X132380000Y-112540000D03*
X132380000Y-110000000D03*
X134920000Y-112540000D03*
X134920000Y-110000000D03*
X137460000Y-112540000D03*
X137460000Y-110000000D03*
X140000000Y-112540000D03*
D12*
X140000000Y-110000000D03*
D11*
X112060000Y-80000000D03*
X112060000Y-77460000D03*
X114600000Y-80000000D03*
X114600000Y-77460000D03*
X117140000Y-80000000D03*
X117140000Y-77460000D03*
X119680000Y-80000000D03*
X119680000Y-77460000D03*
X122220000Y-80000000D03*
X122220000Y-77460000D03*
X124760000Y-80000000D03*
X124760000Y-77460000D03*
X127300000Y-80000000D03*
X127300000Y-77460000D03*
X129840000Y-80000000D03*
X129840000Y-77460000D03*
X132380000Y-80000000D03*
X132380000Y-77460000D03*
X134920000Y-80000000D03*
X134920000Y-77460000D03*
X137460000Y-80000000D03*
X137460000Y-77460000D03*
X140000000Y-80000000D03*
D12*
X140000000Y-77460000D03*
D13*
X107290000Y-99320000D03*
X107290000Y-90680000D03*
D14*
X103110000Y-90680000D03*
X103110000Y-99320000D03*
D15*
X105325000Y-106460000D03*
X104055000Y-106460000D03*
X105325000Y-107730000D03*
X104055000Y-107730000D03*
X105325000Y-109000000D03*
X104055000Y-109000000D03*
X105325000Y-110270000D03*
X104055000Y-110270000D03*
X104055000Y-111540000D03*
D16*
X105325000Y-111540000D03*
D17*
X129950000Y-99080000D03*
X130460000Y-103950000D03*
X139020000Y-99000000D03*
X135254283Y-95675636D03*
X138070000Y-92140000D03*
X123480000Y-105040000D03*
X120240000Y-117450000D03*
X125000000Y-94000000D03*
X126500000Y-94000000D03*
X123500000Y-94000000D03*
X123500000Y-92500000D03*
X125000000Y-92500000D03*
X126500000Y-92500000D03*
X125000000Y-95500000D03*
X123500000Y-95500000D03*
X126500000Y-95500000D03*
X109440000Y-89690000D03*
X110297823Y-100997823D03*
X116950000Y-91350000D03*
X115080000Y-96580000D03*
X116010000Y-95910000D03*
X128740000Y-98150000D03*
X119540000Y-96830000D03*
X121160000Y-89610000D03*
X131410000Y-88390000D03*
X115450000Y-103600000D03*
X123198000Y-100695229D03*
X133550000Y-93140000D03*
X109830000Y-114940000D03*
X125198000Y-103240000D03*
X124698000Y-102609877D03*
X124198000Y-101940322D03*
X123698000Y-101296678D03*
X114427755Y-96901105D03*
X113590000Y-95900000D03*
X113580000Y-94450000D03*
X118060000Y-91720000D03*
X118770000Y-91240000D03*
X119592386Y-91056046D03*
X120280000Y-90820000D03*
X123698000Y-88195231D03*
X124198000Y-87615547D03*
X124698000Y-86983596D03*
X125198000Y-86400000D03*
D18*
X140000000Y-110000000D02*
X144510000Y-110000000D01*
X140000000Y-110000000D02*
X140000000Y-108070000D01*
X140000000Y-110000000D02*
X140000000Y-115110000D01*
X140000000Y-112540000D02*
X142500000Y-112540000D01*
X142500000Y-112540000D02*
X144560000Y-110480000D01*
X112060000Y-110000000D02*
X112060000Y-114970000D01*
X112100000Y-114930000D02*
X112100000Y-107560000D01*
X112060000Y-110000000D02*
X109820000Y-110000000D01*
X112060000Y-112540000D02*
X109600000Y-112540000D01*
X112060000Y-80000000D02*
X112060000Y-73990000D01*
X112060000Y-80000000D02*
X112060000Y-82490000D01*
X112060000Y-77460000D02*
X109040000Y-77460000D01*
X112060000Y-80000000D02*
X109220000Y-80000000D01*
X140000000Y-77460000D02*
X140000000Y-74820000D01*
X140000000Y-77460000D02*
X140000000Y-82310000D01*
X140000000Y-77460000D02*
X142020000Y-77460000D01*
X140000000Y-80000000D02*
X142450000Y-80000000D01*
D19*
X105325000Y-110270000D02*
X107170000Y-110270000D01*
D20*
X147453893Y-70707670D02*
X147890498Y-70839489D01*
X148293185Y-71053600D01*
X148646612Y-71341848D01*
X148937327Y-71693261D01*
X149154242Y-72094439D01*
X149289106Y-72530113D01*
X149340000Y-73014344D01*
X149340001Y-116967711D01*
X149292330Y-117453894D01*
X149160512Y-117890497D01*
X148946399Y-118293186D01*
X148658150Y-118646613D01*
X148306739Y-118937327D01*
X147905564Y-119154240D01*
X147469886Y-119289106D01*
X146985664Y-119340000D01*
X103032279Y-119340000D01*
X102546106Y-119292330D01*
X102109503Y-119160512D01*
X101706814Y-118946399D01*
X101353387Y-118658150D01*
X101062673Y-118306739D01*
X100845760Y-117905564D01*
X100710894Y-117469886D01*
X100699125Y-117357911D01*
X119305000Y-117357911D01*
X119305000Y-117542089D01*
X119340932Y-117722729D01*
X119411414Y-117892889D01*
X119513738Y-118046028D01*
X119643972Y-118176262D01*
X119797111Y-118278586D01*
X119967271Y-118349068D01*
X120147911Y-118385000D01*
X120332089Y-118385000D01*
X120512729Y-118349068D01*
X120682889Y-118278586D01*
X120836028Y-118176262D01*
X120966262Y-118046028D01*
X121068586Y-117892889D01*
X121139068Y-117722729D01*
X121175000Y-117542089D01*
X121175000Y-117357911D01*
X121139068Y-117177271D01*
X121068586Y-117007111D01*
X120966262Y-116853972D01*
X120836028Y-116723738D01*
X120682889Y-116621414D01*
X120512729Y-116550932D01*
X120332089Y-116515000D01*
X120147911Y-116515000D01*
X119967271Y-116550932D01*
X119797111Y-116621414D01*
X119643972Y-116723738D01*
X119513738Y-116853972D01*
X119411414Y-117007111D01*
X119340932Y-117177271D01*
X119305000Y-117357911D01*
X100699125Y-117357911D01*
X100660000Y-116985664D01*
X100660000Y-114847911D01*
X108895000Y-114847911D01*
X108895000Y-115032089D01*
X108930932Y-115212729D01*
X109001414Y-115382889D01*
X109103738Y-115536028D01*
X109233972Y-115666262D01*
X109387111Y-115768586D01*
X109557271Y-115839068D01*
X109737911Y-115875000D01*
X109922089Y-115875000D01*
X110102729Y-115839068D01*
X110272889Y-115768586D01*
X110426028Y-115666262D01*
X110556262Y-115536028D01*
X110658586Y-115382889D01*
X110729068Y-115212729D01*
X110765000Y-115032089D01*
X110765000Y-114847911D01*
X110729068Y-114667271D01*
X110658586Y-114497111D01*
X110556262Y-114343972D01*
X110426028Y-114213738D01*
X110272889Y-114111414D01*
X110102729Y-114040932D01*
X109922089Y-114005000D01*
X109737911Y-114005000D01*
X109557271Y-114040932D01*
X109387111Y-114111414D01*
X109233972Y-114213738D01*
X109103738Y-114343972D01*
X109001414Y-114497111D01*
X108930932Y-114667271D01*
X108895000Y-114847911D01*
X100660000Y-114847911D01*
X100660000Y-112896891D01*
X110618519Y-112896891D01*
X110715843Y-113171252D01*
X110864822Y-113421355D01*
X111059731Y-113637588D01*
X111293080Y-113811641D01*
X111555901Y-113936825D01*
X111703110Y-113981476D01*
X111933000Y-113860155D01*
X111933000Y-112667000D01*
X110739186Y-112667000D01*
X110618519Y-112896891D01*
X100660000Y-112896891D01*
X100660000Y-106348212D01*
X102920000Y-106348212D01*
X102920000Y-106571788D01*
X102963617Y-106791067D01*
X103049176Y-106997624D01*
X103114241Y-107095000D01*
X103049176Y-107192376D01*
X102963617Y-107398933D01*
X102920000Y-107618212D01*
X102920000Y-107841788D01*
X102963617Y-108061067D01*
X103049176Y-108267624D01*
X103114241Y-108365000D01*
X103049176Y-108462376D01*
X102963617Y-108668933D01*
X102920000Y-108888212D01*
X102920000Y-109111788D01*
X102963617Y-109331067D01*
X103049176Y-109537624D01*
X103114241Y-109635000D01*
X103049176Y-109732376D01*
X102963617Y-109938933D01*
X102920000Y-110158212D01*
X102920000Y-110381788D01*
X102963617Y-110601067D01*
X103049176Y-110807624D01*
X103114241Y-110905000D01*
X103049176Y-111002376D01*
X102963617Y-111208933D01*
X102920000Y-111428212D01*
X102920000Y-111651788D01*
X102963617Y-111871067D01*
X103049176Y-112077624D01*
X103173388Y-112263520D01*
X103331480Y-112421612D01*
X103517376Y-112545824D01*
X103723933Y-112631383D01*
X103943212Y-112675000D01*
X104166788Y-112675000D01*
X104386067Y-112631383D01*
X104497774Y-112585112D01*
X104580820Y-112629502D01*
X104700518Y-112665812D01*
X104825000Y-112678072D01*
X105825000Y-112678072D01*
X105949482Y-112665812D01*
X106069180Y-112629502D01*
X106179494Y-112570537D01*
X106276185Y-112491185D01*
X106355537Y-112394494D01*
X106414502Y-112284180D01*
X106450812Y-112164482D01*
X106463072Y-112040000D01*
X106463072Y-111040000D01*
X106450812Y-110915518D01*
X106414502Y-110795820D01*
X106366930Y-110706820D01*
X106402446Y-110626864D01*
X106419119Y-110571874D01*
X106292954Y-110397000D01*
X105452000Y-110397000D01*
X105452000Y-110401928D01*
X105198000Y-110401928D01*
X105198000Y-110397000D01*
X105186974Y-110397000D01*
X105190000Y-110381788D01*
X105190000Y-110356891D01*
X110618519Y-110356891D01*
X110715843Y-110631252D01*
X110864822Y-110881355D01*
X111059731Y-111097588D01*
X111290880Y-111270000D01*
X111059731Y-111442412D01*
X110864822Y-111658645D01*
X110715843Y-111908748D01*
X110618519Y-112183109D01*
X110739186Y-112413000D01*
X111933000Y-112413000D01*
X111933000Y-110127000D01*
X110739186Y-110127000D01*
X110618519Y-110356891D01*
X105190000Y-110356891D01*
X105190000Y-110158212D01*
X105186974Y-110143000D01*
X105198000Y-110143000D01*
X105198000Y-110131974D01*
X105213212Y-110135000D01*
X105436788Y-110135000D01*
X105452000Y-110131974D01*
X105452000Y-110143000D01*
X106292954Y-110143000D01*
X106419119Y-109968126D01*
X106402446Y-109913136D01*
X106312123Y-109709794D01*
X106265082Y-109643109D01*
X110618519Y-109643109D01*
X110739186Y-109873000D01*
X111933000Y-109873000D01*
X111933000Y-108679845D01*
X112187000Y-108679845D01*
X112187000Y-109873000D01*
X112207000Y-109873000D01*
X112207000Y-110127000D01*
X112187000Y-110127000D01*
X112187000Y-112413000D01*
X112207000Y-112413000D01*
X112207000Y-112667000D01*
X112187000Y-112667000D01*
X112187000Y-113860155D01*
X112416890Y-113981476D01*
X112564099Y-113936825D01*
X112826920Y-113811641D01*
X113060269Y-113637588D01*
X113255178Y-113421355D01*
X113324805Y-113304466D01*
X113446525Y-113486632D01*
X113653368Y-113693475D01*
X113896589Y-113855990D01*
X114166842Y-113967932D01*
X114453740Y-114025000D01*
X114746260Y-114025000D01*
X115033158Y-113967932D01*
X115303411Y-113855990D01*
X115546632Y-113693475D01*
X115753475Y-113486632D01*
X115870000Y-113312240D01*
X115986525Y-113486632D01*
X116193368Y-113693475D01*
X116436589Y-113855990D01*
X116706842Y-113967932D01*
X116993740Y-114025000D01*
X117286260Y-114025000D01*
X117573158Y-113967932D01*
X117843411Y-113855990D01*
X118086632Y-113693475D01*
X118293475Y-113486632D01*
X118410000Y-113312240D01*
X118526525Y-113486632D01*
X118733368Y-113693475D01*
X118976589Y-113855990D01*
X119246842Y-113967932D01*
X119533740Y-114025000D01*
X119826260Y-114025000D01*
X120113158Y-113967932D01*
X120383411Y-113855990D01*
X120626632Y-113693475D01*
X120833475Y-113486632D01*
X120950000Y-113312240D01*
X121066525Y-113486632D01*
X121273368Y-113693475D01*
X121516589Y-113855990D01*
X121786842Y-113967932D01*
X122073740Y-114025000D01*
X122366260Y-114025000D01*
X122653158Y-113967932D01*
X122923411Y-113855990D01*
X123166632Y-113693475D01*
X123373475Y-113486632D01*
X123490000Y-113312240D01*
X123606525Y-113486632D01*
X123813368Y-113693475D01*
X124056589Y-113855990D01*
X124326842Y-113967932D01*
X124613740Y-114025000D01*
X124906260Y-114025000D01*
X125193158Y-113967932D01*
X125463411Y-113855990D01*
X125706632Y-113693475D01*
X125913475Y-113486632D01*
X126030000Y-113312240D01*
X126146525Y-113486632D01*
X126353368Y-113693475D01*
X126596589Y-113855990D01*
X126866842Y-113967932D01*
X127153740Y-114025000D01*
X127446260Y-114025000D01*
X127733158Y-113967932D01*
X128003411Y-113855990D01*
X128246632Y-113693475D01*
X128453475Y-113486632D01*
X128570000Y-113312240D01*
X128686525Y-113486632D01*
X128893368Y-113693475D01*
X129136589Y-113855990D01*
X129406842Y-113967932D01*
X129693740Y-114025000D01*
X129986260Y-114025000D01*
X130273158Y-113967932D01*
X130543411Y-113855990D01*
X130786632Y-113693475D01*
X130993475Y-113486632D01*
X131110000Y-113312240D01*
X131226525Y-113486632D01*
X131433368Y-113693475D01*
X131676589Y-113855990D01*
X131946842Y-113967932D01*
X132233740Y-114025000D01*
X132526260Y-114025000D01*
X132813158Y-113967932D01*
X133083411Y-113855990D01*
X133326632Y-113693475D01*
X133533475Y-113486632D01*
X133650000Y-113312240D01*
X133766525Y-113486632D01*
X133973368Y-113693475D01*
X134216589Y-113855990D01*
X134486842Y-113967932D01*
X134773740Y-114025000D01*
X135066260Y-114025000D01*
X135353158Y-113967932D01*
X135623411Y-113855990D01*
X135866632Y-113693475D01*
X136073475Y-113486632D01*
X136190000Y-113312240D01*
X136306525Y-113486632D01*
X136513368Y-113693475D01*
X136756589Y-113855990D01*
X137026842Y-113967932D01*
X137313740Y-114025000D01*
X137606260Y-114025000D01*
X137893158Y-113967932D01*
X138163411Y-113855990D01*
X138406632Y-113693475D01*
X138613475Y-113486632D01*
X138735195Y-113304466D01*
X138804822Y-113421355D01*
X138999731Y-113637588D01*
X139233080Y-113811641D01*
X139495901Y-113936825D01*
X139643110Y-113981476D01*
X139873000Y-113860155D01*
X139873000Y-112667000D01*
X140127000Y-112667000D01*
X140127000Y-113860155D01*
X140356890Y-113981476D01*
X140504099Y-113936825D01*
X140766920Y-113811641D01*
X141000269Y-113637588D01*
X141195178Y-113421355D01*
X141344157Y-113171252D01*
X141441481Y-112896891D01*
X141320814Y-112667000D01*
X140127000Y-112667000D01*
X139873000Y-112667000D01*
X139853000Y-112667000D01*
X139853000Y-112413000D01*
X139873000Y-112413000D01*
X139873000Y-110127000D01*
X140127000Y-110127000D01*
X140127000Y-112413000D01*
X141320814Y-112413000D01*
X141441481Y-112183109D01*
X141344157Y-111908748D01*
X141195178Y-111658645D01*
X141018374Y-111462498D01*
X141094180Y-111439502D01*
X141204494Y-111380537D01*
X141301185Y-111301185D01*
X141380537Y-111204494D01*
X141439502Y-111094180D01*
X141475812Y-110974482D01*
X141488072Y-110850000D01*
X141485000Y-110285750D01*
X141326250Y-110127000D01*
X140127000Y-110127000D01*
X139873000Y-110127000D01*
X139853000Y-110127000D01*
X139853000Y-109873000D01*
X139873000Y-109873000D01*
X139873000Y-108673750D01*
X140127000Y-108673750D01*
X140127000Y-109873000D01*
X141326250Y-109873000D01*
X141485000Y-109714250D01*
X141488072Y-109150000D01*
X141475812Y-109025518D01*
X141439502Y-108905820D01*
X141380537Y-108795506D01*
X141301185Y-108698815D01*
X141204494Y-108619463D01*
X141094180Y-108560498D01*
X140974482Y-108524188D01*
X140850000Y-108511928D01*
X140285750Y-108515000D01*
X140127000Y-108673750D01*
X139873000Y-108673750D01*
X139714250Y-108515000D01*
X139150000Y-108511928D01*
X139025518Y-108524188D01*
X138905820Y-108560498D01*
X138795506Y-108619463D01*
X138698815Y-108698815D01*
X138619463Y-108795506D01*
X138560498Y-108905820D01*
X138538487Y-108978380D01*
X138406632Y-108846525D01*
X138163411Y-108684010D01*
X137893158Y-108572068D01*
X137606260Y-108515000D01*
X137313740Y-108515000D01*
X137026842Y-108572068D01*
X136756589Y-108684010D01*
X136513368Y-108846525D01*
X136306525Y-109053368D01*
X136190000Y-109227760D01*
X136073475Y-109053368D01*
X135866632Y-108846525D01*
X135623411Y-108684010D01*
X135353158Y-108572068D01*
X135066260Y-108515000D01*
X134773740Y-108515000D01*
X134486842Y-108572068D01*
X134216589Y-108684010D01*
X133973368Y-108846525D01*
X133766525Y-109053368D01*
X133650000Y-109227760D01*
X133533475Y-109053368D01*
X133326632Y-108846525D01*
X133083411Y-108684010D01*
X132813158Y-108572068D01*
X132526260Y-108515000D01*
X132233740Y-108515000D01*
X131946842Y-108572068D01*
X131676589Y-108684010D01*
X131433368Y-108846525D01*
X131226525Y-109053368D01*
X131110000Y-109227760D01*
X130993475Y-109053368D01*
X130786632Y-108846525D01*
X130543411Y-108684010D01*
X130273158Y-108572068D01*
X129986260Y-108515000D01*
X129693740Y-108515000D01*
X129406842Y-108572068D01*
X129136589Y-108684010D01*
X128893368Y-108846525D01*
X128686525Y-109053368D01*
X128570000Y-109227760D01*
X128453475Y-109053368D01*
X128246632Y-108846525D01*
X128003411Y-108684010D01*
X127733158Y-108572068D01*
X127446260Y-108515000D01*
X127153740Y-108515000D01*
X126866842Y-108572068D01*
X126596589Y-108684010D01*
X126353368Y-108846525D01*
X126146525Y-109053368D01*
X126030000Y-109227760D01*
X125913475Y-109053368D01*
X125706632Y-108846525D01*
X125463411Y-108684010D01*
X125193158Y-108572068D01*
X124906260Y-108515000D01*
X124613740Y-108515000D01*
X124326842Y-108572068D01*
X124056589Y-108684010D01*
X123813368Y-108846525D01*
X123606525Y-109053368D01*
X123490000Y-109227760D01*
X123373475Y-109053368D01*
X123166632Y-108846525D01*
X122923411Y-108684010D01*
X122653158Y-108572068D01*
X122366260Y-108515000D01*
X122073740Y-108515000D01*
X121786842Y-108572068D01*
X121516589Y-108684010D01*
X121273368Y-108846525D01*
X121066525Y-109053368D01*
X120950000Y-109227760D01*
X120833475Y-109053368D01*
X120626632Y-108846525D01*
X120383411Y-108684010D01*
X120113158Y-108572068D01*
X119826260Y-108515000D01*
X119533740Y-108515000D01*
X119246842Y-108572068D01*
X118976589Y-108684010D01*
X118733368Y-108846525D01*
X118526525Y-109053368D01*
X118410000Y-109227760D01*
X118293475Y-109053368D01*
X118086632Y-108846525D01*
X117843411Y-108684010D01*
X117573158Y-108572068D01*
X117286260Y-108515000D01*
X116993740Y-108515000D01*
X116706842Y-108572068D01*
X116436589Y-108684010D01*
X116193368Y-108846525D01*
X115986525Y-109053368D01*
X115870000Y-109227760D01*
X115753475Y-109053368D01*
X115546632Y-108846525D01*
X115303411Y-108684010D01*
X115033158Y-108572068D01*
X114746260Y-108515000D01*
X114453740Y-108515000D01*
X114166842Y-108572068D01*
X113896589Y-108684010D01*
X113653368Y-108846525D01*
X113446525Y-109053368D01*
X113324805Y-109235534D01*
X113255178Y-109118645D01*
X113060269Y-108902412D01*
X112826920Y-108728359D01*
X112564099Y-108603175D01*
X112416890Y-108558524D01*
X112187000Y-108679845D01*
X111933000Y-108679845D01*
X111703110Y-108558524D01*
X111555901Y-108603175D01*
X111293080Y-108728359D01*
X111059731Y-108902412D01*
X110864822Y-109118645D01*
X110715843Y-109368748D01*
X110618519Y-109643109D01*
X106265082Y-109643109D01*
X106262647Y-109639658D01*
X106330824Y-109537624D01*
X106416383Y-109331067D01*
X106460000Y-109111788D01*
X106460000Y-108888212D01*
X106416383Y-108668933D01*
X106330824Y-108462376D01*
X106265759Y-108365000D01*
X106330824Y-108267624D01*
X106416383Y-108061067D01*
X106460000Y-107841788D01*
X106460000Y-107618212D01*
X106416383Y-107398933D01*
X106330824Y-107192376D01*
X106265759Y-107095000D01*
X106330824Y-106997624D01*
X106416383Y-106791067D01*
X106460000Y-106571788D01*
X106460000Y-106348212D01*
X106416383Y-106128933D01*
X106330824Y-105922376D01*
X106206612Y-105736480D01*
X106048520Y-105578388D01*
X105862624Y-105454176D01*
X105656067Y-105368617D01*
X105436788Y-105325000D01*
X105213212Y-105325000D01*
X104993933Y-105368617D01*
X104787376Y-105454176D01*
X104690000Y-105519241D01*
X104592624Y-105454176D01*
X104386067Y-105368617D01*
X104166788Y-105325000D01*
X103943212Y-105325000D01*
X103723933Y-105368617D01*
X103517376Y-105454176D01*
X103331480Y-105578388D01*
X103173388Y-105736480D01*
X103049176Y-105922376D01*
X102963617Y-106128933D01*
X102920000Y-106348212D01*
X100660000Y-106348212D01*
X100660000Y-104947911D01*
X122545000Y-104947911D01*
X122545000Y-105132089D01*
X122580932Y-105312729D01*
X122651414Y-105482889D01*
X122753738Y-105636028D01*
X122883972Y-105766262D01*
X123037111Y-105868586D01*
X123207271Y-105939068D01*
X123387911Y-105975000D01*
X123572089Y-105975000D01*
X123752729Y-105939068D01*
X123922889Y-105868586D01*
X124076028Y-105766262D01*
X124206262Y-105636028D01*
X124308586Y-105482889D01*
X124379068Y-105312729D01*
X124415000Y-105132089D01*
X124415000Y-104947911D01*
X124379068Y-104767271D01*
X124308586Y-104597111D01*
X124206262Y-104443972D01*
X124076028Y-104313738D01*
X123922889Y-104211414D01*
X123752729Y-104140932D01*
X123572089Y-104105000D01*
X123387911Y-104105000D01*
X123207271Y-104140932D01*
X123037111Y-104211414D01*
X122883972Y-104313738D01*
X122753738Y-104443972D01*
X122651414Y-104597111D01*
X122580932Y-104767271D01*
X122545000Y-104947911D01*
X100660000Y-104947911D01*
X100660000Y-100905734D01*
X109362823Y-100905734D01*
X109362823Y-101089912D01*
X109398755Y-101270552D01*
X109469237Y-101440712D01*
X109571561Y-101593851D01*
X109701795Y-101724085D01*
X109854934Y-101826409D01*
X110025094Y-101896891D01*
X110205734Y-101932823D01*
X110389912Y-101932823D01*
X110570552Y-101896891D01*
X110740712Y-101826409D01*
X110893851Y-101724085D01*
X111024085Y-101593851D01*
X111126409Y-101440712D01*
X111196891Y-101270552D01*
X111232823Y-101089912D01*
X111232823Y-100905734D01*
X111196891Y-100725094D01*
X111146377Y-100603140D01*
X122263000Y-100603140D01*
X122263000Y-100787318D01*
X122298932Y-100967958D01*
X122369414Y-101138118D01*
X122471738Y-101291257D01*
X122601972Y-101421491D01*
X122755111Y-101523815D01*
X122792983Y-101539502D01*
X122798932Y-101569407D01*
X122869414Y-101739567D01*
X122971738Y-101892706D01*
X123101972Y-102022940D01*
X123255111Y-102125264D01*
X123283837Y-102137162D01*
X123298932Y-102213051D01*
X123369414Y-102383211D01*
X123471738Y-102536350D01*
X123601972Y-102666584D01*
X123755111Y-102768908D01*
X123778220Y-102778480D01*
X123798932Y-102882606D01*
X123869414Y-103052766D01*
X123971738Y-103205905D01*
X124101972Y-103336139D01*
X124255111Y-103438463D01*
X124286768Y-103451576D01*
X124298932Y-103512729D01*
X124369414Y-103682889D01*
X124471738Y-103836028D01*
X124601972Y-103966262D01*
X124755111Y-104068586D01*
X124925271Y-104139068D01*
X125105911Y-104175000D01*
X125290089Y-104175000D01*
X125470729Y-104139068D01*
X125640889Y-104068586D01*
X125794028Y-103966262D01*
X125902379Y-103857911D01*
X129525000Y-103857911D01*
X129525000Y-104042089D01*
X129560932Y-104222729D01*
X129631414Y-104392889D01*
X129733738Y-104546028D01*
X129863972Y-104676262D01*
X130017111Y-104778586D01*
X130187271Y-104849068D01*
X130367911Y-104885000D01*
X130552089Y-104885000D01*
X130732729Y-104849068D01*
X130902889Y-104778586D01*
X131056028Y-104676262D01*
X131186262Y-104546028D01*
X131288586Y-104392889D01*
X131359068Y-104222729D01*
X131395000Y-104042089D01*
X131395000Y-103857911D01*
X131359068Y-103677271D01*
X131288586Y-103507111D01*
X131186262Y-103353972D01*
X131056028Y-103223738D01*
X130902889Y-103121414D01*
X130732729Y-103050932D01*
X130552089Y-103015000D01*
X130367911Y-103015000D01*
X130187271Y-103050932D01*
X130017111Y-103121414D01*
X129863972Y-103223738D01*
X129733738Y-103353972D01*
X129631414Y-103507111D01*
X129560932Y-103677271D01*
X129525000Y-103857911D01*
X125902379Y-103857911D01*
X125924262Y-103836028D01*
X126026586Y-103682889D01*
X126097068Y-103512729D01*
X126133000Y-103332089D01*
X126133000Y-103147911D01*
X126097068Y-102967271D01*
X126026586Y-102797111D01*
X125924262Y-102643972D01*
X125794028Y-102513738D01*
X125640889Y-102411414D01*
X125609232Y-102398301D01*
X125597068Y-102337148D01*
X125526586Y-102166988D01*
X125424262Y-102013849D01*
X125294028Y-101883615D01*
X125140889Y-101781291D01*
X125117780Y-101771719D01*
X125097068Y-101667593D01*
X125026586Y-101497433D01*
X124924262Y-101344294D01*
X124794028Y-101214060D01*
X124640889Y-101111736D01*
X124612163Y-101099838D01*
X124597068Y-101023949D01*
X124526586Y-100853789D01*
X124424262Y-100700650D01*
X124294028Y-100570416D01*
X124140889Y-100468092D01*
X124103017Y-100452405D01*
X124097068Y-100422500D01*
X124026586Y-100252340D01*
X123924262Y-100099201D01*
X123794028Y-99968967D01*
X123640889Y-99866643D01*
X123470729Y-99796161D01*
X123290089Y-99760229D01*
X123105911Y-99760229D01*
X122925271Y-99796161D01*
X122755111Y-99866643D01*
X122601972Y-99968967D01*
X122471738Y-100099201D01*
X122369414Y-100252340D01*
X122298932Y-100422500D01*
X122263000Y-100603140D01*
X111146377Y-100603140D01*
X111126409Y-100554934D01*
X111024085Y-100401795D01*
X110893851Y-100271561D01*
X110740712Y-100169237D01*
X110570552Y-100098755D01*
X110389912Y-100062823D01*
X110205734Y-100062823D01*
X110025094Y-100098755D01*
X109854934Y-100169237D01*
X109701795Y-100271561D01*
X109571561Y-100401795D01*
X109469237Y-100554934D01*
X109398755Y-100725094D01*
X109362823Y-100905734D01*
X100660000Y-100905734D01*
X100660000Y-99320000D01*
X101669509Y-99320000D01*
X101691423Y-99542499D01*
X101756324Y-99756447D01*
X101861716Y-99953623D01*
X102003551Y-100126449D01*
X102176377Y-100268284D01*
X102373553Y-100373676D01*
X102587501Y-100438577D01*
X102754248Y-100455000D01*
X103465752Y-100455000D01*
X103632499Y-100438577D01*
X103846447Y-100373676D01*
X104043623Y-100268284D01*
X104216449Y-100126449D01*
X104358284Y-99953623D01*
X104463676Y-99756447D01*
X104528577Y-99542499D01*
X104550491Y-99320000D01*
X105599509Y-99320000D01*
X105621423Y-99542499D01*
X105686324Y-99756447D01*
X105791716Y-99953623D01*
X105933551Y-100126449D01*
X106106377Y-100268284D01*
X106303553Y-100373676D01*
X106517501Y-100438577D01*
X106684248Y-100455000D01*
X107895752Y-100455000D01*
X108062499Y-100438577D01*
X108276447Y-100373676D01*
X108473623Y-100268284D01*
X108646449Y-100126449D01*
X108788284Y-99953623D01*
X108893676Y-99756447D01*
X108958577Y-99542499D01*
X108980491Y-99320000D01*
X108958577Y-99097501D01*
X108925333Y-98987911D01*
X129015000Y-98987911D01*
X129015000Y-99172089D01*
X129050932Y-99352729D01*
X129121414Y-99522889D01*
X129223738Y-99676028D01*
X129353972Y-99806262D01*
X129507111Y-99908586D01*
X129677271Y-99979068D01*
X129857911Y-100015000D01*
X130042089Y-100015000D01*
X130222729Y-99979068D01*
X130392889Y-99908586D01*
X130546028Y-99806262D01*
X130676262Y-99676028D01*
X130778586Y-99522889D01*
X130849068Y-99352729D01*
X130885000Y-99172089D01*
X130885000Y-98987911D01*
X130869087Y-98907911D01*
X138085000Y-98907911D01*
X138085000Y-99092089D01*
X138120932Y-99272729D01*
X138191414Y-99442889D01*
X138293738Y-99596028D01*
X138423972Y-99726262D01*
X138577111Y-99828586D01*
X138747271Y-99899068D01*
X138927911Y-99935000D01*
X139112089Y-99935000D01*
X139292729Y-99899068D01*
X139462889Y-99828586D01*
X139616028Y-99726262D01*
X139746262Y-99596028D01*
X139848586Y-99442889D01*
X139919068Y-99272729D01*
X139955000Y-99092089D01*
X139955000Y-98907911D01*
X139919068Y-98727271D01*
X139848586Y-98557111D01*
X139746262Y-98403972D01*
X139616028Y-98273738D01*
X139462889Y-98171414D01*
X139292729Y-98100932D01*
X139112089Y-98065000D01*
X138927911Y-98065000D01*
X138747271Y-98100932D01*
X138577111Y-98171414D01*
X138423972Y-98273738D01*
X138293738Y-98403972D01*
X138191414Y-98557111D01*
X138120932Y-98727271D01*
X138085000Y-98907911D01*
X130869087Y-98907911D01*
X130849068Y-98807271D01*
X130778586Y-98637111D01*
X130676262Y-98483972D01*
X130546028Y-98353738D01*
X130392889Y-98251414D01*
X130222729Y-98180932D01*
X130042089Y-98145000D01*
X129857911Y-98145000D01*
X129677271Y-98180932D01*
X129507111Y-98251414D01*
X129353972Y-98353738D01*
X129223738Y-98483972D01*
X129121414Y-98637111D01*
X129050932Y-98807271D01*
X129015000Y-98987911D01*
X108925333Y-98987911D01*
X108893676Y-98883553D01*
X108788284Y-98686377D01*
X108646449Y-98513551D01*
X108473623Y-98371716D01*
X108276447Y-98266324D01*
X108062499Y-98201423D01*
X107895752Y-98185000D01*
X107676904Y-98185000D01*
X107683108Y-98170022D01*
X107720000Y-97984552D01*
X107720000Y-97795448D01*
X107683108Y-97609978D01*
X107610741Y-97435269D01*
X107505681Y-97278036D01*
X107371964Y-97144319D01*
X107214731Y-97039259D01*
X107040022Y-96966892D01*
X106854552Y-96930000D01*
X106665448Y-96930000D01*
X106479978Y-96966892D01*
X106305269Y-97039259D01*
X106148036Y-97144319D01*
X106014319Y-97278036D01*
X105909259Y-97435269D01*
X105836892Y-97609978D01*
X105800000Y-97795448D01*
X105800000Y-97984552D01*
X105836892Y-98170022D01*
X105909259Y-98344731D01*
X105990715Y-98466638D01*
X105933551Y-98513551D01*
X105791716Y-98686377D01*
X105686324Y-98883553D01*
X105621423Y-99097501D01*
X105599509Y-99320000D01*
X104550491Y-99320000D01*
X104528577Y-99097501D01*
X104463676Y-98883553D01*
X104358284Y-98686377D01*
X104216449Y-98513551D01*
X104043623Y-98371716D01*
X103846447Y-98266324D01*
X103632499Y-98201423D01*
X103465752Y-98185000D01*
X102754248Y-98185000D01*
X102587501Y-98201423D01*
X102373553Y-98266324D01*
X102176377Y-98371716D01*
X102003551Y-98513551D01*
X101861716Y-98686377D01*
X101756324Y-98883553D01*
X101691423Y-99097501D01*
X101669509Y-99320000D01*
X100660000Y-99320000D01*
X100660000Y-94357911D01*
X112645000Y-94357911D01*
X112645000Y-94542089D01*
X112680932Y-94722729D01*
X112751414Y-94892889D01*
X112853738Y-95046028D01*
X112983972Y-95176262D01*
X112988454Y-95179256D01*
X112863738Y-95303972D01*
X112761414Y-95457111D01*
X112690932Y-95627271D01*
X112655000Y-95807911D01*
X112655000Y-95992089D01*
X112690932Y-96172729D01*
X112761414Y-96342889D01*
X112863738Y-96496028D01*
X112993972Y-96626262D01*
X113147111Y-96728586D01*
X113317271Y-96799068D01*
X113492755Y-96833974D01*
X113492755Y-96993194D01*
X113528687Y-97173834D01*
X113599169Y-97343994D01*
X113701493Y-97497133D01*
X113831727Y-97627367D01*
X113984866Y-97729691D01*
X114155026Y-97800173D01*
X114335666Y-97836105D01*
X114519844Y-97836105D01*
X114700484Y-97800173D01*
X114870644Y-97729691D01*
X115023783Y-97627367D01*
X115136150Y-97515000D01*
X115172089Y-97515000D01*
X115352729Y-97479068D01*
X115522889Y-97408586D01*
X115676028Y-97306262D01*
X115806262Y-97176028D01*
X115908586Y-97022889D01*
X115979068Y-96852729D01*
X115980605Y-96845000D01*
X116102089Y-96845000D01*
X116282729Y-96809068D01*
X116452889Y-96738586D01*
X116606028Y-96636262D01*
X116736262Y-96506028D01*
X116838586Y-96352889D01*
X116909068Y-96182729D01*
X116945000Y-96002089D01*
X116945000Y-95817911D01*
X116909068Y-95637271D01*
X116838586Y-95467111D01*
X116736262Y-95313972D01*
X116606028Y-95183738D01*
X116452889Y-95081414D01*
X116282729Y-95010932D01*
X116102089Y-94975000D01*
X115917911Y-94975000D01*
X115737271Y-95010932D01*
X115567111Y-95081414D01*
X115413972Y-95183738D01*
X115283738Y-95313972D01*
X115181414Y-95467111D01*
X115110932Y-95637271D01*
X115109395Y-95645000D01*
X114987911Y-95645000D01*
X114807271Y-95680932D01*
X114637111Y-95751414D01*
X114525000Y-95826324D01*
X114525000Y-95807911D01*
X114489068Y-95627271D01*
X114418586Y-95457111D01*
X114316262Y-95303972D01*
X114186028Y-95173738D01*
X114181546Y-95170744D01*
X114306262Y-95046028D01*
X114408586Y-94892889D01*
X114479068Y-94722729D01*
X114515000Y-94542089D01*
X114515000Y-94357911D01*
X114479068Y-94177271D01*
X114408586Y-94007111D01*
X114306262Y-93853972D01*
X114176028Y-93723738D01*
X114022889Y-93621414D01*
X113852729Y-93550932D01*
X113672089Y-93515000D01*
X113487911Y-93515000D01*
X113307271Y-93550932D01*
X113137111Y-93621414D01*
X112983972Y-93723738D01*
X112853738Y-93853972D01*
X112751414Y-94007111D01*
X112680932Y-94177271D01*
X112645000Y-94357911D01*
X100660000Y-94357911D01*
X100660000Y-90680000D01*
X101669509Y-90680000D01*
X101691423Y-90902499D01*
X101756324Y-91116447D01*
X101861716Y-91313623D01*
X102003551Y-91486449D01*
X102176377Y-91628284D01*
X102373553Y-91733676D01*
X102587501Y-91798577D01*
X102754248Y-91815000D01*
X103465752Y-91815000D01*
X103632499Y-91798577D01*
X103846447Y-91733676D01*
X104043623Y-91628284D01*
X104216449Y-91486449D01*
X104358284Y-91313623D01*
X104463676Y-91116447D01*
X104528577Y-90902499D01*
X104550491Y-90680000D01*
X105599509Y-90680000D01*
X105621423Y-90902499D01*
X105686324Y-91116447D01*
X105791716Y-91313623D01*
X105933551Y-91486449D01*
X105990715Y-91533362D01*
X105909259Y-91655269D01*
X105836892Y-91829978D01*
X105800000Y-92015448D01*
X105800000Y-92204552D01*
X105836892Y-92390022D01*
X105909259Y-92564731D01*
X106014319Y-92721964D01*
X106148036Y-92855681D01*
X106305269Y-92960741D01*
X106479978Y-93033108D01*
X106665448Y-93070000D01*
X106854552Y-93070000D01*
X107040022Y-93033108D01*
X107214731Y-92960741D01*
X107371964Y-92855681D01*
X107505681Y-92721964D01*
X107610741Y-92564731D01*
X107683108Y-92390022D01*
X107720000Y-92204552D01*
X107720000Y-92015448D01*
X107683108Y-91829978D01*
X107676904Y-91815000D01*
X107895752Y-91815000D01*
X108062499Y-91798577D01*
X108276447Y-91733676D01*
X108473623Y-91628284D01*
X108646449Y-91486449D01*
X108788284Y-91313623D01*
X108818062Y-91257911D01*
X116015000Y-91257911D01*
X116015000Y-91442089D01*
X116050932Y-91622729D01*
X116121414Y-91792889D01*
X116223738Y-91946028D01*
X116353972Y-92076262D01*
X116507111Y-92178586D01*
X116677271Y-92249068D01*
X116857911Y-92285000D01*
X117042089Y-92285000D01*
X117222729Y-92249068D01*
X117274632Y-92227569D01*
X117333738Y-92316028D01*
X117463972Y-92446262D01*
X117617111Y-92548586D01*
X117787271Y-92619068D01*
X117967911Y-92655000D01*
X118152089Y-92655000D01*
X118332729Y-92619068D01*
X118502889Y-92548586D01*
X118656028Y-92446262D01*
X118694379Y-92407911D01*
X122565000Y-92407911D01*
X122565000Y-92592089D01*
X122600932Y-92772729D01*
X122671414Y-92942889D01*
X122773738Y-93096028D01*
X122903972Y-93226262D01*
X122939498Y-93250000D01*
X122903972Y-93273738D01*
X122773738Y-93403972D01*
X122671414Y-93557111D01*
X122600932Y-93727271D01*
X122565000Y-93907911D01*
X122565000Y-94092089D01*
X122600932Y-94272729D01*
X122671414Y-94442889D01*
X122773738Y-94596028D01*
X122903972Y-94726262D01*
X122939498Y-94750000D01*
X122903972Y-94773738D01*
X122773738Y-94903972D01*
X122671414Y-95057111D01*
X122600932Y-95227271D01*
X122565000Y-95407911D01*
X122565000Y-95592089D01*
X122600932Y-95772729D01*
X122671414Y-95942889D01*
X122773738Y-96096028D01*
X122903972Y-96226262D01*
X123057111Y-96328586D01*
X123227271Y-96399068D01*
X123407911Y-96435000D01*
X123592089Y-96435000D01*
X123772729Y-96399068D01*
X123942889Y-96328586D01*
X124096028Y-96226262D01*
X124226262Y-96096028D01*
X124250000Y-96060502D01*
X124273738Y-96096028D01*
X124403972Y-96226262D01*
X124557111Y-96328586D01*
X124727271Y-96399068D01*
X124907911Y-96435000D01*
X125092089Y-96435000D01*
X125272729Y-96399068D01*
X125442889Y-96328586D01*
X125596028Y-96226262D01*
X125726262Y-96096028D01*
X125750000Y-96060502D01*
X125773738Y-96096028D01*
X125903972Y-96226262D01*
X126057111Y-96328586D01*
X126227271Y-96399068D01*
X126407911Y-96435000D01*
X126592089Y-96435000D01*
X126772729Y-96399068D01*
X126942889Y-96328586D01*
X127096028Y-96226262D01*
X127226262Y-96096028D01*
X127328586Y-95942889D01*
X127399068Y-95772729D01*
X127435000Y-95592089D01*
X127435000Y-95583547D01*
X134319283Y-95583547D01*
X134319283Y-95767725D01*
X134355215Y-95948365D01*
X134425697Y-96118525D01*
X134528021Y-96271664D01*
X134658255Y-96401898D01*
X134811394Y-96504222D01*
X134981554Y-96574704D01*
X135162194Y-96610636D01*
X135346372Y-96610636D01*
X135527012Y-96574704D01*
X135697172Y-96504222D01*
X135850311Y-96401898D01*
X135980545Y-96271664D01*
X136082869Y-96118525D01*
X136153351Y-95948365D01*
X136189283Y-95767725D01*
X136189283Y-95583547D01*
X136153351Y-95402907D01*
X136082869Y-95232747D01*
X135980545Y-95079608D01*
X135850311Y-94949374D01*
X135697172Y-94847050D01*
X135527012Y-94776568D01*
X135346372Y-94740636D01*
X135162194Y-94740636D01*
X134981554Y-94776568D01*
X134811394Y-94847050D01*
X134658255Y-94949374D01*
X134528021Y-95079608D01*
X134425697Y-95232747D01*
X134355215Y-95402907D01*
X134319283Y-95583547D01*
X127435000Y-95583547D01*
X127435000Y-95407911D01*
X127399068Y-95227271D01*
X127328586Y-95057111D01*
X127226262Y-94903972D01*
X127096028Y-94773738D01*
X127060502Y-94750000D01*
X127096028Y-94726262D01*
X127226262Y-94596028D01*
X127328586Y-94442889D01*
X127399068Y-94272729D01*
X127435000Y-94092089D01*
X127435000Y-93907911D01*
X127399068Y-93727271D01*
X127328586Y-93557111D01*
X127226262Y-93403972D01*
X127096028Y-93273738D01*
X127060502Y-93250000D01*
X127096028Y-93226262D01*
X127226262Y-93096028D01*
X127258412Y-93047911D01*
X132615000Y-93047911D01*
X132615000Y-93232089D01*
X132650932Y-93412729D01*
X132721414Y-93582889D01*
X132823738Y-93736028D01*
X132953972Y-93866262D01*
X133107111Y-93968586D01*
X133277271Y-94039068D01*
X133457911Y-94075000D01*
X133642089Y-94075000D01*
X133822729Y-94039068D01*
X133992889Y-93968586D01*
X134146028Y-93866262D01*
X134276262Y-93736028D01*
X134378586Y-93582889D01*
X134449068Y-93412729D01*
X134485000Y-93232089D01*
X134485000Y-93047911D01*
X134449068Y-92867271D01*
X134378586Y-92697111D01*
X134276262Y-92543972D01*
X134146028Y-92413738D01*
X133992889Y-92311414D01*
X133822729Y-92240932D01*
X133642089Y-92205000D01*
X133457911Y-92205000D01*
X133277271Y-92240932D01*
X133107111Y-92311414D01*
X132953972Y-92413738D01*
X132823738Y-92543972D01*
X132721414Y-92697111D01*
X132650932Y-92867271D01*
X132615000Y-93047911D01*
X127258412Y-93047911D01*
X127328586Y-92942889D01*
X127399068Y-92772729D01*
X127435000Y-92592089D01*
X127435000Y-92407911D01*
X127399068Y-92227271D01*
X127328586Y-92057111D01*
X127322439Y-92047911D01*
X137135000Y-92047911D01*
X137135000Y-92232089D01*
X137170932Y-92412729D01*
X137241414Y-92582889D01*
X137343738Y-92736028D01*
X137473972Y-92866262D01*
X137627111Y-92968586D01*
X137797271Y-93039068D01*
X137977911Y-93075000D01*
X138162089Y-93075000D01*
X138342729Y-93039068D01*
X138512889Y-92968586D01*
X138666028Y-92866262D01*
X138796262Y-92736028D01*
X138898586Y-92582889D01*
X138969068Y-92412729D01*
X139005000Y-92232089D01*
X139005000Y-92047911D01*
X138969068Y-91867271D01*
X138898586Y-91697111D01*
X138796262Y-91543972D01*
X138666028Y-91413738D01*
X138512889Y-91311414D01*
X138342729Y-91240932D01*
X138162089Y-91205000D01*
X137977911Y-91205000D01*
X137797271Y-91240932D01*
X137627111Y-91311414D01*
X137473972Y-91413738D01*
X137343738Y-91543972D01*
X137241414Y-91697111D01*
X137170932Y-91867271D01*
X137135000Y-92047911D01*
X127322439Y-92047911D01*
X127226262Y-91903972D01*
X127096028Y-91773738D01*
X126942889Y-91671414D01*
X126772729Y-91600932D01*
X126592089Y-91565000D01*
X126407911Y-91565000D01*
X126227271Y-91600932D01*
X126057111Y-91671414D01*
X125903972Y-91773738D01*
X125773738Y-91903972D01*
X125750000Y-91939498D01*
X125726262Y-91903972D01*
X125596028Y-91773738D01*
X125442889Y-91671414D01*
X125272729Y-91600932D01*
X125092089Y-91565000D01*
X124907911Y-91565000D01*
X124727271Y-91600932D01*
X124557111Y-91671414D01*
X124403972Y-91773738D01*
X124273738Y-91903972D01*
X124250000Y-91939498D01*
X124226262Y-91903972D01*
X124096028Y-91773738D01*
X123942889Y-91671414D01*
X123772729Y-91600932D01*
X123592089Y-91565000D01*
X123407911Y-91565000D01*
X123227271Y-91600932D01*
X123057111Y-91671414D01*
X122903972Y-91773738D01*
X122773738Y-91903972D01*
X122671414Y-92057111D01*
X122600932Y-92227271D01*
X122565000Y-92407911D01*
X118694379Y-92407911D01*
X118786262Y-92316028D01*
X118883315Y-92170778D01*
X119042729Y-92139068D01*
X119212889Y-92068586D01*
X119366028Y-91966262D01*
X119367633Y-91964657D01*
X119500297Y-91991046D01*
X119684475Y-91991046D01*
X119865115Y-91955114D01*
X120035275Y-91884632D01*
X120188414Y-91782308D01*
X120215722Y-91755000D01*
X120372089Y-91755000D01*
X120552729Y-91719068D01*
X120722889Y-91648586D01*
X120876028Y-91546262D01*
X121006262Y-91416028D01*
X121108586Y-91262889D01*
X121179068Y-91092729D01*
X121215000Y-90912089D01*
X121215000Y-90727911D01*
X121179068Y-90547271D01*
X121108586Y-90377111D01*
X121006262Y-90223972D01*
X120876028Y-90093738D01*
X120722889Y-89991414D01*
X120552729Y-89920932D01*
X120372089Y-89885000D01*
X120187911Y-89885000D01*
X120007271Y-89920932D01*
X119837111Y-89991414D01*
X119683972Y-90093738D01*
X119656664Y-90121046D01*
X119500297Y-90121046D01*
X119319657Y-90156978D01*
X119149497Y-90227460D01*
X118996358Y-90329784D01*
X118994753Y-90331389D01*
X118862089Y-90305000D01*
X118677911Y-90305000D01*
X118497271Y-90340932D01*
X118327111Y-90411414D01*
X118173972Y-90513738D01*
X118043738Y-90643972D01*
X117946685Y-90789222D01*
X117787271Y-90820932D01*
X117735368Y-90842431D01*
X117676262Y-90753972D01*
X117546028Y-90623738D01*
X117392889Y-90521414D01*
X117222729Y-90450932D01*
X117042089Y-90415000D01*
X116857911Y-90415000D01*
X116677271Y-90450932D01*
X116507111Y-90521414D01*
X116353972Y-90623738D01*
X116223738Y-90753972D01*
X116121414Y-90907111D01*
X116050932Y-91077271D01*
X116015000Y-91257911D01*
X108818062Y-91257911D01*
X108893676Y-91116447D01*
X108958577Y-90902499D01*
X108980491Y-90680000D01*
X108962303Y-90495328D01*
X108997111Y-90518586D01*
X109167271Y-90589068D01*
X109347911Y-90625000D01*
X109532089Y-90625000D01*
X109712729Y-90589068D01*
X109882889Y-90518586D01*
X110036028Y-90416262D01*
X110166262Y-90286028D01*
X110268586Y-90132889D01*
X110339068Y-89962729D01*
X110375000Y-89782089D01*
X110375000Y-89597911D01*
X110339068Y-89417271D01*
X110268586Y-89247111D01*
X110166262Y-89093972D01*
X110036028Y-88963738D01*
X109882889Y-88861414D01*
X109712729Y-88790932D01*
X109532089Y-88755000D01*
X109347911Y-88755000D01*
X109167271Y-88790932D01*
X108997111Y-88861414D01*
X108843972Y-88963738D01*
X108713738Y-89093972D01*
X108611414Y-89247111D01*
X108540932Y-89417271D01*
X108505000Y-89597911D01*
X108505000Y-89757467D01*
X108473623Y-89731716D01*
X108276447Y-89626324D01*
X108062499Y-89561423D01*
X107895752Y-89545000D01*
X106684248Y-89545000D01*
X106517501Y-89561423D01*
X106303553Y-89626324D01*
X106106377Y-89731716D01*
X105933551Y-89873551D01*
X105791716Y-90046377D01*
X105686324Y-90243553D01*
X105621423Y-90457501D01*
X105599509Y-90680000D01*
X104550491Y-90680000D01*
X104528577Y-90457501D01*
X104463676Y-90243553D01*
X104358284Y-90046377D01*
X104216449Y-89873551D01*
X104043623Y-89731716D01*
X103846447Y-89626324D01*
X103632499Y-89561423D01*
X103465752Y-89545000D01*
X102754248Y-89545000D01*
X102587501Y-89561423D01*
X102373553Y-89626324D01*
X102176377Y-89731716D01*
X102003551Y-89873551D01*
X101861716Y-90046377D01*
X101756324Y-90243553D01*
X101691423Y-90457501D01*
X101669509Y-90680000D01*
X100660000Y-90680000D01*
X100660000Y-88103142D01*
X122763000Y-88103142D01*
X122763000Y-88287320D01*
X122798932Y-88467960D01*
X122869414Y-88638120D01*
X122971738Y-88791259D01*
X123101972Y-88921493D01*
X123255111Y-89023817D01*
X123425271Y-89094299D01*
X123605911Y-89130231D01*
X123790089Y-89130231D01*
X123970729Y-89094299D01*
X124140889Y-89023817D01*
X124294028Y-88921493D01*
X124424262Y-88791259D01*
X124526586Y-88638120D01*
X124597068Y-88467960D01*
X124598298Y-88461774D01*
X124640889Y-88444133D01*
X124794028Y-88341809D01*
X124924262Y-88211575D01*
X125026586Y-88058436D01*
X125097068Y-87888276D01*
X125109629Y-87825130D01*
X125140889Y-87812182D01*
X125294028Y-87709858D01*
X125424262Y-87579624D01*
X125526586Y-87426485D01*
X125597068Y-87256325D01*
X125599146Y-87245876D01*
X125640889Y-87228586D01*
X125794028Y-87126262D01*
X125924262Y-86996028D01*
X126026586Y-86842889D01*
X126097068Y-86672729D01*
X126133000Y-86492089D01*
X126133000Y-86307911D01*
X126097068Y-86127271D01*
X126026586Y-85957111D01*
X125924262Y-85803972D01*
X125794028Y-85673738D01*
X125640889Y-85571414D01*
X125470729Y-85500932D01*
X125290089Y-85465000D01*
X125105911Y-85465000D01*
X124925271Y-85500932D01*
X124755111Y-85571414D01*
X124601972Y-85673738D01*
X124471738Y-85803972D01*
X124369414Y-85957111D01*
X124298932Y-86127271D01*
X124296854Y-86137720D01*
X124255111Y-86155010D01*
X124101972Y-86257334D01*
X123971738Y-86387568D01*
X123869414Y-86540707D01*
X123798932Y-86710867D01*
X123786371Y-86774013D01*
X123755111Y-86786961D01*
X123601972Y-86889285D01*
X123471738Y-87019519D01*
X123369414Y-87172658D01*
X123298932Y-87342818D01*
X123297702Y-87349004D01*
X123255111Y-87366645D01*
X123101972Y-87468969D01*
X122971738Y-87599203D01*
X122869414Y-87752342D01*
X122798932Y-87922502D01*
X122763000Y-88103142D01*
X100660000Y-88103142D01*
X100660000Y-80356891D01*
X110618519Y-80356891D01*
X110715843Y-80631252D01*
X110864822Y-80881355D01*
X111059731Y-81097588D01*
X111293080Y-81271641D01*
X111555901Y-81396825D01*
X111703110Y-81441476D01*
X111933000Y-81320155D01*
X111933000Y-80127000D01*
X110739186Y-80127000D01*
X110618519Y-80356891D01*
X100660000Y-80356891D01*
X100660000Y-77816891D01*
X110618519Y-77816891D01*
X110715843Y-78091252D01*
X110864822Y-78341355D01*
X111059731Y-78557588D01*
X111290880Y-78730000D01*
X111059731Y-78902412D01*
X110864822Y-79118645D01*
X110715843Y-79368748D01*
X110618519Y-79643109D01*
X110739186Y-79873000D01*
X111933000Y-79873000D01*
X111933000Y-77587000D01*
X110739186Y-77587000D01*
X110618519Y-77816891D01*
X100660000Y-77816891D01*
X100660000Y-77103109D01*
X110618519Y-77103109D01*
X110739186Y-77333000D01*
X111933000Y-77333000D01*
X111933000Y-76139845D01*
X112187000Y-76139845D01*
X112187000Y-77333000D01*
X112207000Y-77333000D01*
X112207000Y-77587000D01*
X112187000Y-77587000D01*
X112187000Y-79873000D01*
X112207000Y-79873000D01*
X112207000Y-80127000D01*
X112187000Y-80127000D01*
X112187000Y-81320155D01*
X112416890Y-81441476D01*
X112564099Y-81396825D01*
X112826920Y-81271641D01*
X113060269Y-81097588D01*
X113255178Y-80881355D01*
X113324805Y-80764466D01*
X113446525Y-80946632D01*
X113653368Y-81153475D01*
X113896589Y-81315990D01*
X114166842Y-81427932D01*
X114453740Y-81485000D01*
X114746260Y-81485000D01*
X115033158Y-81427932D01*
X115303411Y-81315990D01*
X115546632Y-81153475D01*
X115753475Y-80946632D01*
X115870000Y-80772240D01*
X115986525Y-80946632D01*
X116193368Y-81153475D01*
X116436589Y-81315990D01*
X116706842Y-81427932D01*
X116993740Y-81485000D01*
X117286260Y-81485000D01*
X117573158Y-81427932D01*
X117843411Y-81315990D01*
X118086632Y-81153475D01*
X118293475Y-80946632D01*
X118410000Y-80772240D01*
X118526525Y-80946632D01*
X118733368Y-81153475D01*
X118976589Y-81315990D01*
X119246842Y-81427932D01*
X119533740Y-81485000D01*
X119826260Y-81485000D01*
X120113158Y-81427932D01*
X120383411Y-81315990D01*
X120626632Y-81153475D01*
X120833475Y-80946632D01*
X120950000Y-80772240D01*
X121066525Y-80946632D01*
X121273368Y-81153475D01*
X121516589Y-81315990D01*
X121786842Y-81427932D01*
X122073740Y-81485000D01*
X122366260Y-81485000D01*
X122653158Y-81427932D01*
X122923411Y-81315990D01*
X123166632Y-81153475D01*
X123373475Y-80946632D01*
X123490000Y-80772240D01*
X123606525Y-80946632D01*
X123813368Y-81153475D01*
X124056589Y-81315990D01*
X124326842Y-81427932D01*
X124613740Y-81485000D01*
X124906260Y-81485000D01*
X125193158Y-81427932D01*
X125463411Y-81315990D01*
X125706632Y-81153475D01*
X125913475Y-80946632D01*
X126030000Y-80772240D01*
X126146525Y-80946632D01*
X126353368Y-81153475D01*
X126596589Y-81315990D01*
X126866842Y-81427932D01*
X127153740Y-81485000D01*
X127446260Y-81485000D01*
X127733158Y-81427932D01*
X128003411Y-81315990D01*
X128246632Y-81153475D01*
X128453475Y-80946632D01*
X128570000Y-80772240D01*
X128686525Y-80946632D01*
X128893368Y-81153475D01*
X129136589Y-81315990D01*
X129406842Y-81427932D01*
X129693740Y-81485000D01*
X129986260Y-81485000D01*
X130273158Y-81427932D01*
X130543411Y-81315990D01*
X130786632Y-81153475D01*
X130993475Y-80946632D01*
X131110000Y-80772240D01*
X131226525Y-80946632D01*
X131433368Y-81153475D01*
X131676589Y-81315990D01*
X131946842Y-81427932D01*
X132233740Y-81485000D01*
X132526260Y-81485000D01*
X132813158Y-81427932D01*
X133083411Y-81315990D01*
X133326632Y-81153475D01*
X133533475Y-80946632D01*
X133650000Y-80772240D01*
X133766525Y-80946632D01*
X133973368Y-81153475D01*
X134216589Y-81315990D01*
X134486842Y-81427932D01*
X134773740Y-81485000D01*
X135066260Y-81485000D01*
X135353158Y-81427932D01*
X135623411Y-81315990D01*
X135866632Y-81153475D01*
X136073475Y-80946632D01*
X136190000Y-80772240D01*
X136306525Y-80946632D01*
X136513368Y-81153475D01*
X136756589Y-81315990D01*
X137026842Y-81427932D01*
X137313740Y-81485000D01*
X137606260Y-81485000D01*
X137893158Y-81427932D01*
X138163411Y-81315990D01*
X138406632Y-81153475D01*
X138613475Y-80946632D01*
X138735195Y-80764466D01*
X138804822Y-80881355D01*
X138999731Y-81097588D01*
X139233080Y-81271641D01*
X139495901Y-81396825D01*
X139643110Y-81441476D01*
X139873000Y-81320155D01*
X139873000Y-80127000D01*
X140127000Y-80127000D01*
X140127000Y-81320155D01*
X140356890Y-81441476D01*
X140504099Y-81396825D01*
X140766920Y-81271641D01*
X141000269Y-81097588D01*
X141195178Y-80881355D01*
X141344157Y-80631252D01*
X141441481Y-80356891D01*
X141320814Y-80127000D01*
X140127000Y-80127000D01*
X139873000Y-80127000D01*
X139853000Y-80127000D01*
X139853000Y-79873000D01*
X139873000Y-79873000D01*
X139873000Y-77587000D01*
X140127000Y-77587000D01*
X140127000Y-79873000D01*
X141320814Y-79873000D01*
X141441481Y-79643109D01*
X141344157Y-79368748D01*
X141195178Y-79118645D01*
X141018374Y-78922498D01*
X141094180Y-78899502D01*
X141204494Y-78840537D01*
X141301185Y-78761185D01*
X141380537Y-78664494D01*
X141439502Y-78554180D01*
X141475812Y-78434482D01*
X141488072Y-78310000D01*
X141485000Y-77745750D01*
X141326250Y-77587000D01*
X140127000Y-77587000D01*
X139873000Y-77587000D01*
X139853000Y-77587000D01*
X139853000Y-77333000D01*
X139873000Y-77333000D01*
X139873000Y-76133750D01*
X140127000Y-76133750D01*
X140127000Y-77333000D01*
X141326250Y-77333000D01*
X141485000Y-77174250D01*
X141488072Y-76610000D01*
X141475812Y-76485518D01*
X141439502Y-76365820D01*
X141380537Y-76255506D01*
X141301185Y-76158815D01*
X141204494Y-76079463D01*
X141094180Y-76020498D01*
X140974482Y-75984188D01*
X140850000Y-75971928D01*
X140285750Y-75975000D01*
X140127000Y-76133750D01*
X139873000Y-76133750D01*
X139714250Y-75975000D01*
X139150000Y-75971928D01*
X139025518Y-75984188D01*
X138905820Y-76020498D01*
X138795506Y-76079463D01*
X138698815Y-76158815D01*
X138619463Y-76255506D01*
X138560498Y-76365820D01*
X138538487Y-76438380D01*
X138406632Y-76306525D01*
X138163411Y-76144010D01*
X137893158Y-76032068D01*
X137606260Y-75975000D01*
X137313740Y-75975000D01*
X137026842Y-76032068D01*
X136756589Y-76144010D01*
X136513368Y-76306525D01*
X136306525Y-76513368D01*
X136190000Y-76687760D01*
X136073475Y-76513368D01*
X135866632Y-76306525D01*
X135623411Y-76144010D01*
X135353158Y-76032068D01*
X135066260Y-75975000D01*
X134773740Y-75975000D01*
X134486842Y-76032068D01*
X134216589Y-76144010D01*
X133973368Y-76306525D01*
X133766525Y-76513368D01*
X133650000Y-76687760D01*
X133533475Y-76513368D01*
X133326632Y-76306525D01*
X133083411Y-76144010D01*
X132813158Y-76032068D01*
X132526260Y-75975000D01*
X132233740Y-75975000D01*
X131946842Y-76032068D01*
X131676589Y-76144010D01*
X131433368Y-76306525D01*
X131226525Y-76513368D01*
X131110000Y-76687760D01*
X130993475Y-76513368D01*
X130786632Y-76306525D01*
X130543411Y-76144010D01*
X130273158Y-76032068D01*
X129986260Y-75975000D01*
X129693740Y-75975000D01*
X129406842Y-76032068D01*
X129136589Y-76144010D01*
X128893368Y-76306525D01*
X128686525Y-76513368D01*
X128570000Y-76687760D01*
X128453475Y-76513368D01*
X128246632Y-76306525D01*
X128003411Y-76144010D01*
X127733158Y-76032068D01*
X127446260Y-75975000D01*
X127153740Y-75975000D01*
X126866842Y-76032068D01*
X126596589Y-76144010D01*
X126353368Y-76306525D01*
X126146525Y-76513368D01*
X126030000Y-76687760D01*
X125913475Y-76513368D01*
X125706632Y-76306525D01*
X125463411Y-76144010D01*
X125193158Y-76032068D01*
X124906260Y-75975000D01*
X124613740Y-75975000D01*
X124326842Y-76032068D01*
X124056589Y-76144010D01*
X123813368Y-76306525D01*
X123606525Y-76513368D01*
X123490000Y-76687760D01*
X123373475Y-76513368D01*
X123166632Y-76306525D01*
X122923411Y-76144010D01*
X122653158Y-76032068D01*
X122366260Y-75975000D01*
X122073740Y-75975000D01*
X121786842Y-76032068D01*
X121516589Y-76144010D01*
X121273368Y-76306525D01*
X121066525Y-76513368D01*
X120950000Y-76687760D01*
X120833475Y-76513368D01*
X120626632Y-76306525D01*
X120383411Y-76144010D01*
X120113158Y-76032068D01*
X119826260Y-75975000D01*
X119533740Y-75975000D01*
X119246842Y-76032068D01*
X118976589Y-76144010D01*
X118733368Y-76306525D01*
X118526525Y-76513368D01*
X118410000Y-76687760D01*
X118293475Y-76513368D01*
X118086632Y-76306525D01*
X117843411Y-76144010D01*
X117573158Y-76032068D01*
X117286260Y-75975000D01*
X116993740Y-75975000D01*
X116706842Y-76032068D01*
X116436589Y-76144010D01*
X116193368Y-76306525D01*
X115986525Y-76513368D01*
X115870000Y-76687760D01*
X115753475Y-76513368D01*
X115546632Y-76306525D01*
X115303411Y-76144010D01*
X115033158Y-76032068D01*
X114746260Y-75975000D01*
X114453740Y-75975000D01*
X114166842Y-76032068D01*
X113896589Y-76144010D01*
X113653368Y-76306525D01*
X113446525Y-76513368D01*
X113324805Y-76695534D01*
X113255178Y-76578645D01*
X113060269Y-76362412D01*
X112826920Y-76188359D01*
X112564099Y-76063175D01*
X112416890Y-76018524D01*
X112187000Y-76139845D01*
X111933000Y-76139845D01*
X111703110Y-76018524D01*
X111555901Y-76063175D01*
X111293080Y-76188359D01*
X111059731Y-76362412D01*
X110864822Y-76578645D01*
X110715843Y-76828748D01*
X110618519Y-77103109D01*
X100660000Y-77103109D01*
X100660000Y-75900715D01*
X144970000Y-75900715D01*
X144970000Y-78899286D01*
X148790000Y-78899286D01*
X148790000Y-75900715D01*
X144970000Y-75900715D01*
X100660000Y-75900715D01*
X100660000Y-73032279D01*
X100707670Y-72546107D01*
X100839489Y-72109502D01*
X101053600Y-71706815D01*
X101341848Y-71353388D01*
X101693261Y-71062673D01*
X102094439Y-70845758D01*
X102530113Y-70710894D01*
X103014344Y-70660000D01*
X146967721Y-70660000D01*
X147453893Y-70707670D01*
G04 #@! TA.AperFunction,Conductor*
D21*
G36*
X147453893Y-70707670D02*
G01*
X147890498Y-70839489D01*
X148293185Y-71053600D01*
X148646612Y-71341848D01*
X148937327Y-71693261D01*
X149154242Y-72094439D01*
X149289106Y-72530113D01*
X149340000Y-73014344D01*
X149340001Y-116967711D01*
X149292330Y-117453894D01*
X149160512Y-117890497D01*
X148946399Y-118293186D01*
X148658150Y-118646613D01*
X148306739Y-118937327D01*
X147905564Y-119154240D01*
X147469886Y-119289106D01*
X146985664Y-119340000D01*
X103032279Y-119340000D01*
X102546106Y-119292330D01*
X102109503Y-119160512D01*
X101706814Y-118946399D01*
X101353387Y-118658150D01*
X101062673Y-118306739D01*
X100845760Y-117905564D01*
X100710894Y-117469886D01*
X100699125Y-117357911D01*
X119305000Y-117357911D01*
X119305000Y-117542089D01*
X119340932Y-117722729D01*
X119411414Y-117892889D01*
X119513738Y-118046028D01*
X119643972Y-118176262D01*
X119797111Y-118278586D01*
X119967271Y-118349068D01*
X120147911Y-118385000D01*
X120332089Y-118385000D01*
X120512729Y-118349068D01*
X120682889Y-118278586D01*
X120836028Y-118176262D01*
X120966262Y-118046028D01*
X121068586Y-117892889D01*
X121139068Y-117722729D01*
X121175000Y-117542089D01*
X121175000Y-117357911D01*
X121139068Y-117177271D01*
X121068586Y-117007111D01*
X120966262Y-116853972D01*
X120836028Y-116723738D01*
X120682889Y-116621414D01*
X120512729Y-116550932D01*
X120332089Y-116515000D01*
X120147911Y-116515000D01*
X119967271Y-116550932D01*
X119797111Y-116621414D01*
X119643972Y-116723738D01*
X119513738Y-116853972D01*
X119411414Y-117007111D01*
X119340932Y-117177271D01*
X119305000Y-117357911D01*
X100699125Y-117357911D01*
X100660000Y-116985664D01*
X100660000Y-114847911D01*
X108895000Y-114847911D01*
X108895000Y-115032089D01*
X108930932Y-115212729D01*
X109001414Y-115382889D01*
X109103738Y-115536028D01*
X109233972Y-115666262D01*
X109387111Y-115768586D01*
X109557271Y-115839068D01*
X109737911Y-115875000D01*
X109922089Y-115875000D01*
X110102729Y-115839068D01*
X110272889Y-115768586D01*
X110426028Y-115666262D01*
X110556262Y-115536028D01*
X110658586Y-115382889D01*
X110729068Y-115212729D01*
X110765000Y-115032089D01*
X110765000Y-114847911D01*
X110729068Y-114667271D01*
X110658586Y-114497111D01*
X110556262Y-114343972D01*
X110426028Y-114213738D01*
X110272889Y-114111414D01*
X110102729Y-114040932D01*
X109922089Y-114005000D01*
X109737911Y-114005000D01*
X109557271Y-114040932D01*
X109387111Y-114111414D01*
X109233972Y-114213738D01*
X109103738Y-114343972D01*
X109001414Y-114497111D01*
X108930932Y-114667271D01*
X108895000Y-114847911D01*
X100660000Y-114847911D01*
X100660000Y-112896891D01*
X110618519Y-112896891D01*
X110715843Y-113171252D01*
X110864822Y-113421355D01*
X111059731Y-113637588D01*
X111293080Y-113811641D01*
X111555901Y-113936825D01*
X111703110Y-113981476D01*
X111933000Y-113860155D01*
X111933000Y-112667000D01*
X110739186Y-112667000D01*
X110618519Y-112896891D01*
X100660000Y-112896891D01*
X100660000Y-106348212D01*
X102920000Y-106348212D01*
X102920000Y-106571788D01*
X102963617Y-106791067D01*
X103049176Y-106997624D01*
X103114241Y-107095000D01*
X103049176Y-107192376D01*
X102963617Y-107398933D01*
X102920000Y-107618212D01*
X102920000Y-107841788D01*
X102963617Y-108061067D01*
X103049176Y-108267624D01*
X103114241Y-108365000D01*
X103049176Y-108462376D01*
X102963617Y-108668933D01*
X102920000Y-108888212D01*
X102920000Y-109111788D01*
X102963617Y-109331067D01*
X103049176Y-109537624D01*
X103114241Y-109635000D01*
X103049176Y-109732376D01*
X102963617Y-109938933D01*
X102920000Y-110158212D01*
X102920000Y-110381788D01*
X102963617Y-110601067D01*
X103049176Y-110807624D01*
X103114241Y-110905000D01*
X103049176Y-111002376D01*
X102963617Y-111208933D01*
X102920000Y-111428212D01*
X102920000Y-111651788D01*
X102963617Y-111871067D01*
X103049176Y-112077624D01*
X103173388Y-112263520D01*
X103331480Y-112421612D01*
X103517376Y-112545824D01*
X103723933Y-112631383D01*
X103943212Y-112675000D01*
X104166788Y-112675000D01*
X104386067Y-112631383D01*
X104497774Y-112585112D01*
X104580820Y-112629502D01*
X104700518Y-112665812D01*
X104825000Y-112678072D01*
X105825000Y-112678072D01*
X105949482Y-112665812D01*
X106069180Y-112629502D01*
X106179494Y-112570537D01*
X106276185Y-112491185D01*
X106355537Y-112394494D01*
X106414502Y-112284180D01*
X106450812Y-112164482D01*
X106463072Y-112040000D01*
X106463072Y-111040000D01*
X106450812Y-110915518D01*
X106414502Y-110795820D01*
X106366930Y-110706820D01*
X106402446Y-110626864D01*
X106419119Y-110571874D01*
X106292954Y-110397000D01*
X105452000Y-110397000D01*
X105452000Y-110401928D01*
X105198000Y-110401928D01*
X105198000Y-110397000D01*
X105186974Y-110397000D01*
X105190000Y-110381788D01*
X105190000Y-110356891D01*
X110618519Y-110356891D01*
X110715843Y-110631252D01*
X110864822Y-110881355D01*
X111059731Y-111097588D01*
X111290880Y-111270000D01*
X111059731Y-111442412D01*
X110864822Y-111658645D01*
X110715843Y-111908748D01*
X110618519Y-112183109D01*
X110739186Y-112413000D01*
X111933000Y-112413000D01*
X111933000Y-110127000D01*
X110739186Y-110127000D01*
X110618519Y-110356891D01*
X105190000Y-110356891D01*
X105190000Y-110158212D01*
X105186974Y-110143000D01*
X105198000Y-110143000D01*
X105198000Y-110131974D01*
X105213212Y-110135000D01*
X105436788Y-110135000D01*
X105452000Y-110131974D01*
X105452000Y-110143000D01*
X106292954Y-110143000D01*
X106419119Y-109968126D01*
X106402446Y-109913136D01*
X106312123Y-109709794D01*
X106265082Y-109643109D01*
X110618519Y-109643109D01*
X110739186Y-109873000D01*
X111933000Y-109873000D01*
X111933000Y-108679845D01*
X112187000Y-108679845D01*
X112187000Y-109873000D01*
X112207000Y-109873000D01*
X112207000Y-110127000D01*
X112187000Y-110127000D01*
X112187000Y-112413000D01*
X112207000Y-112413000D01*
X112207000Y-112667000D01*
X112187000Y-112667000D01*
X112187000Y-113860155D01*
X112416890Y-113981476D01*
X112564099Y-113936825D01*
X112826920Y-113811641D01*
X113060269Y-113637588D01*
X113255178Y-113421355D01*
X113324805Y-113304466D01*
X113446525Y-113486632D01*
X113653368Y-113693475D01*
X113896589Y-113855990D01*
X114166842Y-113967932D01*
X114453740Y-114025000D01*
X114746260Y-114025000D01*
X115033158Y-113967932D01*
X115303411Y-113855990D01*
X115546632Y-113693475D01*
X115753475Y-113486632D01*
X115870000Y-113312240D01*
X115986525Y-113486632D01*
X116193368Y-113693475D01*
X116436589Y-113855990D01*
X116706842Y-113967932D01*
X116993740Y-114025000D01*
X117286260Y-114025000D01*
X117573158Y-113967932D01*
X117843411Y-113855990D01*
X118086632Y-113693475D01*
X118293475Y-113486632D01*
X118410000Y-113312240D01*
X118526525Y-113486632D01*
X118733368Y-113693475D01*
X118976589Y-113855990D01*
X119246842Y-113967932D01*
X119533740Y-114025000D01*
X119826260Y-114025000D01*
X120113158Y-113967932D01*
X120383411Y-113855990D01*
X120626632Y-113693475D01*
X120833475Y-113486632D01*
X120950000Y-113312240D01*
X121066525Y-113486632D01*
X121273368Y-113693475D01*
X121516589Y-113855990D01*
X121786842Y-113967932D01*
X122073740Y-114025000D01*
X122366260Y-114025000D01*
X122653158Y-113967932D01*
X122923411Y-113855990D01*
X123166632Y-113693475D01*
X123373475Y-113486632D01*
X123490000Y-113312240D01*
X123606525Y-113486632D01*
X123813368Y-113693475D01*
X124056589Y-113855990D01*
X124326842Y-113967932D01*
X124613740Y-114025000D01*
X124906260Y-114025000D01*
X125193158Y-113967932D01*
X125463411Y-113855990D01*
X125706632Y-113693475D01*
X125913475Y-113486632D01*
X126030000Y-113312240D01*
X126146525Y-113486632D01*
X126353368Y-113693475D01*
X126596589Y-113855990D01*
X126866842Y-113967932D01*
X127153740Y-114025000D01*
X127446260Y-114025000D01*
X127733158Y-113967932D01*
X128003411Y-113855990D01*
X128246632Y-113693475D01*
X128453475Y-113486632D01*
X128570000Y-113312240D01*
X128686525Y-113486632D01*
X128893368Y-113693475D01*
X129136589Y-113855990D01*
X129406842Y-113967932D01*
X129693740Y-114025000D01*
X129986260Y-114025000D01*
X130273158Y-113967932D01*
X130543411Y-113855990D01*
X130786632Y-113693475D01*
X130993475Y-113486632D01*
X131110000Y-113312240D01*
X131226525Y-113486632D01*
X131433368Y-113693475D01*
X131676589Y-113855990D01*
X131946842Y-113967932D01*
X132233740Y-114025000D01*
X132526260Y-114025000D01*
X132813158Y-113967932D01*
X133083411Y-113855990D01*
X133326632Y-113693475D01*
X133533475Y-113486632D01*
X133650000Y-113312240D01*
X133766525Y-113486632D01*
X133973368Y-113693475D01*
X134216589Y-113855990D01*
X134486842Y-113967932D01*
X134773740Y-114025000D01*
X135066260Y-114025000D01*
X135353158Y-113967932D01*
X135623411Y-113855990D01*
X135866632Y-113693475D01*
X136073475Y-113486632D01*
X136190000Y-113312240D01*
X136306525Y-113486632D01*
X136513368Y-113693475D01*
X136756589Y-113855990D01*
X137026842Y-113967932D01*
X137313740Y-114025000D01*
X137606260Y-114025000D01*
X137893158Y-113967932D01*
X138163411Y-113855990D01*
X138406632Y-113693475D01*
X138613475Y-113486632D01*
X138735195Y-113304466D01*
X138804822Y-113421355D01*
X138999731Y-113637588D01*
X139233080Y-113811641D01*
X139495901Y-113936825D01*
X139643110Y-113981476D01*
X139873000Y-113860155D01*
X139873000Y-112667000D01*
X140127000Y-112667000D01*
X140127000Y-113860155D01*
X140356890Y-113981476D01*
X140504099Y-113936825D01*
X140766920Y-113811641D01*
X141000269Y-113637588D01*
X141195178Y-113421355D01*
X141344157Y-113171252D01*
X141441481Y-112896891D01*
X141320814Y-112667000D01*
X140127000Y-112667000D01*
X139873000Y-112667000D01*
X139853000Y-112667000D01*
X139853000Y-112413000D01*
X139873000Y-112413000D01*
X139873000Y-110127000D01*
X140127000Y-110127000D01*
X140127000Y-112413000D01*
X141320814Y-112413000D01*
X141441481Y-112183109D01*
X141344157Y-111908748D01*
X141195178Y-111658645D01*
X141018374Y-111462498D01*
X141094180Y-111439502D01*
X141204494Y-111380537D01*
X141301185Y-111301185D01*
X141380537Y-111204494D01*
X141439502Y-111094180D01*
X141475812Y-110974482D01*
X141488072Y-110850000D01*
X141485000Y-110285750D01*
X141326250Y-110127000D01*
X140127000Y-110127000D01*
X139873000Y-110127000D01*
X139853000Y-110127000D01*
X139853000Y-109873000D01*
X139873000Y-109873000D01*
X139873000Y-108673750D01*
X140127000Y-108673750D01*
X140127000Y-109873000D01*
X141326250Y-109873000D01*
X141485000Y-109714250D01*
X141488072Y-109150000D01*
X141475812Y-109025518D01*
X141439502Y-108905820D01*
X141380537Y-108795506D01*
X141301185Y-108698815D01*
X141204494Y-108619463D01*
X141094180Y-108560498D01*
X140974482Y-108524188D01*
X140850000Y-108511928D01*
X140285750Y-108515000D01*
X140127000Y-108673750D01*
X139873000Y-108673750D01*
X139714250Y-108515000D01*
X139150000Y-108511928D01*
X139025518Y-108524188D01*
X138905820Y-108560498D01*
X138795506Y-108619463D01*
X138698815Y-108698815D01*
X138619463Y-108795506D01*
X138560498Y-108905820D01*
X138538487Y-108978380D01*
X138406632Y-108846525D01*
X138163411Y-108684010D01*
X137893158Y-108572068D01*
X137606260Y-108515000D01*
X137313740Y-108515000D01*
X137026842Y-108572068D01*
X136756589Y-108684010D01*
X136513368Y-108846525D01*
X136306525Y-109053368D01*
X136190000Y-109227760D01*
X136073475Y-109053368D01*
X135866632Y-108846525D01*
X135623411Y-108684010D01*
X135353158Y-108572068D01*
X135066260Y-108515000D01*
X134773740Y-108515000D01*
X134486842Y-108572068D01*
X134216589Y-108684010D01*
X133973368Y-108846525D01*
X133766525Y-109053368D01*
X133650000Y-109227760D01*
X133533475Y-109053368D01*
X133326632Y-108846525D01*
X133083411Y-108684010D01*
X132813158Y-108572068D01*
X132526260Y-108515000D01*
X132233740Y-108515000D01*
X131946842Y-108572068D01*
X131676589Y-108684010D01*
X131433368Y-108846525D01*
X131226525Y-109053368D01*
X131110000Y-109227760D01*
X130993475Y-109053368D01*
X130786632Y-108846525D01*
X130543411Y-108684010D01*
X130273158Y-108572068D01*
X129986260Y-108515000D01*
X129693740Y-108515000D01*
X129406842Y-108572068D01*
X129136589Y-108684010D01*
X128893368Y-108846525D01*
X128686525Y-109053368D01*
X128570000Y-109227760D01*
X128453475Y-109053368D01*
X128246632Y-108846525D01*
X128003411Y-108684010D01*
X127733158Y-108572068D01*
X127446260Y-108515000D01*
X127153740Y-108515000D01*
X126866842Y-108572068D01*
X126596589Y-108684010D01*
X126353368Y-108846525D01*
X126146525Y-109053368D01*
X126030000Y-109227760D01*
X125913475Y-109053368D01*
X125706632Y-108846525D01*
X125463411Y-108684010D01*
X125193158Y-108572068D01*
X124906260Y-108515000D01*
X124613740Y-108515000D01*
X124326842Y-108572068D01*
X124056589Y-108684010D01*
X123813368Y-108846525D01*
X123606525Y-109053368D01*
X123490000Y-109227760D01*
X123373475Y-109053368D01*
X123166632Y-108846525D01*
X122923411Y-108684010D01*
X122653158Y-108572068D01*
X122366260Y-108515000D01*
X122073740Y-108515000D01*
X121786842Y-108572068D01*
X121516589Y-108684010D01*
X121273368Y-108846525D01*
X121066525Y-109053368D01*
X120950000Y-109227760D01*
X120833475Y-109053368D01*
X120626632Y-108846525D01*
X120383411Y-108684010D01*
X120113158Y-108572068D01*
X119826260Y-108515000D01*
X119533740Y-108515000D01*
X119246842Y-108572068D01*
X118976589Y-108684010D01*
X118733368Y-108846525D01*
X118526525Y-109053368D01*
X118410000Y-109227760D01*
X118293475Y-109053368D01*
X118086632Y-108846525D01*
X117843411Y-108684010D01*
X117573158Y-108572068D01*
X117286260Y-108515000D01*
X116993740Y-108515000D01*
X116706842Y-108572068D01*
X116436589Y-108684010D01*
X116193368Y-108846525D01*
X115986525Y-109053368D01*
X115870000Y-109227760D01*
X115753475Y-109053368D01*
X115546632Y-108846525D01*
X115303411Y-108684010D01*
X115033158Y-108572068D01*
X114746260Y-108515000D01*
X114453740Y-108515000D01*
X114166842Y-108572068D01*
X113896589Y-108684010D01*
X113653368Y-108846525D01*
X113446525Y-109053368D01*
X113324805Y-109235534D01*
X113255178Y-109118645D01*
X113060269Y-108902412D01*
X112826920Y-108728359D01*
X112564099Y-108603175D01*
X112416890Y-108558524D01*
X112187000Y-108679845D01*
X111933000Y-108679845D01*
X111703110Y-108558524D01*
X111555901Y-108603175D01*
X111293080Y-108728359D01*
X111059731Y-108902412D01*
X110864822Y-109118645D01*
X110715843Y-109368748D01*
X110618519Y-109643109D01*
X106265082Y-109643109D01*
X106262647Y-109639658D01*
X106330824Y-109537624D01*
X106416383Y-109331067D01*
X106460000Y-109111788D01*
X106460000Y-108888212D01*
X106416383Y-108668933D01*
X106330824Y-108462376D01*
X106265759Y-108365000D01*
X106330824Y-108267624D01*
X106416383Y-108061067D01*
X106460000Y-107841788D01*
X106460000Y-107618212D01*
X106416383Y-107398933D01*
X106330824Y-107192376D01*
X106265759Y-107095000D01*
X106330824Y-106997624D01*
X106416383Y-106791067D01*
X106460000Y-106571788D01*
X106460000Y-106348212D01*
X106416383Y-106128933D01*
X106330824Y-105922376D01*
X106206612Y-105736480D01*
X106048520Y-105578388D01*
X105862624Y-105454176D01*
X105656067Y-105368617D01*
X105436788Y-105325000D01*
X105213212Y-105325000D01*
X104993933Y-105368617D01*
X104787376Y-105454176D01*
X104690000Y-105519241D01*
X104592624Y-105454176D01*
X104386067Y-105368617D01*
X104166788Y-105325000D01*
X103943212Y-105325000D01*
X103723933Y-105368617D01*
X103517376Y-105454176D01*
X103331480Y-105578388D01*
X103173388Y-105736480D01*
X103049176Y-105922376D01*
X102963617Y-106128933D01*
X102920000Y-106348212D01*
X100660000Y-106348212D01*
X100660000Y-104947911D01*
X122545000Y-104947911D01*
X122545000Y-105132089D01*
X122580932Y-105312729D01*
X122651414Y-105482889D01*
X122753738Y-105636028D01*
X122883972Y-105766262D01*
X123037111Y-105868586D01*
X123207271Y-105939068D01*
X123387911Y-105975000D01*
X123572089Y-105975000D01*
X123752729Y-105939068D01*
X123922889Y-105868586D01*
X124076028Y-105766262D01*
X124206262Y-105636028D01*
X124308586Y-105482889D01*
X124379068Y-105312729D01*
X124415000Y-105132089D01*
X124415000Y-104947911D01*
X124379068Y-104767271D01*
X124308586Y-104597111D01*
X124206262Y-104443972D01*
X124076028Y-104313738D01*
X123922889Y-104211414D01*
X123752729Y-104140932D01*
X123572089Y-104105000D01*
X123387911Y-104105000D01*
X123207271Y-104140932D01*
X123037111Y-104211414D01*
X122883972Y-104313738D01*
X122753738Y-104443972D01*
X122651414Y-104597111D01*
X122580932Y-104767271D01*
X122545000Y-104947911D01*
X100660000Y-104947911D01*
X100660000Y-100905734D01*
X109362823Y-100905734D01*
X109362823Y-101089912D01*
X109398755Y-101270552D01*
X109469237Y-101440712D01*
X109571561Y-101593851D01*
X109701795Y-101724085D01*
X109854934Y-101826409D01*
X110025094Y-101896891D01*
X110205734Y-101932823D01*
X110389912Y-101932823D01*
X110570552Y-101896891D01*
X110740712Y-101826409D01*
X110893851Y-101724085D01*
X111024085Y-101593851D01*
X111126409Y-101440712D01*
X111196891Y-101270552D01*
X111232823Y-101089912D01*
X111232823Y-100905734D01*
X111196891Y-100725094D01*
X111146377Y-100603140D01*
X122263000Y-100603140D01*
X122263000Y-100787318D01*
X122298932Y-100967958D01*
X122369414Y-101138118D01*
X122471738Y-101291257D01*
X122601972Y-101421491D01*
X122755111Y-101523815D01*
X122792983Y-101539502D01*
X122798932Y-101569407D01*
X122869414Y-101739567D01*
X122971738Y-101892706D01*
X123101972Y-102022940D01*
X123255111Y-102125264D01*
X123283837Y-102137162D01*
X123298932Y-102213051D01*
X123369414Y-102383211D01*
X123471738Y-102536350D01*
X123601972Y-102666584D01*
X123755111Y-102768908D01*
X123778220Y-102778480D01*
X123798932Y-102882606D01*
X123869414Y-103052766D01*
X123971738Y-103205905D01*
X124101972Y-103336139D01*
X124255111Y-103438463D01*
X124286768Y-103451576D01*
X124298932Y-103512729D01*
X124369414Y-103682889D01*
X124471738Y-103836028D01*
X124601972Y-103966262D01*
X124755111Y-104068586D01*
X124925271Y-104139068D01*
X125105911Y-104175000D01*
X125290089Y-104175000D01*
X125470729Y-104139068D01*
X125640889Y-104068586D01*
X125794028Y-103966262D01*
X125902379Y-103857911D01*
X129525000Y-103857911D01*
X129525000Y-104042089D01*
X129560932Y-104222729D01*
X129631414Y-104392889D01*
X129733738Y-104546028D01*
X129863972Y-104676262D01*
X130017111Y-104778586D01*
X130187271Y-104849068D01*
X130367911Y-104885000D01*
X130552089Y-104885000D01*
X130732729Y-104849068D01*
X130902889Y-104778586D01*
X131056028Y-104676262D01*
X131186262Y-104546028D01*
X131288586Y-104392889D01*
X131359068Y-104222729D01*
X131395000Y-104042089D01*
X131395000Y-103857911D01*
X131359068Y-103677271D01*
X131288586Y-103507111D01*
X131186262Y-103353972D01*
X131056028Y-103223738D01*
X130902889Y-103121414D01*
X130732729Y-103050932D01*
X130552089Y-103015000D01*
X130367911Y-103015000D01*
X130187271Y-103050932D01*
X130017111Y-103121414D01*
X129863972Y-103223738D01*
X129733738Y-103353972D01*
X129631414Y-103507111D01*
X129560932Y-103677271D01*
X129525000Y-103857911D01*
X125902379Y-103857911D01*
X125924262Y-103836028D01*
X126026586Y-103682889D01*
X126097068Y-103512729D01*
X126133000Y-103332089D01*
X126133000Y-103147911D01*
X126097068Y-102967271D01*
X126026586Y-102797111D01*
X125924262Y-102643972D01*
X125794028Y-102513738D01*
X125640889Y-102411414D01*
X125609232Y-102398301D01*
X125597068Y-102337148D01*
X125526586Y-102166988D01*
X125424262Y-102013849D01*
X125294028Y-101883615D01*
X125140889Y-101781291D01*
X125117780Y-101771719D01*
X125097068Y-101667593D01*
X125026586Y-101497433D01*
X124924262Y-101344294D01*
X124794028Y-101214060D01*
X124640889Y-101111736D01*
X124612163Y-101099838D01*
X124597068Y-101023949D01*
X124526586Y-100853789D01*
X124424262Y-100700650D01*
X124294028Y-100570416D01*
X124140889Y-100468092D01*
X124103017Y-100452405D01*
X124097068Y-100422500D01*
X124026586Y-100252340D01*
X123924262Y-100099201D01*
X123794028Y-99968967D01*
X123640889Y-99866643D01*
X123470729Y-99796161D01*
X123290089Y-99760229D01*
X123105911Y-99760229D01*
X122925271Y-99796161D01*
X122755111Y-99866643D01*
X122601972Y-99968967D01*
X122471738Y-100099201D01*
X122369414Y-100252340D01*
X122298932Y-100422500D01*
X122263000Y-100603140D01*
X111146377Y-100603140D01*
X111126409Y-100554934D01*
X111024085Y-100401795D01*
X110893851Y-100271561D01*
X110740712Y-100169237D01*
X110570552Y-100098755D01*
X110389912Y-100062823D01*
X110205734Y-100062823D01*
X110025094Y-100098755D01*
X109854934Y-100169237D01*
X109701795Y-100271561D01*
X109571561Y-100401795D01*
X109469237Y-100554934D01*
X109398755Y-100725094D01*
X109362823Y-100905734D01*
X100660000Y-100905734D01*
X100660000Y-99320000D01*
X101669509Y-99320000D01*
X101691423Y-99542499D01*
X101756324Y-99756447D01*
X101861716Y-99953623D01*
X102003551Y-100126449D01*
X102176377Y-100268284D01*
X102373553Y-100373676D01*
X102587501Y-100438577D01*
X102754248Y-100455000D01*
X103465752Y-100455000D01*
X103632499Y-100438577D01*
X103846447Y-100373676D01*
X104043623Y-100268284D01*
X104216449Y-100126449D01*
X104358284Y-99953623D01*
X104463676Y-99756447D01*
X104528577Y-99542499D01*
X104550491Y-99320000D01*
X105599509Y-99320000D01*
X105621423Y-99542499D01*
X105686324Y-99756447D01*
X105791716Y-99953623D01*
X105933551Y-100126449D01*
X106106377Y-100268284D01*
X106303553Y-100373676D01*
X106517501Y-100438577D01*
X106684248Y-100455000D01*
X107895752Y-100455000D01*
X108062499Y-100438577D01*
X108276447Y-100373676D01*
X108473623Y-100268284D01*
X108646449Y-100126449D01*
X108788284Y-99953623D01*
X108893676Y-99756447D01*
X108958577Y-99542499D01*
X108980491Y-99320000D01*
X108958577Y-99097501D01*
X108925333Y-98987911D01*
X129015000Y-98987911D01*
X129015000Y-99172089D01*
X129050932Y-99352729D01*
X129121414Y-99522889D01*
X129223738Y-99676028D01*
X129353972Y-99806262D01*
X129507111Y-99908586D01*
X129677271Y-99979068D01*
X129857911Y-100015000D01*
X130042089Y-100015000D01*
X130222729Y-99979068D01*
X130392889Y-99908586D01*
X130546028Y-99806262D01*
X130676262Y-99676028D01*
X130778586Y-99522889D01*
X130849068Y-99352729D01*
X130885000Y-99172089D01*
X130885000Y-98987911D01*
X130869087Y-98907911D01*
X138085000Y-98907911D01*
X138085000Y-99092089D01*
X138120932Y-99272729D01*
X138191414Y-99442889D01*
X138293738Y-99596028D01*
X138423972Y-99726262D01*
X138577111Y-99828586D01*
X138747271Y-99899068D01*
X138927911Y-99935000D01*
X139112089Y-99935000D01*
X139292729Y-99899068D01*
X139462889Y-99828586D01*
X139616028Y-99726262D01*
X139746262Y-99596028D01*
X139848586Y-99442889D01*
X139919068Y-99272729D01*
X139955000Y-99092089D01*
X139955000Y-98907911D01*
X139919068Y-98727271D01*
X139848586Y-98557111D01*
X139746262Y-98403972D01*
X139616028Y-98273738D01*
X139462889Y-98171414D01*
X139292729Y-98100932D01*
X139112089Y-98065000D01*
X138927911Y-98065000D01*
X138747271Y-98100932D01*
X138577111Y-98171414D01*
X138423972Y-98273738D01*
X138293738Y-98403972D01*
X138191414Y-98557111D01*
X138120932Y-98727271D01*
X138085000Y-98907911D01*
X130869087Y-98907911D01*
X130849068Y-98807271D01*
X130778586Y-98637111D01*
X130676262Y-98483972D01*
X130546028Y-98353738D01*
X130392889Y-98251414D01*
X130222729Y-98180932D01*
X130042089Y-98145000D01*
X129857911Y-98145000D01*
X129677271Y-98180932D01*
X129507111Y-98251414D01*
X129353972Y-98353738D01*
X129223738Y-98483972D01*
X129121414Y-98637111D01*
X129050932Y-98807271D01*
X129015000Y-98987911D01*
X108925333Y-98987911D01*
X108893676Y-98883553D01*
X108788284Y-98686377D01*
X108646449Y-98513551D01*
X108473623Y-98371716D01*
X108276447Y-98266324D01*
X108062499Y-98201423D01*
X107895752Y-98185000D01*
X107676904Y-98185000D01*
X107683108Y-98170022D01*
X107720000Y-97984552D01*
X107720000Y-97795448D01*
X107683108Y-97609978D01*
X107610741Y-97435269D01*
X107505681Y-97278036D01*
X107371964Y-97144319D01*
X107214731Y-97039259D01*
X107040022Y-96966892D01*
X106854552Y-96930000D01*
X106665448Y-96930000D01*
X106479978Y-96966892D01*
X106305269Y-97039259D01*
X106148036Y-97144319D01*
X106014319Y-97278036D01*
X105909259Y-97435269D01*
X105836892Y-97609978D01*
X105800000Y-97795448D01*
X105800000Y-97984552D01*
X105836892Y-98170022D01*
X105909259Y-98344731D01*
X105990715Y-98466638D01*
X105933551Y-98513551D01*
X105791716Y-98686377D01*
X105686324Y-98883553D01*
X105621423Y-99097501D01*
X105599509Y-99320000D01*
X104550491Y-99320000D01*
X104528577Y-99097501D01*
X104463676Y-98883553D01*
X104358284Y-98686377D01*
X104216449Y-98513551D01*
X104043623Y-98371716D01*
X103846447Y-98266324D01*
X103632499Y-98201423D01*
X103465752Y-98185000D01*
X102754248Y-98185000D01*
X102587501Y-98201423D01*
X102373553Y-98266324D01*
X102176377Y-98371716D01*
X102003551Y-98513551D01*
X101861716Y-98686377D01*
X101756324Y-98883553D01*
X101691423Y-99097501D01*
X101669509Y-99320000D01*
X100660000Y-99320000D01*
X100660000Y-94357911D01*
X112645000Y-94357911D01*
X112645000Y-94542089D01*
X112680932Y-94722729D01*
X112751414Y-94892889D01*
X112853738Y-95046028D01*
X112983972Y-95176262D01*
X112988454Y-95179256D01*
X112863738Y-95303972D01*
X112761414Y-95457111D01*
X112690932Y-95627271D01*
X112655000Y-95807911D01*
X112655000Y-95992089D01*
X112690932Y-96172729D01*
X112761414Y-96342889D01*
X112863738Y-96496028D01*
X112993972Y-96626262D01*
X113147111Y-96728586D01*
X113317271Y-96799068D01*
X113492755Y-96833974D01*
X113492755Y-96993194D01*
X113528687Y-97173834D01*
X113599169Y-97343994D01*
X113701493Y-97497133D01*
X113831727Y-97627367D01*
X113984866Y-97729691D01*
X114155026Y-97800173D01*
X114335666Y-97836105D01*
X114519844Y-97836105D01*
X114700484Y-97800173D01*
X114870644Y-97729691D01*
X115023783Y-97627367D01*
X115136150Y-97515000D01*
X115172089Y-97515000D01*
X115352729Y-97479068D01*
X115522889Y-97408586D01*
X115676028Y-97306262D01*
X115806262Y-97176028D01*
X115908586Y-97022889D01*
X115979068Y-96852729D01*
X115980605Y-96845000D01*
X116102089Y-96845000D01*
X116282729Y-96809068D01*
X116452889Y-96738586D01*
X116606028Y-96636262D01*
X116736262Y-96506028D01*
X116838586Y-96352889D01*
X116909068Y-96182729D01*
X116945000Y-96002089D01*
X116945000Y-95817911D01*
X116909068Y-95637271D01*
X116838586Y-95467111D01*
X116736262Y-95313972D01*
X116606028Y-95183738D01*
X116452889Y-95081414D01*
X116282729Y-95010932D01*
X116102089Y-94975000D01*
X115917911Y-94975000D01*
X115737271Y-95010932D01*
X115567111Y-95081414D01*
X115413972Y-95183738D01*
X115283738Y-95313972D01*
X115181414Y-95467111D01*
X115110932Y-95637271D01*
X115109395Y-95645000D01*
X114987911Y-95645000D01*
X114807271Y-95680932D01*
X114637111Y-95751414D01*
X114525000Y-95826324D01*
X114525000Y-95807911D01*
X114489068Y-95627271D01*
X114418586Y-95457111D01*
X114316262Y-95303972D01*
X114186028Y-95173738D01*
X114181546Y-95170744D01*
X114306262Y-95046028D01*
X114408586Y-94892889D01*
X114479068Y-94722729D01*
X114515000Y-94542089D01*
X114515000Y-94357911D01*
X114479068Y-94177271D01*
X114408586Y-94007111D01*
X114306262Y-93853972D01*
X114176028Y-93723738D01*
X114022889Y-93621414D01*
X113852729Y-93550932D01*
X113672089Y-93515000D01*
X113487911Y-93515000D01*
X113307271Y-93550932D01*
X113137111Y-93621414D01*
X112983972Y-93723738D01*
X112853738Y-93853972D01*
X112751414Y-94007111D01*
X112680932Y-94177271D01*
X112645000Y-94357911D01*
X100660000Y-94357911D01*
X100660000Y-90680000D01*
X101669509Y-90680000D01*
X101691423Y-90902499D01*
X101756324Y-91116447D01*
X101861716Y-91313623D01*
X102003551Y-91486449D01*
X102176377Y-91628284D01*
X102373553Y-91733676D01*
X102587501Y-91798577D01*
X102754248Y-91815000D01*
X103465752Y-91815000D01*
X103632499Y-91798577D01*
X103846447Y-91733676D01*
X104043623Y-91628284D01*
X104216449Y-91486449D01*
X104358284Y-91313623D01*
X104463676Y-91116447D01*
X104528577Y-90902499D01*
X104550491Y-90680000D01*
X105599509Y-90680000D01*
X105621423Y-90902499D01*
X105686324Y-91116447D01*
X105791716Y-91313623D01*
X105933551Y-91486449D01*
X105990715Y-91533362D01*
X105909259Y-91655269D01*
X105836892Y-91829978D01*
X105800000Y-92015448D01*
X105800000Y-92204552D01*
X105836892Y-92390022D01*
X105909259Y-92564731D01*
X106014319Y-92721964D01*
X106148036Y-92855681D01*
X106305269Y-92960741D01*
X106479978Y-93033108D01*
X106665448Y-93070000D01*
X106854552Y-93070000D01*
X107040022Y-93033108D01*
X107214731Y-92960741D01*
X107371964Y-92855681D01*
X107505681Y-92721964D01*
X107610741Y-92564731D01*
X107683108Y-92390022D01*
X107720000Y-92204552D01*
X107720000Y-92015448D01*
X107683108Y-91829978D01*
X107676904Y-91815000D01*
X107895752Y-91815000D01*
X108062499Y-91798577D01*
X108276447Y-91733676D01*
X108473623Y-91628284D01*
X108646449Y-91486449D01*
X108788284Y-91313623D01*
X108818062Y-91257911D01*
X116015000Y-91257911D01*
X116015000Y-91442089D01*
X116050932Y-91622729D01*
X116121414Y-91792889D01*
X116223738Y-91946028D01*
X116353972Y-92076262D01*
X116507111Y-92178586D01*
X116677271Y-92249068D01*
X116857911Y-92285000D01*
X117042089Y-92285000D01*
X117222729Y-92249068D01*
X117274632Y-92227569D01*
X117333738Y-92316028D01*
X117463972Y-92446262D01*
X117617111Y-92548586D01*
X117787271Y-92619068D01*
X117967911Y-92655000D01*
X118152089Y-92655000D01*
X118332729Y-92619068D01*
X118502889Y-92548586D01*
X118656028Y-92446262D01*
X118694379Y-92407911D01*
X122565000Y-92407911D01*
X122565000Y-92592089D01*
X122600932Y-92772729D01*
X122671414Y-92942889D01*
X122773738Y-93096028D01*
X122903972Y-93226262D01*
X122939498Y-93250000D01*
X122903972Y-93273738D01*
X122773738Y-93403972D01*
X122671414Y-93557111D01*
X122600932Y-93727271D01*
X122565000Y-93907911D01*
X122565000Y-94092089D01*
X122600932Y-94272729D01*
X122671414Y-94442889D01*
X122773738Y-94596028D01*
X122903972Y-94726262D01*
X122939498Y-94750000D01*
X122903972Y-94773738D01*
X122773738Y-94903972D01*
X122671414Y-95057111D01*
X122600932Y-95227271D01*
X122565000Y-95407911D01*
X122565000Y-95592089D01*
X122600932Y-95772729D01*
X122671414Y-95942889D01*
X122773738Y-96096028D01*
X122903972Y-96226262D01*
X123057111Y-96328586D01*
X123227271Y-96399068D01*
X123407911Y-96435000D01*
X123592089Y-96435000D01*
X123772729Y-96399068D01*
X123942889Y-96328586D01*
X124096028Y-96226262D01*
X124226262Y-96096028D01*
X124250000Y-96060502D01*
X124273738Y-96096028D01*
X124403972Y-96226262D01*
X124557111Y-96328586D01*
X124727271Y-96399068D01*
X124907911Y-96435000D01*
X125092089Y-96435000D01*
X125272729Y-96399068D01*
X125442889Y-96328586D01*
X125596028Y-96226262D01*
X125726262Y-96096028D01*
X125750000Y-96060502D01*
X125773738Y-96096028D01*
X125903972Y-96226262D01*
X126057111Y-96328586D01*
X126227271Y-96399068D01*
X126407911Y-96435000D01*
X126592089Y-96435000D01*
X126772729Y-96399068D01*
X126942889Y-96328586D01*
X127096028Y-96226262D01*
X127226262Y-96096028D01*
X127328586Y-95942889D01*
X127399068Y-95772729D01*
X127435000Y-95592089D01*
X127435000Y-95583547D01*
X134319283Y-95583547D01*
X134319283Y-95767725D01*
X134355215Y-95948365D01*
X134425697Y-96118525D01*
X134528021Y-96271664D01*
X134658255Y-96401898D01*
X134811394Y-96504222D01*
X134981554Y-96574704D01*
X135162194Y-96610636D01*
X135346372Y-96610636D01*
X135527012Y-96574704D01*
X135697172Y-96504222D01*
X135850311Y-96401898D01*
X135980545Y-96271664D01*
X136082869Y-96118525D01*
X136153351Y-95948365D01*
X136189283Y-95767725D01*
X136189283Y-95583547D01*
X136153351Y-95402907D01*
X136082869Y-95232747D01*
X135980545Y-95079608D01*
X135850311Y-94949374D01*
X135697172Y-94847050D01*
X135527012Y-94776568D01*
X135346372Y-94740636D01*
X135162194Y-94740636D01*
X134981554Y-94776568D01*
X134811394Y-94847050D01*
X134658255Y-94949374D01*
X134528021Y-95079608D01*
X134425697Y-95232747D01*
X134355215Y-95402907D01*
X134319283Y-95583547D01*
X127435000Y-95583547D01*
X127435000Y-95407911D01*
X127399068Y-95227271D01*
X127328586Y-95057111D01*
X127226262Y-94903972D01*
X127096028Y-94773738D01*
X127060502Y-94750000D01*
X127096028Y-94726262D01*
X127226262Y-94596028D01*
X127328586Y-94442889D01*
X127399068Y-94272729D01*
X127435000Y-94092089D01*
X127435000Y-93907911D01*
X127399068Y-93727271D01*
X127328586Y-93557111D01*
X127226262Y-93403972D01*
X127096028Y-93273738D01*
X127060502Y-93250000D01*
X127096028Y-93226262D01*
X127226262Y-93096028D01*
X127258412Y-93047911D01*
X132615000Y-93047911D01*
X132615000Y-93232089D01*
X132650932Y-93412729D01*
X132721414Y-93582889D01*
X132823738Y-93736028D01*
X132953972Y-93866262D01*
X133107111Y-93968586D01*
X133277271Y-94039068D01*
X133457911Y-94075000D01*
X133642089Y-94075000D01*
X133822729Y-94039068D01*
X133992889Y-93968586D01*
X134146028Y-93866262D01*
X134276262Y-93736028D01*
X134378586Y-93582889D01*
X134449068Y-93412729D01*
X134485000Y-93232089D01*
X134485000Y-93047911D01*
X134449068Y-92867271D01*
X134378586Y-92697111D01*
X134276262Y-92543972D01*
X134146028Y-92413738D01*
X133992889Y-92311414D01*
X133822729Y-92240932D01*
X133642089Y-92205000D01*
X133457911Y-92205000D01*
X133277271Y-92240932D01*
X133107111Y-92311414D01*
X132953972Y-92413738D01*
X132823738Y-92543972D01*
X132721414Y-92697111D01*
X132650932Y-92867271D01*
X132615000Y-93047911D01*
X127258412Y-93047911D01*
X127328586Y-92942889D01*
X127399068Y-92772729D01*
X127435000Y-92592089D01*
X127435000Y-92407911D01*
X127399068Y-92227271D01*
X127328586Y-92057111D01*
X127322439Y-92047911D01*
X137135000Y-92047911D01*
X137135000Y-92232089D01*
X137170932Y-92412729D01*
X137241414Y-92582889D01*
X137343738Y-92736028D01*
X137473972Y-92866262D01*
X137627111Y-92968586D01*
X137797271Y-93039068D01*
X137977911Y-93075000D01*
X138162089Y-93075000D01*
X138342729Y-93039068D01*
X138512889Y-92968586D01*
X138666028Y-92866262D01*
X138796262Y-92736028D01*
X138898586Y-92582889D01*
X138969068Y-92412729D01*
X139005000Y-92232089D01*
X139005000Y-92047911D01*
X138969068Y-91867271D01*
X138898586Y-91697111D01*
X138796262Y-91543972D01*
X138666028Y-91413738D01*
X138512889Y-91311414D01*
X138342729Y-91240932D01*
X138162089Y-91205000D01*
X137977911Y-91205000D01*
X137797271Y-91240932D01*
X137627111Y-91311414D01*
X137473972Y-91413738D01*
X137343738Y-91543972D01*
X137241414Y-91697111D01*
X137170932Y-91867271D01*
X137135000Y-92047911D01*
X127322439Y-92047911D01*
X127226262Y-91903972D01*
X127096028Y-91773738D01*
X126942889Y-91671414D01*
X126772729Y-91600932D01*
X126592089Y-91565000D01*
X126407911Y-91565000D01*
X126227271Y-91600932D01*
X126057111Y-91671414D01*
X125903972Y-91773738D01*
X125773738Y-91903972D01*
X125750000Y-91939498D01*
X125726262Y-91903972D01*
X125596028Y-91773738D01*
X125442889Y-91671414D01*
X125272729Y-91600932D01*
X125092089Y-91565000D01*
X124907911Y-91565000D01*
X124727271Y-91600932D01*
X124557111Y-91671414D01*
X124403972Y-91773738D01*
X124273738Y-91903972D01*
X124250000Y-91939498D01*
X124226262Y-91903972D01*
X124096028Y-91773738D01*
X123942889Y-91671414D01*
X123772729Y-91600932D01*
X123592089Y-91565000D01*
X123407911Y-91565000D01*
X123227271Y-91600932D01*
X123057111Y-91671414D01*
X122903972Y-91773738D01*
X122773738Y-91903972D01*
X122671414Y-92057111D01*
X122600932Y-92227271D01*
X122565000Y-92407911D01*
X118694379Y-92407911D01*
X118786262Y-92316028D01*
X118883315Y-92170778D01*
X119042729Y-92139068D01*
X119212889Y-92068586D01*
X119366028Y-91966262D01*
X119367633Y-91964657D01*
X119500297Y-91991046D01*
X119684475Y-91991046D01*
X119865115Y-91955114D01*
X120035275Y-91884632D01*
X120188414Y-91782308D01*
X120215722Y-91755000D01*
X120372089Y-91755000D01*
X120552729Y-91719068D01*
X120722889Y-91648586D01*
X120876028Y-91546262D01*
X121006262Y-91416028D01*
X121108586Y-91262889D01*
X121179068Y-91092729D01*
X121215000Y-90912089D01*
X121215000Y-90727911D01*
X121179068Y-90547271D01*
X121108586Y-90377111D01*
X121006262Y-90223972D01*
X120876028Y-90093738D01*
X120722889Y-89991414D01*
X120552729Y-89920932D01*
X120372089Y-89885000D01*
X120187911Y-89885000D01*
X120007271Y-89920932D01*
X119837111Y-89991414D01*
X119683972Y-90093738D01*
X119656664Y-90121046D01*
X119500297Y-90121046D01*
X119319657Y-90156978D01*
X119149497Y-90227460D01*
X118996358Y-90329784D01*
X118994753Y-90331389D01*
X118862089Y-90305000D01*
X118677911Y-90305000D01*
X118497271Y-90340932D01*
X118327111Y-90411414D01*
X118173972Y-90513738D01*
X118043738Y-90643972D01*
X117946685Y-90789222D01*
X117787271Y-90820932D01*
X117735368Y-90842431D01*
X117676262Y-90753972D01*
X117546028Y-90623738D01*
X117392889Y-90521414D01*
X117222729Y-90450932D01*
X117042089Y-90415000D01*
X116857911Y-90415000D01*
X116677271Y-90450932D01*
X116507111Y-90521414D01*
X116353972Y-90623738D01*
X116223738Y-90753972D01*
X116121414Y-90907111D01*
X116050932Y-91077271D01*
X116015000Y-91257911D01*
X108818062Y-91257911D01*
X108893676Y-91116447D01*
X108958577Y-90902499D01*
X108980491Y-90680000D01*
X108962303Y-90495328D01*
X108997111Y-90518586D01*
X109167271Y-90589068D01*
X109347911Y-90625000D01*
X109532089Y-90625000D01*
X109712729Y-90589068D01*
X109882889Y-90518586D01*
X110036028Y-90416262D01*
X110166262Y-90286028D01*
X110268586Y-90132889D01*
X110339068Y-89962729D01*
X110375000Y-89782089D01*
X110375000Y-89597911D01*
X110339068Y-89417271D01*
X110268586Y-89247111D01*
X110166262Y-89093972D01*
X110036028Y-88963738D01*
X109882889Y-88861414D01*
X109712729Y-88790932D01*
X109532089Y-88755000D01*
X109347911Y-88755000D01*
X109167271Y-88790932D01*
X108997111Y-88861414D01*
X108843972Y-88963738D01*
X108713738Y-89093972D01*
X108611414Y-89247111D01*
X108540932Y-89417271D01*
X108505000Y-89597911D01*
X108505000Y-89757467D01*
X108473623Y-89731716D01*
X108276447Y-89626324D01*
X108062499Y-89561423D01*
X107895752Y-89545000D01*
X106684248Y-89545000D01*
X106517501Y-89561423D01*
X106303553Y-89626324D01*
X106106377Y-89731716D01*
X105933551Y-89873551D01*
X105791716Y-90046377D01*
X105686324Y-90243553D01*
X105621423Y-90457501D01*
X105599509Y-90680000D01*
X104550491Y-90680000D01*
X104528577Y-90457501D01*
X104463676Y-90243553D01*
X104358284Y-90046377D01*
X104216449Y-89873551D01*
X104043623Y-89731716D01*
X103846447Y-89626324D01*
X103632499Y-89561423D01*
X103465752Y-89545000D01*
X102754248Y-89545000D01*
X102587501Y-89561423D01*
X102373553Y-89626324D01*
X102176377Y-89731716D01*
X102003551Y-89873551D01*
X101861716Y-90046377D01*
X101756324Y-90243553D01*
X101691423Y-90457501D01*
X101669509Y-90680000D01*
X100660000Y-90680000D01*
X100660000Y-88103142D01*
X122763000Y-88103142D01*
X122763000Y-88287320D01*
X122798932Y-88467960D01*
X122869414Y-88638120D01*
X122971738Y-88791259D01*
X123101972Y-88921493D01*
X123255111Y-89023817D01*
X123425271Y-89094299D01*
X123605911Y-89130231D01*
X123790089Y-89130231D01*
X123970729Y-89094299D01*
X124140889Y-89023817D01*
X124294028Y-88921493D01*
X124424262Y-88791259D01*
X124526586Y-88638120D01*
X124597068Y-88467960D01*
X124598298Y-88461774D01*
X124640889Y-88444133D01*
X124794028Y-88341809D01*
X124924262Y-88211575D01*
X125026586Y-88058436D01*
X125097068Y-87888276D01*
X125109629Y-87825130D01*
X125140889Y-87812182D01*
X125294028Y-87709858D01*
X125424262Y-87579624D01*
X125526586Y-87426485D01*
X125597068Y-87256325D01*
X125599146Y-87245876D01*
X125640889Y-87228586D01*
X125794028Y-87126262D01*
X125924262Y-86996028D01*
X126026586Y-86842889D01*
X126097068Y-86672729D01*
X126133000Y-86492089D01*
X126133000Y-86307911D01*
X126097068Y-86127271D01*
X126026586Y-85957111D01*
X125924262Y-85803972D01*
X125794028Y-85673738D01*
X125640889Y-85571414D01*
X125470729Y-85500932D01*
X125290089Y-85465000D01*
X125105911Y-85465000D01*
X124925271Y-85500932D01*
X124755111Y-85571414D01*
X124601972Y-85673738D01*
X124471738Y-85803972D01*
X124369414Y-85957111D01*
X124298932Y-86127271D01*
X124296854Y-86137720D01*
X124255111Y-86155010D01*
X124101972Y-86257334D01*
X123971738Y-86387568D01*
X123869414Y-86540707D01*
X123798932Y-86710867D01*
X123786371Y-86774013D01*
X123755111Y-86786961D01*
X123601972Y-86889285D01*
X123471738Y-87019519D01*
X123369414Y-87172658D01*
X123298932Y-87342818D01*
X123297702Y-87349004D01*
X123255111Y-87366645D01*
X123101972Y-87468969D01*
X122971738Y-87599203D01*
X122869414Y-87752342D01*
X122798932Y-87922502D01*
X122763000Y-88103142D01*
X100660000Y-88103142D01*
X100660000Y-80356891D01*
X110618519Y-80356891D01*
X110715843Y-80631252D01*
X110864822Y-80881355D01*
X111059731Y-81097588D01*
X111293080Y-81271641D01*
X111555901Y-81396825D01*
X111703110Y-81441476D01*
X111933000Y-81320155D01*
X111933000Y-80127000D01*
X110739186Y-80127000D01*
X110618519Y-80356891D01*
X100660000Y-80356891D01*
X100660000Y-77816891D01*
X110618519Y-77816891D01*
X110715843Y-78091252D01*
X110864822Y-78341355D01*
X111059731Y-78557588D01*
X111290880Y-78730000D01*
X111059731Y-78902412D01*
X110864822Y-79118645D01*
X110715843Y-79368748D01*
X110618519Y-79643109D01*
X110739186Y-79873000D01*
X111933000Y-79873000D01*
X111933000Y-77587000D01*
X110739186Y-77587000D01*
X110618519Y-77816891D01*
X100660000Y-77816891D01*
X100660000Y-77103109D01*
X110618519Y-77103109D01*
X110739186Y-77333000D01*
X111933000Y-77333000D01*
X111933000Y-76139845D01*
X112187000Y-76139845D01*
X112187000Y-77333000D01*
X112207000Y-77333000D01*
X112207000Y-77587000D01*
X112187000Y-77587000D01*
X112187000Y-79873000D01*
X112207000Y-79873000D01*
X112207000Y-80127000D01*
X112187000Y-80127000D01*
X112187000Y-81320155D01*
X112416890Y-81441476D01*
X112564099Y-81396825D01*
X112826920Y-81271641D01*
X113060269Y-81097588D01*
X113255178Y-80881355D01*
X113324805Y-80764466D01*
X113446525Y-80946632D01*
X113653368Y-81153475D01*
X113896589Y-81315990D01*
X114166842Y-81427932D01*
X114453740Y-81485000D01*
X114746260Y-81485000D01*
X115033158Y-81427932D01*
X115303411Y-81315990D01*
X115546632Y-81153475D01*
X115753475Y-80946632D01*
X115870000Y-80772240D01*
X115986525Y-80946632D01*
X116193368Y-81153475D01*
X116436589Y-81315990D01*
X116706842Y-81427932D01*
X116993740Y-81485000D01*
X117286260Y-81485000D01*
X117573158Y-81427932D01*
X117843411Y-81315990D01*
X118086632Y-81153475D01*
X118293475Y-80946632D01*
X118410000Y-80772240D01*
X118526525Y-80946632D01*
X118733368Y-81153475D01*
X118976589Y-81315990D01*
X119246842Y-81427932D01*
X119533740Y-81485000D01*
X119826260Y-81485000D01*
X120113158Y-81427932D01*
X120383411Y-81315990D01*
X120626632Y-81153475D01*
X120833475Y-80946632D01*
X120950000Y-80772240D01*
X121066525Y-80946632D01*
X121273368Y-81153475D01*
X121516589Y-81315990D01*
X121786842Y-81427932D01*
X122073740Y-81485000D01*
X122366260Y-81485000D01*
X122653158Y-81427932D01*
X122923411Y-81315990D01*
X123166632Y-81153475D01*
X123373475Y-80946632D01*
X123490000Y-80772240D01*
X123606525Y-80946632D01*
X123813368Y-81153475D01*
X124056589Y-81315990D01*
X124326842Y-81427932D01*
X124613740Y-81485000D01*
X124906260Y-81485000D01*
X125193158Y-81427932D01*
X125463411Y-81315990D01*
X125706632Y-81153475D01*
X125913475Y-80946632D01*
X126030000Y-80772240D01*
X126146525Y-80946632D01*
X126353368Y-81153475D01*
X126596589Y-81315990D01*
X126866842Y-81427932D01*
X127153740Y-81485000D01*
X127446260Y-81485000D01*
X127733158Y-81427932D01*
X128003411Y-81315990D01*
X128246632Y-81153475D01*
X128453475Y-80946632D01*
X128570000Y-80772240D01*
X128686525Y-80946632D01*
X128893368Y-81153475D01*
X129136589Y-81315990D01*
X129406842Y-81427932D01*
X129693740Y-81485000D01*
X129986260Y-81485000D01*
X130273158Y-81427932D01*
X130543411Y-81315990D01*
X130786632Y-81153475D01*
X130993475Y-80946632D01*
X131110000Y-80772240D01*
X131226525Y-80946632D01*
X131433368Y-81153475D01*
X131676589Y-81315990D01*
X131946842Y-81427932D01*
X132233740Y-81485000D01*
X132526260Y-81485000D01*
X132813158Y-81427932D01*
X133083411Y-81315990D01*
X133326632Y-81153475D01*
X133533475Y-80946632D01*
X133650000Y-80772240D01*
X133766525Y-80946632D01*
X133973368Y-81153475D01*
X134216589Y-81315990D01*
X134486842Y-81427932D01*
X134773740Y-81485000D01*
X135066260Y-81485000D01*
X135353158Y-81427932D01*
X135623411Y-81315990D01*
X135866632Y-81153475D01*
X136073475Y-80946632D01*
X136190000Y-80772240D01*
X136306525Y-80946632D01*
X136513368Y-81153475D01*
X136756589Y-81315990D01*
X137026842Y-81427932D01*
X137313740Y-81485000D01*
X137606260Y-81485000D01*
X137893158Y-81427932D01*
X138163411Y-81315990D01*
X138406632Y-81153475D01*
X138613475Y-80946632D01*
X138735195Y-80764466D01*
X138804822Y-80881355D01*
X138999731Y-81097588D01*
X139233080Y-81271641D01*
X139495901Y-81396825D01*
X139643110Y-81441476D01*
X139873000Y-81320155D01*
X139873000Y-80127000D01*
X140127000Y-80127000D01*
X140127000Y-81320155D01*
X140356890Y-81441476D01*
X140504099Y-81396825D01*
X140766920Y-81271641D01*
X141000269Y-81097588D01*
X141195178Y-80881355D01*
X141344157Y-80631252D01*
X141441481Y-80356891D01*
X141320814Y-80127000D01*
X140127000Y-80127000D01*
X139873000Y-80127000D01*
X139853000Y-80127000D01*
X139853000Y-79873000D01*
X139873000Y-79873000D01*
X139873000Y-77587000D01*
X140127000Y-77587000D01*
X140127000Y-79873000D01*
X141320814Y-79873000D01*
X141441481Y-79643109D01*
X141344157Y-79368748D01*
X141195178Y-79118645D01*
X141018374Y-78922498D01*
X141094180Y-78899502D01*
X141204494Y-78840537D01*
X141301185Y-78761185D01*
X141380537Y-78664494D01*
X141439502Y-78554180D01*
X141475812Y-78434482D01*
X141488072Y-78310000D01*
X141485000Y-77745750D01*
X141326250Y-77587000D01*
X140127000Y-77587000D01*
X139873000Y-77587000D01*
X139853000Y-77587000D01*
X139853000Y-77333000D01*
X139873000Y-77333000D01*
X139873000Y-76133750D01*
X140127000Y-76133750D01*
X140127000Y-77333000D01*
X141326250Y-77333000D01*
X141485000Y-77174250D01*
X141488072Y-76610000D01*
X141475812Y-76485518D01*
X141439502Y-76365820D01*
X141380537Y-76255506D01*
X141301185Y-76158815D01*
X141204494Y-76079463D01*
X141094180Y-76020498D01*
X140974482Y-75984188D01*
X140850000Y-75971928D01*
X140285750Y-75975000D01*
X140127000Y-76133750D01*
X139873000Y-76133750D01*
X139714250Y-75975000D01*
X139150000Y-75971928D01*
X139025518Y-75984188D01*
X138905820Y-76020498D01*
X138795506Y-76079463D01*
X138698815Y-76158815D01*
X138619463Y-76255506D01*
X138560498Y-76365820D01*
X138538487Y-76438380D01*
X138406632Y-76306525D01*
X138163411Y-76144010D01*
X137893158Y-76032068D01*
X137606260Y-75975000D01*
X137313740Y-75975000D01*
X137026842Y-76032068D01*
X136756589Y-76144010D01*
X136513368Y-76306525D01*
X136306525Y-76513368D01*
X136190000Y-76687760D01*
X136073475Y-76513368D01*
X135866632Y-76306525D01*
X135623411Y-76144010D01*
X135353158Y-76032068D01*
X135066260Y-75975000D01*
X134773740Y-75975000D01*
X134486842Y-76032068D01*
X134216589Y-76144010D01*
X133973368Y-76306525D01*
X133766525Y-76513368D01*
X133650000Y-76687760D01*
X133533475Y-76513368D01*
X133326632Y-76306525D01*
X133083411Y-76144010D01*
X132813158Y-76032068D01*
X132526260Y-75975000D01*
X132233740Y-75975000D01*
X131946842Y-76032068D01*
X131676589Y-76144010D01*
X131433368Y-76306525D01*
X131226525Y-76513368D01*
X131110000Y-76687760D01*
X130993475Y-76513368D01*
X130786632Y-76306525D01*
X130543411Y-76144010D01*
X130273158Y-76032068D01*
X129986260Y-75975000D01*
X129693740Y-75975000D01*
X129406842Y-76032068D01*
X129136589Y-76144010D01*
X128893368Y-76306525D01*
X128686525Y-76513368D01*
X128570000Y-76687760D01*
X128453475Y-76513368D01*
X128246632Y-76306525D01*
X128003411Y-76144010D01*
X127733158Y-76032068D01*
X127446260Y-75975000D01*
X127153740Y-75975000D01*
X126866842Y-76032068D01*
X126596589Y-76144010D01*
X126353368Y-76306525D01*
X126146525Y-76513368D01*
X126030000Y-76687760D01*
X125913475Y-76513368D01*
X125706632Y-76306525D01*
X125463411Y-76144010D01*
X125193158Y-76032068D01*
X124906260Y-75975000D01*
X124613740Y-75975000D01*
X124326842Y-76032068D01*
X124056589Y-76144010D01*
X123813368Y-76306525D01*
X123606525Y-76513368D01*
X123490000Y-76687760D01*
X123373475Y-76513368D01*
X123166632Y-76306525D01*
X122923411Y-76144010D01*
X122653158Y-76032068D01*
X122366260Y-75975000D01*
X122073740Y-75975000D01*
X121786842Y-76032068D01*
X121516589Y-76144010D01*
X121273368Y-76306525D01*
X121066525Y-76513368D01*
X120950000Y-76687760D01*
X120833475Y-76513368D01*
X120626632Y-76306525D01*
X120383411Y-76144010D01*
X120113158Y-76032068D01*
X119826260Y-75975000D01*
X119533740Y-75975000D01*
X119246842Y-76032068D01*
X118976589Y-76144010D01*
X118733368Y-76306525D01*
X118526525Y-76513368D01*
X118410000Y-76687760D01*
X118293475Y-76513368D01*
X118086632Y-76306525D01*
X117843411Y-76144010D01*
X117573158Y-76032068D01*
X117286260Y-75975000D01*
X116993740Y-75975000D01*
X116706842Y-76032068D01*
X116436589Y-76144010D01*
X116193368Y-76306525D01*
X115986525Y-76513368D01*
X115870000Y-76687760D01*
X115753475Y-76513368D01*
X115546632Y-76306525D01*
X115303411Y-76144010D01*
X115033158Y-76032068D01*
X114746260Y-75975000D01*
X114453740Y-75975000D01*
X114166842Y-76032068D01*
X113896589Y-76144010D01*
X113653368Y-76306525D01*
X113446525Y-76513368D01*
X113324805Y-76695534D01*
X113255178Y-76578645D01*
X113060269Y-76362412D01*
X112826920Y-76188359D01*
X112564099Y-76063175D01*
X112416890Y-76018524D01*
X112187000Y-76139845D01*
X111933000Y-76139845D01*
X111703110Y-76018524D01*
X111555901Y-76063175D01*
X111293080Y-76188359D01*
X111059731Y-76362412D01*
X110864822Y-76578645D01*
X110715843Y-76828748D01*
X110618519Y-77103109D01*
X100660000Y-77103109D01*
X100660000Y-75900715D01*
X144970000Y-75900715D01*
X144970000Y-78899286D01*
X148790000Y-78899286D01*
X148790000Y-75900715D01*
X144970000Y-75900715D01*
X100660000Y-75900715D01*
X100660000Y-73032279D01*
X100707670Y-72546107D01*
X100839489Y-72109502D01*
X101053600Y-71706815D01*
X101341848Y-71353388D01*
X101693261Y-71062673D01*
X102094439Y-70845758D01*
X102530113Y-70710894D01*
X103014344Y-70660000D01*
X146967721Y-70660000D01*
X147453893Y-70707670D01*
G37*
G04 #@! TD.AperFunction*
M02*
