G04 #@! TF.GenerationSoftware,KiCad,Pcbnew,(5.1.10-1-10_14)*
G04 #@! TF.CreationDate,2021-08-17T00:22:47+08:00*
G04 #@! TF.ProjectId,stm32f401_devboard,73746d33-3266-4343-9031-5f646576626f,rev?*
G04 #@! TF.SameCoordinates,Original*
G04 #@! TF.FileFunction,Soldermask,Top*
G04 #@! TF.FilePolarity,Negative*
%FSLAX46Y46*%
G04 Gerber Fmt 4.6, Leading zero omitted, Abs format (unit mm)*
G04 Created by KiCad (PCBNEW (5.1.10-1-10_14)) date 2021-08-17 00:22:47*
%MOMM*%
%LPD*%
G01*
G04 APERTURE LIST*
%ADD10O,1.802000X1.802000*%
%ADD11O,2.202000X1.102000*%
%ADD12C,0.752000*%
%ADD13O,1.702000X1.102000*%
%ADD14O,1.102000X1.102000*%
%ADD15C,0.100000*%
G04 APERTURE END LIST*
G36*
G01*
X106549500Y-102079000D02*
X106970500Y-102079000D01*
G75*
G02*
X107131000Y-102239500I0J-160500D01*
G01*
X107131000Y-102560500D01*
G75*
G02*
X106970500Y-102721000I-160500J0D01*
G01*
X106549500Y-102721000D01*
G75*
G02*
X106389000Y-102560500I0J160500D01*
G01*
X106389000Y-102239500D01*
G75*
G02*
X106549500Y-102079000I160500J0D01*
G01*
G37*
G36*
G01*
X106549500Y-101059000D02*
X106970500Y-101059000D01*
G75*
G02*
X107131000Y-101219500I0J-160500D01*
G01*
X107131000Y-101540500D01*
G75*
G02*
X106970500Y-101701000I-160500J0D01*
G01*
X106549500Y-101701000D01*
G75*
G02*
X106389000Y-101540500I0J160500D01*
G01*
X106389000Y-101219500D01*
G75*
G02*
X106549500Y-101059000I160500J0D01*
G01*
G37*
G36*
G01*
X107574500Y-102039000D02*
X107965500Y-102039000D01*
G75*
G02*
X108131000Y-102204500I0J-165500D01*
G01*
X108131000Y-102535500D01*
G75*
G02*
X107965500Y-102701000I-165500J0D01*
G01*
X107574500Y-102701000D01*
G75*
G02*
X107409000Y-102535500I0J165500D01*
G01*
X107409000Y-102204500D01*
G75*
G02*
X107574500Y-102039000I165500J0D01*
G01*
G37*
G36*
G01*
X107574500Y-101079000D02*
X107965500Y-101079000D01*
G75*
G02*
X108131000Y-101244500I0J-165500D01*
G01*
X108131000Y-101575500D01*
G75*
G02*
X107965500Y-101741000I-165500J0D01*
G01*
X107574500Y-101741000D01*
G75*
G02*
X107409000Y-101575500I0J165500D01*
G01*
X107409000Y-101244500D01*
G75*
G02*
X107574500Y-101079000I165500J0D01*
G01*
G37*
G36*
G01*
X130121000Y-101007000D02*
X130121000Y-101533000D01*
G75*
G02*
X129858000Y-101796000I-263000J0D01*
G01*
X129232000Y-101796000D01*
G75*
G02*
X128969000Y-101533000I0J263000D01*
G01*
X128969000Y-101007000D01*
G75*
G02*
X129232000Y-100744000I263000J0D01*
G01*
X129858000Y-100744000D01*
G75*
G02*
X130121000Y-101007000I0J-263000D01*
G01*
G37*
G36*
G01*
X131871000Y-101007000D02*
X131871000Y-101533000D01*
G75*
G02*
X131608000Y-101796000I-263000J0D01*
G01*
X130982000Y-101796000D01*
G75*
G02*
X130719000Y-101533000I0J263000D01*
G01*
X130719000Y-101007000D01*
G75*
G02*
X130982000Y-100744000I263000J0D01*
G01*
X131608000Y-100744000D01*
G75*
G02*
X131871000Y-101007000I0J-263000D01*
G01*
G37*
G36*
G01*
X107359000Y-77143000D02*
X107359000Y-76617000D01*
G75*
G02*
X107622000Y-76354000I263000J0D01*
G01*
X108248000Y-76354000D01*
G75*
G02*
X108511000Y-76617000I0J-263000D01*
G01*
X108511000Y-77143000D01*
G75*
G02*
X108248000Y-77406000I-263000J0D01*
G01*
X107622000Y-77406000D01*
G75*
G02*
X107359000Y-77143000I0J263000D01*
G01*
G37*
G36*
G01*
X105609000Y-77143000D02*
X105609000Y-76617000D01*
G75*
G02*
X105872000Y-76354000I263000J0D01*
G01*
X106498000Y-76354000D01*
G75*
G02*
X106761000Y-76617000I0J-263000D01*
G01*
X106761000Y-77143000D01*
G75*
G02*
X106498000Y-77406000I-263000J0D01*
G01*
X105872000Y-77406000D01*
G75*
G02*
X105609000Y-77143000I0J263000D01*
G01*
G37*
G36*
G01*
X127910500Y-100681000D02*
X127549500Y-100681000D01*
G75*
G02*
X127369000Y-100500500I0J180500D01*
G01*
X127369000Y-100024500D01*
G75*
G02*
X127549500Y-99844000I180500J0D01*
G01*
X127910500Y-99844000D01*
G75*
G02*
X128091000Y-100024500I0J-180500D01*
G01*
X128091000Y-100500500D01*
G75*
G02*
X127910500Y-100681000I-180500J0D01*
G01*
G37*
G36*
G01*
X127910500Y-101816000D02*
X127549500Y-101816000D01*
G75*
G02*
X127369000Y-101635500I0J180500D01*
G01*
X127369000Y-101159500D01*
G75*
G02*
X127549500Y-100979000I180500J0D01*
G01*
X127910500Y-100979000D01*
G75*
G02*
X128091000Y-101159500I0J-180500D01*
G01*
X128091000Y-101635500D01*
G75*
G02*
X127910500Y-101816000I-180500J0D01*
G01*
G37*
G36*
G01*
X118249000Y-97040500D02*
X118249000Y-96679500D01*
G75*
G02*
X118429500Y-96499000I180500J0D01*
G01*
X118905500Y-96499000D01*
G75*
G02*
X119086000Y-96679500I0J-180500D01*
G01*
X119086000Y-97040500D01*
G75*
G02*
X118905500Y-97221000I-180500J0D01*
G01*
X118429500Y-97221000D01*
G75*
G02*
X118249000Y-97040500I0J180500D01*
G01*
G37*
G36*
G01*
X117114000Y-97040500D02*
X117114000Y-96679500D01*
G75*
G02*
X117294500Y-96499000I180500J0D01*
G01*
X117770500Y-96499000D01*
G75*
G02*
X117951000Y-96679500I0J-180500D01*
G01*
X117951000Y-97040500D01*
G75*
G02*
X117770500Y-97221000I-180500J0D01*
G01*
X117294500Y-97221000D01*
G75*
G02*
X117114000Y-97040500I0J180500D01*
G01*
G37*
G36*
G01*
X119457009Y-88867726D02*
X119712274Y-89122991D01*
G75*
G02*
X119712274Y-89378257I-127633J-127633D01*
G01*
X119375691Y-89714840D01*
G75*
G02*
X119120425Y-89714840I-127633J127633D01*
G01*
X118865160Y-89459575D01*
G75*
G02*
X118865160Y-89204309I127633J127633D01*
G01*
X119201743Y-88867726D01*
G75*
G02*
X119457009Y-88867726I127633J-127633D01*
G01*
G37*
G36*
G01*
X120259575Y-88065160D02*
X120514840Y-88320425D01*
G75*
G02*
X120514840Y-88575691I-127633J-127633D01*
G01*
X120178257Y-88912274D01*
G75*
G02*
X119922991Y-88912274I-127633J127633D01*
G01*
X119667726Y-88657009D01*
G75*
G02*
X119667726Y-88401743I127633J127633D01*
G01*
X120004309Y-88065160D01*
G75*
G02*
X120259575Y-88065160I127633J-127633D01*
G01*
G37*
D10*
X112060000Y-112540000D03*
X112060000Y-110000000D03*
X114600000Y-112540000D03*
X114600000Y-110000000D03*
X117140000Y-112540000D03*
X117140000Y-110000000D03*
X119680000Y-112540000D03*
X119680000Y-110000000D03*
X122220000Y-112540000D03*
X122220000Y-110000000D03*
X124760000Y-112540000D03*
X124760000Y-110000000D03*
X127300000Y-112540000D03*
X127300000Y-110000000D03*
X129840000Y-112540000D03*
X129840000Y-110000000D03*
X132380000Y-112540000D03*
X132380000Y-110000000D03*
X134920000Y-112540000D03*
X134920000Y-110000000D03*
X137460000Y-112540000D03*
X137460000Y-110000000D03*
X140000000Y-112540000D03*
G36*
G01*
X139150000Y-109099000D02*
X140850000Y-109099000D01*
G75*
G02*
X140901000Y-109150000I0J-51000D01*
G01*
X140901000Y-110850000D01*
G75*
G02*
X140850000Y-110901000I-51000J0D01*
G01*
X139150000Y-110901000D01*
G75*
G02*
X139099000Y-110850000I0J51000D01*
G01*
X139099000Y-109150000D01*
G75*
G02*
X139150000Y-109099000I51000J0D01*
G01*
G37*
X112060000Y-80000000D03*
X112060000Y-77460000D03*
X114600000Y-80000000D03*
X114600000Y-77460000D03*
X117140000Y-80000000D03*
X117140000Y-77460000D03*
X119680000Y-80000000D03*
X119680000Y-77460000D03*
X122220000Y-80000000D03*
X122220000Y-77460000D03*
X124760000Y-80000000D03*
X124760000Y-77460000D03*
X127300000Y-80000000D03*
X127300000Y-77460000D03*
X129840000Y-80000000D03*
X129840000Y-77460000D03*
X132380000Y-80000000D03*
X132380000Y-77460000D03*
X134920000Y-80000000D03*
X134920000Y-77460000D03*
X137460000Y-80000000D03*
X137460000Y-77460000D03*
X140000000Y-80000000D03*
G36*
G01*
X139150000Y-76559000D02*
X140850000Y-76559000D01*
G75*
G02*
X140901000Y-76610000I0J-51000D01*
G01*
X140901000Y-78310000D01*
G75*
G02*
X140850000Y-78361000I-51000J0D01*
G01*
X139150000Y-78361000D01*
G75*
G02*
X139099000Y-78310000I0J51000D01*
G01*
X139099000Y-76610000D01*
G75*
G02*
X139150000Y-76559000I51000J0D01*
G01*
G37*
G36*
G01*
X111979000Y-117720500D02*
X111979000Y-117359500D01*
G75*
G02*
X112159500Y-117179000I180500J0D01*
G01*
X112635500Y-117179000D01*
G75*
G02*
X112816000Y-117359500I0J-180500D01*
G01*
X112816000Y-117720500D01*
G75*
G02*
X112635500Y-117901000I-180500J0D01*
G01*
X112159500Y-117901000D01*
G75*
G02*
X111979000Y-117720500I0J180500D01*
G01*
G37*
G36*
G01*
X110844000Y-117720500D02*
X110844000Y-117359500D01*
G75*
G02*
X111024500Y-117179000I180500J0D01*
G01*
X111500500Y-117179000D01*
G75*
G02*
X111681000Y-117359500I0J-180500D01*
G01*
X111681000Y-117720500D01*
G75*
G02*
X111500500Y-117901000I-180500J0D01*
G01*
X111024500Y-117901000D01*
G75*
G02*
X110844000Y-117720500I0J180500D01*
G01*
G37*
G36*
G01*
X136130001Y-96031000D02*
X134929999Y-96031000D01*
G75*
G02*
X134879000Y-95980001I0J50999D01*
G01*
X134879000Y-94579999D01*
G75*
G02*
X134929999Y-94529000I50999J0D01*
G01*
X136130001Y-94529000D01*
G75*
G02*
X136181000Y-94579999I0J-50999D01*
G01*
X136181000Y-95980001D01*
G75*
G02*
X136130001Y-96031000I-50999J0D01*
G01*
G37*
G36*
G01*
X136130001Y-93831000D02*
X134929999Y-93831000D01*
G75*
G02*
X134879000Y-93780001I0J50999D01*
G01*
X134879000Y-92379999D01*
G75*
G02*
X134929999Y-92329000I50999J0D01*
G01*
X136130001Y-92329000D01*
G75*
G02*
X136181000Y-92379999I0J-50999D01*
G01*
X136181000Y-93780001D01*
G75*
G02*
X136130001Y-93831000I-50999J0D01*
G01*
G37*
G36*
G01*
X137830001Y-93831000D02*
X136629999Y-93831000D01*
G75*
G02*
X136579000Y-93780001I0J50999D01*
G01*
X136579000Y-92379999D01*
G75*
G02*
X136629999Y-92329000I50999J0D01*
G01*
X137830001Y-92329000D01*
G75*
G02*
X137881000Y-92379999I0J-50999D01*
G01*
X137881000Y-93780001D01*
G75*
G02*
X137830001Y-93831000I-50999J0D01*
G01*
G37*
G36*
G01*
X137830001Y-96031000D02*
X136629999Y-96031000D01*
G75*
G02*
X136579000Y-95980001I0J50999D01*
G01*
X136579000Y-94579999D01*
G75*
G02*
X136629999Y-94529000I50999J0D01*
G01*
X137830001Y-94529000D01*
G75*
G02*
X137881000Y-94579999I0J-50999D01*
G01*
X137881000Y-95980001D01*
G75*
G02*
X137830001Y-96031000I-50999J0D01*
G01*
G37*
G36*
G01*
X107480000Y-97899000D02*
X108930000Y-97899000D01*
G75*
G02*
X108981000Y-97950000I0J-51000D01*
G01*
X108981000Y-98550000D01*
G75*
G02*
X108930000Y-98601000I-51000J0D01*
G01*
X107480000Y-98601000D01*
G75*
G02*
X107429000Y-98550000I0J51000D01*
G01*
X107429000Y-97950000D01*
G75*
G02*
X107480000Y-97899000I51000J0D01*
G01*
G37*
G36*
G01*
X107480000Y-97099000D02*
X108930000Y-97099000D01*
G75*
G02*
X108981000Y-97150000I0J-51000D01*
G01*
X108981000Y-97750000D01*
G75*
G02*
X108930000Y-97801000I-51000J0D01*
G01*
X107480000Y-97801000D01*
G75*
G02*
X107429000Y-97750000I0J51000D01*
G01*
X107429000Y-97150000D01*
G75*
G02*
X107480000Y-97099000I51000J0D01*
G01*
G37*
G36*
G01*
X107480000Y-92199000D02*
X108930000Y-92199000D01*
G75*
G02*
X108981000Y-92250000I0J-51000D01*
G01*
X108981000Y-92850000D01*
G75*
G02*
X108930000Y-92901000I-51000J0D01*
G01*
X107480000Y-92901000D01*
G75*
G02*
X107429000Y-92850000I0J51000D01*
G01*
X107429000Y-92250000D01*
G75*
G02*
X107480000Y-92199000I51000J0D01*
G01*
G37*
G36*
G01*
X107480000Y-91399000D02*
X108930000Y-91399000D01*
G75*
G02*
X108981000Y-91450000I0J-51000D01*
G01*
X108981000Y-92050000D01*
G75*
G02*
X108930000Y-92101000I-51000J0D01*
G01*
X107480000Y-92101000D01*
G75*
G02*
X107429000Y-92050000I0J51000D01*
G01*
X107429000Y-91450000D01*
G75*
G02*
X107480000Y-91399000I51000J0D01*
G01*
G37*
G36*
G01*
X107480000Y-91399000D02*
X108930000Y-91399000D01*
G75*
G02*
X108981000Y-91450000I0J-51000D01*
G01*
X108981000Y-92050000D01*
G75*
G02*
X108930000Y-92101000I-51000J0D01*
G01*
X107480000Y-92101000D01*
G75*
G02*
X107429000Y-92050000I0J51000D01*
G01*
X107429000Y-91450000D01*
G75*
G02*
X107480000Y-91399000I51000J0D01*
G01*
G37*
G36*
G01*
X107480000Y-92199000D02*
X108930000Y-92199000D01*
G75*
G02*
X108981000Y-92250000I0J-51000D01*
G01*
X108981000Y-92850000D01*
G75*
G02*
X108930000Y-92901000I-51000J0D01*
G01*
X107480000Y-92901000D01*
G75*
G02*
X107429000Y-92850000I0J51000D01*
G01*
X107429000Y-92250000D01*
G75*
G02*
X107480000Y-92199000I51000J0D01*
G01*
G37*
G36*
G01*
X107480000Y-97099000D02*
X108930000Y-97099000D01*
G75*
G02*
X108981000Y-97150000I0J-51000D01*
G01*
X108981000Y-97750000D01*
G75*
G02*
X108930000Y-97801000I-51000J0D01*
G01*
X107480000Y-97801000D01*
G75*
G02*
X107429000Y-97750000I0J51000D01*
G01*
X107429000Y-97150000D01*
G75*
G02*
X107480000Y-97099000I51000J0D01*
G01*
G37*
G36*
G01*
X107480000Y-97899000D02*
X108930000Y-97899000D01*
G75*
G02*
X108981000Y-97950000I0J-51000D01*
G01*
X108981000Y-98550000D01*
G75*
G02*
X108930000Y-98601000I-51000J0D01*
G01*
X107480000Y-98601000D01*
G75*
G02*
X107429000Y-98550000I0J51000D01*
G01*
X107429000Y-97950000D01*
G75*
G02*
X107480000Y-97899000I51000J0D01*
G01*
G37*
G36*
G01*
X107480000Y-93049000D02*
X108930000Y-93049000D01*
G75*
G02*
X108981000Y-93100000I0J-51000D01*
G01*
X108981000Y-93400000D01*
G75*
G02*
X108930000Y-93451000I-51000J0D01*
G01*
X107480000Y-93451000D01*
G75*
G02*
X107429000Y-93400000I0J51000D01*
G01*
X107429000Y-93100000D01*
G75*
G02*
X107480000Y-93049000I51000J0D01*
G01*
G37*
G36*
G01*
X107480000Y-93549000D02*
X108930000Y-93549000D01*
G75*
G02*
X108981000Y-93600000I0J-51000D01*
G01*
X108981000Y-93900000D01*
G75*
G02*
X108930000Y-93951000I-51000J0D01*
G01*
X107480000Y-93951000D01*
G75*
G02*
X107429000Y-93900000I0J51000D01*
G01*
X107429000Y-93600000D01*
G75*
G02*
X107480000Y-93549000I51000J0D01*
G01*
G37*
G36*
G01*
X107480000Y-94049000D02*
X108930000Y-94049000D01*
G75*
G02*
X108981000Y-94100000I0J-51000D01*
G01*
X108981000Y-94400000D01*
G75*
G02*
X108930000Y-94451000I-51000J0D01*
G01*
X107480000Y-94451000D01*
G75*
G02*
X107429000Y-94400000I0J51000D01*
G01*
X107429000Y-94100000D01*
G75*
G02*
X107480000Y-94049000I51000J0D01*
G01*
G37*
G36*
G01*
X107480000Y-95049000D02*
X108930000Y-95049000D01*
G75*
G02*
X108981000Y-95100000I0J-51000D01*
G01*
X108981000Y-95400000D01*
G75*
G02*
X108930000Y-95451000I-51000J0D01*
G01*
X107480000Y-95451000D01*
G75*
G02*
X107429000Y-95400000I0J51000D01*
G01*
X107429000Y-95100000D01*
G75*
G02*
X107480000Y-95049000I51000J0D01*
G01*
G37*
G36*
G01*
X107480000Y-95549000D02*
X108930000Y-95549000D01*
G75*
G02*
X108981000Y-95600000I0J-51000D01*
G01*
X108981000Y-95900000D01*
G75*
G02*
X108930000Y-95951000I-51000J0D01*
G01*
X107480000Y-95951000D01*
G75*
G02*
X107429000Y-95900000I0J51000D01*
G01*
X107429000Y-95600000D01*
G75*
G02*
X107480000Y-95549000I51000J0D01*
G01*
G37*
G36*
G01*
X107480000Y-96049000D02*
X108930000Y-96049000D01*
G75*
G02*
X108981000Y-96100000I0J-51000D01*
G01*
X108981000Y-96400000D01*
G75*
G02*
X108930000Y-96451000I-51000J0D01*
G01*
X107480000Y-96451000D01*
G75*
G02*
X107429000Y-96400000I0J51000D01*
G01*
X107429000Y-96100000D01*
G75*
G02*
X107480000Y-96049000I51000J0D01*
G01*
G37*
G36*
G01*
X107480000Y-96549000D02*
X108930000Y-96549000D01*
G75*
G02*
X108981000Y-96600000I0J-51000D01*
G01*
X108981000Y-96900000D01*
G75*
G02*
X108930000Y-96951000I-51000J0D01*
G01*
X107480000Y-96951000D01*
G75*
G02*
X107429000Y-96900000I0J51000D01*
G01*
X107429000Y-96600000D01*
G75*
G02*
X107480000Y-96549000I51000J0D01*
G01*
G37*
G36*
G01*
X107480000Y-94549000D02*
X108930000Y-94549000D01*
G75*
G02*
X108981000Y-94600000I0J-51000D01*
G01*
X108981000Y-94900000D01*
G75*
G02*
X108930000Y-94951000I-51000J0D01*
G01*
X107480000Y-94951000D01*
G75*
G02*
X107429000Y-94900000I0J51000D01*
G01*
X107429000Y-94600000D01*
G75*
G02*
X107480000Y-94549000I51000J0D01*
G01*
G37*
D11*
X107290000Y-99320000D03*
X107290000Y-90680000D03*
D12*
X106760000Y-92110000D03*
D13*
X103110000Y-90680000D03*
D12*
X106760000Y-97890000D03*
D13*
X103110000Y-99320000D03*
G36*
G01*
X101449000Y-83910000D02*
X101449000Y-82410000D01*
G75*
G02*
X101500000Y-82359000I51000J0D01*
G01*
X103500000Y-82359000D01*
G75*
G02*
X103551000Y-82410000I0J-51000D01*
G01*
X103551000Y-83910000D01*
G75*
G02*
X103500000Y-83961000I-51000J0D01*
G01*
X101500000Y-83961000D01*
G75*
G02*
X101449000Y-83910000I0J51000D01*
G01*
G37*
G36*
G01*
X101449000Y-88510000D02*
X101449000Y-87010000D01*
G75*
G02*
X101500000Y-86959000I51000J0D01*
G01*
X103500000Y-86959000D01*
G75*
G02*
X103551000Y-87010000I0J-51000D01*
G01*
X103551000Y-88510000D01*
G75*
G02*
X103500000Y-88561000I-51000J0D01*
G01*
X101500000Y-88561000D01*
G75*
G02*
X101449000Y-88510000I0J51000D01*
G01*
G37*
G36*
G01*
X101449000Y-86210000D02*
X101449000Y-84710000D01*
G75*
G02*
X101500000Y-84659000I51000J0D01*
G01*
X103500000Y-84659000D01*
G75*
G02*
X103551000Y-84710000I0J-51000D01*
G01*
X103551000Y-86210000D01*
G75*
G02*
X103500000Y-86261000I-51000J0D01*
G01*
X101500000Y-86261000D01*
G75*
G02*
X101449000Y-86210000I0J51000D01*
G01*
G37*
G36*
G01*
X107749000Y-87360000D02*
X107749000Y-83560000D01*
G75*
G02*
X107800000Y-83509000I51000J0D01*
G01*
X109800000Y-83509000D01*
G75*
G02*
X109851000Y-83560000I0J-51000D01*
G01*
X109851000Y-87360000D01*
G75*
G02*
X109800000Y-87411000I-51000J0D01*
G01*
X107800000Y-87411000D01*
G75*
G02*
X107749000Y-87360000I0J51000D01*
G01*
G37*
G36*
G01*
X123020969Y-102910002D02*
X123020969Y-104609998D01*
G75*
G02*
X122969969Y-104660998I-51000J0D01*
G01*
X122069971Y-104660998D01*
G75*
G02*
X122018971Y-104609998I0J51000D01*
G01*
X122018971Y-102910002D01*
G75*
G02*
X122069971Y-102859002I51000J0D01*
G01*
X122969969Y-102859002D01*
G75*
G02*
X123020969Y-102910002I0J-51000D01*
G01*
G37*
G36*
G01*
X118421029Y-102910002D02*
X118421029Y-104609998D01*
G75*
G02*
X118370029Y-104660998I-51000J0D01*
G01*
X117470031Y-104660998D01*
G75*
G02*
X117419031Y-104609998I0J51000D01*
G01*
X117419031Y-102910002D01*
G75*
G02*
X117470031Y-102859002I51000J0D01*
G01*
X118370029Y-102859002D01*
G75*
G02*
X118421029Y-102910002I0J-51000D01*
G01*
G37*
G36*
G01*
X138429031Y-88039998D02*
X138429031Y-86340002D01*
G75*
G02*
X138480031Y-86289002I51000J0D01*
G01*
X139380029Y-86289002D01*
G75*
G02*
X139431029Y-86340002I0J-51000D01*
G01*
X139431029Y-88039998D01*
G75*
G02*
X139380029Y-88090998I-51000J0D01*
G01*
X138480031Y-88090998D01*
G75*
G02*
X138429031Y-88039998I0J51000D01*
G01*
G37*
G36*
G01*
X143028971Y-88039998D02*
X143028971Y-86340002D01*
G75*
G02*
X143079971Y-86289002I51000J0D01*
G01*
X143979969Y-86289002D01*
G75*
G02*
X144030969Y-86340002I0J-51000D01*
G01*
X144030969Y-88039998D01*
G75*
G02*
X143979969Y-88090998I-51000J0D01*
G01*
X143079971Y-88090998D01*
G75*
G02*
X143028971Y-88039998I0J51000D01*
G01*
G37*
G36*
G01*
X135899500Y-83969000D02*
X136320500Y-83969000D01*
G75*
G02*
X136481000Y-84129500I0J-160500D01*
G01*
X136481000Y-84450500D01*
G75*
G02*
X136320500Y-84611000I-160500J0D01*
G01*
X135899500Y-84611000D01*
G75*
G02*
X135739000Y-84450500I0J160500D01*
G01*
X135739000Y-84129500D01*
G75*
G02*
X135899500Y-83969000I160500J0D01*
G01*
G37*
G36*
G01*
X135899500Y-82949000D02*
X136320500Y-82949000D01*
G75*
G02*
X136481000Y-83109500I0J-160500D01*
G01*
X136481000Y-83430500D01*
G75*
G02*
X136320500Y-83591000I-160500J0D01*
G01*
X135899500Y-83591000D01*
G75*
G02*
X135739000Y-83430500I0J160500D01*
G01*
X135739000Y-83109500D01*
G75*
G02*
X135899500Y-82949000I160500J0D01*
G01*
G37*
G36*
G01*
X131609000Y-92960500D02*
X131609000Y-92539500D01*
G75*
G02*
X131769500Y-92379000I160500J0D01*
G01*
X132090500Y-92379000D01*
G75*
G02*
X132251000Y-92539500I0J-160500D01*
G01*
X132251000Y-92960500D01*
G75*
G02*
X132090500Y-93121000I-160500J0D01*
G01*
X131769500Y-93121000D01*
G75*
G02*
X131609000Y-92960500I0J160500D01*
G01*
G37*
G36*
G01*
X130589000Y-92960500D02*
X130589000Y-92539500D01*
G75*
G02*
X130749500Y-92379000I160500J0D01*
G01*
X131070500Y-92379000D01*
G75*
G02*
X131231000Y-92539500I0J-160500D01*
G01*
X131231000Y-92960500D01*
G75*
G02*
X131070500Y-93121000I-160500J0D01*
G01*
X130749500Y-93121000D01*
G75*
G02*
X130589000Y-92960500I0J160500D01*
G01*
G37*
G36*
G01*
X131510500Y-98681000D02*
X131089500Y-98681000D01*
G75*
G02*
X130929000Y-98520500I0J160500D01*
G01*
X130929000Y-98199500D01*
G75*
G02*
X131089500Y-98039000I160500J0D01*
G01*
X131510500Y-98039000D01*
G75*
G02*
X131671000Y-98199500I0J-160500D01*
G01*
X131671000Y-98520500D01*
G75*
G02*
X131510500Y-98681000I-160500J0D01*
G01*
G37*
G36*
G01*
X131510500Y-99701000D02*
X131089500Y-99701000D01*
G75*
G02*
X130929000Y-99540500I0J160500D01*
G01*
X130929000Y-99219500D01*
G75*
G02*
X131089500Y-99059000I160500J0D01*
G01*
X131510500Y-99059000D01*
G75*
G02*
X131671000Y-99219500I0J-160500D01*
G01*
X131671000Y-99540500D01*
G75*
G02*
X131510500Y-99701000I-160500J0D01*
G01*
G37*
G36*
G01*
X103971000Y-76659500D02*
X103971000Y-77080500D01*
G75*
G02*
X103810500Y-77241000I-160500J0D01*
G01*
X103489500Y-77241000D01*
G75*
G02*
X103329000Y-77080500I0J160500D01*
G01*
X103329000Y-76659500D01*
G75*
G02*
X103489500Y-76499000I160500J0D01*
G01*
X103810500Y-76499000D01*
G75*
G02*
X103971000Y-76659500I0J-160500D01*
G01*
G37*
G36*
G01*
X104991000Y-76659500D02*
X104991000Y-77080500D01*
G75*
G02*
X104830500Y-77241000I-160500J0D01*
G01*
X104509500Y-77241000D01*
G75*
G02*
X104349000Y-77080500I0J160500D01*
G01*
X104349000Y-76659500D01*
G75*
G02*
X104509500Y-76499000I160500J0D01*
G01*
X104830500Y-76499000D01*
G75*
G02*
X104991000Y-76659500I0J-160500D01*
G01*
G37*
G36*
G01*
X124799000Y-105260500D02*
X124799000Y-104839500D01*
G75*
G02*
X124959500Y-104679000I160500J0D01*
G01*
X125280500Y-104679000D01*
G75*
G02*
X125441000Y-104839500I0J-160500D01*
G01*
X125441000Y-105260500D01*
G75*
G02*
X125280500Y-105421000I-160500J0D01*
G01*
X124959500Y-105421000D01*
G75*
G02*
X124799000Y-105260500I0J160500D01*
G01*
G37*
G36*
G01*
X123779000Y-105260500D02*
X123779000Y-104839500D01*
G75*
G02*
X123939500Y-104679000I160500J0D01*
G01*
X124260500Y-104679000D01*
G75*
G02*
X124421000Y-104839500I0J-160500D01*
G01*
X124421000Y-105260500D01*
G75*
G02*
X124260500Y-105421000I-160500J0D01*
G01*
X123939500Y-105421000D01*
G75*
G02*
X123779000Y-105260500I0J160500D01*
G01*
G37*
G36*
G01*
X132560500Y-105601000D02*
X132139500Y-105601000D01*
G75*
G02*
X131979000Y-105440500I0J160500D01*
G01*
X131979000Y-105119500D01*
G75*
G02*
X132139500Y-104959000I160500J0D01*
G01*
X132560500Y-104959000D01*
G75*
G02*
X132721000Y-105119500I0J-160500D01*
G01*
X132721000Y-105440500D01*
G75*
G02*
X132560500Y-105601000I-160500J0D01*
G01*
G37*
G36*
G01*
X132560500Y-106621000D02*
X132139500Y-106621000D01*
G75*
G02*
X131979000Y-106460500I0J160500D01*
G01*
X131979000Y-106139500D01*
G75*
G02*
X132139500Y-105979000I160500J0D01*
G01*
X132560500Y-105979000D01*
G75*
G02*
X132721000Y-106139500I0J-160500D01*
G01*
X132721000Y-106460500D01*
G75*
G02*
X132560500Y-106621000I-160500J0D01*
G01*
G37*
G36*
G01*
X138391000Y-100064500D02*
X138391000Y-100455500D01*
G75*
G02*
X138225500Y-100621000I-165500J0D01*
G01*
X137894500Y-100621000D01*
G75*
G02*
X137729000Y-100455500I0J165500D01*
G01*
X137729000Y-100064500D01*
G75*
G02*
X137894500Y-99899000I165500J0D01*
G01*
X138225500Y-99899000D01*
G75*
G02*
X138391000Y-100064500I0J-165500D01*
G01*
G37*
G36*
G01*
X139351000Y-100064500D02*
X139351000Y-100455500D01*
G75*
G02*
X139185500Y-100621000I-165500J0D01*
G01*
X138854500Y-100621000D01*
G75*
G02*
X138689000Y-100455500I0J165500D01*
G01*
X138689000Y-100064500D01*
G75*
G02*
X138854500Y-99899000I165500J0D01*
G01*
X139185500Y-99899000D01*
G75*
G02*
X139351000Y-100064500I0J-165500D01*
G01*
G37*
G36*
G01*
X138391000Y-97524500D02*
X138391000Y-97915500D01*
G75*
G02*
X138225500Y-98081000I-165500J0D01*
G01*
X137894500Y-98081000D01*
G75*
G02*
X137729000Y-97915500I0J165500D01*
G01*
X137729000Y-97524500D01*
G75*
G02*
X137894500Y-97359000I165500J0D01*
G01*
X138225500Y-97359000D01*
G75*
G02*
X138391000Y-97524500I0J-165500D01*
G01*
G37*
G36*
G01*
X139351000Y-97524500D02*
X139351000Y-97915500D01*
G75*
G02*
X139185500Y-98081000I-165500J0D01*
G01*
X138854500Y-98081000D01*
G75*
G02*
X138689000Y-97915500I0J165500D01*
G01*
X138689000Y-97524500D01*
G75*
G02*
X138854500Y-97359000I165500J0D01*
G01*
X139185500Y-97359000D01*
G75*
G02*
X139351000Y-97524500I0J-165500D01*
G01*
G37*
G36*
G01*
X136321000Y-90804500D02*
X136321000Y-91195500D01*
G75*
G02*
X136155500Y-91361000I-165500J0D01*
G01*
X135824500Y-91361000D01*
G75*
G02*
X135659000Y-91195500I0J165500D01*
G01*
X135659000Y-90804500D01*
G75*
G02*
X135824500Y-90639000I165500J0D01*
G01*
X136155500Y-90639000D01*
G75*
G02*
X136321000Y-90804500I0J-165500D01*
G01*
G37*
G36*
G01*
X137281000Y-90804500D02*
X137281000Y-91195500D01*
G75*
G02*
X137115500Y-91361000I-165500J0D01*
G01*
X136784500Y-91361000D01*
G75*
G02*
X136619000Y-91195500I0J165500D01*
G01*
X136619000Y-90804500D01*
G75*
G02*
X136784500Y-90639000I165500J0D01*
G01*
X137115500Y-90639000D01*
G75*
G02*
X137281000Y-90804500I0J-165500D01*
G01*
G37*
G36*
G01*
X138984500Y-94239000D02*
X139375500Y-94239000D01*
G75*
G02*
X139541000Y-94404500I0J-165500D01*
G01*
X139541000Y-94735500D01*
G75*
G02*
X139375500Y-94901000I-165500J0D01*
G01*
X138984500Y-94901000D01*
G75*
G02*
X138819000Y-94735500I0J165500D01*
G01*
X138819000Y-94404500D01*
G75*
G02*
X138984500Y-94239000I165500J0D01*
G01*
G37*
G36*
G01*
X138984500Y-93279000D02*
X139375500Y-93279000D01*
G75*
G02*
X139541000Y-93444500I0J-165500D01*
G01*
X139541000Y-93775500D01*
G75*
G02*
X139375500Y-93941000I-165500J0D01*
G01*
X138984500Y-93941000D01*
G75*
G02*
X138819000Y-93775500I0J165500D01*
G01*
X138819000Y-93444500D01*
G75*
G02*
X138984500Y-93279000I165500J0D01*
G01*
G37*
G36*
G01*
X131487000Y-90459000D02*
X132013000Y-90459000D01*
G75*
G02*
X132276000Y-90722000I0J-263000D01*
G01*
X132276000Y-91348000D01*
G75*
G02*
X132013000Y-91611000I-263000J0D01*
G01*
X131487000Y-91611000D01*
G75*
G02*
X131224000Y-91348000I0J263000D01*
G01*
X131224000Y-90722000D01*
G75*
G02*
X131487000Y-90459000I263000J0D01*
G01*
G37*
G36*
G01*
X131487000Y-88709000D02*
X132013000Y-88709000D01*
G75*
G02*
X132276000Y-88972000I0J-263000D01*
G01*
X132276000Y-89598000D01*
G75*
G02*
X132013000Y-89861000I-263000J0D01*
G01*
X131487000Y-89861000D01*
G75*
G02*
X131224000Y-89598000I0J263000D01*
G01*
X131224000Y-88972000D01*
G75*
G02*
X131487000Y-88709000I263000J0D01*
G01*
G37*
G36*
G01*
X113799031Y-118389998D02*
X113799031Y-116690002D01*
G75*
G02*
X113850031Y-116639002I51000J0D01*
G01*
X114750029Y-116639002D01*
G75*
G02*
X114801029Y-116690002I0J-51000D01*
G01*
X114801029Y-118389998D01*
G75*
G02*
X114750029Y-118440998I-51000J0D01*
G01*
X113850031Y-118440998D01*
G75*
G02*
X113799031Y-118389998I0J51000D01*
G01*
G37*
G36*
G01*
X118398971Y-118389998D02*
X118398971Y-116690002D01*
G75*
G02*
X118449971Y-116639002I51000J0D01*
G01*
X119349969Y-116639002D01*
G75*
G02*
X119400969Y-116690002I0J-51000D01*
G01*
X119400969Y-118389998D01*
G75*
G02*
X119349969Y-118440998I-51000J0D01*
G01*
X118449971Y-118440998D01*
G75*
G02*
X118398971Y-118389998I0J51000D01*
G01*
G37*
G36*
G01*
X137170000Y-100731000D02*
X135370000Y-100731000D01*
G75*
G02*
X135319000Y-100680000I0J51000D01*
G01*
X135319000Y-99680000D01*
G75*
G02*
X135370000Y-99629000I51000J0D01*
G01*
X137170000Y-99629000D01*
G75*
G02*
X137221000Y-99680000I0J-51000D01*
G01*
X137221000Y-100680000D01*
G75*
G02*
X137170000Y-100731000I-51000J0D01*
G01*
G37*
G36*
G01*
X137170000Y-98231000D02*
X135370000Y-98231000D01*
G75*
G02*
X135319000Y-98180000I0J51000D01*
G01*
X135319000Y-97180000D01*
G75*
G02*
X135370000Y-97129000I51000J0D01*
G01*
X137170000Y-97129000D01*
G75*
G02*
X137221000Y-97180000I0J-51000D01*
G01*
X137221000Y-98180000D01*
G75*
G02*
X137170000Y-98231000I-51000J0D01*
G01*
G37*
D14*
X105325000Y-106460000D03*
X104055000Y-106460000D03*
X105325000Y-107730000D03*
X104055000Y-107730000D03*
X105325000Y-109000000D03*
X104055000Y-109000000D03*
X105325000Y-110270000D03*
X104055000Y-110270000D03*
X104055000Y-111540000D03*
G36*
G01*
X105876000Y-111040000D02*
X105876000Y-112040000D01*
G75*
G02*
X105825000Y-112091000I-51000J0D01*
G01*
X104825000Y-112091000D01*
G75*
G02*
X104774000Y-112040000I0J51000D01*
G01*
X104774000Y-111040000D01*
G75*
G02*
X104825000Y-110989000I51000J0D01*
G01*
X105825000Y-110989000D01*
G75*
G02*
X105876000Y-111040000I0J-51000D01*
G01*
G37*
G36*
G01*
X127851000Y-91200000D02*
X127851000Y-96800000D01*
G75*
G02*
X127800000Y-96851000I-51000J0D01*
G01*
X122200000Y-96851000D01*
G75*
G02*
X122149000Y-96800000I0J51000D01*
G01*
X122149000Y-91200000D01*
G75*
G02*
X122200000Y-91149000I51000J0D01*
G01*
X127800000Y-91149000D01*
G75*
G02*
X127851000Y-91200000I0J-51000D01*
G01*
G37*
G36*
G01*
X127926000Y-97037000D02*
X127926000Y-97838000D01*
G75*
G02*
X127838000Y-97926000I-88000J0D01*
G01*
X127662000Y-97926000D01*
G75*
G02*
X127574000Y-97838000I0J88000D01*
G01*
X127574000Y-97037000D01*
G75*
G02*
X127662000Y-96949000I88000J0D01*
G01*
X127838000Y-96949000D01*
G75*
G02*
X127926000Y-97037000I0J-88000D01*
G01*
G37*
G36*
G01*
X127426000Y-97037000D02*
X127426000Y-97838000D01*
G75*
G02*
X127338000Y-97926000I-88000J0D01*
G01*
X127162000Y-97926000D01*
G75*
G02*
X127074000Y-97838000I0J88000D01*
G01*
X127074000Y-97037000D01*
G75*
G02*
X127162000Y-96949000I88000J0D01*
G01*
X127338000Y-96949000D01*
G75*
G02*
X127426000Y-97037000I0J-88000D01*
G01*
G37*
G36*
G01*
X126926000Y-97037000D02*
X126926000Y-97838000D01*
G75*
G02*
X126838000Y-97926000I-88000J0D01*
G01*
X126662000Y-97926000D01*
G75*
G02*
X126574000Y-97838000I0J88000D01*
G01*
X126574000Y-97037000D01*
G75*
G02*
X126662000Y-96949000I88000J0D01*
G01*
X126838000Y-96949000D01*
G75*
G02*
X126926000Y-97037000I0J-88000D01*
G01*
G37*
G36*
G01*
X126426000Y-97037000D02*
X126426000Y-97838000D01*
G75*
G02*
X126338000Y-97926000I-88000J0D01*
G01*
X126162000Y-97926000D01*
G75*
G02*
X126074000Y-97838000I0J88000D01*
G01*
X126074000Y-97037000D01*
G75*
G02*
X126162000Y-96949000I88000J0D01*
G01*
X126338000Y-96949000D01*
G75*
G02*
X126426000Y-97037000I0J-88000D01*
G01*
G37*
G36*
G01*
X125926000Y-97037000D02*
X125926000Y-97838000D01*
G75*
G02*
X125838000Y-97926000I-88000J0D01*
G01*
X125662000Y-97926000D01*
G75*
G02*
X125574000Y-97838000I0J88000D01*
G01*
X125574000Y-97037000D01*
G75*
G02*
X125662000Y-96949000I88000J0D01*
G01*
X125838000Y-96949000D01*
G75*
G02*
X125926000Y-97037000I0J-88000D01*
G01*
G37*
G36*
G01*
X125426000Y-97037000D02*
X125426000Y-97838000D01*
G75*
G02*
X125338000Y-97926000I-88000J0D01*
G01*
X125162000Y-97926000D01*
G75*
G02*
X125074000Y-97838000I0J88000D01*
G01*
X125074000Y-97037000D01*
G75*
G02*
X125162000Y-96949000I88000J0D01*
G01*
X125338000Y-96949000D01*
G75*
G02*
X125426000Y-97037000I0J-88000D01*
G01*
G37*
G36*
G01*
X124926000Y-97037000D02*
X124926000Y-97838000D01*
G75*
G02*
X124838000Y-97926000I-88000J0D01*
G01*
X124662000Y-97926000D01*
G75*
G02*
X124574000Y-97838000I0J88000D01*
G01*
X124574000Y-97037000D01*
G75*
G02*
X124662000Y-96949000I88000J0D01*
G01*
X124838000Y-96949000D01*
G75*
G02*
X124926000Y-97037000I0J-88000D01*
G01*
G37*
G36*
G01*
X124426000Y-97037000D02*
X124426000Y-97838000D01*
G75*
G02*
X124338000Y-97926000I-88000J0D01*
G01*
X124162000Y-97926000D01*
G75*
G02*
X124074000Y-97838000I0J88000D01*
G01*
X124074000Y-97037000D01*
G75*
G02*
X124162000Y-96949000I88000J0D01*
G01*
X124338000Y-96949000D01*
G75*
G02*
X124426000Y-97037000I0J-88000D01*
G01*
G37*
G36*
G01*
X123926000Y-97037000D02*
X123926000Y-97838000D01*
G75*
G02*
X123838000Y-97926000I-88000J0D01*
G01*
X123662000Y-97926000D01*
G75*
G02*
X123574000Y-97838000I0J88000D01*
G01*
X123574000Y-97037000D01*
G75*
G02*
X123662000Y-96949000I88000J0D01*
G01*
X123838000Y-96949000D01*
G75*
G02*
X123926000Y-97037000I0J-88000D01*
G01*
G37*
G36*
G01*
X123426000Y-97037000D02*
X123426000Y-97838000D01*
G75*
G02*
X123338000Y-97926000I-88000J0D01*
G01*
X123162000Y-97926000D01*
G75*
G02*
X123074000Y-97838000I0J88000D01*
G01*
X123074000Y-97037000D01*
G75*
G02*
X123162000Y-96949000I88000J0D01*
G01*
X123338000Y-96949000D01*
G75*
G02*
X123426000Y-97037000I0J-88000D01*
G01*
G37*
G36*
G01*
X122926000Y-97037000D02*
X122926000Y-97838000D01*
G75*
G02*
X122838000Y-97926000I-88000J0D01*
G01*
X122662000Y-97926000D01*
G75*
G02*
X122574000Y-97838000I0J88000D01*
G01*
X122574000Y-97037000D01*
G75*
G02*
X122662000Y-96949000I88000J0D01*
G01*
X122838000Y-96949000D01*
G75*
G02*
X122926000Y-97037000I0J-88000D01*
G01*
G37*
G36*
G01*
X122426000Y-97037000D02*
X122426000Y-97838000D01*
G75*
G02*
X122338000Y-97926000I-88000J0D01*
G01*
X122162000Y-97926000D01*
G75*
G02*
X122074000Y-97838000I0J88000D01*
G01*
X122074000Y-97037000D01*
G75*
G02*
X122162000Y-96949000I88000J0D01*
G01*
X122338000Y-96949000D01*
G75*
G02*
X122426000Y-97037000I0J-88000D01*
G01*
G37*
G36*
G01*
X122051000Y-96662000D02*
X122051000Y-96838000D01*
G75*
G02*
X121963000Y-96926000I-88000J0D01*
G01*
X121162000Y-96926000D01*
G75*
G02*
X121074000Y-96838000I0J88000D01*
G01*
X121074000Y-96662000D01*
G75*
G02*
X121162000Y-96574000I88000J0D01*
G01*
X121963000Y-96574000D01*
G75*
G02*
X122051000Y-96662000I0J-88000D01*
G01*
G37*
G36*
G01*
X122051000Y-96162000D02*
X122051000Y-96338000D01*
G75*
G02*
X121963000Y-96426000I-88000J0D01*
G01*
X121162000Y-96426000D01*
G75*
G02*
X121074000Y-96338000I0J88000D01*
G01*
X121074000Y-96162000D01*
G75*
G02*
X121162000Y-96074000I88000J0D01*
G01*
X121963000Y-96074000D01*
G75*
G02*
X122051000Y-96162000I0J-88000D01*
G01*
G37*
G36*
G01*
X122051000Y-95662000D02*
X122051000Y-95838000D01*
G75*
G02*
X121963000Y-95926000I-88000J0D01*
G01*
X121162000Y-95926000D01*
G75*
G02*
X121074000Y-95838000I0J88000D01*
G01*
X121074000Y-95662000D01*
G75*
G02*
X121162000Y-95574000I88000J0D01*
G01*
X121963000Y-95574000D01*
G75*
G02*
X122051000Y-95662000I0J-88000D01*
G01*
G37*
G36*
G01*
X122051000Y-95162000D02*
X122051000Y-95338000D01*
G75*
G02*
X121963000Y-95426000I-88000J0D01*
G01*
X121162000Y-95426000D01*
G75*
G02*
X121074000Y-95338000I0J88000D01*
G01*
X121074000Y-95162000D01*
G75*
G02*
X121162000Y-95074000I88000J0D01*
G01*
X121963000Y-95074000D01*
G75*
G02*
X122051000Y-95162000I0J-88000D01*
G01*
G37*
G36*
G01*
X122051000Y-94662000D02*
X122051000Y-94838000D01*
G75*
G02*
X121963000Y-94926000I-88000J0D01*
G01*
X121162000Y-94926000D01*
G75*
G02*
X121074000Y-94838000I0J88000D01*
G01*
X121074000Y-94662000D01*
G75*
G02*
X121162000Y-94574000I88000J0D01*
G01*
X121963000Y-94574000D01*
G75*
G02*
X122051000Y-94662000I0J-88000D01*
G01*
G37*
G36*
G01*
X122051000Y-94162000D02*
X122051000Y-94338000D01*
G75*
G02*
X121963000Y-94426000I-88000J0D01*
G01*
X121162000Y-94426000D01*
G75*
G02*
X121074000Y-94338000I0J88000D01*
G01*
X121074000Y-94162000D01*
G75*
G02*
X121162000Y-94074000I88000J0D01*
G01*
X121963000Y-94074000D01*
G75*
G02*
X122051000Y-94162000I0J-88000D01*
G01*
G37*
G36*
G01*
X122051000Y-93662000D02*
X122051000Y-93838000D01*
G75*
G02*
X121963000Y-93926000I-88000J0D01*
G01*
X121162000Y-93926000D01*
G75*
G02*
X121074000Y-93838000I0J88000D01*
G01*
X121074000Y-93662000D01*
G75*
G02*
X121162000Y-93574000I88000J0D01*
G01*
X121963000Y-93574000D01*
G75*
G02*
X122051000Y-93662000I0J-88000D01*
G01*
G37*
G36*
G01*
X122051000Y-93162000D02*
X122051000Y-93338000D01*
G75*
G02*
X121963000Y-93426000I-88000J0D01*
G01*
X121162000Y-93426000D01*
G75*
G02*
X121074000Y-93338000I0J88000D01*
G01*
X121074000Y-93162000D01*
G75*
G02*
X121162000Y-93074000I88000J0D01*
G01*
X121963000Y-93074000D01*
G75*
G02*
X122051000Y-93162000I0J-88000D01*
G01*
G37*
G36*
G01*
X122051000Y-92662000D02*
X122051000Y-92838000D01*
G75*
G02*
X121963000Y-92926000I-88000J0D01*
G01*
X121162000Y-92926000D01*
G75*
G02*
X121074000Y-92838000I0J88000D01*
G01*
X121074000Y-92662000D01*
G75*
G02*
X121162000Y-92574000I88000J0D01*
G01*
X121963000Y-92574000D01*
G75*
G02*
X122051000Y-92662000I0J-88000D01*
G01*
G37*
G36*
G01*
X122051000Y-92162000D02*
X122051000Y-92338000D01*
G75*
G02*
X121963000Y-92426000I-88000J0D01*
G01*
X121162000Y-92426000D01*
G75*
G02*
X121074000Y-92338000I0J88000D01*
G01*
X121074000Y-92162000D01*
G75*
G02*
X121162000Y-92074000I88000J0D01*
G01*
X121963000Y-92074000D01*
G75*
G02*
X122051000Y-92162000I0J-88000D01*
G01*
G37*
G36*
G01*
X122051000Y-91662000D02*
X122051000Y-91838000D01*
G75*
G02*
X121963000Y-91926000I-88000J0D01*
G01*
X121162000Y-91926000D01*
G75*
G02*
X121074000Y-91838000I0J88000D01*
G01*
X121074000Y-91662000D01*
G75*
G02*
X121162000Y-91574000I88000J0D01*
G01*
X121963000Y-91574000D01*
G75*
G02*
X122051000Y-91662000I0J-88000D01*
G01*
G37*
G36*
G01*
X122051000Y-91162000D02*
X122051000Y-91338000D01*
G75*
G02*
X121963000Y-91426000I-88000J0D01*
G01*
X121162000Y-91426000D01*
G75*
G02*
X121074000Y-91338000I0J88000D01*
G01*
X121074000Y-91162000D01*
G75*
G02*
X121162000Y-91074000I88000J0D01*
G01*
X121963000Y-91074000D01*
G75*
G02*
X122051000Y-91162000I0J-88000D01*
G01*
G37*
G36*
G01*
X122426000Y-90162000D02*
X122426000Y-90963000D01*
G75*
G02*
X122338000Y-91051000I-88000J0D01*
G01*
X122162000Y-91051000D01*
G75*
G02*
X122074000Y-90963000I0J88000D01*
G01*
X122074000Y-90162000D01*
G75*
G02*
X122162000Y-90074000I88000J0D01*
G01*
X122338000Y-90074000D01*
G75*
G02*
X122426000Y-90162000I0J-88000D01*
G01*
G37*
G36*
G01*
X122926000Y-90162000D02*
X122926000Y-90963000D01*
G75*
G02*
X122838000Y-91051000I-88000J0D01*
G01*
X122662000Y-91051000D01*
G75*
G02*
X122574000Y-90963000I0J88000D01*
G01*
X122574000Y-90162000D01*
G75*
G02*
X122662000Y-90074000I88000J0D01*
G01*
X122838000Y-90074000D01*
G75*
G02*
X122926000Y-90162000I0J-88000D01*
G01*
G37*
G36*
G01*
X123426000Y-90162000D02*
X123426000Y-90963000D01*
G75*
G02*
X123338000Y-91051000I-88000J0D01*
G01*
X123162000Y-91051000D01*
G75*
G02*
X123074000Y-90963000I0J88000D01*
G01*
X123074000Y-90162000D01*
G75*
G02*
X123162000Y-90074000I88000J0D01*
G01*
X123338000Y-90074000D01*
G75*
G02*
X123426000Y-90162000I0J-88000D01*
G01*
G37*
G36*
G01*
X123926000Y-90162000D02*
X123926000Y-90963000D01*
G75*
G02*
X123838000Y-91051000I-88000J0D01*
G01*
X123662000Y-91051000D01*
G75*
G02*
X123574000Y-90963000I0J88000D01*
G01*
X123574000Y-90162000D01*
G75*
G02*
X123662000Y-90074000I88000J0D01*
G01*
X123838000Y-90074000D01*
G75*
G02*
X123926000Y-90162000I0J-88000D01*
G01*
G37*
G36*
G01*
X124426000Y-90162000D02*
X124426000Y-90963000D01*
G75*
G02*
X124338000Y-91051000I-88000J0D01*
G01*
X124162000Y-91051000D01*
G75*
G02*
X124074000Y-90963000I0J88000D01*
G01*
X124074000Y-90162000D01*
G75*
G02*
X124162000Y-90074000I88000J0D01*
G01*
X124338000Y-90074000D01*
G75*
G02*
X124426000Y-90162000I0J-88000D01*
G01*
G37*
G36*
G01*
X124926000Y-90162000D02*
X124926000Y-90963000D01*
G75*
G02*
X124838000Y-91051000I-88000J0D01*
G01*
X124662000Y-91051000D01*
G75*
G02*
X124574000Y-90963000I0J88000D01*
G01*
X124574000Y-90162000D01*
G75*
G02*
X124662000Y-90074000I88000J0D01*
G01*
X124838000Y-90074000D01*
G75*
G02*
X124926000Y-90162000I0J-88000D01*
G01*
G37*
G36*
G01*
X125426000Y-90162000D02*
X125426000Y-90963000D01*
G75*
G02*
X125338000Y-91051000I-88000J0D01*
G01*
X125162000Y-91051000D01*
G75*
G02*
X125074000Y-90963000I0J88000D01*
G01*
X125074000Y-90162000D01*
G75*
G02*
X125162000Y-90074000I88000J0D01*
G01*
X125338000Y-90074000D01*
G75*
G02*
X125426000Y-90162000I0J-88000D01*
G01*
G37*
G36*
G01*
X125926000Y-90162000D02*
X125926000Y-90963000D01*
G75*
G02*
X125838000Y-91051000I-88000J0D01*
G01*
X125662000Y-91051000D01*
G75*
G02*
X125574000Y-90963000I0J88000D01*
G01*
X125574000Y-90162000D01*
G75*
G02*
X125662000Y-90074000I88000J0D01*
G01*
X125838000Y-90074000D01*
G75*
G02*
X125926000Y-90162000I0J-88000D01*
G01*
G37*
G36*
G01*
X126426000Y-90162000D02*
X126426000Y-90963000D01*
G75*
G02*
X126338000Y-91051000I-88000J0D01*
G01*
X126162000Y-91051000D01*
G75*
G02*
X126074000Y-90963000I0J88000D01*
G01*
X126074000Y-90162000D01*
G75*
G02*
X126162000Y-90074000I88000J0D01*
G01*
X126338000Y-90074000D01*
G75*
G02*
X126426000Y-90162000I0J-88000D01*
G01*
G37*
G36*
G01*
X126926000Y-90162000D02*
X126926000Y-90963000D01*
G75*
G02*
X126838000Y-91051000I-88000J0D01*
G01*
X126662000Y-91051000D01*
G75*
G02*
X126574000Y-90963000I0J88000D01*
G01*
X126574000Y-90162000D01*
G75*
G02*
X126662000Y-90074000I88000J0D01*
G01*
X126838000Y-90074000D01*
G75*
G02*
X126926000Y-90162000I0J-88000D01*
G01*
G37*
G36*
G01*
X127426000Y-90162000D02*
X127426000Y-90963000D01*
G75*
G02*
X127338000Y-91051000I-88000J0D01*
G01*
X127162000Y-91051000D01*
G75*
G02*
X127074000Y-90963000I0J88000D01*
G01*
X127074000Y-90162000D01*
G75*
G02*
X127162000Y-90074000I88000J0D01*
G01*
X127338000Y-90074000D01*
G75*
G02*
X127426000Y-90162000I0J-88000D01*
G01*
G37*
G36*
G01*
X127926000Y-90162000D02*
X127926000Y-90963000D01*
G75*
G02*
X127838000Y-91051000I-88000J0D01*
G01*
X127662000Y-91051000D01*
G75*
G02*
X127574000Y-90963000I0J88000D01*
G01*
X127574000Y-90162000D01*
G75*
G02*
X127662000Y-90074000I88000J0D01*
G01*
X127838000Y-90074000D01*
G75*
G02*
X127926000Y-90162000I0J-88000D01*
G01*
G37*
G36*
G01*
X128926000Y-91162000D02*
X128926000Y-91338000D01*
G75*
G02*
X128838000Y-91426000I-88000J0D01*
G01*
X128037000Y-91426000D01*
G75*
G02*
X127949000Y-91338000I0J88000D01*
G01*
X127949000Y-91162000D01*
G75*
G02*
X128037000Y-91074000I88000J0D01*
G01*
X128838000Y-91074000D01*
G75*
G02*
X128926000Y-91162000I0J-88000D01*
G01*
G37*
G36*
G01*
X128926000Y-91662000D02*
X128926000Y-91838000D01*
G75*
G02*
X128838000Y-91926000I-88000J0D01*
G01*
X128037000Y-91926000D01*
G75*
G02*
X127949000Y-91838000I0J88000D01*
G01*
X127949000Y-91662000D01*
G75*
G02*
X128037000Y-91574000I88000J0D01*
G01*
X128838000Y-91574000D01*
G75*
G02*
X128926000Y-91662000I0J-88000D01*
G01*
G37*
G36*
G01*
X128926000Y-92162000D02*
X128926000Y-92338000D01*
G75*
G02*
X128838000Y-92426000I-88000J0D01*
G01*
X128037000Y-92426000D01*
G75*
G02*
X127949000Y-92338000I0J88000D01*
G01*
X127949000Y-92162000D01*
G75*
G02*
X128037000Y-92074000I88000J0D01*
G01*
X128838000Y-92074000D01*
G75*
G02*
X128926000Y-92162000I0J-88000D01*
G01*
G37*
G36*
G01*
X128926000Y-92662000D02*
X128926000Y-92838000D01*
G75*
G02*
X128838000Y-92926000I-88000J0D01*
G01*
X128037000Y-92926000D01*
G75*
G02*
X127949000Y-92838000I0J88000D01*
G01*
X127949000Y-92662000D01*
G75*
G02*
X128037000Y-92574000I88000J0D01*
G01*
X128838000Y-92574000D01*
G75*
G02*
X128926000Y-92662000I0J-88000D01*
G01*
G37*
G36*
G01*
X128926000Y-93162000D02*
X128926000Y-93338000D01*
G75*
G02*
X128838000Y-93426000I-88000J0D01*
G01*
X128037000Y-93426000D01*
G75*
G02*
X127949000Y-93338000I0J88000D01*
G01*
X127949000Y-93162000D01*
G75*
G02*
X128037000Y-93074000I88000J0D01*
G01*
X128838000Y-93074000D01*
G75*
G02*
X128926000Y-93162000I0J-88000D01*
G01*
G37*
G36*
G01*
X128926000Y-93662000D02*
X128926000Y-93838000D01*
G75*
G02*
X128838000Y-93926000I-88000J0D01*
G01*
X128037000Y-93926000D01*
G75*
G02*
X127949000Y-93838000I0J88000D01*
G01*
X127949000Y-93662000D01*
G75*
G02*
X128037000Y-93574000I88000J0D01*
G01*
X128838000Y-93574000D01*
G75*
G02*
X128926000Y-93662000I0J-88000D01*
G01*
G37*
G36*
G01*
X128926000Y-94162000D02*
X128926000Y-94338000D01*
G75*
G02*
X128838000Y-94426000I-88000J0D01*
G01*
X128037000Y-94426000D01*
G75*
G02*
X127949000Y-94338000I0J88000D01*
G01*
X127949000Y-94162000D01*
G75*
G02*
X128037000Y-94074000I88000J0D01*
G01*
X128838000Y-94074000D01*
G75*
G02*
X128926000Y-94162000I0J-88000D01*
G01*
G37*
G36*
G01*
X128926000Y-94662000D02*
X128926000Y-94838000D01*
G75*
G02*
X128838000Y-94926000I-88000J0D01*
G01*
X128037000Y-94926000D01*
G75*
G02*
X127949000Y-94838000I0J88000D01*
G01*
X127949000Y-94662000D01*
G75*
G02*
X128037000Y-94574000I88000J0D01*
G01*
X128838000Y-94574000D01*
G75*
G02*
X128926000Y-94662000I0J-88000D01*
G01*
G37*
G36*
G01*
X128926000Y-95162000D02*
X128926000Y-95338000D01*
G75*
G02*
X128838000Y-95426000I-88000J0D01*
G01*
X128037000Y-95426000D01*
G75*
G02*
X127949000Y-95338000I0J88000D01*
G01*
X127949000Y-95162000D01*
G75*
G02*
X128037000Y-95074000I88000J0D01*
G01*
X128838000Y-95074000D01*
G75*
G02*
X128926000Y-95162000I0J-88000D01*
G01*
G37*
G36*
G01*
X128926000Y-95662000D02*
X128926000Y-95838000D01*
G75*
G02*
X128838000Y-95926000I-88000J0D01*
G01*
X128037000Y-95926000D01*
G75*
G02*
X127949000Y-95838000I0J88000D01*
G01*
X127949000Y-95662000D01*
G75*
G02*
X128037000Y-95574000I88000J0D01*
G01*
X128838000Y-95574000D01*
G75*
G02*
X128926000Y-95662000I0J-88000D01*
G01*
G37*
G36*
G01*
X128926000Y-96162000D02*
X128926000Y-96338000D01*
G75*
G02*
X128838000Y-96426000I-88000J0D01*
G01*
X128037000Y-96426000D01*
G75*
G02*
X127949000Y-96338000I0J88000D01*
G01*
X127949000Y-96162000D01*
G75*
G02*
X128037000Y-96074000I88000J0D01*
G01*
X128838000Y-96074000D01*
G75*
G02*
X128926000Y-96162000I0J-88000D01*
G01*
G37*
G36*
G01*
X128926000Y-96662000D02*
X128926000Y-96838000D01*
G75*
G02*
X128838000Y-96926000I-88000J0D01*
G01*
X128037000Y-96926000D01*
G75*
G02*
X127949000Y-96838000I0J88000D01*
G01*
X127949000Y-96662000D01*
G75*
G02*
X128037000Y-96574000I88000J0D01*
G01*
X128838000Y-96574000D01*
G75*
G02*
X128926000Y-96662000I0J-88000D01*
G01*
G37*
G36*
G01*
X122840717Y-87066448D02*
X122163552Y-86389283D01*
G75*
G02*
X122163552Y-86004373I192455J192455D01*
G01*
X122663941Y-85503984D01*
G75*
G02*
X123048851Y-85503984I192455J-192455D01*
G01*
X123726016Y-86181149D01*
G75*
G02*
X123726016Y-86566059I-192455J-192455D01*
G01*
X123225627Y-87066448D01*
G75*
G02*
X122840717Y-87066448I-192455J192455D01*
G01*
G37*
G36*
G01*
X121391149Y-88516016D02*
X120713984Y-87838851D01*
G75*
G02*
X120713984Y-87453941I192455J192455D01*
G01*
X121214373Y-86953552D01*
G75*
G02*
X121599283Y-86953552I192455J-192455D01*
G01*
X122276448Y-87630717D01*
G75*
G02*
X122276448Y-88015627I-192455J-192455D01*
G01*
X121776059Y-88516016D01*
G75*
G02*
X121391149Y-88516016I-192455J192455D01*
G01*
G37*
D15*
G36*
X104775165Y-111216452D02*
G01*
X104776000Y-111218078D01*
X104776000Y-111861922D01*
X104775000Y-111863654D01*
X104773000Y-111863654D01*
X104772010Y-111862118D01*
X104769628Y-111837931D01*
X104762628Y-111814856D01*
X104751263Y-111793592D01*
X104735968Y-111774955D01*
X104717331Y-111759660D01*
X104696067Y-111748295D01*
X104672992Y-111741295D01*
X104649001Y-111738932D01*
X104625010Y-111741295D01*
X104601935Y-111748295D01*
X104580671Y-111759660D01*
X104562034Y-111774955D01*
X104546676Y-111793670D01*
X104543784Y-111797998D01*
X104541990Y-111798883D01*
X104540327Y-111797772D01*
X104540273Y-111796122D01*
X104580350Y-111699365D01*
X104601347Y-111593808D01*
X104601347Y-111486192D01*
X104580350Y-111380635D01*
X104540273Y-111283878D01*
X104540534Y-111281895D01*
X104542382Y-111281130D01*
X104543784Y-111282002D01*
X104546676Y-111286330D01*
X104562035Y-111305045D01*
X104580672Y-111320340D01*
X104601935Y-111331705D01*
X104625010Y-111338705D01*
X104649002Y-111341068D01*
X104672993Y-111338705D01*
X104696068Y-111331705D01*
X104717331Y-111320340D01*
X104735968Y-111305044D01*
X104751263Y-111286407D01*
X104762628Y-111265144D01*
X104769628Y-111242069D01*
X104772010Y-111217882D01*
X104773175Y-111216256D01*
X104775165Y-111216452D01*
G37*
G36*
X104227906Y-110790824D02*
G01*
X104228671Y-110792672D01*
X104227631Y-110794175D01*
X104211609Y-110802738D01*
X104192972Y-110818033D01*
X104177677Y-110836670D01*
X104166312Y-110857934D01*
X104159312Y-110881009D01*
X104156949Y-110905000D01*
X104159312Y-110928991D01*
X104166312Y-110952066D01*
X104177677Y-110973330D01*
X104192972Y-110991967D01*
X104211609Y-111007262D01*
X104227631Y-111015825D01*
X104228687Y-111017524D01*
X104227744Y-111019287D01*
X104225923Y-111019437D01*
X104214365Y-111014650D01*
X104108808Y-110993653D01*
X104001192Y-110993653D01*
X103895635Y-111014650D01*
X103884077Y-111019437D01*
X103882094Y-111019176D01*
X103881329Y-111017328D01*
X103882369Y-111015825D01*
X103898391Y-111007262D01*
X103917028Y-110991967D01*
X103932323Y-110973330D01*
X103943688Y-110952066D01*
X103950688Y-110928991D01*
X103953051Y-110905000D01*
X103950688Y-110881009D01*
X103943688Y-110857934D01*
X103932323Y-110836670D01*
X103917028Y-110818033D01*
X103898391Y-110802738D01*
X103882369Y-110794175D01*
X103881313Y-110792476D01*
X103882256Y-110790713D01*
X103884077Y-110790563D01*
X103895635Y-110795350D01*
X104001192Y-110816347D01*
X104108808Y-110816347D01*
X104214365Y-110795350D01*
X104225923Y-110790563D01*
X104227906Y-110790824D01*
G37*
G36*
X105583105Y-110755534D02*
G01*
X105583870Y-110757382D01*
X105582998Y-110758784D01*
X105578670Y-110761676D01*
X105559955Y-110777035D01*
X105544660Y-110795672D01*
X105533295Y-110816935D01*
X105526295Y-110840010D01*
X105523932Y-110864001D01*
X105526295Y-110887993D01*
X105533295Y-110911068D01*
X105544660Y-110932331D01*
X105559956Y-110950968D01*
X105578593Y-110966263D01*
X105599856Y-110977628D01*
X105622931Y-110984628D01*
X105647118Y-110987010D01*
X105648744Y-110988175D01*
X105648548Y-110990165D01*
X105646922Y-110991000D01*
X105003078Y-110991000D01*
X105001346Y-110990000D01*
X105001346Y-110988000D01*
X105002882Y-110987010D01*
X105027069Y-110984628D01*
X105050144Y-110977628D01*
X105071408Y-110966263D01*
X105090045Y-110950968D01*
X105105340Y-110932331D01*
X105116705Y-110911067D01*
X105123705Y-110887992D01*
X105126068Y-110864001D01*
X105123705Y-110840010D01*
X105116705Y-110816935D01*
X105105340Y-110795671D01*
X105090045Y-110777034D01*
X105071330Y-110761676D01*
X105067002Y-110758784D01*
X105066117Y-110756990D01*
X105067228Y-110755327D01*
X105068878Y-110755273D01*
X105165635Y-110795350D01*
X105271192Y-110816347D01*
X105378808Y-110816347D01*
X105484365Y-110795350D01*
X105581122Y-110755273D01*
X105583105Y-110755534D01*
G37*
G36*
X104804287Y-110097256D02*
G01*
X104804437Y-110099077D01*
X104799650Y-110110635D01*
X104778653Y-110216192D01*
X104778653Y-110323808D01*
X104799650Y-110429365D01*
X104804437Y-110440923D01*
X104804176Y-110442906D01*
X104802328Y-110443671D01*
X104800825Y-110442631D01*
X104792262Y-110426609D01*
X104776967Y-110407972D01*
X104758330Y-110392677D01*
X104737066Y-110381312D01*
X104713991Y-110374312D01*
X104690000Y-110371949D01*
X104666009Y-110374312D01*
X104642934Y-110381312D01*
X104621670Y-110392677D01*
X104603033Y-110407972D01*
X104587738Y-110426609D01*
X104579175Y-110442631D01*
X104577476Y-110443687D01*
X104575713Y-110442744D01*
X104575563Y-110440923D01*
X104580350Y-110429365D01*
X104601347Y-110323808D01*
X104601347Y-110216192D01*
X104580350Y-110110635D01*
X104575563Y-110099077D01*
X104575824Y-110097094D01*
X104577672Y-110096329D01*
X104579175Y-110097369D01*
X104587738Y-110113391D01*
X104603033Y-110132028D01*
X104621670Y-110147323D01*
X104642934Y-110158688D01*
X104666009Y-110165688D01*
X104690000Y-110168051D01*
X104713991Y-110165688D01*
X104737066Y-110158688D01*
X104758330Y-110147323D01*
X104776967Y-110132028D01*
X104792262Y-110113391D01*
X104800825Y-110097369D01*
X104802524Y-110096313D01*
X104804287Y-110097256D01*
G37*
G36*
X105497906Y-109520824D02*
G01*
X105498671Y-109522672D01*
X105497631Y-109524175D01*
X105481609Y-109532738D01*
X105462972Y-109548033D01*
X105447677Y-109566670D01*
X105436312Y-109587934D01*
X105429312Y-109611009D01*
X105426949Y-109635000D01*
X105429312Y-109658991D01*
X105436312Y-109682066D01*
X105447677Y-109703330D01*
X105462972Y-109721967D01*
X105481609Y-109737262D01*
X105497631Y-109745825D01*
X105498687Y-109747524D01*
X105497744Y-109749287D01*
X105495923Y-109749437D01*
X105484365Y-109744650D01*
X105378808Y-109723653D01*
X105271192Y-109723653D01*
X105165635Y-109744650D01*
X105154077Y-109749437D01*
X105152094Y-109749176D01*
X105151329Y-109747328D01*
X105152369Y-109745825D01*
X105168391Y-109737262D01*
X105187028Y-109721967D01*
X105202323Y-109703330D01*
X105213688Y-109682066D01*
X105220688Y-109658991D01*
X105223051Y-109635000D01*
X105220688Y-109611009D01*
X105213688Y-109587934D01*
X105202323Y-109566670D01*
X105187028Y-109548033D01*
X105168391Y-109532738D01*
X105152369Y-109524175D01*
X105151313Y-109522476D01*
X105152256Y-109520713D01*
X105154077Y-109520563D01*
X105165635Y-109525350D01*
X105271192Y-109546347D01*
X105378808Y-109546347D01*
X105484365Y-109525350D01*
X105495923Y-109520563D01*
X105497906Y-109520824D01*
G37*
G36*
X104227906Y-109520824D02*
G01*
X104228671Y-109522672D01*
X104227631Y-109524175D01*
X104211609Y-109532738D01*
X104192972Y-109548033D01*
X104177677Y-109566670D01*
X104166312Y-109587934D01*
X104159312Y-109611009D01*
X104156949Y-109635000D01*
X104159312Y-109658991D01*
X104166312Y-109682066D01*
X104177677Y-109703330D01*
X104192972Y-109721967D01*
X104211609Y-109737262D01*
X104227631Y-109745825D01*
X104228687Y-109747524D01*
X104227744Y-109749287D01*
X104225923Y-109749437D01*
X104214365Y-109744650D01*
X104108808Y-109723653D01*
X104001192Y-109723653D01*
X103895635Y-109744650D01*
X103884077Y-109749437D01*
X103882094Y-109749176D01*
X103881329Y-109747328D01*
X103882369Y-109745825D01*
X103898391Y-109737262D01*
X103917028Y-109721967D01*
X103932323Y-109703330D01*
X103943688Y-109682066D01*
X103950688Y-109658991D01*
X103953051Y-109635000D01*
X103950688Y-109611009D01*
X103943688Y-109587934D01*
X103932323Y-109566670D01*
X103917028Y-109548033D01*
X103898391Y-109532738D01*
X103882369Y-109524175D01*
X103881313Y-109522476D01*
X103882256Y-109520713D01*
X103884077Y-109520563D01*
X103895635Y-109525350D01*
X104001192Y-109546347D01*
X104108808Y-109546347D01*
X104214365Y-109525350D01*
X104225923Y-109520563D01*
X104227906Y-109520824D01*
G37*
G36*
X104804287Y-108827256D02*
G01*
X104804437Y-108829077D01*
X104799650Y-108840635D01*
X104778653Y-108946192D01*
X104778653Y-109053808D01*
X104799650Y-109159365D01*
X104804437Y-109170923D01*
X104804176Y-109172906D01*
X104802328Y-109173671D01*
X104800825Y-109172631D01*
X104792262Y-109156609D01*
X104776967Y-109137972D01*
X104758330Y-109122677D01*
X104737066Y-109111312D01*
X104713991Y-109104312D01*
X104690000Y-109101949D01*
X104666009Y-109104312D01*
X104642934Y-109111312D01*
X104621670Y-109122677D01*
X104603033Y-109137972D01*
X104587738Y-109156609D01*
X104579175Y-109172631D01*
X104577476Y-109173687D01*
X104575713Y-109172744D01*
X104575563Y-109170923D01*
X104580350Y-109159365D01*
X104601347Y-109053808D01*
X104601347Y-108946192D01*
X104580350Y-108840635D01*
X104575563Y-108829077D01*
X104575824Y-108827094D01*
X104577672Y-108826329D01*
X104579175Y-108827369D01*
X104587738Y-108843391D01*
X104603033Y-108862028D01*
X104621670Y-108877323D01*
X104642934Y-108888688D01*
X104666009Y-108895688D01*
X104690000Y-108898051D01*
X104713991Y-108895688D01*
X104737066Y-108888688D01*
X104758330Y-108877323D01*
X104776967Y-108862028D01*
X104792262Y-108843391D01*
X104800825Y-108827369D01*
X104802524Y-108826313D01*
X104804287Y-108827256D01*
G37*
G36*
X105497906Y-108250824D02*
G01*
X105498671Y-108252672D01*
X105497631Y-108254175D01*
X105481609Y-108262738D01*
X105462972Y-108278033D01*
X105447677Y-108296670D01*
X105436312Y-108317934D01*
X105429312Y-108341009D01*
X105426949Y-108365000D01*
X105429312Y-108388991D01*
X105436312Y-108412066D01*
X105447677Y-108433330D01*
X105462972Y-108451967D01*
X105481609Y-108467262D01*
X105497631Y-108475825D01*
X105498687Y-108477524D01*
X105497744Y-108479287D01*
X105495923Y-108479437D01*
X105484365Y-108474650D01*
X105378808Y-108453653D01*
X105271192Y-108453653D01*
X105165635Y-108474650D01*
X105154077Y-108479437D01*
X105152094Y-108479176D01*
X105151329Y-108477328D01*
X105152369Y-108475825D01*
X105168391Y-108467262D01*
X105187028Y-108451967D01*
X105202323Y-108433330D01*
X105213688Y-108412066D01*
X105220688Y-108388991D01*
X105223051Y-108365000D01*
X105220688Y-108341009D01*
X105213688Y-108317934D01*
X105202323Y-108296670D01*
X105187028Y-108278033D01*
X105168391Y-108262738D01*
X105152369Y-108254175D01*
X105151313Y-108252476D01*
X105152256Y-108250713D01*
X105154077Y-108250563D01*
X105165635Y-108255350D01*
X105271192Y-108276347D01*
X105378808Y-108276347D01*
X105484365Y-108255350D01*
X105495923Y-108250563D01*
X105497906Y-108250824D01*
G37*
G36*
X104227906Y-108250824D02*
G01*
X104228671Y-108252672D01*
X104227631Y-108254175D01*
X104211609Y-108262738D01*
X104192972Y-108278033D01*
X104177677Y-108296670D01*
X104166312Y-108317934D01*
X104159312Y-108341009D01*
X104156949Y-108365000D01*
X104159312Y-108388991D01*
X104166312Y-108412066D01*
X104177677Y-108433330D01*
X104192972Y-108451967D01*
X104211609Y-108467262D01*
X104227631Y-108475825D01*
X104228687Y-108477524D01*
X104227744Y-108479287D01*
X104225923Y-108479437D01*
X104214365Y-108474650D01*
X104108808Y-108453653D01*
X104001192Y-108453653D01*
X103895635Y-108474650D01*
X103884077Y-108479437D01*
X103882094Y-108479176D01*
X103881329Y-108477328D01*
X103882369Y-108475825D01*
X103898391Y-108467262D01*
X103917028Y-108451967D01*
X103932323Y-108433330D01*
X103943688Y-108412066D01*
X103950688Y-108388991D01*
X103953051Y-108365000D01*
X103950688Y-108341009D01*
X103943688Y-108317934D01*
X103932323Y-108296670D01*
X103917028Y-108278033D01*
X103898391Y-108262738D01*
X103882369Y-108254175D01*
X103881313Y-108252476D01*
X103882256Y-108250713D01*
X103884077Y-108250563D01*
X103895635Y-108255350D01*
X104001192Y-108276347D01*
X104108808Y-108276347D01*
X104214365Y-108255350D01*
X104225923Y-108250563D01*
X104227906Y-108250824D01*
G37*
G36*
X104804287Y-107557256D02*
G01*
X104804437Y-107559077D01*
X104799650Y-107570635D01*
X104778653Y-107676192D01*
X104778653Y-107783808D01*
X104799650Y-107889365D01*
X104804437Y-107900923D01*
X104804176Y-107902906D01*
X104802328Y-107903671D01*
X104800825Y-107902631D01*
X104792262Y-107886609D01*
X104776967Y-107867972D01*
X104758330Y-107852677D01*
X104737066Y-107841312D01*
X104713991Y-107834312D01*
X104690000Y-107831949D01*
X104666009Y-107834312D01*
X104642934Y-107841312D01*
X104621670Y-107852677D01*
X104603033Y-107867972D01*
X104587738Y-107886609D01*
X104579175Y-107902631D01*
X104577476Y-107903687D01*
X104575713Y-107902744D01*
X104575563Y-107900923D01*
X104580350Y-107889365D01*
X104601347Y-107783808D01*
X104601347Y-107676192D01*
X104580350Y-107570635D01*
X104575563Y-107559077D01*
X104575824Y-107557094D01*
X104577672Y-107556329D01*
X104579175Y-107557369D01*
X104587738Y-107573391D01*
X104603033Y-107592028D01*
X104621670Y-107607323D01*
X104642934Y-107618688D01*
X104666009Y-107625688D01*
X104690000Y-107628051D01*
X104713991Y-107625688D01*
X104737066Y-107618688D01*
X104758330Y-107607323D01*
X104776967Y-107592028D01*
X104792262Y-107573391D01*
X104800825Y-107557369D01*
X104802524Y-107556313D01*
X104804287Y-107557256D01*
G37*
G36*
X105497906Y-106980824D02*
G01*
X105498671Y-106982672D01*
X105497631Y-106984175D01*
X105481609Y-106992738D01*
X105462972Y-107008033D01*
X105447677Y-107026670D01*
X105436312Y-107047934D01*
X105429312Y-107071009D01*
X105426949Y-107095000D01*
X105429312Y-107118991D01*
X105436312Y-107142066D01*
X105447677Y-107163330D01*
X105462972Y-107181967D01*
X105481609Y-107197262D01*
X105497631Y-107205825D01*
X105498687Y-107207524D01*
X105497744Y-107209287D01*
X105495923Y-107209437D01*
X105484365Y-107204650D01*
X105378808Y-107183653D01*
X105271192Y-107183653D01*
X105165635Y-107204650D01*
X105154077Y-107209437D01*
X105152094Y-107209176D01*
X105151329Y-107207328D01*
X105152369Y-107205825D01*
X105168391Y-107197262D01*
X105187028Y-107181967D01*
X105202323Y-107163330D01*
X105213688Y-107142066D01*
X105220688Y-107118991D01*
X105223051Y-107095000D01*
X105220688Y-107071009D01*
X105213688Y-107047934D01*
X105202323Y-107026670D01*
X105187028Y-107008033D01*
X105168391Y-106992738D01*
X105152369Y-106984175D01*
X105151313Y-106982476D01*
X105152256Y-106980713D01*
X105154077Y-106980563D01*
X105165635Y-106985350D01*
X105271192Y-107006347D01*
X105378808Y-107006347D01*
X105484365Y-106985350D01*
X105495923Y-106980563D01*
X105497906Y-106980824D01*
G37*
G36*
X104227906Y-106980824D02*
G01*
X104228671Y-106982672D01*
X104227631Y-106984175D01*
X104211609Y-106992738D01*
X104192972Y-107008033D01*
X104177677Y-107026670D01*
X104166312Y-107047934D01*
X104159312Y-107071009D01*
X104156949Y-107095000D01*
X104159312Y-107118991D01*
X104166312Y-107142066D01*
X104177677Y-107163330D01*
X104192972Y-107181967D01*
X104211609Y-107197262D01*
X104227631Y-107205825D01*
X104228687Y-107207524D01*
X104227744Y-107209287D01*
X104225923Y-107209437D01*
X104214365Y-107204650D01*
X104108808Y-107183653D01*
X104001192Y-107183653D01*
X103895635Y-107204650D01*
X103884077Y-107209437D01*
X103882094Y-107209176D01*
X103881329Y-107207328D01*
X103882369Y-107205825D01*
X103898391Y-107197262D01*
X103917028Y-107181967D01*
X103932323Y-107163330D01*
X103943688Y-107142066D01*
X103950688Y-107118991D01*
X103953051Y-107095000D01*
X103950688Y-107071009D01*
X103943688Y-107047934D01*
X103932323Y-107026670D01*
X103917028Y-107008033D01*
X103898391Y-106992738D01*
X103882369Y-106984175D01*
X103881313Y-106982476D01*
X103882256Y-106980713D01*
X103884077Y-106980563D01*
X103895635Y-106985350D01*
X104001192Y-107006347D01*
X104108808Y-107006347D01*
X104214365Y-106985350D01*
X104225923Y-106980563D01*
X104227906Y-106980824D01*
G37*
G36*
X104804287Y-106287256D02*
G01*
X104804437Y-106289077D01*
X104799650Y-106300635D01*
X104778653Y-106406192D01*
X104778653Y-106513808D01*
X104799650Y-106619365D01*
X104804437Y-106630923D01*
X104804176Y-106632906D01*
X104802328Y-106633671D01*
X104800825Y-106632631D01*
X104792262Y-106616609D01*
X104776967Y-106597972D01*
X104758330Y-106582677D01*
X104737066Y-106571312D01*
X104713991Y-106564312D01*
X104690000Y-106561949D01*
X104666009Y-106564312D01*
X104642934Y-106571312D01*
X104621670Y-106582677D01*
X104603033Y-106597972D01*
X104587738Y-106616609D01*
X104579175Y-106632631D01*
X104577476Y-106633687D01*
X104575713Y-106632744D01*
X104575563Y-106630923D01*
X104580350Y-106619365D01*
X104601347Y-106513808D01*
X104601347Y-106406192D01*
X104580350Y-106300635D01*
X104575563Y-106289077D01*
X104575824Y-106287094D01*
X104577672Y-106286329D01*
X104579175Y-106287369D01*
X104587738Y-106303391D01*
X104603033Y-106322028D01*
X104621670Y-106337323D01*
X104642934Y-106348688D01*
X104666009Y-106355688D01*
X104690000Y-106358051D01*
X104713991Y-106355688D01*
X104737066Y-106348688D01*
X104758330Y-106337323D01*
X104776967Y-106322028D01*
X104792262Y-106303391D01*
X104800825Y-106287369D01*
X104802524Y-106286313D01*
X104804287Y-106287256D01*
G37*
G36*
X108157564Y-98600000D02*
G01*
X108157564Y-98602000D01*
X108156028Y-98602990D01*
X108131841Y-98605372D01*
X108108766Y-98612372D01*
X108087502Y-98623737D01*
X108068865Y-98639032D01*
X108053570Y-98657669D01*
X108042205Y-98678933D01*
X108035205Y-98702008D01*
X108032842Y-98725999D01*
X108035205Y-98749990D01*
X108042205Y-98773065D01*
X108053570Y-98794329D01*
X108068835Y-98812930D01*
X108094806Y-98832190D01*
X108095602Y-98834025D01*
X108094411Y-98835631D01*
X108092672Y-98835560D01*
X108050090Y-98812799D01*
X107947100Y-98781557D01*
X107839906Y-98771000D01*
X107304001Y-98771000D01*
X107302269Y-98770000D01*
X107302269Y-98768000D01*
X107303805Y-98767010D01*
X107327992Y-98764628D01*
X107351067Y-98757628D01*
X107372331Y-98746263D01*
X107390968Y-98730968D01*
X107406263Y-98712331D01*
X107417628Y-98691067D01*
X107424628Y-98667992D01*
X107427000Y-98643907D01*
X107427000Y-98601000D01*
X107428000Y-98599268D01*
X107429000Y-98599000D01*
X108155832Y-98599000D01*
X108157564Y-98600000D01*
G37*
G36*
X122394555Y-90072010D02*
G01*
X122405551Y-90073093D01*
X122405936Y-90073169D01*
X122410610Y-90074587D01*
X122410972Y-90074737D01*
X122415273Y-90077036D01*
X122415599Y-90077254D01*
X122421896Y-90082421D01*
X122442023Y-90095870D01*
X122464297Y-90105096D01*
X122487948Y-90109800D01*
X122512054Y-90109800D01*
X122535704Y-90105095D01*
X122557978Y-90095869D01*
X122578104Y-90082421D01*
X122584401Y-90077254D01*
X122584727Y-90077036D01*
X122589028Y-90074737D01*
X122589390Y-90074587D01*
X122594064Y-90073169D01*
X122594449Y-90073093D01*
X122605445Y-90072010D01*
X122605641Y-90072000D01*
X122662000Y-90072000D01*
X122663732Y-90073000D01*
X122663732Y-90075000D01*
X122662196Y-90075990D01*
X122645227Y-90077661D01*
X122629093Y-90082556D01*
X122614226Y-90090502D01*
X122601196Y-90101196D01*
X122590502Y-90114226D01*
X122582556Y-90129093D01*
X122577661Y-90145227D01*
X122576000Y-90162094D01*
X122576000Y-90962906D01*
X122577661Y-90979773D01*
X122582556Y-90995907D01*
X122590502Y-91010774D01*
X122601196Y-91023804D01*
X122614226Y-91034498D01*
X122629093Y-91042444D01*
X122645227Y-91047339D01*
X122662094Y-91049000D01*
X122837906Y-91049000D01*
X122854773Y-91047339D01*
X122870907Y-91042444D01*
X122885774Y-91034498D01*
X122898804Y-91023804D01*
X122909498Y-91010774D01*
X122917444Y-90995907D01*
X122922339Y-90979773D01*
X122924000Y-90962906D01*
X122924000Y-90162094D01*
X122922339Y-90145227D01*
X122917444Y-90129093D01*
X122909498Y-90114226D01*
X122898804Y-90101196D01*
X122885774Y-90090502D01*
X122870907Y-90082556D01*
X122854773Y-90077661D01*
X122837804Y-90075990D01*
X122836178Y-90074825D01*
X122836374Y-90072835D01*
X122838000Y-90072000D01*
X122894359Y-90072000D01*
X122894555Y-90072010D01*
X122905551Y-90073093D01*
X122905936Y-90073169D01*
X122910610Y-90074587D01*
X122910972Y-90074737D01*
X122915273Y-90077036D01*
X122915599Y-90077254D01*
X122921896Y-90082421D01*
X122942023Y-90095870D01*
X122964297Y-90105096D01*
X122987948Y-90109800D01*
X123012054Y-90109800D01*
X123035704Y-90105095D01*
X123057978Y-90095869D01*
X123078104Y-90082421D01*
X123084401Y-90077254D01*
X123084727Y-90077036D01*
X123089028Y-90074737D01*
X123089390Y-90074587D01*
X123094064Y-90073169D01*
X123094449Y-90073093D01*
X123105445Y-90072010D01*
X123105641Y-90072000D01*
X123162000Y-90072000D01*
X123163732Y-90073000D01*
X123163732Y-90075000D01*
X123162196Y-90075990D01*
X123145227Y-90077661D01*
X123129093Y-90082556D01*
X123114226Y-90090502D01*
X123101196Y-90101196D01*
X123090502Y-90114226D01*
X123082556Y-90129093D01*
X123077661Y-90145227D01*
X123076000Y-90162094D01*
X123076000Y-90962906D01*
X123077661Y-90979773D01*
X123082556Y-90995907D01*
X123090502Y-91010774D01*
X123101196Y-91023804D01*
X123114226Y-91034498D01*
X123129093Y-91042444D01*
X123145227Y-91047339D01*
X123162094Y-91049000D01*
X123337906Y-91049000D01*
X123354773Y-91047339D01*
X123370907Y-91042444D01*
X123385774Y-91034498D01*
X123398804Y-91023804D01*
X123409498Y-91010774D01*
X123417444Y-90995907D01*
X123422339Y-90979773D01*
X123424000Y-90962906D01*
X123424000Y-90162094D01*
X123422339Y-90145227D01*
X123417444Y-90129093D01*
X123409498Y-90114226D01*
X123398804Y-90101196D01*
X123385774Y-90090502D01*
X123370907Y-90082556D01*
X123354773Y-90077661D01*
X123337804Y-90075990D01*
X123336178Y-90074825D01*
X123336374Y-90072835D01*
X123338000Y-90072000D01*
X123394359Y-90072000D01*
X123394555Y-90072010D01*
X123405551Y-90073093D01*
X123405936Y-90073169D01*
X123410610Y-90074587D01*
X123410972Y-90074737D01*
X123415273Y-90077036D01*
X123415599Y-90077254D01*
X123421896Y-90082421D01*
X123442023Y-90095870D01*
X123464297Y-90105096D01*
X123487948Y-90109800D01*
X123512054Y-90109800D01*
X123535704Y-90105095D01*
X123557978Y-90095869D01*
X123578104Y-90082421D01*
X123584401Y-90077254D01*
X123584727Y-90077036D01*
X123589028Y-90074737D01*
X123589390Y-90074587D01*
X123594064Y-90073169D01*
X123594449Y-90073093D01*
X123605445Y-90072010D01*
X123605641Y-90072000D01*
X123662000Y-90072000D01*
X123663732Y-90073000D01*
X123663732Y-90075000D01*
X123662196Y-90075990D01*
X123645227Y-90077661D01*
X123629093Y-90082556D01*
X123614226Y-90090502D01*
X123601196Y-90101196D01*
X123590502Y-90114226D01*
X123582556Y-90129093D01*
X123577661Y-90145227D01*
X123576000Y-90162094D01*
X123576000Y-90962906D01*
X123577661Y-90979773D01*
X123582556Y-90995907D01*
X123590502Y-91010774D01*
X123601196Y-91023804D01*
X123614226Y-91034498D01*
X123629093Y-91042444D01*
X123645227Y-91047339D01*
X123662094Y-91049000D01*
X123837906Y-91049000D01*
X123854773Y-91047339D01*
X123870907Y-91042444D01*
X123885774Y-91034498D01*
X123898804Y-91023804D01*
X123909498Y-91010774D01*
X123917444Y-90995907D01*
X123922339Y-90979773D01*
X123924000Y-90962906D01*
X123924000Y-90162094D01*
X123922339Y-90145227D01*
X123917444Y-90129093D01*
X123909498Y-90114226D01*
X123898804Y-90101196D01*
X123885774Y-90090502D01*
X123870907Y-90082556D01*
X123854773Y-90077661D01*
X123837804Y-90075990D01*
X123836178Y-90074825D01*
X123836374Y-90072835D01*
X123838000Y-90072000D01*
X123894359Y-90072000D01*
X123894555Y-90072010D01*
X123905551Y-90073093D01*
X123905936Y-90073169D01*
X123910610Y-90074587D01*
X123910972Y-90074737D01*
X123915273Y-90077036D01*
X123915599Y-90077254D01*
X123921896Y-90082421D01*
X123942023Y-90095870D01*
X123964297Y-90105096D01*
X123987948Y-90109800D01*
X124012054Y-90109800D01*
X124035704Y-90105095D01*
X124057978Y-90095869D01*
X124078104Y-90082421D01*
X124084401Y-90077254D01*
X124084727Y-90077036D01*
X124089028Y-90074737D01*
X124089390Y-90074587D01*
X124094064Y-90073169D01*
X124094449Y-90073093D01*
X124105445Y-90072010D01*
X124105641Y-90072000D01*
X124162000Y-90072000D01*
X124163732Y-90073000D01*
X124163732Y-90075000D01*
X124162196Y-90075990D01*
X124145227Y-90077661D01*
X124129093Y-90082556D01*
X124114226Y-90090502D01*
X124101196Y-90101196D01*
X124090502Y-90114226D01*
X124082556Y-90129093D01*
X124077661Y-90145227D01*
X124076000Y-90162094D01*
X124076000Y-90962906D01*
X124077661Y-90979773D01*
X124082556Y-90995907D01*
X124090502Y-91010774D01*
X124101196Y-91023804D01*
X124114226Y-91034498D01*
X124129093Y-91042444D01*
X124145227Y-91047339D01*
X124162094Y-91049000D01*
X124337906Y-91049000D01*
X124354773Y-91047339D01*
X124370907Y-91042444D01*
X124385774Y-91034498D01*
X124398804Y-91023804D01*
X124409498Y-91010774D01*
X124417444Y-90995907D01*
X124422339Y-90979773D01*
X124424000Y-90962906D01*
X124424000Y-90162094D01*
X124422339Y-90145227D01*
X124417444Y-90129093D01*
X124409498Y-90114226D01*
X124398804Y-90101196D01*
X124385774Y-90090502D01*
X124370907Y-90082556D01*
X124354773Y-90077661D01*
X124337804Y-90075990D01*
X124336178Y-90074825D01*
X124336374Y-90072835D01*
X124338000Y-90072000D01*
X124394359Y-90072000D01*
X124394555Y-90072010D01*
X124405551Y-90073093D01*
X124405936Y-90073169D01*
X124410610Y-90074587D01*
X124410972Y-90074737D01*
X124415273Y-90077036D01*
X124415599Y-90077254D01*
X124421896Y-90082421D01*
X124442023Y-90095870D01*
X124464297Y-90105096D01*
X124487948Y-90109800D01*
X124512054Y-90109800D01*
X124535704Y-90105095D01*
X124557978Y-90095869D01*
X124578104Y-90082421D01*
X124584401Y-90077254D01*
X124584727Y-90077036D01*
X124589028Y-90074737D01*
X124589390Y-90074587D01*
X124594064Y-90073169D01*
X124594449Y-90073093D01*
X124605445Y-90072010D01*
X124605641Y-90072000D01*
X124662000Y-90072000D01*
X124663732Y-90073000D01*
X124663732Y-90075000D01*
X124662196Y-90075990D01*
X124645227Y-90077661D01*
X124629093Y-90082556D01*
X124614226Y-90090502D01*
X124601196Y-90101196D01*
X124590502Y-90114226D01*
X124582556Y-90129093D01*
X124577661Y-90145227D01*
X124576000Y-90162094D01*
X124576000Y-90962906D01*
X124577661Y-90979773D01*
X124582556Y-90995907D01*
X124590502Y-91010774D01*
X124601196Y-91023804D01*
X124614226Y-91034498D01*
X124629093Y-91042444D01*
X124645227Y-91047339D01*
X124662094Y-91049000D01*
X124837906Y-91049000D01*
X124854773Y-91047339D01*
X124870907Y-91042444D01*
X124885774Y-91034498D01*
X124898804Y-91023804D01*
X124909498Y-91010774D01*
X124917444Y-90995907D01*
X124922339Y-90979773D01*
X124924000Y-90962906D01*
X124924000Y-90162094D01*
X124922339Y-90145227D01*
X124917444Y-90129093D01*
X124909498Y-90114226D01*
X124898804Y-90101196D01*
X124885774Y-90090502D01*
X124870907Y-90082556D01*
X124854773Y-90077661D01*
X124837804Y-90075990D01*
X124836178Y-90074825D01*
X124836374Y-90072835D01*
X124838000Y-90072000D01*
X124894359Y-90072000D01*
X124894555Y-90072010D01*
X124905551Y-90073093D01*
X124905936Y-90073169D01*
X124910610Y-90074587D01*
X124910972Y-90074737D01*
X124915273Y-90077036D01*
X124915599Y-90077254D01*
X124921896Y-90082421D01*
X124942023Y-90095870D01*
X124964297Y-90105096D01*
X124987948Y-90109800D01*
X125012054Y-90109800D01*
X125035704Y-90105095D01*
X125057978Y-90095869D01*
X125078104Y-90082421D01*
X125084401Y-90077254D01*
X125084727Y-90077036D01*
X125089028Y-90074737D01*
X125089390Y-90074587D01*
X125094064Y-90073169D01*
X125094449Y-90073093D01*
X125105445Y-90072010D01*
X125105641Y-90072000D01*
X125162000Y-90072000D01*
X125163732Y-90073000D01*
X125163732Y-90075000D01*
X125162196Y-90075990D01*
X125145227Y-90077661D01*
X125129093Y-90082556D01*
X125114226Y-90090502D01*
X125101196Y-90101196D01*
X125090502Y-90114226D01*
X125082556Y-90129093D01*
X125077661Y-90145227D01*
X125076000Y-90162094D01*
X125076000Y-90962906D01*
X125077661Y-90979773D01*
X125082556Y-90995907D01*
X125090502Y-91010774D01*
X125101196Y-91023804D01*
X125114226Y-91034498D01*
X125129093Y-91042444D01*
X125145227Y-91047339D01*
X125162094Y-91049000D01*
X125337906Y-91049000D01*
X125354773Y-91047339D01*
X125370907Y-91042444D01*
X125385774Y-91034498D01*
X125398804Y-91023804D01*
X125409498Y-91010774D01*
X125417444Y-90995907D01*
X125422339Y-90979773D01*
X125424000Y-90962906D01*
X125424000Y-90162094D01*
X125422339Y-90145227D01*
X125417444Y-90129093D01*
X125409498Y-90114226D01*
X125398804Y-90101196D01*
X125385774Y-90090502D01*
X125370907Y-90082556D01*
X125354773Y-90077661D01*
X125337804Y-90075990D01*
X125336178Y-90074825D01*
X125336374Y-90072835D01*
X125338000Y-90072000D01*
X125394359Y-90072000D01*
X125394555Y-90072010D01*
X125405551Y-90073093D01*
X125405936Y-90073169D01*
X125410610Y-90074587D01*
X125410972Y-90074737D01*
X125415273Y-90077036D01*
X125415599Y-90077254D01*
X125421896Y-90082421D01*
X125442023Y-90095870D01*
X125464297Y-90105096D01*
X125487948Y-90109800D01*
X125512054Y-90109800D01*
X125535704Y-90105095D01*
X125557978Y-90095869D01*
X125578104Y-90082421D01*
X125584401Y-90077254D01*
X125584727Y-90077036D01*
X125589028Y-90074737D01*
X125589390Y-90074587D01*
X125594064Y-90073169D01*
X125594449Y-90073093D01*
X125605445Y-90072010D01*
X125605641Y-90072000D01*
X125662000Y-90072000D01*
X125663732Y-90073000D01*
X125663732Y-90075000D01*
X125662196Y-90075990D01*
X125645227Y-90077661D01*
X125629093Y-90082556D01*
X125614226Y-90090502D01*
X125601196Y-90101196D01*
X125590502Y-90114226D01*
X125582556Y-90129093D01*
X125577661Y-90145227D01*
X125576000Y-90162094D01*
X125576000Y-90962906D01*
X125577661Y-90979773D01*
X125582556Y-90995907D01*
X125590502Y-91010774D01*
X125601196Y-91023804D01*
X125614226Y-91034498D01*
X125629093Y-91042444D01*
X125645227Y-91047339D01*
X125662094Y-91049000D01*
X125837906Y-91049000D01*
X125854773Y-91047339D01*
X125870907Y-91042444D01*
X125885774Y-91034498D01*
X125898804Y-91023804D01*
X125909498Y-91010774D01*
X125917444Y-90995907D01*
X125922339Y-90979773D01*
X125924000Y-90962906D01*
X125924000Y-90162094D01*
X125922339Y-90145227D01*
X125917444Y-90129093D01*
X125909498Y-90114226D01*
X125898804Y-90101196D01*
X125885774Y-90090502D01*
X125870907Y-90082556D01*
X125854773Y-90077661D01*
X125837804Y-90075990D01*
X125836178Y-90074825D01*
X125836374Y-90072835D01*
X125838000Y-90072000D01*
X125894359Y-90072000D01*
X125894555Y-90072010D01*
X125905551Y-90073093D01*
X125905936Y-90073169D01*
X125910610Y-90074587D01*
X125910972Y-90074737D01*
X125915273Y-90077036D01*
X125915599Y-90077254D01*
X125921896Y-90082421D01*
X125942023Y-90095870D01*
X125964297Y-90105096D01*
X125987948Y-90109800D01*
X126012054Y-90109800D01*
X126035704Y-90105095D01*
X126057978Y-90095869D01*
X126078104Y-90082421D01*
X126084401Y-90077254D01*
X126084727Y-90077036D01*
X126089028Y-90074737D01*
X126089390Y-90074587D01*
X126094064Y-90073169D01*
X126094449Y-90073093D01*
X126105445Y-90072010D01*
X126105641Y-90072000D01*
X126162000Y-90072000D01*
X126163732Y-90073000D01*
X126163732Y-90075000D01*
X126162196Y-90075990D01*
X126145227Y-90077661D01*
X126129093Y-90082556D01*
X126114226Y-90090502D01*
X126101196Y-90101196D01*
X126090502Y-90114226D01*
X126082556Y-90129093D01*
X126077661Y-90145227D01*
X126076000Y-90162094D01*
X126076000Y-90962906D01*
X126077661Y-90979773D01*
X126082556Y-90995907D01*
X126090502Y-91010774D01*
X126101196Y-91023804D01*
X126114226Y-91034498D01*
X126129093Y-91042444D01*
X126145227Y-91047339D01*
X126162094Y-91049000D01*
X126337906Y-91049000D01*
X126354773Y-91047339D01*
X126370907Y-91042444D01*
X126385774Y-91034498D01*
X126398804Y-91023804D01*
X126409498Y-91010774D01*
X126417444Y-90995907D01*
X126422339Y-90979773D01*
X126424000Y-90962906D01*
X126424000Y-90162094D01*
X126422339Y-90145227D01*
X126417444Y-90129093D01*
X126409498Y-90114226D01*
X126398804Y-90101196D01*
X126385774Y-90090502D01*
X126370907Y-90082556D01*
X126354773Y-90077661D01*
X126337804Y-90075990D01*
X126336178Y-90074825D01*
X126336374Y-90072835D01*
X126338000Y-90072000D01*
X126394359Y-90072000D01*
X126394555Y-90072010D01*
X126405551Y-90073093D01*
X126405936Y-90073169D01*
X126410610Y-90074587D01*
X126410972Y-90074737D01*
X126415273Y-90077036D01*
X126415599Y-90077254D01*
X126421896Y-90082421D01*
X126442023Y-90095870D01*
X126464297Y-90105096D01*
X126487948Y-90109800D01*
X126512054Y-90109800D01*
X126535704Y-90105095D01*
X126557978Y-90095869D01*
X126578104Y-90082421D01*
X126584401Y-90077254D01*
X126584727Y-90077036D01*
X126589028Y-90074737D01*
X126589390Y-90074587D01*
X126594064Y-90073169D01*
X126594449Y-90073093D01*
X126605445Y-90072010D01*
X126605641Y-90072000D01*
X126662000Y-90072000D01*
X126663732Y-90073000D01*
X126663732Y-90075000D01*
X126662196Y-90075990D01*
X126645227Y-90077661D01*
X126629093Y-90082556D01*
X126614226Y-90090502D01*
X126601196Y-90101196D01*
X126590502Y-90114226D01*
X126582556Y-90129093D01*
X126577661Y-90145227D01*
X126576000Y-90162094D01*
X126576000Y-90962906D01*
X126577661Y-90979773D01*
X126582556Y-90995907D01*
X126590502Y-91010774D01*
X126601196Y-91023804D01*
X126614226Y-91034498D01*
X126629093Y-91042444D01*
X126645227Y-91047339D01*
X126662094Y-91049000D01*
X126837906Y-91049000D01*
X126854773Y-91047339D01*
X126870907Y-91042444D01*
X126885774Y-91034498D01*
X126898804Y-91023804D01*
X126909498Y-91010774D01*
X126917444Y-90995907D01*
X126922339Y-90979773D01*
X126924000Y-90962906D01*
X126924000Y-90162094D01*
X126922339Y-90145227D01*
X126917444Y-90129093D01*
X126909498Y-90114226D01*
X126898804Y-90101196D01*
X126885774Y-90090502D01*
X126870907Y-90082556D01*
X126854773Y-90077661D01*
X126837804Y-90075990D01*
X126836178Y-90074825D01*
X126836374Y-90072835D01*
X126838000Y-90072000D01*
X126894359Y-90072000D01*
X126894555Y-90072010D01*
X126905551Y-90073093D01*
X126905936Y-90073169D01*
X126910610Y-90074587D01*
X126910972Y-90074737D01*
X126915273Y-90077036D01*
X126915599Y-90077254D01*
X126921896Y-90082421D01*
X126942023Y-90095870D01*
X126964297Y-90105096D01*
X126987948Y-90109800D01*
X127012054Y-90109800D01*
X127035704Y-90105095D01*
X127057978Y-90095869D01*
X127078104Y-90082421D01*
X127084401Y-90077254D01*
X127084727Y-90077036D01*
X127089028Y-90074737D01*
X127089390Y-90074587D01*
X127094064Y-90073169D01*
X127094449Y-90073093D01*
X127105445Y-90072010D01*
X127105641Y-90072000D01*
X127162000Y-90072000D01*
X127163732Y-90073000D01*
X127163732Y-90075000D01*
X127162196Y-90075990D01*
X127145227Y-90077661D01*
X127129093Y-90082556D01*
X127114226Y-90090502D01*
X127101196Y-90101196D01*
X127090502Y-90114226D01*
X127082556Y-90129093D01*
X127077661Y-90145227D01*
X127076000Y-90162094D01*
X127076000Y-90962906D01*
X127077661Y-90979773D01*
X127082556Y-90995907D01*
X127090502Y-91010774D01*
X127101196Y-91023804D01*
X127114226Y-91034498D01*
X127129093Y-91042444D01*
X127145227Y-91047339D01*
X127162094Y-91049000D01*
X127337906Y-91049000D01*
X127354773Y-91047339D01*
X127370907Y-91042444D01*
X127385774Y-91034498D01*
X127398804Y-91023804D01*
X127409498Y-91010774D01*
X127417444Y-90995907D01*
X127422339Y-90979773D01*
X127424000Y-90962906D01*
X127424000Y-90162094D01*
X127422339Y-90145227D01*
X127417444Y-90129093D01*
X127409498Y-90114226D01*
X127398804Y-90101196D01*
X127385774Y-90090502D01*
X127370907Y-90082556D01*
X127354773Y-90077661D01*
X127337804Y-90075990D01*
X127336178Y-90074825D01*
X127336374Y-90072835D01*
X127338000Y-90072000D01*
X127394359Y-90072000D01*
X127394555Y-90072010D01*
X127405551Y-90073093D01*
X127405936Y-90073169D01*
X127410610Y-90074587D01*
X127410972Y-90074737D01*
X127415273Y-90077036D01*
X127415599Y-90077254D01*
X127421896Y-90082421D01*
X127442023Y-90095870D01*
X127464297Y-90105096D01*
X127487948Y-90109800D01*
X127512054Y-90109800D01*
X127535704Y-90105095D01*
X127557978Y-90095869D01*
X127578104Y-90082421D01*
X127584401Y-90077254D01*
X127584727Y-90077036D01*
X127589028Y-90074737D01*
X127589390Y-90074587D01*
X127594064Y-90073169D01*
X127594449Y-90073093D01*
X127605445Y-90072010D01*
X127605641Y-90072000D01*
X127662000Y-90072000D01*
X127663732Y-90073000D01*
X127663732Y-90075000D01*
X127662196Y-90075990D01*
X127645227Y-90077661D01*
X127629093Y-90082556D01*
X127614226Y-90090502D01*
X127601196Y-90101196D01*
X127590502Y-90114226D01*
X127582556Y-90129093D01*
X127577661Y-90145227D01*
X127576000Y-90162094D01*
X127576000Y-90962906D01*
X127577661Y-90979773D01*
X127582556Y-90995907D01*
X127590502Y-91010774D01*
X127601196Y-91023804D01*
X127614226Y-91034498D01*
X127629093Y-91042444D01*
X127645227Y-91047339D01*
X127662094Y-91049000D01*
X127837906Y-91049000D01*
X127854773Y-91047339D01*
X127870907Y-91042444D01*
X127885774Y-91034498D01*
X127898804Y-91023804D01*
X127909498Y-91010774D01*
X127917444Y-90995907D01*
X127922339Y-90979773D01*
X127924000Y-90962906D01*
X127924000Y-90949001D01*
X127925000Y-90947269D01*
X127927000Y-90947269D01*
X127927990Y-90948805D01*
X127930372Y-90972992D01*
X127937372Y-90996067D01*
X127948737Y-91017331D01*
X127964032Y-91035968D01*
X127982669Y-91051263D01*
X128003933Y-91062628D01*
X128027008Y-91069628D01*
X128051195Y-91072010D01*
X128052821Y-91073175D01*
X128052625Y-91075165D01*
X128050999Y-91076000D01*
X128037094Y-91076000D01*
X128020227Y-91077661D01*
X128004093Y-91082556D01*
X127989226Y-91090502D01*
X127976196Y-91101196D01*
X127965502Y-91114226D01*
X127957556Y-91129093D01*
X127952661Y-91145227D01*
X127951000Y-91162094D01*
X127951000Y-91337906D01*
X127952661Y-91354773D01*
X127957556Y-91370907D01*
X127965502Y-91385774D01*
X127976196Y-91398804D01*
X127989226Y-91409498D01*
X128004093Y-91417444D01*
X128020227Y-91422339D01*
X128037094Y-91424000D01*
X128837906Y-91424000D01*
X128854773Y-91422339D01*
X128870907Y-91417444D01*
X128885774Y-91409498D01*
X128898804Y-91398804D01*
X128909498Y-91385774D01*
X128917444Y-91370907D01*
X128922339Y-91354773D01*
X128924010Y-91337804D01*
X128925175Y-91336178D01*
X128927165Y-91336374D01*
X128928000Y-91338000D01*
X128928000Y-91394359D01*
X128927990Y-91394555D01*
X128926907Y-91405551D01*
X128926831Y-91405936D01*
X128925413Y-91410610D01*
X128925263Y-91410972D01*
X128922964Y-91415273D01*
X128922746Y-91415599D01*
X128917579Y-91421896D01*
X128904130Y-91442023D01*
X128894904Y-91464297D01*
X128890200Y-91487948D01*
X128890200Y-91512054D01*
X128894905Y-91535704D01*
X128904131Y-91557978D01*
X128917579Y-91578104D01*
X128922746Y-91584401D01*
X128922964Y-91584727D01*
X128925263Y-91589028D01*
X128925413Y-91589390D01*
X128926831Y-91594064D01*
X128926907Y-91594449D01*
X128927990Y-91605445D01*
X128928000Y-91605641D01*
X128928000Y-91662000D01*
X128927000Y-91663732D01*
X128925000Y-91663732D01*
X128924010Y-91662196D01*
X128922339Y-91645227D01*
X128917444Y-91629093D01*
X128909498Y-91614226D01*
X128898804Y-91601196D01*
X128885774Y-91590502D01*
X128870907Y-91582556D01*
X128854773Y-91577661D01*
X128837906Y-91576000D01*
X128037094Y-91576000D01*
X128020227Y-91577661D01*
X128004093Y-91582556D01*
X127989226Y-91590502D01*
X127976196Y-91601196D01*
X127965502Y-91614226D01*
X127957556Y-91629093D01*
X127952661Y-91645227D01*
X127951000Y-91662094D01*
X127951000Y-91837906D01*
X127952661Y-91854773D01*
X127957556Y-91870907D01*
X127965502Y-91885774D01*
X127976196Y-91898804D01*
X127989226Y-91909498D01*
X128004093Y-91917444D01*
X128020227Y-91922339D01*
X128037094Y-91924000D01*
X128837906Y-91924000D01*
X128854773Y-91922339D01*
X128870907Y-91917444D01*
X128885774Y-91909498D01*
X128898804Y-91898804D01*
X128909498Y-91885774D01*
X128917444Y-91870907D01*
X128922339Y-91854773D01*
X128924010Y-91837804D01*
X128925175Y-91836178D01*
X128927165Y-91836374D01*
X128928000Y-91838000D01*
X128928000Y-91894359D01*
X128927990Y-91894555D01*
X128926907Y-91905551D01*
X128926831Y-91905936D01*
X128925413Y-91910610D01*
X128925263Y-91910972D01*
X128922964Y-91915273D01*
X128922746Y-91915599D01*
X128917579Y-91921896D01*
X128904130Y-91942023D01*
X128894904Y-91964297D01*
X128890200Y-91987948D01*
X128890200Y-92012054D01*
X128894905Y-92035704D01*
X128904131Y-92057978D01*
X128917579Y-92078104D01*
X128922746Y-92084401D01*
X128922964Y-92084727D01*
X128925263Y-92089028D01*
X128925413Y-92089390D01*
X128926831Y-92094064D01*
X128926907Y-92094449D01*
X128927990Y-92105445D01*
X128928000Y-92105641D01*
X128928000Y-92162000D01*
X128927000Y-92163732D01*
X128925000Y-92163732D01*
X128924010Y-92162196D01*
X128922339Y-92145227D01*
X128917444Y-92129093D01*
X128909498Y-92114226D01*
X128898804Y-92101196D01*
X128885774Y-92090502D01*
X128870907Y-92082556D01*
X128854773Y-92077661D01*
X128837906Y-92076000D01*
X128037094Y-92076000D01*
X128020227Y-92077661D01*
X128004093Y-92082556D01*
X127989226Y-92090502D01*
X127976196Y-92101196D01*
X127965502Y-92114226D01*
X127957556Y-92129093D01*
X127952661Y-92145227D01*
X127951000Y-92162094D01*
X127951000Y-92337906D01*
X127952661Y-92354773D01*
X127957556Y-92370907D01*
X127965502Y-92385774D01*
X127976196Y-92398804D01*
X127989226Y-92409498D01*
X128004093Y-92417444D01*
X128020227Y-92422339D01*
X128037094Y-92424000D01*
X128837906Y-92424000D01*
X128854773Y-92422339D01*
X128870907Y-92417444D01*
X128885774Y-92409498D01*
X128898804Y-92398804D01*
X128909498Y-92385774D01*
X128917444Y-92370907D01*
X128922339Y-92354773D01*
X128924010Y-92337804D01*
X128925175Y-92336178D01*
X128927165Y-92336374D01*
X128928000Y-92338000D01*
X128928000Y-92394359D01*
X128927990Y-92394555D01*
X128926907Y-92405551D01*
X128926831Y-92405936D01*
X128925413Y-92410610D01*
X128925263Y-92410972D01*
X128922964Y-92415273D01*
X128922746Y-92415599D01*
X128917579Y-92421896D01*
X128904130Y-92442023D01*
X128894904Y-92464297D01*
X128890200Y-92487948D01*
X128890200Y-92512054D01*
X128894905Y-92535704D01*
X128904131Y-92557978D01*
X128917579Y-92578104D01*
X128922746Y-92584401D01*
X128922964Y-92584727D01*
X128925263Y-92589028D01*
X128925413Y-92589390D01*
X128926831Y-92594064D01*
X128926907Y-92594449D01*
X128927990Y-92605445D01*
X128928000Y-92605641D01*
X128928000Y-92662000D01*
X128927000Y-92663732D01*
X128925000Y-92663732D01*
X128924010Y-92662196D01*
X128922339Y-92645227D01*
X128917444Y-92629093D01*
X128909498Y-92614226D01*
X128898804Y-92601196D01*
X128885774Y-92590502D01*
X128870907Y-92582556D01*
X128854773Y-92577661D01*
X128837906Y-92576000D01*
X128037094Y-92576000D01*
X128020227Y-92577661D01*
X128004093Y-92582556D01*
X127989226Y-92590502D01*
X127976196Y-92601196D01*
X127965502Y-92614226D01*
X127957556Y-92629093D01*
X127952661Y-92645227D01*
X127951000Y-92662094D01*
X127951000Y-92837906D01*
X127952661Y-92854773D01*
X127957556Y-92870907D01*
X127965502Y-92885774D01*
X127976196Y-92898804D01*
X127989226Y-92909498D01*
X128004093Y-92917444D01*
X128020227Y-92922339D01*
X128037094Y-92924000D01*
X128837906Y-92924000D01*
X128854773Y-92922339D01*
X128870907Y-92917444D01*
X128885774Y-92909498D01*
X128898804Y-92898804D01*
X128909498Y-92885774D01*
X128917444Y-92870907D01*
X128922339Y-92854773D01*
X128924010Y-92837804D01*
X128925175Y-92836178D01*
X128927165Y-92836374D01*
X128928000Y-92838000D01*
X128928000Y-92894359D01*
X128927990Y-92894555D01*
X128926907Y-92905551D01*
X128926831Y-92905936D01*
X128925413Y-92910610D01*
X128925263Y-92910972D01*
X128922964Y-92915273D01*
X128922746Y-92915599D01*
X128917579Y-92921896D01*
X128904130Y-92942023D01*
X128894904Y-92964297D01*
X128890200Y-92987948D01*
X128890200Y-93012054D01*
X128894905Y-93035704D01*
X128904131Y-93057978D01*
X128917579Y-93078104D01*
X128922746Y-93084401D01*
X128922964Y-93084727D01*
X128925263Y-93089028D01*
X128925413Y-93089390D01*
X128926831Y-93094064D01*
X128926907Y-93094449D01*
X128927990Y-93105445D01*
X128928000Y-93105641D01*
X128928000Y-93162000D01*
X128927000Y-93163732D01*
X128925000Y-93163732D01*
X128924010Y-93162196D01*
X128922339Y-93145227D01*
X128917444Y-93129093D01*
X128909498Y-93114226D01*
X128898804Y-93101196D01*
X128885774Y-93090502D01*
X128870907Y-93082556D01*
X128854773Y-93077661D01*
X128837906Y-93076000D01*
X128037094Y-93076000D01*
X128020227Y-93077661D01*
X128004093Y-93082556D01*
X127989226Y-93090502D01*
X127976196Y-93101196D01*
X127965502Y-93114226D01*
X127957556Y-93129093D01*
X127952661Y-93145227D01*
X127951000Y-93162094D01*
X127951000Y-93337906D01*
X127952661Y-93354773D01*
X127957556Y-93370907D01*
X127965502Y-93385774D01*
X127976196Y-93398804D01*
X127989226Y-93409498D01*
X128004093Y-93417444D01*
X128020227Y-93422339D01*
X128037094Y-93424000D01*
X128837906Y-93424000D01*
X128854773Y-93422339D01*
X128870907Y-93417444D01*
X128885774Y-93409498D01*
X128898804Y-93398804D01*
X128909498Y-93385774D01*
X128917444Y-93370907D01*
X128922339Y-93354773D01*
X128924010Y-93337804D01*
X128925175Y-93336178D01*
X128927165Y-93336374D01*
X128928000Y-93338000D01*
X128928000Y-93394359D01*
X128927990Y-93394555D01*
X128926907Y-93405551D01*
X128926831Y-93405936D01*
X128925413Y-93410610D01*
X128925263Y-93410972D01*
X128922964Y-93415273D01*
X128922746Y-93415599D01*
X128917579Y-93421896D01*
X128904130Y-93442023D01*
X128894904Y-93464297D01*
X128890200Y-93487948D01*
X128890200Y-93512054D01*
X128894905Y-93535704D01*
X128904131Y-93557978D01*
X128917579Y-93578104D01*
X128922746Y-93584401D01*
X128922964Y-93584727D01*
X128925263Y-93589028D01*
X128925413Y-93589390D01*
X128926831Y-93594064D01*
X128926907Y-93594449D01*
X128927990Y-93605445D01*
X128928000Y-93605641D01*
X128928000Y-93662000D01*
X128927000Y-93663732D01*
X128925000Y-93663732D01*
X128924010Y-93662196D01*
X128922339Y-93645227D01*
X128917444Y-93629093D01*
X128909498Y-93614226D01*
X128898804Y-93601196D01*
X128885774Y-93590502D01*
X128870907Y-93582556D01*
X128854773Y-93577661D01*
X128837906Y-93576000D01*
X128037094Y-93576000D01*
X128020227Y-93577661D01*
X128004093Y-93582556D01*
X127989226Y-93590502D01*
X127976196Y-93601196D01*
X127965502Y-93614226D01*
X127957556Y-93629093D01*
X127952661Y-93645227D01*
X127951000Y-93662094D01*
X127951000Y-93837906D01*
X127952661Y-93854773D01*
X127957556Y-93870907D01*
X127965502Y-93885774D01*
X127976196Y-93898804D01*
X127989226Y-93909498D01*
X128004093Y-93917444D01*
X128020227Y-93922339D01*
X128037094Y-93924000D01*
X128837906Y-93924000D01*
X128854773Y-93922339D01*
X128870907Y-93917444D01*
X128885774Y-93909498D01*
X128898804Y-93898804D01*
X128909498Y-93885774D01*
X128917444Y-93870907D01*
X128922339Y-93854773D01*
X128924010Y-93837804D01*
X128925175Y-93836178D01*
X128927165Y-93836374D01*
X128928000Y-93838000D01*
X128928000Y-93894359D01*
X128927990Y-93894555D01*
X128926907Y-93905551D01*
X128926831Y-93905936D01*
X128925413Y-93910610D01*
X128925263Y-93910972D01*
X128922964Y-93915273D01*
X128922746Y-93915599D01*
X128917579Y-93921896D01*
X128904130Y-93942023D01*
X128894904Y-93964297D01*
X128890200Y-93987948D01*
X128890200Y-94012054D01*
X128894905Y-94035704D01*
X128904131Y-94057978D01*
X128917579Y-94078104D01*
X128922746Y-94084401D01*
X128922964Y-94084727D01*
X128925263Y-94089028D01*
X128925413Y-94089390D01*
X128926831Y-94094064D01*
X128926907Y-94094449D01*
X128927990Y-94105445D01*
X128928000Y-94105641D01*
X128928000Y-94162000D01*
X128927000Y-94163732D01*
X128925000Y-94163732D01*
X128924010Y-94162196D01*
X128922339Y-94145227D01*
X128917444Y-94129093D01*
X128909498Y-94114226D01*
X128898804Y-94101196D01*
X128885774Y-94090502D01*
X128870907Y-94082556D01*
X128854773Y-94077661D01*
X128837906Y-94076000D01*
X128037094Y-94076000D01*
X128020227Y-94077661D01*
X128004093Y-94082556D01*
X127989226Y-94090502D01*
X127976196Y-94101196D01*
X127965502Y-94114226D01*
X127957556Y-94129093D01*
X127952661Y-94145227D01*
X127951000Y-94162094D01*
X127951000Y-94337906D01*
X127952661Y-94354773D01*
X127957556Y-94370907D01*
X127965502Y-94385774D01*
X127976196Y-94398804D01*
X127989226Y-94409498D01*
X128004093Y-94417444D01*
X128020227Y-94422339D01*
X128037094Y-94424000D01*
X128837906Y-94424000D01*
X128854773Y-94422339D01*
X128870907Y-94417444D01*
X128885774Y-94409498D01*
X128898804Y-94398804D01*
X128909498Y-94385774D01*
X128917444Y-94370907D01*
X128922339Y-94354773D01*
X128924010Y-94337804D01*
X128925175Y-94336178D01*
X128927165Y-94336374D01*
X128928000Y-94338000D01*
X128928000Y-94394359D01*
X128927990Y-94394555D01*
X128926907Y-94405551D01*
X128926831Y-94405936D01*
X128925413Y-94410610D01*
X128925263Y-94410972D01*
X128922964Y-94415273D01*
X128922746Y-94415599D01*
X128917579Y-94421896D01*
X128904130Y-94442023D01*
X128894904Y-94464297D01*
X128890200Y-94487948D01*
X128890200Y-94512054D01*
X128894905Y-94535704D01*
X128904131Y-94557978D01*
X128917579Y-94578104D01*
X128922746Y-94584401D01*
X128922964Y-94584727D01*
X128925263Y-94589028D01*
X128925413Y-94589390D01*
X128926831Y-94594064D01*
X128926907Y-94594449D01*
X128927990Y-94605445D01*
X128928000Y-94605641D01*
X128928000Y-94662000D01*
X128927000Y-94663732D01*
X128925000Y-94663732D01*
X128924010Y-94662196D01*
X128922339Y-94645227D01*
X128917444Y-94629093D01*
X128909498Y-94614226D01*
X128898804Y-94601196D01*
X128885774Y-94590502D01*
X128870907Y-94582556D01*
X128854773Y-94577661D01*
X128837906Y-94576000D01*
X128037094Y-94576000D01*
X128020227Y-94577661D01*
X128004093Y-94582556D01*
X127989226Y-94590502D01*
X127976196Y-94601196D01*
X127965502Y-94614226D01*
X127957556Y-94629093D01*
X127952661Y-94645227D01*
X127951000Y-94662094D01*
X127951000Y-94837906D01*
X127952661Y-94854773D01*
X127957556Y-94870907D01*
X127965502Y-94885774D01*
X127976196Y-94898804D01*
X127989226Y-94909498D01*
X128004093Y-94917444D01*
X128020227Y-94922339D01*
X128037094Y-94924000D01*
X128837906Y-94924000D01*
X128854773Y-94922339D01*
X128870907Y-94917444D01*
X128885774Y-94909498D01*
X128898804Y-94898804D01*
X128909498Y-94885774D01*
X128917444Y-94870907D01*
X128922339Y-94854773D01*
X128924010Y-94837804D01*
X128925175Y-94836178D01*
X128927165Y-94836374D01*
X128928000Y-94838000D01*
X128928000Y-94894359D01*
X128927990Y-94894555D01*
X128926907Y-94905551D01*
X128926831Y-94905936D01*
X128925413Y-94910610D01*
X128925263Y-94910972D01*
X128922964Y-94915273D01*
X128922746Y-94915599D01*
X128917579Y-94921896D01*
X128904130Y-94942023D01*
X128894904Y-94964297D01*
X128890200Y-94987948D01*
X128890200Y-95012054D01*
X128894905Y-95035704D01*
X128904131Y-95057978D01*
X128917579Y-95078104D01*
X128922746Y-95084401D01*
X128922964Y-95084727D01*
X128925263Y-95089028D01*
X128925413Y-95089390D01*
X128926831Y-95094064D01*
X128926907Y-95094449D01*
X128927990Y-95105445D01*
X128928000Y-95105641D01*
X128928000Y-95162000D01*
X128927000Y-95163732D01*
X128925000Y-95163732D01*
X128924010Y-95162196D01*
X128922339Y-95145227D01*
X128917444Y-95129093D01*
X128909498Y-95114226D01*
X128898804Y-95101196D01*
X128885774Y-95090502D01*
X128870907Y-95082556D01*
X128854773Y-95077661D01*
X128837906Y-95076000D01*
X128037094Y-95076000D01*
X128020227Y-95077661D01*
X128004093Y-95082556D01*
X127989226Y-95090502D01*
X127976196Y-95101196D01*
X127965502Y-95114226D01*
X127957556Y-95129093D01*
X127952661Y-95145227D01*
X127951000Y-95162094D01*
X127951000Y-95337906D01*
X127952661Y-95354773D01*
X127957556Y-95370907D01*
X127965502Y-95385774D01*
X127976196Y-95398804D01*
X127989226Y-95409498D01*
X128004093Y-95417444D01*
X128020227Y-95422339D01*
X128037094Y-95424000D01*
X128837906Y-95424000D01*
X128854773Y-95422339D01*
X128870907Y-95417444D01*
X128885774Y-95409498D01*
X128898804Y-95398804D01*
X128909498Y-95385774D01*
X128917444Y-95370907D01*
X128922339Y-95354773D01*
X128924010Y-95337804D01*
X128925175Y-95336178D01*
X128927165Y-95336374D01*
X128928000Y-95338000D01*
X128928000Y-95394359D01*
X128927990Y-95394555D01*
X128926907Y-95405551D01*
X128926831Y-95405936D01*
X128925413Y-95410610D01*
X128925263Y-95410972D01*
X128922964Y-95415273D01*
X128922746Y-95415599D01*
X128917579Y-95421896D01*
X128904130Y-95442023D01*
X128894904Y-95464297D01*
X128890200Y-95487948D01*
X128890200Y-95512054D01*
X128894905Y-95535704D01*
X128904131Y-95557978D01*
X128917579Y-95578104D01*
X128922746Y-95584401D01*
X128922964Y-95584727D01*
X128925263Y-95589028D01*
X128925413Y-95589390D01*
X128926831Y-95594064D01*
X128926907Y-95594449D01*
X128927990Y-95605445D01*
X128928000Y-95605641D01*
X128928000Y-95662000D01*
X128927000Y-95663732D01*
X128925000Y-95663732D01*
X128924010Y-95662196D01*
X128922339Y-95645227D01*
X128917444Y-95629093D01*
X128909498Y-95614226D01*
X128898804Y-95601196D01*
X128885774Y-95590502D01*
X128870907Y-95582556D01*
X128854773Y-95577661D01*
X128837906Y-95576000D01*
X128037094Y-95576000D01*
X128020227Y-95577661D01*
X128004093Y-95582556D01*
X127989226Y-95590502D01*
X127976196Y-95601196D01*
X127965502Y-95614226D01*
X127957556Y-95629093D01*
X127952661Y-95645227D01*
X127951000Y-95662094D01*
X127951000Y-95837906D01*
X127952661Y-95854773D01*
X127957556Y-95870907D01*
X127965502Y-95885774D01*
X127976196Y-95898804D01*
X127989226Y-95909498D01*
X128004093Y-95917444D01*
X128020227Y-95922339D01*
X128037094Y-95924000D01*
X128837906Y-95924000D01*
X128854773Y-95922339D01*
X128870907Y-95917444D01*
X128885774Y-95909498D01*
X128898804Y-95898804D01*
X128909498Y-95885774D01*
X128917444Y-95870907D01*
X128922339Y-95854773D01*
X128924010Y-95837804D01*
X128925175Y-95836178D01*
X128927165Y-95836374D01*
X128928000Y-95838000D01*
X128928000Y-95894359D01*
X128927990Y-95894555D01*
X128926907Y-95905551D01*
X128926831Y-95905936D01*
X128925413Y-95910610D01*
X128925263Y-95910972D01*
X128922964Y-95915273D01*
X128922746Y-95915599D01*
X128917579Y-95921896D01*
X128904130Y-95942023D01*
X128894904Y-95964297D01*
X128890200Y-95987948D01*
X128890200Y-96012054D01*
X128894905Y-96035704D01*
X128904131Y-96057978D01*
X128917579Y-96078104D01*
X128922746Y-96084401D01*
X128922964Y-96084727D01*
X128925263Y-96089028D01*
X128925413Y-96089390D01*
X128926831Y-96094064D01*
X128926907Y-96094449D01*
X128927990Y-96105445D01*
X128928000Y-96105641D01*
X128928000Y-96162000D01*
X128927000Y-96163732D01*
X128925000Y-96163732D01*
X128924010Y-96162196D01*
X128922339Y-96145227D01*
X128917444Y-96129093D01*
X128909498Y-96114226D01*
X128898804Y-96101196D01*
X128885774Y-96090502D01*
X128870907Y-96082556D01*
X128854773Y-96077661D01*
X128837906Y-96076000D01*
X128037094Y-96076000D01*
X128020227Y-96077661D01*
X128004093Y-96082556D01*
X127989226Y-96090502D01*
X127976196Y-96101196D01*
X127965502Y-96114226D01*
X127957556Y-96129093D01*
X127952661Y-96145227D01*
X127951000Y-96162094D01*
X127951000Y-96337906D01*
X127952661Y-96354773D01*
X127957556Y-96370907D01*
X127965502Y-96385774D01*
X127976196Y-96398804D01*
X127989226Y-96409498D01*
X128004093Y-96417444D01*
X128020227Y-96422339D01*
X128037094Y-96424000D01*
X128837906Y-96424000D01*
X128854773Y-96422339D01*
X128870907Y-96417444D01*
X128885774Y-96409498D01*
X128898804Y-96398804D01*
X128909498Y-96385774D01*
X128917444Y-96370907D01*
X128922339Y-96354773D01*
X128924010Y-96337804D01*
X128925175Y-96336178D01*
X128927165Y-96336374D01*
X128928000Y-96338000D01*
X128928000Y-96394359D01*
X128927990Y-96394555D01*
X128926907Y-96405551D01*
X128926831Y-96405936D01*
X128925413Y-96410610D01*
X128925263Y-96410972D01*
X128922964Y-96415273D01*
X128922746Y-96415599D01*
X128917579Y-96421896D01*
X128904130Y-96442023D01*
X128894904Y-96464297D01*
X128890200Y-96487948D01*
X128890200Y-96512054D01*
X128894905Y-96535704D01*
X128904131Y-96557978D01*
X128917579Y-96578104D01*
X128922746Y-96584401D01*
X128922964Y-96584727D01*
X128925263Y-96589028D01*
X128925413Y-96589390D01*
X128926831Y-96594064D01*
X128926907Y-96594449D01*
X128927990Y-96605445D01*
X128928000Y-96605641D01*
X128928000Y-96662000D01*
X128927000Y-96663732D01*
X128925000Y-96663732D01*
X128924010Y-96662196D01*
X128922339Y-96645227D01*
X128917444Y-96629093D01*
X128909498Y-96614226D01*
X128898804Y-96601196D01*
X128885774Y-96590502D01*
X128870907Y-96582556D01*
X128854773Y-96577661D01*
X128837906Y-96576000D01*
X128037094Y-96576000D01*
X128020227Y-96577661D01*
X128004093Y-96582556D01*
X127989226Y-96590502D01*
X127976196Y-96601196D01*
X127965502Y-96614226D01*
X127957556Y-96629093D01*
X127952661Y-96645227D01*
X127951000Y-96662094D01*
X127951000Y-96837906D01*
X127952661Y-96854773D01*
X127957556Y-96870907D01*
X127965502Y-96885774D01*
X127976196Y-96898804D01*
X127989226Y-96909498D01*
X128004093Y-96917444D01*
X128020227Y-96922339D01*
X128037094Y-96924000D01*
X128050999Y-96924000D01*
X128052731Y-96925000D01*
X128052731Y-96927000D01*
X128051195Y-96927990D01*
X128027008Y-96930372D01*
X128003933Y-96937372D01*
X127982669Y-96948737D01*
X127964032Y-96964032D01*
X127948737Y-96982669D01*
X127937372Y-97003933D01*
X127930372Y-97027008D01*
X127927990Y-97051195D01*
X127926825Y-97052821D01*
X127924835Y-97052625D01*
X127924000Y-97050999D01*
X127924000Y-97037094D01*
X127922339Y-97020227D01*
X127917444Y-97004093D01*
X127909498Y-96989226D01*
X127898804Y-96976196D01*
X127885774Y-96965502D01*
X127870907Y-96957556D01*
X127854773Y-96952661D01*
X127837906Y-96951000D01*
X127662094Y-96951000D01*
X127645227Y-96952661D01*
X127629093Y-96957556D01*
X127614226Y-96965502D01*
X127601196Y-96976196D01*
X127590502Y-96989226D01*
X127582556Y-97004093D01*
X127577661Y-97020227D01*
X127576000Y-97037094D01*
X127576000Y-97837906D01*
X127577661Y-97854773D01*
X127582556Y-97870907D01*
X127590502Y-97885774D01*
X127601196Y-97898804D01*
X127614226Y-97909498D01*
X127629093Y-97917444D01*
X127645227Y-97922339D01*
X127662196Y-97924010D01*
X127663822Y-97925175D01*
X127663626Y-97927165D01*
X127662000Y-97928000D01*
X127605641Y-97928000D01*
X127605445Y-97927990D01*
X127594449Y-97926907D01*
X127594064Y-97926831D01*
X127589390Y-97925413D01*
X127589028Y-97925263D01*
X127584727Y-97922964D01*
X127584401Y-97922746D01*
X127578104Y-97917579D01*
X127557977Y-97904130D01*
X127535703Y-97894904D01*
X127512052Y-97890200D01*
X127487946Y-97890200D01*
X127464296Y-97894905D01*
X127442022Y-97904131D01*
X127421896Y-97917579D01*
X127415599Y-97922746D01*
X127415273Y-97922964D01*
X127410972Y-97925263D01*
X127410610Y-97925413D01*
X127405936Y-97926831D01*
X127405551Y-97926907D01*
X127394555Y-97927990D01*
X127394359Y-97928000D01*
X127338000Y-97928000D01*
X127336268Y-97927000D01*
X127336268Y-97925000D01*
X127337804Y-97924010D01*
X127354773Y-97922339D01*
X127370907Y-97917444D01*
X127385774Y-97909498D01*
X127398804Y-97898804D01*
X127409498Y-97885774D01*
X127417444Y-97870907D01*
X127422339Y-97854773D01*
X127424000Y-97837906D01*
X127424000Y-97037094D01*
X127422339Y-97020227D01*
X127417444Y-97004093D01*
X127409498Y-96989226D01*
X127398804Y-96976196D01*
X127385774Y-96965502D01*
X127370907Y-96957556D01*
X127354773Y-96952661D01*
X127337906Y-96951000D01*
X127162094Y-96951000D01*
X127145227Y-96952661D01*
X127129093Y-96957556D01*
X127114226Y-96965502D01*
X127101196Y-96976196D01*
X127090502Y-96989226D01*
X127082556Y-97004093D01*
X127077661Y-97020227D01*
X127076000Y-97037094D01*
X127076000Y-97837906D01*
X127077661Y-97854773D01*
X127082556Y-97870907D01*
X127090502Y-97885774D01*
X127101196Y-97898804D01*
X127114226Y-97909498D01*
X127129093Y-97917444D01*
X127145227Y-97922339D01*
X127162196Y-97924010D01*
X127163822Y-97925175D01*
X127163626Y-97927165D01*
X127162000Y-97928000D01*
X127105641Y-97928000D01*
X127105445Y-97927990D01*
X127094449Y-97926907D01*
X127094064Y-97926831D01*
X127089390Y-97925413D01*
X127089028Y-97925263D01*
X127084727Y-97922964D01*
X127084401Y-97922746D01*
X127078104Y-97917579D01*
X127057977Y-97904130D01*
X127035703Y-97894904D01*
X127012052Y-97890200D01*
X126987946Y-97890200D01*
X126964296Y-97894905D01*
X126942022Y-97904131D01*
X126921896Y-97917579D01*
X126915599Y-97922746D01*
X126915273Y-97922964D01*
X126910972Y-97925263D01*
X126910610Y-97925413D01*
X126905936Y-97926831D01*
X126905551Y-97926907D01*
X126894555Y-97927990D01*
X126894359Y-97928000D01*
X126838000Y-97928000D01*
X126836268Y-97927000D01*
X126836268Y-97925000D01*
X126837804Y-97924010D01*
X126854773Y-97922339D01*
X126870907Y-97917444D01*
X126885774Y-97909498D01*
X126898804Y-97898804D01*
X126909498Y-97885774D01*
X126917444Y-97870907D01*
X126922339Y-97854773D01*
X126924000Y-97837906D01*
X126924000Y-97037094D01*
X126922339Y-97020227D01*
X126917444Y-97004093D01*
X126909498Y-96989226D01*
X126898804Y-96976196D01*
X126885774Y-96965502D01*
X126870907Y-96957556D01*
X126854773Y-96952661D01*
X126837906Y-96951000D01*
X126662094Y-96951000D01*
X126645227Y-96952661D01*
X126629093Y-96957556D01*
X126614226Y-96965502D01*
X126601196Y-96976196D01*
X126590502Y-96989226D01*
X126582556Y-97004093D01*
X126577661Y-97020227D01*
X126576000Y-97037094D01*
X126576000Y-97837906D01*
X126577661Y-97854773D01*
X126582556Y-97870907D01*
X126590502Y-97885774D01*
X126601196Y-97898804D01*
X126614226Y-97909498D01*
X126629093Y-97917444D01*
X126645227Y-97922339D01*
X126662196Y-97924010D01*
X126663822Y-97925175D01*
X126663626Y-97927165D01*
X126662000Y-97928000D01*
X126605641Y-97928000D01*
X126605445Y-97927990D01*
X126594449Y-97926907D01*
X126594064Y-97926831D01*
X126589390Y-97925413D01*
X126589028Y-97925263D01*
X126584727Y-97922964D01*
X126584401Y-97922746D01*
X126578104Y-97917579D01*
X126557977Y-97904130D01*
X126535703Y-97894904D01*
X126512052Y-97890200D01*
X126487946Y-97890200D01*
X126464296Y-97894905D01*
X126442022Y-97904131D01*
X126421896Y-97917579D01*
X126415599Y-97922746D01*
X126415273Y-97922964D01*
X126410972Y-97925263D01*
X126410610Y-97925413D01*
X126405936Y-97926831D01*
X126405551Y-97926907D01*
X126394555Y-97927990D01*
X126394359Y-97928000D01*
X126338000Y-97928000D01*
X126336268Y-97927000D01*
X126336268Y-97925000D01*
X126337804Y-97924010D01*
X126354773Y-97922339D01*
X126370907Y-97917444D01*
X126385774Y-97909498D01*
X126398804Y-97898804D01*
X126409498Y-97885774D01*
X126417444Y-97870907D01*
X126422339Y-97854773D01*
X126424000Y-97837906D01*
X126424000Y-97037094D01*
X126422339Y-97020227D01*
X126417444Y-97004093D01*
X126409498Y-96989226D01*
X126398804Y-96976196D01*
X126385774Y-96965502D01*
X126370907Y-96957556D01*
X126354773Y-96952661D01*
X126337906Y-96951000D01*
X126162094Y-96951000D01*
X126145227Y-96952661D01*
X126129093Y-96957556D01*
X126114226Y-96965502D01*
X126101196Y-96976196D01*
X126090502Y-96989226D01*
X126082556Y-97004093D01*
X126077661Y-97020227D01*
X126076000Y-97037094D01*
X126076000Y-97837906D01*
X126077661Y-97854773D01*
X126082556Y-97870907D01*
X126090502Y-97885774D01*
X126101196Y-97898804D01*
X126114226Y-97909498D01*
X126129093Y-97917444D01*
X126145227Y-97922339D01*
X126162196Y-97924010D01*
X126163822Y-97925175D01*
X126163626Y-97927165D01*
X126162000Y-97928000D01*
X126105641Y-97928000D01*
X126105445Y-97927990D01*
X126094449Y-97926907D01*
X126094064Y-97926831D01*
X126089390Y-97925413D01*
X126089028Y-97925263D01*
X126084727Y-97922964D01*
X126084401Y-97922746D01*
X126078104Y-97917579D01*
X126057977Y-97904130D01*
X126035703Y-97894904D01*
X126012052Y-97890200D01*
X125987946Y-97890200D01*
X125964296Y-97894905D01*
X125942022Y-97904131D01*
X125921896Y-97917579D01*
X125915599Y-97922746D01*
X125915273Y-97922964D01*
X125910972Y-97925263D01*
X125910610Y-97925413D01*
X125905936Y-97926831D01*
X125905551Y-97926907D01*
X125894555Y-97927990D01*
X125894359Y-97928000D01*
X125838000Y-97928000D01*
X125836268Y-97927000D01*
X125836268Y-97925000D01*
X125837804Y-97924010D01*
X125854773Y-97922339D01*
X125870907Y-97917444D01*
X125885774Y-97909498D01*
X125898804Y-97898804D01*
X125909498Y-97885774D01*
X125917444Y-97870907D01*
X125922339Y-97854773D01*
X125924000Y-97837906D01*
X125924000Y-97037094D01*
X125922339Y-97020227D01*
X125917444Y-97004093D01*
X125909498Y-96989226D01*
X125898804Y-96976196D01*
X125885774Y-96965502D01*
X125870907Y-96957556D01*
X125854773Y-96952661D01*
X125837906Y-96951000D01*
X125662094Y-96951000D01*
X125645227Y-96952661D01*
X125629093Y-96957556D01*
X125614226Y-96965502D01*
X125601196Y-96976196D01*
X125590502Y-96989226D01*
X125582556Y-97004093D01*
X125577661Y-97020227D01*
X125576000Y-97037094D01*
X125576000Y-97837906D01*
X125577661Y-97854773D01*
X125582556Y-97870907D01*
X125590502Y-97885774D01*
X125601196Y-97898804D01*
X125614226Y-97909498D01*
X125629093Y-97917444D01*
X125645227Y-97922339D01*
X125662196Y-97924010D01*
X125663822Y-97925175D01*
X125663626Y-97927165D01*
X125662000Y-97928000D01*
X125605641Y-97928000D01*
X125605445Y-97927990D01*
X125594449Y-97926907D01*
X125594064Y-97926831D01*
X125589390Y-97925413D01*
X125589028Y-97925263D01*
X125584727Y-97922964D01*
X125584401Y-97922746D01*
X125578104Y-97917579D01*
X125557977Y-97904130D01*
X125535703Y-97894904D01*
X125512052Y-97890200D01*
X125487946Y-97890200D01*
X125464296Y-97894905D01*
X125442022Y-97904131D01*
X125421896Y-97917579D01*
X125415599Y-97922746D01*
X125415273Y-97922964D01*
X125410972Y-97925263D01*
X125410610Y-97925413D01*
X125405936Y-97926831D01*
X125405551Y-97926907D01*
X125394555Y-97927990D01*
X125394359Y-97928000D01*
X125338000Y-97928000D01*
X125336268Y-97927000D01*
X125336268Y-97925000D01*
X125337804Y-97924010D01*
X125354773Y-97922339D01*
X125370907Y-97917444D01*
X125385774Y-97909498D01*
X125398804Y-97898804D01*
X125409498Y-97885774D01*
X125417444Y-97870907D01*
X125422339Y-97854773D01*
X125424000Y-97837906D01*
X125424000Y-97037094D01*
X125422339Y-97020227D01*
X125417444Y-97004093D01*
X125409498Y-96989226D01*
X125398804Y-96976196D01*
X125385774Y-96965502D01*
X125370907Y-96957556D01*
X125354773Y-96952661D01*
X125337906Y-96951000D01*
X125162094Y-96951000D01*
X125145227Y-96952661D01*
X125129093Y-96957556D01*
X125114226Y-96965502D01*
X125101196Y-96976196D01*
X125090502Y-96989226D01*
X125082556Y-97004093D01*
X125077661Y-97020227D01*
X125076000Y-97037094D01*
X125076000Y-97837906D01*
X125077661Y-97854773D01*
X125082556Y-97870907D01*
X125090502Y-97885774D01*
X125101196Y-97898804D01*
X125114226Y-97909498D01*
X125129093Y-97917444D01*
X125145227Y-97922339D01*
X125162196Y-97924010D01*
X125163822Y-97925175D01*
X125163626Y-97927165D01*
X125162000Y-97928000D01*
X125105641Y-97928000D01*
X125105445Y-97927990D01*
X125094449Y-97926907D01*
X125094064Y-97926831D01*
X125089390Y-97925413D01*
X125089028Y-97925263D01*
X125084727Y-97922964D01*
X125084401Y-97922746D01*
X125078104Y-97917579D01*
X125057977Y-97904130D01*
X125035703Y-97894904D01*
X125012052Y-97890200D01*
X124987946Y-97890200D01*
X124964296Y-97894905D01*
X124942022Y-97904131D01*
X124921896Y-97917579D01*
X124915599Y-97922746D01*
X124915273Y-97922964D01*
X124910972Y-97925263D01*
X124910610Y-97925413D01*
X124905936Y-97926831D01*
X124905551Y-97926907D01*
X124894555Y-97927990D01*
X124894359Y-97928000D01*
X124838000Y-97928000D01*
X124836268Y-97927000D01*
X124836268Y-97925000D01*
X124837804Y-97924010D01*
X124854773Y-97922339D01*
X124870907Y-97917444D01*
X124885774Y-97909498D01*
X124898804Y-97898804D01*
X124909498Y-97885774D01*
X124917444Y-97870907D01*
X124922339Y-97854773D01*
X124924000Y-97837906D01*
X124924000Y-97037094D01*
X124922339Y-97020227D01*
X124917444Y-97004093D01*
X124909498Y-96989226D01*
X124898804Y-96976196D01*
X124885774Y-96965502D01*
X124870907Y-96957556D01*
X124854773Y-96952661D01*
X124837906Y-96951000D01*
X124662094Y-96951000D01*
X124645227Y-96952661D01*
X124629093Y-96957556D01*
X124614226Y-96965502D01*
X124601196Y-96976196D01*
X124590502Y-96989226D01*
X124582556Y-97004093D01*
X124577661Y-97020227D01*
X124576000Y-97037094D01*
X124576000Y-97837906D01*
X124577661Y-97854773D01*
X124582556Y-97870907D01*
X124590502Y-97885774D01*
X124601196Y-97898804D01*
X124614226Y-97909498D01*
X124629093Y-97917444D01*
X124645227Y-97922339D01*
X124662196Y-97924010D01*
X124663822Y-97925175D01*
X124663626Y-97927165D01*
X124662000Y-97928000D01*
X124605641Y-97928000D01*
X124605445Y-97927990D01*
X124594449Y-97926907D01*
X124594064Y-97926831D01*
X124589390Y-97925413D01*
X124589028Y-97925263D01*
X124584727Y-97922964D01*
X124584401Y-97922746D01*
X124578104Y-97917579D01*
X124557977Y-97904130D01*
X124535703Y-97894904D01*
X124512052Y-97890200D01*
X124487946Y-97890200D01*
X124464296Y-97894905D01*
X124442022Y-97904131D01*
X124421896Y-97917579D01*
X124415599Y-97922746D01*
X124415273Y-97922964D01*
X124410972Y-97925263D01*
X124410610Y-97925413D01*
X124405936Y-97926831D01*
X124405551Y-97926907D01*
X124394555Y-97927990D01*
X124394359Y-97928000D01*
X124338000Y-97928000D01*
X124336268Y-97927000D01*
X124336268Y-97925000D01*
X124337804Y-97924010D01*
X124354773Y-97922339D01*
X124370907Y-97917444D01*
X124385774Y-97909498D01*
X124398804Y-97898804D01*
X124409498Y-97885774D01*
X124417444Y-97870907D01*
X124422339Y-97854773D01*
X124424000Y-97837906D01*
X124424000Y-97037094D01*
X124422339Y-97020227D01*
X124417444Y-97004093D01*
X124409498Y-96989226D01*
X124398804Y-96976196D01*
X124385774Y-96965502D01*
X124370907Y-96957556D01*
X124354773Y-96952661D01*
X124337906Y-96951000D01*
X124162094Y-96951000D01*
X124145227Y-96952661D01*
X124129093Y-96957556D01*
X124114226Y-96965502D01*
X124101196Y-96976196D01*
X124090502Y-96989226D01*
X124082556Y-97004093D01*
X124077661Y-97020227D01*
X124076000Y-97037094D01*
X124076000Y-97837906D01*
X124077661Y-97854773D01*
X124082556Y-97870907D01*
X124090502Y-97885774D01*
X124101196Y-97898804D01*
X124114226Y-97909498D01*
X124129093Y-97917444D01*
X124145227Y-97922339D01*
X124162196Y-97924010D01*
X124163822Y-97925175D01*
X124163626Y-97927165D01*
X124162000Y-97928000D01*
X124105641Y-97928000D01*
X124105445Y-97927990D01*
X124094449Y-97926907D01*
X124094064Y-97926831D01*
X124089390Y-97925413D01*
X124089028Y-97925263D01*
X124084727Y-97922964D01*
X124084401Y-97922746D01*
X124078104Y-97917579D01*
X124057977Y-97904130D01*
X124035703Y-97894904D01*
X124012052Y-97890200D01*
X123987946Y-97890200D01*
X123964296Y-97894905D01*
X123942022Y-97904131D01*
X123921896Y-97917579D01*
X123915599Y-97922746D01*
X123915273Y-97922964D01*
X123910972Y-97925263D01*
X123910610Y-97925413D01*
X123905936Y-97926831D01*
X123905551Y-97926907D01*
X123894555Y-97927990D01*
X123894359Y-97928000D01*
X123838000Y-97928000D01*
X123836268Y-97927000D01*
X123836268Y-97925000D01*
X123837804Y-97924010D01*
X123854773Y-97922339D01*
X123870907Y-97917444D01*
X123885774Y-97909498D01*
X123898804Y-97898804D01*
X123909498Y-97885774D01*
X123917444Y-97870907D01*
X123922339Y-97854773D01*
X123924000Y-97837906D01*
X123924000Y-97037094D01*
X123922339Y-97020227D01*
X123917444Y-97004093D01*
X123909498Y-96989226D01*
X123898804Y-96976196D01*
X123885774Y-96965502D01*
X123870907Y-96957556D01*
X123854773Y-96952661D01*
X123837906Y-96951000D01*
X123662094Y-96951000D01*
X123645227Y-96952661D01*
X123629093Y-96957556D01*
X123614226Y-96965502D01*
X123601196Y-96976196D01*
X123590502Y-96989226D01*
X123582556Y-97004093D01*
X123577661Y-97020227D01*
X123576000Y-97037094D01*
X123576000Y-97837906D01*
X123577661Y-97854773D01*
X123582556Y-97870907D01*
X123590502Y-97885774D01*
X123601196Y-97898804D01*
X123614226Y-97909498D01*
X123629093Y-97917444D01*
X123645227Y-97922339D01*
X123662196Y-97924010D01*
X123663822Y-97925175D01*
X123663626Y-97927165D01*
X123662000Y-97928000D01*
X123605641Y-97928000D01*
X123605445Y-97927990D01*
X123594449Y-97926907D01*
X123594064Y-97926831D01*
X123589390Y-97925413D01*
X123589028Y-97925263D01*
X123584727Y-97922964D01*
X123584401Y-97922746D01*
X123578104Y-97917579D01*
X123557977Y-97904130D01*
X123535703Y-97894904D01*
X123512052Y-97890200D01*
X123487946Y-97890200D01*
X123464296Y-97894905D01*
X123442022Y-97904131D01*
X123421896Y-97917579D01*
X123415599Y-97922746D01*
X123415273Y-97922964D01*
X123410972Y-97925263D01*
X123410610Y-97925413D01*
X123405936Y-97926831D01*
X123405551Y-97926907D01*
X123394555Y-97927990D01*
X123394359Y-97928000D01*
X123338000Y-97928000D01*
X123336268Y-97927000D01*
X123336268Y-97925000D01*
X123337804Y-97924010D01*
X123354773Y-97922339D01*
X123370907Y-97917444D01*
X123385774Y-97909498D01*
X123398804Y-97898804D01*
X123409498Y-97885774D01*
X123417444Y-97870907D01*
X123422339Y-97854773D01*
X123424000Y-97837906D01*
X123424000Y-97037094D01*
X123422339Y-97020227D01*
X123417444Y-97004093D01*
X123409498Y-96989226D01*
X123398804Y-96976196D01*
X123385774Y-96965502D01*
X123370907Y-96957556D01*
X123354773Y-96952661D01*
X123337906Y-96951000D01*
X123162094Y-96951000D01*
X123145227Y-96952661D01*
X123129093Y-96957556D01*
X123114226Y-96965502D01*
X123101196Y-96976196D01*
X123090502Y-96989226D01*
X123082556Y-97004093D01*
X123077661Y-97020227D01*
X123076000Y-97037094D01*
X123076000Y-97837906D01*
X123077661Y-97854773D01*
X123082556Y-97870907D01*
X123090502Y-97885774D01*
X123101196Y-97898804D01*
X123114226Y-97909498D01*
X123129093Y-97917444D01*
X123145227Y-97922339D01*
X123162196Y-97924010D01*
X123163822Y-97925175D01*
X123163626Y-97927165D01*
X123162000Y-97928000D01*
X123105641Y-97928000D01*
X123105445Y-97927990D01*
X123094449Y-97926907D01*
X123094064Y-97926831D01*
X123089390Y-97925413D01*
X123089028Y-97925263D01*
X123084727Y-97922964D01*
X123084401Y-97922746D01*
X123078104Y-97917579D01*
X123057977Y-97904130D01*
X123035703Y-97894904D01*
X123012052Y-97890200D01*
X122987946Y-97890200D01*
X122964296Y-97894905D01*
X122942022Y-97904131D01*
X122921896Y-97917579D01*
X122915599Y-97922746D01*
X122915273Y-97922964D01*
X122910972Y-97925263D01*
X122910610Y-97925413D01*
X122905936Y-97926831D01*
X122905551Y-97926907D01*
X122894555Y-97927990D01*
X122894359Y-97928000D01*
X122838000Y-97928000D01*
X122836268Y-97927000D01*
X122836268Y-97925000D01*
X122837804Y-97924010D01*
X122854773Y-97922339D01*
X122870907Y-97917444D01*
X122885774Y-97909498D01*
X122898804Y-97898804D01*
X122909498Y-97885774D01*
X122917444Y-97870907D01*
X122922339Y-97854773D01*
X122924000Y-97837906D01*
X122924000Y-97037094D01*
X122922339Y-97020227D01*
X122917444Y-97004093D01*
X122909498Y-96989226D01*
X122898804Y-96976196D01*
X122885774Y-96965502D01*
X122870907Y-96957556D01*
X122854773Y-96952661D01*
X122837906Y-96951000D01*
X122662094Y-96951000D01*
X122645227Y-96952661D01*
X122629093Y-96957556D01*
X122614226Y-96965502D01*
X122601196Y-96976196D01*
X122590502Y-96989226D01*
X122582556Y-97004093D01*
X122577661Y-97020227D01*
X122576000Y-97037094D01*
X122576000Y-97837906D01*
X122577661Y-97854773D01*
X122582556Y-97870907D01*
X122590502Y-97885774D01*
X122601196Y-97898804D01*
X122614226Y-97909498D01*
X122629093Y-97917444D01*
X122645227Y-97922339D01*
X122662196Y-97924010D01*
X122663822Y-97925175D01*
X122663626Y-97927165D01*
X122662000Y-97928000D01*
X122605641Y-97928000D01*
X122605445Y-97927990D01*
X122594449Y-97926907D01*
X122594064Y-97926831D01*
X122589390Y-97925413D01*
X122589028Y-97925263D01*
X122584727Y-97922964D01*
X122584401Y-97922746D01*
X122578104Y-97917579D01*
X122557977Y-97904130D01*
X122535703Y-97894904D01*
X122512052Y-97890200D01*
X122487946Y-97890200D01*
X122464296Y-97894905D01*
X122442022Y-97904131D01*
X122421896Y-97917579D01*
X122415599Y-97922746D01*
X122415273Y-97922964D01*
X122410972Y-97925263D01*
X122410610Y-97925413D01*
X122405936Y-97926831D01*
X122405551Y-97926907D01*
X122394555Y-97927990D01*
X122394359Y-97928000D01*
X122338000Y-97928000D01*
X122336268Y-97927000D01*
X122336268Y-97925000D01*
X122337804Y-97924010D01*
X122354773Y-97922339D01*
X122370907Y-97917444D01*
X122385774Y-97909498D01*
X122398804Y-97898804D01*
X122409498Y-97885774D01*
X122417444Y-97870907D01*
X122422339Y-97854773D01*
X122424000Y-97837906D01*
X122424000Y-97037094D01*
X122422339Y-97020227D01*
X122417444Y-97004093D01*
X122409498Y-96989226D01*
X122398804Y-96976196D01*
X122385774Y-96965502D01*
X122370907Y-96957556D01*
X122354773Y-96952661D01*
X122337906Y-96951000D01*
X122162094Y-96951000D01*
X122145227Y-96952661D01*
X122129093Y-96957556D01*
X122114226Y-96965502D01*
X122101196Y-96976196D01*
X122090502Y-96989226D01*
X122082556Y-97004093D01*
X122077661Y-97020227D01*
X122076000Y-97037094D01*
X122076000Y-97050999D01*
X122075000Y-97052731D01*
X122073000Y-97052731D01*
X122072010Y-97051195D01*
X122069628Y-97027008D01*
X122062628Y-97003933D01*
X122051263Y-96982669D01*
X122035968Y-96964032D01*
X122017331Y-96948737D01*
X121996067Y-96937372D01*
X121972992Y-96930372D01*
X121948805Y-96927990D01*
X121947179Y-96926825D01*
X121947375Y-96924835D01*
X121949001Y-96924000D01*
X121962906Y-96924000D01*
X121979773Y-96922339D01*
X121995907Y-96917444D01*
X122010774Y-96909498D01*
X122023804Y-96898804D01*
X122034498Y-96885774D01*
X122042444Y-96870907D01*
X122047339Y-96854773D01*
X122049000Y-96837906D01*
X122049000Y-96662094D01*
X122047339Y-96645227D01*
X122042444Y-96629093D01*
X122034498Y-96614226D01*
X122023804Y-96601196D01*
X122010774Y-96590502D01*
X121995907Y-96582556D01*
X121979773Y-96577661D01*
X121962906Y-96576000D01*
X121162094Y-96576000D01*
X121145227Y-96577661D01*
X121129093Y-96582556D01*
X121114226Y-96590502D01*
X121101196Y-96601196D01*
X121090502Y-96614226D01*
X121082556Y-96629093D01*
X121077661Y-96645227D01*
X121075990Y-96662196D01*
X121074825Y-96663822D01*
X121072835Y-96663626D01*
X121072000Y-96662000D01*
X121072000Y-96605641D01*
X121072010Y-96605445D01*
X121073093Y-96594449D01*
X121073169Y-96594064D01*
X121074587Y-96589390D01*
X121074737Y-96589028D01*
X121077036Y-96584727D01*
X121077254Y-96584401D01*
X121082421Y-96578104D01*
X121095870Y-96557977D01*
X121105096Y-96535703D01*
X121109800Y-96512052D01*
X121109800Y-96487946D01*
X121105095Y-96464296D01*
X121095869Y-96442022D01*
X121082421Y-96421896D01*
X121077254Y-96415599D01*
X121077036Y-96415273D01*
X121074737Y-96410972D01*
X121074587Y-96410610D01*
X121073169Y-96405936D01*
X121073093Y-96405551D01*
X121072010Y-96394555D01*
X121072000Y-96394359D01*
X121072000Y-96338000D01*
X121073000Y-96336268D01*
X121075000Y-96336268D01*
X121075990Y-96337804D01*
X121077661Y-96354773D01*
X121082556Y-96370907D01*
X121090502Y-96385774D01*
X121101196Y-96398804D01*
X121114226Y-96409498D01*
X121129093Y-96417444D01*
X121145227Y-96422339D01*
X121162094Y-96424000D01*
X121962906Y-96424000D01*
X121979773Y-96422339D01*
X121995907Y-96417444D01*
X122010774Y-96409498D01*
X122023804Y-96398804D01*
X122034498Y-96385774D01*
X122042444Y-96370907D01*
X122047339Y-96354773D01*
X122049000Y-96337906D01*
X122049000Y-96162094D01*
X122047339Y-96145227D01*
X122042444Y-96129093D01*
X122034498Y-96114226D01*
X122023804Y-96101196D01*
X122010774Y-96090502D01*
X121995907Y-96082556D01*
X121979773Y-96077661D01*
X121962906Y-96076000D01*
X121162094Y-96076000D01*
X121145227Y-96077661D01*
X121129093Y-96082556D01*
X121114226Y-96090502D01*
X121101196Y-96101196D01*
X121090502Y-96114226D01*
X121082556Y-96129093D01*
X121077661Y-96145227D01*
X121075990Y-96162196D01*
X121074825Y-96163822D01*
X121072835Y-96163626D01*
X121072000Y-96162000D01*
X121072000Y-96105641D01*
X121072010Y-96105445D01*
X121073093Y-96094449D01*
X121073169Y-96094064D01*
X121074587Y-96089390D01*
X121074737Y-96089028D01*
X121077036Y-96084727D01*
X121077254Y-96084401D01*
X121082421Y-96078104D01*
X121095870Y-96057977D01*
X121105096Y-96035703D01*
X121109800Y-96012052D01*
X121109800Y-95987946D01*
X121105095Y-95964296D01*
X121095869Y-95942022D01*
X121082421Y-95921896D01*
X121077254Y-95915599D01*
X121077036Y-95915273D01*
X121074737Y-95910972D01*
X121074587Y-95910610D01*
X121073169Y-95905936D01*
X121073093Y-95905551D01*
X121072010Y-95894555D01*
X121072000Y-95894359D01*
X121072000Y-95838000D01*
X121073000Y-95836268D01*
X121075000Y-95836268D01*
X121075990Y-95837804D01*
X121077661Y-95854773D01*
X121082556Y-95870907D01*
X121090502Y-95885774D01*
X121101196Y-95898804D01*
X121114226Y-95909498D01*
X121129093Y-95917444D01*
X121145227Y-95922339D01*
X121162094Y-95924000D01*
X121962906Y-95924000D01*
X121979773Y-95922339D01*
X121995907Y-95917444D01*
X122010774Y-95909498D01*
X122023804Y-95898804D01*
X122034498Y-95885774D01*
X122042444Y-95870907D01*
X122047339Y-95854773D01*
X122049000Y-95837906D01*
X122049000Y-95662094D01*
X122047339Y-95645227D01*
X122042444Y-95629093D01*
X122034498Y-95614226D01*
X122023804Y-95601196D01*
X122010774Y-95590502D01*
X121995907Y-95582556D01*
X121979773Y-95577661D01*
X121962906Y-95576000D01*
X121162094Y-95576000D01*
X121145227Y-95577661D01*
X121129093Y-95582556D01*
X121114226Y-95590502D01*
X121101196Y-95601196D01*
X121090502Y-95614226D01*
X121082556Y-95629093D01*
X121077661Y-95645227D01*
X121075990Y-95662196D01*
X121074825Y-95663822D01*
X121072835Y-95663626D01*
X121072000Y-95662000D01*
X121072000Y-95605641D01*
X121072010Y-95605445D01*
X121073093Y-95594449D01*
X121073169Y-95594064D01*
X121074587Y-95589390D01*
X121074737Y-95589028D01*
X121077036Y-95584727D01*
X121077254Y-95584401D01*
X121082421Y-95578104D01*
X121095870Y-95557977D01*
X121105096Y-95535703D01*
X121109800Y-95512052D01*
X121109800Y-95487946D01*
X121105095Y-95464296D01*
X121095869Y-95442022D01*
X121082421Y-95421896D01*
X121077254Y-95415599D01*
X121077036Y-95415273D01*
X121074737Y-95410972D01*
X121074587Y-95410610D01*
X121073169Y-95405936D01*
X121073093Y-95405551D01*
X121072010Y-95394555D01*
X121072000Y-95394359D01*
X121072000Y-95338000D01*
X121073000Y-95336268D01*
X121075000Y-95336268D01*
X121075990Y-95337804D01*
X121077661Y-95354773D01*
X121082556Y-95370907D01*
X121090502Y-95385774D01*
X121101196Y-95398804D01*
X121114226Y-95409498D01*
X121129093Y-95417444D01*
X121145227Y-95422339D01*
X121162094Y-95424000D01*
X121962906Y-95424000D01*
X121979773Y-95422339D01*
X121995907Y-95417444D01*
X122010774Y-95409498D01*
X122023804Y-95398804D01*
X122034498Y-95385774D01*
X122042444Y-95370907D01*
X122047339Y-95354773D01*
X122049000Y-95337906D01*
X122049000Y-95162094D01*
X122047339Y-95145227D01*
X122042444Y-95129093D01*
X122034498Y-95114226D01*
X122023804Y-95101196D01*
X122010774Y-95090502D01*
X121995907Y-95082556D01*
X121979773Y-95077661D01*
X121962906Y-95076000D01*
X121162094Y-95076000D01*
X121145227Y-95077661D01*
X121129093Y-95082556D01*
X121114226Y-95090502D01*
X121101196Y-95101196D01*
X121090502Y-95114226D01*
X121082556Y-95129093D01*
X121077661Y-95145227D01*
X121075990Y-95162196D01*
X121074825Y-95163822D01*
X121072835Y-95163626D01*
X121072000Y-95162000D01*
X121072000Y-95105641D01*
X121072010Y-95105445D01*
X121073093Y-95094449D01*
X121073169Y-95094064D01*
X121074587Y-95089390D01*
X121074737Y-95089028D01*
X121077036Y-95084727D01*
X121077254Y-95084401D01*
X121082421Y-95078104D01*
X121095870Y-95057977D01*
X121105096Y-95035703D01*
X121109800Y-95012052D01*
X121109800Y-94987946D01*
X121105095Y-94964296D01*
X121095869Y-94942022D01*
X121082421Y-94921896D01*
X121077254Y-94915599D01*
X121077036Y-94915273D01*
X121074737Y-94910972D01*
X121074587Y-94910610D01*
X121073169Y-94905936D01*
X121073093Y-94905551D01*
X121072010Y-94894555D01*
X121072000Y-94894359D01*
X121072000Y-94838000D01*
X121073000Y-94836268D01*
X121075000Y-94836268D01*
X121075990Y-94837804D01*
X121077661Y-94854773D01*
X121082556Y-94870907D01*
X121090502Y-94885774D01*
X121101196Y-94898804D01*
X121114226Y-94909498D01*
X121129093Y-94917444D01*
X121145227Y-94922339D01*
X121162094Y-94924000D01*
X121962906Y-94924000D01*
X121979773Y-94922339D01*
X121995907Y-94917444D01*
X122010774Y-94909498D01*
X122023804Y-94898804D01*
X122034498Y-94885774D01*
X122042444Y-94870907D01*
X122047339Y-94854773D01*
X122049000Y-94837906D01*
X122049000Y-94662094D01*
X122047339Y-94645227D01*
X122042444Y-94629093D01*
X122034498Y-94614226D01*
X122023804Y-94601196D01*
X122010774Y-94590502D01*
X121995907Y-94582556D01*
X121979773Y-94577661D01*
X121962906Y-94576000D01*
X121162094Y-94576000D01*
X121145227Y-94577661D01*
X121129093Y-94582556D01*
X121114226Y-94590502D01*
X121101196Y-94601196D01*
X121090502Y-94614226D01*
X121082556Y-94629093D01*
X121077661Y-94645227D01*
X121075990Y-94662196D01*
X121074825Y-94663822D01*
X121072835Y-94663626D01*
X121072000Y-94662000D01*
X121072000Y-94605641D01*
X121072010Y-94605445D01*
X121073093Y-94594449D01*
X121073169Y-94594064D01*
X121074587Y-94589390D01*
X121074737Y-94589028D01*
X121077036Y-94584727D01*
X121077254Y-94584401D01*
X121082421Y-94578104D01*
X121095870Y-94557977D01*
X121105096Y-94535703D01*
X121109800Y-94512052D01*
X121109800Y-94487946D01*
X121105095Y-94464296D01*
X121095869Y-94442022D01*
X121082421Y-94421896D01*
X121077254Y-94415599D01*
X121077036Y-94415273D01*
X121074737Y-94410972D01*
X121074587Y-94410610D01*
X121073169Y-94405936D01*
X121073093Y-94405551D01*
X121072010Y-94394555D01*
X121072000Y-94394359D01*
X121072000Y-94338000D01*
X121073000Y-94336268D01*
X121075000Y-94336268D01*
X121075990Y-94337804D01*
X121077661Y-94354773D01*
X121082556Y-94370907D01*
X121090502Y-94385774D01*
X121101196Y-94398804D01*
X121114226Y-94409498D01*
X121129093Y-94417444D01*
X121145227Y-94422339D01*
X121162094Y-94424000D01*
X121962906Y-94424000D01*
X121979773Y-94422339D01*
X121995907Y-94417444D01*
X122010774Y-94409498D01*
X122023804Y-94398804D01*
X122034498Y-94385774D01*
X122042444Y-94370907D01*
X122047339Y-94354773D01*
X122049000Y-94337906D01*
X122049000Y-94162094D01*
X122047339Y-94145227D01*
X122042444Y-94129093D01*
X122034498Y-94114226D01*
X122023804Y-94101196D01*
X122010774Y-94090502D01*
X121995907Y-94082556D01*
X121979773Y-94077661D01*
X121962906Y-94076000D01*
X121162094Y-94076000D01*
X121145227Y-94077661D01*
X121129093Y-94082556D01*
X121114226Y-94090502D01*
X121101196Y-94101196D01*
X121090502Y-94114226D01*
X121082556Y-94129093D01*
X121077661Y-94145227D01*
X121075990Y-94162196D01*
X121074825Y-94163822D01*
X121072835Y-94163626D01*
X121072000Y-94162000D01*
X121072000Y-94105641D01*
X121072010Y-94105445D01*
X121073093Y-94094449D01*
X121073169Y-94094064D01*
X121074587Y-94089390D01*
X121074737Y-94089028D01*
X121077036Y-94084727D01*
X121077254Y-94084401D01*
X121082421Y-94078104D01*
X121095870Y-94057977D01*
X121105096Y-94035703D01*
X121109800Y-94012052D01*
X121109800Y-93987946D01*
X121105095Y-93964296D01*
X121095869Y-93942022D01*
X121082421Y-93921896D01*
X121077254Y-93915599D01*
X121077036Y-93915273D01*
X121074737Y-93910972D01*
X121074587Y-93910610D01*
X121073169Y-93905936D01*
X121073093Y-93905551D01*
X121072010Y-93894555D01*
X121072000Y-93894359D01*
X121072000Y-93838000D01*
X121073000Y-93836268D01*
X121075000Y-93836268D01*
X121075990Y-93837804D01*
X121077661Y-93854773D01*
X121082556Y-93870907D01*
X121090502Y-93885774D01*
X121101196Y-93898804D01*
X121114226Y-93909498D01*
X121129093Y-93917444D01*
X121145227Y-93922339D01*
X121162094Y-93924000D01*
X121962906Y-93924000D01*
X121979773Y-93922339D01*
X121995907Y-93917444D01*
X122010774Y-93909498D01*
X122023804Y-93898804D01*
X122034498Y-93885774D01*
X122042444Y-93870907D01*
X122047339Y-93854773D01*
X122049000Y-93837906D01*
X122049000Y-93662094D01*
X122047339Y-93645227D01*
X122042444Y-93629093D01*
X122034498Y-93614226D01*
X122023804Y-93601196D01*
X122010774Y-93590502D01*
X121995907Y-93582556D01*
X121979773Y-93577661D01*
X121962906Y-93576000D01*
X121162094Y-93576000D01*
X121145227Y-93577661D01*
X121129093Y-93582556D01*
X121114226Y-93590502D01*
X121101196Y-93601196D01*
X121090502Y-93614226D01*
X121082556Y-93629093D01*
X121077661Y-93645227D01*
X121075990Y-93662196D01*
X121074825Y-93663822D01*
X121072835Y-93663626D01*
X121072000Y-93662000D01*
X121072000Y-93605641D01*
X121072010Y-93605445D01*
X121073093Y-93594449D01*
X121073169Y-93594064D01*
X121074587Y-93589390D01*
X121074737Y-93589028D01*
X121077036Y-93584727D01*
X121077254Y-93584401D01*
X121082421Y-93578104D01*
X121095870Y-93557977D01*
X121105096Y-93535703D01*
X121109800Y-93512052D01*
X121109800Y-93487946D01*
X121105095Y-93464296D01*
X121095869Y-93442022D01*
X121082421Y-93421896D01*
X121077254Y-93415599D01*
X121077036Y-93415273D01*
X121074737Y-93410972D01*
X121074587Y-93410610D01*
X121073169Y-93405936D01*
X121073093Y-93405551D01*
X121072010Y-93394555D01*
X121072000Y-93394359D01*
X121072000Y-93338000D01*
X121073000Y-93336268D01*
X121075000Y-93336268D01*
X121075990Y-93337804D01*
X121077661Y-93354773D01*
X121082556Y-93370907D01*
X121090502Y-93385774D01*
X121101196Y-93398804D01*
X121114226Y-93409498D01*
X121129093Y-93417444D01*
X121145227Y-93422339D01*
X121162094Y-93424000D01*
X121962906Y-93424000D01*
X121979773Y-93422339D01*
X121995907Y-93417444D01*
X122010774Y-93409498D01*
X122023804Y-93398804D01*
X122034498Y-93385774D01*
X122042444Y-93370907D01*
X122047339Y-93354773D01*
X122049000Y-93337906D01*
X122049000Y-93162094D01*
X122047339Y-93145227D01*
X122042444Y-93129093D01*
X122034498Y-93114226D01*
X122023804Y-93101196D01*
X122010774Y-93090502D01*
X121995907Y-93082556D01*
X121979773Y-93077661D01*
X121962906Y-93076000D01*
X121162094Y-93076000D01*
X121145227Y-93077661D01*
X121129093Y-93082556D01*
X121114226Y-93090502D01*
X121101196Y-93101196D01*
X121090502Y-93114226D01*
X121082556Y-93129093D01*
X121077661Y-93145227D01*
X121075990Y-93162196D01*
X121074825Y-93163822D01*
X121072835Y-93163626D01*
X121072000Y-93162000D01*
X121072000Y-93105641D01*
X121072010Y-93105445D01*
X121073093Y-93094449D01*
X121073169Y-93094064D01*
X121074587Y-93089390D01*
X121074737Y-93089028D01*
X121077036Y-93084727D01*
X121077254Y-93084401D01*
X121082421Y-93078104D01*
X121095870Y-93057977D01*
X121105096Y-93035703D01*
X121109800Y-93012052D01*
X121109800Y-92987946D01*
X121105095Y-92964296D01*
X121095869Y-92942022D01*
X121082421Y-92921896D01*
X121077254Y-92915599D01*
X121077036Y-92915273D01*
X121074737Y-92910972D01*
X121074587Y-92910610D01*
X121073169Y-92905936D01*
X121073093Y-92905551D01*
X121072010Y-92894555D01*
X121072000Y-92894359D01*
X121072000Y-92838000D01*
X121073000Y-92836268D01*
X121075000Y-92836268D01*
X121075990Y-92837804D01*
X121077661Y-92854773D01*
X121082556Y-92870907D01*
X121090502Y-92885774D01*
X121101196Y-92898804D01*
X121114226Y-92909498D01*
X121129093Y-92917444D01*
X121145227Y-92922339D01*
X121162094Y-92924000D01*
X121962906Y-92924000D01*
X121979773Y-92922339D01*
X121995907Y-92917444D01*
X122010774Y-92909498D01*
X122023804Y-92898804D01*
X122034498Y-92885774D01*
X122042444Y-92870907D01*
X122047339Y-92854773D01*
X122049000Y-92837906D01*
X122049000Y-92662094D01*
X122047339Y-92645227D01*
X122042444Y-92629093D01*
X122034498Y-92614226D01*
X122023804Y-92601196D01*
X122010774Y-92590502D01*
X121995907Y-92582556D01*
X121979773Y-92577661D01*
X121962906Y-92576000D01*
X121162094Y-92576000D01*
X121145227Y-92577661D01*
X121129093Y-92582556D01*
X121114226Y-92590502D01*
X121101196Y-92601196D01*
X121090502Y-92614226D01*
X121082556Y-92629093D01*
X121077661Y-92645227D01*
X121075990Y-92662196D01*
X121074825Y-92663822D01*
X121072835Y-92663626D01*
X121072000Y-92662000D01*
X121072000Y-92605641D01*
X121072010Y-92605445D01*
X121073093Y-92594449D01*
X121073169Y-92594064D01*
X121074587Y-92589390D01*
X121074737Y-92589028D01*
X121077036Y-92584727D01*
X121077254Y-92584401D01*
X121082421Y-92578104D01*
X121095870Y-92557977D01*
X121105096Y-92535703D01*
X121109800Y-92512052D01*
X121109800Y-92487946D01*
X121105095Y-92464296D01*
X121095869Y-92442022D01*
X121082421Y-92421896D01*
X121077254Y-92415599D01*
X121077036Y-92415273D01*
X121074737Y-92410972D01*
X121074587Y-92410610D01*
X121073169Y-92405936D01*
X121073093Y-92405551D01*
X121072010Y-92394555D01*
X121072000Y-92394359D01*
X121072000Y-92338000D01*
X121073000Y-92336268D01*
X121075000Y-92336268D01*
X121075990Y-92337804D01*
X121077661Y-92354773D01*
X121082556Y-92370907D01*
X121090502Y-92385774D01*
X121101196Y-92398804D01*
X121114226Y-92409498D01*
X121129093Y-92417444D01*
X121145227Y-92422339D01*
X121162094Y-92424000D01*
X121962906Y-92424000D01*
X121979773Y-92422339D01*
X121995907Y-92417444D01*
X122010774Y-92409498D01*
X122023804Y-92398804D01*
X122034498Y-92385774D01*
X122042444Y-92370907D01*
X122047339Y-92354773D01*
X122049000Y-92337906D01*
X122049000Y-92162094D01*
X122047339Y-92145227D01*
X122042444Y-92129093D01*
X122034498Y-92114226D01*
X122023804Y-92101196D01*
X122010774Y-92090502D01*
X121995907Y-92082556D01*
X121979773Y-92077661D01*
X121962906Y-92076000D01*
X121162094Y-92076000D01*
X121145227Y-92077661D01*
X121129093Y-92082556D01*
X121114226Y-92090502D01*
X121101196Y-92101196D01*
X121090502Y-92114226D01*
X121082556Y-92129093D01*
X121077661Y-92145227D01*
X121075990Y-92162196D01*
X121074825Y-92163822D01*
X121072835Y-92163626D01*
X121072000Y-92162000D01*
X121072000Y-92105641D01*
X121072010Y-92105445D01*
X121073093Y-92094449D01*
X121073169Y-92094064D01*
X121074587Y-92089390D01*
X121074737Y-92089028D01*
X121077036Y-92084727D01*
X121077254Y-92084401D01*
X121082421Y-92078104D01*
X121095870Y-92057977D01*
X121105096Y-92035703D01*
X121109800Y-92012052D01*
X121109800Y-91987946D01*
X121105095Y-91964296D01*
X121095869Y-91942022D01*
X121082421Y-91921896D01*
X121077254Y-91915599D01*
X121077036Y-91915273D01*
X121074737Y-91910972D01*
X121074587Y-91910610D01*
X121073169Y-91905936D01*
X121073093Y-91905551D01*
X121072010Y-91894555D01*
X121072000Y-91894359D01*
X121072000Y-91838000D01*
X121073000Y-91836268D01*
X121075000Y-91836268D01*
X121075990Y-91837804D01*
X121077661Y-91854773D01*
X121082556Y-91870907D01*
X121090502Y-91885774D01*
X121101196Y-91898804D01*
X121114226Y-91909498D01*
X121129093Y-91917444D01*
X121145227Y-91922339D01*
X121162094Y-91924000D01*
X121962906Y-91924000D01*
X121979773Y-91922339D01*
X121995907Y-91917444D01*
X122010774Y-91909498D01*
X122023804Y-91898804D01*
X122034498Y-91885774D01*
X122042444Y-91870907D01*
X122047339Y-91854773D01*
X122049000Y-91837906D01*
X122049000Y-91662094D01*
X122047339Y-91645227D01*
X122042444Y-91629093D01*
X122034498Y-91614226D01*
X122023804Y-91601196D01*
X122010774Y-91590502D01*
X121995907Y-91582556D01*
X121979773Y-91577661D01*
X121962906Y-91576000D01*
X121162094Y-91576000D01*
X121145227Y-91577661D01*
X121129093Y-91582556D01*
X121114226Y-91590502D01*
X121101196Y-91601196D01*
X121090502Y-91614226D01*
X121082556Y-91629093D01*
X121077661Y-91645227D01*
X121075990Y-91662196D01*
X121074825Y-91663822D01*
X121072835Y-91663626D01*
X121072000Y-91662000D01*
X121072000Y-91605641D01*
X121072010Y-91605445D01*
X121073093Y-91594449D01*
X121073169Y-91594064D01*
X121074587Y-91589390D01*
X121074737Y-91589028D01*
X121077036Y-91584727D01*
X121077254Y-91584401D01*
X121082421Y-91578104D01*
X121095870Y-91557977D01*
X121105096Y-91535703D01*
X121109800Y-91512052D01*
X121109800Y-91487946D01*
X121105095Y-91464296D01*
X121095869Y-91442022D01*
X121082421Y-91421896D01*
X121077254Y-91415599D01*
X121077036Y-91415273D01*
X121074737Y-91410972D01*
X121074587Y-91410610D01*
X121073169Y-91405936D01*
X121073093Y-91405551D01*
X121072010Y-91394555D01*
X121072000Y-91394359D01*
X121072000Y-91338000D01*
X121073000Y-91336268D01*
X121075000Y-91336268D01*
X121075990Y-91337804D01*
X121077661Y-91354773D01*
X121082556Y-91370907D01*
X121090502Y-91385774D01*
X121101196Y-91398804D01*
X121114226Y-91409498D01*
X121129093Y-91417444D01*
X121145227Y-91422339D01*
X121162094Y-91424000D01*
X121962906Y-91424000D01*
X121979773Y-91422339D01*
X121995907Y-91417444D01*
X122010774Y-91409498D01*
X122023804Y-91398804D01*
X122034498Y-91385774D01*
X122042444Y-91370907D01*
X122047339Y-91354773D01*
X122049000Y-91337906D01*
X122049000Y-91162094D01*
X122047908Y-91151000D01*
X122151000Y-91151000D01*
X122151000Y-96849000D01*
X127849000Y-96849000D01*
X127849000Y-91151000D01*
X122151000Y-91151000D01*
X122047908Y-91151000D01*
X122047339Y-91145227D01*
X122042444Y-91129093D01*
X122034498Y-91114226D01*
X122023804Y-91101196D01*
X122010774Y-91090502D01*
X121995907Y-91082556D01*
X121979773Y-91077661D01*
X121962906Y-91076000D01*
X121949001Y-91076000D01*
X121947269Y-91075000D01*
X121947269Y-91073000D01*
X121948805Y-91072010D01*
X121972992Y-91069628D01*
X121996067Y-91062628D01*
X122017331Y-91051263D01*
X122035968Y-91035968D01*
X122051263Y-91017331D01*
X122062628Y-90996067D01*
X122069628Y-90972992D01*
X122072010Y-90948805D01*
X122073175Y-90947179D01*
X122075165Y-90947375D01*
X122076000Y-90949001D01*
X122076000Y-90962906D01*
X122077661Y-90979773D01*
X122082556Y-90995907D01*
X122090502Y-91010774D01*
X122101196Y-91023804D01*
X122114226Y-91034498D01*
X122129093Y-91042444D01*
X122145227Y-91047339D01*
X122162094Y-91049000D01*
X122337906Y-91049000D01*
X122354773Y-91047339D01*
X122370907Y-91042444D01*
X122385774Y-91034498D01*
X122398804Y-91023804D01*
X122409498Y-91010774D01*
X122417444Y-90995907D01*
X122422339Y-90979773D01*
X122424000Y-90962906D01*
X122424000Y-90162094D01*
X122422339Y-90145227D01*
X122417444Y-90129093D01*
X122409498Y-90114226D01*
X122398804Y-90101196D01*
X122385774Y-90090502D01*
X122370907Y-90082556D01*
X122354773Y-90077661D01*
X122337804Y-90075990D01*
X122336178Y-90074825D01*
X122336374Y-90072835D01*
X122338000Y-90072000D01*
X122394359Y-90072000D01*
X122394555Y-90072010D01*
G37*
G36*
X108982732Y-97800000D02*
G01*
X108983000Y-97801000D01*
X108983000Y-97899000D01*
X108982000Y-97900732D01*
X108981000Y-97901000D01*
X107429000Y-97901000D01*
X107427268Y-97900000D01*
X107427000Y-97899000D01*
X107427000Y-97801000D01*
X107428000Y-97799268D01*
X107429000Y-97799000D01*
X108981000Y-97799000D01*
X108982732Y-97800000D01*
G37*
G36*
X108982732Y-96950000D02*
G01*
X108983000Y-96951000D01*
X108983000Y-97099000D01*
X108982000Y-97100732D01*
X108981000Y-97101000D01*
X107429000Y-97101000D01*
X107427268Y-97100000D01*
X107427000Y-97099000D01*
X107427000Y-96951000D01*
X107428000Y-96949268D01*
X107429000Y-96949000D01*
X108981000Y-96949000D01*
X108982732Y-96950000D01*
G37*
G36*
X108982732Y-96450000D02*
G01*
X108983000Y-96451000D01*
X108983000Y-96549000D01*
X108982000Y-96550732D01*
X108981000Y-96551000D01*
X107429000Y-96551000D01*
X107427268Y-96550000D01*
X107427000Y-96549000D01*
X107427000Y-96451000D01*
X107428000Y-96449268D01*
X107429000Y-96449000D01*
X108981000Y-96449000D01*
X108982732Y-96450000D01*
G37*
G36*
X108982732Y-95950000D02*
G01*
X108983000Y-95951000D01*
X108983000Y-96049000D01*
X108982000Y-96050732D01*
X108981000Y-96051000D01*
X107429000Y-96051000D01*
X107427268Y-96050000D01*
X107427000Y-96049000D01*
X107427000Y-95951000D01*
X107428000Y-95949268D01*
X107429000Y-95949000D01*
X108981000Y-95949000D01*
X108982732Y-95950000D01*
G37*
G36*
X108982732Y-95450000D02*
G01*
X108983000Y-95451000D01*
X108983000Y-95549000D01*
X108982000Y-95550732D01*
X108981000Y-95551000D01*
X107429000Y-95551000D01*
X107427268Y-95550000D01*
X107427000Y-95549000D01*
X107427000Y-95451000D01*
X107428000Y-95449268D01*
X107429000Y-95449000D01*
X108981000Y-95449000D01*
X108982732Y-95450000D01*
G37*
G36*
X108982732Y-94950000D02*
G01*
X108983000Y-94951000D01*
X108983000Y-95049000D01*
X108982000Y-95050732D01*
X108981000Y-95051000D01*
X107429000Y-95051000D01*
X107427268Y-95050000D01*
X107427000Y-95049000D01*
X107427000Y-94951000D01*
X107428000Y-94949268D01*
X107429000Y-94949000D01*
X108981000Y-94949000D01*
X108982732Y-94950000D01*
G37*
G36*
X108982732Y-94450000D02*
G01*
X108983000Y-94451000D01*
X108983000Y-94549000D01*
X108982000Y-94550732D01*
X108981000Y-94551000D01*
X107429000Y-94551000D01*
X107427268Y-94550000D01*
X107427000Y-94549000D01*
X107427000Y-94451000D01*
X107428000Y-94449268D01*
X107429000Y-94449000D01*
X108981000Y-94449000D01*
X108982732Y-94450000D01*
G37*
G36*
X108982732Y-93950000D02*
G01*
X108983000Y-93951000D01*
X108983000Y-94049000D01*
X108982000Y-94050732D01*
X108981000Y-94051000D01*
X107429000Y-94051000D01*
X107427268Y-94050000D01*
X107427000Y-94049000D01*
X107427000Y-93951000D01*
X107428000Y-93949268D01*
X107429000Y-93949000D01*
X108981000Y-93949000D01*
X108982732Y-93950000D01*
G37*
G36*
X108982732Y-93450000D02*
G01*
X108983000Y-93451000D01*
X108983000Y-93549000D01*
X108982000Y-93550732D01*
X108981000Y-93551000D01*
X107429000Y-93551000D01*
X107427268Y-93550000D01*
X107427000Y-93549000D01*
X107427000Y-93451000D01*
X107428000Y-93449268D01*
X107429000Y-93449000D01*
X108981000Y-93449000D01*
X108982732Y-93450000D01*
G37*
G36*
X108982732Y-92900000D02*
G01*
X108983000Y-92901000D01*
X108983000Y-93049000D01*
X108982000Y-93050732D01*
X108981000Y-93051000D01*
X107429000Y-93051000D01*
X107427268Y-93050000D01*
X107427000Y-93049000D01*
X107427000Y-92901000D01*
X107428000Y-92899268D01*
X107429000Y-92899000D01*
X108981000Y-92899000D01*
X108982732Y-92900000D01*
G37*
G36*
X108982732Y-92100000D02*
G01*
X108983000Y-92101000D01*
X108983000Y-92199000D01*
X108982000Y-92200732D01*
X108981000Y-92201000D01*
X107429000Y-92201000D01*
X107427268Y-92200000D01*
X107427000Y-92199000D01*
X107427000Y-92101000D01*
X107428000Y-92099268D01*
X107429000Y-92099000D01*
X108981000Y-92099000D01*
X108982732Y-92100000D01*
G37*
G36*
X108092861Y-91165474D02*
G01*
X108093804Y-91167237D01*
X108092916Y-91168835D01*
X108077807Y-91178930D01*
X108060760Y-91195977D01*
X108047366Y-91216024D01*
X108038139Y-91238298D01*
X108033435Y-91261948D01*
X108033435Y-91286054D01*
X108038139Y-91309704D01*
X108047366Y-91331978D01*
X108060761Y-91352026D01*
X108077808Y-91369073D01*
X108097855Y-91382467D01*
X108120086Y-91391677D01*
X108156125Y-91397022D01*
X108157692Y-91398265D01*
X108157399Y-91400243D01*
X108155832Y-91401000D01*
X107429000Y-91401000D01*
X107427268Y-91400000D01*
X107427000Y-91399000D01*
X107427000Y-91356093D01*
X107424628Y-91332008D01*
X107417628Y-91308933D01*
X107406263Y-91287669D01*
X107390968Y-91269032D01*
X107372331Y-91253737D01*
X107351067Y-91242372D01*
X107327992Y-91235372D01*
X107303805Y-91232990D01*
X107302179Y-91231825D01*
X107302375Y-91229835D01*
X107304001Y-91229000D01*
X107839906Y-91229000D01*
X107947100Y-91218443D01*
X108050090Y-91187201D01*
X108090862Y-91165408D01*
X108092861Y-91165474D01*
G37*
M02*
