M48
; DRILL file {KiCad (5.1.10-1-10_14)} date Thursday, August 26, 2021 at 12:22:13 AM
; FORMAT={-:-/ absolute / inch / decimal}
; #@! TF.CreationDate,2021-08-26T00:22:13+08:00
; #@! TF.GenerationSoftware,Kicad,Pcbnew,(5.1.10-1-10_14)
; #@! TF.FileFunction,Plated,1,4,PTH
FMAT,2
INCH
T1C0.0118
T2C0.0197
T3C0.0236
T4C0.0394
%
G90
G05
T1
X4.2118Y-4.2283
X4.2405Y-4.2304
X4.2697Y-4.3748
X4.3087Y-3.5311
X4.3424Y-3.9763
X4.3583Y-3.7795
X4.4079Y-3.7086
X4.505Y-3.815
X4.5307Y-3.8024
X4.5453Y-4.0787
X4.5673Y-3.776
X4.6043Y-3.5965
X4.648Y-3.611
X4.676Y-3.5921
X4.7063Y-3.8122
X4.7084Y-3.5849
X4.7354Y-3.5756
X4.7701Y-3.528
X4.8503Y-3.9644
X4.8614Y-4.1354
X4.8622Y-3.6417
X4.8622Y-3.7008
X4.8622Y-3.7598
X4.87Y-3.4723
X4.87Y-3.9881
X4.8897Y-3.4494
X4.8897Y-4.0134
X4.9094Y-3.4246
X4.9094Y-4.0398
X4.9213Y-3.6417
X4.9213Y-3.7008
X4.9213Y-3.7598
X4.9291Y-3.4016
X4.9291Y-4.0646
X4.9803Y-3.6417
X4.9803Y-3.7008
X4.9803Y-3.7598
X5.0685Y-3.8642
X5.1866Y-3.6189
X5.2157Y-3.3815
X5.3614Y-3.6323
X5.6732Y-3.5059
X5.7602Y-3.9736
T2
X4.0675Y-4.2811
X4.0675Y-4.3311
X4.0675Y-4.3811
X4.0675Y-4.4311
X4.0675Y-4.4811
X4.1175Y-4.2811
X4.1175Y-4.3311
X4.1175Y-4.3811
X4.1175Y-4.4311
X4.1175Y-4.4811
T4
X4.4118Y-3.0496
X4.4118Y-3.1496
X4.4118Y-4.3307
X4.4118Y-4.4307
X4.5118Y-3.0496
X4.5118Y-3.1496
X4.5118Y-4.3307
X4.5118Y-4.4307
X4.6118Y-3.0496
X4.6118Y-3.1496
X4.6118Y-4.3307
X4.6118Y-4.4307
X4.7118Y-3.0496
X4.7118Y-3.1496
X4.7118Y-4.3307
X4.7118Y-4.4307
X4.8118Y-3.0496
X4.8118Y-3.1496
X4.8118Y-4.3307
X4.8118Y-4.4307
X4.9118Y-3.0496
X4.9118Y-3.1496
X4.9118Y-4.3307
X4.9118Y-4.4307
X5.0118Y-3.0496
X5.0118Y-3.1496
X5.0118Y-4.3307
X5.0118Y-4.4307
X5.1118Y-3.0496
X5.1118Y-3.1496
X5.1118Y-4.3307
X5.1118Y-4.4307
X5.2118Y-3.0496
X5.2118Y-3.1496
X5.2118Y-4.3307
X5.2118Y-4.4307
X5.3118Y-3.0496
X5.3118Y-3.1496
X5.3118Y-4.3307
X5.3118Y-4.4307
X5.4118Y-3.0496
X5.4118Y-3.1496
X5.4118Y-4.3307
X5.4118Y-4.4307
X5.5118Y-3.0496
X5.5118Y-3.1496
X5.5118Y-4.3307
X5.5118Y-4.4307
T3
G00X4.0713Y-3.5898
M15
G01X4.0476Y-3.5898
M16
G05
G00X4.0713Y-3.9299
M15
G01X4.0476Y-3.9299
M16
G05
G00X4.2457Y-3.5898
M15
G01X4.2024Y-3.5898
M16
G05
G00X4.2457Y-3.9299
M15
G01X4.2024Y-3.9299
M16
G05
T0
M30
