G04 #@! TF.GenerationSoftware,KiCad,Pcbnew,(5.1.10-1-10_14)*
G04 #@! TF.CreationDate,2021-08-17T00:22:47+08:00*
G04 #@! TF.ProjectId,stm32f401_devboard,73746d33-3266-4343-9031-5f646576626f,rev?*
G04 #@! TF.SameCoordinates,Original*
G04 #@! TF.FileFunction,Paste,Top*
G04 #@! TF.FilePolarity,Positive*
%FSLAX46Y46*%
G04 Gerber Fmt 4.6, Leading zero omitted, Abs format (unit mm)*
G04 Created by KiCad (PCBNEW (5.1.10-1-10_14)) date 2021-08-17 00:22:47*
%MOMM*%
%LPD*%
G01*
G04 APERTURE LIST*
%ADD10R,1.200000X1.400000*%
%ADD11R,1.450000X0.600000*%
%ADD12R,1.450000X0.300000*%
%ADD13R,2.000000X1.500000*%
%ADD14R,2.000000X3.800000*%
%ADD15R,0.899998X1.699997*%
%ADD16R,1.800000X1.000000*%
G04 APERTURE END LIST*
G36*
G01*
X106575000Y-102130000D02*
X106945000Y-102130000D01*
G75*
G02*
X107080000Y-102265000I0J-135000D01*
G01*
X107080000Y-102535000D01*
G75*
G02*
X106945000Y-102670000I-135000J0D01*
G01*
X106575000Y-102670000D01*
G75*
G02*
X106440000Y-102535000I0J135000D01*
G01*
X106440000Y-102265000D01*
G75*
G02*
X106575000Y-102130000I135000J0D01*
G01*
G37*
G36*
G01*
X106575000Y-101110000D02*
X106945000Y-101110000D01*
G75*
G02*
X107080000Y-101245000I0J-135000D01*
G01*
X107080000Y-101515000D01*
G75*
G02*
X106945000Y-101650000I-135000J0D01*
G01*
X106575000Y-101650000D01*
G75*
G02*
X106440000Y-101515000I0J135000D01*
G01*
X106440000Y-101245000D01*
G75*
G02*
X106575000Y-101110000I135000J0D01*
G01*
G37*
G36*
G01*
X107600000Y-102090000D02*
X107940000Y-102090000D01*
G75*
G02*
X108080000Y-102230000I0J-140000D01*
G01*
X108080000Y-102510000D01*
G75*
G02*
X107940000Y-102650000I-140000J0D01*
G01*
X107600000Y-102650000D01*
G75*
G02*
X107460000Y-102510000I0J140000D01*
G01*
X107460000Y-102230000D01*
G75*
G02*
X107600000Y-102090000I140000J0D01*
G01*
G37*
G36*
G01*
X107600000Y-101130000D02*
X107940000Y-101130000D01*
G75*
G02*
X108080000Y-101270000I0J-140000D01*
G01*
X108080000Y-101550000D01*
G75*
G02*
X107940000Y-101690000I-140000J0D01*
G01*
X107600000Y-101690000D01*
G75*
G02*
X107460000Y-101550000I0J140000D01*
G01*
X107460000Y-101270000D01*
G75*
G02*
X107600000Y-101130000I140000J0D01*
G01*
G37*
G36*
G01*
X130070000Y-101032500D02*
X130070000Y-101507500D01*
G75*
G02*
X129832500Y-101745000I-237500J0D01*
G01*
X129257500Y-101745000D01*
G75*
G02*
X129020000Y-101507500I0J237500D01*
G01*
X129020000Y-101032500D01*
G75*
G02*
X129257500Y-100795000I237500J0D01*
G01*
X129832500Y-100795000D01*
G75*
G02*
X130070000Y-101032500I0J-237500D01*
G01*
G37*
G36*
G01*
X131820000Y-101032500D02*
X131820000Y-101507500D01*
G75*
G02*
X131582500Y-101745000I-237500J0D01*
G01*
X131007500Y-101745000D01*
G75*
G02*
X130770000Y-101507500I0J237500D01*
G01*
X130770000Y-101032500D01*
G75*
G02*
X131007500Y-100795000I237500J0D01*
G01*
X131582500Y-100795000D01*
G75*
G02*
X131820000Y-101032500I0J-237500D01*
G01*
G37*
G36*
G01*
X107410000Y-77117500D02*
X107410000Y-76642500D01*
G75*
G02*
X107647500Y-76405000I237500J0D01*
G01*
X108222500Y-76405000D01*
G75*
G02*
X108460000Y-76642500I0J-237500D01*
G01*
X108460000Y-77117500D01*
G75*
G02*
X108222500Y-77355000I-237500J0D01*
G01*
X107647500Y-77355000D01*
G75*
G02*
X107410000Y-77117500I0J237500D01*
G01*
G37*
G36*
G01*
X105660000Y-77117500D02*
X105660000Y-76642500D01*
G75*
G02*
X105897500Y-76405000I237500J0D01*
G01*
X106472500Y-76405000D01*
G75*
G02*
X106710000Y-76642500I0J-237500D01*
G01*
X106710000Y-77117500D01*
G75*
G02*
X106472500Y-77355000I-237500J0D01*
G01*
X105897500Y-77355000D01*
G75*
G02*
X105660000Y-77117500I0J237500D01*
G01*
G37*
G36*
G01*
X127885000Y-100630000D02*
X127575000Y-100630000D01*
G75*
G02*
X127420000Y-100475000I0J155000D01*
G01*
X127420000Y-100050000D01*
G75*
G02*
X127575000Y-99895000I155000J0D01*
G01*
X127885000Y-99895000D01*
G75*
G02*
X128040000Y-100050000I0J-155000D01*
G01*
X128040000Y-100475000D01*
G75*
G02*
X127885000Y-100630000I-155000J0D01*
G01*
G37*
G36*
G01*
X127885000Y-101765000D02*
X127575000Y-101765000D01*
G75*
G02*
X127420000Y-101610000I0J155000D01*
G01*
X127420000Y-101185000D01*
G75*
G02*
X127575000Y-101030000I155000J0D01*
G01*
X127885000Y-101030000D01*
G75*
G02*
X128040000Y-101185000I0J-155000D01*
G01*
X128040000Y-101610000D01*
G75*
G02*
X127885000Y-101765000I-155000J0D01*
G01*
G37*
G36*
G01*
X118300000Y-97015000D02*
X118300000Y-96705000D01*
G75*
G02*
X118455000Y-96550000I155000J0D01*
G01*
X118880000Y-96550000D01*
G75*
G02*
X119035000Y-96705000I0J-155000D01*
G01*
X119035000Y-97015000D01*
G75*
G02*
X118880000Y-97170000I-155000J0D01*
G01*
X118455000Y-97170000D01*
G75*
G02*
X118300000Y-97015000I0J155000D01*
G01*
G37*
G36*
G01*
X117165000Y-97015000D02*
X117165000Y-96705000D01*
G75*
G02*
X117320000Y-96550000I155000J0D01*
G01*
X117745000Y-96550000D01*
G75*
G02*
X117900000Y-96705000I0J-155000D01*
G01*
X117900000Y-97015000D01*
G75*
G02*
X117745000Y-97170000I-155000J0D01*
G01*
X117320000Y-97170000D01*
G75*
G02*
X117165000Y-97015000I0J155000D01*
G01*
G37*
G36*
G01*
X119438978Y-88921819D02*
X119658181Y-89141022D01*
G75*
G02*
X119658181Y-89360226I-109602J-109602D01*
G01*
X119357660Y-89660747D01*
G75*
G02*
X119138456Y-89660747I-109602J109602D01*
G01*
X118919253Y-89441544D01*
G75*
G02*
X118919253Y-89222340I109602J109602D01*
G01*
X119219774Y-88921819D01*
G75*
G02*
X119438978Y-88921819I109602J-109602D01*
G01*
G37*
G36*
G01*
X120241544Y-88119253D02*
X120460747Y-88338456D01*
G75*
G02*
X120460747Y-88557660I-109602J-109602D01*
G01*
X120160226Y-88858181D01*
G75*
G02*
X119941022Y-88858181I-109602J109602D01*
G01*
X119721819Y-88638978D01*
G75*
G02*
X119721819Y-88419774I109602J109602D01*
G01*
X120022340Y-88119253D01*
G75*
G02*
X120241544Y-88119253I109602J-109602D01*
G01*
G37*
G36*
G01*
X112030000Y-117695000D02*
X112030000Y-117385000D01*
G75*
G02*
X112185000Y-117230000I155000J0D01*
G01*
X112610000Y-117230000D01*
G75*
G02*
X112765000Y-117385000I0J-155000D01*
G01*
X112765000Y-117695000D01*
G75*
G02*
X112610000Y-117850000I-155000J0D01*
G01*
X112185000Y-117850000D01*
G75*
G02*
X112030000Y-117695000I0J155000D01*
G01*
G37*
G36*
G01*
X110895000Y-117695000D02*
X110895000Y-117385000D01*
G75*
G02*
X111050000Y-117230000I155000J0D01*
G01*
X111475000Y-117230000D01*
G75*
G02*
X111630000Y-117385000I0J-155000D01*
G01*
X111630000Y-117695000D01*
G75*
G02*
X111475000Y-117850000I-155000J0D01*
G01*
X111050000Y-117850000D01*
G75*
G02*
X110895000Y-117695000I0J155000D01*
G01*
G37*
D10*
X135530000Y-95280000D03*
X135530000Y-93080000D03*
X137230000Y-93080000D03*
X137230000Y-95280000D03*
D11*
X108205000Y-98250000D03*
X108205000Y-97450000D03*
X108205000Y-92550000D03*
X108205000Y-91750000D03*
X108205000Y-91750000D03*
X108205000Y-92550000D03*
X108205000Y-97450000D03*
X108205000Y-98250000D03*
D12*
X108205000Y-93250000D03*
X108205000Y-93750000D03*
X108205000Y-94250000D03*
X108205000Y-95250000D03*
X108205000Y-95750000D03*
X108205000Y-96250000D03*
X108205000Y-96750000D03*
X108205000Y-94750000D03*
D13*
X102500000Y-83160000D03*
X102500000Y-87760000D03*
X102500000Y-85460000D03*
D14*
X108800000Y-85460000D03*
D15*
X122519970Y-103760000D03*
X117920030Y-103760000D03*
X138930030Y-87190000D03*
X143529970Y-87190000D03*
G36*
G01*
X135925000Y-84020000D02*
X136295000Y-84020000D01*
G75*
G02*
X136430000Y-84155000I0J-135000D01*
G01*
X136430000Y-84425000D01*
G75*
G02*
X136295000Y-84560000I-135000J0D01*
G01*
X135925000Y-84560000D01*
G75*
G02*
X135790000Y-84425000I0J135000D01*
G01*
X135790000Y-84155000D01*
G75*
G02*
X135925000Y-84020000I135000J0D01*
G01*
G37*
G36*
G01*
X135925000Y-83000000D02*
X136295000Y-83000000D01*
G75*
G02*
X136430000Y-83135000I0J-135000D01*
G01*
X136430000Y-83405000D01*
G75*
G02*
X136295000Y-83540000I-135000J0D01*
G01*
X135925000Y-83540000D01*
G75*
G02*
X135790000Y-83405000I0J135000D01*
G01*
X135790000Y-83135000D01*
G75*
G02*
X135925000Y-83000000I135000J0D01*
G01*
G37*
G36*
G01*
X131660000Y-92935000D02*
X131660000Y-92565000D01*
G75*
G02*
X131795000Y-92430000I135000J0D01*
G01*
X132065000Y-92430000D01*
G75*
G02*
X132200000Y-92565000I0J-135000D01*
G01*
X132200000Y-92935000D01*
G75*
G02*
X132065000Y-93070000I-135000J0D01*
G01*
X131795000Y-93070000D01*
G75*
G02*
X131660000Y-92935000I0J135000D01*
G01*
G37*
G36*
G01*
X130640000Y-92935000D02*
X130640000Y-92565000D01*
G75*
G02*
X130775000Y-92430000I135000J0D01*
G01*
X131045000Y-92430000D01*
G75*
G02*
X131180000Y-92565000I0J-135000D01*
G01*
X131180000Y-92935000D01*
G75*
G02*
X131045000Y-93070000I-135000J0D01*
G01*
X130775000Y-93070000D01*
G75*
G02*
X130640000Y-92935000I0J135000D01*
G01*
G37*
G36*
G01*
X131485000Y-98630000D02*
X131115000Y-98630000D01*
G75*
G02*
X130980000Y-98495000I0J135000D01*
G01*
X130980000Y-98225000D01*
G75*
G02*
X131115000Y-98090000I135000J0D01*
G01*
X131485000Y-98090000D01*
G75*
G02*
X131620000Y-98225000I0J-135000D01*
G01*
X131620000Y-98495000D01*
G75*
G02*
X131485000Y-98630000I-135000J0D01*
G01*
G37*
G36*
G01*
X131485000Y-99650000D02*
X131115000Y-99650000D01*
G75*
G02*
X130980000Y-99515000I0J135000D01*
G01*
X130980000Y-99245000D01*
G75*
G02*
X131115000Y-99110000I135000J0D01*
G01*
X131485000Y-99110000D01*
G75*
G02*
X131620000Y-99245000I0J-135000D01*
G01*
X131620000Y-99515000D01*
G75*
G02*
X131485000Y-99650000I-135000J0D01*
G01*
G37*
G36*
G01*
X103920000Y-76685000D02*
X103920000Y-77055000D01*
G75*
G02*
X103785000Y-77190000I-135000J0D01*
G01*
X103515000Y-77190000D01*
G75*
G02*
X103380000Y-77055000I0J135000D01*
G01*
X103380000Y-76685000D01*
G75*
G02*
X103515000Y-76550000I135000J0D01*
G01*
X103785000Y-76550000D01*
G75*
G02*
X103920000Y-76685000I0J-135000D01*
G01*
G37*
G36*
G01*
X104940000Y-76685000D02*
X104940000Y-77055000D01*
G75*
G02*
X104805000Y-77190000I-135000J0D01*
G01*
X104535000Y-77190000D01*
G75*
G02*
X104400000Y-77055000I0J135000D01*
G01*
X104400000Y-76685000D01*
G75*
G02*
X104535000Y-76550000I135000J0D01*
G01*
X104805000Y-76550000D01*
G75*
G02*
X104940000Y-76685000I0J-135000D01*
G01*
G37*
G36*
G01*
X124850000Y-105235000D02*
X124850000Y-104865000D01*
G75*
G02*
X124985000Y-104730000I135000J0D01*
G01*
X125255000Y-104730000D01*
G75*
G02*
X125390000Y-104865000I0J-135000D01*
G01*
X125390000Y-105235000D01*
G75*
G02*
X125255000Y-105370000I-135000J0D01*
G01*
X124985000Y-105370000D01*
G75*
G02*
X124850000Y-105235000I0J135000D01*
G01*
G37*
G36*
G01*
X123830000Y-105235000D02*
X123830000Y-104865000D01*
G75*
G02*
X123965000Y-104730000I135000J0D01*
G01*
X124235000Y-104730000D01*
G75*
G02*
X124370000Y-104865000I0J-135000D01*
G01*
X124370000Y-105235000D01*
G75*
G02*
X124235000Y-105370000I-135000J0D01*
G01*
X123965000Y-105370000D01*
G75*
G02*
X123830000Y-105235000I0J135000D01*
G01*
G37*
G36*
G01*
X132535000Y-105550000D02*
X132165000Y-105550000D01*
G75*
G02*
X132030000Y-105415000I0J135000D01*
G01*
X132030000Y-105145000D01*
G75*
G02*
X132165000Y-105010000I135000J0D01*
G01*
X132535000Y-105010000D01*
G75*
G02*
X132670000Y-105145000I0J-135000D01*
G01*
X132670000Y-105415000D01*
G75*
G02*
X132535000Y-105550000I-135000J0D01*
G01*
G37*
G36*
G01*
X132535000Y-106570000D02*
X132165000Y-106570000D01*
G75*
G02*
X132030000Y-106435000I0J135000D01*
G01*
X132030000Y-106165000D01*
G75*
G02*
X132165000Y-106030000I135000J0D01*
G01*
X132535000Y-106030000D01*
G75*
G02*
X132670000Y-106165000I0J-135000D01*
G01*
X132670000Y-106435000D01*
G75*
G02*
X132535000Y-106570000I-135000J0D01*
G01*
G37*
G36*
G01*
X138340000Y-100090000D02*
X138340000Y-100430000D01*
G75*
G02*
X138200000Y-100570000I-140000J0D01*
G01*
X137920000Y-100570000D01*
G75*
G02*
X137780000Y-100430000I0J140000D01*
G01*
X137780000Y-100090000D01*
G75*
G02*
X137920000Y-99950000I140000J0D01*
G01*
X138200000Y-99950000D01*
G75*
G02*
X138340000Y-100090000I0J-140000D01*
G01*
G37*
G36*
G01*
X139300000Y-100090000D02*
X139300000Y-100430000D01*
G75*
G02*
X139160000Y-100570000I-140000J0D01*
G01*
X138880000Y-100570000D01*
G75*
G02*
X138740000Y-100430000I0J140000D01*
G01*
X138740000Y-100090000D01*
G75*
G02*
X138880000Y-99950000I140000J0D01*
G01*
X139160000Y-99950000D01*
G75*
G02*
X139300000Y-100090000I0J-140000D01*
G01*
G37*
G36*
G01*
X138340000Y-97550000D02*
X138340000Y-97890000D01*
G75*
G02*
X138200000Y-98030000I-140000J0D01*
G01*
X137920000Y-98030000D01*
G75*
G02*
X137780000Y-97890000I0J140000D01*
G01*
X137780000Y-97550000D01*
G75*
G02*
X137920000Y-97410000I140000J0D01*
G01*
X138200000Y-97410000D01*
G75*
G02*
X138340000Y-97550000I0J-140000D01*
G01*
G37*
G36*
G01*
X139300000Y-97550000D02*
X139300000Y-97890000D01*
G75*
G02*
X139160000Y-98030000I-140000J0D01*
G01*
X138880000Y-98030000D01*
G75*
G02*
X138740000Y-97890000I0J140000D01*
G01*
X138740000Y-97550000D01*
G75*
G02*
X138880000Y-97410000I140000J0D01*
G01*
X139160000Y-97410000D01*
G75*
G02*
X139300000Y-97550000I0J-140000D01*
G01*
G37*
G36*
G01*
X136270000Y-90830000D02*
X136270000Y-91170000D01*
G75*
G02*
X136130000Y-91310000I-140000J0D01*
G01*
X135850000Y-91310000D01*
G75*
G02*
X135710000Y-91170000I0J140000D01*
G01*
X135710000Y-90830000D01*
G75*
G02*
X135850000Y-90690000I140000J0D01*
G01*
X136130000Y-90690000D01*
G75*
G02*
X136270000Y-90830000I0J-140000D01*
G01*
G37*
G36*
G01*
X137230000Y-90830000D02*
X137230000Y-91170000D01*
G75*
G02*
X137090000Y-91310000I-140000J0D01*
G01*
X136810000Y-91310000D01*
G75*
G02*
X136670000Y-91170000I0J140000D01*
G01*
X136670000Y-90830000D01*
G75*
G02*
X136810000Y-90690000I140000J0D01*
G01*
X137090000Y-90690000D01*
G75*
G02*
X137230000Y-90830000I0J-140000D01*
G01*
G37*
G36*
G01*
X139010000Y-94290000D02*
X139350000Y-94290000D01*
G75*
G02*
X139490000Y-94430000I0J-140000D01*
G01*
X139490000Y-94710000D01*
G75*
G02*
X139350000Y-94850000I-140000J0D01*
G01*
X139010000Y-94850000D01*
G75*
G02*
X138870000Y-94710000I0J140000D01*
G01*
X138870000Y-94430000D01*
G75*
G02*
X139010000Y-94290000I140000J0D01*
G01*
G37*
G36*
G01*
X139010000Y-93330000D02*
X139350000Y-93330000D01*
G75*
G02*
X139490000Y-93470000I0J-140000D01*
G01*
X139490000Y-93750000D01*
G75*
G02*
X139350000Y-93890000I-140000J0D01*
G01*
X139010000Y-93890000D01*
G75*
G02*
X138870000Y-93750000I0J140000D01*
G01*
X138870000Y-93470000D01*
G75*
G02*
X139010000Y-93330000I140000J0D01*
G01*
G37*
G36*
G01*
X131512500Y-90510000D02*
X131987500Y-90510000D01*
G75*
G02*
X132225000Y-90747500I0J-237500D01*
G01*
X132225000Y-91322500D01*
G75*
G02*
X131987500Y-91560000I-237500J0D01*
G01*
X131512500Y-91560000D01*
G75*
G02*
X131275000Y-91322500I0J237500D01*
G01*
X131275000Y-90747500D01*
G75*
G02*
X131512500Y-90510000I237500J0D01*
G01*
G37*
G36*
G01*
X131512500Y-88760000D02*
X131987500Y-88760000D01*
G75*
G02*
X132225000Y-88997500I0J-237500D01*
G01*
X132225000Y-89572500D01*
G75*
G02*
X131987500Y-89810000I-237500J0D01*
G01*
X131512500Y-89810000D01*
G75*
G02*
X131275000Y-89572500I0J237500D01*
G01*
X131275000Y-88997500D01*
G75*
G02*
X131512500Y-88760000I237500J0D01*
G01*
G37*
X114300030Y-117540000D03*
X118899970Y-117540000D03*
D16*
X136270000Y-100180000D03*
X136270000Y-97680000D03*
G36*
G01*
X123465000Y-91585000D02*
X123465000Y-92215000D01*
G75*
G02*
X123215000Y-92465000I-250000J0D01*
G01*
X122585000Y-92465000D01*
G75*
G02*
X122335000Y-92215000I0J250000D01*
G01*
X122335000Y-91585000D01*
G75*
G02*
X122585000Y-91335000I250000J0D01*
G01*
X123215000Y-91335000D01*
G75*
G02*
X123465000Y-91585000I0J-250000D01*
G01*
G37*
G36*
G01*
X123465000Y-92985000D02*
X123465000Y-93615000D01*
G75*
G02*
X123215000Y-93865000I-250000J0D01*
G01*
X122585000Y-93865000D01*
G75*
G02*
X122335000Y-93615000I0J250000D01*
G01*
X122335000Y-92985000D01*
G75*
G02*
X122585000Y-92735000I250000J0D01*
G01*
X123215000Y-92735000D01*
G75*
G02*
X123465000Y-92985000I0J-250000D01*
G01*
G37*
G36*
G01*
X123465000Y-94385000D02*
X123465000Y-95015000D01*
G75*
G02*
X123215000Y-95265000I-250000J0D01*
G01*
X122585000Y-95265000D01*
G75*
G02*
X122335000Y-95015000I0J250000D01*
G01*
X122335000Y-94385000D01*
G75*
G02*
X122585000Y-94135000I250000J0D01*
G01*
X123215000Y-94135000D01*
G75*
G02*
X123465000Y-94385000I0J-250000D01*
G01*
G37*
G36*
G01*
X123465000Y-95785000D02*
X123465000Y-96415000D01*
G75*
G02*
X123215000Y-96665000I-250000J0D01*
G01*
X122585000Y-96665000D01*
G75*
G02*
X122335000Y-96415000I0J250000D01*
G01*
X122335000Y-95785000D01*
G75*
G02*
X122585000Y-95535000I250000J0D01*
G01*
X123215000Y-95535000D01*
G75*
G02*
X123465000Y-95785000I0J-250000D01*
G01*
G37*
G36*
G01*
X124865000Y-91585000D02*
X124865000Y-92215000D01*
G75*
G02*
X124615000Y-92465000I-250000J0D01*
G01*
X123985000Y-92465000D01*
G75*
G02*
X123735000Y-92215000I0J250000D01*
G01*
X123735000Y-91585000D01*
G75*
G02*
X123985000Y-91335000I250000J0D01*
G01*
X124615000Y-91335000D01*
G75*
G02*
X124865000Y-91585000I0J-250000D01*
G01*
G37*
G36*
G01*
X124865000Y-92985000D02*
X124865000Y-93615000D01*
G75*
G02*
X124615000Y-93865000I-250000J0D01*
G01*
X123985000Y-93865000D01*
G75*
G02*
X123735000Y-93615000I0J250000D01*
G01*
X123735000Y-92985000D01*
G75*
G02*
X123985000Y-92735000I250000J0D01*
G01*
X124615000Y-92735000D01*
G75*
G02*
X124865000Y-92985000I0J-250000D01*
G01*
G37*
G36*
G01*
X124865000Y-94385000D02*
X124865000Y-95015000D01*
G75*
G02*
X124615000Y-95265000I-250000J0D01*
G01*
X123985000Y-95265000D01*
G75*
G02*
X123735000Y-95015000I0J250000D01*
G01*
X123735000Y-94385000D01*
G75*
G02*
X123985000Y-94135000I250000J0D01*
G01*
X124615000Y-94135000D01*
G75*
G02*
X124865000Y-94385000I0J-250000D01*
G01*
G37*
G36*
G01*
X124865000Y-95785000D02*
X124865000Y-96415000D01*
G75*
G02*
X124615000Y-96665000I-250000J0D01*
G01*
X123985000Y-96665000D01*
G75*
G02*
X123735000Y-96415000I0J250000D01*
G01*
X123735000Y-95785000D01*
G75*
G02*
X123985000Y-95535000I250000J0D01*
G01*
X124615000Y-95535000D01*
G75*
G02*
X124865000Y-95785000I0J-250000D01*
G01*
G37*
G36*
G01*
X126265000Y-91585000D02*
X126265000Y-92215000D01*
G75*
G02*
X126015000Y-92465000I-250000J0D01*
G01*
X125385000Y-92465000D01*
G75*
G02*
X125135000Y-92215000I0J250000D01*
G01*
X125135000Y-91585000D01*
G75*
G02*
X125385000Y-91335000I250000J0D01*
G01*
X126015000Y-91335000D01*
G75*
G02*
X126265000Y-91585000I0J-250000D01*
G01*
G37*
G36*
G01*
X126265000Y-92985000D02*
X126265000Y-93615000D01*
G75*
G02*
X126015000Y-93865000I-250000J0D01*
G01*
X125385000Y-93865000D01*
G75*
G02*
X125135000Y-93615000I0J250000D01*
G01*
X125135000Y-92985000D01*
G75*
G02*
X125385000Y-92735000I250000J0D01*
G01*
X126015000Y-92735000D01*
G75*
G02*
X126265000Y-92985000I0J-250000D01*
G01*
G37*
G36*
G01*
X126265000Y-94385000D02*
X126265000Y-95015000D01*
G75*
G02*
X126015000Y-95265000I-250000J0D01*
G01*
X125385000Y-95265000D01*
G75*
G02*
X125135000Y-95015000I0J250000D01*
G01*
X125135000Y-94385000D01*
G75*
G02*
X125385000Y-94135000I250000J0D01*
G01*
X126015000Y-94135000D01*
G75*
G02*
X126265000Y-94385000I0J-250000D01*
G01*
G37*
G36*
G01*
X126265000Y-95785000D02*
X126265000Y-96415000D01*
G75*
G02*
X126015000Y-96665000I-250000J0D01*
G01*
X125385000Y-96665000D01*
G75*
G02*
X125135000Y-96415000I0J250000D01*
G01*
X125135000Y-95785000D01*
G75*
G02*
X125385000Y-95535000I250000J0D01*
G01*
X126015000Y-95535000D01*
G75*
G02*
X126265000Y-95785000I0J-250000D01*
G01*
G37*
G36*
G01*
X127665000Y-91585000D02*
X127665000Y-92215000D01*
G75*
G02*
X127415000Y-92465000I-250000J0D01*
G01*
X126785000Y-92465000D01*
G75*
G02*
X126535000Y-92215000I0J250000D01*
G01*
X126535000Y-91585000D01*
G75*
G02*
X126785000Y-91335000I250000J0D01*
G01*
X127415000Y-91335000D01*
G75*
G02*
X127665000Y-91585000I0J-250000D01*
G01*
G37*
G36*
G01*
X127665000Y-92985000D02*
X127665000Y-93615000D01*
G75*
G02*
X127415000Y-93865000I-250000J0D01*
G01*
X126785000Y-93865000D01*
G75*
G02*
X126535000Y-93615000I0J250000D01*
G01*
X126535000Y-92985000D01*
G75*
G02*
X126785000Y-92735000I250000J0D01*
G01*
X127415000Y-92735000D01*
G75*
G02*
X127665000Y-92985000I0J-250000D01*
G01*
G37*
G36*
G01*
X127665000Y-94385000D02*
X127665000Y-95015000D01*
G75*
G02*
X127415000Y-95265000I-250000J0D01*
G01*
X126785000Y-95265000D01*
G75*
G02*
X126535000Y-95015000I0J250000D01*
G01*
X126535000Y-94385000D01*
G75*
G02*
X126785000Y-94135000I250000J0D01*
G01*
X127415000Y-94135000D01*
G75*
G02*
X127665000Y-94385000I0J-250000D01*
G01*
G37*
G36*
G01*
X127665000Y-95785000D02*
X127665000Y-96415000D01*
G75*
G02*
X127415000Y-96665000I-250000J0D01*
G01*
X126785000Y-96665000D01*
G75*
G02*
X126535000Y-96415000I0J250000D01*
G01*
X126535000Y-95785000D01*
G75*
G02*
X126785000Y-95535000I250000J0D01*
G01*
X127415000Y-95535000D01*
G75*
G02*
X127665000Y-95785000I0J-250000D01*
G01*
G37*
G36*
G01*
X127875000Y-97062500D02*
X127875000Y-97812500D01*
G75*
G02*
X127812500Y-97875000I-62500J0D01*
G01*
X127687500Y-97875000D01*
G75*
G02*
X127625000Y-97812500I0J62500D01*
G01*
X127625000Y-97062500D01*
G75*
G02*
X127687500Y-97000000I62500J0D01*
G01*
X127812500Y-97000000D01*
G75*
G02*
X127875000Y-97062500I0J-62500D01*
G01*
G37*
G36*
G01*
X127375000Y-97062500D02*
X127375000Y-97812500D01*
G75*
G02*
X127312500Y-97875000I-62500J0D01*
G01*
X127187500Y-97875000D01*
G75*
G02*
X127125000Y-97812500I0J62500D01*
G01*
X127125000Y-97062500D01*
G75*
G02*
X127187500Y-97000000I62500J0D01*
G01*
X127312500Y-97000000D01*
G75*
G02*
X127375000Y-97062500I0J-62500D01*
G01*
G37*
G36*
G01*
X126875000Y-97062500D02*
X126875000Y-97812500D01*
G75*
G02*
X126812500Y-97875000I-62500J0D01*
G01*
X126687500Y-97875000D01*
G75*
G02*
X126625000Y-97812500I0J62500D01*
G01*
X126625000Y-97062500D01*
G75*
G02*
X126687500Y-97000000I62500J0D01*
G01*
X126812500Y-97000000D01*
G75*
G02*
X126875000Y-97062500I0J-62500D01*
G01*
G37*
G36*
G01*
X126375000Y-97062500D02*
X126375000Y-97812500D01*
G75*
G02*
X126312500Y-97875000I-62500J0D01*
G01*
X126187500Y-97875000D01*
G75*
G02*
X126125000Y-97812500I0J62500D01*
G01*
X126125000Y-97062500D01*
G75*
G02*
X126187500Y-97000000I62500J0D01*
G01*
X126312500Y-97000000D01*
G75*
G02*
X126375000Y-97062500I0J-62500D01*
G01*
G37*
G36*
G01*
X125875000Y-97062500D02*
X125875000Y-97812500D01*
G75*
G02*
X125812500Y-97875000I-62500J0D01*
G01*
X125687500Y-97875000D01*
G75*
G02*
X125625000Y-97812500I0J62500D01*
G01*
X125625000Y-97062500D01*
G75*
G02*
X125687500Y-97000000I62500J0D01*
G01*
X125812500Y-97000000D01*
G75*
G02*
X125875000Y-97062500I0J-62500D01*
G01*
G37*
G36*
G01*
X125375000Y-97062500D02*
X125375000Y-97812500D01*
G75*
G02*
X125312500Y-97875000I-62500J0D01*
G01*
X125187500Y-97875000D01*
G75*
G02*
X125125000Y-97812500I0J62500D01*
G01*
X125125000Y-97062500D01*
G75*
G02*
X125187500Y-97000000I62500J0D01*
G01*
X125312500Y-97000000D01*
G75*
G02*
X125375000Y-97062500I0J-62500D01*
G01*
G37*
G36*
G01*
X124875000Y-97062500D02*
X124875000Y-97812500D01*
G75*
G02*
X124812500Y-97875000I-62500J0D01*
G01*
X124687500Y-97875000D01*
G75*
G02*
X124625000Y-97812500I0J62500D01*
G01*
X124625000Y-97062500D01*
G75*
G02*
X124687500Y-97000000I62500J0D01*
G01*
X124812500Y-97000000D01*
G75*
G02*
X124875000Y-97062500I0J-62500D01*
G01*
G37*
G36*
G01*
X124375000Y-97062500D02*
X124375000Y-97812500D01*
G75*
G02*
X124312500Y-97875000I-62500J0D01*
G01*
X124187500Y-97875000D01*
G75*
G02*
X124125000Y-97812500I0J62500D01*
G01*
X124125000Y-97062500D01*
G75*
G02*
X124187500Y-97000000I62500J0D01*
G01*
X124312500Y-97000000D01*
G75*
G02*
X124375000Y-97062500I0J-62500D01*
G01*
G37*
G36*
G01*
X123875000Y-97062500D02*
X123875000Y-97812500D01*
G75*
G02*
X123812500Y-97875000I-62500J0D01*
G01*
X123687500Y-97875000D01*
G75*
G02*
X123625000Y-97812500I0J62500D01*
G01*
X123625000Y-97062500D01*
G75*
G02*
X123687500Y-97000000I62500J0D01*
G01*
X123812500Y-97000000D01*
G75*
G02*
X123875000Y-97062500I0J-62500D01*
G01*
G37*
G36*
G01*
X123375000Y-97062500D02*
X123375000Y-97812500D01*
G75*
G02*
X123312500Y-97875000I-62500J0D01*
G01*
X123187500Y-97875000D01*
G75*
G02*
X123125000Y-97812500I0J62500D01*
G01*
X123125000Y-97062500D01*
G75*
G02*
X123187500Y-97000000I62500J0D01*
G01*
X123312500Y-97000000D01*
G75*
G02*
X123375000Y-97062500I0J-62500D01*
G01*
G37*
G36*
G01*
X122875000Y-97062500D02*
X122875000Y-97812500D01*
G75*
G02*
X122812500Y-97875000I-62500J0D01*
G01*
X122687500Y-97875000D01*
G75*
G02*
X122625000Y-97812500I0J62500D01*
G01*
X122625000Y-97062500D01*
G75*
G02*
X122687500Y-97000000I62500J0D01*
G01*
X122812500Y-97000000D01*
G75*
G02*
X122875000Y-97062500I0J-62500D01*
G01*
G37*
G36*
G01*
X122375000Y-97062500D02*
X122375000Y-97812500D01*
G75*
G02*
X122312500Y-97875000I-62500J0D01*
G01*
X122187500Y-97875000D01*
G75*
G02*
X122125000Y-97812500I0J62500D01*
G01*
X122125000Y-97062500D01*
G75*
G02*
X122187500Y-97000000I62500J0D01*
G01*
X122312500Y-97000000D01*
G75*
G02*
X122375000Y-97062500I0J-62500D01*
G01*
G37*
G36*
G01*
X122000000Y-96687500D02*
X122000000Y-96812500D01*
G75*
G02*
X121937500Y-96875000I-62500J0D01*
G01*
X121187500Y-96875000D01*
G75*
G02*
X121125000Y-96812500I0J62500D01*
G01*
X121125000Y-96687500D01*
G75*
G02*
X121187500Y-96625000I62500J0D01*
G01*
X121937500Y-96625000D01*
G75*
G02*
X122000000Y-96687500I0J-62500D01*
G01*
G37*
G36*
G01*
X122000000Y-96187500D02*
X122000000Y-96312500D01*
G75*
G02*
X121937500Y-96375000I-62500J0D01*
G01*
X121187500Y-96375000D01*
G75*
G02*
X121125000Y-96312500I0J62500D01*
G01*
X121125000Y-96187500D01*
G75*
G02*
X121187500Y-96125000I62500J0D01*
G01*
X121937500Y-96125000D01*
G75*
G02*
X122000000Y-96187500I0J-62500D01*
G01*
G37*
G36*
G01*
X122000000Y-95687500D02*
X122000000Y-95812500D01*
G75*
G02*
X121937500Y-95875000I-62500J0D01*
G01*
X121187500Y-95875000D01*
G75*
G02*
X121125000Y-95812500I0J62500D01*
G01*
X121125000Y-95687500D01*
G75*
G02*
X121187500Y-95625000I62500J0D01*
G01*
X121937500Y-95625000D01*
G75*
G02*
X122000000Y-95687500I0J-62500D01*
G01*
G37*
G36*
G01*
X122000000Y-95187500D02*
X122000000Y-95312500D01*
G75*
G02*
X121937500Y-95375000I-62500J0D01*
G01*
X121187500Y-95375000D01*
G75*
G02*
X121125000Y-95312500I0J62500D01*
G01*
X121125000Y-95187500D01*
G75*
G02*
X121187500Y-95125000I62500J0D01*
G01*
X121937500Y-95125000D01*
G75*
G02*
X122000000Y-95187500I0J-62500D01*
G01*
G37*
G36*
G01*
X122000000Y-94687500D02*
X122000000Y-94812500D01*
G75*
G02*
X121937500Y-94875000I-62500J0D01*
G01*
X121187500Y-94875000D01*
G75*
G02*
X121125000Y-94812500I0J62500D01*
G01*
X121125000Y-94687500D01*
G75*
G02*
X121187500Y-94625000I62500J0D01*
G01*
X121937500Y-94625000D01*
G75*
G02*
X122000000Y-94687500I0J-62500D01*
G01*
G37*
G36*
G01*
X122000000Y-94187500D02*
X122000000Y-94312500D01*
G75*
G02*
X121937500Y-94375000I-62500J0D01*
G01*
X121187500Y-94375000D01*
G75*
G02*
X121125000Y-94312500I0J62500D01*
G01*
X121125000Y-94187500D01*
G75*
G02*
X121187500Y-94125000I62500J0D01*
G01*
X121937500Y-94125000D01*
G75*
G02*
X122000000Y-94187500I0J-62500D01*
G01*
G37*
G36*
G01*
X122000000Y-93687500D02*
X122000000Y-93812500D01*
G75*
G02*
X121937500Y-93875000I-62500J0D01*
G01*
X121187500Y-93875000D01*
G75*
G02*
X121125000Y-93812500I0J62500D01*
G01*
X121125000Y-93687500D01*
G75*
G02*
X121187500Y-93625000I62500J0D01*
G01*
X121937500Y-93625000D01*
G75*
G02*
X122000000Y-93687500I0J-62500D01*
G01*
G37*
G36*
G01*
X122000000Y-93187500D02*
X122000000Y-93312500D01*
G75*
G02*
X121937500Y-93375000I-62500J0D01*
G01*
X121187500Y-93375000D01*
G75*
G02*
X121125000Y-93312500I0J62500D01*
G01*
X121125000Y-93187500D01*
G75*
G02*
X121187500Y-93125000I62500J0D01*
G01*
X121937500Y-93125000D01*
G75*
G02*
X122000000Y-93187500I0J-62500D01*
G01*
G37*
G36*
G01*
X122000000Y-92687500D02*
X122000000Y-92812500D01*
G75*
G02*
X121937500Y-92875000I-62500J0D01*
G01*
X121187500Y-92875000D01*
G75*
G02*
X121125000Y-92812500I0J62500D01*
G01*
X121125000Y-92687500D01*
G75*
G02*
X121187500Y-92625000I62500J0D01*
G01*
X121937500Y-92625000D01*
G75*
G02*
X122000000Y-92687500I0J-62500D01*
G01*
G37*
G36*
G01*
X122000000Y-92187500D02*
X122000000Y-92312500D01*
G75*
G02*
X121937500Y-92375000I-62500J0D01*
G01*
X121187500Y-92375000D01*
G75*
G02*
X121125000Y-92312500I0J62500D01*
G01*
X121125000Y-92187500D01*
G75*
G02*
X121187500Y-92125000I62500J0D01*
G01*
X121937500Y-92125000D01*
G75*
G02*
X122000000Y-92187500I0J-62500D01*
G01*
G37*
G36*
G01*
X122000000Y-91687500D02*
X122000000Y-91812500D01*
G75*
G02*
X121937500Y-91875000I-62500J0D01*
G01*
X121187500Y-91875000D01*
G75*
G02*
X121125000Y-91812500I0J62500D01*
G01*
X121125000Y-91687500D01*
G75*
G02*
X121187500Y-91625000I62500J0D01*
G01*
X121937500Y-91625000D01*
G75*
G02*
X122000000Y-91687500I0J-62500D01*
G01*
G37*
G36*
G01*
X122000000Y-91187500D02*
X122000000Y-91312500D01*
G75*
G02*
X121937500Y-91375000I-62500J0D01*
G01*
X121187500Y-91375000D01*
G75*
G02*
X121125000Y-91312500I0J62500D01*
G01*
X121125000Y-91187500D01*
G75*
G02*
X121187500Y-91125000I62500J0D01*
G01*
X121937500Y-91125000D01*
G75*
G02*
X122000000Y-91187500I0J-62500D01*
G01*
G37*
G36*
G01*
X122375000Y-90187500D02*
X122375000Y-90937500D01*
G75*
G02*
X122312500Y-91000000I-62500J0D01*
G01*
X122187500Y-91000000D01*
G75*
G02*
X122125000Y-90937500I0J62500D01*
G01*
X122125000Y-90187500D01*
G75*
G02*
X122187500Y-90125000I62500J0D01*
G01*
X122312500Y-90125000D01*
G75*
G02*
X122375000Y-90187500I0J-62500D01*
G01*
G37*
G36*
G01*
X122875000Y-90187500D02*
X122875000Y-90937500D01*
G75*
G02*
X122812500Y-91000000I-62500J0D01*
G01*
X122687500Y-91000000D01*
G75*
G02*
X122625000Y-90937500I0J62500D01*
G01*
X122625000Y-90187500D01*
G75*
G02*
X122687500Y-90125000I62500J0D01*
G01*
X122812500Y-90125000D01*
G75*
G02*
X122875000Y-90187500I0J-62500D01*
G01*
G37*
G36*
G01*
X123375000Y-90187500D02*
X123375000Y-90937500D01*
G75*
G02*
X123312500Y-91000000I-62500J0D01*
G01*
X123187500Y-91000000D01*
G75*
G02*
X123125000Y-90937500I0J62500D01*
G01*
X123125000Y-90187500D01*
G75*
G02*
X123187500Y-90125000I62500J0D01*
G01*
X123312500Y-90125000D01*
G75*
G02*
X123375000Y-90187500I0J-62500D01*
G01*
G37*
G36*
G01*
X123875000Y-90187500D02*
X123875000Y-90937500D01*
G75*
G02*
X123812500Y-91000000I-62500J0D01*
G01*
X123687500Y-91000000D01*
G75*
G02*
X123625000Y-90937500I0J62500D01*
G01*
X123625000Y-90187500D01*
G75*
G02*
X123687500Y-90125000I62500J0D01*
G01*
X123812500Y-90125000D01*
G75*
G02*
X123875000Y-90187500I0J-62500D01*
G01*
G37*
G36*
G01*
X124375000Y-90187500D02*
X124375000Y-90937500D01*
G75*
G02*
X124312500Y-91000000I-62500J0D01*
G01*
X124187500Y-91000000D01*
G75*
G02*
X124125000Y-90937500I0J62500D01*
G01*
X124125000Y-90187500D01*
G75*
G02*
X124187500Y-90125000I62500J0D01*
G01*
X124312500Y-90125000D01*
G75*
G02*
X124375000Y-90187500I0J-62500D01*
G01*
G37*
G36*
G01*
X124875000Y-90187500D02*
X124875000Y-90937500D01*
G75*
G02*
X124812500Y-91000000I-62500J0D01*
G01*
X124687500Y-91000000D01*
G75*
G02*
X124625000Y-90937500I0J62500D01*
G01*
X124625000Y-90187500D01*
G75*
G02*
X124687500Y-90125000I62500J0D01*
G01*
X124812500Y-90125000D01*
G75*
G02*
X124875000Y-90187500I0J-62500D01*
G01*
G37*
G36*
G01*
X125375000Y-90187500D02*
X125375000Y-90937500D01*
G75*
G02*
X125312500Y-91000000I-62500J0D01*
G01*
X125187500Y-91000000D01*
G75*
G02*
X125125000Y-90937500I0J62500D01*
G01*
X125125000Y-90187500D01*
G75*
G02*
X125187500Y-90125000I62500J0D01*
G01*
X125312500Y-90125000D01*
G75*
G02*
X125375000Y-90187500I0J-62500D01*
G01*
G37*
G36*
G01*
X125875000Y-90187500D02*
X125875000Y-90937500D01*
G75*
G02*
X125812500Y-91000000I-62500J0D01*
G01*
X125687500Y-91000000D01*
G75*
G02*
X125625000Y-90937500I0J62500D01*
G01*
X125625000Y-90187500D01*
G75*
G02*
X125687500Y-90125000I62500J0D01*
G01*
X125812500Y-90125000D01*
G75*
G02*
X125875000Y-90187500I0J-62500D01*
G01*
G37*
G36*
G01*
X126375000Y-90187500D02*
X126375000Y-90937500D01*
G75*
G02*
X126312500Y-91000000I-62500J0D01*
G01*
X126187500Y-91000000D01*
G75*
G02*
X126125000Y-90937500I0J62500D01*
G01*
X126125000Y-90187500D01*
G75*
G02*
X126187500Y-90125000I62500J0D01*
G01*
X126312500Y-90125000D01*
G75*
G02*
X126375000Y-90187500I0J-62500D01*
G01*
G37*
G36*
G01*
X126875000Y-90187500D02*
X126875000Y-90937500D01*
G75*
G02*
X126812500Y-91000000I-62500J0D01*
G01*
X126687500Y-91000000D01*
G75*
G02*
X126625000Y-90937500I0J62500D01*
G01*
X126625000Y-90187500D01*
G75*
G02*
X126687500Y-90125000I62500J0D01*
G01*
X126812500Y-90125000D01*
G75*
G02*
X126875000Y-90187500I0J-62500D01*
G01*
G37*
G36*
G01*
X127375000Y-90187500D02*
X127375000Y-90937500D01*
G75*
G02*
X127312500Y-91000000I-62500J0D01*
G01*
X127187500Y-91000000D01*
G75*
G02*
X127125000Y-90937500I0J62500D01*
G01*
X127125000Y-90187500D01*
G75*
G02*
X127187500Y-90125000I62500J0D01*
G01*
X127312500Y-90125000D01*
G75*
G02*
X127375000Y-90187500I0J-62500D01*
G01*
G37*
G36*
G01*
X127875000Y-90187500D02*
X127875000Y-90937500D01*
G75*
G02*
X127812500Y-91000000I-62500J0D01*
G01*
X127687500Y-91000000D01*
G75*
G02*
X127625000Y-90937500I0J62500D01*
G01*
X127625000Y-90187500D01*
G75*
G02*
X127687500Y-90125000I62500J0D01*
G01*
X127812500Y-90125000D01*
G75*
G02*
X127875000Y-90187500I0J-62500D01*
G01*
G37*
G36*
G01*
X128875000Y-91187500D02*
X128875000Y-91312500D01*
G75*
G02*
X128812500Y-91375000I-62500J0D01*
G01*
X128062500Y-91375000D01*
G75*
G02*
X128000000Y-91312500I0J62500D01*
G01*
X128000000Y-91187500D01*
G75*
G02*
X128062500Y-91125000I62500J0D01*
G01*
X128812500Y-91125000D01*
G75*
G02*
X128875000Y-91187500I0J-62500D01*
G01*
G37*
G36*
G01*
X128875000Y-91687500D02*
X128875000Y-91812500D01*
G75*
G02*
X128812500Y-91875000I-62500J0D01*
G01*
X128062500Y-91875000D01*
G75*
G02*
X128000000Y-91812500I0J62500D01*
G01*
X128000000Y-91687500D01*
G75*
G02*
X128062500Y-91625000I62500J0D01*
G01*
X128812500Y-91625000D01*
G75*
G02*
X128875000Y-91687500I0J-62500D01*
G01*
G37*
G36*
G01*
X128875000Y-92187500D02*
X128875000Y-92312500D01*
G75*
G02*
X128812500Y-92375000I-62500J0D01*
G01*
X128062500Y-92375000D01*
G75*
G02*
X128000000Y-92312500I0J62500D01*
G01*
X128000000Y-92187500D01*
G75*
G02*
X128062500Y-92125000I62500J0D01*
G01*
X128812500Y-92125000D01*
G75*
G02*
X128875000Y-92187500I0J-62500D01*
G01*
G37*
G36*
G01*
X128875000Y-92687500D02*
X128875000Y-92812500D01*
G75*
G02*
X128812500Y-92875000I-62500J0D01*
G01*
X128062500Y-92875000D01*
G75*
G02*
X128000000Y-92812500I0J62500D01*
G01*
X128000000Y-92687500D01*
G75*
G02*
X128062500Y-92625000I62500J0D01*
G01*
X128812500Y-92625000D01*
G75*
G02*
X128875000Y-92687500I0J-62500D01*
G01*
G37*
G36*
G01*
X128875000Y-93187500D02*
X128875000Y-93312500D01*
G75*
G02*
X128812500Y-93375000I-62500J0D01*
G01*
X128062500Y-93375000D01*
G75*
G02*
X128000000Y-93312500I0J62500D01*
G01*
X128000000Y-93187500D01*
G75*
G02*
X128062500Y-93125000I62500J0D01*
G01*
X128812500Y-93125000D01*
G75*
G02*
X128875000Y-93187500I0J-62500D01*
G01*
G37*
G36*
G01*
X128875000Y-93687500D02*
X128875000Y-93812500D01*
G75*
G02*
X128812500Y-93875000I-62500J0D01*
G01*
X128062500Y-93875000D01*
G75*
G02*
X128000000Y-93812500I0J62500D01*
G01*
X128000000Y-93687500D01*
G75*
G02*
X128062500Y-93625000I62500J0D01*
G01*
X128812500Y-93625000D01*
G75*
G02*
X128875000Y-93687500I0J-62500D01*
G01*
G37*
G36*
G01*
X128875000Y-94187500D02*
X128875000Y-94312500D01*
G75*
G02*
X128812500Y-94375000I-62500J0D01*
G01*
X128062500Y-94375000D01*
G75*
G02*
X128000000Y-94312500I0J62500D01*
G01*
X128000000Y-94187500D01*
G75*
G02*
X128062500Y-94125000I62500J0D01*
G01*
X128812500Y-94125000D01*
G75*
G02*
X128875000Y-94187500I0J-62500D01*
G01*
G37*
G36*
G01*
X128875000Y-94687500D02*
X128875000Y-94812500D01*
G75*
G02*
X128812500Y-94875000I-62500J0D01*
G01*
X128062500Y-94875000D01*
G75*
G02*
X128000000Y-94812500I0J62500D01*
G01*
X128000000Y-94687500D01*
G75*
G02*
X128062500Y-94625000I62500J0D01*
G01*
X128812500Y-94625000D01*
G75*
G02*
X128875000Y-94687500I0J-62500D01*
G01*
G37*
G36*
G01*
X128875000Y-95187500D02*
X128875000Y-95312500D01*
G75*
G02*
X128812500Y-95375000I-62500J0D01*
G01*
X128062500Y-95375000D01*
G75*
G02*
X128000000Y-95312500I0J62500D01*
G01*
X128000000Y-95187500D01*
G75*
G02*
X128062500Y-95125000I62500J0D01*
G01*
X128812500Y-95125000D01*
G75*
G02*
X128875000Y-95187500I0J-62500D01*
G01*
G37*
G36*
G01*
X128875000Y-95687500D02*
X128875000Y-95812500D01*
G75*
G02*
X128812500Y-95875000I-62500J0D01*
G01*
X128062500Y-95875000D01*
G75*
G02*
X128000000Y-95812500I0J62500D01*
G01*
X128000000Y-95687500D01*
G75*
G02*
X128062500Y-95625000I62500J0D01*
G01*
X128812500Y-95625000D01*
G75*
G02*
X128875000Y-95687500I0J-62500D01*
G01*
G37*
G36*
G01*
X128875000Y-96187500D02*
X128875000Y-96312500D01*
G75*
G02*
X128812500Y-96375000I-62500J0D01*
G01*
X128062500Y-96375000D01*
G75*
G02*
X128000000Y-96312500I0J62500D01*
G01*
X128000000Y-96187500D01*
G75*
G02*
X128062500Y-96125000I62500J0D01*
G01*
X128812500Y-96125000D01*
G75*
G02*
X128875000Y-96187500I0J-62500D01*
G01*
G37*
G36*
G01*
X128875000Y-96687500D02*
X128875000Y-96812500D01*
G75*
G02*
X128812500Y-96875000I-62500J0D01*
G01*
X128062500Y-96875000D01*
G75*
G02*
X128000000Y-96812500I0J62500D01*
G01*
X128000000Y-96687500D01*
G75*
G02*
X128062500Y-96625000I62500J0D01*
G01*
X128812500Y-96625000D01*
G75*
G02*
X128875000Y-96687500I0J-62500D01*
G01*
G37*
G36*
G01*
X122856396Y-87010001D02*
X122219999Y-86373604D01*
G75*
G02*
X122219999Y-86020052I176776J176776D01*
G01*
X122679620Y-85560431D01*
G75*
G02*
X123033172Y-85560431I176776J-176776D01*
G01*
X123669569Y-86196828D01*
G75*
G02*
X123669569Y-86550380I-176776J-176776D01*
G01*
X123209948Y-87010001D01*
G75*
G02*
X122856396Y-87010001I-176776J176776D01*
G01*
G37*
G36*
G01*
X121406828Y-88459569D02*
X120770431Y-87823172D01*
G75*
G02*
X120770431Y-87469620I176776J176776D01*
G01*
X121230052Y-87009999D01*
G75*
G02*
X121583604Y-87009999I176776J-176776D01*
G01*
X122220001Y-87646396D01*
G75*
G02*
X122220001Y-87999948I-176776J-176776D01*
G01*
X121760380Y-88459569D01*
G75*
G02*
X121406828Y-88459569I-176776J176776D01*
G01*
G37*
M02*
