G04 #@! TF.GenerationSoftware,KiCad,Pcbnew,(5.1.10-1-10_14)*
G04 #@! TF.CreationDate,2021-08-26T00:22:11+08:00*
G04 #@! TF.ProjectId,stm32f401_devboard,73746d33-3266-4343-9031-5f646576626f,rev?*
G04 #@! TF.SameCoordinates,Original*
G04 #@! TF.FileFunction,Copper,L2,Inr*
G04 #@! TF.FilePolarity,Positive*
%FSLAX46Y46*%
G04 Gerber Fmt 4.6, Leading zero omitted, Abs format (unit mm)*
G04 Created by KiCad (PCBNEW (5.1.10-1-10_14)) date 2021-08-26 00:22:11*
%MOMM*%
%LPD*%
G01*
G04 APERTURE LIST*
G04 #@! TA.AperFunction,NonConductor*
%ADD10C,0.300000*%
G04 #@! TD*
G04 #@! TA.AperFunction,ComponentPad*
%ADD11O,1.700000X1.700000*%
G04 #@! TD*
G04 #@! TA.AperFunction,ComponentPad*
%ADD12R,1.700000X1.700000*%
G04 #@! TD*
G04 #@! TA.AperFunction,ComponentPad*
%ADD13O,2.100000X1.000000*%
G04 #@! TD*
G04 #@! TA.AperFunction,ComponentPad*
%ADD14O,1.600000X1.000000*%
G04 #@! TD*
G04 #@! TA.AperFunction,ComponentPad*
%ADD15O,1.000000X1.000000*%
G04 #@! TD*
G04 #@! TA.AperFunction,ComponentPad*
%ADD16R,1.000000X1.000000*%
G04 #@! TD*
G04 #@! TA.AperFunction,ViaPad*
%ADD17C,0.600000*%
G04 #@! TD*
G04 #@! TA.AperFunction,Conductor*
%ADD18C,1.500000*%
G04 #@! TD*
G04 #@! TA.AperFunction,Conductor*
%ADD19C,1.000000*%
G04 #@! TD*
G04 #@! TA.AperFunction,Conductor*
%ADD20C,0.254000*%
G04 #@! TD*
G04 #@! TA.AperFunction,Conductor*
%ADD21C,0.100000*%
G04 #@! TD*
G04 APERTURE END LIST*
D10*
X147678571Y-75271428D02*
X147750000Y-75342857D01*
X147821428Y-75485714D01*
X147821428Y-75842857D01*
X147750000Y-75985714D01*
X147678571Y-76057142D01*
X147535714Y-76128571D01*
X147392857Y-76128571D01*
X147178571Y-76057142D01*
X146321428Y-75200000D01*
X146321428Y-76128571D01*
D11*
X112060000Y-112540000D03*
X112060000Y-110000000D03*
X114600000Y-112540000D03*
X114600000Y-110000000D03*
X117140000Y-112540000D03*
X117140000Y-110000000D03*
X119680000Y-112540000D03*
X119680000Y-110000000D03*
X122220000Y-112540000D03*
X122220000Y-110000000D03*
X124760000Y-112540000D03*
X124760000Y-110000000D03*
X127300000Y-112540000D03*
X127300000Y-110000000D03*
X129840000Y-112540000D03*
X129840000Y-110000000D03*
X132380000Y-112540000D03*
X132380000Y-110000000D03*
X134920000Y-112540000D03*
X134920000Y-110000000D03*
X137460000Y-112540000D03*
X137460000Y-110000000D03*
X140000000Y-112540000D03*
D12*
X140000000Y-110000000D03*
D11*
X112060000Y-80000000D03*
X112060000Y-77460000D03*
X114600000Y-80000000D03*
X114600000Y-77460000D03*
X117140000Y-80000000D03*
X117140000Y-77460000D03*
X119680000Y-80000000D03*
X119680000Y-77460000D03*
X122220000Y-80000000D03*
X122220000Y-77460000D03*
X124760000Y-80000000D03*
X124760000Y-77460000D03*
X127300000Y-80000000D03*
X127300000Y-77460000D03*
X129840000Y-80000000D03*
X129840000Y-77460000D03*
X132380000Y-80000000D03*
X132380000Y-77460000D03*
X134920000Y-80000000D03*
X134920000Y-77460000D03*
X137460000Y-80000000D03*
X137460000Y-77460000D03*
X140000000Y-80000000D03*
D12*
X140000000Y-77460000D03*
D13*
X107290000Y-99820000D03*
X107290000Y-91180000D03*
D14*
X103110000Y-91180000D03*
X103110000Y-99820000D03*
D15*
X103315000Y-113820000D03*
X104585000Y-113820000D03*
X103315000Y-112550000D03*
X104585000Y-112550000D03*
X103315000Y-111280000D03*
X104585000Y-111280000D03*
X103315000Y-110010000D03*
X104585000Y-110010000D03*
X104585000Y-108740000D03*
D16*
X103315000Y-108740000D03*
D17*
X123480000Y-105040000D03*
X125000000Y-94000000D03*
X126500000Y-94000000D03*
X123500000Y-94000000D03*
X123500000Y-92500000D03*
X125000000Y-92500000D03*
X126500000Y-92500000D03*
X125000000Y-95500000D03*
X123500000Y-95500000D03*
X126500000Y-95500000D03*
X109440000Y-89690000D03*
X110297823Y-100997823D03*
X136180000Y-92260000D03*
X144100000Y-89050000D03*
X146310000Y-100930000D03*
X116950000Y-91350000D03*
X107709667Y-107450979D03*
X115080000Y-96580000D03*
X106980000Y-107400000D03*
X116010000Y-95910000D03*
X128740000Y-98150000D03*
X119540000Y-96830000D03*
X121160000Y-89610000D03*
X115450000Y-103600000D03*
X132480000Y-85890000D03*
X123198000Y-100695229D03*
X108450000Y-111120000D03*
X131740000Y-91920000D03*
X125198000Y-103240000D03*
X124698000Y-102609877D03*
X124198000Y-101940322D03*
X123698000Y-101296678D03*
X114427755Y-96901105D03*
X110700000Y-96000000D03*
X111960000Y-94198000D03*
X118060000Y-91720000D03*
X118770000Y-91240000D03*
X119592386Y-91056046D03*
X120280000Y-90820000D03*
X123698000Y-88195231D03*
X124198000Y-87615547D03*
X124698000Y-86983596D03*
X125198000Y-86400000D03*
D18*
X137460000Y-77460000D02*
X137460000Y-82150000D01*
X137460000Y-77460000D02*
X137460000Y-74310000D01*
X114600000Y-77460000D02*
X114600000Y-74180000D01*
X114600000Y-77460000D02*
X114600000Y-82510000D01*
X114600000Y-110000000D02*
X114600000Y-115460000D01*
X114600000Y-110000000D02*
X114600000Y-107140000D01*
X137460000Y-110000000D02*
X137460000Y-106790000D01*
X137460000Y-110000000D02*
X137460000Y-114740000D01*
D19*
X104585000Y-111280000D02*
X106600000Y-111280000D01*
X101670000Y-113820000D02*
X103315000Y-113820000D01*
X103315000Y-113820000D02*
X103315000Y-115445000D01*
D20*
X147453893Y-70707670D02*
X147890498Y-70839489D01*
X148293185Y-71053600D01*
X148646612Y-71341848D01*
X148937327Y-71693261D01*
X149154242Y-72094439D01*
X149289106Y-72530113D01*
X149340000Y-73014344D01*
X149340001Y-116967711D01*
X149292330Y-117453894D01*
X149160512Y-117890497D01*
X148946399Y-118293186D01*
X148658150Y-118646613D01*
X148306739Y-118937327D01*
X147905564Y-119154240D01*
X147469886Y-119289106D01*
X146985664Y-119340000D01*
X103032279Y-119340000D01*
X102546106Y-119292330D01*
X102109503Y-119160512D01*
X101706814Y-118946399D01*
X101353387Y-118658150D01*
X101062673Y-118306739D01*
X100845760Y-117905564D01*
X100710894Y-117469886D01*
X100660000Y-116985664D01*
X100660000Y-114121874D01*
X102220881Y-114121874D01*
X102237554Y-114176864D01*
X102327877Y-114380206D01*
X102456135Y-114562020D01*
X102617399Y-114715318D01*
X102805471Y-114834210D01*
X103013124Y-114914126D01*
X103188000Y-114789129D01*
X103188000Y-113947000D01*
X102347046Y-113947000D01*
X102220881Y-114121874D01*
X100660000Y-114121874D01*
X100660000Y-108240000D01*
X102176928Y-108240000D01*
X102176928Y-109240000D01*
X102189188Y-109364482D01*
X102225498Y-109484180D01*
X102269888Y-109567226D01*
X102223617Y-109678933D01*
X102180000Y-109898212D01*
X102180000Y-110121788D01*
X102223617Y-110341067D01*
X102309176Y-110547624D01*
X102374241Y-110645000D01*
X102309176Y-110742376D01*
X102223617Y-110948933D01*
X102180000Y-111168212D01*
X102180000Y-111391788D01*
X102223617Y-111611067D01*
X102309176Y-111817624D01*
X102374241Y-111915000D01*
X102309176Y-112012376D01*
X102223617Y-112218933D01*
X102180000Y-112438212D01*
X102180000Y-112661788D01*
X102223617Y-112881067D01*
X102309176Y-113087624D01*
X102377353Y-113189658D01*
X102327877Y-113259794D01*
X102237554Y-113463136D01*
X102220881Y-113518126D01*
X102347046Y-113693000D01*
X103188000Y-113693000D01*
X103188000Y-113681974D01*
X103203212Y-113685000D01*
X103426788Y-113685000D01*
X103442000Y-113681974D01*
X103442000Y-113693000D01*
X103453026Y-113693000D01*
X103450000Y-113708212D01*
X103450000Y-113931788D01*
X103453026Y-113947000D01*
X103442000Y-113947000D01*
X103442000Y-114789129D01*
X103616876Y-114914126D01*
X103824529Y-114834210D01*
X103945488Y-114757744D01*
X104047376Y-114825824D01*
X104253933Y-114911383D01*
X104473212Y-114955000D01*
X104696788Y-114955000D01*
X104916067Y-114911383D01*
X105122624Y-114825824D01*
X105308520Y-114701612D01*
X105466612Y-114543520D01*
X105590824Y-114357624D01*
X105676383Y-114151067D01*
X105720000Y-113931788D01*
X105720000Y-113708212D01*
X105676383Y-113488933D01*
X105590824Y-113282376D01*
X105525759Y-113185000D01*
X105590824Y-113087624D01*
X105676383Y-112881067D01*
X105720000Y-112661788D01*
X105720000Y-112438212D01*
X105676383Y-112218933D01*
X105590824Y-112012376D01*
X105522647Y-111910342D01*
X105572123Y-111840206D01*
X105662446Y-111636864D01*
X105679119Y-111581874D01*
X105552954Y-111407000D01*
X104712000Y-111407000D01*
X104712000Y-111418026D01*
X104696788Y-111415000D01*
X104473212Y-111415000D01*
X104458000Y-111418026D01*
X104458000Y-111407000D01*
X104446974Y-111407000D01*
X104450000Y-111391788D01*
X104450000Y-111168212D01*
X104446974Y-111153000D01*
X104458000Y-111153000D01*
X104458000Y-111141974D01*
X104473212Y-111145000D01*
X104696788Y-111145000D01*
X104712000Y-111141974D01*
X104712000Y-111153000D01*
X105552954Y-111153000D01*
X105643200Y-111027911D01*
X107515000Y-111027911D01*
X107515000Y-111212089D01*
X107550932Y-111392729D01*
X107621414Y-111562889D01*
X107723738Y-111716028D01*
X107853972Y-111846262D01*
X108007111Y-111948586D01*
X108177271Y-112019068D01*
X108357911Y-112055000D01*
X108542089Y-112055000D01*
X108722729Y-112019068D01*
X108892889Y-111948586D01*
X109046028Y-111846262D01*
X109176262Y-111716028D01*
X109278586Y-111562889D01*
X109349068Y-111392729D01*
X109385000Y-111212089D01*
X109385000Y-111027911D01*
X109349068Y-110847271D01*
X109278586Y-110677111D01*
X109176262Y-110523972D01*
X109046028Y-110393738D01*
X108892889Y-110291414D01*
X108722729Y-110220932D01*
X108542089Y-110185000D01*
X108357911Y-110185000D01*
X108177271Y-110220932D01*
X108007111Y-110291414D01*
X107853972Y-110393738D01*
X107723738Y-110523972D01*
X107621414Y-110677111D01*
X107550932Y-110847271D01*
X107515000Y-111027911D01*
X105643200Y-111027911D01*
X105679119Y-110978126D01*
X105662446Y-110923136D01*
X105572123Y-110719794D01*
X105522647Y-110649658D01*
X105590824Y-110547624D01*
X105676383Y-110341067D01*
X105720000Y-110121788D01*
X105720000Y-109898212D01*
X105711155Y-109853740D01*
X110575000Y-109853740D01*
X110575000Y-110146260D01*
X110632068Y-110433158D01*
X110744010Y-110703411D01*
X110906525Y-110946632D01*
X111113368Y-111153475D01*
X111287760Y-111270000D01*
X111113368Y-111386525D01*
X110906525Y-111593368D01*
X110744010Y-111836589D01*
X110632068Y-112106842D01*
X110575000Y-112393740D01*
X110575000Y-112686260D01*
X110632068Y-112973158D01*
X110744010Y-113243411D01*
X110906525Y-113486632D01*
X111113368Y-113693475D01*
X111356589Y-113855990D01*
X111626842Y-113967932D01*
X111913740Y-114025000D01*
X112206260Y-114025000D01*
X112493158Y-113967932D01*
X112763411Y-113855990D01*
X113006632Y-113693475D01*
X113213475Y-113486632D01*
X113335195Y-113304466D01*
X113404822Y-113421355D01*
X113599731Y-113637588D01*
X113833080Y-113811641D01*
X114095901Y-113936825D01*
X114243110Y-113981476D01*
X114473000Y-113860155D01*
X114473000Y-112667000D01*
X114453000Y-112667000D01*
X114453000Y-112413000D01*
X114473000Y-112413000D01*
X114473000Y-110127000D01*
X114453000Y-110127000D01*
X114453000Y-109873000D01*
X114473000Y-109873000D01*
X114473000Y-108679845D01*
X114727000Y-108679845D01*
X114727000Y-109873000D01*
X114747000Y-109873000D01*
X114747000Y-110127000D01*
X114727000Y-110127000D01*
X114727000Y-112413000D01*
X114747000Y-112413000D01*
X114747000Y-112667000D01*
X114727000Y-112667000D01*
X114727000Y-113860155D01*
X114956890Y-113981476D01*
X115104099Y-113936825D01*
X115366920Y-113811641D01*
X115600269Y-113637588D01*
X115795178Y-113421355D01*
X115864805Y-113304466D01*
X115986525Y-113486632D01*
X116193368Y-113693475D01*
X116436589Y-113855990D01*
X116706842Y-113967932D01*
X116993740Y-114025000D01*
X117286260Y-114025000D01*
X117573158Y-113967932D01*
X117843411Y-113855990D01*
X118086632Y-113693475D01*
X118293475Y-113486632D01*
X118410000Y-113312240D01*
X118526525Y-113486632D01*
X118733368Y-113693475D01*
X118976589Y-113855990D01*
X119246842Y-113967932D01*
X119533740Y-114025000D01*
X119826260Y-114025000D01*
X120113158Y-113967932D01*
X120383411Y-113855990D01*
X120626632Y-113693475D01*
X120833475Y-113486632D01*
X120950000Y-113312240D01*
X121066525Y-113486632D01*
X121273368Y-113693475D01*
X121516589Y-113855990D01*
X121786842Y-113967932D01*
X122073740Y-114025000D01*
X122366260Y-114025000D01*
X122653158Y-113967932D01*
X122923411Y-113855990D01*
X123166632Y-113693475D01*
X123373475Y-113486632D01*
X123490000Y-113312240D01*
X123606525Y-113486632D01*
X123813368Y-113693475D01*
X124056589Y-113855990D01*
X124326842Y-113967932D01*
X124613740Y-114025000D01*
X124906260Y-114025000D01*
X125193158Y-113967932D01*
X125463411Y-113855990D01*
X125706632Y-113693475D01*
X125913475Y-113486632D01*
X126030000Y-113312240D01*
X126146525Y-113486632D01*
X126353368Y-113693475D01*
X126596589Y-113855990D01*
X126866842Y-113967932D01*
X127153740Y-114025000D01*
X127446260Y-114025000D01*
X127733158Y-113967932D01*
X128003411Y-113855990D01*
X128246632Y-113693475D01*
X128453475Y-113486632D01*
X128570000Y-113312240D01*
X128686525Y-113486632D01*
X128893368Y-113693475D01*
X129136589Y-113855990D01*
X129406842Y-113967932D01*
X129693740Y-114025000D01*
X129986260Y-114025000D01*
X130273158Y-113967932D01*
X130543411Y-113855990D01*
X130786632Y-113693475D01*
X130993475Y-113486632D01*
X131110000Y-113312240D01*
X131226525Y-113486632D01*
X131433368Y-113693475D01*
X131676589Y-113855990D01*
X131946842Y-113967932D01*
X132233740Y-114025000D01*
X132526260Y-114025000D01*
X132813158Y-113967932D01*
X133083411Y-113855990D01*
X133326632Y-113693475D01*
X133533475Y-113486632D01*
X133650000Y-113312240D01*
X133766525Y-113486632D01*
X133973368Y-113693475D01*
X134216589Y-113855990D01*
X134486842Y-113967932D01*
X134773740Y-114025000D01*
X135066260Y-114025000D01*
X135353158Y-113967932D01*
X135623411Y-113855990D01*
X135866632Y-113693475D01*
X136073475Y-113486632D01*
X136195195Y-113304466D01*
X136264822Y-113421355D01*
X136459731Y-113637588D01*
X136693080Y-113811641D01*
X136955901Y-113936825D01*
X137103110Y-113981476D01*
X137333000Y-113860155D01*
X137333000Y-112667000D01*
X137313000Y-112667000D01*
X137313000Y-112413000D01*
X137333000Y-112413000D01*
X137333000Y-110127000D01*
X137313000Y-110127000D01*
X137313000Y-109873000D01*
X137333000Y-109873000D01*
X137333000Y-108679845D01*
X137587000Y-108679845D01*
X137587000Y-109873000D01*
X137607000Y-109873000D01*
X137607000Y-110127000D01*
X137587000Y-110127000D01*
X137587000Y-112413000D01*
X137607000Y-112413000D01*
X137607000Y-112667000D01*
X137587000Y-112667000D01*
X137587000Y-113860155D01*
X137816890Y-113981476D01*
X137964099Y-113936825D01*
X138226920Y-113811641D01*
X138460269Y-113637588D01*
X138655178Y-113421355D01*
X138724805Y-113304466D01*
X138846525Y-113486632D01*
X139053368Y-113693475D01*
X139296589Y-113855990D01*
X139566842Y-113967932D01*
X139853740Y-114025000D01*
X140146260Y-114025000D01*
X140433158Y-113967932D01*
X140703411Y-113855990D01*
X140946632Y-113693475D01*
X141153475Y-113486632D01*
X141315990Y-113243411D01*
X141427932Y-112973158D01*
X141485000Y-112686260D01*
X141485000Y-112393740D01*
X141427932Y-112106842D01*
X141315990Y-111836589D01*
X141153475Y-111593368D01*
X141021620Y-111461513D01*
X141094180Y-111439502D01*
X141204494Y-111380537D01*
X141301185Y-111301185D01*
X141380537Y-111204494D01*
X141439502Y-111094180D01*
X141475812Y-110974482D01*
X141488072Y-110850000D01*
X141488072Y-109150000D01*
X141475812Y-109025518D01*
X141439502Y-108905820D01*
X141380537Y-108795506D01*
X141301185Y-108698815D01*
X141204494Y-108619463D01*
X141094180Y-108560498D01*
X140974482Y-108524188D01*
X140850000Y-108511928D01*
X139150000Y-108511928D01*
X139025518Y-108524188D01*
X138905820Y-108560498D01*
X138795506Y-108619463D01*
X138698815Y-108698815D01*
X138619463Y-108795506D01*
X138560498Y-108905820D01*
X138536034Y-108986466D01*
X138460269Y-108902412D01*
X138226920Y-108728359D01*
X137964099Y-108603175D01*
X137816890Y-108558524D01*
X137587000Y-108679845D01*
X137333000Y-108679845D01*
X137103110Y-108558524D01*
X136955901Y-108603175D01*
X136693080Y-108728359D01*
X136459731Y-108902412D01*
X136264822Y-109118645D01*
X136195195Y-109235534D01*
X136073475Y-109053368D01*
X135866632Y-108846525D01*
X135623411Y-108684010D01*
X135353158Y-108572068D01*
X135066260Y-108515000D01*
X134773740Y-108515000D01*
X134486842Y-108572068D01*
X134216589Y-108684010D01*
X133973368Y-108846525D01*
X133766525Y-109053368D01*
X133650000Y-109227760D01*
X133533475Y-109053368D01*
X133326632Y-108846525D01*
X133083411Y-108684010D01*
X132813158Y-108572068D01*
X132526260Y-108515000D01*
X132233740Y-108515000D01*
X131946842Y-108572068D01*
X131676589Y-108684010D01*
X131433368Y-108846525D01*
X131226525Y-109053368D01*
X131110000Y-109227760D01*
X130993475Y-109053368D01*
X130786632Y-108846525D01*
X130543411Y-108684010D01*
X130273158Y-108572068D01*
X129986260Y-108515000D01*
X129693740Y-108515000D01*
X129406842Y-108572068D01*
X129136589Y-108684010D01*
X128893368Y-108846525D01*
X128686525Y-109053368D01*
X128570000Y-109227760D01*
X128453475Y-109053368D01*
X128246632Y-108846525D01*
X128003411Y-108684010D01*
X127733158Y-108572068D01*
X127446260Y-108515000D01*
X127153740Y-108515000D01*
X126866842Y-108572068D01*
X126596589Y-108684010D01*
X126353368Y-108846525D01*
X126146525Y-109053368D01*
X126030000Y-109227760D01*
X125913475Y-109053368D01*
X125706632Y-108846525D01*
X125463411Y-108684010D01*
X125193158Y-108572068D01*
X124906260Y-108515000D01*
X124613740Y-108515000D01*
X124326842Y-108572068D01*
X124056589Y-108684010D01*
X123813368Y-108846525D01*
X123606525Y-109053368D01*
X123490000Y-109227760D01*
X123373475Y-109053368D01*
X123166632Y-108846525D01*
X122923411Y-108684010D01*
X122653158Y-108572068D01*
X122366260Y-108515000D01*
X122073740Y-108515000D01*
X121786842Y-108572068D01*
X121516589Y-108684010D01*
X121273368Y-108846525D01*
X121066525Y-109053368D01*
X120950000Y-109227760D01*
X120833475Y-109053368D01*
X120626632Y-108846525D01*
X120383411Y-108684010D01*
X120113158Y-108572068D01*
X119826260Y-108515000D01*
X119533740Y-108515000D01*
X119246842Y-108572068D01*
X118976589Y-108684010D01*
X118733368Y-108846525D01*
X118526525Y-109053368D01*
X118410000Y-109227760D01*
X118293475Y-109053368D01*
X118086632Y-108846525D01*
X117843411Y-108684010D01*
X117573158Y-108572068D01*
X117286260Y-108515000D01*
X116993740Y-108515000D01*
X116706842Y-108572068D01*
X116436589Y-108684010D01*
X116193368Y-108846525D01*
X115986525Y-109053368D01*
X115864805Y-109235534D01*
X115795178Y-109118645D01*
X115600269Y-108902412D01*
X115366920Y-108728359D01*
X115104099Y-108603175D01*
X114956890Y-108558524D01*
X114727000Y-108679845D01*
X114473000Y-108679845D01*
X114243110Y-108558524D01*
X114095901Y-108603175D01*
X113833080Y-108728359D01*
X113599731Y-108902412D01*
X113404822Y-109118645D01*
X113335195Y-109235534D01*
X113213475Y-109053368D01*
X113006632Y-108846525D01*
X112763411Y-108684010D01*
X112493158Y-108572068D01*
X112206260Y-108515000D01*
X111913740Y-108515000D01*
X111626842Y-108572068D01*
X111356589Y-108684010D01*
X111113368Y-108846525D01*
X110906525Y-109053368D01*
X110744010Y-109296589D01*
X110632068Y-109566842D01*
X110575000Y-109853740D01*
X105711155Y-109853740D01*
X105676383Y-109678933D01*
X105590824Y-109472376D01*
X105525759Y-109375000D01*
X105590824Y-109277624D01*
X105676383Y-109071067D01*
X105720000Y-108851788D01*
X105720000Y-108628212D01*
X105676383Y-108408933D01*
X105590824Y-108202376D01*
X105466612Y-108016480D01*
X105308520Y-107858388D01*
X105122624Y-107734176D01*
X104916067Y-107648617D01*
X104696788Y-107605000D01*
X104473212Y-107605000D01*
X104253933Y-107648617D01*
X104142226Y-107694888D01*
X104059180Y-107650498D01*
X103939482Y-107614188D01*
X103815000Y-107601928D01*
X102815000Y-107601928D01*
X102690518Y-107614188D01*
X102570820Y-107650498D01*
X102460506Y-107709463D01*
X102363815Y-107788815D01*
X102284463Y-107885506D01*
X102225498Y-107995820D01*
X102189188Y-108115518D01*
X102176928Y-108240000D01*
X100660000Y-108240000D01*
X100660000Y-107307911D01*
X106045000Y-107307911D01*
X106045000Y-107492089D01*
X106080932Y-107672729D01*
X106151414Y-107842889D01*
X106253738Y-107996028D01*
X106383972Y-108126262D01*
X106537111Y-108228586D01*
X106707271Y-108299068D01*
X106887911Y-108335000D01*
X107072089Y-108335000D01*
X107252729Y-108299068D01*
X107283296Y-108286407D01*
X107436938Y-108350047D01*
X107617578Y-108385979D01*
X107801756Y-108385979D01*
X107982396Y-108350047D01*
X108152556Y-108279565D01*
X108305695Y-108177241D01*
X108435929Y-108047007D01*
X108538253Y-107893868D01*
X108608735Y-107723708D01*
X108644667Y-107543068D01*
X108644667Y-107358890D01*
X108608735Y-107178250D01*
X108538253Y-107008090D01*
X108435929Y-106854951D01*
X108305695Y-106724717D01*
X108152556Y-106622393D01*
X107982396Y-106551911D01*
X107801756Y-106515979D01*
X107617578Y-106515979D01*
X107436938Y-106551911D01*
X107406371Y-106564572D01*
X107252729Y-106500932D01*
X107072089Y-106465000D01*
X106887911Y-106465000D01*
X106707271Y-106500932D01*
X106537111Y-106571414D01*
X106383972Y-106673738D01*
X106253738Y-106803972D01*
X106151414Y-106957111D01*
X106080932Y-107127271D01*
X106045000Y-107307911D01*
X100660000Y-107307911D01*
X100660000Y-103507911D01*
X114515000Y-103507911D01*
X114515000Y-103692089D01*
X114550932Y-103872729D01*
X114621414Y-104042889D01*
X114723738Y-104196028D01*
X114853972Y-104326262D01*
X115007111Y-104428586D01*
X115177271Y-104499068D01*
X115357911Y-104535000D01*
X115542089Y-104535000D01*
X115722729Y-104499068D01*
X115892889Y-104428586D01*
X116046028Y-104326262D01*
X116176262Y-104196028D01*
X116278586Y-104042889D01*
X116349068Y-103872729D01*
X116385000Y-103692089D01*
X116385000Y-103507911D01*
X116349068Y-103327271D01*
X116278586Y-103157111D01*
X116176262Y-103003972D01*
X116046028Y-102873738D01*
X115892889Y-102771414D01*
X115722729Y-102700932D01*
X115542089Y-102665000D01*
X115357911Y-102665000D01*
X115177271Y-102700932D01*
X115007111Y-102771414D01*
X114853972Y-102873738D01*
X114723738Y-103003972D01*
X114621414Y-103157111D01*
X114550932Y-103327271D01*
X114515000Y-103507911D01*
X100660000Y-103507911D01*
X100660000Y-99820000D01*
X101669509Y-99820000D01*
X101691423Y-100042499D01*
X101756324Y-100256447D01*
X101861716Y-100453623D01*
X102003551Y-100626449D01*
X102176377Y-100768284D01*
X102373553Y-100873676D01*
X102587501Y-100938577D01*
X102754248Y-100955000D01*
X103465752Y-100955000D01*
X103632499Y-100938577D01*
X103846447Y-100873676D01*
X104043623Y-100768284D01*
X104216449Y-100626449D01*
X104358284Y-100453623D01*
X104463676Y-100256447D01*
X104528577Y-100042499D01*
X104550491Y-99820000D01*
X105599509Y-99820000D01*
X105621423Y-100042499D01*
X105686324Y-100256447D01*
X105791716Y-100453623D01*
X105933551Y-100626449D01*
X106106377Y-100768284D01*
X106303553Y-100873676D01*
X106517501Y-100938577D01*
X106684248Y-100955000D01*
X107895752Y-100955000D01*
X108062499Y-100938577D01*
X108276447Y-100873676D01*
X108473623Y-100768284D01*
X108646449Y-100626449D01*
X108665578Y-100603140D01*
X122263000Y-100603140D01*
X122263000Y-100787318D01*
X122298932Y-100967958D01*
X122369414Y-101138118D01*
X122471738Y-101291257D01*
X122601972Y-101421491D01*
X122755111Y-101523815D01*
X122792983Y-101539502D01*
X122798932Y-101569407D01*
X122869414Y-101739567D01*
X122971738Y-101892706D01*
X123101972Y-102022940D01*
X123255111Y-102125264D01*
X123283837Y-102137162D01*
X123298932Y-102213051D01*
X123369414Y-102383211D01*
X123471738Y-102536350D01*
X123601972Y-102666584D01*
X123755111Y-102768908D01*
X123778220Y-102778480D01*
X123798932Y-102882606D01*
X123869414Y-103052766D01*
X123971738Y-103205905D01*
X124101972Y-103336139D01*
X124255111Y-103438463D01*
X124286768Y-103451576D01*
X124298932Y-103512729D01*
X124369414Y-103682889D01*
X124471738Y-103836028D01*
X124601972Y-103966262D01*
X124755111Y-104068586D01*
X124925271Y-104139068D01*
X125105911Y-104175000D01*
X125290089Y-104175000D01*
X125470729Y-104139068D01*
X125640889Y-104068586D01*
X125794028Y-103966262D01*
X125924262Y-103836028D01*
X126026586Y-103682889D01*
X126097068Y-103512729D01*
X126133000Y-103332089D01*
X126133000Y-103147911D01*
X126097068Y-102967271D01*
X126026586Y-102797111D01*
X125924262Y-102643972D01*
X125794028Y-102513738D01*
X125640889Y-102411414D01*
X125609232Y-102398301D01*
X125597068Y-102337148D01*
X125526586Y-102166988D01*
X125424262Y-102013849D01*
X125294028Y-101883615D01*
X125140889Y-101781291D01*
X125117780Y-101771719D01*
X125097068Y-101667593D01*
X125026586Y-101497433D01*
X124924262Y-101344294D01*
X124794028Y-101214060D01*
X124640889Y-101111736D01*
X124612163Y-101099838D01*
X124597068Y-101023949D01*
X124526586Y-100853789D01*
X124424262Y-100700650D01*
X124294028Y-100570416D01*
X124140889Y-100468092D01*
X124103017Y-100452405D01*
X124097068Y-100422500D01*
X124026586Y-100252340D01*
X123924262Y-100099201D01*
X123794028Y-99968967D01*
X123640889Y-99866643D01*
X123470729Y-99796161D01*
X123290089Y-99760229D01*
X123105911Y-99760229D01*
X122925271Y-99796161D01*
X122755111Y-99866643D01*
X122601972Y-99968967D01*
X122471738Y-100099201D01*
X122369414Y-100252340D01*
X122298932Y-100422500D01*
X122263000Y-100603140D01*
X108665578Y-100603140D01*
X108788284Y-100453623D01*
X108893676Y-100256447D01*
X108958577Y-100042499D01*
X108980491Y-99820000D01*
X108958577Y-99597501D01*
X108893676Y-99383553D01*
X108788284Y-99186377D01*
X108646449Y-99013551D01*
X108473623Y-98871716D01*
X108276447Y-98766324D01*
X108062499Y-98701423D01*
X107895752Y-98685000D01*
X107676904Y-98685000D01*
X107683108Y-98670022D01*
X107720000Y-98484552D01*
X107720000Y-98295448D01*
X107683108Y-98109978D01*
X107661542Y-98057911D01*
X127805000Y-98057911D01*
X127805000Y-98242089D01*
X127840932Y-98422729D01*
X127911414Y-98592889D01*
X128013738Y-98746028D01*
X128143972Y-98876262D01*
X128297111Y-98978586D01*
X128467271Y-99049068D01*
X128647911Y-99085000D01*
X128832089Y-99085000D01*
X129012729Y-99049068D01*
X129182889Y-98978586D01*
X129336028Y-98876262D01*
X129466262Y-98746028D01*
X129568586Y-98592889D01*
X129639068Y-98422729D01*
X129675000Y-98242089D01*
X129675000Y-98057911D01*
X129639068Y-97877271D01*
X129568586Y-97707111D01*
X129466262Y-97553972D01*
X129336028Y-97423738D01*
X129182889Y-97321414D01*
X129012729Y-97250932D01*
X128832089Y-97215000D01*
X128647911Y-97215000D01*
X128467271Y-97250932D01*
X128297111Y-97321414D01*
X128143972Y-97423738D01*
X128013738Y-97553972D01*
X127911414Y-97707111D01*
X127840932Y-97877271D01*
X127805000Y-98057911D01*
X107661542Y-98057911D01*
X107610741Y-97935269D01*
X107505681Y-97778036D01*
X107371964Y-97644319D01*
X107214731Y-97539259D01*
X107040022Y-97466892D01*
X106854552Y-97430000D01*
X106665448Y-97430000D01*
X106479978Y-97466892D01*
X106305269Y-97539259D01*
X106148036Y-97644319D01*
X106014319Y-97778036D01*
X105909259Y-97935269D01*
X105836892Y-98109978D01*
X105800000Y-98295448D01*
X105800000Y-98484552D01*
X105836892Y-98670022D01*
X105909259Y-98844731D01*
X105990715Y-98966638D01*
X105933551Y-99013551D01*
X105791716Y-99186377D01*
X105686324Y-99383553D01*
X105621423Y-99597501D01*
X105599509Y-99820000D01*
X104550491Y-99820000D01*
X104528577Y-99597501D01*
X104463676Y-99383553D01*
X104358284Y-99186377D01*
X104216449Y-99013551D01*
X104043623Y-98871716D01*
X103846447Y-98766324D01*
X103632499Y-98701423D01*
X103465752Y-98685000D01*
X102754248Y-98685000D01*
X102587501Y-98701423D01*
X102373553Y-98766324D01*
X102176377Y-98871716D01*
X102003551Y-99013551D01*
X101861716Y-99186377D01*
X101756324Y-99383553D01*
X101691423Y-99597501D01*
X101669509Y-99820000D01*
X100660000Y-99820000D01*
X100660000Y-95907911D01*
X109765000Y-95907911D01*
X109765000Y-96092089D01*
X109800932Y-96272729D01*
X109871414Y-96442889D01*
X109973738Y-96596028D01*
X110103972Y-96726262D01*
X110257111Y-96828586D01*
X110427271Y-96899068D01*
X110607911Y-96935000D01*
X110792089Y-96935000D01*
X110972729Y-96899068D01*
X111142889Y-96828586D01*
X111172177Y-96809016D01*
X113492755Y-96809016D01*
X113492755Y-96993194D01*
X113528687Y-97173834D01*
X113599169Y-97343994D01*
X113701493Y-97497133D01*
X113831727Y-97627367D01*
X113984866Y-97729691D01*
X114155026Y-97800173D01*
X114335666Y-97836105D01*
X114519844Y-97836105D01*
X114700484Y-97800173D01*
X114870644Y-97729691D01*
X115023783Y-97627367D01*
X115136150Y-97515000D01*
X115172089Y-97515000D01*
X115352729Y-97479068D01*
X115522889Y-97408586D01*
X115676028Y-97306262D01*
X115806262Y-97176028D01*
X115908586Y-97022889D01*
X115979068Y-96852729D01*
X115980605Y-96845000D01*
X116102089Y-96845000D01*
X116282729Y-96809068D01*
X116452889Y-96738586D01*
X116453899Y-96737911D01*
X118605000Y-96737911D01*
X118605000Y-96922089D01*
X118640932Y-97102729D01*
X118711414Y-97272889D01*
X118813738Y-97426028D01*
X118943972Y-97556262D01*
X119097111Y-97658586D01*
X119267271Y-97729068D01*
X119447911Y-97765000D01*
X119632089Y-97765000D01*
X119812729Y-97729068D01*
X119982889Y-97658586D01*
X120136028Y-97556262D01*
X120266262Y-97426028D01*
X120368586Y-97272889D01*
X120439068Y-97102729D01*
X120475000Y-96922089D01*
X120475000Y-96737911D01*
X120439068Y-96557271D01*
X120368586Y-96387111D01*
X120266262Y-96233972D01*
X120136028Y-96103738D01*
X119982889Y-96001414D01*
X119812729Y-95930932D01*
X119632089Y-95895000D01*
X119447911Y-95895000D01*
X119267271Y-95930932D01*
X119097111Y-96001414D01*
X118943972Y-96103738D01*
X118813738Y-96233972D01*
X118711414Y-96387111D01*
X118640932Y-96557271D01*
X118605000Y-96737911D01*
X116453899Y-96737911D01*
X116606028Y-96636262D01*
X116736262Y-96506028D01*
X116838586Y-96352889D01*
X116909068Y-96182729D01*
X116945000Y-96002089D01*
X116945000Y-95817911D01*
X116909068Y-95637271D01*
X116838586Y-95467111D01*
X116736262Y-95313972D01*
X116606028Y-95183738D01*
X116452889Y-95081414D01*
X116282729Y-95010932D01*
X116102089Y-94975000D01*
X115917911Y-94975000D01*
X115737271Y-95010932D01*
X115567111Y-95081414D01*
X115413972Y-95183738D01*
X115283738Y-95313972D01*
X115181414Y-95467111D01*
X115110932Y-95637271D01*
X115109395Y-95645000D01*
X114987911Y-95645000D01*
X114807271Y-95680932D01*
X114637111Y-95751414D01*
X114483972Y-95853738D01*
X114371605Y-95966105D01*
X114335666Y-95966105D01*
X114155026Y-96002037D01*
X113984866Y-96072519D01*
X113831727Y-96174843D01*
X113701493Y-96305077D01*
X113599169Y-96458216D01*
X113528687Y-96628376D01*
X113492755Y-96809016D01*
X111172177Y-96809016D01*
X111296028Y-96726262D01*
X111426262Y-96596028D01*
X111528586Y-96442889D01*
X111599068Y-96272729D01*
X111635000Y-96092089D01*
X111635000Y-95907911D01*
X111599068Y-95727271D01*
X111528586Y-95557111D01*
X111426262Y-95403972D01*
X111296028Y-95273738D01*
X111142889Y-95171414D01*
X110972729Y-95100932D01*
X110792089Y-95065000D01*
X110607911Y-95065000D01*
X110427271Y-95100932D01*
X110257111Y-95171414D01*
X110103972Y-95273738D01*
X109973738Y-95403972D01*
X109871414Y-95557111D01*
X109800932Y-95727271D01*
X109765000Y-95907911D01*
X100660000Y-95907911D01*
X100660000Y-94105911D01*
X111025000Y-94105911D01*
X111025000Y-94290089D01*
X111060932Y-94470729D01*
X111131414Y-94640889D01*
X111233738Y-94794028D01*
X111363972Y-94924262D01*
X111517111Y-95026586D01*
X111687271Y-95097068D01*
X111867911Y-95133000D01*
X112052089Y-95133000D01*
X112232729Y-95097068D01*
X112402889Y-95026586D01*
X112556028Y-94924262D01*
X112686262Y-94794028D01*
X112788586Y-94640889D01*
X112859068Y-94470729D01*
X112895000Y-94290089D01*
X112895000Y-94105911D01*
X112859068Y-93925271D01*
X112788586Y-93755111D01*
X112686262Y-93601972D01*
X112556028Y-93471738D01*
X112402889Y-93369414D01*
X112232729Y-93298932D01*
X112052089Y-93263000D01*
X111867911Y-93263000D01*
X111687271Y-93298932D01*
X111517111Y-93369414D01*
X111363972Y-93471738D01*
X111233738Y-93601972D01*
X111131414Y-93755111D01*
X111060932Y-93925271D01*
X111025000Y-94105911D01*
X100660000Y-94105911D01*
X100660000Y-91180000D01*
X101669509Y-91180000D01*
X101691423Y-91402499D01*
X101756324Y-91616447D01*
X101861716Y-91813623D01*
X102003551Y-91986449D01*
X102176377Y-92128284D01*
X102373553Y-92233676D01*
X102587501Y-92298577D01*
X102754248Y-92315000D01*
X103465752Y-92315000D01*
X103632499Y-92298577D01*
X103846447Y-92233676D01*
X104043623Y-92128284D01*
X104216449Y-91986449D01*
X104358284Y-91813623D01*
X104463676Y-91616447D01*
X104528577Y-91402499D01*
X104550491Y-91180000D01*
X105599509Y-91180000D01*
X105621423Y-91402499D01*
X105686324Y-91616447D01*
X105791716Y-91813623D01*
X105933551Y-91986449D01*
X105990715Y-92033362D01*
X105909259Y-92155269D01*
X105836892Y-92329978D01*
X105800000Y-92515448D01*
X105800000Y-92704552D01*
X105836892Y-92890022D01*
X105909259Y-93064731D01*
X106014319Y-93221964D01*
X106148036Y-93355681D01*
X106305269Y-93460741D01*
X106479978Y-93533108D01*
X106665448Y-93570000D01*
X106854552Y-93570000D01*
X107040022Y-93533108D01*
X107214731Y-93460741D01*
X107371964Y-93355681D01*
X107505681Y-93221964D01*
X107610741Y-93064731D01*
X107683108Y-92890022D01*
X107720000Y-92704552D01*
X107720000Y-92515448D01*
X107683108Y-92329978D01*
X107676904Y-92315000D01*
X107895752Y-92315000D01*
X108062499Y-92298577D01*
X108276447Y-92233676D01*
X108473623Y-92128284D01*
X108646449Y-91986449D01*
X108788284Y-91813623D01*
X108893676Y-91616447D01*
X108958577Y-91402499D01*
X108972817Y-91257911D01*
X116015000Y-91257911D01*
X116015000Y-91442089D01*
X116050932Y-91622729D01*
X116121414Y-91792889D01*
X116223738Y-91946028D01*
X116353972Y-92076262D01*
X116507111Y-92178586D01*
X116677271Y-92249068D01*
X116857911Y-92285000D01*
X117042089Y-92285000D01*
X117222729Y-92249068D01*
X117274632Y-92227569D01*
X117333738Y-92316028D01*
X117463972Y-92446262D01*
X117617111Y-92548586D01*
X117787271Y-92619068D01*
X117967911Y-92655000D01*
X118152089Y-92655000D01*
X118332729Y-92619068D01*
X118502889Y-92548586D01*
X118656028Y-92446262D01*
X118786262Y-92316028D01*
X118883315Y-92170778D01*
X119042729Y-92139068D01*
X119212889Y-92068586D01*
X119366028Y-91966262D01*
X119367633Y-91964657D01*
X119500297Y-91991046D01*
X119684475Y-91991046D01*
X119865115Y-91955114D01*
X120035275Y-91884632D01*
X120120164Y-91827911D01*
X130805000Y-91827911D01*
X130805000Y-92012089D01*
X130840932Y-92192729D01*
X130911414Y-92362889D01*
X131013738Y-92516028D01*
X131143972Y-92646262D01*
X131297111Y-92748586D01*
X131467271Y-92819068D01*
X131647911Y-92855000D01*
X131832089Y-92855000D01*
X132012729Y-92819068D01*
X132182889Y-92748586D01*
X132336028Y-92646262D01*
X132466262Y-92516028D01*
X132568586Y-92362889D01*
X132639068Y-92192729D01*
X132675000Y-92012089D01*
X132675000Y-91827911D01*
X132639068Y-91647271D01*
X132568586Y-91477111D01*
X132466262Y-91323972D01*
X132336028Y-91193738D01*
X132182889Y-91091414D01*
X132012729Y-91020932D01*
X131832089Y-90985000D01*
X131647911Y-90985000D01*
X131467271Y-91020932D01*
X131297111Y-91091414D01*
X131143972Y-91193738D01*
X131013738Y-91323972D01*
X130911414Y-91477111D01*
X130840932Y-91647271D01*
X130805000Y-91827911D01*
X120120164Y-91827911D01*
X120188414Y-91782308D01*
X120215722Y-91755000D01*
X120372089Y-91755000D01*
X120552729Y-91719068D01*
X120722889Y-91648586D01*
X120876028Y-91546262D01*
X121006262Y-91416028D01*
X121108586Y-91262889D01*
X121179068Y-91092729D01*
X121215000Y-90912089D01*
X121215000Y-90727911D01*
X121179068Y-90547271D01*
X121178127Y-90545000D01*
X121252089Y-90545000D01*
X121432729Y-90509068D01*
X121602889Y-90438586D01*
X121756028Y-90336262D01*
X121886262Y-90206028D01*
X121988586Y-90052889D01*
X122059068Y-89882729D01*
X122095000Y-89702089D01*
X122095000Y-89517911D01*
X122059068Y-89337271D01*
X121988586Y-89167111D01*
X121886262Y-89013972D01*
X121756028Y-88883738D01*
X121602889Y-88781414D01*
X121432729Y-88710932D01*
X121252089Y-88675000D01*
X121067911Y-88675000D01*
X120887271Y-88710932D01*
X120717111Y-88781414D01*
X120563972Y-88883738D01*
X120433738Y-89013972D01*
X120331414Y-89167111D01*
X120260932Y-89337271D01*
X120225000Y-89517911D01*
X120225000Y-89702089D01*
X120260932Y-89882729D01*
X120261873Y-89885000D01*
X120187911Y-89885000D01*
X120007271Y-89920932D01*
X119837111Y-89991414D01*
X119683972Y-90093738D01*
X119656664Y-90121046D01*
X119500297Y-90121046D01*
X119319657Y-90156978D01*
X119149497Y-90227460D01*
X118996358Y-90329784D01*
X118994753Y-90331389D01*
X118862089Y-90305000D01*
X118677911Y-90305000D01*
X118497271Y-90340932D01*
X118327111Y-90411414D01*
X118173972Y-90513738D01*
X118043738Y-90643972D01*
X117946685Y-90789222D01*
X117787271Y-90820932D01*
X117735368Y-90842431D01*
X117676262Y-90753972D01*
X117546028Y-90623738D01*
X117392889Y-90521414D01*
X117222729Y-90450932D01*
X117042089Y-90415000D01*
X116857911Y-90415000D01*
X116677271Y-90450932D01*
X116507111Y-90521414D01*
X116353972Y-90623738D01*
X116223738Y-90753972D01*
X116121414Y-90907111D01*
X116050932Y-91077271D01*
X116015000Y-91257911D01*
X108972817Y-91257911D01*
X108980491Y-91180000D01*
X108958577Y-90957501D01*
X108893676Y-90743553D01*
X108788284Y-90546377D01*
X108646449Y-90373551D01*
X108473623Y-90231716D01*
X108276447Y-90126324D01*
X108062499Y-90061423D01*
X107895752Y-90045000D01*
X106684248Y-90045000D01*
X106517501Y-90061423D01*
X106303553Y-90126324D01*
X106106377Y-90231716D01*
X105933551Y-90373551D01*
X105791716Y-90546377D01*
X105686324Y-90743553D01*
X105621423Y-90957501D01*
X105599509Y-91180000D01*
X104550491Y-91180000D01*
X104528577Y-90957501D01*
X104463676Y-90743553D01*
X104358284Y-90546377D01*
X104216449Y-90373551D01*
X104043623Y-90231716D01*
X103846447Y-90126324D01*
X103632499Y-90061423D01*
X103465752Y-90045000D01*
X102754248Y-90045000D01*
X102587501Y-90061423D01*
X102373553Y-90126324D01*
X102176377Y-90231716D01*
X102003551Y-90373551D01*
X101861716Y-90546377D01*
X101756324Y-90743553D01*
X101691423Y-90957501D01*
X101669509Y-91180000D01*
X100660000Y-91180000D01*
X100660000Y-88103142D01*
X122763000Y-88103142D01*
X122763000Y-88287320D01*
X122798932Y-88467960D01*
X122869414Y-88638120D01*
X122971738Y-88791259D01*
X123101972Y-88921493D01*
X123255111Y-89023817D01*
X123425271Y-89094299D01*
X123605911Y-89130231D01*
X123790089Y-89130231D01*
X123970729Y-89094299D01*
X124140889Y-89023817D01*
X124294028Y-88921493D01*
X124424262Y-88791259D01*
X124526586Y-88638120D01*
X124597068Y-88467960D01*
X124598298Y-88461774D01*
X124640889Y-88444133D01*
X124794028Y-88341809D01*
X124924262Y-88211575D01*
X125026586Y-88058436D01*
X125097068Y-87888276D01*
X125109629Y-87825130D01*
X125140889Y-87812182D01*
X125294028Y-87709858D01*
X125424262Y-87579624D01*
X125526586Y-87426485D01*
X125597068Y-87256325D01*
X125599146Y-87245876D01*
X125640889Y-87228586D01*
X125794028Y-87126262D01*
X125924262Y-86996028D01*
X126026586Y-86842889D01*
X126097068Y-86672729D01*
X126133000Y-86492089D01*
X126133000Y-86307911D01*
X126097068Y-86127271D01*
X126026586Y-85957111D01*
X125924262Y-85803972D01*
X125918201Y-85797911D01*
X131545000Y-85797911D01*
X131545000Y-85982089D01*
X131580932Y-86162729D01*
X131651414Y-86332889D01*
X131753738Y-86486028D01*
X131883972Y-86616262D01*
X132037111Y-86718586D01*
X132207271Y-86789068D01*
X132387911Y-86825000D01*
X132572089Y-86825000D01*
X132752729Y-86789068D01*
X132922889Y-86718586D01*
X133076028Y-86616262D01*
X133206262Y-86486028D01*
X133308586Y-86332889D01*
X133379068Y-86162729D01*
X133415000Y-85982089D01*
X133415000Y-85797911D01*
X133379068Y-85617271D01*
X133308586Y-85447111D01*
X133206262Y-85293972D01*
X133076028Y-85163738D01*
X132922889Y-85061414D01*
X132752729Y-84990932D01*
X132572089Y-84955000D01*
X132387911Y-84955000D01*
X132207271Y-84990932D01*
X132037111Y-85061414D01*
X131883972Y-85163738D01*
X131753738Y-85293972D01*
X131651414Y-85447111D01*
X131580932Y-85617271D01*
X131545000Y-85797911D01*
X125918201Y-85797911D01*
X125794028Y-85673738D01*
X125640889Y-85571414D01*
X125470729Y-85500932D01*
X125290089Y-85465000D01*
X125105911Y-85465000D01*
X124925271Y-85500932D01*
X124755111Y-85571414D01*
X124601972Y-85673738D01*
X124471738Y-85803972D01*
X124369414Y-85957111D01*
X124298932Y-86127271D01*
X124296854Y-86137720D01*
X124255111Y-86155010D01*
X124101972Y-86257334D01*
X123971738Y-86387568D01*
X123869414Y-86540707D01*
X123798932Y-86710867D01*
X123786371Y-86774013D01*
X123755111Y-86786961D01*
X123601972Y-86889285D01*
X123471738Y-87019519D01*
X123369414Y-87172658D01*
X123298932Y-87342818D01*
X123297702Y-87349004D01*
X123255111Y-87366645D01*
X123101972Y-87468969D01*
X122971738Y-87599203D01*
X122869414Y-87752342D01*
X122798932Y-87922502D01*
X122763000Y-88103142D01*
X100660000Y-88103142D01*
X100660000Y-77313740D01*
X110575000Y-77313740D01*
X110575000Y-77606260D01*
X110632068Y-77893158D01*
X110744010Y-78163411D01*
X110906525Y-78406632D01*
X111113368Y-78613475D01*
X111287760Y-78730000D01*
X111113368Y-78846525D01*
X110906525Y-79053368D01*
X110744010Y-79296589D01*
X110632068Y-79566842D01*
X110575000Y-79853740D01*
X110575000Y-80146260D01*
X110632068Y-80433158D01*
X110744010Y-80703411D01*
X110906525Y-80946632D01*
X111113368Y-81153475D01*
X111356589Y-81315990D01*
X111626842Y-81427932D01*
X111913740Y-81485000D01*
X112206260Y-81485000D01*
X112493158Y-81427932D01*
X112763411Y-81315990D01*
X113006632Y-81153475D01*
X113213475Y-80946632D01*
X113335195Y-80764466D01*
X113404822Y-80881355D01*
X113599731Y-81097588D01*
X113833080Y-81271641D01*
X114095901Y-81396825D01*
X114243110Y-81441476D01*
X114473000Y-81320155D01*
X114473000Y-80127000D01*
X114453000Y-80127000D01*
X114453000Y-79873000D01*
X114473000Y-79873000D01*
X114473000Y-77587000D01*
X114453000Y-77587000D01*
X114453000Y-77333000D01*
X114473000Y-77333000D01*
X114473000Y-76139845D01*
X114727000Y-76139845D01*
X114727000Y-77333000D01*
X114747000Y-77333000D01*
X114747000Y-77587000D01*
X114727000Y-77587000D01*
X114727000Y-79873000D01*
X114747000Y-79873000D01*
X114747000Y-80127000D01*
X114727000Y-80127000D01*
X114727000Y-81320155D01*
X114956890Y-81441476D01*
X115104099Y-81396825D01*
X115366920Y-81271641D01*
X115600269Y-81097588D01*
X115795178Y-80881355D01*
X115864805Y-80764466D01*
X115986525Y-80946632D01*
X116193368Y-81153475D01*
X116436589Y-81315990D01*
X116706842Y-81427932D01*
X116993740Y-81485000D01*
X117286260Y-81485000D01*
X117573158Y-81427932D01*
X117843411Y-81315990D01*
X118086632Y-81153475D01*
X118293475Y-80946632D01*
X118410000Y-80772240D01*
X118526525Y-80946632D01*
X118733368Y-81153475D01*
X118976589Y-81315990D01*
X119246842Y-81427932D01*
X119533740Y-81485000D01*
X119826260Y-81485000D01*
X120113158Y-81427932D01*
X120383411Y-81315990D01*
X120626632Y-81153475D01*
X120833475Y-80946632D01*
X120950000Y-80772240D01*
X121066525Y-80946632D01*
X121273368Y-81153475D01*
X121516589Y-81315990D01*
X121786842Y-81427932D01*
X122073740Y-81485000D01*
X122366260Y-81485000D01*
X122653158Y-81427932D01*
X122923411Y-81315990D01*
X123166632Y-81153475D01*
X123373475Y-80946632D01*
X123490000Y-80772240D01*
X123606525Y-80946632D01*
X123813368Y-81153475D01*
X124056589Y-81315990D01*
X124326842Y-81427932D01*
X124613740Y-81485000D01*
X124906260Y-81485000D01*
X125193158Y-81427932D01*
X125463411Y-81315990D01*
X125706632Y-81153475D01*
X125913475Y-80946632D01*
X126030000Y-80772240D01*
X126146525Y-80946632D01*
X126353368Y-81153475D01*
X126596589Y-81315990D01*
X126866842Y-81427932D01*
X127153740Y-81485000D01*
X127446260Y-81485000D01*
X127733158Y-81427932D01*
X128003411Y-81315990D01*
X128246632Y-81153475D01*
X128453475Y-80946632D01*
X128570000Y-80772240D01*
X128686525Y-80946632D01*
X128893368Y-81153475D01*
X129136589Y-81315990D01*
X129406842Y-81427932D01*
X129693740Y-81485000D01*
X129986260Y-81485000D01*
X130273158Y-81427932D01*
X130543411Y-81315990D01*
X130786632Y-81153475D01*
X130993475Y-80946632D01*
X131110000Y-80772240D01*
X131226525Y-80946632D01*
X131433368Y-81153475D01*
X131676589Y-81315990D01*
X131946842Y-81427932D01*
X132233740Y-81485000D01*
X132526260Y-81485000D01*
X132813158Y-81427932D01*
X133083411Y-81315990D01*
X133326632Y-81153475D01*
X133533475Y-80946632D01*
X133650000Y-80772240D01*
X133766525Y-80946632D01*
X133973368Y-81153475D01*
X134216589Y-81315990D01*
X134486842Y-81427932D01*
X134773740Y-81485000D01*
X135066260Y-81485000D01*
X135353158Y-81427932D01*
X135623411Y-81315990D01*
X135866632Y-81153475D01*
X136073475Y-80946632D01*
X136195195Y-80764466D01*
X136264822Y-80881355D01*
X136459731Y-81097588D01*
X136693080Y-81271641D01*
X136955901Y-81396825D01*
X137103110Y-81441476D01*
X137333000Y-81320155D01*
X137333000Y-80127000D01*
X137313000Y-80127000D01*
X137313000Y-79873000D01*
X137333000Y-79873000D01*
X137333000Y-77587000D01*
X137313000Y-77587000D01*
X137313000Y-77333000D01*
X137333000Y-77333000D01*
X137333000Y-76139845D01*
X137587000Y-76139845D01*
X137587000Y-77333000D01*
X137607000Y-77333000D01*
X137607000Y-77587000D01*
X137587000Y-77587000D01*
X137587000Y-79873000D01*
X137607000Y-79873000D01*
X137607000Y-80127000D01*
X137587000Y-80127000D01*
X137587000Y-81320155D01*
X137816890Y-81441476D01*
X137964099Y-81396825D01*
X138226920Y-81271641D01*
X138460269Y-81097588D01*
X138655178Y-80881355D01*
X138724805Y-80764466D01*
X138846525Y-80946632D01*
X139053368Y-81153475D01*
X139296589Y-81315990D01*
X139566842Y-81427932D01*
X139853740Y-81485000D01*
X140146260Y-81485000D01*
X140433158Y-81427932D01*
X140703411Y-81315990D01*
X140946632Y-81153475D01*
X141153475Y-80946632D01*
X141315990Y-80703411D01*
X141427932Y-80433158D01*
X141485000Y-80146260D01*
X141485000Y-79853740D01*
X141427932Y-79566842D01*
X141315990Y-79296589D01*
X141153475Y-79053368D01*
X141021620Y-78921513D01*
X141094180Y-78899502D01*
X141204494Y-78840537D01*
X141301185Y-78761185D01*
X141380537Y-78664494D01*
X141439502Y-78554180D01*
X141475812Y-78434482D01*
X141488072Y-78310000D01*
X141488072Y-76610000D01*
X141475812Y-76485518D01*
X141439502Y-76365820D01*
X141380537Y-76255506D01*
X141301185Y-76158815D01*
X141204494Y-76079463D01*
X141094180Y-76020498D01*
X140974482Y-75984188D01*
X140850000Y-75971928D01*
X139150000Y-75971928D01*
X139025518Y-75984188D01*
X138905820Y-76020498D01*
X138795506Y-76079463D01*
X138698815Y-76158815D01*
X138619463Y-76255506D01*
X138560498Y-76365820D01*
X138536034Y-76446466D01*
X138460269Y-76362412D01*
X138226920Y-76188359D01*
X137964099Y-76063175D01*
X137816890Y-76018524D01*
X137587000Y-76139845D01*
X137333000Y-76139845D01*
X137103110Y-76018524D01*
X136955901Y-76063175D01*
X136693080Y-76188359D01*
X136459731Y-76362412D01*
X136264822Y-76578645D01*
X136195195Y-76695534D01*
X136073475Y-76513368D01*
X135866632Y-76306525D01*
X135623411Y-76144010D01*
X135353158Y-76032068D01*
X135066260Y-75975000D01*
X134773740Y-75975000D01*
X134486842Y-76032068D01*
X134216589Y-76144010D01*
X133973368Y-76306525D01*
X133766525Y-76513368D01*
X133650000Y-76687760D01*
X133533475Y-76513368D01*
X133326632Y-76306525D01*
X133083411Y-76144010D01*
X132813158Y-76032068D01*
X132526260Y-75975000D01*
X132233740Y-75975000D01*
X131946842Y-76032068D01*
X131676589Y-76144010D01*
X131433368Y-76306525D01*
X131226525Y-76513368D01*
X131110000Y-76687760D01*
X130993475Y-76513368D01*
X130786632Y-76306525D01*
X130543411Y-76144010D01*
X130273158Y-76032068D01*
X129986260Y-75975000D01*
X129693740Y-75975000D01*
X129406842Y-76032068D01*
X129136589Y-76144010D01*
X128893368Y-76306525D01*
X128686525Y-76513368D01*
X128570000Y-76687760D01*
X128453475Y-76513368D01*
X128246632Y-76306525D01*
X128003411Y-76144010D01*
X127733158Y-76032068D01*
X127446260Y-75975000D01*
X127153740Y-75975000D01*
X126866842Y-76032068D01*
X126596589Y-76144010D01*
X126353368Y-76306525D01*
X126146525Y-76513368D01*
X126030000Y-76687760D01*
X125913475Y-76513368D01*
X125706632Y-76306525D01*
X125463411Y-76144010D01*
X125193158Y-76032068D01*
X124906260Y-75975000D01*
X124613740Y-75975000D01*
X124326842Y-76032068D01*
X124056589Y-76144010D01*
X123813368Y-76306525D01*
X123606525Y-76513368D01*
X123490000Y-76687760D01*
X123373475Y-76513368D01*
X123166632Y-76306525D01*
X122923411Y-76144010D01*
X122653158Y-76032068D01*
X122366260Y-75975000D01*
X122073740Y-75975000D01*
X121786842Y-76032068D01*
X121516589Y-76144010D01*
X121273368Y-76306525D01*
X121066525Y-76513368D01*
X120950000Y-76687760D01*
X120833475Y-76513368D01*
X120626632Y-76306525D01*
X120383411Y-76144010D01*
X120113158Y-76032068D01*
X119826260Y-75975000D01*
X119533740Y-75975000D01*
X119246842Y-76032068D01*
X118976589Y-76144010D01*
X118733368Y-76306525D01*
X118526525Y-76513368D01*
X118410000Y-76687760D01*
X118293475Y-76513368D01*
X118086632Y-76306525D01*
X117843411Y-76144010D01*
X117573158Y-76032068D01*
X117286260Y-75975000D01*
X116993740Y-75975000D01*
X116706842Y-76032068D01*
X116436589Y-76144010D01*
X116193368Y-76306525D01*
X115986525Y-76513368D01*
X115864805Y-76695534D01*
X115795178Y-76578645D01*
X115600269Y-76362412D01*
X115366920Y-76188359D01*
X115104099Y-76063175D01*
X114956890Y-76018524D01*
X114727000Y-76139845D01*
X114473000Y-76139845D01*
X114243110Y-76018524D01*
X114095901Y-76063175D01*
X113833080Y-76188359D01*
X113599731Y-76362412D01*
X113404822Y-76578645D01*
X113335195Y-76695534D01*
X113213475Y-76513368D01*
X113006632Y-76306525D01*
X112763411Y-76144010D01*
X112493158Y-76032068D01*
X112206260Y-75975000D01*
X111913740Y-75975000D01*
X111626842Y-76032068D01*
X111356589Y-76144010D01*
X111113368Y-76306525D01*
X110906525Y-76513368D01*
X110744010Y-76756589D01*
X110632068Y-77026842D01*
X110575000Y-77313740D01*
X100660000Y-77313740D01*
X100660000Y-74200715D01*
X144970000Y-74200715D01*
X144970000Y-77199286D01*
X148790000Y-77199286D01*
X148790000Y-74200715D01*
X144970000Y-74200715D01*
X100660000Y-74200715D01*
X100660000Y-73032279D01*
X100707670Y-72546107D01*
X100839489Y-72109502D01*
X101053600Y-71706815D01*
X101341848Y-71353388D01*
X101693261Y-71062673D01*
X102094439Y-70845758D01*
X102530113Y-70710894D01*
X103014344Y-70660000D01*
X146967721Y-70660000D01*
X147453893Y-70707670D01*
G04 #@! TA.AperFunction,Conductor*
D21*
G36*
X147453893Y-70707670D02*
G01*
X147890498Y-70839489D01*
X148293185Y-71053600D01*
X148646612Y-71341848D01*
X148937327Y-71693261D01*
X149154242Y-72094439D01*
X149289106Y-72530113D01*
X149340000Y-73014344D01*
X149340001Y-116967711D01*
X149292330Y-117453894D01*
X149160512Y-117890497D01*
X148946399Y-118293186D01*
X148658150Y-118646613D01*
X148306739Y-118937327D01*
X147905564Y-119154240D01*
X147469886Y-119289106D01*
X146985664Y-119340000D01*
X103032279Y-119340000D01*
X102546106Y-119292330D01*
X102109503Y-119160512D01*
X101706814Y-118946399D01*
X101353387Y-118658150D01*
X101062673Y-118306739D01*
X100845760Y-117905564D01*
X100710894Y-117469886D01*
X100660000Y-116985664D01*
X100660000Y-114121874D01*
X102220881Y-114121874D01*
X102237554Y-114176864D01*
X102327877Y-114380206D01*
X102456135Y-114562020D01*
X102617399Y-114715318D01*
X102805471Y-114834210D01*
X103013124Y-114914126D01*
X103188000Y-114789129D01*
X103188000Y-113947000D01*
X102347046Y-113947000D01*
X102220881Y-114121874D01*
X100660000Y-114121874D01*
X100660000Y-108240000D01*
X102176928Y-108240000D01*
X102176928Y-109240000D01*
X102189188Y-109364482D01*
X102225498Y-109484180D01*
X102269888Y-109567226D01*
X102223617Y-109678933D01*
X102180000Y-109898212D01*
X102180000Y-110121788D01*
X102223617Y-110341067D01*
X102309176Y-110547624D01*
X102374241Y-110645000D01*
X102309176Y-110742376D01*
X102223617Y-110948933D01*
X102180000Y-111168212D01*
X102180000Y-111391788D01*
X102223617Y-111611067D01*
X102309176Y-111817624D01*
X102374241Y-111915000D01*
X102309176Y-112012376D01*
X102223617Y-112218933D01*
X102180000Y-112438212D01*
X102180000Y-112661788D01*
X102223617Y-112881067D01*
X102309176Y-113087624D01*
X102377353Y-113189658D01*
X102327877Y-113259794D01*
X102237554Y-113463136D01*
X102220881Y-113518126D01*
X102347046Y-113693000D01*
X103188000Y-113693000D01*
X103188000Y-113681974D01*
X103203212Y-113685000D01*
X103426788Y-113685000D01*
X103442000Y-113681974D01*
X103442000Y-113693000D01*
X103453026Y-113693000D01*
X103450000Y-113708212D01*
X103450000Y-113931788D01*
X103453026Y-113947000D01*
X103442000Y-113947000D01*
X103442000Y-114789129D01*
X103616876Y-114914126D01*
X103824529Y-114834210D01*
X103945488Y-114757744D01*
X104047376Y-114825824D01*
X104253933Y-114911383D01*
X104473212Y-114955000D01*
X104696788Y-114955000D01*
X104916067Y-114911383D01*
X105122624Y-114825824D01*
X105308520Y-114701612D01*
X105466612Y-114543520D01*
X105590824Y-114357624D01*
X105676383Y-114151067D01*
X105720000Y-113931788D01*
X105720000Y-113708212D01*
X105676383Y-113488933D01*
X105590824Y-113282376D01*
X105525759Y-113185000D01*
X105590824Y-113087624D01*
X105676383Y-112881067D01*
X105720000Y-112661788D01*
X105720000Y-112438212D01*
X105676383Y-112218933D01*
X105590824Y-112012376D01*
X105522647Y-111910342D01*
X105572123Y-111840206D01*
X105662446Y-111636864D01*
X105679119Y-111581874D01*
X105552954Y-111407000D01*
X104712000Y-111407000D01*
X104712000Y-111418026D01*
X104696788Y-111415000D01*
X104473212Y-111415000D01*
X104458000Y-111418026D01*
X104458000Y-111407000D01*
X104446974Y-111407000D01*
X104450000Y-111391788D01*
X104450000Y-111168212D01*
X104446974Y-111153000D01*
X104458000Y-111153000D01*
X104458000Y-111141974D01*
X104473212Y-111145000D01*
X104696788Y-111145000D01*
X104712000Y-111141974D01*
X104712000Y-111153000D01*
X105552954Y-111153000D01*
X105643200Y-111027911D01*
X107515000Y-111027911D01*
X107515000Y-111212089D01*
X107550932Y-111392729D01*
X107621414Y-111562889D01*
X107723738Y-111716028D01*
X107853972Y-111846262D01*
X108007111Y-111948586D01*
X108177271Y-112019068D01*
X108357911Y-112055000D01*
X108542089Y-112055000D01*
X108722729Y-112019068D01*
X108892889Y-111948586D01*
X109046028Y-111846262D01*
X109176262Y-111716028D01*
X109278586Y-111562889D01*
X109349068Y-111392729D01*
X109385000Y-111212089D01*
X109385000Y-111027911D01*
X109349068Y-110847271D01*
X109278586Y-110677111D01*
X109176262Y-110523972D01*
X109046028Y-110393738D01*
X108892889Y-110291414D01*
X108722729Y-110220932D01*
X108542089Y-110185000D01*
X108357911Y-110185000D01*
X108177271Y-110220932D01*
X108007111Y-110291414D01*
X107853972Y-110393738D01*
X107723738Y-110523972D01*
X107621414Y-110677111D01*
X107550932Y-110847271D01*
X107515000Y-111027911D01*
X105643200Y-111027911D01*
X105679119Y-110978126D01*
X105662446Y-110923136D01*
X105572123Y-110719794D01*
X105522647Y-110649658D01*
X105590824Y-110547624D01*
X105676383Y-110341067D01*
X105720000Y-110121788D01*
X105720000Y-109898212D01*
X105711155Y-109853740D01*
X110575000Y-109853740D01*
X110575000Y-110146260D01*
X110632068Y-110433158D01*
X110744010Y-110703411D01*
X110906525Y-110946632D01*
X111113368Y-111153475D01*
X111287760Y-111270000D01*
X111113368Y-111386525D01*
X110906525Y-111593368D01*
X110744010Y-111836589D01*
X110632068Y-112106842D01*
X110575000Y-112393740D01*
X110575000Y-112686260D01*
X110632068Y-112973158D01*
X110744010Y-113243411D01*
X110906525Y-113486632D01*
X111113368Y-113693475D01*
X111356589Y-113855990D01*
X111626842Y-113967932D01*
X111913740Y-114025000D01*
X112206260Y-114025000D01*
X112493158Y-113967932D01*
X112763411Y-113855990D01*
X113006632Y-113693475D01*
X113213475Y-113486632D01*
X113335195Y-113304466D01*
X113404822Y-113421355D01*
X113599731Y-113637588D01*
X113833080Y-113811641D01*
X114095901Y-113936825D01*
X114243110Y-113981476D01*
X114473000Y-113860155D01*
X114473000Y-112667000D01*
X114453000Y-112667000D01*
X114453000Y-112413000D01*
X114473000Y-112413000D01*
X114473000Y-110127000D01*
X114453000Y-110127000D01*
X114453000Y-109873000D01*
X114473000Y-109873000D01*
X114473000Y-108679845D01*
X114727000Y-108679845D01*
X114727000Y-109873000D01*
X114747000Y-109873000D01*
X114747000Y-110127000D01*
X114727000Y-110127000D01*
X114727000Y-112413000D01*
X114747000Y-112413000D01*
X114747000Y-112667000D01*
X114727000Y-112667000D01*
X114727000Y-113860155D01*
X114956890Y-113981476D01*
X115104099Y-113936825D01*
X115366920Y-113811641D01*
X115600269Y-113637588D01*
X115795178Y-113421355D01*
X115864805Y-113304466D01*
X115986525Y-113486632D01*
X116193368Y-113693475D01*
X116436589Y-113855990D01*
X116706842Y-113967932D01*
X116993740Y-114025000D01*
X117286260Y-114025000D01*
X117573158Y-113967932D01*
X117843411Y-113855990D01*
X118086632Y-113693475D01*
X118293475Y-113486632D01*
X118410000Y-113312240D01*
X118526525Y-113486632D01*
X118733368Y-113693475D01*
X118976589Y-113855990D01*
X119246842Y-113967932D01*
X119533740Y-114025000D01*
X119826260Y-114025000D01*
X120113158Y-113967932D01*
X120383411Y-113855990D01*
X120626632Y-113693475D01*
X120833475Y-113486632D01*
X120950000Y-113312240D01*
X121066525Y-113486632D01*
X121273368Y-113693475D01*
X121516589Y-113855990D01*
X121786842Y-113967932D01*
X122073740Y-114025000D01*
X122366260Y-114025000D01*
X122653158Y-113967932D01*
X122923411Y-113855990D01*
X123166632Y-113693475D01*
X123373475Y-113486632D01*
X123490000Y-113312240D01*
X123606525Y-113486632D01*
X123813368Y-113693475D01*
X124056589Y-113855990D01*
X124326842Y-113967932D01*
X124613740Y-114025000D01*
X124906260Y-114025000D01*
X125193158Y-113967932D01*
X125463411Y-113855990D01*
X125706632Y-113693475D01*
X125913475Y-113486632D01*
X126030000Y-113312240D01*
X126146525Y-113486632D01*
X126353368Y-113693475D01*
X126596589Y-113855990D01*
X126866842Y-113967932D01*
X127153740Y-114025000D01*
X127446260Y-114025000D01*
X127733158Y-113967932D01*
X128003411Y-113855990D01*
X128246632Y-113693475D01*
X128453475Y-113486632D01*
X128570000Y-113312240D01*
X128686525Y-113486632D01*
X128893368Y-113693475D01*
X129136589Y-113855990D01*
X129406842Y-113967932D01*
X129693740Y-114025000D01*
X129986260Y-114025000D01*
X130273158Y-113967932D01*
X130543411Y-113855990D01*
X130786632Y-113693475D01*
X130993475Y-113486632D01*
X131110000Y-113312240D01*
X131226525Y-113486632D01*
X131433368Y-113693475D01*
X131676589Y-113855990D01*
X131946842Y-113967932D01*
X132233740Y-114025000D01*
X132526260Y-114025000D01*
X132813158Y-113967932D01*
X133083411Y-113855990D01*
X133326632Y-113693475D01*
X133533475Y-113486632D01*
X133650000Y-113312240D01*
X133766525Y-113486632D01*
X133973368Y-113693475D01*
X134216589Y-113855990D01*
X134486842Y-113967932D01*
X134773740Y-114025000D01*
X135066260Y-114025000D01*
X135353158Y-113967932D01*
X135623411Y-113855990D01*
X135866632Y-113693475D01*
X136073475Y-113486632D01*
X136195195Y-113304466D01*
X136264822Y-113421355D01*
X136459731Y-113637588D01*
X136693080Y-113811641D01*
X136955901Y-113936825D01*
X137103110Y-113981476D01*
X137333000Y-113860155D01*
X137333000Y-112667000D01*
X137313000Y-112667000D01*
X137313000Y-112413000D01*
X137333000Y-112413000D01*
X137333000Y-110127000D01*
X137313000Y-110127000D01*
X137313000Y-109873000D01*
X137333000Y-109873000D01*
X137333000Y-108679845D01*
X137587000Y-108679845D01*
X137587000Y-109873000D01*
X137607000Y-109873000D01*
X137607000Y-110127000D01*
X137587000Y-110127000D01*
X137587000Y-112413000D01*
X137607000Y-112413000D01*
X137607000Y-112667000D01*
X137587000Y-112667000D01*
X137587000Y-113860155D01*
X137816890Y-113981476D01*
X137964099Y-113936825D01*
X138226920Y-113811641D01*
X138460269Y-113637588D01*
X138655178Y-113421355D01*
X138724805Y-113304466D01*
X138846525Y-113486632D01*
X139053368Y-113693475D01*
X139296589Y-113855990D01*
X139566842Y-113967932D01*
X139853740Y-114025000D01*
X140146260Y-114025000D01*
X140433158Y-113967932D01*
X140703411Y-113855990D01*
X140946632Y-113693475D01*
X141153475Y-113486632D01*
X141315990Y-113243411D01*
X141427932Y-112973158D01*
X141485000Y-112686260D01*
X141485000Y-112393740D01*
X141427932Y-112106842D01*
X141315990Y-111836589D01*
X141153475Y-111593368D01*
X141021620Y-111461513D01*
X141094180Y-111439502D01*
X141204494Y-111380537D01*
X141301185Y-111301185D01*
X141380537Y-111204494D01*
X141439502Y-111094180D01*
X141475812Y-110974482D01*
X141488072Y-110850000D01*
X141488072Y-109150000D01*
X141475812Y-109025518D01*
X141439502Y-108905820D01*
X141380537Y-108795506D01*
X141301185Y-108698815D01*
X141204494Y-108619463D01*
X141094180Y-108560498D01*
X140974482Y-108524188D01*
X140850000Y-108511928D01*
X139150000Y-108511928D01*
X139025518Y-108524188D01*
X138905820Y-108560498D01*
X138795506Y-108619463D01*
X138698815Y-108698815D01*
X138619463Y-108795506D01*
X138560498Y-108905820D01*
X138536034Y-108986466D01*
X138460269Y-108902412D01*
X138226920Y-108728359D01*
X137964099Y-108603175D01*
X137816890Y-108558524D01*
X137587000Y-108679845D01*
X137333000Y-108679845D01*
X137103110Y-108558524D01*
X136955901Y-108603175D01*
X136693080Y-108728359D01*
X136459731Y-108902412D01*
X136264822Y-109118645D01*
X136195195Y-109235534D01*
X136073475Y-109053368D01*
X135866632Y-108846525D01*
X135623411Y-108684010D01*
X135353158Y-108572068D01*
X135066260Y-108515000D01*
X134773740Y-108515000D01*
X134486842Y-108572068D01*
X134216589Y-108684010D01*
X133973368Y-108846525D01*
X133766525Y-109053368D01*
X133650000Y-109227760D01*
X133533475Y-109053368D01*
X133326632Y-108846525D01*
X133083411Y-108684010D01*
X132813158Y-108572068D01*
X132526260Y-108515000D01*
X132233740Y-108515000D01*
X131946842Y-108572068D01*
X131676589Y-108684010D01*
X131433368Y-108846525D01*
X131226525Y-109053368D01*
X131110000Y-109227760D01*
X130993475Y-109053368D01*
X130786632Y-108846525D01*
X130543411Y-108684010D01*
X130273158Y-108572068D01*
X129986260Y-108515000D01*
X129693740Y-108515000D01*
X129406842Y-108572068D01*
X129136589Y-108684010D01*
X128893368Y-108846525D01*
X128686525Y-109053368D01*
X128570000Y-109227760D01*
X128453475Y-109053368D01*
X128246632Y-108846525D01*
X128003411Y-108684010D01*
X127733158Y-108572068D01*
X127446260Y-108515000D01*
X127153740Y-108515000D01*
X126866842Y-108572068D01*
X126596589Y-108684010D01*
X126353368Y-108846525D01*
X126146525Y-109053368D01*
X126030000Y-109227760D01*
X125913475Y-109053368D01*
X125706632Y-108846525D01*
X125463411Y-108684010D01*
X125193158Y-108572068D01*
X124906260Y-108515000D01*
X124613740Y-108515000D01*
X124326842Y-108572068D01*
X124056589Y-108684010D01*
X123813368Y-108846525D01*
X123606525Y-109053368D01*
X123490000Y-109227760D01*
X123373475Y-109053368D01*
X123166632Y-108846525D01*
X122923411Y-108684010D01*
X122653158Y-108572068D01*
X122366260Y-108515000D01*
X122073740Y-108515000D01*
X121786842Y-108572068D01*
X121516589Y-108684010D01*
X121273368Y-108846525D01*
X121066525Y-109053368D01*
X120950000Y-109227760D01*
X120833475Y-109053368D01*
X120626632Y-108846525D01*
X120383411Y-108684010D01*
X120113158Y-108572068D01*
X119826260Y-108515000D01*
X119533740Y-108515000D01*
X119246842Y-108572068D01*
X118976589Y-108684010D01*
X118733368Y-108846525D01*
X118526525Y-109053368D01*
X118410000Y-109227760D01*
X118293475Y-109053368D01*
X118086632Y-108846525D01*
X117843411Y-108684010D01*
X117573158Y-108572068D01*
X117286260Y-108515000D01*
X116993740Y-108515000D01*
X116706842Y-108572068D01*
X116436589Y-108684010D01*
X116193368Y-108846525D01*
X115986525Y-109053368D01*
X115864805Y-109235534D01*
X115795178Y-109118645D01*
X115600269Y-108902412D01*
X115366920Y-108728359D01*
X115104099Y-108603175D01*
X114956890Y-108558524D01*
X114727000Y-108679845D01*
X114473000Y-108679845D01*
X114243110Y-108558524D01*
X114095901Y-108603175D01*
X113833080Y-108728359D01*
X113599731Y-108902412D01*
X113404822Y-109118645D01*
X113335195Y-109235534D01*
X113213475Y-109053368D01*
X113006632Y-108846525D01*
X112763411Y-108684010D01*
X112493158Y-108572068D01*
X112206260Y-108515000D01*
X111913740Y-108515000D01*
X111626842Y-108572068D01*
X111356589Y-108684010D01*
X111113368Y-108846525D01*
X110906525Y-109053368D01*
X110744010Y-109296589D01*
X110632068Y-109566842D01*
X110575000Y-109853740D01*
X105711155Y-109853740D01*
X105676383Y-109678933D01*
X105590824Y-109472376D01*
X105525759Y-109375000D01*
X105590824Y-109277624D01*
X105676383Y-109071067D01*
X105720000Y-108851788D01*
X105720000Y-108628212D01*
X105676383Y-108408933D01*
X105590824Y-108202376D01*
X105466612Y-108016480D01*
X105308520Y-107858388D01*
X105122624Y-107734176D01*
X104916067Y-107648617D01*
X104696788Y-107605000D01*
X104473212Y-107605000D01*
X104253933Y-107648617D01*
X104142226Y-107694888D01*
X104059180Y-107650498D01*
X103939482Y-107614188D01*
X103815000Y-107601928D01*
X102815000Y-107601928D01*
X102690518Y-107614188D01*
X102570820Y-107650498D01*
X102460506Y-107709463D01*
X102363815Y-107788815D01*
X102284463Y-107885506D01*
X102225498Y-107995820D01*
X102189188Y-108115518D01*
X102176928Y-108240000D01*
X100660000Y-108240000D01*
X100660000Y-107307911D01*
X106045000Y-107307911D01*
X106045000Y-107492089D01*
X106080932Y-107672729D01*
X106151414Y-107842889D01*
X106253738Y-107996028D01*
X106383972Y-108126262D01*
X106537111Y-108228586D01*
X106707271Y-108299068D01*
X106887911Y-108335000D01*
X107072089Y-108335000D01*
X107252729Y-108299068D01*
X107283296Y-108286407D01*
X107436938Y-108350047D01*
X107617578Y-108385979D01*
X107801756Y-108385979D01*
X107982396Y-108350047D01*
X108152556Y-108279565D01*
X108305695Y-108177241D01*
X108435929Y-108047007D01*
X108538253Y-107893868D01*
X108608735Y-107723708D01*
X108644667Y-107543068D01*
X108644667Y-107358890D01*
X108608735Y-107178250D01*
X108538253Y-107008090D01*
X108435929Y-106854951D01*
X108305695Y-106724717D01*
X108152556Y-106622393D01*
X107982396Y-106551911D01*
X107801756Y-106515979D01*
X107617578Y-106515979D01*
X107436938Y-106551911D01*
X107406371Y-106564572D01*
X107252729Y-106500932D01*
X107072089Y-106465000D01*
X106887911Y-106465000D01*
X106707271Y-106500932D01*
X106537111Y-106571414D01*
X106383972Y-106673738D01*
X106253738Y-106803972D01*
X106151414Y-106957111D01*
X106080932Y-107127271D01*
X106045000Y-107307911D01*
X100660000Y-107307911D01*
X100660000Y-103507911D01*
X114515000Y-103507911D01*
X114515000Y-103692089D01*
X114550932Y-103872729D01*
X114621414Y-104042889D01*
X114723738Y-104196028D01*
X114853972Y-104326262D01*
X115007111Y-104428586D01*
X115177271Y-104499068D01*
X115357911Y-104535000D01*
X115542089Y-104535000D01*
X115722729Y-104499068D01*
X115892889Y-104428586D01*
X116046028Y-104326262D01*
X116176262Y-104196028D01*
X116278586Y-104042889D01*
X116349068Y-103872729D01*
X116385000Y-103692089D01*
X116385000Y-103507911D01*
X116349068Y-103327271D01*
X116278586Y-103157111D01*
X116176262Y-103003972D01*
X116046028Y-102873738D01*
X115892889Y-102771414D01*
X115722729Y-102700932D01*
X115542089Y-102665000D01*
X115357911Y-102665000D01*
X115177271Y-102700932D01*
X115007111Y-102771414D01*
X114853972Y-102873738D01*
X114723738Y-103003972D01*
X114621414Y-103157111D01*
X114550932Y-103327271D01*
X114515000Y-103507911D01*
X100660000Y-103507911D01*
X100660000Y-99820000D01*
X101669509Y-99820000D01*
X101691423Y-100042499D01*
X101756324Y-100256447D01*
X101861716Y-100453623D01*
X102003551Y-100626449D01*
X102176377Y-100768284D01*
X102373553Y-100873676D01*
X102587501Y-100938577D01*
X102754248Y-100955000D01*
X103465752Y-100955000D01*
X103632499Y-100938577D01*
X103846447Y-100873676D01*
X104043623Y-100768284D01*
X104216449Y-100626449D01*
X104358284Y-100453623D01*
X104463676Y-100256447D01*
X104528577Y-100042499D01*
X104550491Y-99820000D01*
X105599509Y-99820000D01*
X105621423Y-100042499D01*
X105686324Y-100256447D01*
X105791716Y-100453623D01*
X105933551Y-100626449D01*
X106106377Y-100768284D01*
X106303553Y-100873676D01*
X106517501Y-100938577D01*
X106684248Y-100955000D01*
X107895752Y-100955000D01*
X108062499Y-100938577D01*
X108276447Y-100873676D01*
X108473623Y-100768284D01*
X108646449Y-100626449D01*
X108665578Y-100603140D01*
X122263000Y-100603140D01*
X122263000Y-100787318D01*
X122298932Y-100967958D01*
X122369414Y-101138118D01*
X122471738Y-101291257D01*
X122601972Y-101421491D01*
X122755111Y-101523815D01*
X122792983Y-101539502D01*
X122798932Y-101569407D01*
X122869414Y-101739567D01*
X122971738Y-101892706D01*
X123101972Y-102022940D01*
X123255111Y-102125264D01*
X123283837Y-102137162D01*
X123298932Y-102213051D01*
X123369414Y-102383211D01*
X123471738Y-102536350D01*
X123601972Y-102666584D01*
X123755111Y-102768908D01*
X123778220Y-102778480D01*
X123798932Y-102882606D01*
X123869414Y-103052766D01*
X123971738Y-103205905D01*
X124101972Y-103336139D01*
X124255111Y-103438463D01*
X124286768Y-103451576D01*
X124298932Y-103512729D01*
X124369414Y-103682889D01*
X124471738Y-103836028D01*
X124601972Y-103966262D01*
X124755111Y-104068586D01*
X124925271Y-104139068D01*
X125105911Y-104175000D01*
X125290089Y-104175000D01*
X125470729Y-104139068D01*
X125640889Y-104068586D01*
X125794028Y-103966262D01*
X125924262Y-103836028D01*
X126026586Y-103682889D01*
X126097068Y-103512729D01*
X126133000Y-103332089D01*
X126133000Y-103147911D01*
X126097068Y-102967271D01*
X126026586Y-102797111D01*
X125924262Y-102643972D01*
X125794028Y-102513738D01*
X125640889Y-102411414D01*
X125609232Y-102398301D01*
X125597068Y-102337148D01*
X125526586Y-102166988D01*
X125424262Y-102013849D01*
X125294028Y-101883615D01*
X125140889Y-101781291D01*
X125117780Y-101771719D01*
X125097068Y-101667593D01*
X125026586Y-101497433D01*
X124924262Y-101344294D01*
X124794028Y-101214060D01*
X124640889Y-101111736D01*
X124612163Y-101099838D01*
X124597068Y-101023949D01*
X124526586Y-100853789D01*
X124424262Y-100700650D01*
X124294028Y-100570416D01*
X124140889Y-100468092D01*
X124103017Y-100452405D01*
X124097068Y-100422500D01*
X124026586Y-100252340D01*
X123924262Y-100099201D01*
X123794028Y-99968967D01*
X123640889Y-99866643D01*
X123470729Y-99796161D01*
X123290089Y-99760229D01*
X123105911Y-99760229D01*
X122925271Y-99796161D01*
X122755111Y-99866643D01*
X122601972Y-99968967D01*
X122471738Y-100099201D01*
X122369414Y-100252340D01*
X122298932Y-100422500D01*
X122263000Y-100603140D01*
X108665578Y-100603140D01*
X108788284Y-100453623D01*
X108893676Y-100256447D01*
X108958577Y-100042499D01*
X108980491Y-99820000D01*
X108958577Y-99597501D01*
X108893676Y-99383553D01*
X108788284Y-99186377D01*
X108646449Y-99013551D01*
X108473623Y-98871716D01*
X108276447Y-98766324D01*
X108062499Y-98701423D01*
X107895752Y-98685000D01*
X107676904Y-98685000D01*
X107683108Y-98670022D01*
X107720000Y-98484552D01*
X107720000Y-98295448D01*
X107683108Y-98109978D01*
X107661542Y-98057911D01*
X127805000Y-98057911D01*
X127805000Y-98242089D01*
X127840932Y-98422729D01*
X127911414Y-98592889D01*
X128013738Y-98746028D01*
X128143972Y-98876262D01*
X128297111Y-98978586D01*
X128467271Y-99049068D01*
X128647911Y-99085000D01*
X128832089Y-99085000D01*
X129012729Y-99049068D01*
X129182889Y-98978586D01*
X129336028Y-98876262D01*
X129466262Y-98746028D01*
X129568586Y-98592889D01*
X129639068Y-98422729D01*
X129675000Y-98242089D01*
X129675000Y-98057911D01*
X129639068Y-97877271D01*
X129568586Y-97707111D01*
X129466262Y-97553972D01*
X129336028Y-97423738D01*
X129182889Y-97321414D01*
X129012729Y-97250932D01*
X128832089Y-97215000D01*
X128647911Y-97215000D01*
X128467271Y-97250932D01*
X128297111Y-97321414D01*
X128143972Y-97423738D01*
X128013738Y-97553972D01*
X127911414Y-97707111D01*
X127840932Y-97877271D01*
X127805000Y-98057911D01*
X107661542Y-98057911D01*
X107610741Y-97935269D01*
X107505681Y-97778036D01*
X107371964Y-97644319D01*
X107214731Y-97539259D01*
X107040022Y-97466892D01*
X106854552Y-97430000D01*
X106665448Y-97430000D01*
X106479978Y-97466892D01*
X106305269Y-97539259D01*
X106148036Y-97644319D01*
X106014319Y-97778036D01*
X105909259Y-97935269D01*
X105836892Y-98109978D01*
X105800000Y-98295448D01*
X105800000Y-98484552D01*
X105836892Y-98670022D01*
X105909259Y-98844731D01*
X105990715Y-98966638D01*
X105933551Y-99013551D01*
X105791716Y-99186377D01*
X105686324Y-99383553D01*
X105621423Y-99597501D01*
X105599509Y-99820000D01*
X104550491Y-99820000D01*
X104528577Y-99597501D01*
X104463676Y-99383553D01*
X104358284Y-99186377D01*
X104216449Y-99013551D01*
X104043623Y-98871716D01*
X103846447Y-98766324D01*
X103632499Y-98701423D01*
X103465752Y-98685000D01*
X102754248Y-98685000D01*
X102587501Y-98701423D01*
X102373553Y-98766324D01*
X102176377Y-98871716D01*
X102003551Y-99013551D01*
X101861716Y-99186377D01*
X101756324Y-99383553D01*
X101691423Y-99597501D01*
X101669509Y-99820000D01*
X100660000Y-99820000D01*
X100660000Y-95907911D01*
X109765000Y-95907911D01*
X109765000Y-96092089D01*
X109800932Y-96272729D01*
X109871414Y-96442889D01*
X109973738Y-96596028D01*
X110103972Y-96726262D01*
X110257111Y-96828586D01*
X110427271Y-96899068D01*
X110607911Y-96935000D01*
X110792089Y-96935000D01*
X110972729Y-96899068D01*
X111142889Y-96828586D01*
X111172177Y-96809016D01*
X113492755Y-96809016D01*
X113492755Y-96993194D01*
X113528687Y-97173834D01*
X113599169Y-97343994D01*
X113701493Y-97497133D01*
X113831727Y-97627367D01*
X113984866Y-97729691D01*
X114155026Y-97800173D01*
X114335666Y-97836105D01*
X114519844Y-97836105D01*
X114700484Y-97800173D01*
X114870644Y-97729691D01*
X115023783Y-97627367D01*
X115136150Y-97515000D01*
X115172089Y-97515000D01*
X115352729Y-97479068D01*
X115522889Y-97408586D01*
X115676028Y-97306262D01*
X115806262Y-97176028D01*
X115908586Y-97022889D01*
X115979068Y-96852729D01*
X115980605Y-96845000D01*
X116102089Y-96845000D01*
X116282729Y-96809068D01*
X116452889Y-96738586D01*
X116453899Y-96737911D01*
X118605000Y-96737911D01*
X118605000Y-96922089D01*
X118640932Y-97102729D01*
X118711414Y-97272889D01*
X118813738Y-97426028D01*
X118943972Y-97556262D01*
X119097111Y-97658586D01*
X119267271Y-97729068D01*
X119447911Y-97765000D01*
X119632089Y-97765000D01*
X119812729Y-97729068D01*
X119982889Y-97658586D01*
X120136028Y-97556262D01*
X120266262Y-97426028D01*
X120368586Y-97272889D01*
X120439068Y-97102729D01*
X120475000Y-96922089D01*
X120475000Y-96737911D01*
X120439068Y-96557271D01*
X120368586Y-96387111D01*
X120266262Y-96233972D01*
X120136028Y-96103738D01*
X119982889Y-96001414D01*
X119812729Y-95930932D01*
X119632089Y-95895000D01*
X119447911Y-95895000D01*
X119267271Y-95930932D01*
X119097111Y-96001414D01*
X118943972Y-96103738D01*
X118813738Y-96233972D01*
X118711414Y-96387111D01*
X118640932Y-96557271D01*
X118605000Y-96737911D01*
X116453899Y-96737911D01*
X116606028Y-96636262D01*
X116736262Y-96506028D01*
X116838586Y-96352889D01*
X116909068Y-96182729D01*
X116945000Y-96002089D01*
X116945000Y-95817911D01*
X116909068Y-95637271D01*
X116838586Y-95467111D01*
X116736262Y-95313972D01*
X116606028Y-95183738D01*
X116452889Y-95081414D01*
X116282729Y-95010932D01*
X116102089Y-94975000D01*
X115917911Y-94975000D01*
X115737271Y-95010932D01*
X115567111Y-95081414D01*
X115413972Y-95183738D01*
X115283738Y-95313972D01*
X115181414Y-95467111D01*
X115110932Y-95637271D01*
X115109395Y-95645000D01*
X114987911Y-95645000D01*
X114807271Y-95680932D01*
X114637111Y-95751414D01*
X114483972Y-95853738D01*
X114371605Y-95966105D01*
X114335666Y-95966105D01*
X114155026Y-96002037D01*
X113984866Y-96072519D01*
X113831727Y-96174843D01*
X113701493Y-96305077D01*
X113599169Y-96458216D01*
X113528687Y-96628376D01*
X113492755Y-96809016D01*
X111172177Y-96809016D01*
X111296028Y-96726262D01*
X111426262Y-96596028D01*
X111528586Y-96442889D01*
X111599068Y-96272729D01*
X111635000Y-96092089D01*
X111635000Y-95907911D01*
X111599068Y-95727271D01*
X111528586Y-95557111D01*
X111426262Y-95403972D01*
X111296028Y-95273738D01*
X111142889Y-95171414D01*
X110972729Y-95100932D01*
X110792089Y-95065000D01*
X110607911Y-95065000D01*
X110427271Y-95100932D01*
X110257111Y-95171414D01*
X110103972Y-95273738D01*
X109973738Y-95403972D01*
X109871414Y-95557111D01*
X109800932Y-95727271D01*
X109765000Y-95907911D01*
X100660000Y-95907911D01*
X100660000Y-94105911D01*
X111025000Y-94105911D01*
X111025000Y-94290089D01*
X111060932Y-94470729D01*
X111131414Y-94640889D01*
X111233738Y-94794028D01*
X111363972Y-94924262D01*
X111517111Y-95026586D01*
X111687271Y-95097068D01*
X111867911Y-95133000D01*
X112052089Y-95133000D01*
X112232729Y-95097068D01*
X112402889Y-95026586D01*
X112556028Y-94924262D01*
X112686262Y-94794028D01*
X112788586Y-94640889D01*
X112859068Y-94470729D01*
X112895000Y-94290089D01*
X112895000Y-94105911D01*
X112859068Y-93925271D01*
X112788586Y-93755111D01*
X112686262Y-93601972D01*
X112556028Y-93471738D01*
X112402889Y-93369414D01*
X112232729Y-93298932D01*
X112052089Y-93263000D01*
X111867911Y-93263000D01*
X111687271Y-93298932D01*
X111517111Y-93369414D01*
X111363972Y-93471738D01*
X111233738Y-93601972D01*
X111131414Y-93755111D01*
X111060932Y-93925271D01*
X111025000Y-94105911D01*
X100660000Y-94105911D01*
X100660000Y-91180000D01*
X101669509Y-91180000D01*
X101691423Y-91402499D01*
X101756324Y-91616447D01*
X101861716Y-91813623D01*
X102003551Y-91986449D01*
X102176377Y-92128284D01*
X102373553Y-92233676D01*
X102587501Y-92298577D01*
X102754248Y-92315000D01*
X103465752Y-92315000D01*
X103632499Y-92298577D01*
X103846447Y-92233676D01*
X104043623Y-92128284D01*
X104216449Y-91986449D01*
X104358284Y-91813623D01*
X104463676Y-91616447D01*
X104528577Y-91402499D01*
X104550491Y-91180000D01*
X105599509Y-91180000D01*
X105621423Y-91402499D01*
X105686324Y-91616447D01*
X105791716Y-91813623D01*
X105933551Y-91986449D01*
X105990715Y-92033362D01*
X105909259Y-92155269D01*
X105836892Y-92329978D01*
X105800000Y-92515448D01*
X105800000Y-92704552D01*
X105836892Y-92890022D01*
X105909259Y-93064731D01*
X106014319Y-93221964D01*
X106148036Y-93355681D01*
X106305269Y-93460741D01*
X106479978Y-93533108D01*
X106665448Y-93570000D01*
X106854552Y-93570000D01*
X107040022Y-93533108D01*
X107214731Y-93460741D01*
X107371964Y-93355681D01*
X107505681Y-93221964D01*
X107610741Y-93064731D01*
X107683108Y-92890022D01*
X107720000Y-92704552D01*
X107720000Y-92515448D01*
X107683108Y-92329978D01*
X107676904Y-92315000D01*
X107895752Y-92315000D01*
X108062499Y-92298577D01*
X108276447Y-92233676D01*
X108473623Y-92128284D01*
X108646449Y-91986449D01*
X108788284Y-91813623D01*
X108893676Y-91616447D01*
X108958577Y-91402499D01*
X108972817Y-91257911D01*
X116015000Y-91257911D01*
X116015000Y-91442089D01*
X116050932Y-91622729D01*
X116121414Y-91792889D01*
X116223738Y-91946028D01*
X116353972Y-92076262D01*
X116507111Y-92178586D01*
X116677271Y-92249068D01*
X116857911Y-92285000D01*
X117042089Y-92285000D01*
X117222729Y-92249068D01*
X117274632Y-92227569D01*
X117333738Y-92316028D01*
X117463972Y-92446262D01*
X117617111Y-92548586D01*
X117787271Y-92619068D01*
X117967911Y-92655000D01*
X118152089Y-92655000D01*
X118332729Y-92619068D01*
X118502889Y-92548586D01*
X118656028Y-92446262D01*
X118786262Y-92316028D01*
X118883315Y-92170778D01*
X119042729Y-92139068D01*
X119212889Y-92068586D01*
X119366028Y-91966262D01*
X119367633Y-91964657D01*
X119500297Y-91991046D01*
X119684475Y-91991046D01*
X119865115Y-91955114D01*
X120035275Y-91884632D01*
X120120164Y-91827911D01*
X130805000Y-91827911D01*
X130805000Y-92012089D01*
X130840932Y-92192729D01*
X130911414Y-92362889D01*
X131013738Y-92516028D01*
X131143972Y-92646262D01*
X131297111Y-92748586D01*
X131467271Y-92819068D01*
X131647911Y-92855000D01*
X131832089Y-92855000D01*
X132012729Y-92819068D01*
X132182889Y-92748586D01*
X132336028Y-92646262D01*
X132466262Y-92516028D01*
X132568586Y-92362889D01*
X132639068Y-92192729D01*
X132675000Y-92012089D01*
X132675000Y-91827911D01*
X132639068Y-91647271D01*
X132568586Y-91477111D01*
X132466262Y-91323972D01*
X132336028Y-91193738D01*
X132182889Y-91091414D01*
X132012729Y-91020932D01*
X131832089Y-90985000D01*
X131647911Y-90985000D01*
X131467271Y-91020932D01*
X131297111Y-91091414D01*
X131143972Y-91193738D01*
X131013738Y-91323972D01*
X130911414Y-91477111D01*
X130840932Y-91647271D01*
X130805000Y-91827911D01*
X120120164Y-91827911D01*
X120188414Y-91782308D01*
X120215722Y-91755000D01*
X120372089Y-91755000D01*
X120552729Y-91719068D01*
X120722889Y-91648586D01*
X120876028Y-91546262D01*
X121006262Y-91416028D01*
X121108586Y-91262889D01*
X121179068Y-91092729D01*
X121215000Y-90912089D01*
X121215000Y-90727911D01*
X121179068Y-90547271D01*
X121178127Y-90545000D01*
X121252089Y-90545000D01*
X121432729Y-90509068D01*
X121602889Y-90438586D01*
X121756028Y-90336262D01*
X121886262Y-90206028D01*
X121988586Y-90052889D01*
X122059068Y-89882729D01*
X122095000Y-89702089D01*
X122095000Y-89517911D01*
X122059068Y-89337271D01*
X121988586Y-89167111D01*
X121886262Y-89013972D01*
X121756028Y-88883738D01*
X121602889Y-88781414D01*
X121432729Y-88710932D01*
X121252089Y-88675000D01*
X121067911Y-88675000D01*
X120887271Y-88710932D01*
X120717111Y-88781414D01*
X120563972Y-88883738D01*
X120433738Y-89013972D01*
X120331414Y-89167111D01*
X120260932Y-89337271D01*
X120225000Y-89517911D01*
X120225000Y-89702089D01*
X120260932Y-89882729D01*
X120261873Y-89885000D01*
X120187911Y-89885000D01*
X120007271Y-89920932D01*
X119837111Y-89991414D01*
X119683972Y-90093738D01*
X119656664Y-90121046D01*
X119500297Y-90121046D01*
X119319657Y-90156978D01*
X119149497Y-90227460D01*
X118996358Y-90329784D01*
X118994753Y-90331389D01*
X118862089Y-90305000D01*
X118677911Y-90305000D01*
X118497271Y-90340932D01*
X118327111Y-90411414D01*
X118173972Y-90513738D01*
X118043738Y-90643972D01*
X117946685Y-90789222D01*
X117787271Y-90820932D01*
X117735368Y-90842431D01*
X117676262Y-90753972D01*
X117546028Y-90623738D01*
X117392889Y-90521414D01*
X117222729Y-90450932D01*
X117042089Y-90415000D01*
X116857911Y-90415000D01*
X116677271Y-90450932D01*
X116507111Y-90521414D01*
X116353972Y-90623738D01*
X116223738Y-90753972D01*
X116121414Y-90907111D01*
X116050932Y-91077271D01*
X116015000Y-91257911D01*
X108972817Y-91257911D01*
X108980491Y-91180000D01*
X108958577Y-90957501D01*
X108893676Y-90743553D01*
X108788284Y-90546377D01*
X108646449Y-90373551D01*
X108473623Y-90231716D01*
X108276447Y-90126324D01*
X108062499Y-90061423D01*
X107895752Y-90045000D01*
X106684248Y-90045000D01*
X106517501Y-90061423D01*
X106303553Y-90126324D01*
X106106377Y-90231716D01*
X105933551Y-90373551D01*
X105791716Y-90546377D01*
X105686324Y-90743553D01*
X105621423Y-90957501D01*
X105599509Y-91180000D01*
X104550491Y-91180000D01*
X104528577Y-90957501D01*
X104463676Y-90743553D01*
X104358284Y-90546377D01*
X104216449Y-90373551D01*
X104043623Y-90231716D01*
X103846447Y-90126324D01*
X103632499Y-90061423D01*
X103465752Y-90045000D01*
X102754248Y-90045000D01*
X102587501Y-90061423D01*
X102373553Y-90126324D01*
X102176377Y-90231716D01*
X102003551Y-90373551D01*
X101861716Y-90546377D01*
X101756324Y-90743553D01*
X101691423Y-90957501D01*
X101669509Y-91180000D01*
X100660000Y-91180000D01*
X100660000Y-88103142D01*
X122763000Y-88103142D01*
X122763000Y-88287320D01*
X122798932Y-88467960D01*
X122869414Y-88638120D01*
X122971738Y-88791259D01*
X123101972Y-88921493D01*
X123255111Y-89023817D01*
X123425271Y-89094299D01*
X123605911Y-89130231D01*
X123790089Y-89130231D01*
X123970729Y-89094299D01*
X124140889Y-89023817D01*
X124294028Y-88921493D01*
X124424262Y-88791259D01*
X124526586Y-88638120D01*
X124597068Y-88467960D01*
X124598298Y-88461774D01*
X124640889Y-88444133D01*
X124794028Y-88341809D01*
X124924262Y-88211575D01*
X125026586Y-88058436D01*
X125097068Y-87888276D01*
X125109629Y-87825130D01*
X125140889Y-87812182D01*
X125294028Y-87709858D01*
X125424262Y-87579624D01*
X125526586Y-87426485D01*
X125597068Y-87256325D01*
X125599146Y-87245876D01*
X125640889Y-87228586D01*
X125794028Y-87126262D01*
X125924262Y-86996028D01*
X126026586Y-86842889D01*
X126097068Y-86672729D01*
X126133000Y-86492089D01*
X126133000Y-86307911D01*
X126097068Y-86127271D01*
X126026586Y-85957111D01*
X125924262Y-85803972D01*
X125918201Y-85797911D01*
X131545000Y-85797911D01*
X131545000Y-85982089D01*
X131580932Y-86162729D01*
X131651414Y-86332889D01*
X131753738Y-86486028D01*
X131883972Y-86616262D01*
X132037111Y-86718586D01*
X132207271Y-86789068D01*
X132387911Y-86825000D01*
X132572089Y-86825000D01*
X132752729Y-86789068D01*
X132922889Y-86718586D01*
X133076028Y-86616262D01*
X133206262Y-86486028D01*
X133308586Y-86332889D01*
X133379068Y-86162729D01*
X133415000Y-85982089D01*
X133415000Y-85797911D01*
X133379068Y-85617271D01*
X133308586Y-85447111D01*
X133206262Y-85293972D01*
X133076028Y-85163738D01*
X132922889Y-85061414D01*
X132752729Y-84990932D01*
X132572089Y-84955000D01*
X132387911Y-84955000D01*
X132207271Y-84990932D01*
X132037111Y-85061414D01*
X131883972Y-85163738D01*
X131753738Y-85293972D01*
X131651414Y-85447111D01*
X131580932Y-85617271D01*
X131545000Y-85797911D01*
X125918201Y-85797911D01*
X125794028Y-85673738D01*
X125640889Y-85571414D01*
X125470729Y-85500932D01*
X125290089Y-85465000D01*
X125105911Y-85465000D01*
X124925271Y-85500932D01*
X124755111Y-85571414D01*
X124601972Y-85673738D01*
X124471738Y-85803972D01*
X124369414Y-85957111D01*
X124298932Y-86127271D01*
X124296854Y-86137720D01*
X124255111Y-86155010D01*
X124101972Y-86257334D01*
X123971738Y-86387568D01*
X123869414Y-86540707D01*
X123798932Y-86710867D01*
X123786371Y-86774013D01*
X123755111Y-86786961D01*
X123601972Y-86889285D01*
X123471738Y-87019519D01*
X123369414Y-87172658D01*
X123298932Y-87342818D01*
X123297702Y-87349004D01*
X123255111Y-87366645D01*
X123101972Y-87468969D01*
X122971738Y-87599203D01*
X122869414Y-87752342D01*
X122798932Y-87922502D01*
X122763000Y-88103142D01*
X100660000Y-88103142D01*
X100660000Y-77313740D01*
X110575000Y-77313740D01*
X110575000Y-77606260D01*
X110632068Y-77893158D01*
X110744010Y-78163411D01*
X110906525Y-78406632D01*
X111113368Y-78613475D01*
X111287760Y-78730000D01*
X111113368Y-78846525D01*
X110906525Y-79053368D01*
X110744010Y-79296589D01*
X110632068Y-79566842D01*
X110575000Y-79853740D01*
X110575000Y-80146260D01*
X110632068Y-80433158D01*
X110744010Y-80703411D01*
X110906525Y-80946632D01*
X111113368Y-81153475D01*
X111356589Y-81315990D01*
X111626842Y-81427932D01*
X111913740Y-81485000D01*
X112206260Y-81485000D01*
X112493158Y-81427932D01*
X112763411Y-81315990D01*
X113006632Y-81153475D01*
X113213475Y-80946632D01*
X113335195Y-80764466D01*
X113404822Y-80881355D01*
X113599731Y-81097588D01*
X113833080Y-81271641D01*
X114095901Y-81396825D01*
X114243110Y-81441476D01*
X114473000Y-81320155D01*
X114473000Y-80127000D01*
X114453000Y-80127000D01*
X114453000Y-79873000D01*
X114473000Y-79873000D01*
X114473000Y-77587000D01*
X114453000Y-77587000D01*
X114453000Y-77333000D01*
X114473000Y-77333000D01*
X114473000Y-76139845D01*
X114727000Y-76139845D01*
X114727000Y-77333000D01*
X114747000Y-77333000D01*
X114747000Y-77587000D01*
X114727000Y-77587000D01*
X114727000Y-79873000D01*
X114747000Y-79873000D01*
X114747000Y-80127000D01*
X114727000Y-80127000D01*
X114727000Y-81320155D01*
X114956890Y-81441476D01*
X115104099Y-81396825D01*
X115366920Y-81271641D01*
X115600269Y-81097588D01*
X115795178Y-80881355D01*
X115864805Y-80764466D01*
X115986525Y-80946632D01*
X116193368Y-81153475D01*
X116436589Y-81315990D01*
X116706842Y-81427932D01*
X116993740Y-81485000D01*
X117286260Y-81485000D01*
X117573158Y-81427932D01*
X117843411Y-81315990D01*
X118086632Y-81153475D01*
X118293475Y-80946632D01*
X118410000Y-80772240D01*
X118526525Y-80946632D01*
X118733368Y-81153475D01*
X118976589Y-81315990D01*
X119246842Y-81427932D01*
X119533740Y-81485000D01*
X119826260Y-81485000D01*
X120113158Y-81427932D01*
X120383411Y-81315990D01*
X120626632Y-81153475D01*
X120833475Y-80946632D01*
X120950000Y-80772240D01*
X121066525Y-80946632D01*
X121273368Y-81153475D01*
X121516589Y-81315990D01*
X121786842Y-81427932D01*
X122073740Y-81485000D01*
X122366260Y-81485000D01*
X122653158Y-81427932D01*
X122923411Y-81315990D01*
X123166632Y-81153475D01*
X123373475Y-80946632D01*
X123490000Y-80772240D01*
X123606525Y-80946632D01*
X123813368Y-81153475D01*
X124056589Y-81315990D01*
X124326842Y-81427932D01*
X124613740Y-81485000D01*
X124906260Y-81485000D01*
X125193158Y-81427932D01*
X125463411Y-81315990D01*
X125706632Y-81153475D01*
X125913475Y-80946632D01*
X126030000Y-80772240D01*
X126146525Y-80946632D01*
X126353368Y-81153475D01*
X126596589Y-81315990D01*
X126866842Y-81427932D01*
X127153740Y-81485000D01*
X127446260Y-81485000D01*
X127733158Y-81427932D01*
X128003411Y-81315990D01*
X128246632Y-81153475D01*
X128453475Y-80946632D01*
X128570000Y-80772240D01*
X128686525Y-80946632D01*
X128893368Y-81153475D01*
X129136589Y-81315990D01*
X129406842Y-81427932D01*
X129693740Y-81485000D01*
X129986260Y-81485000D01*
X130273158Y-81427932D01*
X130543411Y-81315990D01*
X130786632Y-81153475D01*
X130993475Y-80946632D01*
X131110000Y-80772240D01*
X131226525Y-80946632D01*
X131433368Y-81153475D01*
X131676589Y-81315990D01*
X131946842Y-81427932D01*
X132233740Y-81485000D01*
X132526260Y-81485000D01*
X132813158Y-81427932D01*
X133083411Y-81315990D01*
X133326632Y-81153475D01*
X133533475Y-80946632D01*
X133650000Y-80772240D01*
X133766525Y-80946632D01*
X133973368Y-81153475D01*
X134216589Y-81315990D01*
X134486842Y-81427932D01*
X134773740Y-81485000D01*
X135066260Y-81485000D01*
X135353158Y-81427932D01*
X135623411Y-81315990D01*
X135866632Y-81153475D01*
X136073475Y-80946632D01*
X136195195Y-80764466D01*
X136264822Y-80881355D01*
X136459731Y-81097588D01*
X136693080Y-81271641D01*
X136955901Y-81396825D01*
X137103110Y-81441476D01*
X137333000Y-81320155D01*
X137333000Y-80127000D01*
X137313000Y-80127000D01*
X137313000Y-79873000D01*
X137333000Y-79873000D01*
X137333000Y-77587000D01*
X137313000Y-77587000D01*
X137313000Y-77333000D01*
X137333000Y-77333000D01*
X137333000Y-76139845D01*
X137587000Y-76139845D01*
X137587000Y-77333000D01*
X137607000Y-77333000D01*
X137607000Y-77587000D01*
X137587000Y-77587000D01*
X137587000Y-79873000D01*
X137607000Y-79873000D01*
X137607000Y-80127000D01*
X137587000Y-80127000D01*
X137587000Y-81320155D01*
X137816890Y-81441476D01*
X137964099Y-81396825D01*
X138226920Y-81271641D01*
X138460269Y-81097588D01*
X138655178Y-80881355D01*
X138724805Y-80764466D01*
X138846525Y-80946632D01*
X139053368Y-81153475D01*
X139296589Y-81315990D01*
X139566842Y-81427932D01*
X139853740Y-81485000D01*
X140146260Y-81485000D01*
X140433158Y-81427932D01*
X140703411Y-81315990D01*
X140946632Y-81153475D01*
X141153475Y-80946632D01*
X141315990Y-80703411D01*
X141427932Y-80433158D01*
X141485000Y-80146260D01*
X141485000Y-79853740D01*
X141427932Y-79566842D01*
X141315990Y-79296589D01*
X141153475Y-79053368D01*
X141021620Y-78921513D01*
X141094180Y-78899502D01*
X141204494Y-78840537D01*
X141301185Y-78761185D01*
X141380537Y-78664494D01*
X141439502Y-78554180D01*
X141475812Y-78434482D01*
X141488072Y-78310000D01*
X141488072Y-76610000D01*
X141475812Y-76485518D01*
X141439502Y-76365820D01*
X141380537Y-76255506D01*
X141301185Y-76158815D01*
X141204494Y-76079463D01*
X141094180Y-76020498D01*
X140974482Y-75984188D01*
X140850000Y-75971928D01*
X139150000Y-75971928D01*
X139025518Y-75984188D01*
X138905820Y-76020498D01*
X138795506Y-76079463D01*
X138698815Y-76158815D01*
X138619463Y-76255506D01*
X138560498Y-76365820D01*
X138536034Y-76446466D01*
X138460269Y-76362412D01*
X138226920Y-76188359D01*
X137964099Y-76063175D01*
X137816890Y-76018524D01*
X137587000Y-76139845D01*
X137333000Y-76139845D01*
X137103110Y-76018524D01*
X136955901Y-76063175D01*
X136693080Y-76188359D01*
X136459731Y-76362412D01*
X136264822Y-76578645D01*
X136195195Y-76695534D01*
X136073475Y-76513368D01*
X135866632Y-76306525D01*
X135623411Y-76144010D01*
X135353158Y-76032068D01*
X135066260Y-75975000D01*
X134773740Y-75975000D01*
X134486842Y-76032068D01*
X134216589Y-76144010D01*
X133973368Y-76306525D01*
X133766525Y-76513368D01*
X133650000Y-76687760D01*
X133533475Y-76513368D01*
X133326632Y-76306525D01*
X133083411Y-76144010D01*
X132813158Y-76032068D01*
X132526260Y-75975000D01*
X132233740Y-75975000D01*
X131946842Y-76032068D01*
X131676589Y-76144010D01*
X131433368Y-76306525D01*
X131226525Y-76513368D01*
X131110000Y-76687760D01*
X130993475Y-76513368D01*
X130786632Y-76306525D01*
X130543411Y-76144010D01*
X130273158Y-76032068D01*
X129986260Y-75975000D01*
X129693740Y-75975000D01*
X129406842Y-76032068D01*
X129136589Y-76144010D01*
X128893368Y-76306525D01*
X128686525Y-76513368D01*
X128570000Y-76687760D01*
X128453475Y-76513368D01*
X128246632Y-76306525D01*
X128003411Y-76144010D01*
X127733158Y-76032068D01*
X127446260Y-75975000D01*
X127153740Y-75975000D01*
X126866842Y-76032068D01*
X126596589Y-76144010D01*
X126353368Y-76306525D01*
X126146525Y-76513368D01*
X126030000Y-76687760D01*
X125913475Y-76513368D01*
X125706632Y-76306525D01*
X125463411Y-76144010D01*
X125193158Y-76032068D01*
X124906260Y-75975000D01*
X124613740Y-75975000D01*
X124326842Y-76032068D01*
X124056589Y-76144010D01*
X123813368Y-76306525D01*
X123606525Y-76513368D01*
X123490000Y-76687760D01*
X123373475Y-76513368D01*
X123166632Y-76306525D01*
X122923411Y-76144010D01*
X122653158Y-76032068D01*
X122366260Y-75975000D01*
X122073740Y-75975000D01*
X121786842Y-76032068D01*
X121516589Y-76144010D01*
X121273368Y-76306525D01*
X121066525Y-76513368D01*
X120950000Y-76687760D01*
X120833475Y-76513368D01*
X120626632Y-76306525D01*
X120383411Y-76144010D01*
X120113158Y-76032068D01*
X119826260Y-75975000D01*
X119533740Y-75975000D01*
X119246842Y-76032068D01*
X118976589Y-76144010D01*
X118733368Y-76306525D01*
X118526525Y-76513368D01*
X118410000Y-76687760D01*
X118293475Y-76513368D01*
X118086632Y-76306525D01*
X117843411Y-76144010D01*
X117573158Y-76032068D01*
X117286260Y-75975000D01*
X116993740Y-75975000D01*
X116706842Y-76032068D01*
X116436589Y-76144010D01*
X116193368Y-76306525D01*
X115986525Y-76513368D01*
X115864805Y-76695534D01*
X115795178Y-76578645D01*
X115600269Y-76362412D01*
X115366920Y-76188359D01*
X115104099Y-76063175D01*
X114956890Y-76018524D01*
X114727000Y-76139845D01*
X114473000Y-76139845D01*
X114243110Y-76018524D01*
X114095901Y-76063175D01*
X113833080Y-76188359D01*
X113599731Y-76362412D01*
X113404822Y-76578645D01*
X113335195Y-76695534D01*
X113213475Y-76513368D01*
X113006632Y-76306525D01*
X112763411Y-76144010D01*
X112493158Y-76032068D01*
X112206260Y-75975000D01*
X111913740Y-75975000D01*
X111626842Y-76032068D01*
X111356589Y-76144010D01*
X111113368Y-76306525D01*
X110906525Y-76513368D01*
X110744010Y-76756589D01*
X110632068Y-77026842D01*
X110575000Y-77313740D01*
X100660000Y-77313740D01*
X100660000Y-74200715D01*
X144970000Y-74200715D01*
X144970000Y-77199286D01*
X148790000Y-77199286D01*
X148790000Y-74200715D01*
X144970000Y-74200715D01*
X100660000Y-74200715D01*
X100660000Y-73032279D01*
X100707670Y-72546107D01*
X100839489Y-72109502D01*
X101053600Y-71706815D01*
X101341848Y-71353388D01*
X101693261Y-71062673D01*
X102094439Y-70845758D01*
X102530113Y-70710894D01*
X103014344Y-70660000D01*
X146967721Y-70660000D01*
X147453893Y-70707670D01*
G37*
G04 #@! TD.AperFunction*
M02*
