G04 #@! TF.GenerationSoftware,KiCad,Pcbnew,(5.1.10-1-10_14)*
G04 #@! TF.CreationDate,2021-08-17T00:22:47+08:00*
G04 #@! TF.ProjectId,stm32f401_devboard,73746d33-3266-4343-9031-5f646576626f,rev?*
G04 #@! TF.SameCoordinates,Original*
G04 #@! TF.FileFunction,Legend,Top*
G04 #@! TF.FilePolarity,Positive*
%FSLAX46Y46*%
G04 Gerber Fmt 4.6, Leading zero omitted, Abs format (unit mm)*
G04 Created by KiCad (PCBNEW (5.1.10-1-10_14)) date 2021-08-17 00:22:47*
%MOMM*%
%LPD*%
G01*
G04 APERTURE LIST*
%ADD10C,0.150000*%
%ADD11C,0.120000*%
%ADD12C,0.254000*%
G04 APERTURE END LIST*
D10*
X124157619Y-105561904D02*
X125157619Y-105561904D01*
X125157619Y-105942857D01*
X125110000Y-106038095D01*
X125062380Y-106085714D01*
X124967142Y-106133333D01*
X124824285Y-106133333D01*
X124729047Y-106085714D01*
X124681428Y-106038095D01*
X124633809Y-105942857D01*
X124633809Y-105561904D01*
X124681428Y-106895238D02*
X124633809Y-107038095D01*
X124586190Y-107085714D01*
X124490952Y-107133333D01*
X124348095Y-107133333D01*
X124252857Y-107085714D01*
X124205238Y-107038095D01*
X124157619Y-106942857D01*
X124157619Y-106561904D01*
X125157619Y-106561904D01*
X125157619Y-106895238D01*
X125110000Y-106990476D01*
X125062380Y-107038095D01*
X124967142Y-107085714D01*
X124871904Y-107085714D01*
X124776666Y-107038095D01*
X124729047Y-106990476D01*
X124681428Y-106895238D01*
X124681428Y-106561904D01*
X124729047Y-107704761D02*
X124776666Y-107609523D01*
X124824285Y-107561904D01*
X124919523Y-107514285D01*
X124967142Y-107514285D01*
X125062380Y-107561904D01*
X125110000Y-107609523D01*
X125157619Y-107704761D01*
X125157619Y-107895238D01*
X125110000Y-107990476D01*
X125062380Y-108038095D01*
X124967142Y-108085714D01*
X124919523Y-108085714D01*
X124824285Y-108038095D01*
X124776666Y-107990476D01*
X124729047Y-107895238D01*
X124729047Y-107704761D01*
X124681428Y-107609523D01*
X124633809Y-107561904D01*
X124538571Y-107514285D01*
X124348095Y-107514285D01*
X124252857Y-107561904D01*
X124205238Y-107609523D01*
X124157619Y-107704761D01*
X124157619Y-107895238D01*
X124205238Y-107990476D01*
X124252857Y-108038095D01*
X124348095Y-108085714D01*
X124538571Y-108085714D01*
X124633809Y-108038095D01*
X124681428Y-107990476D01*
X124729047Y-107895238D01*
X122371428Y-114860952D02*
X122323809Y-115003809D01*
X122276190Y-115051428D01*
X122180952Y-115099047D01*
X122038095Y-115099047D01*
X121942857Y-115051428D01*
X121895238Y-115003809D01*
X121847619Y-114908571D01*
X121847619Y-114527619D01*
X122847619Y-114527619D01*
X122847619Y-114860952D01*
X122800000Y-114956190D01*
X122752380Y-115003809D01*
X122657142Y-115051428D01*
X122561904Y-115051428D01*
X122466666Y-115003809D01*
X122419047Y-114956190D01*
X122371428Y-114860952D01*
X122371428Y-114527619D01*
X122133333Y-115480000D02*
X122133333Y-115956190D01*
X121847619Y-115384761D02*
X122847619Y-115718095D01*
X121847619Y-116051428D01*
X122847619Y-116241904D02*
X122847619Y-116813333D01*
X121847619Y-116527619D02*
X122847619Y-116527619D01*
X122847619Y-117003809D02*
X122847619Y-117575238D01*
X121847619Y-117289523D02*
X122847619Y-117289523D01*
X129115714Y-103522380D02*
X129115714Y-102522380D01*
X129496666Y-102522380D01*
X129591904Y-102570000D01*
X129639523Y-102617619D01*
X129687142Y-102712857D01*
X129687142Y-102855714D01*
X129639523Y-102950952D01*
X129591904Y-102998571D01*
X129496666Y-103046190D01*
X129115714Y-103046190D01*
X130687142Y-103427142D02*
X130639523Y-103474761D01*
X130496666Y-103522380D01*
X130401428Y-103522380D01*
X130258571Y-103474761D01*
X130163333Y-103379523D01*
X130115714Y-103284285D01*
X130068095Y-103093809D01*
X130068095Y-102950952D01*
X130115714Y-102760476D01*
X130163333Y-102665238D01*
X130258571Y-102570000D01*
X130401428Y-102522380D01*
X130496666Y-102522380D01*
X130639523Y-102570000D01*
X130687142Y-102617619D01*
X131639523Y-103522380D02*
X131068095Y-103522380D01*
X131353809Y-103522380D02*
X131353809Y-102522380D01*
X131258571Y-102665238D01*
X131163333Y-102760476D01*
X131068095Y-102808095D01*
X131972857Y-102522380D02*
X132591904Y-102522380D01*
X132258571Y-102903333D01*
X132401428Y-102903333D01*
X132496666Y-102950952D01*
X132544285Y-102998571D01*
X132591904Y-103093809D01*
X132591904Y-103331904D01*
X132544285Y-103427142D01*
X132496666Y-103474761D01*
X132401428Y-103522380D01*
X132115714Y-103522380D01*
X132020476Y-103474761D01*
X131972857Y-103427142D01*
X119787619Y-114035714D02*
X120787619Y-114035714D01*
X120787619Y-114416666D01*
X120740000Y-114511904D01*
X120692380Y-114559523D01*
X120597142Y-114607142D01*
X120454285Y-114607142D01*
X120359047Y-114559523D01*
X120311428Y-114511904D01*
X120263809Y-114416666D01*
X120263809Y-114035714D01*
X120311428Y-115369047D02*
X120263809Y-115511904D01*
X120216190Y-115559523D01*
X120120952Y-115607142D01*
X119978095Y-115607142D01*
X119882857Y-115559523D01*
X119835238Y-115511904D01*
X119787619Y-115416666D01*
X119787619Y-115035714D01*
X120787619Y-115035714D01*
X120787619Y-115369047D01*
X120740000Y-115464285D01*
X120692380Y-115511904D01*
X120597142Y-115559523D01*
X120501904Y-115559523D01*
X120406666Y-115511904D01*
X120359047Y-115464285D01*
X120311428Y-115369047D01*
X120311428Y-115035714D01*
X119787619Y-116559523D02*
X119787619Y-115988095D01*
X119787619Y-116273809D02*
X120787619Y-116273809D01*
X120644761Y-116178571D01*
X120549523Y-116083333D01*
X120501904Y-115988095D01*
X120787619Y-116892857D02*
X120787619Y-117511904D01*
X120406666Y-117178571D01*
X120406666Y-117321428D01*
X120359047Y-117416666D01*
X120311428Y-117464285D01*
X120216190Y-117511904D01*
X119978095Y-117511904D01*
X119882857Y-117464285D01*
X119835238Y-117416666D01*
X119787619Y-117321428D01*
X119787619Y-117035714D01*
X119835238Y-116940476D01*
X119882857Y-116892857D01*
X126717619Y-114641904D02*
X127717619Y-114641904D01*
X127717619Y-115022857D01*
X127670000Y-115118095D01*
X127622380Y-115165714D01*
X127527142Y-115213333D01*
X127384285Y-115213333D01*
X127289047Y-115165714D01*
X127241428Y-115118095D01*
X127193809Y-115022857D01*
X127193809Y-114641904D01*
X127241428Y-115975238D02*
X127193809Y-116118095D01*
X127146190Y-116165714D01*
X127050952Y-116213333D01*
X126908095Y-116213333D01*
X126812857Y-116165714D01*
X126765238Y-116118095D01*
X126717619Y-116022857D01*
X126717619Y-115641904D01*
X127717619Y-115641904D01*
X127717619Y-115975238D01*
X127670000Y-116070476D01*
X127622380Y-116118095D01*
X127527142Y-116165714D01*
X127431904Y-116165714D01*
X127336666Y-116118095D01*
X127289047Y-116070476D01*
X127241428Y-115975238D01*
X127241428Y-115641904D01*
X127717619Y-116546666D02*
X127717619Y-117213333D01*
X126717619Y-116784761D01*
X131797619Y-114641904D02*
X132797619Y-114641904D01*
X132797619Y-115022857D01*
X132750000Y-115118095D01*
X132702380Y-115165714D01*
X132607142Y-115213333D01*
X132464285Y-115213333D01*
X132369047Y-115165714D01*
X132321428Y-115118095D01*
X132273809Y-115022857D01*
X132273809Y-114641904D01*
X132321428Y-115975238D02*
X132273809Y-116118095D01*
X132226190Y-116165714D01*
X132130952Y-116213333D01*
X131988095Y-116213333D01*
X131892857Y-116165714D01*
X131845238Y-116118095D01*
X131797619Y-116022857D01*
X131797619Y-115641904D01*
X132797619Y-115641904D01*
X132797619Y-115975238D01*
X132750000Y-116070476D01*
X132702380Y-116118095D01*
X132607142Y-116165714D01*
X132511904Y-116165714D01*
X132416666Y-116118095D01*
X132369047Y-116070476D01*
X132321428Y-115975238D01*
X132321428Y-115641904D01*
X132797619Y-116546666D02*
X132797619Y-117165714D01*
X132416666Y-116832380D01*
X132416666Y-116975238D01*
X132369047Y-117070476D01*
X132321428Y-117118095D01*
X132226190Y-117165714D01*
X131988095Y-117165714D01*
X131892857Y-117118095D01*
X131845238Y-117070476D01*
X131797619Y-116975238D01*
X131797619Y-116689523D01*
X131845238Y-116594285D01*
X131892857Y-116546666D01*
X116377619Y-82167142D02*
X117377619Y-82167142D01*
X117377619Y-82548095D01*
X117330000Y-82643333D01*
X117282380Y-82690952D01*
X117187142Y-82738571D01*
X117044285Y-82738571D01*
X116949047Y-82690952D01*
X116901428Y-82643333D01*
X116853809Y-82548095D01*
X116853809Y-82167142D01*
X116663333Y-83119523D02*
X116663333Y-83595714D01*
X116377619Y-83024285D02*
X117377619Y-83357619D01*
X116377619Y-83690952D01*
X116377619Y-84548095D02*
X116377619Y-83976666D01*
X116377619Y-84262380D02*
X117377619Y-84262380D01*
X117234761Y-84167142D01*
X117139523Y-84071904D01*
X117091904Y-83976666D01*
X117377619Y-85452857D02*
X117377619Y-84976666D01*
X116901428Y-84929047D01*
X116949047Y-84976666D01*
X116996666Y-85071904D01*
X116996666Y-85310000D01*
X116949047Y-85405238D01*
X116901428Y-85452857D01*
X116806190Y-85500476D01*
X116568095Y-85500476D01*
X116472857Y-85452857D01*
X116425238Y-85405238D01*
X116377619Y-85310000D01*
X116377619Y-85071904D01*
X116425238Y-84976666D01*
X116472857Y-84929047D01*
X118897619Y-82047142D02*
X119897619Y-82047142D01*
X119897619Y-82428095D01*
X119850000Y-82523333D01*
X119802380Y-82570952D01*
X119707142Y-82618571D01*
X119564285Y-82618571D01*
X119469047Y-82570952D01*
X119421428Y-82523333D01*
X119373809Y-82428095D01*
X119373809Y-82047142D01*
X119183333Y-82999523D02*
X119183333Y-83475714D01*
X118897619Y-82904285D02*
X119897619Y-83237619D01*
X118897619Y-83570952D01*
X118897619Y-84428095D02*
X118897619Y-83856666D01*
X118897619Y-84142380D02*
X119897619Y-84142380D01*
X119754761Y-84047142D01*
X119659523Y-83951904D01*
X119611904Y-83856666D01*
X119897619Y-84761428D02*
X119897619Y-85380476D01*
X119516666Y-85047142D01*
X119516666Y-85190000D01*
X119469047Y-85285238D01*
X119421428Y-85332857D01*
X119326190Y-85380476D01*
X119088095Y-85380476D01*
X118992857Y-85332857D01*
X118945238Y-85285238D01*
X118897619Y-85190000D01*
X118897619Y-84904285D01*
X118945238Y-84809047D01*
X118992857Y-84761428D01*
X121627619Y-81977142D02*
X122627619Y-81977142D01*
X122627619Y-82358095D01*
X122580000Y-82453333D01*
X122532380Y-82500952D01*
X122437142Y-82548571D01*
X122294285Y-82548571D01*
X122199047Y-82500952D01*
X122151428Y-82453333D01*
X122103809Y-82358095D01*
X122103809Y-81977142D01*
X121913333Y-82929523D02*
X121913333Y-83405714D01*
X121627619Y-82834285D02*
X122627619Y-83167619D01*
X121627619Y-83500952D01*
X121627619Y-84358095D02*
X121627619Y-83786666D01*
X121627619Y-84072380D02*
X122627619Y-84072380D01*
X122484761Y-83977142D01*
X122389523Y-83881904D01*
X122341904Y-83786666D01*
X121627619Y-85310476D02*
X121627619Y-84739047D01*
X121627619Y-85024761D02*
X122627619Y-85024761D01*
X122484761Y-84929523D01*
X122389523Y-84834285D01*
X122341904Y-84739047D01*
X123987619Y-82183333D02*
X124987619Y-82183333D01*
X124987619Y-82564285D01*
X124940000Y-82659523D01*
X124892380Y-82707142D01*
X124797142Y-82754761D01*
X124654285Y-82754761D01*
X124559047Y-82707142D01*
X124511428Y-82659523D01*
X124463809Y-82564285D01*
X124463809Y-82183333D01*
X124273333Y-83135714D02*
X124273333Y-83611904D01*
X123987619Y-83040476D02*
X124987619Y-83373809D01*
X123987619Y-83707142D01*
X123987619Y-84088095D02*
X123987619Y-84278571D01*
X124035238Y-84373809D01*
X124082857Y-84421428D01*
X124225714Y-84516666D01*
X124416190Y-84564285D01*
X124797142Y-84564285D01*
X124892380Y-84516666D01*
X124940000Y-84469047D01*
X124987619Y-84373809D01*
X124987619Y-84183333D01*
X124940000Y-84088095D01*
X124892380Y-84040476D01*
X124797142Y-83992857D01*
X124559047Y-83992857D01*
X124463809Y-84040476D01*
X124416190Y-84088095D01*
X124368571Y-84183333D01*
X124368571Y-84373809D01*
X124416190Y-84469047D01*
X124463809Y-84516666D01*
X124559047Y-84564285D01*
X126537619Y-82243333D02*
X127537619Y-82243333D01*
X127537619Y-82624285D01*
X127490000Y-82719523D01*
X127442380Y-82767142D01*
X127347142Y-82814761D01*
X127204285Y-82814761D01*
X127109047Y-82767142D01*
X127061428Y-82719523D01*
X127013809Y-82624285D01*
X127013809Y-82243333D01*
X126823333Y-83195714D02*
X126823333Y-83671904D01*
X126537619Y-83100476D02*
X127537619Y-83433809D01*
X126537619Y-83767142D01*
X127537619Y-84005238D02*
X127537619Y-84671904D01*
X126537619Y-84243333D01*
X129207619Y-82123333D02*
X130207619Y-82123333D01*
X130207619Y-82504285D01*
X130160000Y-82599523D01*
X130112380Y-82647142D01*
X130017142Y-82694761D01*
X129874285Y-82694761D01*
X129779047Y-82647142D01*
X129731428Y-82599523D01*
X129683809Y-82504285D01*
X129683809Y-82123333D01*
X129493333Y-83075714D02*
X129493333Y-83551904D01*
X129207619Y-82980476D02*
X130207619Y-83313809D01*
X129207619Y-83647142D01*
X130207619Y-84456666D02*
X130207619Y-83980476D01*
X129731428Y-83932857D01*
X129779047Y-83980476D01*
X129826666Y-84075714D01*
X129826666Y-84313809D01*
X129779047Y-84409047D01*
X129731428Y-84456666D01*
X129636190Y-84504285D01*
X129398095Y-84504285D01*
X129302857Y-84456666D01*
X129255238Y-84409047D01*
X129207619Y-84313809D01*
X129207619Y-84075714D01*
X129255238Y-83980476D01*
X129302857Y-83932857D01*
X131627619Y-82093333D02*
X132627619Y-82093333D01*
X132627619Y-82474285D01*
X132580000Y-82569523D01*
X132532380Y-82617142D01*
X132437142Y-82664761D01*
X132294285Y-82664761D01*
X132199047Y-82617142D01*
X132151428Y-82569523D01*
X132103809Y-82474285D01*
X132103809Y-82093333D01*
X131913333Y-83045714D02*
X131913333Y-83521904D01*
X131627619Y-82950476D02*
X132627619Y-83283809D01*
X131627619Y-83617142D01*
X132627619Y-83855238D02*
X132627619Y-84474285D01*
X132246666Y-84140952D01*
X132246666Y-84283809D01*
X132199047Y-84379047D01*
X132151428Y-84426666D01*
X132056190Y-84474285D01*
X131818095Y-84474285D01*
X131722857Y-84426666D01*
X131675238Y-84379047D01*
X131627619Y-84283809D01*
X131627619Y-83998095D01*
X131675238Y-83902857D01*
X131722857Y-83855238D01*
X134267619Y-82303333D02*
X135267619Y-82303333D01*
X135267619Y-82684285D01*
X135220000Y-82779523D01*
X135172380Y-82827142D01*
X135077142Y-82874761D01*
X134934285Y-82874761D01*
X134839047Y-82827142D01*
X134791428Y-82779523D01*
X134743809Y-82684285D01*
X134743809Y-82303333D01*
X134553333Y-83255714D02*
X134553333Y-83731904D01*
X134267619Y-83160476D02*
X135267619Y-83493809D01*
X134267619Y-83827142D01*
X134267619Y-84684285D02*
X134267619Y-84112857D01*
X134267619Y-84398571D02*
X135267619Y-84398571D01*
X135124761Y-84303333D01*
X135029523Y-84208095D01*
X134981904Y-84112857D01*
X131717619Y-72693333D02*
X132717619Y-72693333D01*
X132717619Y-73074285D01*
X132670000Y-73169523D01*
X132622380Y-73217142D01*
X132527142Y-73264761D01*
X132384285Y-73264761D01*
X132289047Y-73217142D01*
X132241428Y-73169523D01*
X132193809Y-73074285D01*
X132193809Y-72693333D01*
X132003333Y-73645714D02*
X132003333Y-74121904D01*
X131717619Y-73550476D02*
X132717619Y-73883809D01*
X131717619Y-74217142D01*
X132622380Y-74502857D02*
X132670000Y-74550476D01*
X132717619Y-74645714D01*
X132717619Y-74883809D01*
X132670000Y-74979047D01*
X132622380Y-75026666D01*
X132527142Y-75074285D01*
X132431904Y-75074285D01*
X132289047Y-75026666D01*
X131717619Y-74455238D01*
X131717619Y-75074285D01*
X126687619Y-72633333D02*
X127687619Y-72633333D01*
X127687619Y-73014285D01*
X127640000Y-73109523D01*
X127592380Y-73157142D01*
X127497142Y-73204761D01*
X127354285Y-73204761D01*
X127259047Y-73157142D01*
X127211428Y-73109523D01*
X127163809Y-73014285D01*
X127163809Y-72633333D01*
X126973333Y-73585714D02*
X126973333Y-74061904D01*
X126687619Y-73490476D02*
X127687619Y-73823809D01*
X126687619Y-74157142D01*
X127687619Y-74919047D02*
X127687619Y-74728571D01*
X127640000Y-74633333D01*
X127592380Y-74585714D01*
X127449523Y-74490476D01*
X127259047Y-74442857D01*
X126878095Y-74442857D01*
X126782857Y-74490476D01*
X126735238Y-74538095D01*
X126687619Y-74633333D01*
X126687619Y-74823809D01*
X126735238Y-74919047D01*
X126782857Y-74966666D01*
X126878095Y-75014285D01*
X127116190Y-75014285D01*
X127211428Y-74966666D01*
X127259047Y-74919047D01*
X127306666Y-74823809D01*
X127306666Y-74633333D01*
X127259047Y-74538095D01*
X127211428Y-74490476D01*
X127116190Y-74442857D01*
X121687619Y-71887142D02*
X122687619Y-71887142D01*
X122687619Y-72268095D01*
X122640000Y-72363333D01*
X122592380Y-72410952D01*
X122497142Y-72458571D01*
X122354285Y-72458571D01*
X122259047Y-72410952D01*
X122211428Y-72363333D01*
X122163809Y-72268095D01*
X122163809Y-71887142D01*
X121973333Y-72839523D02*
X121973333Y-73315714D01*
X121687619Y-72744285D02*
X122687619Y-73077619D01*
X121687619Y-73410952D01*
X121687619Y-74268095D02*
X121687619Y-73696666D01*
X121687619Y-73982380D02*
X122687619Y-73982380D01*
X122544761Y-73887142D01*
X122449523Y-73791904D01*
X122401904Y-73696666D01*
X122687619Y-74887142D02*
X122687619Y-74982380D01*
X122640000Y-75077619D01*
X122592380Y-75125238D01*
X122497142Y-75172857D01*
X122306666Y-75220476D01*
X122068571Y-75220476D01*
X121878095Y-75172857D01*
X121782857Y-75125238D01*
X121735238Y-75077619D01*
X121687619Y-74982380D01*
X121687619Y-74887142D01*
X121735238Y-74791904D01*
X121782857Y-74744285D01*
X121878095Y-74696666D01*
X122068571Y-74649047D01*
X122306666Y-74649047D01*
X122497142Y-74696666D01*
X122592380Y-74744285D01*
X122640000Y-74791904D01*
X122687619Y-74887142D01*
X116677619Y-71947142D02*
X117677619Y-71947142D01*
X117677619Y-72328095D01*
X117630000Y-72423333D01*
X117582380Y-72470952D01*
X117487142Y-72518571D01*
X117344285Y-72518571D01*
X117249047Y-72470952D01*
X117201428Y-72423333D01*
X117153809Y-72328095D01*
X117153809Y-71947142D01*
X116963333Y-72899523D02*
X116963333Y-73375714D01*
X116677619Y-72804285D02*
X117677619Y-73137619D01*
X116677619Y-73470952D01*
X116677619Y-74328095D02*
X116677619Y-73756666D01*
X116677619Y-74042380D02*
X117677619Y-74042380D01*
X117534761Y-73947142D01*
X117439523Y-73851904D01*
X117391904Y-73756666D01*
X117344285Y-75185238D02*
X116677619Y-75185238D01*
X117725238Y-74947142D02*
X117010952Y-74709047D01*
X117010952Y-75328095D01*
X119077619Y-71917142D02*
X120077619Y-71917142D01*
X120077619Y-72298095D01*
X120030000Y-72393333D01*
X119982380Y-72440952D01*
X119887142Y-72488571D01*
X119744285Y-72488571D01*
X119649047Y-72440952D01*
X119601428Y-72393333D01*
X119553809Y-72298095D01*
X119553809Y-71917142D01*
X119363333Y-72869523D02*
X119363333Y-73345714D01*
X119077619Y-72774285D02*
X120077619Y-73107619D01*
X119077619Y-73440952D01*
X119077619Y-74298095D02*
X119077619Y-73726666D01*
X119077619Y-74012380D02*
X120077619Y-74012380D01*
X119934761Y-73917142D01*
X119839523Y-73821904D01*
X119791904Y-73726666D01*
X119982380Y-74679047D02*
X120030000Y-74726666D01*
X120077619Y-74821904D01*
X120077619Y-75060000D01*
X120030000Y-75155238D01*
X119982380Y-75202857D01*
X119887142Y-75250476D01*
X119791904Y-75250476D01*
X119649047Y-75202857D01*
X119077619Y-74631428D01*
X119077619Y-75250476D01*
X124137619Y-72813333D02*
X125137619Y-72813333D01*
X125137619Y-73194285D01*
X125090000Y-73289523D01*
X125042380Y-73337142D01*
X124947142Y-73384761D01*
X124804285Y-73384761D01*
X124709047Y-73337142D01*
X124661428Y-73289523D01*
X124613809Y-73194285D01*
X124613809Y-72813333D01*
X124423333Y-73765714D02*
X124423333Y-74241904D01*
X124137619Y-73670476D02*
X125137619Y-74003809D01*
X124137619Y-74337142D01*
X124709047Y-74813333D02*
X124756666Y-74718095D01*
X124804285Y-74670476D01*
X124899523Y-74622857D01*
X124947142Y-74622857D01*
X125042380Y-74670476D01*
X125090000Y-74718095D01*
X125137619Y-74813333D01*
X125137619Y-75003809D01*
X125090000Y-75099047D01*
X125042380Y-75146666D01*
X124947142Y-75194285D01*
X124899523Y-75194285D01*
X124804285Y-75146666D01*
X124756666Y-75099047D01*
X124709047Y-75003809D01*
X124709047Y-74813333D01*
X124661428Y-74718095D01*
X124613809Y-74670476D01*
X124518571Y-74622857D01*
X124328095Y-74622857D01*
X124232857Y-74670476D01*
X124185238Y-74718095D01*
X124137619Y-74813333D01*
X124137619Y-75003809D01*
X124185238Y-75099047D01*
X124232857Y-75146666D01*
X124328095Y-75194285D01*
X124518571Y-75194285D01*
X124613809Y-75146666D01*
X124661428Y-75099047D01*
X124709047Y-75003809D01*
X129297619Y-72753333D02*
X130297619Y-72753333D01*
X130297619Y-73134285D01*
X130250000Y-73229523D01*
X130202380Y-73277142D01*
X130107142Y-73324761D01*
X129964285Y-73324761D01*
X129869047Y-73277142D01*
X129821428Y-73229523D01*
X129773809Y-73134285D01*
X129773809Y-72753333D01*
X129583333Y-73705714D02*
X129583333Y-74181904D01*
X129297619Y-73610476D02*
X130297619Y-73943809D01*
X129297619Y-74277142D01*
X129964285Y-75039047D02*
X129297619Y-75039047D01*
X130345238Y-74800952D02*
X129630952Y-74562857D01*
X129630952Y-75181904D01*
X134297619Y-72753333D02*
X135297619Y-72753333D01*
X135297619Y-73134285D01*
X135250000Y-73229523D01*
X135202380Y-73277142D01*
X135107142Y-73324761D01*
X134964285Y-73324761D01*
X134869047Y-73277142D01*
X134821428Y-73229523D01*
X134773809Y-73134285D01*
X134773809Y-72753333D01*
X134583333Y-73705714D02*
X134583333Y-74181904D01*
X134297619Y-73610476D02*
X135297619Y-73943809D01*
X134297619Y-74277142D01*
X135297619Y-74800952D02*
X135297619Y-74896190D01*
X135250000Y-74991428D01*
X135202380Y-75039047D01*
X135107142Y-75086666D01*
X134916666Y-75134285D01*
X134678571Y-75134285D01*
X134488095Y-75086666D01*
X134392857Y-75039047D01*
X134345238Y-74991428D01*
X134297619Y-74896190D01*
X134297619Y-74800952D01*
X134345238Y-74705714D01*
X134392857Y-74658095D01*
X134488095Y-74610476D01*
X134678571Y-74562857D01*
X134916666Y-74562857D01*
X135107142Y-74610476D01*
X135202380Y-74658095D01*
X135250000Y-74705714D01*
X135297619Y-74800952D01*
X120467619Y-119222380D02*
X120134285Y-118746190D01*
X119896190Y-119222380D02*
X119896190Y-118222380D01*
X120277142Y-118222380D01*
X120372380Y-118270000D01*
X120420000Y-118317619D01*
X120467619Y-118412857D01*
X120467619Y-118555714D01*
X120420000Y-118650952D01*
X120372380Y-118698571D01*
X120277142Y-118746190D01*
X119896190Y-118746190D01*
X120896190Y-118698571D02*
X121229523Y-118698571D01*
X121372380Y-119222380D02*
X120896190Y-119222380D01*
X120896190Y-118222380D01*
X121372380Y-118222380D01*
X121753333Y-119174761D02*
X121896190Y-119222380D01*
X122134285Y-119222380D01*
X122229523Y-119174761D01*
X122277142Y-119127142D01*
X122324761Y-119031904D01*
X122324761Y-118936666D01*
X122277142Y-118841428D01*
X122229523Y-118793809D01*
X122134285Y-118746190D01*
X121943809Y-118698571D01*
X121848571Y-118650952D01*
X121800952Y-118603333D01*
X121753333Y-118508095D01*
X121753333Y-118412857D01*
X121800952Y-118317619D01*
X121848571Y-118270000D01*
X121943809Y-118222380D01*
X122181904Y-118222380D01*
X122324761Y-118270000D01*
X122753333Y-118698571D02*
X123086666Y-118698571D01*
X123229523Y-119222380D02*
X122753333Y-119222380D01*
X122753333Y-118222380D01*
X123229523Y-118222380D01*
X123515238Y-118222380D02*
X124086666Y-118222380D01*
X123800952Y-119222380D02*
X123800952Y-118222380D01*
X144937619Y-85953333D02*
X145937619Y-85953333D01*
X145937619Y-86334285D01*
X145890000Y-86429523D01*
X145842380Y-86477142D01*
X145747142Y-86524761D01*
X145604285Y-86524761D01*
X145509047Y-86477142D01*
X145461428Y-86429523D01*
X145413809Y-86334285D01*
X145413809Y-85953333D01*
X145223333Y-86905714D02*
X145223333Y-87381904D01*
X144937619Y-86810476D02*
X145937619Y-87143809D01*
X144937619Y-87477142D01*
X145937619Y-88000952D02*
X145937619Y-88096190D01*
X145890000Y-88191428D01*
X145842380Y-88239047D01*
X145747142Y-88286666D01*
X145556666Y-88334285D01*
X145318571Y-88334285D01*
X145128095Y-88286666D01*
X145032857Y-88239047D01*
X144985238Y-88191428D01*
X144937619Y-88096190D01*
X144937619Y-88000952D01*
X144985238Y-87905714D01*
X145032857Y-87858095D01*
X145128095Y-87810476D01*
X145318571Y-87762857D01*
X145556666Y-87762857D01*
X145747142Y-87810476D01*
X145842380Y-87858095D01*
X145890000Y-87905714D01*
X145937619Y-88000952D01*
X118066666Y-100878571D02*
X118209523Y-100926190D01*
X118257142Y-100973809D01*
X118304761Y-101069047D01*
X118304761Y-101211904D01*
X118257142Y-101307142D01*
X118209523Y-101354761D01*
X118114285Y-101402380D01*
X117733333Y-101402380D01*
X117733333Y-100402380D01*
X118066666Y-100402380D01*
X118161904Y-100450000D01*
X118209523Y-100497619D01*
X118257142Y-100592857D01*
X118257142Y-100688095D01*
X118209523Y-100783333D01*
X118161904Y-100830952D01*
X118066666Y-100878571D01*
X117733333Y-100878571D01*
X118923809Y-100402380D02*
X119114285Y-100402380D01*
X119209523Y-100450000D01*
X119304761Y-100545238D01*
X119352380Y-100735714D01*
X119352380Y-101069047D01*
X119304761Y-101259523D01*
X119209523Y-101354761D01*
X119114285Y-101402380D01*
X118923809Y-101402380D01*
X118828571Y-101354761D01*
X118733333Y-101259523D01*
X118685714Y-101069047D01*
X118685714Y-100735714D01*
X118733333Y-100545238D01*
X118828571Y-100450000D01*
X118923809Y-100402380D01*
X119971428Y-100402380D02*
X120161904Y-100402380D01*
X120257142Y-100450000D01*
X120352380Y-100545238D01*
X120400000Y-100735714D01*
X120400000Y-101069047D01*
X120352380Y-101259523D01*
X120257142Y-101354761D01*
X120161904Y-101402380D01*
X119971428Y-101402380D01*
X119876190Y-101354761D01*
X119780952Y-101259523D01*
X119733333Y-101069047D01*
X119733333Y-100735714D01*
X119780952Y-100545238D01*
X119876190Y-100450000D01*
X119971428Y-100402380D01*
X120685714Y-100402380D02*
X121257142Y-100402380D01*
X120971428Y-101402380D02*
X120971428Y-100402380D01*
X121780952Y-100402380D02*
X121876190Y-100402380D01*
X121971428Y-100450000D01*
X122019047Y-100497619D01*
X122066666Y-100592857D01*
X122114285Y-100783333D01*
X122114285Y-101021428D01*
X122066666Y-101211904D01*
X122019047Y-101307142D01*
X121971428Y-101354761D01*
X121876190Y-101402380D01*
X121780952Y-101402380D01*
X121685714Y-101354761D01*
X121638095Y-101307142D01*
X121590476Y-101211904D01*
X121542857Y-101021428D01*
X121542857Y-100783333D01*
X121590476Y-100592857D01*
X121638095Y-100497619D01*
X121685714Y-100450000D01*
X121780952Y-100402380D01*
X129277619Y-105271904D02*
X130277619Y-105271904D01*
X130277619Y-105652857D01*
X130230000Y-105748095D01*
X130182380Y-105795714D01*
X130087142Y-105843333D01*
X129944285Y-105843333D01*
X129849047Y-105795714D01*
X129801428Y-105748095D01*
X129753809Y-105652857D01*
X129753809Y-105271904D01*
X129801428Y-106605238D02*
X129753809Y-106748095D01*
X129706190Y-106795714D01*
X129610952Y-106843333D01*
X129468095Y-106843333D01*
X129372857Y-106795714D01*
X129325238Y-106748095D01*
X129277619Y-106652857D01*
X129277619Y-106271904D01*
X130277619Y-106271904D01*
X130277619Y-106605238D01*
X130230000Y-106700476D01*
X130182380Y-106748095D01*
X130087142Y-106795714D01*
X129991904Y-106795714D01*
X129896666Y-106748095D01*
X129849047Y-106700476D01*
X129801428Y-106605238D01*
X129801428Y-106271904D01*
X129944285Y-107700476D02*
X129277619Y-107700476D01*
X130325238Y-107462380D02*
X129610952Y-107224285D01*
X129610952Y-107843333D01*
X121867619Y-104535714D02*
X122867619Y-104535714D01*
X122867619Y-104916666D01*
X122820000Y-105011904D01*
X122772380Y-105059523D01*
X122677142Y-105107142D01*
X122534285Y-105107142D01*
X122439047Y-105059523D01*
X122391428Y-105011904D01*
X122343809Y-104916666D01*
X122343809Y-104535714D01*
X122391428Y-105869047D02*
X122343809Y-106011904D01*
X122296190Y-106059523D01*
X122200952Y-106107142D01*
X122058095Y-106107142D01*
X121962857Y-106059523D01*
X121915238Y-106011904D01*
X121867619Y-105916666D01*
X121867619Y-105535714D01*
X122867619Y-105535714D01*
X122867619Y-105869047D01*
X122820000Y-105964285D01*
X122772380Y-106011904D01*
X122677142Y-106059523D01*
X122581904Y-106059523D01*
X122486666Y-106011904D01*
X122439047Y-105964285D01*
X122391428Y-105869047D01*
X122391428Y-105535714D01*
X121867619Y-107059523D02*
X121867619Y-106488095D01*
X121867619Y-106773809D02*
X122867619Y-106773809D01*
X122724761Y-106678571D01*
X122629523Y-106583333D01*
X122581904Y-106488095D01*
X122867619Y-107678571D02*
X122867619Y-107773809D01*
X122820000Y-107869047D01*
X122772380Y-107916666D01*
X122677142Y-107964285D01*
X122486666Y-108011904D01*
X122248571Y-108011904D01*
X122058095Y-107964285D01*
X121962857Y-107916666D01*
X121915238Y-107869047D01*
X121867619Y-107773809D01*
X121867619Y-107678571D01*
X121915238Y-107583333D01*
X121962857Y-107535714D01*
X122058095Y-107488095D01*
X122248571Y-107440476D01*
X122486666Y-107440476D01*
X122677142Y-107488095D01*
X122772380Y-107535714D01*
X122820000Y-107583333D01*
X122867619Y-107678571D01*
X129397619Y-114611904D02*
X130397619Y-114611904D01*
X130397619Y-114992857D01*
X130350000Y-115088095D01*
X130302380Y-115135714D01*
X130207142Y-115183333D01*
X130064285Y-115183333D01*
X129969047Y-115135714D01*
X129921428Y-115088095D01*
X129873809Y-114992857D01*
X129873809Y-114611904D01*
X129921428Y-115945238D02*
X129873809Y-116088095D01*
X129826190Y-116135714D01*
X129730952Y-116183333D01*
X129588095Y-116183333D01*
X129492857Y-116135714D01*
X129445238Y-116088095D01*
X129397619Y-115992857D01*
X129397619Y-115611904D01*
X130397619Y-115611904D01*
X130397619Y-115945238D01*
X130350000Y-116040476D01*
X130302380Y-116088095D01*
X130207142Y-116135714D01*
X130111904Y-116135714D01*
X130016666Y-116088095D01*
X129969047Y-116040476D01*
X129921428Y-115945238D01*
X129921428Y-115611904D01*
X130397619Y-117088095D02*
X130397619Y-116611904D01*
X129921428Y-116564285D01*
X129969047Y-116611904D01*
X130016666Y-116707142D01*
X130016666Y-116945238D01*
X129969047Y-117040476D01*
X129921428Y-117088095D01*
X129826190Y-117135714D01*
X129588095Y-117135714D01*
X129492857Y-117088095D01*
X129445238Y-117040476D01*
X129397619Y-116945238D01*
X129397619Y-116707142D01*
X129445238Y-116611904D01*
X129492857Y-116564285D01*
X124267619Y-114671904D02*
X125267619Y-114671904D01*
X125267619Y-115052857D01*
X125220000Y-115148095D01*
X125172380Y-115195714D01*
X125077142Y-115243333D01*
X124934285Y-115243333D01*
X124839047Y-115195714D01*
X124791428Y-115148095D01*
X124743809Y-115052857D01*
X124743809Y-114671904D01*
X124791428Y-116005238D02*
X124743809Y-116148095D01*
X124696190Y-116195714D01*
X124600952Y-116243333D01*
X124458095Y-116243333D01*
X124362857Y-116195714D01*
X124315238Y-116148095D01*
X124267619Y-116052857D01*
X124267619Y-115671904D01*
X125267619Y-115671904D01*
X125267619Y-116005238D01*
X125220000Y-116100476D01*
X125172380Y-116148095D01*
X125077142Y-116195714D01*
X124981904Y-116195714D01*
X124886666Y-116148095D01*
X124839047Y-116100476D01*
X124791428Y-116005238D01*
X124791428Y-115671904D01*
X124267619Y-116719523D02*
X124267619Y-116910000D01*
X124315238Y-117005238D01*
X124362857Y-117052857D01*
X124505714Y-117148095D01*
X124696190Y-117195714D01*
X125077142Y-117195714D01*
X125172380Y-117148095D01*
X125220000Y-117100476D01*
X125267619Y-117005238D01*
X125267619Y-116814761D01*
X125220000Y-116719523D01*
X125172380Y-116671904D01*
X125077142Y-116624285D01*
X124839047Y-116624285D01*
X124743809Y-116671904D01*
X124696190Y-116719523D01*
X124648571Y-116814761D01*
X124648571Y-117005238D01*
X124696190Y-117100476D01*
X124743809Y-117148095D01*
X124839047Y-117195714D01*
X115545714Y-115682380D02*
X115545714Y-114682380D01*
X115926666Y-114682380D01*
X116021904Y-114730000D01*
X116069523Y-114777619D01*
X116117142Y-114872857D01*
X116117142Y-115015714D01*
X116069523Y-115110952D01*
X116021904Y-115158571D01*
X115926666Y-115206190D01*
X115545714Y-115206190D01*
X116879047Y-115158571D02*
X117021904Y-115206190D01*
X117069523Y-115253809D01*
X117117142Y-115349047D01*
X117117142Y-115491904D01*
X117069523Y-115587142D01*
X117021904Y-115634761D01*
X116926666Y-115682380D01*
X116545714Y-115682380D01*
X116545714Y-114682380D01*
X116879047Y-114682380D01*
X116974285Y-114730000D01*
X117021904Y-114777619D01*
X117069523Y-114872857D01*
X117069523Y-114968095D01*
X117021904Y-115063333D01*
X116974285Y-115110952D01*
X116879047Y-115158571D01*
X116545714Y-115158571D01*
X118069523Y-115682380D02*
X117498095Y-115682380D01*
X117783809Y-115682380D02*
X117783809Y-114682380D01*
X117688571Y-114825238D01*
X117593333Y-114920476D01*
X117498095Y-114968095D01*
X118974285Y-114682380D02*
X118498095Y-114682380D01*
X118450476Y-115158571D01*
X118498095Y-115110952D01*
X118593333Y-115063333D01*
X118831428Y-115063333D01*
X118926666Y-115110952D01*
X118974285Y-115158571D01*
X119021904Y-115253809D01*
X119021904Y-115491904D01*
X118974285Y-115587142D01*
X118926666Y-115634761D01*
X118831428Y-115682380D01*
X118593333Y-115682380D01*
X118498095Y-115634761D01*
X118450476Y-115587142D01*
X116187619Y-104325714D02*
X117187619Y-104325714D01*
X117187619Y-104706666D01*
X117140000Y-104801904D01*
X117092380Y-104849523D01*
X116997142Y-104897142D01*
X116854285Y-104897142D01*
X116759047Y-104849523D01*
X116711428Y-104801904D01*
X116663809Y-104706666D01*
X116663809Y-104325714D01*
X116711428Y-105659047D02*
X116663809Y-105801904D01*
X116616190Y-105849523D01*
X116520952Y-105897142D01*
X116378095Y-105897142D01*
X116282857Y-105849523D01*
X116235238Y-105801904D01*
X116187619Y-105706666D01*
X116187619Y-105325714D01*
X117187619Y-105325714D01*
X117187619Y-105659047D01*
X117140000Y-105754285D01*
X117092380Y-105801904D01*
X116997142Y-105849523D01*
X116901904Y-105849523D01*
X116806666Y-105801904D01*
X116759047Y-105754285D01*
X116711428Y-105659047D01*
X116711428Y-105325714D01*
X116187619Y-106849523D02*
X116187619Y-106278095D01*
X116187619Y-106563809D02*
X117187619Y-106563809D01*
X117044761Y-106468571D01*
X116949523Y-106373333D01*
X116901904Y-106278095D01*
X116854285Y-107706666D02*
X116187619Y-107706666D01*
X117235238Y-107468571D02*
X116520952Y-107230476D01*
X116520952Y-107849523D01*
X134357619Y-114851904D02*
X135357619Y-114851904D01*
X135357619Y-115232857D01*
X135310000Y-115328095D01*
X135262380Y-115375714D01*
X135167142Y-115423333D01*
X135024285Y-115423333D01*
X134929047Y-115375714D01*
X134881428Y-115328095D01*
X134833809Y-115232857D01*
X134833809Y-114851904D01*
X134881428Y-116185238D02*
X134833809Y-116328095D01*
X134786190Y-116375714D01*
X134690952Y-116423333D01*
X134548095Y-116423333D01*
X134452857Y-116375714D01*
X134405238Y-116328095D01*
X134357619Y-116232857D01*
X134357619Y-115851904D01*
X135357619Y-115851904D01*
X135357619Y-116185238D01*
X135310000Y-116280476D01*
X135262380Y-116328095D01*
X135167142Y-116375714D01*
X135071904Y-116375714D01*
X134976666Y-116328095D01*
X134929047Y-116280476D01*
X134881428Y-116185238D01*
X134881428Y-115851904D01*
X134357619Y-117375714D02*
X134357619Y-116804285D01*
X134357619Y-117090000D02*
X135357619Y-117090000D01*
X135214761Y-116994761D01*
X135119523Y-116899523D01*
X135071904Y-116804285D01*
X134387619Y-105011904D02*
X135387619Y-105011904D01*
X135387619Y-105392857D01*
X135340000Y-105488095D01*
X135292380Y-105535714D01*
X135197142Y-105583333D01*
X135054285Y-105583333D01*
X134959047Y-105535714D01*
X134911428Y-105488095D01*
X134863809Y-105392857D01*
X134863809Y-105011904D01*
X134911428Y-106345238D02*
X134863809Y-106488095D01*
X134816190Y-106535714D01*
X134720952Y-106583333D01*
X134578095Y-106583333D01*
X134482857Y-106535714D01*
X134435238Y-106488095D01*
X134387619Y-106392857D01*
X134387619Y-106011904D01*
X135387619Y-106011904D01*
X135387619Y-106345238D01*
X135340000Y-106440476D01*
X135292380Y-106488095D01*
X135197142Y-106535714D01*
X135101904Y-106535714D01*
X135006666Y-106488095D01*
X134959047Y-106440476D01*
X134911428Y-106345238D01*
X134911428Y-106011904D01*
X135387619Y-107202380D02*
X135387619Y-107297619D01*
X135340000Y-107392857D01*
X135292380Y-107440476D01*
X135197142Y-107488095D01*
X135006666Y-107535714D01*
X134768571Y-107535714D01*
X134578095Y-107488095D01*
X134482857Y-107440476D01*
X134435238Y-107392857D01*
X134387619Y-107297619D01*
X134387619Y-107202380D01*
X134435238Y-107107142D01*
X134482857Y-107059523D01*
X134578095Y-107011904D01*
X134768571Y-106964285D01*
X135006666Y-106964285D01*
X135197142Y-107011904D01*
X135292380Y-107059523D01*
X135340000Y-107107142D01*
X135387619Y-107202380D01*
X115090000Y-105808095D02*
X115137619Y-105712857D01*
X115137619Y-105570000D01*
X115090000Y-105427142D01*
X114994761Y-105331904D01*
X114899523Y-105284285D01*
X114709047Y-105236666D01*
X114566190Y-105236666D01*
X114375714Y-105284285D01*
X114280476Y-105331904D01*
X114185238Y-105427142D01*
X114137619Y-105570000D01*
X114137619Y-105665238D01*
X114185238Y-105808095D01*
X114232857Y-105855714D01*
X114566190Y-105855714D01*
X114566190Y-105665238D01*
X114137619Y-106284285D02*
X115137619Y-106284285D01*
X114137619Y-106855714D01*
X115137619Y-106855714D01*
X114137619Y-107331904D02*
X115137619Y-107331904D01*
X115137619Y-107570000D01*
X115090000Y-107712857D01*
X114994761Y-107808095D01*
X114899523Y-107855714D01*
X114709047Y-107903333D01*
X114566190Y-107903333D01*
X114375714Y-107855714D01*
X114280476Y-107808095D01*
X114185238Y-107712857D01*
X114137619Y-107570000D01*
X114137619Y-107331904D01*
X137970000Y-115368095D02*
X138017619Y-115272857D01*
X138017619Y-115130000D01*
X137970000Y-114987142D01*
X137874761Y-114891904D01*
X137779523Y-114844285D01*
X137589047Y-114796666D01*
X137446190Y-114796666D01*
X137255714Y-114844285D01*
X137160476Y-114891904D01*
X137065238Y-114987142D01*
X137017619Y-115130000D01*
X137017619Y-115225238D01*
X137065238Y-115368095D01*
X137112857Y-115415714D01*
X137446190Y-115415714D01*
X137446190Y-115225238D01*
X137017619Y-115844285D02*
X138017619Y-115844285D01*
X137017619Y-116415714D01*
X138017619Y-116415714D01*
X137017619Y-116891904D02*
X138017619Y-116891904D01*
X138017619Y-117130000D01*
X137970000Y-117272857D01*
X137874761Y-117368095D01*
X137779523Y-117415714D01*
X137589047Y-117463333D01*
X137446190Y-117463333D01*
X137255714Y-117415714D01*
X137160476Y-117368095D01*
X137065238Y-117272857D01*
X137017619Y-117130000D01*
X137017619Y-116891904D01*
X112467619Y-105331904D02*
X112467619Y-105950952D01*
X112086666Y-105617619D01*
X112086666Y-105760476D01*
X112039047Y-105855714D01*
X111991428Y-105903333D01*
X111896190Y-105950952D01*
X111658095Y-105950952D01*
X111562857Y-105903333D01*
X111515238Y-105855714D01*
X111467619Y-105760476D01*
X111467619Y-105474761D01*
X111515238Y-105379523D01*
X111562857Y-105331904D01*
X112467619Y-106236666D02*
X111467619Y-106570000D01*
X112467619Y-106903333D01*
X112467619Y-107141428D02*
X112467619Y-107760476D01*
X112086666Y-107427142D01*
X112086666Y-107570000D01*
X112039047Y-107665238D01*
X111991428Y-107712857D01*
X111896190Y-107760476D01*
X111658095Y-107760476D01*
X111562857Y-107712857D01*
X111515238Y-107665238D01*
X111467619Y-107570000D01*
X111467619Y-107284285D01*
X111515238Y-107189047D01*
X111562857Y-107141428D01*
X140557619Y-114901904D02*
X140557619Y-115520952D01*
X140176666Y-115187619D01*
X140176666Y-115330476D01*
X140129047Y-115425714D01*
X140081428Y-115473333D01*
X139986190Y-115520952D01*
X139748095Y-115520952D01*
X139652857Y-115473333D01*
X139605238Y-115425714D01*
X139557619Y-115330476D01*
X139557619Y-115044761D01*
X139605238Y-114949523D01*
X139652857Y-114901904D01*
X140557619Y-115806666D02*
X139557619Y-116140000D01*
X140557619Y-116473333D01*
X140557619Y-116711428D02*
X140557619Y-117330476D01*
X140176666Y-116997142D01*
X140176666Y-117140000D01*
X140129047Y-117235238D01*
X140081428Y-117282857D01*
X139986190Y-117330476D01*
X139748095Y-117330476D01*
X139652857Y-117282857D01*
X139605238Y-117235238D01*
X139557619Y-117140000D01*
X139557619Y-116854285D01*
X139605238Y-116759047D01*
X139652857Y-116711428D01*
X112767619Y-72631904D02*
X112767619Y-73250952D01*
X112386666Y-72917619D01*
X112386666Y-73060476D01*
X112339047Y-73155714D01*
X112291428Y-73203333D01*
X112196190Y-73250952D01*
X111958095Y-73250952D01*
X111862857Y-73203333D01*
X111815238Y-73155714D01*
X111767619Y-73060476D01*
X111767619Y-72774761D01*
X111815238Y-72679523D01*
X111862857Y-72631904D01*
X112767619Y-73536666D02*
X111767619Y-73870000D01*
X112767619Y-74203333D01*
X112767619Y-74441428D02*
X112767619Y-75060476D01*
X112386666Y-74727142D01*
X112386666Y-74870000D01*
X112339047Y-74965238D01*
X112291428Y-75012857D01*
X112196190Y-75060476D01*
X111958095Y-75060476D01*
X111862857Y-75012857D01*
X111815238Y-74965238D01*
X111767619Y-74870000D01*
X111767619Y-74584285D01*
X111815238Y-74489047D01*
X111862857Y-74441428D01*
X115190000Y-73008095D02*
X115237619Y-72912857D01*
X115237619Y-72770000D01*
X115190000Y-72627142D01*
X115094761Y-72531904D01*
X114999523Y-72484285D01*
X114809047Y-72436666D01*
X114666190Y-72436666D01*
X114475714Y-72484285D01*
X114380476Y-72531904D01*
X114285238Y-72627142D01*
X114237619Y-72770000D01*
X114237619Y-72865238D01*
X114285238Y-73008095D01*
X114332857Y-73055714D01*
X114666190Y-73055714D01*
X114666190Y-72865238D01*
X114237619Y-73484285D02*
X115237619Y-73484285D01*
X114237619Y-74055714D01*
X115237619Y-74055714D01*
X114237619Y-74531904D02*
X115237619Y-74531904D01*
X115237619Y-74770000D01*
X115190000Y-74912857D01*
X115094761Y-75008095D01*
X114999523Y-75055714D01*
X114809047Y-75103333D01*
X114666190Y-75103333D01*
X114475714Y-75055714D01*
X114380476Y-75008095D01*
X114285238Y-74912857D01*
X114237619Y-74770000D01*
X114237619Y-74531904D01*
X140307619Y-72481904D02*
X140307619Y-73100952D01*
X139926666Y-72767619D01*
X139926666Y-72910476D01*
X139879047Y-73005714D01*
X139831428Y-73053333D01*
X139736190Y-73100952D01*
X139498095Y-73100952D01*
X139402857Y-73053333D01*
X139355238Y-73005714D01*
X139307619Y-72910476D01*
X139307619Y-72624761D01*
X139355238Y-72529523D01*
X139402857Y-72481904D01*
X140307619Y-73386666D02*
X139307619Y-73720000D01*
X140307619Y-74053333D01*
X140307619Y-74291428D02*
X140307619Y-74910476D01*
X139926666Y-74577142D01*
X139926666Y-74720000D01*
X139879047Y-74815238D01*
X139831428Y-74862857D01*
X139736190Y-74910476D01*
X139498095Y-74910476D01*
X139402857Y-74862857D01*
X139355238Y-74815238D01*
X139307619Y-74720000D01*
X139307619Y-74434285D01*
X139355238Y-74339047D01*
X139402857Y-74291428D01*
X137890000Y-72958095D02*
X137937619Y-72862857D01*
X137937619Y-72720000D01*
X137890000Y-72577142D01*
X137794761Y-72481904D01*
X137699523Y-72434285D01*
X137509047Y-72386666D01*
X137366190Y-72386666D01*
X137175714Y-72434285D01*
X137080476Y-72481904D01*
X136985238Y-72577142D01*
X136937619Y-72720000D01*
X136937619Y-72815238D01*
X136985238Y-72958095D01*
X137032857Y-73005714D01*
X137366190Y-73005714D01*
X137366190Y-72815238D01*
X136937619Y-73434285D02*
X137937619Y-73434285D01*
X136937619Y-74005714D01*
X137937619Y-74005714D01*
X136937619Y-74481904D02*
X137937619Y-74481904D01*
X137937619Y-74720000D01*
X137890000Y-74862857D01*
X137794761Y-74958095D01*
X137699523Y-75005714D01*
X137509047Y-75053333D01*
X137366190Y-75053333D01*
X137175714Y-75005714D01*
X137080476Y-74958095D01*
X136985238Y-74862857D01*
X136937619Y-74720000D01*
X136937619Y-74481904D01*
D11*
X107140000Y-101736359D02*
X107140000Y-102043641D01*
X106380000Y-101736359D02*
X106380000Y-102043641D01*
X108130000Y-101782164D02*
X108130000Y-101997836D01*
X107410000Y-101782164D02*
X107410000Y-101997836D01*
X132080000Y-100535000D02*
X129620000Y-100535000D01*
X132080000Y-102005000D02*
X132080000Y-100535000D01*
X129620000Y-102005000D02*
X132080000Y-102005000D01*
X105400000Y-77615000D02*
X107860000Y-77615000D01*
X105400000Y-76145000D02*
X105400000Y-77615000D01*
X107860000Y-76145000D02*
X105400000Y-76145000D01*
X128090000Y-100945835D02*
X128090000Y-100714165D01*
X127370000Y-100945835D02*
X127370000Y-100714165D01*
X117984165Y-97220000D02*
X118215835Y-97220000D01*
X117984165Y-96500000D02*
X118215835Y-96500000D01*
X119517349Y-88553534D02*
X119353534Y-88717349D01*
X120026466Y-89062651D02*
X119862651Y-89226466D01*
X141330000Y-108670000D02*
X141330000Y-110000000D01*
X140000000Y-108670000D02*
X141330000Y-108670000D01*
X141330000Y-111270000D02*
X141330000Y-113870000D01*
X138730000Y-111270000D02*
X141330000Y-111270000D01*
X138730000Y-108670000D02*
X138730000Y-111270000D01*
X141330000Y-113870000D02*
X110730000Y-113870000D01*
X138730000Y-108670000D02*
X110730000Y-108670000D01*
X110730000Y-108670000D02*
X110730000Y-113870000D01*
X141330000Y-76130000D02*
X141330000Y-77460000D01*
X140000000Y-76130000D02*
X141330000Y-76130000D01*
X141330000Y-78730000D02*
X141330000Y-81330000D01*
X138730000Y-78730000D02*
X141330000Y-78730000D01*
X138730000Y-76130000D02*
X138730000Y-78730000D01*
X141330000Y-81330000D02*
X110730000Y-81330000D01*
X138730000Y-76130000D02*
X110730000Y-76130000D01*
X110730000Y-76130000D02*
X110730000Y-81330000D01*
X111714165Y-117900000D02*
X111945835Y-117900000D01*
X111714165Y-117180000D02*
X111945835Y-117180000D01*
X138030000Y-96180000D02*
X138030000Y-92180000D01*
X134730000Y-96180000D02*
X138030000Y-96180000D01*
X102160000Y-90300000D02*
X100260000Y-90300000D01*
X106060000Y-90300000D02*
X104060000Y-90300000D01*
X102160000Y-99700000D02*
X100260000Y-99700000D01*
X106060000Y-99700000D02*
X104060000Y-99700000D01*
X100260000Y-90300000D02*
X100260000Y-99700000D01*
X107560000Y-88870000D02*
X107560000Y-87610000D01*
X107560000Y-82050000D02*
X107560000Y-83310000D01*
X103800000Y-88870000D02*
X107560000Y-88870000D01*
X101550000Y-82050000D02*
X107560000Y-82050000D01*
D12*
X121075726Y-102300008D02*
X119375704Y-102300008D01*
X122169958Y-102310168D02*
X122169958Y-105210086D01*
X118270042Y-102310168D02*
X122169958Y-102310168D01*
X118270042Y-105210086D02*
X118270042Y-102310168D01*
X122169958Y-105210086D02*
X118270042Y-105210086D01*
X140374274Y-88649992D02*
X142074296Y-88649992D01*
X139280042Y-88639832D02*
X139280042Y-85739914D01*
X143179958Y-88639832D02*
X139280042Y-88639832D01*
X143179958Y-85739914D02*
X143179958Y-88639832D01*
X139280042Y-85739914D02*
X143179958Y-85739914D01*
D11*
X136490000Y-83626359D02*
X136490000Y-83933641D01*
X135730000Y-83626359D02*
X135730000Y-83933641D01*
X131266359Y-92370000D02*
X131573641Y-92370000D01*
X131266359Y-93130000D02*
X131573641Y-93130000D01*
X130920000Y-99023641D02*
X130920000Y-98716359D01*
X131680000Y-99023641D02*
X131680000Y-98716359D01*
X104313641Y-77250000D02*
X104006359Y-77250000D01*
X104313641Y-76490000D02*
X104006359Y-76490000D01*
X124456359Y-104670000D02*
X124763641Y-104670000D01*
X124456359Y-105430000D02*
X124763641Y-105430000D01*
X131970000Y-105943641D02*
X131970000Y-105636359D01*
X132730000Y-105943641D02*
X132730000Y-105636359D01*
X138647836Y-100620000D02*
X138432164Y-100620000D01*
X138647836Y-99900000D02*
X138432164Y-99900000D01*
X138647836Y-98080000D02*
X138432164Y-98080000D01*
X138647836Y-97360000D02*
X138432164Y-97360000D01*
X136577836Y-91360000D02*
X136362164Y-91360000D01*
X136577836Y-90640000D02*
X136362164Y-90640000D01*
X139540000Y-93982164D02*
X139540000Y-94197836D01*
X138820000Y-93982164D02*
X138820000Y-94197836D01*
X132260000Y-89988733D02*
X132260000Y-90331267D01*
X131240000Y-89988733D02*
X131240000Y-90331267D01*
D12*
X115744274Y-118999992D02*
X117444296Y-118999992D01*
X114650042Y-118989832D02*
X114650042Y-116089914D01*
X118549958Y-118989832D02*
X114650042Y-118989832D01*
X118549958Y-116089914D02*
X118549958Y-118989832D01*
X114650042Y-116089914D02*
X118549958Y-116089914D01*
D11*
X137145000Y-99605000D02*
X137145000Y-98255000D01*
X135395000Y-99605000D02*
X135395000Y-98255000D01*
X106270000Y-111450000D02*
X105500000Y-112280000D01*
X106270000Y-111440000D02*
X106310000Y-105775000D01*
X103782470Y-105775000D02*
X103140000Y-105775000D01*
X106310000Y-105775000D02*
X103760000Y-105780000D01*
X103140000Y-110915000D02*
X103140000Y-105775000D01*
X103140000Y-111510000D02*
X103140000Y-110915000D01*
X103140000Y-112310000D02*
X103140000Y-111550000D01*
X105470000Y-112310000D02*
X103140000Y-112310000D01*
X107190000Y-115325000D02*
X102190000Y-115325000D01*
X102190000Y-115325000D02*
X102190000Y-102675000D01*
X102190000Y-102675000D02*
X107190000Y-102675000D01*
X107190000Y-102675000D02*
X107190000Y-108000000D01*
X107190000Y-108000000D02*
X106690000Y-108000000D01*
X106690000Y-108000000D02*
X106690000Y-110000000D01*
X106690000Y-110000000D02*
X107190000Y-110000000D01*
X107190000Y-110000000D02*
X107190000Y-115325000D01*
X121865000Y-97610000D02*
X121390000Y-97610000D01*
X121390000Y-97610000D02*
X121390000Y-97135000D01*
X128135000Y-90390000D02*
X128610000Y-90390000D01*
X128610000Y-90390000D02*
X128610000Y-90865000D01*
X121865000Y-90390000D02*
X121390000Y-90390000D01*
X121390000Y-90390000D02*
X121390000Y-90865000D01*
X128135000Y-97610000D02*
X128610000Y-97610000D01*
X122537313Y-87696779D02*
X122906779Y-87327313D01*
X121533221Y-86692687D02*
X121902687Y-86323221D01*
D10*
X105972380Y-102076666D02*
X105496190Y-102410000D01*
X105972380Y-102648095D02*
X104972380Y-102648095D01*
X104972380Y-102267142D01*
X105020000Y-102171904D01*
X105067619Y-102124285D01*
X105162857Y-102076666D01*
X105305714Y-102076666D01*
X105400952Y-102124285D01*
X105448571Y-102171904D01*
X105496190Y-102267142D01*
X105496190Y-102648095D01*
X105305714Y-101219523D02*
X105972380Y-101219523D01*
X104924761Y-101457619D02*
X105639047Y-101695714D01*
X105639047Y-101076666D01*
X109287142Y-102532857D02*
X109334761Y-102580476D01*
X109382380Y-102723333D01*
X109382380Y-102818571D01*
X109334761Y-102961428D01*
X109239523Y-103056666D01*
X109144285Y-103104285D01*
X108953809Y-103151904D01*
X108810952Y-103151904D01*
X108620476Y-103104285D01*
X108525238Y-103056666D01*
X108430000Y-102961428D01*
X108382380Y-102818571D01*
X108382380Y-102723333D01*
X108430000Y-102580476D01*
X108477619Y-102532857D01*
X109382380Y-101580476D02*
X109382380Y-102151904D01*
X109382380Y-101866190D02*
X108382380Y-101866190D01*
X108525238Y-101961428D01*
X108620476Y-102056666D01*
X108668095Y-102151904D01*
X108382380Y-100961428D02*
X108382380Y-100866190D01*
X108430000Y-100770952D01*
X108477619Y-100723333D01*
X108572857Y-100675714D01*
X108763333Y-100628095D01*
X109001428Y-100628095D01*
X109191904Y-100675714D01*
X109287142Y-100723333D01*
X109334761Y-100770952D01*
X109382380Y-100866190D01*
X109382380Y-100961428D01*
X109334761Y-101056666D01*
X109287142Y-101104285D01*
X109191904Y-101151904D01*
X109001428Y-101199523D01*
X108763333Y-101199523D01*
X108572857Y-101151904D01*
X108477619Y-101104285D01*
X108430000Y-101056666D01*
X108382380Y-100961428D01*
X106321904Y-75902380D02*
X106321904Y-74902380D01*
X106560000Y-74902380D01*
X106702857Y-74950000D01*
X106798095Y-75045238D01*
X106845714Y-75140476D01*
X106893333Y-75330952D01*
X106893333Y-75473809D01*
X106845714Y-75664285D01*
X106798095Y-75759523D01*
X106702857Y-75854761D01*
X106560000Y-75902380D01*
X106321904Y-75902380D01*
X107845714Y-75902380D02*
X107274285Y-75902380D01*
X107560000Y-75902380D02*
X107560000Y-74902380D01*
X107464761Y-75045238D01*
X107369523Y-75140476D01*
X107274285Y-75188095D01*
X127433333Y-102987142D02*
X127385714Y-103034761D01*
X127242857Y-103082380D01*
X127147619Y-103082380D01*
X127004761Y-103034761D01*
X126909523Y-102939523D01*
X126861904Y-102844285D01*
X126814285Y-102653809D01*
X126814285Y-102510952D01*
X126861904Y-102320476D01*
X126909523Y-102225238D01*
X127004761Y-102130000D01*
X127147619Y-102082380D01*
X127242857Y-102082380D01*
X127385714Y-102130000D01*
X127433333Y-102177619D01*
X127909523Y-103082380D02*
X128100000Y-103082380D01*
X128195238Y-103034761D01*
X128242857Y-102987142D01*
X128338095Y-102844285D01*
X128385714Y-102653809D01*
X128385714Y-102272857D01*
X128338095Y-102177619D01*
X128290476Y-102130000D01*
X128195238Y-102082380D01*
X128004761Y-102082380D01*
X127909523Y-102130000D01*
X127861904Y-102177619D01*
X127814285Y-102272857D01*
X127814285Y-102510952D01*
X127861904Y-102606190D01*
X127909523Y-102653809D01*
X128004761Y-102701428D01*
X128195238Y-102701428D01*
X128290476Y-102653809D01*
X128338095Y-102606190D01*
X128385714Y-102510952D01*
X117933333Y-96057142D02*
X117885714Y-96104761D01*
X117742857Y-96152380D01*
X117647619Y-96152380D01*
X117504761Y-96104761D01*
X117409523Y-96009523D01*
X117361904Y-95914285D01*
X117314285Y-95723809D01*
X117314285Y-95580952D01*
X117361904Y-95390476D01*
X117409523Y-95295238D01*
X117504761Y-95200000D01*
X117647619Y-95152380D01*
X117742857Y-95152380D01*
X117885714Y-95200000D01*
X117933333Y-95247619D01*
X118504761Y-95580952D02*
X118409523Y-95533333D01*
X118361904Y-95485714D01*
X118314285Y-95390476D01*
X118314285Y-95342857D01*
X118361904Y-95247619D01*
X118409523Y-95200000D01*
X118504761Y-95152380D01*
X118695238Y-95152380D01*
X118790476Y-95200000D01*
X118838095Y-95247619D01*
X118885714Y-95342857D01*
X118885714Y-95390476D01*
X118838095Y-95485714D01*
X118790476Y-95533333D01*
X118695238Y-95580952D01*
X118504761Y-95580952D01*
X118409523Y-95628571D01*
X118361904Y-95676190D01*
X118314285Y-95771428D01*
X118314285Y-95961904D01*
X118361904Y-96057142D01*
X118409523Y-96104761D01*
X118504761Y-96152380D01*
X118695238Y-96152380D01*
X118790476Y-96104761D01*
X118838095Y-96057142D01*
X118885714Y-95961904D01*
X118885714Y-95771428D01*
X118838095Y-95676190D01*
X118790476Y-95628571D01*
X118695238Y-95580952D01*
X118934687Y-88420389D02*
X118934687Y-88487732D01*
X118867343Y-88622419D01*
X118800000Y-88689763D01*
X118665312Y-88757106D01*
X118530625Y-88757106D01*
X118429610Y-88723435D01*
X118261251Y-88622419D01*
X118160236Y-88521404D01*
X118059221Y-88353045D01*
X118025549Y-88252030D01*
X118025549Y-88117343D01*
X118092893Y-87982656D01*
X118160236Y-87915312D01*
X118294923Y-87847969D01*
X118362267Y-87847969D01*
X118530625Y-87544923D02*
X119002030Y-87073519D01*
X119406091Y-88083671D01*
X141782380Y-111603333D02*
X142496666Y-111603333D01*
X142639523Y-111650952D01*
X142734761Y-111746190D01*
X142782380Y-111889047D01*
X142782380Y-111984285D01*
X141782380Y-110650952D02*
X141782380Y-111127142D01*
X142258571Y-111174761D01*
X142210952Y-111127142D01*
X142163333Y-111031904D01*
X142163333Y-110793809D01*
X142210952Y-110698571D01*
X142258571Y-110650952D01*
X142353809Y-110603333D01*
X142591904Y-110603333D01*
X142687142Y-110650952D01*
X142734761Y-110698571D01*
X142782380Y-110793809D01*
X142782380Y-111031904D01*
X142734761Y-111127142D01*
X142687142Y-111174761D01*
X141782380Y-79063333D02*
X142496666Y-79063333D01*
X142639523Y-79110952D01*
X142734761Y-79206190D01*
X142782380Y-79349047D01*
X142782380Y-79444285D01*
X141877619Y-78634761D02*
X141830000Y-78587142D01*
X141782380Y-78491904D01*
X141782380Y-78253809D01*
X141830000Y-78158571D01*
X141877619Y-78110952D01*
X141972857Y-78063333D01*
X142068095Y-78063333D01*
X142210952Y-78110952D01*
X142782380Y-78682380D01*
X142782380Y-78063333D01*
X109413333Y-118007142D02*
X109365714Y-118054761D01*
X109222857Y-118102380D01*
X109127619Y-118102380D01*
X108984761Y-118054761D01*
X108889523Y-117959523D01*
X108841904Y-117864285D01*
X108794285Y-117673809D01*
X108794285Y-117530952D01*
X108841904Y-117340476D01*
X108889523Y-117245238D01*
X108984761Y-117150000D01*
X109127619Y-117102380D01*
X109222857Y-117102380D01*
X109365714Y-117150000D01*
X109413333Y-117197619D01*
X110270476Y-117102380D02*
X110080000Y-117102380D01*
X109984761Y-117150000D01*
X109937142Y-117197619D01*
X109841904Y-117340476D01*
X109794285Y-117530952D01*
X109794285Y-117911904D01*
X109841904Y-118007142D01*
X109889523Y-118054761D01*
X109984761Y-118102380D01*
X110175238Y-118102380D01*
X110270476Y-118054761D01*
X110318095Y-118007142D01*
X110365714Y-117911904D01*
X110365714Y-117673809D01*
X110318095Y-117578571D01*
X110270476Y-117530952D01*
X110175238Y-117483333D01*
X109984761Y-117483333D01*
X109889523Y-117530952D01*
X109841904Y-117578571D01*
X109794285Y-117673809D01*
X133906190Y-94656190D02*
X134382380Y-94656190D01*
X133382380Y-94989523D02*
X133906190Y-94656190D01*
X133382380Y-94322857D01*
X134382380Y-93465714D02*
X134382380Y-94037142D01*
X134382380Y-93751428D02*
X133382380Y-93751428D01*
X133525238Y-93846666D01*
X133620476Y-93941904D01*
X133668095Y-94037142D01*
X109257380Y-95333333D02*
X109971666Y-95333333D01*
X110114523Y-95380952D01*
X110209761Y-95476190D01*
X110257380Y-95619047D01*
X110257380Y-95714285D01*
X110257380Y-94333333D02*
X110257380Y-94904761D01*
X110257380Y-94619047D02*
X109257380Y-94619047D01*
X109400238Y-94714285D01*
X109495476Y-94809523D01*
X109543095Y-94904761D01*
X104258095Y-82552380D02*
X104258095Y-83361904D01*
X104305714Y-83457142D01*
X104353333Y-83504761D01*
X104448571Y-83552380D01*
X104639047Y-83552380D01*
X104734285Y-83504761D01*
X104781904Y-83457142D01*
X104829523Y-83361904D01*
X104829523Y-82552380D01*
X105258095Y-82647619D02*
X105305714Y-82600000D01*
X105400952Y-82552380D01*
X105639047Y-82552380D01*
X105734285Y-82600000D01*
X105781904Y-82647619D01*
X105829523Y-82742857D01*
X105829523Y-82838095D01*
X105781904Y-82980952D01*
X105210476Y-83552380D01*
X105829523Y-83552380D01*
X137693333Y-85402380D02*
X137360000Y-84926190D01*
X137121904Y-85402380D02*
X137121904Y-84402380D01*
X137502857Y-84402380D01*
X137598095Y-84450000D01*
X137645714Y-84497619D01*
X137693333Y-84592857D01*
X137693333Y-84735714D01*
X137645714Y-84830952D01*
X137598095Y-84878571D01*
X137502857Y-84926190D01*
X137121904Y-84926190D01*
X138026666Y-84402380D02*
X138693333Y-84402380D01*
X138264761Y-85402380D01*
X130953333Y-91972380D02*
X130620000Y-91496190D01*
X130381904Y-91972380D02*
X130381904Y-90972380D01*
X130762857Y-90972380D01*
X130858095Y-91020000D01*
X130905714Y-91067619D01*
X130953333Y-91162857D01*
X130953333Y-91305714D01*
X130905714Y-91400952D01*
X130858095Y-91448571D01*
X130762857Y-91496190D01*
X130381904Y-91496190D01*
X131810476Y-90972380D02*
X131620000Y-90972380D01*
X131524761Y-91020000D01*
X131477142Y-91067619D01*
X131381904Y-91210476D01*
X131334285Y-91400952D01*
X131334285Y-91781904D01*
X131381904Y-91877142D01*
X131429523Y-91924761D01*
X131524761Y-91972380D01*
X131715238Y-91972380D01*
X131810476Y-91924761D01*
X131858095Y-91877142D01*
X131905714Y-91781904D01*
X131905714Y-91543809D01*
X131858095Y-91448571D01*
X131810476Y-91400952D01*
X131715238Y-91353333D01*
X131524761Y-91353333D01*
X131429523Y-91400952D01*
X131381904Y-91448571D01*
X131334285Y-91543809D01*
X131592380Y-97066666D02*
X131116190Y-97400000D01*
X131592380Y-97638095D02*
X130592380Y-97638095D01*
X130592380Y-97257142D01*
X130640000Y-97161904D01*
X130687619Y-97114285D01*
X130782857Y-97066666D01*
X130925714Y-97066666D01*
X131020952Y-97114285D01*
X131068571Y-97161904D01*
X131116190Y-97257142D01*
X131116190Y-97638095D01*
X130592380Y-96161904D02*
X130592380Y-96638095D01*
X131068571Y-96685714D01*
X131020952Y-96638095D01*
X130973333Y-96542857D01*
X130973333Y-96304761D01*
X131020952Y-96209523D01*
X131068571Y-96161904D01*
X131163809Y-96114285D01*
X131401904Y-96114285D01*
X131497142Y-96161904D01*
X131544761Y-96209523D01*
X131592380Y-96304761D01*
X131592380Y-96542857D01*
X131544761Y-96638095D01*
X131497142Y-96685714D01*
X102193333Y-77342380D02*
X101860000Y-76866190D01*
X101621904Y-77342380D02*
X101621904Y-76342380D01*
X102002857Y-76342380D01*
X102098095Y-76390000D01*
X102145714Y-76437619D01*
X102193333Y-76532857D01*
X102193333Y-76675714D01*
X102145714Y-76770952D01*
X102098095Y-76818571D01*
X102002857Y-76866190D01*
X101621904Y-76866190D01*
X102526666Y-76342380D02*
X103145714Y-76342380D01*
X102812380Y-76723333D01*
X102955238Y-76723333D01*
X103050476Y-76770952D01*
X103098095Y-76818571D01*
X103145714Y-76913809D01*
X103145714Y-77151904D01*
X103098095Y-77247142D01*
X103050476Y-77294761D01*
X102955238Y-77342380D01*
X102669523Y-77342380D01*
X102574285Y-77294761D01*
X102526666Y-77247142D01*
X124343333Y-104372380D02*
X124010000Y-103896190D01*
X123771904Y-104372380D02*
X123771904Y-103372380D01*
X124152857Y-103372380D01*
X124248095Y-103420000D01*
X124295714Y-103467619D01*
X124343333Y-103562857D01*
X124343333Y-103705714D01*
X124295714Y-103800952D01*
X124248095Y-103848571D01*
X124152857Y-103896190D01*
X123771904Y-103896190D01*
X124724285Y-103467619D02*
X124771904Y-103420000D01*
X124867142Y-103372380D01*
X125105238Y-103372380D01*
X125200476Y-103420000D01*
X125248095Y-103467619D01*
X125295714Y-103562857D01*
X125295714Y-103658095D01*
X125248095Y-103800952D01*
X124676666Y-104372380D01*
X125295714Y-104372380D01*
X133523333Y-104682380D02*
X133190000Y-104206190D01*
X132951904Y-104682380D02*
X132951904Y-103682380D01*
X133332857Y-103682380D01*
X133428095Y-103730000D01*
X133475714Y-103777619D01*
X133523333Y-103872857D01*
X133523333Y-104015714D01*
X133475714Y-104110952D01*
X133428095Y-104158571D01*
X133332857Y-104206190D01*
X132951904Y-104206190D01*
X134475714Y-104682380D02*
X133904285Y-104682380D01*
X134190000Y-104682380D02*
X134190000Y-103682380D01*
X134094761Y-103825238D01*
X133999523Y-103920476D01*
X133904285Y-103968095D01*
X140273333Y-100627142D02*
X140225714Y-100674761D01*
X140082857Y-100722380D01*
X139987619Y-100722380D01*
X139844761Y-100674761D01*
X139749523Y-100579523D01*
X139701904Y-100484285D01*
X139654285Y-100293809D01*
X139654285Y-100150952D01*
X139701904Y-99960476D01*
X139749523Y-99865238D01*
X139844761Y-99770000D01*
X139987619Y-99722380D01*
X140082857Y-99722380D01*
X140225714Y-99770000D01*
X140273333Y-99817619D01*
X141178095Y-99722380D02*
X140701904Y-99722380D01*
X140654285Y-100198571D01*
X140701904Y-100150952D01*
X140797142Y-100103333D01*
X141035238Y-100103333D01*
X141130476Y-100150952D01*
X141178095Y-100198571D01*
X141225714Y-100293809D01*
X141225714Y-100531904D01*
X141178095Y-100627142D01*
X141130476Y-100674761D01*
X141035238Y-100722380D01*
X140797142Y-100722380D01*
X140701904Y-100674761D01*
X140654285Y-100627142D01*
X140333333Y-98187142D02*
X140285714Y-98234761D01*
X140142857Y-98282380D01*
X140047619Y-98282380D01*
X139904761Y-98234761D01*
X139809523Y-98139523D01*
X139761904Y-98044285D01*
X139714285Y-97853809D01*
X139714285Y-97710952D01*
X139761904Y-97520476D01*
X139809523Y-97425238D01*
X139904761Y-97330000D01*
X140047619Y-97282380D01*
X140142857Y-97282380D01*
X140285714Y-97330000D01*
X140333333Y-97377619D01*
X141190476Y-97615714D02*
X141190476Y-98282380D01*
X140952380Y-97234761D02*
X140714285Y-97949047D01*
X141333333Y-97949047D01*
X138343333Y-91467142D02*
X138295714Y-91514761D01*
X138152857Y-91562380D01*
X138057619Y-91562380D01*
X137914761Y-91514761D01*
X137819523Y-91419523D01*
X137771904Y-91324285D01*
X137724285Y-91133809D01*
X137724285Y-90990952D01*
X137771904Y-90800476D01*
X137819523Y-90705238D01*
X137914761Y-90610000D01*
X138057619Y-90562380D01*
X138152857Y-90562380D01*
X138295714Y-90610000D01*
X138343333Y-90657619D01*
X138724285Y-90657619D02*
X138771904Y-90610000D01*
X138867142Y-90562380D01*
X139105238Y-90562380D01*
X139200476Y-90610000D01*
X139248095Y-90657619D01*
X139295714Y-90752857D01*
X139295714Y-90848095D01*
X139248095Y-90990952D01*
X138676666Y-91562380D01*
X139295714Y-91562380D01*
X139537142Y-96156666D02*
X139584761Y-96204285D01*
X139632380Y-96347142D01*
X139632380Y-96442380D01*
X139584761Y-96585238D01*
X139489523Y-96680476D01*
X139394285Y-96728095D01*
X139203809Y-96775714D01*
X139060952Y-96775714D01*
X138870476Y-96728095D01*
X138775238Y-96680476D01*
X138680000Y-96585238D01*
X138632380Y-96442380D01*
X138632380Y-96347142D01*
X138680000Y-96204285D01*
X138727619Y-96156666D01*
X139632380Y-95204285D02*
X139632380Y-95775714D01*
X139632380Y-95490000D02*
X138632380Y-95490000D01*
X138775238Y-95585238D01*
X138870476Y-95680476D01*
X138918095Y-95775714D01*
X132163333Y-88262380D02*
X131687142Y-88262380D01*
X131687142Y-87262380D01*
X133020476Y-88262380D02*
X132449047Y-88262380D01*
X132734761Y-88262380D02*
X132734761Y-87262380D01*
X132639523Y-87405238D01*
X132544285Y-87500476D01*
X132449047Y-87548095D01*
X136336190Y-102416190D02*
X136812380Y-102416190D01*
X135812380Y-102749523D02*
X136336190Y-102416190D01*
X135812380Y-102082857D01*
X135907619Y-101797142D02*
X135860000Y-101749523D01*
X135812380Y-101654285D01*
X135812380Y-101416190D01*
X135860000Y-101320952D01*
X135907619Y-101273333D01*
X136002857Y-101225714D01*
X136098095Y-101225714D01*
X136240952Y-101273333D01*
X136812380Y-101844761D01*
X136812380Y-101225714D01*
X103625714Y-114597142D02*
X103578095Y-114644761D01*
X103435238Y-114692380D01*
X103340000Y-114692380D01*
X103197142Y-114644761D01*
X103101904Y-114549523D01*
X103054285Y-114454285D01*
X103006666Y-114263809D01*
X103006666Y-114120952D01*
X103054285Y-113930476D01*
X103101904Y-113835238D01*
X103197142Y-113740000D01*
X103340000Y-113692380D01*
X103435238Y-113692380D01*
X103578095Y-113740000D01*
X103625714Y-113787619D01*
X104244761Y-113692380D02*
X104435238Y-113692380D01*
X104530476Y-113740000D01*
X104625714Y-113835238D01*
X104673333Y-114025714D01*
X104673333Y-114359047D01*
X104625714Y-114549523D01*
X104530476Y-114644761D01*
X104435238Y-114692380D01*
X104244761Y-114692380D01*
X104149523Y-114644761D01*
X104054285Y-114549523D01*
X104006666Y-114359047D01*
X104006666Y-114025714D01*
X104054285Y-113835238D01*
X104149523Y-113740000D01*
X104244761Y-113692380D01*
X105101904Y-114692380D02*
X105101904Y-113692380D01*
X105673333Y-114692380D01*
X105673333Y-113692380D01*
X106673333Y-114692380D02*
X106101904Y-114692380D01*
X106387619Y-114692380D02*
X106387619Y-113692380D01*
X106292380Y-113835238D01*
X106197142Y-113930476D01*
X106101904Y-113978095D01*
X123178095Y-98832380D02*
X123178095Y-99641904D01*
X123225714Y-99737142D01*
X123273333Y-99784761D01*
X123368571Y-99832380D01*
X123559047Y-99832380D01*
X123654285Y-99784761D01*
X123701904Y-99737142D01*
X123749523Y-99641904D01*
X123749523Y-98832380D01*
X124749523Y-99832380D02*
X124178095Y-99832380D01*
X124463809Y-99832380D02*
X124463809Y-98832380D01*
X124368571Y-98975238D01*
X124273333Y-99070476D01*
X124178095Y-99118095D01*
X120664687Y-86750389D02*
X120664687Y-86817732D01*
X120597343Y-86952419D01*
X120530000Y-87019763D01*
X120395312Y-87087106D01*
X120260625Y-87087106D01*
X120159610Y-87053435D01*
X119991251Y-86952419D01*
X119890236Y-86851404D01*
X119789221Y-86683045D01*
X119755549Y-86582030D01*
X119755549Y-86447343D01*
X119822893Y-86312656D01*
X119890236Y-86245312D01*
X120024923Y-86177969D01*
X120092267Y-86177969D01*
X120260625Y-85874923D02*
X120698358Y-85437190D01*
X120732030Y-85942267D01*
X120833045Y-85841251D01*
X120934061Y-85807580D01*
X121001404Y-85807580D01*
X121102419Y-85841251D01*
X121270778Y-86009610D01*
X121304450Y-86110625D01*
X121304450Y-86177969D01*
X121270778Y-86278984D01*
X121068748Y-86481015D01*
X120967732Y-86514687D01*
X120900389Y-86514687D01*
M02*
