G04 #@! TF.GenerationSoftware,KiCad,Pcbnew,(5.1.10-1-10_14)*
G04 #@! TF.CreationDate,2021-08-26T00:22:11+08:00*
G04 #@! TF.ProjectId,stm32f401_devboard,73746d33-3266-4343-9031-5f646576626f,rev?*
G04 #@! TF.SameCoordinates,Original*
G04 #@! TF.FileFunction,Copper,L3,Inr*
G04 #@! TF.FilePolarity,Positive*
%FSLAX46Y46*%
G04 Gerber Fmt 4.6, Leading zero omitted, Abs format (unit mm)*
G04 Created by KiCad (PCBNEW (5.1.10-1-10_14)) date 2021-08-26 00:22:11*
%MOMM*%
%LPD*%
G01*
G04 APERTURE LIST*
G04 #@! TA.AperFunction,NonConductor*
%ADD10C,0.300000*%
G04 #@! TD*
G04 #@! TA.AperFunction,ComponentPad*
%ADD11O,1.700000X1.700000*%
G04 #@! TD*
G04 #@! TA.AperFunction,ComponentPad*
%ADD12R,1.700000X1.700000*%
G04 #@! TD*
G04 #@! TA.AperFunction,ComponentPad*
%ADD13O,2.100000X1.000000*%
G04 #@! TD*
G04 #@! TA.AperFunction,ComponentPad*
%ADD14O,1.600000X1.000000*%
G04 #@! TD*
G04 #@! TA.AperFunction,ComponentPad*
%ADD15O,1.000000X1.000000*%
G04 #@! TD*
G04 #@! TA.AperFunction,ComponentPad*
%ADD16R,1.000000X1.000000*%
G04 #@! TD*
G04 #@! TA.AperFunction,ViaPad*
%ADD17C,0.600000*%
G04 #@! TD*
G04 #@! TA.AperFunction,Conductor*
%ADD18C,1.500000*%
G04 #@! TD*
G04 #@! TA.AperFunction,Conductor*
%ADD19C,1.000000*%
G04 #@! TD*
G04 #@! TA.AperFunction,Conductor*
%ADD20C,0.254000*%
G04 #@! TD*
G04 #@! TA.AperFunction,Conductor*
%ADD21C,0.100000*%
G04 #@! TD*
G04 APERTURE END LIST*
D10*
X147821428Y-76900000D02*
X147821428Y-77828571D01*
X147250000Y-77328571D01*
X147250000Y-77542857D01*
X147178571Y-77685714D01*
X147107142Y-77757142D01*
X146964285Y-77828571D01*
X146607142Y-77828571D01*
X146464285Y-77757142D01*
X146392857Y-77685714D01*
X146321428Y-77542857D01*
X146321428Y-77114285D01*
X146392857Y-76971428D01*
X146464285Y-76900000D01*
D11*
X112060000Y-112540000D03*
X112060000Y-110000000D03*
X114600000Y-112540000D03*
X114600000Y-110000000D03*
X117140000Y-112540000D03*
X117140000Y-110000000D03*
X119680000Y-112540000D03*
X119680000Y-110000000D03*
X122220000Y-112540000D03*
X122220000Y-110000000D03*
X124760000Y-112540000D03*
X124760000Y-110000000D03*
X127300000Y-112540000D03*
X127300000Y-110000000D03*
X129840000Y-112540000D03*
X129840000Y-110000000D03*
X132380000Y-112540000D03*
X132380000Y-110000000D03*
X134920000Y-112540000D03*
X134920000Y-110000000D03*
X137460000Y-112540000D03*
X137460000Y-110000000D03*
X140000000Y-112540000D03*
D12*
X140000000Y-110000000D03*
D11*
X112060000Y-80000000D03*
X112060000Y-77460000D03*
X114600000Y-80000000D03*
X114600000Y-77460000D03*
X117140000Y-80000000D03*
X117140000Y-77460000D03*
X119680000Y-80000000D03*
X119680000Y-77460000D03*
X122220000Y-80000000D03*
X122220000Y-77460000D03*
X124760000Y-80000000D03*
X124760000Y-77460000D03*
X127300000Y-80000000D03*
X127300000Y-77460000D03*
X129840000Y-80000000D03*
X129840000Y-77460000D03*
X132380000Y-80000000D03*
X132380000Y-77460000D03*
X134920000Y-80000000D03*
X134920000Y-77460000D03*
X137460000Y-80000000D03*
X137460000Y-77460000D03*
X140000000Y-80000000D03*
D12*
X140000000Y-77460000D03*
D13*
X107290000Y-99820000D03*
X107290000Y-91180000D03*
D14*
X103110000Y-91180000D03*
X103110000Y-99820000D03*
D15*
X103315000Y-113820000D03*
X104585000Y-113820000D03*
X103315000Y-112550000D03*
X104585000Y-112550000D03*
X103315000Y-111280000D03*
X104585000Y-111280000D03*
X103315000Y-110010000D03*
X104585000Y-110010000D03*
X104585000Y-108740000D03*
D16*
X103315000Y-108740000D03*
D17*
X123480000Y-105040000D03*
X125000000Y-94000000D03*
X126500000Y-94000000D03*
X123500000Y-94000000D03*
X123500000Y-92500000D03*
X125000000Y-92500000D03*
X126500000Y-92500000D03*
X125000000Y-95500000D03*
X123500000Y-95500000D03*
X126500000Y-95500000D03*
X109440000Y-89690000D03*
X110297823Y-100997823D03*
X136180000Y-92260000D03*
X144100000Y-89050000D03*
X146310000Y-100930000D03*
X116950000Y-91350000D03*
X107709667Y-107450979D03*
X115080000Y-96580000D03*
X106980000Y-107400000D03*
X116010000Y-95910000D03*
X128740000Y-98150000D03*
X119540000Y-96830000D03*
X121160000Y-89610000D03*
X115450000Y-103600000D03*
X132480000Y-85890000D03*
X123198000Y-100695229D03*
X108450000Y-111120000D03*
X131740000Y-91920000D03*
X125198000Y-103240000D03*
X124698000Y-102609877D03*
X124198000Y-101940322D03*
X123698000Y-101296678D03*
X114427755Y-96901105D03*
X110700000Y-96000000D03*
X111960000Y-94198000D03*
X118060000Y-91720000D03*
X118770000Y-91240000D03*
X119592386Y-91056046D03*
X120280000Y-90820000D03*
X123698000Y-88195231D03*
X124198000Y-87615547D03*
X124698000Y-86983596D03*
X125198000Y-86400000D03*
D18*
X140000000Y-110000000D02*
X144510000Y-110000000D01*
X140000000Y-110000000D02*
X140000000Y-108070000D01*
X140000000Y-110000000D02*
X140000000Y-115110000D01*
X140000000Y-112540000D02*
X142500000Y-112540000D01*
X142500000Y-112540000D02*
X144560000Y-110480000D01*
X112060000Y-110000000D02*
X112060000Y-114970000D01*
X112100000Y-114930000D02*
X112100000Y-107560000D01*
X112060000Y-110000000D02*
X109820000Y-110000000D01*
X112060000Y-112540000D02*
X109600000Y-112540000D01*
X112060000Y-80000000D02*
X112060000Y-73990000D01*
X112060000Y-80000000D02*
X112060000Y-82490000D01*
X112060000Y-77460000D02*
X109040000Y-77460000D01*
X112060000Y-80000000D02*
X109220000Y-80000000D01*
X140000000Y-77460000D02*
X140000000Y-74820000D01*
X140000000Y-77460000D02*
X140000000Y-82310000D01*
X140000000Y-77460000D02*
X142020000Y-77460000D01*
X140000000Y-80000000D02*
X142450000Y-80000000D01*
D19*
X103315000Y-110010000D02*
X101720000Y-110010000D01*
D20*
X147453893Y-70707670D02*
X147890498Y-70839489D01*
X148293185Y-71053600D01*
X148646612Y-71341848D01*
X148937327Y-71693261D01*
X149154242Y-72094439D01*
X149289106Y-72530113D01*
X149340000Y-73014344D01*
X149340001Y-116967711D01*
X149292330Y-117453894D01*
X149160512Y-117890497D01*
X148946399Y-118293186D01*
X148658150Y-118646613D01*
X148306739Y-118937327D01*
X147905564Y-119154240D01*
X147469886Y-119289106D01*
X146985664Y-119340000D01*
X103032279Y-119340000D01*
X102546106Y-119292330D01*
X102109503Y-119160512D01*
X101706814Y-118946399D01*
X101353387Y-118658150D01*
X101062673Y-118306739D01*
X100845760Y-117905564D01*
X100710894Y-117469886D01*
X100660000Y-116985664D01*
X100660000Y-108240000D01*
X102176928Y-108240000D01*
X102176928Y-109240000D01*
X102189188Y-109364482D01*
X102225498Y-109484180D01*
X102273070Y-109573180D01*
X102237554Y-109653136D01*
X102220881Y-109708126D01*
X102347046Y-109883000D01*
X103188000Y-109883000D01*
X103188000Y-109878072D01*
X103442000Y-109878072D01*
X103442000Y-109883000D01*
X103453026Y-109883000D01*
X103450000Y-109898212D01*
X103450000Y-110121788D01*
X103453026Y-110137000D01*
X103442000Y-110137000D01*
X103442000Y-110148026D01*
X103426788Y-110145000D01*
X103203212Y-110145000D01*
X103188000Y-110148026D01*
X103188000Y-110137000D01*
X102347046Y-110137000D01*
X102220881Y-110311874D01*
X102237554Y-110366864D01*
X102327877Y-110570206D01*
X102377353Y-110640342D01*
X102309176Y-110742376D01*
X102223617Y-110948933D01*
X102180000Y-111168212D01*
X102180000Y-111391788D01*
X102223617Y-111611067D01*
X102309176Y-111817624D01*
X102374241Y-111915000D01*
X102309176Y-112012376D01*
X102223617Y-112218933D01*
X102180000Y-112438212D01*
X102180000Y-112661788D01*
X102223617Y-112881067D01*
X102309176Y-113087624D01*
X102374241Y-113185000D01*
X102309176Y-113282376D01*
X102223617Y-113488933D01*
X102180000Y-113708212D01*
X102180000Y-113931788D01*
X102223617Y-114151067D01*
X102309176Y-114357624D01*
X102433388Y-114543520D01*
X102591480Y-114701612D01*
X102777376Y-114825824D01*
X102983933Y-114911383D01*
X103203212Y-114955000D01*
X103426788Y-114955000D01*
X103646067Y-114911383D01*
X103852624Y-114825824D01*
X103950000Y-114760759D01*
X104047376Y-114825824D01*
X104253933Y-114911383D01*
X104473212Y-114955000D01*
X104696788Y-114955000D01*
X104916067Y-114911383D01*
X105122624Y-114825824D01*
X105308520Y-114701612D01*
X105466612Y-114543520D01*
X105590824Y-114357624D01*
X105676383Y-114151067D01*
X105720000Y-113931788D01*
X105720000Y-113708212D01*
X105676383Y-113488933D01*
X105590824Y-113282376D01*
X105525759Y-113185000D01*
X105590824Y-113087624D01*
X105669828Y-112896891D01*
X110618519Y-112896891D01*
X110715843Y-113171252D01*
X110864822Y-113421355D01*
X111059731Y-113637588D01*
X111293080Y-113811641D01*
X111555901Y-113936825D01*
X111703110Y-113981476D01*
X111933000Y-113860155D01*
X111933000Y-112667000D01*
X110739186Y-112667000D01*
X110618519Y-112896891D01*
X105669828Y-112896891D01*
X105676383Y-112881067D01*
X105720000Y-112661788D01*
X105720000Y-112438212D01*
X105676383Y-112218933D01*
X105590824Y-112012376D01*
X105525759Y-111915000D01*
X105590824Y-111817624D01*
X105676383Y-111611067D01*
X105720000Y-111391788D01*
X105720000Y-111168212D01*
X105692093Y-111027911D01*
X107515000Y-111027911D01*
X107515000Y-111212089D01*
X107550932Y-111392729D01*
X107621414Y-111562889D01*
X107723738Y-111716028D01*
X107853972Y-111846262D01*
X108007111Y-111948586D01*
X108177271Y-112019068D01*
X108357911Y-112055000D01*
X108542089Y-112055000D01*
X108722729Y-112019068D01*
X108892889Y-111948586D01*
X109046028Y-111846262D01*
X109176262Y-111716028D01*
X109278586Y-111562889D01*
X109349068Y-111392729D01*
X109385000Y-111212089D01*
X109385000Y-111027911D01*
X109349068Y-110847271D01*
X109278586Y-110677111D01*
X109176262Y-110523972D01*
X109046028Y-110393738D01*
X108990883Y-110356891D01*
X110618519Y-110356891D01*
X110715843Y-110631252D01*
X110864822Y-110881355D01*
X111059731Y-111097588D01*
X111290880Y-111270000D01*
X111059731Y-111442412D01*
X110864822Y-111658645D01*
X110715843Y-111908748D01*
X110618519Y-112183109D01*
X110739186Y-112413000D01*
X111933000Y-112413000D01*
X111933000Y-110127000D01*
X110739186Y-110127000D01*
X110618519Y-110356891D01*
X108990883Y-110356891D01*
X108892889Y-110291414D01*
X108722729Y-110220932D01*
X108542089Y-110185000D01*
X108357911Y-110185000D01*
X108177271Y-110220932D01*
X108007111Y-110291414D01*
X107853972Y-110393738D01*
X107723738Y-110523972D01*
X107621414Y-110677111D01*
X107550932Y-110847271D01*
X107515000Y-111027911D01*
X105692093Y-111027911D01*
X105676383Y-110948933D01*
X105590824Y-110742376D01*
X105525759Y-110645000D01*
X105590824Y-110547624D01*
X105676383Y-110341067D01*
X105720000Y-110121788D01*
X105720000Y-109898212D01*
X105676383Y-109678933D01*
X105661545Y-109643109D01*
X110618519Y-109643109D01*
X110739186Y-109873000D01*
X111933000Y-109873000D01*
X111933000Y-108679845D01*
X112187000Y-108679845D01*
X112187000Y-109873000D01*
X112207000Y-109873000D01*
X112207000Y-110127000D01*
X112187000Y-110127000D01*
X112187000Y-112413000D01*
X112207000Y-112413000D01*
X112207000Y-112667000D01*
X112187000Y-112667000D01*
X112187000Y-113860155D01*
X112416890Y-113981476D01*
X112564099Y-113936825D01*
X112826920Y-113811641D01*
X113060269Y-113637588D01*
X113255178Y-113421355D01*
X113324805Y-113304466D01*
X113446525Y-113486632D01*
X113653368Y-113693475D01*
X113896589Y-113855990D01*
X114166842Y-113967932D01*
X114453740Y-114025000D01*
X114746260Y-114025000D01*
X115033158Y-113967932D01*
X115303411Y-113855990D01*
X115546632Y-113693475D01*
X115753475Y-113486632D01*
X115870000Y-113312240D01*
X115986525Y-113486632D01*
X116193368Y-113693475D01*
X116436589Y-113855990D01*
X116706842Y-113967932D01*
X116993740Y-114025000D01*
X117286260Y-114025000D01*
X117573158Y-113967932D01*
X117843411Y-113855990D01*
X118086632Y-113693475D01*
X118293475Y-113486632D01*
X118410000Y-113312240D01*
X118526525Y-113486632D01*
X118733368Y-113693475D01*
X118976589Y-113855990D01*
X119246842Y-113967932D01*
X119533740Y-114025000D01*
X119826260Y-114025000D01*
X120113158Y-113967932D01*
X120383411Y-113855990D01*
X120626632Y-113693475D01*
X120833475Y-113486632D01*
X120950000Y-113312240D01*
X121066525Y-113486632D01*
X121273368Y-113693475D01*
X121516589Y-113855990D01*
X121786842Y-113967932D01*
X122073740Y-114025000D01*
X122366260Y-114025000D01*
X122653158Y-113967932D01*
X122923411Y-113855990D01*
X123166632Y-113693475D01*
X123373475Y-113486632D01*
X123490000Y-113312240D01*
X123606525Y-113486632D01*
X123813368Y-113693475D01*
X124056589Y-113855990D01*
X124326842Y-113967932D01*
X124613740Y-114025000D01*
X124906260Y-114025000D01*
X125193158Y-113967932D01*
X125463411Y-113855990D01*
X125706632Y-113693475D01*
X125913475Y-113486632D01*
X126030000Y-113312240D01*
X126146525Y-113486632D01*
X126353368Y-113693475D01*
X126596589Y-113855990D01*
X126866842Y-113967932D01*
X127153740Y-114025000D01*
X127446260Y-114025000D01*
X127733158Y-113967932D01*
X128003411Y-113855990D01*
X128246632Y-113693475D01*
X128453475Y-113486632D01*
X128570000Y-113312240D01*
X128686525Y-113486632D01*
X128893368Y-113693475D01*
X129136589Y-113855990D01*
X129406842Y-113967932D01*
X129693740Y-114025000D01*
X129986260Y-114025000D01*
X130273158Y-113967932D01*
X130543411Y-113855990D01*
X130786632Y-113693475D01*
X130993475Y-113486632D01*
X131110000Y-113312240D01*
X131226525Y-113486632D01*
X131433368Y-113693475D01*
X131676589Y-113855990D01*
X131946842Y-113967932D01*
X132233740Y-114025000D01*
X132526260Y-114025000D01*
X132813158Y-113967932D01*
X133083411Y-113855990D01*
X133326632Y-113693475D01*
X133533475Y-113486632D01*
X133650000Y-113312240D01*
X133766525Y-113486632D01*
X133973368Y-113693475D01*
X134216589Y-113855990D01*
X134486842Y-113967932D01*
X134773740Y-114025000D01*
X135066260Y-114025000D01*
X135353158Y-113967932D01*
X135623411Y-113855990D01*
X135866632Y-113693475D01*
X136073475Y-113486632D01*
X136190000Y-113312240D01*
X136306525Y-113486632D01*
X136513368Y-113693475D01*
X136756589Y-113855990D01*
X137026842Y-113967932D01*
X137313740Y-114025000D01*
X137606260Y-114025000D01*
X137893158Y-113967932D01*
X138163411Y-113855990D01*
X138406632Y-113693475D01*
X138613475Y-113486632D01*
X138735195Y-113304466D01*
X138804822Y-113421355D01*
X138999731Y-113637588D01*
X139233080Y-113811641D01*
X139495901Y-113936825D01*
X139643110Y-113981476D01*
X139873000Y-113860155D01*
X139873000Y-112667000D01*
X140127000Y-112667000D01*
X140127000Y-113860155D01*
X140356890Y-113981476D01*
X140504099Y-113936825D01*
X140766920Y-113811641D01*
X141000269Y-113637588D01*
X141195178Y-113421355D01*
X141344157Y-113171252D01*
X141441481Y-112896891D01*
X141320814Y-112667000D01*
X140127000Y-112667000D01*
X139873000Y-112667000D01*
X139853000Y-112667000D01*
X139853000Y-112413000D01*
X139873000Y-112413000D01*
X139873000Y-110127000D01*
X140127000Y-110127000D01*
X140127000Y-112413000D01*
X141320814Y-112413000D01*
X141441481Y-112183109D01*
X141344157Y-111908748D01*
X141195178Y-111658645D01*
X141018374Y-111462498D01*
X141094180Y-111439502D01*
X141204494Y-111380537D01*
X141301185Y-111301185D01*
X141380537Y-111204494D01*
X141439502Y-111094180D01*
X141475812Y-110974482D01*
X141488072Y-110850000D01*
X141485000Y-110285750D01*
X141326250Y-110127000D01*
X140127000Y-110127000D01*
X139873000Y-110127000D01*
X139853000Y-110127000D01*
X139853000Y-109873000D01*
X139873000Y-109873000D01*
X139873000Y-108673750D01*
X140127000Y-108673750D01*
X140127000Y-109873000D01*
X141326250Y-109873000D01*
X141485000Y-109714250D01*
X141488072Y-109150000D01*
X141475812Y-109025518D01*
X141439502Y-108905820D01*
X141380537Y-108795506D01*
X141301185Y-108698815D01*
X141204494Y-108619463D01*
X141094180Y-108560498D01*
X140974482Y-108524188D01*
X140850000Y-108511928D01*
X140285750Y-108515000D01*
X140127000Y-108673750D01*
X139873000Y-108673750D01*
X139714250Y-108515000D01*
X139150000Y-108511928D01*
X139025518Y-108524188D01*
X138905820Y-108560498D01*
X138795506Y-108619463D01*
X138698815Y-108698815D01*
X138619463Y-108795506D01*
X138560498Y-108905820D01*
X138538487Y-108978380D01*
X138406632Y-108846525D01*
X138163411Y-108684010D01*
X137893158Y-108572068D01*
X137606260Y-108515000D01*
X137313740Y-108515000D01*
X137026842Y-108572068D01*
X136756589Y-108684010D01*
X136513368Y-108846525D01*
X136306525Y-109053368D01*
X136190000Y-109227760D01*
X136073475Y-109053368D01*
X135866632Y-108846525D01*
X135623411Y-108684010D01*
X135353158Y-108572068D01*
X135066260Y-108515000D01*
X134773740Y-108515000D01*
X134486842Y-108572068D01*
X134216589Y-108684010D01*
X133973368Y-108846525D01*
X133766525Y-109053368D01*
X133650000Y-109227760D01*
X133533475Y-109053368D01*
X133326632Y-108846525D01*
X133083411Y-108684010D01*
X132813158Y-108572068D01*
X132526260Y-108515000D01*
X132233740Y-108515000D01*
X131946842Y-108572068D01*
X131676589Y-108684010D01*
X131433368Y-108846525D01*
X131226525Y-109053368D01*
X131110000Y-109227760D01*
X130993475Y-109053368D01*
X130786632Y-108846525D01*
X130543411Y-108684010D01*
X130273158Y-108572068D01*
X129986260Y-108515000D01*
X129693740Y-108515000D01*
X129406842Y-108572068D01*
X129136589Y-108684010D01*
X128893368Y-108846525D01*
X128686525Y-109053368D01*
X128570000Y-109227760D01*
X128453475Y-109053368D01*
X128246632Y-108846525D01*
X128003411Y-108684010D01*
X127733158Y-108572068D01*
X127446260Y-108515000D01*
X127153740Y-108515000D01*
X126866842Y-108572068D01*
X126596589Y-108684010D01*
X126353368Y-108846525D01*
X126146525Y-109053368D01*
X126030000Y-109227760D01*
X125913475Y-109053368D01*
X125706632Y-108846525D01*
X125463411Y-108684010D01*
X125193158Y-108572068D01*
X124906260Y-108515000D01*
X124613740Y-108515000D01*
X124326842Y-108572068D01*
X124056589Y-108684010D01*
X123813368Y-108846525D01*
X123606525Y-109053368D01*
X123490000Y-109227760D01*
X123373475Y-109053368D01*
X123166632Y-108846525D01*
X122923411Y-108684010D01*
X122653158Y-108572068D01*
X122366260Y-108515000D01*
X122073740Y-108515000D01*
X121786842Y-108572068D01*
X121516589Y-108684010D01*
X121273368Y-108846525D01*
X121066525Y-109053368D01*
X120950000Y-109227760D01*
X120833475Y-109053368D01*
X120626632Y-108846525D01*
X120383411Y-108684010D01*
X120113158Y-108572068D01*
X119826260Y-108515000D01*
X119533740Y-108515000D01*
X119246842Y-108572068D01*
X118976589Y-108684010D01*
X118733368Y-108846525D01*
X118526525Y-109053368D01*
X118410000Y-109227760D01*
X118293475Y-109053368D01*
X118086632Y-108846525D01*
X117843411Y-108684010D01*
X117573158Y-108572068D01*
X117286260Y-108515000D01*
X116993740Y-108515000D01*
X116706842Y-108572068D01*
X116436589Y-108684010D01*
X116193368Y-108846525D01*
X115986525Y-109053368D01*
X115870000Y-109227760D01*
X115753475Y-109053368D01*
X115546632Y-108846525D01*
X115303411Y-108684010D01*
X115033158Y-108572068D01*
X114746260Y-108515000D01*
X114453740Y-108515000D01*
X114166842Y-108572068D01*
X113896589Y-108684010D01*
X113653368Y-108846525D01*
X113446525Y-109053368D01*
X113324805Y-109235534D01*
X113255178Y-109118645D01*
X113060269Y-108902412D01*
X112826920Y-108728359D01*
X112564099Y-108603175D01*
X112416890Y-108558524D01*
X112187000Y-108679845D01*
X111933000Y-108679845D01*
X111703110Y-108558524D01*
X111555901Y-108603175D01*
X111293080Y-108728359D01*
X111059731Y-108902412D01*
X110864822Y-109118645D01*
X110715843Y-109368748D01*
X110618519Y-109643109D01*
X105661545Y-109643109D01*
X105590824Y-109472376D01*
X105525759Y-109375000D01*
X105590824Y-109277624D01*
X105676383Y-109071067D01*
X105720000Y-108851788D01*
X105720000Y-108628212D01*
X105676383Y-108408933D01*
X105590824Y-108202376D01*
X105466612Y-108016480D01*
X105308520Y-107858388D01*
X105122624Y-107734176D01*
X104916067Y-107648617D01*
X104696788Y-107605000D01*
X104473212Y-107605000D01*
X104253933Y-107648617D01*
X104142226Y-107694888D01*
X104059180Y-107650498D01*
X103939482Y-107614188D01*
X103815000Y-107601928D01*
X102815000Y-107601928D01*
X102690518Y-107614188D01*
X102570820Y-107650498D01*
X102460506Y-107709463D01*
X102363815Y-107788815D01*
X102284463Y-107885506D01*
X102225498Y-107995820D01*
X102189188Y-108115518D01*
X102176928Y-108240000D01*
X100660000Y-108240000D01*
X100660000Y-107307911D01*
X106045000Y-107307911D01*
X106045000Y-107492089D01*
X106080932Y-107672729D01*
X106151414Y-107842889D01*
X106253738Y-107996028D01*
X106383972Y-108126262D01*
X106537111Y-108228586D01*
X106707271Y-108299068D01*
X106887911Y-108335000D01*
X107072089Y-108335000D01*
X107252729Y-108299068D01*
X107283296Y-108286407D01*
X107436938Y-108350047D01*
X107617578Y-108385979D01*
X107801756Y-108385979D01*
X107982396Y-108350047D01*
X108152556Y-108279565D01*
X108305695Y-108177241D01*
X108435929Y-108047007D01*
X108538253Y-107893868D01*
X108608735Y-107723708D01*
X108644667Y-107543068D01*
X108644667Y-107358890D01*
X108608735Y-107178250D01*
X108538253Y-107008090D01*
X108435929Y-106854951D01*
X108305695Y-106724717D01*
X108152556Y-106622393D01*
X107982396Y-106551911D01*
X107801756Y-106515979D01*
X107617578Y-106515979D01*
X107436938Y-106551911D01*
X107406371Y-106564572D01*
X107252729Y-106500932D01*
X107072089Y-106465000D01*
X106887911Y-106465000D01*
X106707271Y-106500932D01*
X106537111Y-106571414D01*
X106383972Y-106673738D01*
X106253738Y-106803972D01*
X106151414Y-106957111D01*
X106080932Y-107127271D01*
X106045000Y-107307911D01*
X100660000Y-107307911D01*
X100660000Y-104947911D01*
X122545000Y-104947911D01*
X122545000Y-105132089D01*
X122580932Y-105312729D01*
X122651414Y-105482889D01*
X122753738Y-105636028D01*
X122883972Y-105766262D01*
X123037111Y-105868586D01*
X123207271Y-105939068D01*
X123387911Y-105975000D01*
X123572089Y-105975000D01*
X123752729Y-105939068D01*
X123922889Y-105868586D01*
X124076028Y-105766262D01*
X124206262Y-105636028D01*
X124308586Y-105482889D01*
X124379068Y-105312729D01*
X124415000Y-105132089D01*
X124415000Y-104947911D01*
X124379068Y-104767271D01*
X124308586Y-104597111D01*
X124206262Y-104443972D01*
X124076028Y-104313738D01*
X123922889Y-104211414D01*
X123752729Y-104140932D01*
X123572089Y-104105000D01*
X123387911Y-104105000D01*
X123207271Y-104140932D01*
X123037111Y-104211414D01*
X122883972Y-104313738D01*
X122753738Y-104443972D01*
X122651414Y-104597111D01*
X122580932Y-104767271D01*
X122545000Y-104947911D01*
X100660000Y-104947911D01*
X100660000Y-99820000D01*
X101669509Y-99820000D01*
X101691423Y-100042499D01*
X101756324Y-100256447D01*
X101861716Y-100453623D01*
X102003551Y-100626449D01*
X102176377Y-100768284D01*
X102373553Y-100873676D01*
X102587501Y-100938577D01*
X102754248Y-100955000D01*
X103465752Y-100955000D01*
X103632499Y-100938577D01*
X103846447Y-100873676D01*
X104043623Y-100768284D01*
X104216449Y-100626449D01*
X104358284Y-100453623D01*
X104463676Y-100256447D01*
X104528577Y-100042499D01*
X104550491Y-99820000D01*
X105599509Y-99820000D01*
X105621423Y-100042499D01*
X105686324Y-100256447D01*
X105791716Y-100453623D01*
X105933551Y-100626449D01*
X106106377Y-100768284D01*
X106303553Y-100873676D01*
X106517501Y-100938577D01*
X106684248Y-100955000D01*
X107895752Y-100955000D01*
X108062499Y-100938577D01*
X108170766Y-100905734D01*
X109362823Y-100905734D01*
X109362823Y-101089912D01*
X109398755Y-101270552D01*
X109469237Y-101440712D01*
X109571561Y-101593851D01*
X109701795Y-101724085D01*
X109854934Y-101826409D01*
X110025094Y-101896891D01*
X110205734Y-101932823D01*
X110389912Y-101932823D01*
X110570552Y-101896891D01*
X110740712Y-101826409D01*
X110893851Y-101724085D01*
X111024085Y-101593851D01*
X111126409Y-101440712D01*
X111196891Y-101270552D01*
X111232823Y-101089912D01*
X111232823Y-100905734D01*
X111196891Y-100725094D01*
X111146377Y-100603140D01*
X122263000Y-100603140D01*
X122263000Y-100787318D01*
X122298932Y-100967958D01*
X122369414Y-101138118D01*
X122471738Y-101291257D01*
X122601972Y-101421491D01*
X122755111Y-101523815D01*
X122792983Y-101539502D01*
X122798932Y-101569407D01*
X122869414Y-101739567D01*
X122971738Y-101892706D01*
X123101972Y-102022940D01*
X123255111Y-102125264D01*
X123283837Y-102137162D01*
X123298932Y-102213051D01*
X123369414Y-102383211D01*
X123471738Y-102536350D01*
X123601972Y-102666584D01*
X123755111Y-102768908D01*
X123778220Y-102778480D01*
X123798932Y-102882606D01*
X123869414Y-103052766D01*
X123971738Y-103205905D01*
X124101972Y-103336139D01*
X124255111Y-103438463D01*
X124286768Y-103451576D01*
X124298932Y-103512729D01*
X124369414Y-103682889D01*
X124471738Y-103836028D01*
X124601972Y-103966262D01*
X124755111Y-104068586D01*
X124925271Y-104139068D01*
X125105911Y-104175000D01*
X125290089Y-104175000D01*
X125470729Y-104139068D01*
X125640889Y-104068586D01*
X125794028Y-103966262D01*
X125924262Y-103836028D01*
X126026586Y-103682889D01*
X126097068Y-103512729D01*
X126133000Y-103332089D01*
X126133000Y-103147911D01*
X126097068Y-102967271D01*
X126026586Y-102797111D01*
X125924262Y-102643972D01*
X125794028Y-102513738D01*
X125640889Y-102411414D01*
X125609232Y-102398301D01*
X125597068Y-102337148D01*
X125526586Y-102166988D01*
X125424262Y-102013849D01*
X125294028Y-101883615D01*
X125140889Y-101781291D01*
X125117780Y-101771719D01*
X125097068Y-101667593D01*
X125026586Y-101497433D01*
X124924262Y-101344294D01*
X124794028Y-101214060D01*
X124640889Y-101111736D01*
X124612163Y-101099838D01*
X124597068Y-101023949D01*
X124526586Y-100853789D01*
X124515977Y-100837911D01*
X145375000Y-100837911D01*
X145375000Y-101022089D01*
X145410932Y-101202729D01*
X145481414Y-101372889D01*
X145583738Y-101526028D01*
X145713972Y-101656262D01*
X145867111Y-101758586D01*
X146037271Y-101829068D01*
X146217911Y-101865000D01*
X146402089Y-101865000D01*
X146582729Y-101829068D01*
X146752889Y-101758586D01*
X146906028Y-101656262D01*
X147036262Y-101526028D01*
X147138586Y-101372889D01*
X147209068Y-101202729D01*
X147245000Y-101022089D01*
X147245000Y-100837911D01*
X147209068Y-100657271D01*
X147138586Y-100487111D01*
X147036262Y-100333972D01*
X146906028Y-100203738D01*
X146752889Y-100101414D01*
X146582729Y-100030932D01*
X146402089Y-99995000D01*
X146217911Y-99995000D01*
X146037271Y-100030932D01*
X145867111Y-100101414D01*
X145713972Y-100203738D01*
X145583738Y-100333972D01*
X145481414Y-100487111D01*
X145410932Y-100657271D01*
X145375000Y-100837911D01*
X124515977Y-100837911D01*
X124424262Y-100700650D01*
X124294028Y-100570416D01*
X124140889Y-100468092D01*
X124103017Y-100452405D01*
X124097068Y-100422500D01*
X124026586Y-100252340D01*
X123924262Y-100099201D01*
X123794028Y-99968967D01*
X123640889Y-99866643D01*
X123470729Y-99796161D01*
X123290089Y-99760229D01*
X123105911Y-99760229D01*
X122925271Y-99796161D01*
X122755111Y-99866643D01*
X122601972Y-99968967D01*
X122471738Y-100099201D01*
X122369414Y-100252340D01*
X122298932Y-100422500D01*
X122263000Y-100603140D01*
X111146377Y-100603140D01*
X111126409Y-100554934D01*
X111024085Y-100401795D01*
X110893851Y-100271561D01*
X110740712Y-100169237D01*
X110570552Y-100098755D01*
X110389912Y-100062823D01*
X110205734Y-100062823D01*
X110025094Y-100098755D01*
X109854934Y-100169237D01*
X109701795Y-100271561D01*
X109571561Y-100401795D01*
X109469237Y-100554934D01*
X109398755Y-100725094D01*
X109362823Y-100905734D01*
X108170766Y-100905734D01*
X108276447Y-100873676D01*
X108473623Y-100768284D01*
X108646449Y-100626449D01*
X108788284Y-100453623D01*
X108893676Y-100256447D01*
X108958577Y-100042499D01*
X108980491Y-99820000D01*
X108958577Y-99597501D01*
X108893676Y-99383553D01*
X108788284Y-99186377D01*
X108646449Y-99013551D01*
X108473623Y-98871716D01*
X108276447Y-98766324D01*
X108062499Y-98701423D01*
X107895752Y-98685000D01*
X107676904Y-98685000D01*
X107683108Y-98670022D01*
X107720000Y-98484552D01*
X107720000Y-98295448D01*
X107683108Y-98109978D01*
X107610741Y-97935269D01*
X107505681Y-97778036D01*
X107371964Y-97644319D01*
X107214731Y-97539259D01*
X107040022Y-97466892D01*
X106854552Y-97430000D01*
X106665448Y-97430000D01*
X106479978Y-97466892D01*
X106305269Y-97539259D01*
X106148036Y-97644319D01*
X106014319Y-97778036D01*
X105909259Y-97935269D01*
X105836892Y-98109978D01*
X105800000Y-98295448D01*
X105800000Y-98484552D01*
X105836892Y-98670022D01*
X105909259Y-98844731D01*
X105990715Y-98966638D01*
X105933551Y-99013551D01*
X105791716Y-99186377D01*
X105686324Y-99383553D01*
X105621423Y-99597501D01*
X105599509Y-99820000D01*
X104550491Y-99820000D01*
X104528577Y-99597501D01*
X104463676Y-99383553D01*
X104358284Y-99186377D01*
X104216449Y-99013551D01*
X104043623Y-98871716D01*
X103846447Y-98766324D01*
X103632499Y-98701423D01*
X103465752Y-98685000D01*
X102754248Y-98685000D01*
X102587501Y-98701423D01*
X102373553Y-98766324D01*
X102176377Y-98871716D01*
X102003551Y-99013551D01*
X101861716Y-99186377D01*
X101756324Y-99383553D01*
X101691423Y-99597501D01*
X101669509Y-99820000D01*
X100660000Y-99820000D01*
X100660000Y-95907911D01*
X109765000Y-95907911D01*
X109765000Y-96092089D01*
X109800932Y-96272729D01*
X109871414Y-96442889D01*
X109973738Y-96596028D01*
X110103972Y-96726262D01*
X110257111Y-96828586D01*
X110427271Y-96899068D01*
X110607911Y-96935000D01*
X110792089Y-96935000D01*
X110972729Y-96899068D01*
X111142889Y-96828586D01*
X111172177Y-96809016D01*
X113492755Y-96809016D01*
X113492755Y-96993194D01*
X113528687Y-97173834D01*
X113599169Y-97343994D01*
X113701493Y-97497133D01*
X113831727Y-97627367D01*
X113984866Y-97729691D01*
X114155026Y-97800173D01*
X114335666Y-97836105D01*
X114519844Y-97836105D01*
X114700484Y-97800173D01*
X114870644Y-97729691D01*
X115023783Y-97627367D01*
X115136150Y-97515000D01*
X115172089Y-97515000D01*
X115352729Y-97479068D01*
X115522889Y-97408586D01*
X115676028Y-97306262D01*
X115806262Y-97176028D01*
X115908586Y-97022889D01*
X115979068Y-96852729D01*
X115980605Y-96845000D01*
X116102089Y-96845000D01*
X116282729Y-96809068D01*
X116452889Y-96738586D01*
X116606028Y-96636262D01*
X116736262Y-96506028D01*
X116838586Y-96352889D01*
X116909068Y-96182729D01*
X116945000Y-96002089D01*
X116945000Y-95817911D01*
X116909068Y-95637271D01*
X116838586Y-95467111D01*
X116736262Y-95313972D01*
X116606028Y-95183738D01*
X116452889Y-95081414D01*
X116282729Y-95010932D01*
X116102089Y-94975000D01*
X115917911Y-94975000D01*
X115737271Y-95010932D01*
X115567111Y-95081414D01*
X115413972Y-95183738D01*
X115283738Y-95313972D01*
X115181414Y-95467111D01*
X115110932Y-95637271D01*
X115109395Y-95645000D01*
X114987911Y-95645000D01*
X114807271Y-95680932D01*
X114637111Y-95751414D01*
X114483972Y-95853738D01*
X114371605Y-95966105D01*
X114335666Y-95966105D01*
X114155026Y-96002037D01*
X113984866Y-96072519D01*
X113831727Y-96174843D01*
X113701493Y-96305077D01*
X113599169Y-96458216D01*
X113528687Y-96628376D01*
X113492755Y-96809016D01*
X111172177Y-96809016D01*
X111296028Y-96726262D01*
X111426262Y-96596028D01*
X111528586Y-96442889D01*
X111599068Y-96272729D01*
X111635000Y-96092089D01*
X111635000Y-95907911D01*
X111599068Y-95727271D01*
X111528586Y-95557111D01*
X111426262Y-95403972D01*
X111296028Y-95273738D01*
X111142889Y-95171414D01*
X110972729Y-95100932D01*
X110792089Y-95065000D01*
X110607911Y-95065000D01*
X110427271Y-95100932D01*
X110257111Y-95171414D01*
X110103972Y-95273738D01*
X109973738Y-95403972D01*
X109871414Y-95557111D01*
X109800932Y-95727271D01*
X109765000Y-95907911D01*
X100660000Y-95907911D01*
X100660000Y-94105911D01*
X111025000Y-94105911D01*
X111025000Y-94290089D01*
X111060932Y-94470729D01*
X111131414Y-94640889D01*
X111233738Y-94794028D01*
X111363972Y-94924262D01*
X111517111Y-95026586D01*
X111687271Y-95097068D01*
X111867911Y-95133000D01*
X112052089Y-95133000D01*
X112232729Y-95097068D01*
X112402889Y-95026586D01*
X112556028Y-94924262D01*
X112686262Y-94794028D01*
X112788586Y-94640889D01*
X112859068Y-94470729D01*
X112895000Y-94290089D01*
X112895000Y-94105911D01*
X112859068Y-93925271D01*
X112788586Y-93755111D01*
X112686262Y-93601972D01*
X112556028Y-93471738D01*
X112402889Y-93369414D01*
X112232729Y-93298932D01*
X112052089Y-93263000D01*
X111867911Y-93263000D01*
X111687271Y-93298932D01*
X111517111Y-93369414D01*
X111363972Y-93471738D01*
X111233738Y-93601972D01*
X111131414Y-93755111D01*
X111060932Y-93925271D01*
X111025000Y-94105911D01*
X100660000Y-94105911D01*
X100660000Y-91180000D01*
X101669509Y-91180000D01*
X101691423Y-91402499D01*
X101756324Y-91616447D01*
X101861716Y-91813623D01*
X102003551Y-91986449D01*
X102176377Y-92128284D01*
X102373553Y-92233676D01*
X102587501Y-92298577D01*
X102754248Y-92315000D01*
X103465752Y-92315000D01*
X103632499Y-92298577D01*
X103846447Y-92233676D01*
X104043623Y-92128284D01*
X104216449Y-91986449D01*
X104358284Y-91813623D01*
X104463676Y-91616447D01*
X104528577Y-91402499D01*
X104550491Y-91180000D01*
X105599509Y-91180000D01*
X105621423Y-91402499D01*
X105686324Y-91616447D01*
X105791716Y-91813623D01*
X105933551Y-91986449D01*
X105990715Y-92033362D01*
X105909259Y-92155269D01*
X105836892Y-92329978D01*
X105800000Y-92515448D01*
X105800000Y-92704552D01*
X105836892Y-92890022D01*
X105909259Y-93064731D01*
X106014319Y-93221964D01*
X106148036Y-93355681D01*
X106305269Y-93460741D01*
X106479978Y-93533108D01*
X106665448Y-93570000D01*
X106854552Y-93570000D01*
X107040022Y-93533108D01*
X107214731Y-93460741D01*
X107371964Y-93355681D01*
X107505681Y-93221964D01*
X107610741Y-93064731D01*
X107683108Y-92890022D01*
X107720000Y-92704552D01*
X107720000Y-92515448D01*
X107683108Y-92329978D01*
X107676904Y-92315000D01*
X107895752Y-92315000D01*
X108062499Y-92298577D01*
X108276447Y-92233676D01*
X108473623Y-92128284D01*
X108646449Y-91986449D01*
X108788284Y-91813623D01*
X108893676Y-91616447D01*
X108958577Y-91402499D01*
X108972817Y-91257911D01*
X116015000Y-91257911D01*
X116015000Y-91442089D01*
X116050932Y-91622729D01*
X116121414Y-91792889D01*
X116223738Y-91946028D01*
X116353972Y-92076262D01*
X116507111Y-92178586D01*
X116677271Y-92249068D01*
X116857911Y-92285000D01*
X117042089Y-92285000D01*
X117222729Y-92249068D01*
X117274632Y-92227569D01*
X117333738Y-92316028D01*
X117463972Y-92446262D01*
X117617111Y-92548586D01*
X117787271Y-92619068D01*
X117967911Y-92655000D01*
X118152089Y-92655000D01*
X118332729Y-92619068D01*
X118502889Y-92548586D01*
X118656028Y-92446262D01*
X118694379Y-92407911D01*
X122565000Y-92407911D01*
X122565000Y-92592089D01*
X122600932Y-92772729D01*
X122671414Y-92942889D01*
X122773738Y-93096028D01*
X122903972Y-93226262D01*
X122939498Y-93250000D01*
X122903972Y-93273738D01*
X122773738Y-93403972D01*
X122671414Y-93557111D01*
X122600932Y-93727271D01*
X122565000Y-93907911D01*
X122565000Y-94092089D01*
X122600932Y-94272729D01*
X122671414Y-94442889D01*
X122773738Y-94596028D01*
X122903972Y-94726262D01*
X122939498Y-94750000D01*
X122903972Y-94773738D01*
X122773738Y-94903972D01*
X122671414Y-95057111D01*
X122600932Y-95227271D01*
X122565000Y-95407911D01*
X122565000Y-95592089D01*
X122600932Y-95772729D01*
X122671414Y-95942889D01*
X122773738Y-96096028D01*
X122903972Y-96226262D01*
X123057111Y-96328586D01*
X123227271Y-96399068D01*
X123407911Y-96435000D01*
X123592089Y-96435000D01*
X123772729Y-96399068D01*
X123942889Y-96328586D01*
X124096028Y-96226262D01*
X124226262Y-96096028D01*
X124250000Y-96060502D01*
X124273738Y-96096028D01*
X124403972Y-96226262D01*
X124557111Y-96328586D01*
X124727271Y-96399068D01*
X124907911Y-96435000D01*
X125092089Y-96435000D01*
X125272729Y-96399068D01*
X125442889Y-96328586D01*
X125596028Y-96226262D01*
X125726262Y-96096028D01*
X125750000Y-96060502D01*
X125773738Y-96096028D01*
X125903972Y-96226262D01*
X126057111Y-96328586D01*
X126227271Y-96399068D01*
X126407911Y-96435000D01*
X126592089Y-96435000D01*
X126772729Y-96399068D01*
X126942889Y-96328586D01*
X127096028Y-96226262D01*
X127226262Y-96096028D01*
X127328586Y-95942889D01*
X127399068Y-95772729D01*
X127435000Y-95592089D01*
X127435000Y-95407911D01*
X127399068Y-95227271D01*
X127328586Y-95057111D01*
X127226262Y-94903972D01*
X127096028Y-94773738D01*
X127060502Y-94750000D01*
X127096028Y-94726262D01*
X127226262Y-94596028D01*
X127328586Y-94442889D01*
X127399068Y-94272729D01*
X127435000Y-94092089D01*
X127435000Y-93907911D01*
X127399068Y-93727271D01*
X127328586Y-93557111D01*
X127226262Y-93403972D01*
X127096028Y-93273738D01*
X127060502Y-93250000D01*
X127096028Y-93226262D01*
X127226262Y-93096028D01*
X127328586Y-92942889D01*
X127399068Y-92772729D01*
X127435000Y-92592089D01*
X127435000Y-92407911D01*
X127399068Y-92227271D01*
X127328586Y-92057111D01*
X127226262Y-91903972D01*
X127150201Y-91827911D01*
X130805000Y-91827911D01*
X130805000Y-92012089D01*
X130840932Y-92192729D01*
X130911414Y-92362889D01*
X131013738Y-92516028D01*
X131143972Y-92646262D01*
X131297111Y-92748586D01*
X131467271Y-92819068D01*
X131647911Y-92855000D01*
X131832089Y-92855000D01*
X132012729Y-92819068D01*
X132182889Y-92748586D01*
X132336028Y-92646262D01*
X132466262Y-92516028D01*
X132568586Y-92362889D01*
X132639068Y-92192729D01*
X132644004Y-92167911D01*
X135245000Y-92167911D01*
X135245000Y-92352089D01*
X135280932Y-92532729D01*
X135351414Y-92702889D01*
X135453738Y-92856028D01*
X135583972Y-92986262D01*
X135737111Y-93088586D01*
X135907271Y-93159068D01*
X136087911Y-93195000D01*
X136272089Y-93195000D01*
X136452729Y-93159068D01*
X136622889Y-93088586D01*
X136776028Y-92986262D01*
X136906262Y-92856028D01*
X137008586Y-92702889D01*
X137079068Y-92532729D01*
X137115000Y-92352089D01*
X137115000Y-92167911D01*
X137079068Y-91987271D01*
X137008586Y-91817111D01*
X136906262Y-91663972D01*
X136776028Y-91533738D01*
X136622889Y-91431414D01*
X136452729Y-91360932D01*
X136272089Y-91325000D01*
X136087911Y-91325000D01*
X135907271Y-91360932D01*
X135737111Y-91431414D01*
X135583972Y-91533738D01*
X135453738Y-91663972D01*
X135351414Y-91817111D01*
X135280932Y-91987271D01*
X135245000Y-92167911D01*
X132644004Y-92167911D01*
X132675000Y-92012089D01*
X132675000Y-91827911D01*
X132639068Y-91647271D01*
X132568586Y-91477111D01*
X132466262Y-91323972D01*
X132336028Y-91193738D01*
X132182889Y-91091414D01*
X132012729Y-91020932D01*
X131832089Y-90985000D01*
X131647911Y-90985000D01*
X131467271Y-91020932D01*
X131297111Y-91091414D01*
X131143972Y-91193738D01*
X131013738Y-91323972D01*
X130911414Y-91477111D01*
X130840932Y-91647271D01*
X130805000Y-91827911D01*
X127150201Y-91827911D01*
X127096028Y-91773738D01*
X126942889Y-91671414D01*
X126772729Y-91600932D01*
X126592089Y-91565000D01*
X126407911Y-91565000D01*
X126227271Y-91600932D01*
X126057111Y-91671414D01*
X125903972Y-91773738D01*
X125773738Y-91903972D01*
X125750000Y-91939498D01*
X125726262Y-91903972D01*
X125596028Y-91773738D01*
X125442889Y-91671414D01*
X125272729Y-91600932D01*
X125092089Y-91565000D01*
X124907911Y-91565000D01*
X124727271Y-91600932D01*
X124557111Y-91671414D01*
X124403972Y-91773738D01*
X124273738Y-91903972D01*
X124250000Y-91939498D01*
X124226262Y-91903972D01*
X124096028Y-91773738D01*
X123942889Y-91671414D01*
X123772729Y-91600932D01*
X123592089Y-91565000D01*
X123407911Y-91565000D01*
X123227271Y-91600932D01*
X123057111Y-91671414D01*
X122903972Y-91773738D01*
X122773738Y-91903972D01*
X122671414Y-92057111D01*
X122600932Y-92227271D01*
X122565000Y-92407911D01*
X118694379Y-92407911D01*
X118786262Y-92316028D01*
X118883315Y-92170778D01*
X119042729Y-92139068D01*
X119212889Y-92068586D01*
X119366028Y-91966262D01*
X119367633Y-91964657D01*
X119500297Y-91991046D01*
X119684475Y-91991046D01*
X119865115Y-91955114D01*
X120035275Y-91884632D01*
X120188414Y-91782308D01*
X120215722Y-91755000D01*
X120372089Y-91755000D01*
X120552729Y-91719068D01*
X120722889Y-91648586D01*
X120876028Y-91546262D01*
X121006262Y-91416028D01*
X121108586Y-91262889D01*
X121179068Y-91092729D01*
X121215000Y-90912089D01*
X121215000Y-90727911D01*
X121179068Y-90547271D01*
X121108586Y-90377111D01*
X121006262Y-90223972D01*
X120876028Y-90093738D01*
X120722889Y-89991414D01*
X120552729Y-89920932D01*
X120372089Y-89885000D01*
X120187911Y-89885000D01*
X120007271Y-89920932D01*
X119837111Y-89991414D01*
X119683972Y-90093738D01*
X119656664Y-90121046D01*
X119500297Y-90121046D01*
X119319657Y-90156978D01*
X119149497Y-90227460D01*
X118996358Y-90329784D01*
X118994753Y-90331389D01*
X118862089Y-90305000D01*
X118677911Y-90305000D01*
X118497271Y-90340932D01*
X118327111Y-90411414D01*
X118173972Y-90513738D01*
X118043738Y-90643972D01*
X117946685Y-90789222D01*
X117787271Y-90820932D01*
X117735368Y-90842431D01*
X117676262Y-90753972D01*
X117546028Y-90623738D01*
X117392889Y-90521414D01*
X117222729Y-90450932D01*
X117042089Y-90415000D01*
X116857911Y-90415000D01*
X116677271Y-90450932D01*
X116507111Y-90521414D01*
X116353972Y-90623738D01*
X116223738Y-90753972D01*
X116121414Y-90907111D01*
X116050932Y-91077271D01*
X116015000Y-91257911D01*
X108972817Y-91257911D01*
X108980491Y-91180000D01*
X108958577Y-90957501D01*
X108893676Y-90743553D01*
X108788284Y-90546377D01*
X108646449Y-90373551D01*
X108473623Y-90231716D01*
X108276447Y-90126324D01*
X108062499Y-90061423D01*
X107895752Y-90045000D01*
X106684248Y-90045000D01*
X106517501Y-90061423D01*
X106303553Y-90126324D01*
X106106377Y-90231716D01*
X105933551Y-90373551D01*
X105791716Y-90546377D01*
X105686324Y-90743553D01*
X105621423Y-90957501D01*
X105599509Y-91180000D01*
X104550491Y-91180000D01*
X104528577Y-90957501D01*
X104463676Y-90743553D01*
X104358284Y-90546377D01*
X104216449Y-90373551D01*
X104043623Y-90231716D01*
X103846447Y-90126324D01*
X103632499Y-90061423D01*
X103465752Y-90045000D01*
X102754248Y-90045000D01*
X102587501Y-90061423D01*
X102373553Y-90126324D01*
X102176377Y-90231716D01*
X102003551Y-90373551D01*
X101861716Y-90546377D01*
X101756324Y-90743553D01*
X101691423Y-90957501D01*
X101669509Y-91180000D01*
X100660000Y-91180000D01*
X100660000Y-89597911D01*
X108505000Y-89597911D01*
X108505000Y-89782089D01*
X108540932Y-89962729D01*
X108611414Y-90132889D01*
X108713738Y-90286028D01*
X108843972Y-90416262D01*
X108997111Y-90518586D01*
X109167271Y-90589068D01*
X109347911Y-90625000D01*
X109532089Y-90625000D01*
X109712729Y-90589068D01*
X109882889Y-90518586D01*
X110036028Y-90416262D01*
X110166262Y-90286028D01*
X110268586Y-90132889D01*
X110339068Y-89962729D01*
X110375000Y-89782089D01*
X110375000Y-89597911D01*
X110339068Y-89417271D01*
X110268586Y-89247111D01*
X110166262Y-89093972D01*
X110036028Y-88963738D01*
X109882889Y-88861414D01*
X109712729Y-88790932D01*
X109532089Y-88755000D01*
X109347911Y-88755000D01*
X109167271Y-88790932D01*
X108997111Y-88861414D01*
X108843972Y-88963738D01*
X108713738Y-89093972D01*
X108611414Y-89247111D01*
X108540932Y-89417271D01*
X108505000Y-89597911D01*
X100660000Y-89597911D01*
X100660000Y-88103142D01*
X122763000Y-88103142D01*
X122763000Y-88287320D01*
X122798932Y-88467960D01*
X122869414Y-88638120D01*
X122971738Y-88791259D01*
X123101972Y-88921493D01*
X123255111Y-89023817D01*
X123425271Y-89094299D01*
X123605911Y-89130231D01*
X123790089Y-89130231D01*
X123970729Y-89094299D01*
X124140889Y-89023817D01*
X124239524Y-88957911D01*
X143165000Y-88957911D01*
X143165000Y-89142089D01*
X143200932Y-89322729D01*
X143271414Y-89492889D01*
X143373738Y-89646028D01*
X143503972Y-89776262D01*
X143657111Y-89878586D01*
X143827271Y-89949068D01*
X144007911Y-89985000D01*
X144192089Y-89985000D01*
X144372729Y-89949068D01*
X144542889Y-89878586D01*
X144696028Y-89776262D01*
X144826262Y-89646028D01*
X144928586Y-89492889D01*
X144999068Y-89322729D01*
X145035000Y-89142089D01*
X145035000Y-88957911D01*
X144999068Y-88777271D01*
X144928586Y-88607111D01*
X144826262Y-88453972D01*
X144696028Y-88323738D01*
X144542889Y-88221414D01*
X144372729Y-88150932D01*
X144192089Y-88115000D01*
X144007911Y-88115000D01*
X143827271Y-88150932D01*
X143657111Y-88221414D01*
X143503972Y-88323738D01*
X143373738Y-88453972D01*
X143271414Y-88607111D01*
X143200932Y-88777271D01*
X143165000Y-88957911D01*
X124239524Y-88957911D01*
X124294028Y-88921493D01*
X124424262Y-88791259D01*
X124526586Y-88638120D01*
X124597068Y-88467960D01*
X124598298Y-88461774D01*
X124640889Y-88444133D01*
X124794028Y-88341809D01*
X124924262Y-88211575D01*
X125026586Y-88058436D01*
X125097068Y-87888276D01*
X125109629Y-87825130D01*
X125140889Y-87812182D01*
X125294028Y-87709858D01*
X125424262Y-87579624D01*
X125526586Y-87426485D01*
X125597068Y-87256325D01*
X125599146Y-87245876D01*
X125640889Y-87228586D01*
X125794028Y-87126262D01*
X125924262Y-86996028D01*
X126026586Y-86842889D01*
X126097068Y-86672729D01*
X126133000Y-86492089D01*
X126133000Y-86307911D01*
X126097068Y-86127271D01*
X126026586Y-85957111D01*
X125924262Y-85803972D01*
X125794028Y-85673738D01*
X125640889Y-85571414D01*
X125470729Y-85500932D01*
X125290089Y-85465000D01*
X125105911Y-85465000D01*
X124925271Y-85500932D01*
X124755111Y-85571414D01*
X124601972Y-85673738D01*
X124471738Y-85803972D01*
X124369414Y-85957111D01*
X124298932Y-86127271D01*
X124296854Y-86137720D01*
X124255111Y-86155010D01*
X124101972Y-86257334D01*
X123971738Y-86387568D01*
X123869414Y-86540707D01*
X123798932Y-86710867D01*
X123786371Y-86774013D01*
X123755111Y-86786961D01*
X123601972Y-86889285D01*
X123471738Y-87019519D01*
X123369414Y-87172658D01*
X123298932Y-87342818D01*
X123297702Y-87349004D01*
X123255111Y-87366645D01*
X123101972Y-87468969D01*
X122971738Y-87599203D01*
X122869414Y-87752342D01*
X122798932Y-87922502D01*
X122763000Y-88103142D01*
X100660000Y-88103142D01*
X100660000Y-80356891D01*
X110618519Y-80356891D01*
X110715843Y-80631252D01*
X110864822Y-80881355D01*
X111059731Y-81097588D01*
X111293080Y-81271641D01*
X111555901Y-81396825D01*
X111703110Y-81441476D01*
X111933000Y-81320155D01*
X111933000Y-80127000D01*
X110739186Y-80127000D01*
X110618519Y-80356891D01*
X100660000Y-80356891D01*
X100660000Y-77816891D01*
X110618519Y-77816891D01*
X110715843Y-78091252D01*
X110864822Y-78341355D01*
X111059731Y-78557588D01*
X111290880Y-78730000D01*
X111059731Y-78902412D01*
X110864822Y-79118645D01*
X110715843Y-79368748D01*
X110618519Y-79643109D01*
X110739186Y-79873000D01*
X111933000Y-79873000D01*
X111933000Y-77587000D01*
X110739186Y-77587000D01*
X110618519Y-77816891D01*
X100660000Y-77816891D01*
X100660000Y-77103109D01*
X110618519Y-77103109D01*
X110739186Y-77333000D01*
X111933000Y-77333000D01*
X111933000Y-76139845D01*
X112187000Y-76139845D01*
X112187000Y-77333000D01*
X112207000Y-77333000D01*
X112207000Y-77587000D01*
X112187000Y-77587000D01*
X112187000Y-79873000D01*
X112207000Y-79873000D01*
X112207000Y-80127000D01*
X112187000Y-80127000D01*
X112187000Y-81320155D01*
X112416890Y-81441476D01*
X112564099Y-81396825D01*
X112826920Y-81271641D01*
X113060269Y-81097588D01*
X113255178Y-80881355D01*
X113324805Y-80764466D01*
X113446525Y-80946632D01*
X113653368Y-81153475D01*
X113896589Y-81315990D01*
X114166842Y-81427932D01*
X114453740Y-81485000D01*
X114746260Y-81485000D01*
X115033158Y-81427932D01*
X115303411Y-81315990D01*
X115546632Y-81153475D01*
X115753475Y-80946632D01*
X115870000Y-80772240D01*
X115986525Y-80946632D01*
X116193368Y-81153475D01*
X116436589Y-81315990D01*
X116706842Y-81427932D01*
X116993740Y-81485000D01*
X117286260Y-81485000D01*
X117573158Y-81427932D01*
X117843411Y-81315990D01*
X118086632Y-81153475D01*
X118293475Y-80946632D01*
X118410000Y-80772240D01*
X118526525Y-80946632D01*
X118733368Y-81153475D01*
X118976589Y-81315990D01*
X119246842Y-81427932D01*
X119533740Y-81485000D01*
X119826260Y-81485000D01*
X120113158Y-81427932D01*
X120383411Y-81315990D01*
X120626632Y-81153475D01*
X120833475Y-80946632D01*
X120950000Y-80772240D01*
X121066525Y-80946632D01*
X121273368Y-81153475D01*
X121516589Y-81315990D01*
X121786842Y-81427932D01*
X122073740Y-81485000D01*
X122366260Y-81485000D01*
X122653158Y-81427932D01*
X122923411Y-81315990D01*
X123166632Y-81153475D01*
X123373475Y-80946632D01*
X123490000Y-80772240D01*
X123606525Y-80946632D01*
X123813368Y-81153475D01*
X124056589Y-81315990D01*
X124326842Y-81427932D01*
X124613740Y-81485000D01*
X124906260Y-81485000D01*
X125193158Y-81427932D01*
X125463411Y-81315990D01*
X125706632Y-81153475D01*
X125913475Y-80946632D01*
X126030000Y-80772240D01*
X126146525Y-80946632D01*
X126353368Y-81153475D01*
X126596589Y-81315990D01*
X126866842Y-81427932D01*
X127153740Y-81485000D01*
X127446260Y-81485000D01*
X127733158Y-81427932D01*
X128003411Y-81315990D01*
X128246632Y-81153475D01*
X128453475Y-80946632D01*
X128570000Y-80772240D01*
X128686525Y-80946632D01*
X128893368Y-81153475D01*
X129136589Y-81315990D01*
X129406842Y-81427932D01*
X129693740Y-81485000D01*
X129986260Y-81485000D01*
X130273158Y-81427932D01*
X130543411Y-81315990D01*
X130786632Y-81153475D01*
X130993475Y-80946632D01*
X131110000Y-80772240D01*
X131226525Y-80946632D01*
X131433368Y-81153475D01*
X131676589Y-81315990D01*
X131946842Y-81427932D01*
X132233740Y-81485000D01*
X132526260Y-81485000D01*
X132813158Y-81427932D01*
X133083411Y-81315990D01*
X133326632Y-81153475D01*
X133533475Y-80946632D01*
X133650000Y-80772240D01*
X133766525Y-80946632D01*
X133973368Y-81153475D01*
X134216589Y-81315990D01*
X134486842Y-81427932D01*
X134773740Y-81485000D01*
X135066260Y-81485000D01*
X135353158Y-81427932D01*
X135623411Y-81315990D01*
X135866632Y-81153475D01*
X136073475Y-80946632D01*
X136190000Y-80772240D01*
X136306525Y-80946632D01*
X136513368Y-81153475D01*
X136756589Y-81315990D01*
X137026842Y-81427932D01*
X137313740Y-81485000D01*
X137606260Y-81485000D01*
X137893158Y-81427932D01*
X138163411Y-81315990D01*
X138406632Y-81153475D01*
X138613475Y-80946632D01*
X138735195Y-80764466D01*
X138804822Y-80881355D01*
X138999731Y-81097588D01*
X139233080Y-81271641D01*
X139495901Y-81396825D01*
X139643110Y-81441476D01*
X139873000Y-81320155D01*
X139873000Y-80127000D01*
X140127000Y-80127000D01*
X140127000Y-81320155D01*
X140356890Y-81441476D01*
X140504099Y-81396825D01*
X140766920Y-81271641D01*
X141000269Y-81097588D01*
X141195178Y-80881355D01*
X141344157Y-80631252D01*
X141441481Y-80356891D01*
X141320814Y-80127000D01*
X140127000Y-80127000D01*
X139873000Y-80127000D01*
X139853000Y-80127000D01*
X139853000Y-79873000D01*
X139873000Y-79873000D01*
X139873000Y-77587000D01*
X140127000Y-77587000D01*
X140127000Y-79873000D01*
X141320814Y-79873000D01*
X141441481Y-79643109D01*
X141344157Y-79368748D01*
X141195178Y-79118645D01*
X141018374Y-78922498D01*
X141094180Y-78899502D01*
X141204494Y-78840537D01*
X141301185Y-78761185D01*
X141380537Y-78664494D01*
X141439502Y-78554180D01*
X141475812Y-78434482D01*
X141488072Y-78310000D01*
X141485000Y-77745750D01*
X141326250Y-77587000D01*
X140127000Y-77587000D01*
X139873000Y-77587000D01*
X139853000Y-77587000D01*
X139853000Y-77333000D01*
X139873000Y-77333000D01*
X139873000Y-76133750D01*
X140127000Y-76133750D01*
X140127000Y-77333000D01*
X141326250Y-77333000D01*
X141485000Y-77174250D01*
X141488072Y-76610000D01*
X141475812Y-76485518D01*
X141439502Y-76365820D01*
X141380537Y-76255506D01*
X141301185Y-76158815D01*
X141204494Y-76079463D01*
X141094180Y-76020498D01*
X140974482Y-75984188D01*
X140850000Y-75971928D01*
X140285750Y-75975000D01*
X140127000Y-76133750D01*
X139873000Y-76133750D01*
X139714250Y-75975000D01*
X139150000Y-75971928D01*
X139025518Y-75984188D01*
X138905820Y-76020498D01*
X138795506Y-76079463D01*
X138698815Y-76158815D01*
X138619463Y-76255506D01*
X138560498Y-76365820D01*
X138538487Y-76438380D01*
X138406632Y-76306525D01*
X138163411Y-76144010D01*
X137893158Y-76032068D01*
X137606260Y-75975000D01*
X137313740Y-75975000D01*
X137026842Y-76032068D01*
X136756589Y-76144010D01*
X136513368Y-76306525D01*
X136306525Y-76513368D01*
X136190000Y-76687760D01*
X136073475Y-76513368D01*
X135866632Y-76306525D01*
X135623411Y-76144010D01*
X135353158Y-76032068D01*
X135066260Y-75975000D01*
X134773740Y-75975000D01*
X134486842Y-76032068D01*
X134216589Y-76144010D01*
X133973368Y-76306525D01*
X133766525Y-76513368D01*
X133650000Y-76687760D01*
X133533475Y-76513368D01*
X133326632Y-76306525D01*
X133083411Y-76144010D01*
X132813158Y-76032068D01*
X132526260Y-75975000D01*
X132233740Y-75975000D01*
X131946842Y-76032068D01*
X131676589Y-76144010D01*
X131433368Y-76306525D01*
X131226525Y-76513368D01*
X131110000Y-76687760D01*
X130993475Y-76513368D01*
X130786632Y-76306525D01*
X130543411Y-76144010D01*
X130273158Y-76032068D01*
X129986260Y-75975000D01*
X129693740Y-75975000D01*
X129406842Y-76032068D01*
X129136589Y-76144010D01*
X128893368Y-76306525D01*
X128686525Y-76513368D01*
X128570000Y-76687760D01*
X128453475Y-76513368D01*
X128246632Y-76306525D01*
X128003411Y-76144010D01*
X127733158Y-76032068D01*
X127446260Y-75975000D01*
X127153740Y-75975000D01*
X126866842Y-76032068D01*
X126596589Y-76144010D01*
X126353368Y-76306525D01*
X126146525Y-76513368D01*
X126030000Y-76687760D01*
X125913475Y-76513368D01*
X125706632Y-76306525D01*
X125463411Y-76144010D01*
X125193158Y-76032068D01*
X124906260Y-75975000D01*
X124613740Y-75975000D01*
X124326842Y-76032068D01*
X124056589Y-76144010D01*
X123813368Y-76306525D01*
X123606525Y-76513368D01*
X123490000Y-76687760D01*
X123373475Y-76513368D01*
X123166632Y-76306525D01*
X122923411Y-76144010D01*
X122653158Y-76032068D01*
X122366260Y-75975000D01*
X122073740Y-75975000D01*
X121786842Y-76032068D01*
X121516589Y-76144010D01*
X121273368Y-76306525D01*
X121066525Y-76513368D01*
X120950000Y-76687760D01*
X120833475Y-76513368D01*
X120626632Y-76306525D01*
X120383411Y-76144010D01*
X120113158Y-76032068D01*
X119826260Y-75975000D01*
X119533740Y-75975000D01*
X119246842Y-76032068D01*
X118976589Y-76144010D01*
X118733368Y-76306525D01*
X118526525Y-76513368D01*
X118410000Y-76687760D01*
X118293475Y-76513368D01*
X118086632Y-76306525D01*
X117843411Y-76144010D01*
X117573158Y-76032068D01*
X117286260Y-75975000D01*
X116993740Y-75975000D01*
X116706842Y-76032068D01*
X116436589Y-76144010D01*
X116193368Y-76306525D01*
X115986525Y-76513368D01*
X115870000Y-76687760D01*
X115753475Y-76513368D01*
X115546632Y-76306525D01*
X115303411Y-76144010D01*
X115033158Y-76032068D01*
X114746260Y-75975000D01*
X114453740Y-75975000D01*
X114166842Y-76032068D01*
X113896589Y-76144010D01*
X113653368Y-76306525D01*
X113446525Y-76513368D01*
X113324805Y-76695534D01*
X113255178Y-76578645D01*
X113060269Y-76362412D01*
X112826920Y-76188359D01*
X112564099Y-76063175D01*
X112416890Y-76018524D01*
X112187000Y-76139845D01*
X111933000Y-76139845D01*
X111703110Y-76018524D01*
X111555901Y-76063175D01*
X111293080Y-76188359D01*
X111059731Y-76362412D01*
X110864822Y-76578645D01*
X110715843Y-76828748D01*
X110618519Y-77103109D01*
X100660000Y-77103109D01*
X100660000Y-75900715D01*
X144970000Y-75900715D01*
X144970000Y-78899286D01*
X148790000Y-78899286D01*
X148790000Y-75900715D01*
X144970000Y-75900715D01*
X100660000Y-75900715D01*
X100660000Y-73032279D01*
X100707670Y-72546107D01*
X100839489Y-72109502D01*
X101053600Y-71706815D01*
X101341848Y-71353388D01*
X101693261Y-71062673D01*
X102094439Y-70845758D01*
X102530113Y-70710894D01*
X103014344Y-70660000D01*
X146967721Y-70660000D01*
X147453893Y-70707670D01*
G04 #@! TA.AperFunction,Conductor*
D21*
G36*
X147453893Y-70707670D02*
G01*
X147890498Y-70839489D01*
X148293185Y-71053600D01*
X148646612Y-71341848D01*
X148937327Y-71693261D01*
X149154242Y-72094439D01*
X149289106Y-72530113D01*
X149340000Y-73014344D01*
X149340001Y-116967711D01*
X149292330Y-117453894D01*
X149160512Y-117890497D01*
X148946399Y-118293186D01*
X148658150Y-118646613D01*
X148306739Y-118937327D01*
X147905564Y-119154240D01*
X147469886Y-119289106D01*
X146985664Y-119340000D01*
X103032279Y-119340000D01*
X102546106Y-119292330D01*
X102109503Y-119160512D01*
X101706814Y-118946399D01*
X101353387Y-118658150D01*
X101062673Y-118306739D01*
X100845760Y-117905564D01*
X100710894Y-117469886D01*
X100660000Y-116985664D01*
X100660000Y-108240000D01*
X102176928Y-108240000D01*
X102176928Y-109240000D01*
X102189188Y-109364482D01*
X102225498Y-109484180D01*
X102273070Y-109573180D01*
X102237554Y-109653136D01*
X102220881Y-109708126D01*
X102347046Y-109883000D01*
X103188000Y-109883000D01*
X103188000Y-109878072D01*
X103442000Y-109878072D01*
X103442000Y-109883000D01*
X103453026Y-109883000D01*
X103450000Y-109898212D01*
X103450000Y-110121788D01*
X103453026Y-110137000D01*
X103442000Y-110137000D01*
X103442000Y-110148026D01*
X103426788Y-110145000D01*
X103203212Y-110145000D01*
X103188000Y-110148026D01*
X103188000Y-110137000D01*
X102347046Y-110137000D01*
X102220881Y-110311874D01*
X102237554Y-110366864D01*
X102327877Y-110570206D01*
X102377353Y-110640342D01*
X102309176Y-110742376D01*
X102223617Y-110948933D01*
X102180000Y-111168212D01*
X102180000Y-111391788D01*
X102223617Y-111611067D01*
X102309176Y-111817624D01*
X102374241Y-111915000D01*
X102309176Y-112012376D01*
X102223617Y-112218933D01*
X102180000Y-112438212D01*
X102180000Y-112661788D01*
X102223617Y-112881067D01*
X102309176Y-113087624D01*
X102374241Y-113185000D01*
X102309176Y-113282376D01*
X102223617Y-113488933D01*
X102180000Y-113708212D01*
X102180000Y-113931788D01*
X102223617Y-114151067D01*
X102309176Y-114357624D01*
X102433388Y-114543520D01*
X102591480Y-114701612D01*
X102777376Y-114825824D01*
X102983933Y-114911383D01*
X103203212Y-114955000D01*
X103426788Y-114955000D01*
X103646067Y-114911383D01*
X103852624Y-114825824D01*
X103950000Y-114760759D01*
X104047376Y-114825824D01*
X104253933Y-114911383D01*
X104473212Y-114955000D01*
X104696788Y-114955000D01*
X104916067Y-114911383D01*
X105122624Y-114825824D01*
X105308520Y-114701612D01*
X105466612Y-114543520D01*
X105590824Y-114357624D01*
X105676383Y-114151067D01*
X105720000Y-113931788D01*
X105720000Y-113708212D01*
X105676383Y-113488933D01*
X105590824Y-113282376D01*
X105525759Y-113185000D01*
X105590824Y-113087624D01*
X105669828Y-112896891D01*
X110618519Y-112896891D01*
X110715843Y-113171252D01*
X110864822Y-113421355D01*
X111059731Y-113637588D01*
X111293080Y-113811641D01*
X111555901Y-113936825D01*
X111703110Y-113981476D01*
X111933000Y-113860155D01*
X111933000Y-112667000D01*
X110739186Y-112667000D01*
X110618519Y-112896891D01*
X105669828Y-112896891D01*
X105676383Y-112881067D01*
X105720000Y-112661788D01*
X105720000Y-112438212D01*
X105676383Y-112218933D01*
X105590824Y-112012376D01*
X105525759Y-111915000D01*
X105590824Y-111817624D01*
X105676383Y-111611067D01*
X105720000Y-111391788D01*
X105720000Y-111168212D01*
X105692093Y-111027911D01*
X107515000Y-111027911D01*
X107515000Y-111212089D01*
X107550932Y-111392729D01*
X107621414Y-111562889D01*
X107723738Y-111716028D01*
X107853972Y-111846262D01*
X108007111Y-111948586D01*
X108177271Y-112019068D01*
X108357911Y-112055000D01*
X108542089Y-112055000D01*
X108722729Y-112019068D01*
X108892889Y-111948586D01*
X109046028Y-111846262D01*
X109176262Y-111716028D01*
X109278586Y-111562889D01*
X109349068Y-111392729D01*
X109385000Y-111212089D01*
X109385000Y-111027911D01*
X109349068Y-110847271D01*
X109278586Y-110677111D01*
X109176262Y-110523972D01*
X109046028Y-110393738D01*
X108990883Y-110356891D01*
X110618519Y-110356891D01*
X110715843Y-110631252D01*
X110864822Y-110881355D01*
X111059731Y-111097588D01*
X111290880Y-111270000D01*
X111059731Y-111442412D01*
X110864822Y-111658645D01*
X110715843Y-111908748D01*
X110618519Y-112183109D01*
X110739186Y-112413000D01*
X111933000Y-112413000D01*
X111933000Y-110127000D01*
X110739186Y-110127000D01*
X110618519Y-110356891D01*
X108990883Y-110356891D01*
X108892889Y-110291414D01*
X108722729Y-110220932D01*
X108542089Y-110185000D01*
X108357911Y-110185000D01*
X108177271Y-110220932D01*
X108007111Y-110291414D01*
X107853972Y-110393738D01*
X107723738Y-110523972D01*
X107621414Y-110677111D01*
X107550932Y-110847271D01*
X107515000Y-111027911D01*
X105692093Y-111027911D01*
X105676383Y-110948933D01*
X105590824Y-110742376D01*
X105525759Y-110645000D01*
X105590824Y-110547624D01*
X105676383Y-110341067D01*
X105720000Y-110121788D01*
X105720000Y-109898212D01*
X105676383Y-109678933D01*
X105661545Y-109643109D01*
X110618519Y-109643109D01*
X110739186Y-109873000D01*
X111933000Y-109873000D01*
X111933000Y-108679845D01*
X112187000Y-108679845D01*
X112187000Y-109873000D01*
X112207000Y-109873000D01*
X112207000Y-110127000D01*
X112187000Y-110127000D01*
X112187000Y-112413000D01*
X112207000Y-112413000D01*
X112207000Y-112667000D01*
X112187000Y-112667000D01*
X112187000Y-113860155D01*
X112416890Y-113981476D01*
X112564099Y-113936825D01*
X112826920Y-113811641D01*
X113060269Y-113637588D01*
X113255178Y-113421355D01*
X113324805Y-113304466D01*
X113446525Y-113486632D01*
X113653368Y-113693475D01*
X113896589Y-113855990D01*
X114166842Y-113967932D01*
X114453740Y-114025000D01*
X114746260Y-114025000D01*
X115033158Y-113967932D01*
X115303411Y-113855990D01*
X115546632Y-113693475D01*
X115753475Y-113486632D01*
X115870000Y-113312240D01*
X115986525Y-113486632D01*
X116193368Y-113693475D01*
X116436589Y-113855990D01*
X116706842Y-113967932D01*
X116993740Y-114025000D01*
X117286260Y-114025000D01*
X117573158Y-113967932D01*
X117843411Y-113855990D01*
X118086632Y-113693475D01*
X118293475Y-113486632D01*
X118410000Y-113312240D01*
X118526525Y-113486632D01*
X118733368Y-113693475D01*
X118976589Y-113855990D01*
X119246842Y-113967932D01*
X119533740Y-114025000D01*
X119826260Y-114025000D01*
X120113158Y-113967932D01*
X120383411Y-113855990D01*
X120626632Y-113693475D01*
X120833475Y-113486632D01*
X120950000Y-113312240D01*
X121066525Y-113486632D01*
X121273368Y-113693475D01*
X121516589Y-113855990D01*
X121786842Y-113967932D01*
X122073740Y-114025000D01*
X122366260Y-114025000D01*
X122653158Y-113967932D01*
X122923411Y-113855990D01*
X123166632Y-113693475D01*
X123373475Y-113486632D01*
X123490000Y-113312240D01*
X123606525Y-113486632D01*
X123813368Y-113693475D01*
X124056589Y-113855990D01*
X124326842Y-113967932D01*
X124613740Y-114025000D01*
X124906260Y-114025000D01*
X125193158Y-113967932D01*
X125463411Y-113855990D01*
X125706632Y-113693475D01*
X125913475Y-113486632D01*
X126030000Y-113312240D01*
X126146525Y-113486632D01*
X126353368Y-113693475D01*
X126596589Y-113855990D01*
X126866842Y-113967932D01*
X127153740Y-114025000D01*
X127446260Y-114025000D01*
X127733158Y-113967932D01*
X128003411Y-113855990D01*
X128246632Y-113693475D01*
X128453475Y-113486632D01*
X128570000Y-113312240D01*
X128686525Y-113486632D01*
X128893368Y-113693475D01*
X129136589Y-113855990D01*
X129406842Y-113967932D01*
X129693740Y-114025000D01*
X129986260Y-114025000D01*
X130273158Y-113967932D01*
X130543411Y-113855990D01*
X130786632Y-113693475D01*
X130993475Y-113486632D01*
X131110000Y-113312240D01*
X131226525Y-113486632D01*
X131433368Y-113693475D01*
X131676589Y-113855990D01*
X131946842Y-113967932D01*
X132233740Y-114025000D01*
X132526260Y-114025000D01*
X132813158Y-113967932D01*
X133083411Y-113855990D01*
X133326632Y-113693475D01*
X133533475Y-113486632D01*
X133650000Y-113312240D01*
X133766525Y-113486632D01*
X133973368Y-113693475D01*
X134216589Y-113855990D01*
X134486842Y-113967932D01*
X134773740Y-114025000D01*
X135066260Y-114025000D01*
X135353158Y-113967932D01*
X135623411Y-113855990D01*
X135866632Y-113693475D01*
X136073475Y-113486632D01*
X136190000Y-113312240D01*
X136306525Y-113486632D01*
X136513368Y-113693475D01*
X136756589Y-113855990D01*
X137026842Y-113967932D01*
X137313740Y-114025000D01*
X137606260Y-114025000D01*
X137893158Y-113967932D01*
X138163411Y-113855990D01*
X138406632Y-113693475D01*
X138613475Y-113486632D01*
X138735195Y-113304466D01*
X138804822Y-113421355D01*
X138999731Y-113637588D01*
X139233080Y-113811641D01*
X139495901Y-113936825D01*
X139643110Y-113981476D01*
X139873000Y-113860155D01*
X139873000Y-112667000D01*
X140127000Y-112667000D01*
X140127000Y-113860155D01*
X140356890Y-113981476D01*
X140504099Y-113936825D01*
X140766920Y-113811641D01*
X141000269Y-113637588D01*
X141195178Y-113421355D01*
X141344157Y-113171252D01*
X141441481Y-112896891D01*
X141320814Y-112667000D01*
X140127000Y-112667000D01*
X139873000Y-112667000D01*
X139853000Y-112667000D01*
X139853000Y-112413000D01*
X139873000Y-112413000D01*
X139873000Y-110127000D01*
X140127000Y-110127000D01*
X140127000Y-112413000D01*
X141320814Y-112413000D01*
X141441481Y-112183109D01*
X141344157Y-111908748D01*
X141195178Y-111658645D01*
X141018374Y-111462498D01*
X141094180Y-111439502D01*
X141204494Y-111380537D01*
X141301185Y-111301185D01*
X141380537Y-111204494D01*
X141439502Y-111094180D01*
X141475812Y-110974482D01*
X141488072Y-110850000D01*
X141485000Y-110285750D01*
X141326250Y-110127000D01*
X140127000Y-110127000D01*
X139873000Y-110127000D01*
X139853000Y-110127000D01*
X139853000Y-109873000D01*
X139873000Y-109873000D01*
X139873000Y-108673750D01*
X140127000Y-108673750D01*
X140127000Y-109873000D01*
X141326250Y-109873000D01*
X141485000Y-109714250D01*
X141488072Y-109150000D01*
X141475812Y-109025518D01*
X141439502Y-108905820D01*
X141380537Y-108795506D01*
X141301185Y-108698815D01*
X141204494Y-108619463D01*
X141094180Y-108560498D01*
X140974482Y-108524188D01*
X140850000Y-108511928D01*
X140285750Y-108515000D01*
X140127000Y-108673750D01*
X139873000Y-108673750D01*
X139714250Y-108515000D01*
X139150000Y-108511928D01*
X139025518Y-108524188D01*
X138905820Y-108560498D01*
X138795506Y-108619463D01*
X138698815Y-108698815D01*
X138619463Y-108795506D01*
X138560498Y-108905820D01*
X138538487Y-108978380D01*
X138406632Y-108846525D01*
X138163411Y-108684010D01*
X137893158Y-108572068D01*
X137606260Y-108515000D01*
X137313740Y-108515000D01*
X137026842Y-108572068D01*
X136756589Y-108684010D01*
X136513368Y-108846525D01*
X136306525Y-109053368D01*
X136190000Y-109227760D01*
X136073475Y-109053368D01*
X135866632Y-108846525D01*
X135623411Y-108684010D01*
X135353158Y-108572068D01*
X135066260Y-108515000D01*
X134773740Y-108515000D01*
X134486842Y-108572068D01*
X134216589Y-108684010D01*
X133973368Y-108846525D01*
X133766525Y-109053368D01*
X133650000Y-109227760D01*
X133533475Y-109053368D01*
X133326632Y-108846525D01*
X133083411Y-108684010D01*
X132813158Y-108572068D01*
X132526260Y-108515000D01*
X132233740Y-108515000D01*
X131946842Y-108572068D01*
X131676589Y-108684010D01*
X131433368Y-108846525D01*
X131226525Y-109053368D01*
X131110000Y-109227760D01*
X130993475Y-109053368D01*
X130786632Y-108846525D01*
X130543411Y-108684010D01*
X130273158Y-108572068D01*
X129986260Y-108515000D01*
X129693740Y-108515000D01*
X129406842Y-108572068D01*
X129136589Y-108684010D01*
X128893368Y-108846525D01*
X128686525Y-109053368D01*
X128570000Y-109227760D01*
X128453475Y-109053368D01*
X128246632Y-108846525D01*
X128003411Y-108684010D01*
X127733158Y-108572068D01*
X127446260Y-108515000D01*
X127153740Y-108515000D01*
X126866842Y-108572068D01*
X126596589Y-108684010D01*
X126353368Y-108846525D01*
X126146525Y-109053368D01*
X126030000Y-109227760D01*
X125913475Y-109053368D01*
X125706632Y-108846525D01*
X125463411Y-108684010D01*
X125193158Y-108572068D01*
X124906260Y-108515000D01*
X124613740Y-108515000D01*
X124326842Y-108572068D01*
X124056589Y-108684010D01*
X123813368Y-108846525D01*
X123606525Y-109053368D01*
X123490000Y-109227760D01*
X123373475Y-109053368D01*
X123166632Y-108846525D01*
X122923411Y-108684010D01*
X122653158Y-108572068D01*
X122366260Y-108515000D01*
X122073740Y-108515000D01*
X121786842Y-108572068D01*
X121516589Y-108684010D01*
X121273368Y-108846525D01*
X121066525Y-109053368D01*
X120950000Y-109227760D01*
X120833475Y-109053368D01*
X120626632Y-108846525D01*
X120383411Y-108684010D01*
X120113158Y-108572068D01*
X119826260Y-108515000D01*
X119533740Y-108515000D01*
X119246842Y-108572068D01*
X118976589Y-108684010D01*
X118733368Y-108846525D01*
X118526525Y-109053368D01*
X118410000Y-109227760D01*
X118293475Y-109053368D01*
X118086632Y-108846525D01*
X117843411Y-108684010D01*
X117573158Y-108572068D01*
X117286260Y-108515000D01*
X116993740Y-108515000D01*
X116706842Y-108572068D01*
X116436589Y-108684010D01*
X116193368Y-108846525D01*
X115986525Y-109053368D01*
X115870000Y-109227760D01*
X115753475Y-109053368D01*
X115546632Y-108846525D01*
X115303411Y-108684010D01*
X115033158Y-108572068D01*
X114746260Y-108515000D01*
X114453740Y-108515000D01*
X114166842Y-108572068D01*
X113896589Y-108684010D01*
X113653368Y-108846525D01*
X113446525Y-109053368D01*
X113324805Y-109235534D01*
X113255178Y-109118645D01*
X113060269Y-108902412D01*
X112826920Y-108728359D01*
X112564099Y-108603175D01*
X112416890Y-108558524D01*
X112187000Y-108679845D01*
X111933000Y-108679845D01*
X111703110Y-108558524D01*
X111555901Y-108603175D01*
X111293080Y-108728359D01*
X111059731Y-108902412D01*
X110864822Y-109118645D01*
X110715843Y-109368748D01*
X110618519Y-109643109D01*
X105661545Y-109643109D01*
X105590824Y-109472376D01*
X105525759Y-109375000D01*
X105590824Y-109277624D01*
X105676383Y-109071067D01*
X105720000Y-108851788D01*
X105720000Y-108628212D01*
X105676383Y-108408933D01*
X105590824Y-108202376D01*
X105466612Y-108016480D01*
X105308520Y-107858388D01*
X105122624Y-107734176D01*
X104916067Y-107648617D01*
X104696788Y-107605000D01*
X104473212Y-107605000D01*
X104253933Y-107648617D01*
X104142226Y-107694888D01*
X104059180Y-107650498D01*
X103939482Y-107614188D01*
X103815000Y-107601928D01*
X102815000Y-107601928D01*
X102690518Y-107614188D01*
X102570820Y-107650498D01*
X102460506Y-107709463D01*
X102363815Y-107788815D01*
X102284463Y-107885506D01*
X102225498Y-107995820D01*
X102189188Y-108115518D01*
X102176928Y-108240000D01*
X100660000Y-108240000D01*
X100660000Y-107307911D01*
X106045000Y-107307911D01*
X106045000Y-107492089D01*
X106080932Y-107672729D01*
X106151414Y-107842889D01*
X106253738Y-107996028D01*
X106383972Y-108126262D01*
X106537111Y-108228586D01*
X106707271Y-108299068D01*
X106887911Y-108335000D01*
X107072089Y-108335000D01*
X107252729Y-108299068D01*
X107283296Y-108286407D01*
X107436938Y-108350047D01*
X107617578Y-108385979D01*
X107801756Y-108385979D01*
X107982396Y-108350047D01*
X108152556Y-108279565D01*
X108305695Y-108177241D01*
X108435929Y-108047007D01*
X108538253Y-107893868D01*
X108608735Y-107723708D01*
X108644667Y-107543068D01*
X108644667Y-107358890D01*
X108608735Y-107178250D01*
X108538253Y-107008090D01*
X108435929Y-106854951D01*
X108305695Y-106724717D01*
X108152556Y-106622393D01*
X107982396Y-106551911D01*
X107801756Y-106515979D01*
X107617578Y-106515979D01*
X107436938Y-106551911D01*
X107406371Y-106564572D01*
X107252729Y-106500932D01*
X107072089Y-106465000D01*
X106887911Y-106465000D01*
X106707271Y-106500932D01*
X106537111Y-106571414D01*
X106383972Y-106673738D01*
X106253738Y-106803972D01*
X106151414Y-106957111D01*
X106080932Y-107127271D01*
X106045000Y-107307911D01*
X100660000Y-107307911D01*
X100660000Y-104947911D01*
X122545000Y-104947911D01*
X122545000Y-105132089D01*
X122580932Y-105312729D01*
X122651414Y-105482889D01*
X122753738Y-105636028D01*
X122883972Y-105766262D01*
X123037111Y-105868586D01*
X123207271Y-105939068D01*
X123387911Y-105975000D01*
X123572089Y-105975000D01*
X123752729Y-105939068D01*
X123922889Y-105868586D01*
X124076028Y-105766262D01*
X124206262Y-105636028D01*
X124308586Y-105482889D01*
X124379068Y-105312729D01*
X124415000Y-105132089D01*
X124415000Y-104947911D01*
X124379068Y-104767271D01*
X124308586Y-104597111D01*
X124206262Y-104443972D01*
X124076028Y-104313738D01*
X123922889Y-104211414D01*
X123752729Y-104140932D01*
X123572089Y-104105000D01*
X123387911Y-104105000D01*
X123207271Y-104140932D01*
X123037111Y-104211414D01*
X122883972Y-104313738D01*
X122753738Y-104443972D01*
X122651414Y-104597111D01*
X122580932Y-104767271D01*
X122545000Y-104947911D01*
X100660000Y-104947911D01*
X100660000Y-99820000D01*
X101669509Y-99820000D01*
X101691423Y-100042499D01*
X101756324Y-100256447D01*
X101861716Y-100453623D01*
X102003551Y-100626449D01*
X102176377Y-100768284D01*
X102373553Y-100873676D01*
X102587501Y-100938577D01*
X102754248Y-100955000D01*
X103465752Y-100955000D01*
X103632499Y-100938577D01*
X103846447Y-100873676D01*
X104043623Y-100768284D01*
X104216449Y-100626449D01*
X104358284Y-100453623D01*
X104463676Y-100256447D01*
X104528577Y-100042499D01*
X104550491Y-99820000D01*
X105599509Y-99820000D01*
X105621423Y-100042499D01*
X105686324Y-100256447D01*
X105791716Y-100453623D01*
X105933551Y-100626449D01*
X106106377Y-100768284D01*
X106303553Y-100873676D01*
X106517501Y-100938577D01*
X106684248Y-100955000D01*
X107895752Y-100955000D01*
X108062499Y-100938577D01*
X108170766Y-100905734D01*
X109362823Y-100905734D01*
X109362823Y-101089912D01*
X109398755Y-101270552D01*
X109469237Y-101440712D01*
X109571561Y-101593851D01*
X109701795Y-101724085D01*
X109854934Y-101826409D01*
X110025094Y-101896891D01*
X110205734Y-101932823D01*
X110389912Y-101932823D01*
X110570552Y-101896891D01*
X110740712Y-101826409D01*
X110893851Y-101724085D01*
X111024085Y-101593851D01*
X111126409Y-101440712D01*
X111196891Y-101270552D01*
X111232823Y-101089912D01*
X111232823Y-100905734D01*
X111196891Y-100725094D01*
X111146377Y-100603140D01*
X122263000Y-100603140D01*
X122263000Y-100787318D01*
X122298932Y-100967958D01*
X122369414Y-101138118D01*
X122471738Y-101291257D01*
X122601972Y-101421491D01*
X122755111Y-101523815D01*
X122792983Y-101539502D01*
X122798932Y-101569407D01*
X122869414Y-101739567D01*
X122971738Y-101892706D01*
X123101972Y-102022940D01*
X123255111Y-102125264D01*
X123283837Y-102137162D01*
X123298932Y-102213051D01*
X123369414Y-102383211D01*
X123471738Y-102536350D01*
X123601972Y-102666584D01*
X123755111Y-102768908D01*
X123778220Y-102778480D01*
X123798932Y-102882606D01*
X123869414Y-103052766D01*
X123971738Y-103205905D01*
X124101972Y-103336139D01*
X124255111Y-103438463D01*
X124286768Y-103451576D01*
X124298932Y-103512729D01*
X124369414Y-103682889D01*
X124471738Y-103836028D01*
X124601972Y-103966262D01*
X124755111Y-104068586D01*
X124925271Y-104139068D01*
X125105911Y-104175000D01*
X125290089Y-104175000D01*
X125470729Y-104139068D01*
X125640889Y-104068586D01*
X125794028Y-103966262D01*
X125924262Y-103836028D01*
X126026586Y-103682889D01*
X126097068Y-103512729D01*
X126133000Y-103332089D01*
X126133000Y-103147911D01*
X126097068Y-102967271D01*
X126026586Y-102797111D01*
X125924262Y-102643972D01*
X125794028Y-102513738D01*
X125640889Y-102411414D01*
X125609232Y-102398301D01*
X125597068Y-102337148D01*
X125526586Y-102166988D01*
X125424262Y-102013849D01*
X125294028Y-101883615D01*
X125140889Y-101781291D01*
X125117780Y-101771719D01*
X125097068Y-101667593D01*
X125026586Y-101497433D01*
X124924262Y-101344294D01*
X124794028Y-101214060D01*
X124640889Y-101111736D01*
X124612163Y-101099838D01*
X124597068Y-101023949D01*
X124526586Y-100853789D01*
X124515977Y-100837911D01*
X145375000Y-100837911D01*
X145375000Y-101022089D01*
X145410932Y-101202729D01*
X145481414Y-101372889D01*
X145583738Y-101526028D01*
X145713972Y-101656262D01*
X145867111Y-101758586D01*
X146037271Y-101829068D01*
X146217911Y-101865000D01*
X146402089Y-101865000D01*
X146582729Y-101829068D01*
X146752889Y-101758586D01*
X146906028Y-101656262D01*
X147036262Y-101526028D01*
X147138586Y-101372889D01*
X147209068Y-101202729D01*
X147245000Y-101022089D01*
X147245000Y-100837911D01*
X147209068Y-100657271D01*
X147138586Y-100487111D01*
X147036262Y-100333972D01*
X146906028Y-100203738D01*
X146752889Y-100101414D01*
X146582729Y-100030932D01*
X146402089Y-99995000D01*
X146217911Y-99995000D01*
X146037271Y-100030932D01*
X145867111Y-100101414D01*
X145713972Y-100203738D01*
X145583738Y-100333972D01*
X145481414Y-100487111D01*
X145410932Y-100657271D01*
X145375000Y-100837911D01*
X124515977Y-100837911D01*
X124424262Y-100700650D01*
X124294028Y-100570416D01*
X124140889Y-100468092D01*
X124103017Y-100452405D01*
X124097068Y-100422500D01*
X124026586Y-100252340D01*
X123924262Y-100099201D01*
X123794028Y-99968967D01*
X123640889Y-99866643D01*
X123470729Y-99796161D01*
X123290089Y-99760229D01*
X123105911Y-99760229D01*
X122925271Y-99796161D01*
X122755111Y-99866643D01*
X122601972Y-99968967D01*
X122471738Y-100099201D01*
X122369414Y-100252340D01*
X122298932Y-100422500D01*
X122263000Y-100603140D01*
X111146377Y-100603140D01*
X111126409Y-100554934D01*
X111024085Y-100401795D01*
X110893851Y-100271561D01*
X110740712Y-100169237D01*
X110570552Y-100098755D01*
X110389912Y-100062823D01*
X110205734Y-100062823D01*
X110025094Y-100098755D01*
X109854934Y-100169237D01*
X109701795Y-100271561D01*
X109571561Y-100401795D01*
X109469237Y-100554934D01*
X109398755Y-100725094D01*
X109362823Y-100905734D01*
X108170766Y-100905734D01*
X108276447Y-100873676D01*
X108473623Y-100768284D01*
X108646449Y-100626449D01*
X108788284Y-100453623D01*
X108893676Y-100256447D01*
X108958577Y-100042499D01*
X108980491Y-99820000D01*
X108958577Y-99597501D01*
X108893676Y-99383553D01*
X108788284Y-99186377D01*
X108646449Y-99013551D01*
X108473623Y-98871716D01*
X108276447Y-98766324D01*
X108062499Y-98701423D01*
X107895752Y-98685000D01*
X107676904Y-98685000D01*
X107683108Y-98670022D01*
X107720000Y-98484552D01*
X107720000Y-98295448D01*
X107683108Y-98109978D01*
X107610741Y-97935269D01*
X107505681Y-97778036D01*
X107371964Y-97644319D01*
X107214731Y-97539259D01*
X107040022Y-97466892D01*
X106854552Y-97430000D01*
X106665448Y-97430000D01*
X106479978Y-97466892D01*
X106305269Y-97539259D01*
X106148036Y-97644319D01*
X106014319Y-97778036D01*
X105909259Y-97935269D01*
X105836892Y-98109978D01*
X105800000Y-98295448D01*
X105800000Y-98484552D01*
X105836892Y-98670022D01*
X105909259Y-98844731D01*
X105990715Y-98966638D01*
X105933551Y-99013551D01*
X105791716Y-99186377D01*
X105686324Y-99383553D01*
X105621423Y-99597501D01*
X105599509Y-99820000D01*
X104550491Y-99820000D01*
X104528577Y-99597501D01*
X104463676Y-99383553D01*
X104358284Y-99186377D01*
X104216449Y-99013551D01*
X104043623Y-98871716D01*
X103846447Y-98766324D01*
X103632499Y-98701423D01*
X103465752Y-98685000D01*
X102754248Y-98685000D01*
X102587501Y-98701423D01*
X102373553Y-98766324D01*
X102176377Y-98871716D01*
X102003551Y-99013551D01*
X101861716Y-99186377D01*
X101756324Y-99383553D01*
X101691423Y-99597501D01*
X101669509Y-99820000D01*
X100660000Y-99820000D01*
X100660000Y-95907911D01*
X109765000Y-95907911D01*
X109765000Y-96092089D01*
X109800932Y-96272729D01*
X109871414Y-96442889D01*
X109973738Y-96596028D01*
X110103972Y-96726262D01*
X110257111Y-96828586D01*
X110427271Y-96899068D01*
X110607911Y-96935000D01*
X110792089Y-96935000D01*
X110972729Y-96899068D01*
X111142889Y-96828586D01*
X111172177Y-96809016D01*
X113492755Y-96809016D01*
X113492755Y-96993194D01*
X113528687Y-97173834D01*
X113599169Y-97343994D01*
X113701493Y-97497133D01*
X113831727Y-97627367D01*
X113984866Y-97729691D01*
X114155026Y-97800173D01*
X114335666Y-97836105D01*
X114519844Y-97836105D01*
X114700484Y-97800173D01*
X114870644Y-97729691D01*
X115023783Y-97627367D01*
X115136150Y-97515000D01*
X115172089Y-97515000D01*
X115352729Y-97479068D01*
X115522889Y-97408586D01*
X115676028Y-97306262D01*
X115806262Y-97176028D01*
X115908586Y-97022889D01*
X115979068Y-96852729D01*
X115980605Y-96845000D01*
X116102089Y-96845000D01*
X116282729Y-96809068D01*
X116452889Y-96738586D01*
X116606028Y-96636262D01*
X116736262Y-96506028D01*
X116838586Y-96352889D01*
X116909068Y-96182729D01*
X116945000Y-96002089D01*
X116945000Y-95817911D01*
X116909068Y-95637271D01*
X116838586Y-95467111D01*
X116736262Y-95313972D01*
X116606028Y-95183738D01*
X116452889Y-95081414D01*
X116282729Y-95010932D01*
X116102089Y-94975000D01*
X115917911Y-94975000D01*
X115737271Y-95010932D01*
X115567111Y-95081414D01*
X115413972Y-95183738D01*
X115283738Y-95313972D01*
X115181414Y-95467111D01*
X115110932Y-95637271D01*
X115109395Y-95645000D01*
X114987911Y-95645000D01*
X114807271Y-95680932D01*
X114637111Y-95751414D01*
X114483972Y-95853738D01*
X114371605Y-95966105D01*
X114335666Y-95966105D01*
X114155026Y-96002037D01*
X113984866Y-96072519D01*
X113831727Y-96174843D01*
X113701493Y-96305077D01*
X113599169Y-96458216D01*
X113528687Y-96628376D01*
X113492755Y-96809016D01*
X111172177Y-96809016D01*
X111296028Y-96726262D01*
X111426262Y-96596028D01*
X111528586Y-96442889D01*
X111599068Y-96272729D01*
X111635000Y-96092089D01*
X111635000Y-95907911D01*
X111599068Y-95727271D01*
X111528586Y-95557111D01*
X111426262Y-95403972D01*
X111296028Y-95273738D01*
X111142889Y-95171414D01*
X110972729Y-95100932D01*
X110792089Y-95065000D01*
X110607911Y-95065000D01*
X110427271Y-95100932D01*
X110257111Y-95171414D01*
X110103972Y-95273738D01*
X109973738Y-95403972D01*
X109871414Y-95557111D01*
X109800932Y-95727271D01*
X109765000Y-95907911D01*
X100660000Y-95907911D01*
X100660000Y-94105911D01*
X111025000Y-94105911D01*
X111025000Y-94290089D01*
X111060932Y-94470729D01*
X111131414Y-94640889D01*
X111233738Y-94794028D01*
X111363972Y-94924262D01*
X111517111Y-95026586D01*
X111687271Y-95097068D01*
X111867911Y-95133000D01*
X112052089Y-95133000D01*
X112232729Y-95097068D01*
X112402889Y-95026586D01*
X112556028Y-94924262D01*
X112686262Y-94794028D01*
X112788586Y-94640889D01*
X112859068Y-94470729D01*
X112895000Y-94290089D01*
X112895000Y-94105911D01*
X112859068Y-93925271D01*
X112788586Y-93755111D01*
X112686262Y-93601972D01*
X112556028Y-93471738D01*
X112402889Y-93369414D01*
X112232729Y-93298932D01*
X112052089Y-93263000D01*
X111867911Y-93263000D01*
X111687271Y-93298932D01*
X111517111Y-93369414D01*
X111363972Y-93471738D01*
X111233738Y-93601972D01*
X111131414Y-93755111D01*
X111060932Y-93925271D01*
X111025000Y-94105911D01*
X100660000Y-94105911D01*
X100660000Y-91180000D01*
X101669509Y-91180000D01*
X101691423Y-91402499D01*
X101756324Y-91616447D01*
X101861716Y-91813623D01*
X102003551Y-91986449D01*
X102176377Y-92128284D01*
X102373553Y-92233676D01*
X102587501Y-92298577D01*
X102754248Y-92315000D01*
X103465752Y-92315000D01*
X103632499Y-92298577D01*
X103846447Y-92233676D01*
X104043623Y-92128284D01*
X104216449Y-91986449D01*
X104358284Y-91813623D01*
X104463676Y-91616447D01*
X104528577Y-91402499D01*
X104550491Y-91180000D01*
X105599509Y-91180000D01*
X105621423Y-91402499D01*
X105686324Y-91616447D01*
X105791716Y-91813623D01*
X105933551Y-91986449D01*
X105990715Y-92033362D01*
X105909259Y-92155269D01*
X105836892Y-92329978D01*
X105800000Y-92515448D01*
X105800000Y-92704552D01*
X105836892Y-92890022D01*
X105909259Y-93064731D01*
X106014319Y-93221964D01*
X106148036Y-93355681D01*
X106305269Y-93460741D01*
X106479978Y-93533108D01*
X106665448Y-93570000D01*
X106854552Y-93570000D01*
X107040022Y-93533108D01*
X107214731Y-93460741D01*
X107371964Y-93355681D01*
X107505681Y-93221964D01*
X107610741Y-93064731D01*
X107683108Y-92890022D01*
X107720000Y-92704552D01*
X107720000Y-92515448D01*
X107683108Y-92329978D01*
X107676904Y-92315000D01*
X107895752Y-92315000D01*
X108062499Y-92298577D01*
X108276447Y-92233676D01*
X108473623Y-92128284D01*
X108646449Y-91986449D01*
X108788284Y-91813623D01*
X108893676Y-91616447D01*
X108958577Y-91402499D01*
X108972817Y-91257911D01*
X116015000Y-91257911D01*
X116015000Y-91442089D01*
X116050932Y-91622729D01*
X116121414Y-91792889D01*
X116223738Y-91946028D01*
X116353972Y-92076262D01*
X116507111Y-92178586D01*
X116677271Y-92249068D01*
X116857911Y-92285000D01*
X117042089Y-92285000D01*
X117222729Y-92249068D01*
X117274632Y-92227569D01*
X117333738Y-92316028D01*
X117463972Y-92446262D01*
X117617111Y-92548586D01*
X117787271Y-92619068D01*
X117967911Y-92655000D01*
X118152089Y-92655000D01*
X118332729Y-92619068D01*
X118502889Y-92548586D01*
X118656028Y-92446262D01*
X118694379Y-92407911D01*
X122565000Y-92407911D01*
X122565000Y-92592089D01*
X122600932Y-92772729D01*
X122671414Y-92942889D01*
X122773738Y-93096028D01*
X122903972Y-93226262D01*
X122939498Y-93250000D01*
X122903972Y-93273738D01*
X122773738Y-93403972D01*
X122671414Y-93557111D01*
X122600932Y-93727271D01*
X122565000Y-93907911D01*
X122565000Y-94092089D01*
X122600932Y-94272729D01*
X122671414Y-94442889D01*
X122773738Y-94596028D01*
X122903972Y-94726262D01*
X122939498Y-94750000D01*
X122903972Y-94773738D01*
X122773738Y-94903972D01*
X122671414Y-95057111D01*
X122600932Y-95227271D01*
X122565000Y-95407911D01*
X122565000Y-95592089D01*
X122600932Y-95772729D01*
X122671414Y-95942889D01*
X122773738Y-96096028D01*
X122903972Y-96226262D01*
X123057111Y-96328586D01*
X123227271Y-96399068D01*
X123407911Y-96435000D01*
X123592089Y-96435000D01*
X123772729Y-96399068D01*
X123942889Y-96328586D01*
X124096028Y-96226262D01*
X124226262Y-96096028D01*
X124250000Y-96060502D01*
X124273738Y-96096028D01*
X124403972Y-96226262D01*
X124557111Y-96328586D01*
X124727271Y-96399068D01*
X124907911Y-96435000D01*
X125092089Y-96435000D01*
X125272729Y-96399068D01*
X125442889Y-96328586D01*
X125596028Y-96226262D01*
X125726262Y-96096028D01*
X125750000Y-96060502D01*
X125773738Y-96096028D01*
X125903972Y-96226262D01*
X126057111Y-96328586D01*
X126227271Y-96399068D01*
X126407911Y-96435000D01*
X126592089Y-96435000D01*
X126772729Y-96399068D01*
X126942889Y-96328586D01*
X127096028Y-96226262D01*
X127226262Y-96096028D01*
X127328586Y-95942889D01*
X127399068Y-95772729D01*
X127435000Y-95592089D01*
X127435000Y-95407911D01*
X127399068Y-95227271D01*
X127328586Y-95057111D01*
X127226262Y-94903972D01*
X127096028Y-94773738D01*
X127060502Y-94750000D01*
X127096028Y-94726262D01*
X127226262Y-94596028D01*
X127328586Y-94442889D01*
X127399068Y-94272729D01*
X127435000Y-94092089D01*
X127435000Y-93907911D01*
X127399068Y-93727271D01*
X127328586Y-93557111D01*
X127226262Y-93403972D01*
X127096028Y-93273738D01*
X127060502Y-93250000D01*
X127096028Y-93226262D01*
X127226262Y-93096028D01*
X127328586Y-92942889D01*
X127399068Y-92772729D01*
X127435000Y-92592089D01*
X127435000Y-92407911D01*
X127399068Y-92227271D01*
X127328586Y-92057111D01*
X127226262Y-91903972D01*
X127150201Y-91827911D01*
X130805000Y-91827911D01*
X130805000Y-92012089D01*
X130840932Y-92192729D01*
X130911414Y-92362889D01*
X131013738Y-92516028D01*
X131143972Y-92646262D01*
X131297111Y-92748586D01*
X131467271Y-92819068D01*
X131647911Y-92855000D01*
X131832089Y-92855000D01*
X132012729Y-92819068D01*
X132182889Y-92748586D01*
X132336028Y-92646262D01*
X132466262Y-92516028D01*
X132568586Y-92362889D01*
X132639068Y-92192729D01*
X132644004Y-92167911D01*
X135245000Y-92167911D01*
X135245000Y-92352089D01*
X135280932Y-92532729D01*
X135351414Y-92702889D01*
X135453738Y-92856028D01*
X135583972Y-92986262D01*
X135737111Y-93088586D01*
X135907271Y-93159068D01*
X136087911Y-93195000D01*
X136272089Y-93195000D01*
X136452729Y-93159068D01*
X136622889Y-93088586D01*
X136776028Y-92986262D01*
X136906262Y-92856028D01*
X137008586Y-92702889D01*
X137079068Y-92532729D01*
X137115000Y-92352089D01*
X137115000Y-92167911D01*
X137079068Y-91987271D01*
X137008586Y-91817111D01*
X136906262Y-91663972D01*
X136776028Y-91533738D01*
X136622889Y-91431414D01*
X136452729Y-91360932D01*
X136272089Y-91325000D01*
X136087911Y-91325000D01*
X135907271Y-91360932D01*
X135737111Y-91431414D01*
X135583972Y-91533738D01*
X135453738Y-91663972D01*
X135351414Y-91817111D01*
X135280932Y-91987271D01*
X135245000Y-92167911D01*
X132644004Y-92167911D01*
X132675000Y-92012089D01*
X132675000Y-91827911D01*
X132639068Y-91647271D01*
X132568586Y-91477111D01*
X132466262Y-91323972D01*
X132336028Y-91193738D01*
X132182889Y-91091414D01*
X132012729Y-91020932D01*
X131832089Y-90985000D01*
X131647911Y-90985000D01*
X131467271Y-91020932D01*
X131297111Y-91091414D01*
X131143972Y-91193738D01*
X131013738Y-91323972D01*
X130911414Y-91477111D01*
X130840932Y-91647271D01*
X130805000Y-91827911D01*
X127150201Y-91827911D01*
X127096028Y-91773738D01*
X126942889Y-91671414D01*
X126772729Y-91600932D01*
X126592089Y-91565000D01*
X126407911Y-91565000D01*
X126227271Y-91600932D01*
X126057111Y-91671414D01*
X125903972Y-91773738D01*
X125773738Y-91903972D01*
X125750000Y-91939498D01*
X125726262Y-91903972D01*
X125596028Y-91773738D01*
X125442889Y-91671414D01*
X125272729Y-91600932D01*
X125092089Y-91565000D01*
X124907911Y-91565000D01*
X124727271Y-91600932D01*
X124557111Y-91671414D01*
X124403972Y-91773738D01*
X124273738Y-91903972D01*
X124250000Y-91939498D01*
X124226262Y-91903972D01*
X124096028Y-91773738D01*
X123942889Y-91671414D01*
X123772729Y-91600932D01*
X123592089Y-91565000D01*
X123407911Y-91565000D01*
X123227271Y-91600932D01*
X123057111Y-91671414D01*
X122903972Y-91773738D01*
X122773738Y-91903972D01*
X122671414Y-92057111D01*
X122600932Y-92227271D01*
X122565000Y-92407911D01*
X118694379Y-92407911D01*
X118786262Y-92316028D01*
X118883315Y-92170778D01*
X119042729Y-92139068D01*
X119212889Y-92068586D01*
X119366028Y-91966262D01*
X119367633Y-91964657D01*
X119500297Y-91991046D01*
X119684475Y-91991046D01*
X119865115Y-91955114D01*
X120035275Y-91884632D01*
X120188414Y-91782308D01*
X120215722Y-91755000D01*
X120372089Y-91755000D01*
X120552729Y-91719068D01*
X120722889Y-91648586D01*
X120876028Y-91546262D01*
X121006262Y-91416028D01*
X121108586Y-91262889D01*
X121179068Y-91092729D01*
X121215000Y-90912089D01*
X121215000Y-90727911D01*
X121179068Y-90547271D01*
X121108586Y-90377111D01*
X121006262Y-90223972D01*
X120876028Y-90093738D01*
X120722889Y-89991414D01*
X120552729Y-89920932D01*
X120372089Y-89885000D01*
X120187911Y-89885000D01*
X120007271Y-89920932D01*
X119837111Y-89991414D01*
X119683972Y-90093738D01*
X119656664Y-90121046D01*
X119500297Y-90121046D01*
X119319657Y-90156978D01*
X119149497Y-90227460D01*
X118996358Y-90329784D01*
X118994753Y-90331389D01*
X118862089Y-90305000D01*
X118677911Y-90305000D01*
X118497271Y-90340932D01*
X118327111Y-90411414D01*
X118173972Y-90513738D01*
X118043738Y-90643972D01*
X117946685Y-90789222D01*
X117787271Y-90820932D01*
X117735368Y-90842431D01*
X117676262Y-90753972D01*
X117546028Y-90623738D01*
X117392889Y-90521414D01*
X117222729Y-90450932D01*
X117042089Y-90415000D01*
X116857911Y-90415000D01*
X116677271Y-90450932D01*
X116507111Y-90521414D01*
X116353972Y-90623738D01*
X116223738Y-90753972D01*
X116121414Y-90907111D01*
X116050932Y-91077271D01*
X116015000Y-91257911D01*
X108972817Y-91257911D01*
X108980491Y-91180000D01*
X108958577Y-90957501D01*
X108893676Y-90743553D01*
X108788284Y-90546377D01*
X108646449Y-90373551D01*
X108473623Y-90231716D01*
X108276447Y-90126324D01*
X108062499Y-90061423D01*
X107895752Y-90045000D01*
X106684248Y-90045000D01*
X106517501Y-90061423D01*
X106303553Y-90126324D01*
X106106377Y-90231716D01*
X105933551Y-90373551D01*
X105791716Y-90546377D01*
X105686324Y-90743553D01*
X105621423Y-90957501D01*
X105599509Y-91180000D01*
X104550491Y-91180000D01*
X104528577Y-90957501D01*
X104463676Y-90743553D01*
X104358284Y-90546377D01*
X104216449Y-90373551D01*
X104043623Y-90231716D01*
X103846447Y-90126324D01*
X103632499Y-90061423D01*
X103465752Y-90045000D01*
X102754248Y-90045000D01*
X102587501Y-90061423D01*
X102373553Y-90126324D01*
X102176377Y-90231716D01*
X102003551Y-90373551D01*
X101861716Y-90546377D01*
X101756324Y-90743553D01*
X101691423Y-90957501D01*
X101669509Y-91180000D01*
X100660000Y-91180000D01*
X100660000Y-89597911D01*
X108505000Y-89597911D01*
X108505000Y-89782089D01*
X108540932Y-89962729D01*
X108611414Y-90132889D01*
X108713738Y-90286028D01*
X108843972Y-90416262D01*
X108997111Y-90518586D01*
X109167271Y-90589068D01*
X109347911Y-90625000D01*
X109532089Y-90625000D01*
X109712729Y-90589068D01*
X109882889Y-90518586D01*
X110036028Y-90416262D01*
X110166262Y-90286028D01*
X110268586Y-90132889D01*
X110339068Y-89962729D01*
X110375000Y-89782089D01*
X110375000Y-89597911D01*
X110339068Y-89417271D01*
X110268586Y-89247111D01*
X110166262Y-89093972D01*
X110036028Y-88963738D01*
X109882889Y-88861414D01*
X109712729Y-88790932D01*
X109532089Y-88755000D01*
X109347911Y-88755000D01*
X109167271Y-88790932D01*
X108997111Y-88861414D01*
X108843972Y-88963738D01*
X108713738Y-89093972D01*
X108611414Y-89247111D01*
X108540932Y-89417271D01*
X108505000Y-89597911D01*
X100660000Y-89597911D01*
X100660000Y-88103142D01*
X122763000Y-88103142D01*
X122763000Y-88287320D01*
X122798932Y-88467960D01*
X122869414Y-88638120D01*
X122971738Y-88791259D01*
X123101972Y-88921493D01*
X123255111Y-89023817D01*
X123425271Y-89094299D01*
X123605911Y-89130231D01*
X123790089Y-89130231D01*
X123970729Y-89094299D01*
X124140889Y-89023817D01*
X124239524Y-88957911D01*
X143165000Y-88957911D01*
X143165000Y-89142089D01*
X143200932Y-89322729D01*
X143271414Y-89492889D01*
X143373738Y-89646028D01*
X143503972Y-89776262D01*
X143657111Y-89878586D01*
X143827271Y-89949068D01*
X144007911Y-89985000D01*
X144192089Y-89985000D01*
X144372729Y-89949068D01*
X144542889Y-89878586D01*
X144696028Y-89776262D01*
X144826262Y-89646028D01*
X144928586Y-89492889D01*
X144999068Y-89322729D01*
X145035000Y-89142089D01*
X145035000Y-88957911D01*
X144999068Y-88777271D01*
X144928586Y-88607111D01*
X144826262Y-88453972D01*
X144696028Y-88323738D01*
X144542889Y-88221414D01*
X144372729Y-88150932D01*
X144192089Y-88115000D01*
X144007911Y-88115000D01*
X143827271Y-88150932D01*
X143657111Y-88221414D01*
X143503972Y-88323738D01*
X143373738Y-88453972D01*
X143271414Y-88607111D01*
X143200932Y-88777271D01*
X143165000Y-88957911D01*
X124239524Y-88957911D01*
X124294028Y-88921493D01*
X124424262Y-88791259D01*
X124526586Y-88638120D01*
X124597068Y-88467960D01*
X124598298Y-88461774D01*
X124640889Y-88444133D01*
X124794028Y-88341809D01*
X124924262Y-88211575D01*
X125026586Y-88058436D01*
X125097068Y-87888276D01*
X125109629Y-87825130D01*
X125140889Y-87812182D01*
X125294028Y-87709858D01*
X125424262Y-87579624D01*
X125526586Y-87426485D01*
X125597068Y-87256325D01*
X125599146Y-87245876D01*
X125640889Y-87228586D01*
X125794028Y-87126262D01*
X125924262Y-86996028D01*
X126026586Y-86842889D01*
X126097068Y-86672729D01*
X126133000Y-86492089D01*
X126133000Y-86307911D01*
X126097068Y-86127271D01*
X126026586Y-85957111D01*
X125924262Y-85803972D01*
X125794028Y-85673738D01*
X125640889Y-85571414D01*
X125470729Y-85500932D01*
X125290089Y-85465000D01*
X125105911Y-85465000D01*
X124925271Y-85500932D01*
X124755111Y-85571414D01*
X124601972Y-85673738D01*
X124471738Y-85803972D01*
X124369414Y-85957111D01*
X124298932Y-86127271D01*
X124296854Y-86137720D01*
X124255111Y-86155010D01*
X124101972Y-86257334D01*
X123971738Y-86387568D01*
X123869414Y-86540707D01*
X123798932Y-86710867D01*
X123786371Y-86774013D01*
X123755111Y-86786961D01*
X123601972Y-86889285D01*
X123471738Y-87019519D01*
X123369414Y-87172658D01*
X123298932Y-87342818D01*
X123297702Y-87349004D01*
X123255111Y-87366645D01*
X123101972Y-87468969D01*
X122971738Y-87599203D01*
X122869414Y-87752342D01*
X122798932Y-87922502D01*
X122763000Y-88103142D01*
X100660000Y-88103142D01*
X100660000Y-80356891D01*
X110618519Y-80356891D01*
X110715843Y-80631252D01*
X110864822Y-80881355D01*
X111059731Y-81097588D01*
X111293080Y-81271641D01*
X111555901Y-81396825D01*
X111703110Y-81441476D01*
X111933000Y-81320155D01*
X111933000Y-80127000D01*
X110739186Y-80127000D01*
X110618519Y-80356891D01*
X100660000Y-80356891D01*
X100660000Y-77816891D01*
X110618519Y-77816891D01*
X110715843Y-78091252D01*
X110864822Y-78341355D01*
X111059731Y-78557588D01*
X111290880Y-78730000D01*
X111059731Y-78902412D01*
X110864822Y-79118645D01*
X110715843Y-79368748D01*
X110618519Y-79643109D01*
X110739186Y-79873000D01*
X111933000Y-79873000D01*
X111933000Y-77587000D01*
X110739186Y-77587000D01*
X110618519Y-77816891D01*
X100660000Y-77816891D01*
X100660000Y-77103109D01*
X110618519Y-77103109D01*
X110739186Y-77333000D01*
X111933000Y-77333000D01*
X111933000Y-76139845D01*
X112187000Y-76139845D01*
X112187000Y-77333000D01*
X112207000Y-77333000D01*
X112207000Y-77587000D01*
X112187000Y-77587000D01*
X112187000Y-79873000D01*
X112207000Y-79873000D01*
X112207000Y-80127000D01*
X112187000Y-80127000D01*
X112187000Y-81320155D01*
X112416890Y-81441476D01*
X112564099Y-81396825D01*
X112826920Y-81271641D01*
X113060269Y-81097588D01*
X113255178Y-80881355D01*
X113324805Y-80764466D01*
X113446525Y-80946632D01*
X113653368Y-81153475D01*
X113896589Y-81315990D01*
X114166842Y-81427932D01*
X114453740Y-81485000D01*
X114746260Y-81485000D01*
X115033158Y-81427932D01*
X115303411Y-81315990D01*
X115546632Y-81153475D01*
X115753475Y-80946632D01*
X115870000Y-80772240D01*
X115986525Y-80946632D01*
X116193368Y-81153475D01*
X116436589Y-81315990D01*
X116706842Y-81427932D01*
X116993740Y-81485000D01*
X117286260Y-81485000D01*
X117573158Y-81427932D01*
X117843411Y-81315990D01*
X118086632Y-81153475D01*
X118293475Y-80946632D01*
X118410000Y-80772240D01*
X118526525Y-80946632D01*
X118733368Y-81153475D01*
X118976589Y-81315990D01*
X119246842Y-81427932D01*
X119533740Y-81485000D01*
X119826260Y-81485000D01*
X120113158Y-81427932D01*
X120383411Y-81315990D01*
X120626632Y-81153475D01*
X120833475Y-80946632D01*
X120950000Y-80772240D01*
X121066525Y-80946632D01*
X121273368Y-81153475D01*
X121516589Y-81315990D01*
X121786842Y-81427932D01*
X122073740Y-81485000D01*
X122366260Y-81485000D01*
X122653158Y-81427932D01*
X122923411Y-81315990D01*
X123166632Y-81153475D01*
X123373475Y-80946632D01*
X123490000Y-80772240D01*
X123606525Y-80946632D01*
X123813368Y-81153475D01*
X124056589Y-81315990D01*
X124326842Y-81427932D01*
X124613740Y-81485000D01*
X124906260Y-81485000D01*
X125193158Y-81427932D01*
X125463411Y-81315990D01*
X125706632Y-81153475D01*
X125913475Y-80946632D01*
X126030000Y-80772240D01*
X126146525Y-80946632D01*
X126353368Y-81153475D01*
X126596589Y-81315990D01*
X126866842Y-81427932D01*
X127153740Y-81485000D01*
X127446260Y-81485000D01*
X127733158Y-81427932D01*
X128003411Y-81315990D01*
X128246632Y-81153475D01*
X128453475Y-80946632D01*
X128570000Y-80772240D01*
X128686525Y-80946632D01*
X128893368Y-81153475D01*
X129136589Y-81315990D01*
X129406842Y-81427932D01*
X129693740Y-81485000D01*
X129986260Y-81485000D01*
X130273158Y-81427932D01*
X130543411Y-81315990D01*
X130786632Y-81153475D01*
X130993475Y-80946632D01*
X131110000Y-80772240D01*
X131226525Y-80946632D01*
X131433368Y-81153475D01*
X131676589Y-81315990D01*
X131946842Y-81427932D01*
X132233740Y-81485000D01*
X132526260Y-81485000D01*
X132813158Y-81427932D01*
X133083411Y-81315990D01*
X133326632Y-81153475D01*
X133533475Y-80946632D01*
X133650000Y-80772240D01*
X133766525Y-80946632D01*
X133973368Y-81153475D01*
X134216589Y-81315990D01*
X134486842Y-81427932D01*
X134773740Y-81485000D01*
X135066260Y-81485000D01*
X135353158Y-81427932D01*
X135623411Y-81315990D01*
X135866632Y-81153475D01*
X136073475Y-80946632D01*
X136190000Y-80772240D01*
X136306525Y-80946632D01*
X136513368Y-81153475D01*
X136756589Y-81315990D01*
X137026842Y-81427932D01*
X137313740Y-81485000D01*
X137606260Y-81485000D01*
X137893158Y-81427932D01*
X138163411Y-81315990D01*
X138406632Y-81153475D01*
X138613475Y-80946632D01*
X138735195Y-80764466D01*
X138804822Y-80881355D01*
X138999731Y-81097588D01*
X139233080Y-81271641D01*
X139495901Y-81396825D01*
X139643110Y-81441476D01*
X139873000Y-81320155D01*
X139873000Y-80127000D01*
X140127000Y-80127000D01*
X140127000Y-81320155D01*
X140356890Y-81441476D01*
X140504099Y-81396825D01*
X140766920Y-81271641D01*
X141000269Y-81097588D01*
X141195178Y-80881355D01*
X141344157Y-80631252D01*
X141441481Y-80356891D01*
X141320814Y-80127000D01*
X140127000Y-80127000D01*
X139873000Y-80127000D01*
X139853000Y-80127000D01*
X139853000Y-79873000D01*
X139873000Y-79873000D01*
X139873000Y-77587000D01*
X140127000Y-77587000D01*
X140127000Y-79873000D01*
X141320814Y-79873000D01*
X141441481Y-79643109D01*
X141344157Y-79368748D01*
X141195178Y-79118645D01*
X141018374Y-78922498D01*
X141094180Y-78899502D01*
X141204494Y-78840537D01*
X141301185Y-78761185D01*
X141380537Y-78664494D01*
X141439502Y-78554180D01*
X141475812Y-78434482D01*
X141488072Y-78310000D01*
X141485000Y-77745750D01*
X141326250Y-77587000D01*
X140127000Y-77587000D01*
X139873000Y-77587000D01*
X139853000Y-77587000D01*
X139853000Y-77333000D01*
X139873000Y-77333000D01*
X139873000Y-76133750D01*
X140127000Y-76133750D01*
X140127000Y-77333000D01*
X141326250Y-77333000D01*
X141485000Y-77174250D01*
X141488072Y-76610000D01*
X141475812Y-76485518D01*
X141439502Y-76365820D01*
X141380537Y-76255506D01*
X141301185Y-76158815D01*
X141204494Y-76079463D01*
X141094180Y-76020498D01*
X140974482Y-75984188D01*
X140850000Y-75971928D01*
X140285750Y-75975000D01*
X140127000Y-76133750D01*
X139873000Y-76133750D01*
X139714250Y-75975000D01*
X139150000Y-75971928D01*
X139025518Y-75984188D01*
X138905820Y-76020498D01*
X138795506Y-76079463D01*
X138698815Y-76158815D01*
X138619463Y-76255506D01*
X138560498Y-76365820D01*
X138538487Y-76438380D01*
X138406632Y-76306525D01*
X138163411Y-76144010D01*
X137893158Y-76032068D01*
X137606260Y-75975000D01*
X137313740Y-75975000D01*
X137026842Y-76032068D01*
X136756589Y-76144010D01*
X136513368Y-76306525D01*
X136306525Y-76513368D01*
X136190000Y-76687760D01*
X136073475Y-76513368D01*
X135866632Y-76306525D01*
X135623411Y-76144010D01*
X135353158Y-76032068D01*
X135066260Y-75975000D01*
X134773740Y-75975000D01*
X134486842Y-76032068D01*
X134216589Y-76144010D01*
X133973368Y-76306525D01*
X133766525Y-76513368D01*
X133650000Y-76687760D01*
X133533475Y-76513368D01*
X133326632Y-76306525D01*
X133083411Y-76144010D01*
X132813158Y-76032068D01*
X132526260Y-75975000D01*
X132233740Y-75975000D01*
X131946842Y-76032068D01*
X131676589Y-76144010D01*
X131433368Y-76306525D01*
X131226525Y-76513368D01*
X131110000Y-76687760D01*
X130993475Y-76513368D01*
X130786632Y-76306525D01*
X130543411Y-76144010D01*
X130273158Y-76032068D01*
X129986260Y-75975000D01*
X129693740Y-75975000D01*
X129406842Y-76032068D01*
X129136589Y-76144010D01*
X128893368Y-76306525D01*
X128686525Y-76513368D01*
X128570000Y-76687760D01*
X128453475Y-76513368D01*
X128246632Y-76306525D01*
X128003411Y-76144010D01*
X127733158Y-76032068D01*
X127446260Y-75975000D01*
X127153740Y-75975000D01*
X126866842Y-76032068D01*
X126596589Y-76144010D01*
X126353368Y-76306525D01*
X126146525Y-76513368D01*
X126030000Y-76687760D01*
X125913475Y-76513368D01*
X125706632Y-76306525D01*
X125463411Y-76144010D01*
X125193158Y-76032068D01*
X124906260Y-75975000D01*
X124613740Y-75975000D01*
X124326842Y-76032068D01*
X124056589Y-76144010D01*
X123813368Y-76306525D01*
X123606525Y-76513368D01*
X123490000Y-76687760D01*
X123373475Y-76513368D01*
X123166632Y-76306525D01*
X122923411Y-76144010D01*
X122653158Y-76032068D01*
X122366260Y-75975000D01*
X122073740Y-75975000D01*
X121786842Y-76032068D01*
X121516589Y-76144010D01*
X121273368Y-76306525D01*
X121066525Y-76513368D01*
X120950000Y-76687760D01*
X120833475Y-76513368D01*
X120626632Y-76306525D01*
X120383411Y-76144010D01*
X120113158Y-76032068D01*
X119826260Y-75975000D01*
X119533740Y-75975000D01*
X119246842Y-76032068D01*
X118976589Y-76144010D01*
X118733368Y-76306525D01*
X118526525Y-76513368D01*
X118410000Y-76687760D01*
X118293475Y-76513368D01*
X118086632Y-76306525D01*
X117843411Y-76144010D01*
X117573158Y-76032068D01*
X117286260Y-75975000D01*
X116993740Y-75975000D01*
X116706842Y-76032068D01*
X116436589Y-76144010D01*
X116193368Y-76306525D01*
X115986525Y-76513368D01*
X115870000Y-76687760D01*
X115753475Y-76513368D01*
X115546632Y-76306525D01*
X115303411Y-76144010D01*
X115033158Y-76032068D01*
X114746260Y-75975000D01*
X114453740Y-75975000D01*
X114166842Y-76032068D01*
X113896589Y-76144010D01*
X113653368Y-76306525D01*
X113446525Y-76513368D01*
X113324805Y-76695534D01*
X113255178Y-76578645D01*
X113060269Y-76362412D01*
X112826920Y-76188359D01*
X112564099Y-76063175D01*
X112416890Y-76018524D01*
X112187000Y-76139845D01*
X111933000Y-76139845D01*
X111703110Y-76018524D01*
X111555901Y-76063175D01*
X111293080Y-76188359D01*
X111059731Y-76362412D01*
X110864822Y-76578645D01*
X110715843Y-76828748D01*
X110618519Y-77103109D01*
X100660000Y-77103109D01*
X100660000Y-75900715D01*
X144970000Y-75900715D01*
X144970000Y-78899286D01*
X148790000Y-78899286D01*
X148790000Y-75900715D01*
X144970000Y-75900715D01*
X100660000Y-75900715D01*
X100660000Y-73032279D01*
X100707670Y-72546107D01*
X100839489Y-72109502D01*
X101053600Y-71706815D01*
X101341848Y-71353388D01*
X101693261Y-71062673D01*
X102094439Y-70845758D01*
X102530113Y-70710894D01*
X103014344Y-70660000D01*
X146967721Y-70660000D01*
X147453893Y-70707670D01*
G37*
G04 #@! TD.AperFunction*
M02*
